<?xml version="1.0" encoding="UTF-8"?>
<svg id="_レイヤー_2" data-name="レイヤー 2" xmlns="http://www.w3.org/2000/svg" xmlns:xlink="http://www.w3.org/1999/xlink" viewBox="0 0 895.84 585.37">
  <defs>
    <style>
      .cls-1 {
        fill: #005173;
      }

      .cls-1, .cls-2, .cls-3, .cls-4, .cls-5, .cls-6, .cls-7, .cls-8, .cls-9, .cls-10, .cls-11, .cls-12, .cls-13, .cls-14, .cls-15, .cls-16, .cls-17, .cls-18, .cls-19, .cls-20, .cls-21 {
        stroke-width: 0px;
      }

      .cls-2 {
        fill: #3e7e9d;
      }

      .cls-22 {
        clip-path: url(#clippath-11);
      }

      .cls-3 {
        fill: #b3cddc;
      }

      .cls-23 {
        stroke-dasharray: 0 0 0 0 28.96 5.79 2.9 5.79;
      }

      .cls-23, .cls-8, .cls-24, .cls-25, .cls-26, .cls-27, .cls-28, .cls-29 {
        fill: none;
      }

      .cls-23, .cls-24, .cls-25, .cls-27, .cls-28 {
        stroke-width: 2.53px;
      }

      .cls-23, .cls-24, .cls-25, .cls-27, .cls-28, .cls-29 {
        stroke: #fff;
        stroke-miterlimit: 8;
      }

      .cls-4 {
        fill: #1d6b8b;
      }

      .cls-30 {
        clip-path: url(#clippath-2);
      }

      .cls-5 {
        fill: #4d87a5;
      }

      .cls-6 {
        fill: #006283;
      }

      .cls-31 {
        clip-path: url(#clippath-6);
      }

      .cls-7 {
        fill: #92b7cc;
      }

      .cls-32 {
        clip-path: url(#clippath-7);
      }

      .cls-9 {
        fill: #cddee9;
      }

      .cls-24 {
        stroke-dasharray: 0 0 2.9 5.79;
      }

      .cls-33 {
        clip-path: url(#clippath-1);
      }

      .cls-34 {
        clip-path: url(#clippath-4);
      }

      .cls-10 {
        fill: #004363;
      }

      .cls-11 {
        fill: #db0011;
      }

      .cls-12 {
        fill: #2e7494;
      }

      .cls-13 {
        fill: #1a1311;
      }

      .cls-35 {
        clip-path: url(#clippath-9);
      }

      .cls-36 {
        clip-path: url(#clippath);
      }

      .cls-14 {
        fill: #78a4bc;
      }

      .cls-15 {
        fill: #5e92ae;
      }

      .cls-37 {
        clip-path: url(#clippath-3);
      }

      .cls-16 {
        fill: #003654;
      }

      .cls-38 {
        clip-path: url(#clippath-8);
      }

      .cls-26 {
        stroke: #db0011;
        stroke-miterlimit: 10;
        stroke-width: 3.68px;
      }

      .cls-17 {
        fill: #fff;
      }

      .cls-27 {
        stroke-dasharray: 0 0 0 0 25.16 5.03 2.52 5.03;
      }

      .cls-39 {
        clip-path: url(#clippath-5);
      }

      .cls-28 {
        stroke-dasharray: 0 0 3.57 7.14;
      }

      .cls-29 {
        stroke-width: 1.27px;
      }

      .cls-40 {
        clip-path: url(#clippath-10);
      }

      .cls-18 {
        fill: #6e9db7;
      }

      .cls-19 {
        fill: #005e80;
      }

      .cls-20 {
        fill: #8fb5ca;
      }

      .cls-21 {
        fill: #004a6b;
      }
    </style>
    <clipPath id="clippath">
      <polygon class="cls-8" points="605.42 76.25 605.42 173.17 689.36 221.63 773.29 173.17 773.29 76.25 689.36 27.79 605.42 76.25"/>
    </clipPath>
    <clipPath id="clippath-1">
      <polygon class="cls-8" points="605.42 76.25 605.42 173.17 689.36 221.63 773.29 173.17 773.29 76.25 689.36 27.79 605.42 76.25"/>
    </clipPath>
    <clipPath id="clippath-2">
      <polygon class="cls-8" points="703.97 247.19 703.97 344.11 787.9 392.57 871.83 344.11 871.83 247.19 787.9 198.73 703.97 247.19"/>
    </clipPath>
    <clipPath id="clippath-3">
      <path class="cls-8" d="M703.97,247.19v60.43c6.16,4.88,13.87,7.89,22.27,8.16.03,15.03,12.22,27.21,27.26,27.21,8.75,0,16.53-4.13,21.51-10.53,4.17,11.83,15.45,20.32,28.71,20.32,15.05,0,27.53-10.92,29.99-25.26,2.51,1.04,5.26,1.61,8.14,1.61,11.77,0,21.31-9.54,21.31-21.31,0-1.11-.09-2.21-.25-3.28,3.38-.5,6.45-1.97,8.92-4.11v-26.67c-.96-.83-2-1.55-3.12-2.16,1.13-1.31,2.18-2.7,3.12-4.15v-20.26l-83.93-48.46-83.93,48.46Z"/>
    </clipPath>
    <clipPath id="clippath-4">
      <polygon class="cls-8" points="605.42 418.13 605.42 515.05 689.36 563.51 773.29 515.05 773.29 418.13 689.36 369.67 605.42 418.13"/>
    </clipPath>
    <clipPath id="clippath-5">
      <polygon class="cls-8" points="605.42 418.13 605.42 515.05 689.36 563.51 773.29 515.05 773.29 418.13 689.36 369.67 605.42 418.13"/>
    </clipPath>
    <clipPath id="clippath-6">
      <rect class="cls-8" x="316.74" y="249.48" width="118.36" height="87.61"/>
    </clipPath>
    <clipPath id="clippath-7">
      <polygon class="cls-8" points="309.8 247.19 309.8 344.11 393.74 392.57 477.67 344.11 477.67 247.19 393.74 198.73 309.8 247.19"/>
    </clipPath>
    <clipPath id="clippath-8">
      <rect class="cls-8" x="410.44" y="315.44" width="50.15" height="33.36" transform="translate(-78.38 521.56) rotate(-57.57)"/>
    </clipPath>
    <clipPath id="clippath-9">
      <polygon class="cls-8" points="408.34 418.13 408.34 515.05 492.28 563.51 576.21 515.05 576.21 418.13 492.28 369.67 408.34 418.13"/>
    </clipPath>
    <clipPath id="clippath-10">
      <path class="cls-8" d="M408.34,76.25v61c6.23,5.52,14.34,8.95,23.25,9.24.03,14.65,11.91,26.52,26.56,26.52,8.53,0,16.11-4.02,20.97-10.27,4.07,11.54,15.06,19.8,27.98,19.8,14.67,0,26.84-10.64,29.23-24.62,2.44,1.01,5.12,1.57,7.93,1.57,11.47,0,20.77-9.3,20.77-20.77,0-1.09-.08-2.15-.24-3.19,4.69-.7,8.76-3.29,11.4-6.97v-20.05c-1.51-2.1-3.47-3.84-5.75-5.08,2.33-2.7,4.27-5.73,5.75-9.02v-18.16l-83.93-48.46-83.94,48.46Z"/>
    </clipPath>
    <clipPath id="clippath-11">
      <polygon class="cls-8" points="408.34 76.25 408.34 173.17 492.28 221.63 576.21 173.17 576.21 76.25 492.28 27.79 408.34 76.25"/>
    </clipPath>
  </defs>
  <g id="_レイヤー_1-2" data-name="レイヤー 1">
    <g>
      <path class="cls-11" d="M17.11,127.28c1.23,1.03,4.45,4.28,5.24,5.11l-2.39,2.99c-.63-1-1.76-2.49-2.85-3.85v12.74h-3.92v-12.17c-1.29,2.89-2.79,5.61-4.31,7.5-.37-1.16-1.29-2.85-1.92-3.88,1.99-2.22,4.08-5.9,5.44-9.19h-4.81v-3.78h5.61v-3.85c-1.59.4-3.22.76-4.81,1.06-.17-.83-.73-2.19-1.19-2.99,4.41-.9,9.25-2.39,12.08-3.98l3.28,2.89c-.13.17-.5.27-.83.2-1.29.63-2.89,1.19-4.61,1.73v4.94h4.98v3.78h-4.98v.76ZM34.26,129.3c2.02,4.41,3.98,10.02,4.51,13.7l-4.21,1.33c-.1-.9-.3-1.92-.53-3.02-4.88.66-9.72,1.33-13,1.69-.07.33-.33.53-.6.6l-1.46-4.64c.9-.07,1.92-.13,3.05-.23,1.82-7,3.65-17.02,4.41-25.01l5.44,1.06c-.13.36-.53.63-1.09.73-.96,7.2-2.75,16.12-4.58,22.82,2.19-.2,4.51-.43,6.83-.66-.73-2.46-1.63-5.01-2.59-7.27l3.82-1.09Z"/>
      <path class="cls-11" d="M60.7,121.74c-2.52.83-5.84,1.36-9.09,1.63-1.29,6.97-3.35,14.5-5.71,20l-4.31-1.53c2.62-5.24,4.54-11.54,5.67-18.25-.53.03-2.89.03-3.52.03-.7,0-1.36,0-1.92-.03l-.07-3.95c1.06.07,2.79.07,4.38.07.53,0,1.13-.03,1.69-.03.26-1.92.5-4.21.66-6.14l5.41.46c-.03.4-.43.7-.93.8-.17,1.19-.43,2.99-.66,4.48,2.62-.33,5.34-.83,7.6-1.69l.8,4.15ZM69.49,142.77c-1.03.07-2.19.1-3.38.1-2.55,0-5.24-.17-7.03-.6-2.95-.7-4.41-2.72-4.38-5.04.03-1.59.73-3.35,2.12-4.91l3.55,1.29c-1.03,1.09-1.53,2.09-1.53,2.92,0,1.82,1.69,2.29,6.77,2.29,1.33,0,2.72-.07,3.95-.17l-.07,4.11ZM56.95,126.05c3.32-1.06,7.96-1.66,11.84-1.63v3.98c-3.58-.1-7.63.3-10.95,1.23l-.9-3.58Z"/>
      <path class="cls-11" d="M97,121.24c-3.98,1-9.25,1.56-13.1,1.76-.43,3.22-.83,5.47-1.23,6.37,2.25-1.56,5.57-2.72,8.26-2.72,4.58,0,7.96,2.32,7.96,7.4,0,6.83-6.34,9.29-17.68,9.52-.27-1.03-.76-2.95-1.23-3.78,9.39-.23,14.63-1.73,14.63-5.64,0-2.39-1.46-3.75-4.41-3.75-2.62,0-6.93,1.46-9.06,4.71l-4.05-1.76c1-1.09,2.22-5.21,2.65-10.28h-7.13v-4.05c1.53.07,5.08.07,7.46.07.13-1.73.17-3.75.13-5.61l5.37.46c-.1.56-.5.73-1,.8-.07,1.43-.17,2.95-.27,4.25,3.25-.17,8.36-.9,12.01-1.92l.66,4.18Z"/>
      <path class="cls-11" d="M112.6,117.11c-.05.38-.41.52-.9.57-.25,1.34-.66,3.69-.96,5.27.71-.08,1.69-.16,2.24-.16,4.51-.03,5.9,3.14,5.9,7.4v.03c-.11,6.04-1.8,10.32-5.98,10.32-1.09,0-2.73-.52-4.92-2.24.44-.85.87-1.97,1.15-2.95,1.86,1.31,2.92,1.64,3.66,1.64,1.15,0,1.69-.93,2.13-2.49.36-1.2.57-3.47.57-4.48-.03-2.7-.85-4.07-2.79-4.07-.66,0-1.58.05-2.62.19-1.23,5-2.73,9.86-5.05,14.26l-3.17-1.56c2.24-4.04,3.63-7.84,4.73-12.32-.98.16-2.95.44-4.15.66l-.3-3.39,5.08-.57c.36-1.99.71-4.29.96-6.58l4.42.46ZM119.51,121.12c-.57-1.15-2.08-2.95-3.17-3.8l1.61-1.12c1.23,1.01,2.59,2.62,3.25,3.77l-1.69,1.15ZM123.12,132.05c-.66-3.5-2.43-7.07-4.53-8.99l2.9-1.8c2.51,2.32,4.51,5.95,5.22,9.53l-3.58,1.26ZM123.8,120c-.57-1.12-2.08-2.92-3.14-3.8l1.58-1.09c1.23.98,2.62,2.59,3.25,3.77l-1.69,1.12Z"/>
      <path class="cls-11" d="M136.21,125.95v10.55c2.06,3.35,6.07,3.35,11.88,3.35,3.82,0,8.33-.1,11.41-.37-.43.96-1.06,2.89-1.26,4.05-2.46.13-5.91.2-9.16.2-7.43,0-11.41,0-14.63-3.81-1.46,1.29-2.95,2.59-4.21,3.58,0,.36-.13.56-.46.66l-2.02-4.38c1.43-.86,3.12-1.96,4.58-3.12v-7.03h-3.88v-3.68h7.76ZM131.44,113.74c2.02,1.39,4.48,3.45,5.61,5.04l-3.15,2.65c-1.03-1.59-3.42-3.81-5.41-5.31l2.95-2.39ZM143.48,137.69v1.09h-3.88v-22.39h5.17c.4-1.16.8-2.46.96-3.48l5.27.76c-.13.3-.4.43-.86.46-.36.7-.76,1.49-1.23,2.26h6.63v9.42h-12.07v1.86h13.37v11.11h-3.85v-1.09h-9.52ZM151.7,119.65h-8.23v2.92h8.23v-2.92ZM153,130.96h-9.52v3.45h9.52v-3.45Z"/>
      <path class="cls-11" d="M160.99,137.46c2.79-1.39,7.1-3.78,11.11-6.1l1.33,3.65c-3.28,2.12-6.87,4.31-9.29,5.74,0,.3-.13.6-.36.76l-2.79-4.05ZM178.74,122.3c.8,2.19,1.86,4.31,3.12,6.3,1.86-1.82,3.91-4.15,5.24-6.1l3.91,2.99c-.13.13-.4.23-.7.23-.1,0-.23,0-.33-.03-1.49,1.79-3.95,4.18-5.97,5.9,2.39,2.92,5.31,5.31,8.69,6.83-.96.8-2.29,2.42-2.95,3.55-4.68-2.49-8.29-6.57-11.01-11.58v8.96c0,3.81-1.16,4.98-8.39,4.91-.17-1.13-.76-2.99-1.36-4.15,1.03.03,2.06.03,2.92.03h1.89c.63,0,.86-.2.86-.83v-17.45h-12.61v-3.85h12.61v-5.01l4.98.23c-.03.33-.23.56-.9.66v4.11h6.83c-1.36-.93-3.18-1.96-4.64-2.72l2.32-2.52c2.02.96,4.81,2.42,6.24,3.48l-1.56,1.76h3.71v3.85h-12.9v.43ZM166.4,122.97c1.86,1.69,4.18,4.11,5.21,5.84l-3.25,2.36c-.93-1.69-3.15-4.28-5.01-6.07l3.05-2.12Z"/>
      <path class="cls-11" d="M194.8,118.32c2.09-.07,5.01-.1,7.6-.17,1.56-.07,3.91-.13,6.3-.2,0-.5-.07-3.18-.2-4.68l5.47.27c-.03.27-.37.63-.9.73-.03.8,0,2.22.03,3.58,4.35-.13,8.69-.23,10.48-.27v3.91c-.96-.03-2.22-.03-3.65-.03-1.99,0-4.35.03-6.8.1l.2,5.9c.46,1.33.5,2.89.5,3.78,0,1.56-.2,3.28-.7,4.38-1.36,3.45-4.38,6.63-9.39,8.49-.7-1-2.12-2.49-3.09-3.28,3.58-1.23,6.3-2.95,7.46-5.01h-.03c-.4.36-1.16.63-1.82.63-2.95,0-5.9-2.36-5.9-6.04-.03-3.78,3.08-6.44,6.4-6.44.76,0,1.53.2,2.16.5,0-.33-.07-2.16-.1-2.82-2.46.03-13.4.43-13.93.46l-.1-3.81ZM209.49,130.33c0-.73,0-3.05-2.52-3.05-1.56.03-2.82,1.16-2.85,3.12,0,1.69,1.33,2.85,2.72,2.85,1.66,0,2.65-1.26,2.65-2.92Z"/>
      <path class="cls-11" d="M237.36,126.85c1.82-.8,4.41-1.23,6.34-1.23,5.04,0,8.53,3.09,8.53,8.29,0,5.94-5.17,9.39-12.41,9.39-4.28,0-7.3-1.96-7.3-5.31,0-2.69,2.72-4.88,5.84-4.88,3.52,0,6.17,2.36,6.73,5.24,1.62-.8,2.75-2.35,2.75-4.41,0-2.85-2.36-4.68-5.71-4.68-4.51,0-8.69,1.89-11.05,4.11-.8.73-2.12,2.06-2.99,3.02l-2.95-2.95c2.35-2.36,10.71-10.28,15.16-14.4-1.62.23-7.36.53-10.02.7-.1.23-.5.43-.8.5l-.36-4.68c4.25,0,13.6-.36,15.79-.73l.5-.23,2.69,3.38c-.2.2-.6.33-.96.36-1.73,1.26-7.07,6.04-9.79,8.46v.03ZM239.12,139.69c.56,0,1.59-.1,2.02-.2-.23-1.76-1.63-3.02-3.12-3.02-1.09,0-2.09.56-2.09,1.53,0,1.56,2.09,1.69,3.18,1.69Z"/>
      <path class="cls-11" d="M274.12,132.42c-1.96.23-4.51.36-6.97.36-.07.73-.1,1.36-.1,1.99,0,3.88,2.49,4.48,5.34,4.48,1.36,0,2.85-.2,4.15-.6,1.53-.43,2.29-1.59,2.29-3.15s-.76-3.52-2.39-5.51c1.09-.3,2.92-.9,3.88-1.33,1.99,2.79,2.95,5.37,2.95,7.56,0,6.93-8.82,6.93-10.88,6.93-6.47,0-9.42-2.35-9.42-8.56,0-.93.03-1.36.1-1.96-2.46-.2-6.93-.53-6.93-4.35,0-1.46.76-3.05,2.69-4.58l3.22,1.36c-1.26.8-2.06,1.79-2.06,2.52,0,1.19,1.99,1.29,3.35,1.36.2-1.82.36-3.85.6-5.97-2.12-.2-4.64-.73-6.44-1.56l.86-3.85c1.73.76,3.82,1.36,6,1.59.23-1.86.46-3.78.63-5.44l5.57.66c-.07.43-.5.7-1.19.8-.23,1.16-.5,2.72-.73,4.31.63.03,1.43.07,2.22.07,1.23,0,2.59-.07,3.68-.13l-.2,3.85c-.86.07-1.99.1-3.12.1s-2.22-.03-3.15-.07c-.27,1.99-.46,3.95-.66,5.77,2.26-.03,4.64-.2,6.67-.5l.03,3.81Z"/>
      <path class="cls-11" d="M304.41,120.84c-.13.3-.53.56-1,.56-1.36,11.35-4.68,17.91-10.38,17.91-3.62,0-6.24-3.05-6.24-8.69,0-8.49,6.77-14.73,15.23-14.73,9.39,0,14.2,5.57,14.2,12.77,0,7.8-4.01,11.84-12.37,13.97-.63-1-1.56-2.39-2.65-3.52,7.56-1.49,10.58-5.11,10.58-10.38s-3.72-8.96-9.82-8.96c-.6,0-1.13.07-1.69.13l4.15.93ZM299.13,120.18c-5.04,1.19-8.26,5.54-8.26,10.28,0,2.79.83,4.74,2.29,4.74,3.25,0,5.41-7.26,5.97-15.03Z"/>
      <polygon class="cls-9" points="605.42 76.25 605.42 173.17 644.72 195.86 644.72 53.56 605.42 76.25"/>
      <polygon class="cls-4" points="644.72 53.56 644.72 195.86 689.36 221.63 773.29 173.17 773.29 76.25 689.36 27.79 644.72 53.56"/>
      <rect class="cls-16" x="605.42" y="83.17" width="167.87" height="2.68"/>
      <rect class="cls-16" x="605.42" y="87.46" width="167.87" height="1.07"/>
      <polygon class="cls-16" points="700.43 84.99 703.12 84.99 703.12 35.73 700.43 34.18 700.43 84.99"/>
      <polygon class="cls-16" points="698.24 84.99 699.32 84.99 699.32 33.54 698.24 32.92 698.24 84.99"/>
      <polygon class="cls-16" points="726.55 84.99 729.23 84.99 729.23 50.81 726.55 49.26 726.55 84.99"/>
      <polygon class="cls-16" points="724.36 84.99 725.43 84.99 725.43 48.62 724.36 48 724.36 84.99"/>
      <polygon class="cls-16" points="676.68 35.11 676.68 84.99 679.36 84.99 679.36 33.56 676.68 35.11"/>
      <polygon class="cls-16" points="674.49 36.38 674.49 84.99 675.56 84.99 675.56 35.75 674.49 36.38"/>
      <rect class="cls-16" x="688.26" y="62.02" width="1.07" height="27.32" transform="translate(211.45 577.99) rotate(-52.73)"/>
      <polygon class="cls-16" points="702.66 83.52 703.31 84.38 725.05 67.83 724.4 66.98 702.66 83.52"/>
      <polygon class="cls-16" points="650.86 50.02 650.86 84.99 653.55 84.99 653.55 48.47 650.86 50.02"/>
      <polygon class="cls-16" points="648.67 51.28 648.67 84.99 649.74 84.99 649.74 50.66 648.67 51.28"/>
      <polygon class="cls-16" points="627.11 63.73 627.11 84.99 629.79 84.99 629.79 62.18 627.11 63.73"/>
      <polygon class="cls-16" points="624.92 65 624.92 84.99 625.99 84.99 625.99 64.38 624.92 65"/>
      <rect class="cls-16" x="638.69" y="62.02" width="1.07" height="27.32" transform="translate(191.92 538.56) rotate(-52.73)"/>
      <rect class="cls-16" x="650.62" y="75.14" width="27.32" height="1.07" transform="translate(89.79 417.66) rotate(-37.26)"/>
      <polygon class="cls-16" points="749.88 84.99 752.56 84.99 752.56 64.28 749.88 62.73 749.88 84.99"/>
      <polygon class="cls-16" points="747.69 84.99 748.76 84.99 748.76 62.09 747.69 61.47 747.69 84.99"/>
      <g class="cls-36">
        <rect class="cls-16" x="776" y="26.51" width="2.68" height="58.48"/>
        <rect class="cls-16" x="773.81" y="26.51" width="1.07" height="58.48"/>
      </g>
      <rect class="cls-16" x="737.71" y="62.02" width="1.07" height="27.32" transform="translate(230.98 617.36) rotate(-52.73)"/>
      <polygon class="cls-16" points="752.1 83.52 752.75 84.38 767.69 73.02 766.68 72.43 752.1 83.52"/>
      <g class="cls-33">
        <path class="cls-17" d="M721.77,120.72c-10.24,0-19.42,4.5-25.7,11.62l-8.51,1.77,5.29,2.51,61.49,28.99c1.09-3.35,1.69-6.92,1.69-10.64,0-18.92-15.34-34.26-34.26-34.26"/>
        <path class="cls-17" d="M687.52,154.97c0,18.92,15.34,34.26,34.26,34.26,14.44,0,26.79-8.94,31.83-21.59l-61.85-29.16c-2.69,4.89-4.23,10.52-4.23,16.5"/>
        <path class="cls-17" d="M688.56,195.39c0,7.64-6.19,13.83-13.83,13.83s-13.83-6.19-13.83-13.83,6.19-13.83,13.83-13.83,13.83,6.19,13.83,13.83"/>
        <polygon class="cls-17" points="674.29 104.86 650.45 110.38 648.3 101.05 667.64 96.58 674.29 104.86"/>
        <rect class="cls-17" x="665.93" y="104.33" width="3.19" height="88.99" transform="translate(-16.37 154.38) rotate(-13.03)"/>
      </g>
      <polygon class="cls-18" points="703.96 247.19 703.96 344.11 787.9 392.57 871.83 344.11 871.83 247.19 787.9 198.73 703.96 247.19"/>
      <g class="cls-30">
        <path class="cls-17" d="M785.79,373.9c0,15.03-12.19,27.22-27.22,27.22s-27.22-12.19-27.22-27.22,12.18-27.22,27.22-27.22,27.22,12.19,27.22,27.22"/>
        <path class="cls-15" d="M806.33,370.87c0,3.61-2.93,6.54-6.54,6.54s-6.54-2.93-6.54-6.54,2.93-6.54,6.54-6.54,6.54,2.93,6.54,6.54"/>
        <path class="cls-17" d="M827.53,360.94c0,5.28-4.28,9.55-9.55,9.55s-9.55-4.28-9.55-9.55,4.28-9.55,9.55-9.55,9.55,4.28,9.55,9.55"/>
        <rect class="cls-17" x="725.13" y="397.99" width="60.05" height="55.51" rx="3.67" ry="3.67"/>
      </g>
      <g class="cls-37">
        <rect class="cls-1" x="664.64" y="320.24" width="231.2" height="98.58"/>
        <rect class="cls-12" x="664.64" y="159.95" width="231.2" height="160.29"/>
        <polygon class="cls-6" points="775.35 320.23 769.43 320.23 771.96 295.39 785 291.33 787.33 296.99 776.42 299.91 775.35 320.23"/>
        <polygon class="cls-6" points="808.51 320.23 814.43 320.23 811.9 295.39 798.86 291.33 796.53 296.99 807.44 298.36 808.51 320.23"/>
        <polygon class="cls-6" points="824.4 320.23 828.84 320.23 824.43 298.02 816.53 294.63 814.44 299.68 821.22 300.67 824.4 320.23"/>
        <polygon class="cls-6" points="835.89 320.23 838.95 320.23 835.2 301.34 827.42 299.54 826.7 302.76 831.62 303.6 835.89 320.23"/>
        <polygon class="cls-6" points="759.65 320.23 755.06 320.23 757.5 299.29 768.09 296.68 769.96 300.58 762.71 302.38 759.65 320.23"/>
        <polygon class="cls-6" points="748.53 320.23 745.74 320.23 748 300.88 757.79 298.47 759.51 302.07 752.81 303.73 748.53 320.23"/>
        <polygon class="cls-3" points="789.69 219.47 789.69 320.23 784.72 320.23 785.54 295.45 784.34 293.87 773.39 296.78 771.61 320.23 764.52 320.23 768.07 298.99 767.42 298.3 760.22 300.17 756.1 320.23 751.79 320.23 756.71 301.08 751.57 302.42 746.6 320.23 741.35 320.23 765.17 238.54 789.69 219.47"/>
        <polygon class="cls-17" points="793.18 217.61 793.18 320.23 799.3 320.23 798.02 296.34 798.59 293.35 810.26 295.77 812.26 320.23 819.52 320.23 816.53 298.04 823.36 299.61 827.06 320.23 832.47 320.23 827.91 301.6 832.9 302.88 837.45 320.23 842.72 320.23 818.95 237.68 793.18 217.61"/>
        <polygon class="cls-12" points="800.85 235.02 800.55 228.98 796.43 225.92 796.6 232.27 800.85 235.02"/>
        <polygon class="cls-10" points="800.85 235.02 802.22 235.9 801.79 228.36 796.38 224.02 796.43 225.92 800.55 228.98 800.85 235.02"/>
        <polygon class="cls-12" points="806.45 234.37 806.63 239.82 809.92 242.1 809.67 237.02 806.45 234.37"/>
        <polygon class="cls-10" points="810.55 236.69 806.42 233.27 806.45 234.37 809.67 237.02 809.92 242.1 811.05 242.88 810.55 236.69"/>
        <path class="cls-12" d="M796.93,239.09l.17,6.42,5.06,3.53-.18-7.05s-3.51-2.03-5.05-2.9"/>
        <path class="cls-10" d="M803.07,240.96l-6.19-3.7.05,1.83c1.54.87,5.05,2.9,5.05,2.9l.18,7.05,1.27.89-.36-8.97Z"/>
        <path class="cls-21" d="M759.86,307.62c-.08,0-.16.01-.24.03-.05-.1-.11-.18-.19-.24.06-.12.09-.26.09-.4,0-.47-.34-.86-.79-.94,0,0,0-.01,0-.02,0-.27-.15-.5-.37-.62.08-.14.13-.3.13-.47,0-.52-.42-.95-.94-.95-.03-.09-.1-.17-.18-.22,0-.25-.14-.47-.34-.59.15-.17.24-.38.24-.62,0-.46-.33-.84-.76-.93.02-.07.04-.15.04-.23,0-.2-.09-.38-.23-.51.06-.09.1-.2.1-.31,0-.16-.07-.3-.18-.4.03-.08.05-.16.05-.24,0-.27-.15-.51-.38-.63.38-.12.65-.46.65-.88s-.27-.76-.65-.87c.02-.07.03-.14.03-.22,0-.27-.15-.51-.38-.63.09-.14.14-.31.14-.5,0-.42-.27-.77-.65-.9,0,0,0-.01,0-.02,0-.24-.12-.46-.31-.59.17-.19.28-.43.28-.71,0-.52-.37-.94-.86-1.04,0-.02,0-.04,0-.06,0-.26-.14-.49-.35-.61.07-.13.11-.28.11-.44,0-.21-.07-.4-.18-.55.35-.05.62-.34.62-.71,0-.26-.15-.49-.36-.62.16-.17.26-.4.26-.65,0-.46-.33-.85-.77-.94.03-.08.05-.17.05-.26,0-.35-.28-.63-.62-.65-.02-.13-.07-.25-.15-.35.08-.14.13-.3.13-.47,0-.24-.09-.46-.24-.62.28-.1.47-.36.47-.67,0-.39-.31-.7-.69-.71-.02-.03-.03-.07-.05-.1.16-.13.27-.33.27-.55,0-.4-.32-.72-.72-.72-.03,0-.06,0-.09,0,.1-.15.16-.33.16-.52,0-.49-.38-.89-.86-.94-.02-.28-.21-.52-.47-.61,0,0,0,0,0-.01.11-.15.17-.34.17-.55,0-.47-.35-.86-.8-.94.07-.11.12-.25.12-.39,0-.24-.12-.45-.3-.58.06-.12.1-.26.1-.41,0-.38-.23-.71-.55-.86.07-.1.11-.21.11-.34,0-.31-.24-.56-.54-.58.01-.05.02-.09.02-.14,0-.25-.21-.46-.46-.46-.16,0-.31.09-.39.22-.35.05-.62.34-.62.71,0,.07.01.14.03.21-.1.08-.17.21-.17.36,0,0,0,.01,0,.02-.23.02-.41.21-.41.44,0,.05.01.1.03.15-.3.16-.51.47-.51.84,0,0,0,.01,0,.02-.09.12-.14.26-.14.42,0,.14.04.28.12.39-.45.08-.8.47-.8.94,0,.21.07.4.18.55-.31.1-.52.42-.48.76,0,.05.02.1.03.15-.43.09-.75.47-.75.93,0,.09.01.17.04.25-.04,0-.07-.01-.11-.01-.4,0-.72.32-.72.72,0,.14.04.27.11.38-.03,0-.05,0-.08,0-.4,0-.72.32-.72.72,0,.32.21.59.5.68-.04.08-.06.18-.06.27s.02.2.06.28c-.02.06-.04.13-.05.19-.13.1-.22.27-.22.45,0,.09.02.17.05.24-.2.12-.33.33-.33.58,0,.15.05.29.13.4-.03.06-.05.11-.06.18,0,0,0,0-.01,0-.53,0-.96.43-.96.96,0,.25.1.48.25.65-.21.13-.36.35-.36.62,0,.36.26.65.61.71,0,.03-.01.06-.02.09-.2.04-.35.21-.35.43,0,.17.1.32.25.39-.23.15-.38.41-.38.71,0,.1.02.2.05.29-.24.17-.39.45-.39.77,0,.24.09.45.23.62-.38.02-.68.33-.68.71,0,0,0,.01,0,.02-.38.13-.65.48-.65.9,0,.18.05.35.14.5-.23.12-.38.36-.38.63,0,.08.01.15.04.22-.38.12-.65.46-.65.87,0,.39.24.72.59.86-.23.01-.42.2-.42.44,0,0,0,0,0,.01-.14.15-.23.35-.26.56-.09.09-.15.21-.15.35,0,.09.03.17.07.24-.13.17-.2.39-.2.62,0,.1.02.2.05.29-.24.17-.39.45-.39.76,0,.24.09.45.24.62-.2.13-.34.35-.34.61,0,.08.01.16.04.23-.07-.02-.14-.03-.21-.03-.53,0-.96.43-.96.96,0,.17.05.33.13.47-.22.12-.37.35-.37.62,0,0,0,.01,0,.02-.45.08-.79.47-.79.94,0,.15.04.28.09.4-.08.07-.15.15-.19.24-.08-.02-.16-.03-.24-.03-.53,0-.96.43-.96.96s.43.96.96.96c.25,0,.47-.1.64-.25.12.32.43.56.8.56.17,0,.32-.05.46-.14.16.3.47.51.84.51.27,0,.52-.12.69-.3.16.2.4.33.67.33.24,0,.46-.1.62-.27.17.22.44.37.75.37.22,0,.42-.08.59-.2.14.11.32.17.51.17.17,0,.33-.05.47-.14.17.23.45.38.76.38.18,0,.36-.05.5-.14.15.33.48.55.86.55.22,0,.43-.08.59-.21,0,0,.02,0,.03,0v10.11h3.63v-10.11s.02,0,.03,0c.16.13.36.21.59.21.38,0,.71-.23.86-.55.15.09.32.14.5.14.15,0,.29-.03.41-.1.15.12.34.2.54.2.35,0,.65-.21.78-.51.16.13.36.2.59.2.3,0,.57-.15.75-.37.16.16.37.27.62.27.28,0,.52-.13.67-.33.17.18.42.3.69.3.37,0,.68-.21.84-.51.13.08.29.14.46.14.36,0,.68-.23.8-.56.17.15.39.25.64.25.53,0,.96-.43.96-.96s-.43-.96-.96-.96"/>
        <path class="cls-21" d="M741.81,310.56c-.06,0-.13.01-.19.03-.03-.08-.09-.14-.15-.19.04-.1.07-.2.07-.31,0-.36-.27-.67-.61-.73,0,0,0,0,0-.01,0-.21-.12-.39-.29-.48.06-.11.1-.23.1-.36,0-.41-.33-.74-.74-.74-.03-.07-.08-.13-.14-.17,0-.2-.11-.37-.26-.46.11-.13.18-.3.18-.48,0-.36-.25-.66-.59-.73.02-.06.03-.11.03-.18,0-.16-.07-.3-.18-.4.05-.07.08-.15.08-.24,0-.13-.06-.24-.14-.31.02-.06.03-.12.03-.19,0-.21-.12-.39-.29-.49.29-.09.51-.36.51-.68s-.22-.59-.51-.68c.02-.05.03-.11.03-.17,0-.21-.12-.4-.3-.49.07-.11.11-.24.11-.39,0-.33-.21-.6-.51-.7,0,0,0-.01,0-.02,0-.19-.1-.36-.24-.46.13-.15.21-.34.21-.55,0-.4-.29-.73-.67-.81,0-.01,0-.03,0-.04,0-.2-.11-.38-.27-.48.05-.1.09-.22.09-.35,0-.16-.05-.31-.14-.43.27-.03.49-.27.49-.55,0-.21-.11-.38-.28-.48.12-.13.2-.31.2-.5,0-.36-.26-.66-.6-.73.03-.06.04-.13.04-.2,0-.27-.22-.49-.49-.5-.01-.1-.06-.19-.12-.27.06-.11.1-.23.1-.37,0-.19-.07-.36-.19-.49.22-.08.37-.28.37-.52,0-.3-.24-.55-.54-.56-.01-.03-.03-.05-.04-.08.13-.1.21-.26.21-.43,0-.31-.25-.56-.56-.56-.02,0-.05,0-.07,0,.08-.12.12-.26.12-.4,0-.38-.29-.7-.67-.74-.02-.22-.16-.4-.37-.48,0,0,0,0,0,0,.08-.12.14-.27.14-.43,0-.37-.27-.67-.62-.73.06-.09.09-.19.09-.3,0-.19-.09-.35-.23-.45.05-.1.07-.2.07-.32,0-.3-.18-.55-.43-.67.05-.07.08-.17.08-.26,0-.24-.18-.43-.42-.45.01-.03.02-.07.02-.11,0-.2-.16-.36-.36-.36-.13,0-.24.07-.3.17-.27.04-.48.27-.48.55,0,.06,0,.11.03.16-.08.06-.13.16-.13.28,0,0,0,.01,0,.02-.18.01-.32.16-.32.34,0,.04,0,.08.02.12-.23.13-.4.37-.4.65,0,0,0,.01,0,.02-.07.09-.11.2-.11.33,0,.11.03.22.09.3-.35.06-.62.36-.62.73,0,.16.05.31.14.43-.24.08-.4.32-.37.59,0,.04.01.08.03.11-.33.07-.59.37-.59.73,0,.07.01.13.03.19-.03,0-.06,0-.08,0-.31,0-.56.25-.56.56,0,.11.03.21.09.3-.02,0-.04,0-.06,0-.31,0-.56.25-.56.56,0,.25.17.46.39.53-.03.07-.04.14-.04.21,0,.08.02.15.05.22-.02.05-.03.1-.04.15-.1.08-.17.21-.17.35,0,.07.02.13.04.19-.15.09-.25.26-.25.45,0,.12.04.23.1.31-.02.04-.03.09-.04.14h0c-.41,0-.75.33-.75.74,0,.2.08.37.2.5-.17.1-.28.27-.28.48,0,.28.21.51.47.55,0,.02,0,.04-.01.07-.16.03-.27.17-.27.33,0,.13.08.25.19.3-.18.12-.3.32-.3.55,0,.08.02.15.04.22-.19.13-.31.35-.31.6,0,.18.07.35.18.48-.29.02-.53.26-.53.55v.02c-.29.1-.51.37-.51.7,0,.14.04.27.11.39-.18.09-.3.28-.3.49,0,.06.01.11.03.17-.29.09-.51.36-.51.68,0,.3.19.56.46.67-.18.01-.32.16-.32.34h0c-.11.13-.18.28-.2.45-.07.07-.12.16-.12.27,0,.07.02.13.05.18-.1.14-.16.3-.16.48,0,.08.01.16.04.23-.18.14-.3.35-.3.6,0,.18.07.35.18.48-.16.1-.26.27-.26.47,0,.06.01.12.03.18-.05-.01-.11-.02-.17-.02-.41,0-.74.33-.74.74,0,.13.04.26.1.36-.17.1-.29.28-.29.48,0,0,0,0,0,.01-.35.06-.61.36-.61.73,0,.11.03.22.07.31-.06.05-.11.12-.15.19-.06-.02-.12-.03-.19-.03-.41,0-.74.33-.74.74s.33.74.74.74c.19,0,.36-.07.5-.19.09.25.33.43.62.43.13,0,.25-.04.36-.1.13.24.37.4.66.4.21,0,.4-.09.54-.23.12.16.31.26.52.26.19,0,.36-.08.48-.21.14.17.35.29.58.29.17,0,.33-.06.45-.16.11.08.25.13.39.13.14,0,.26-.04.37-.11.14.18.35.3.59.3.14,0,.28-.04.39-.11.12.25.37.43.67.43.17,0,.33-.06.46-.16,0,0,.02,0,.03,0v7.87h2.82v-7.87s.02,0,.03,0c.13.1.28.16.46.16.3,0,.55-.18.67-.43.11.07.25.11.39.11.11,0,.22-.03.32-.08.12.1.26.15.42.15.27,0,.5-.16.61-.4.13.1.28.16.45.16.24,0,.45-.11.58-.29.12.13.29.21.48.21.21,0,.4-.1.52-.26.14.14.33.23.54.23.28,0,.53-.16.65-.4.1.07.22.1.36.1.29,0,.53-.18.62-.43.13.12.3.19.49.19.41,0,.74-.33.74-.74s-.33-.74-.74-.74"/>
        <path class="cls-21" d="M814.74,307.62c.08,0,.16.01.24.03.05-.1.11-.18.19-.24-.06-.12-.09-.26-.09-.4,0-.47.34-.86.79-.94,0,0,0-.01,0-.02,0-.27.15-.5.37-.62-.08-.14-.13-.3-.13-.47,0-.52.42-.95.94-.95.03-.09.1-.17.18-.22,0-.25.14-.47.34-.59-.15-.17-.24-.38-.24-.62,0-.46.33-.84.76-.93-.02-.07-.04-.15-.04-.23,0-.2.09-.38.23-.51-.06-.09-.1-.2-.1-.31,0-.16.07-.3.18-.4-.03-.08-.05-.16-.05-.24,0-.27.15-.51.38-.63-.38-.12-.65-.46-.65-.88s.27-.76.65-.87c-.02-.07-.03-.14-.03-.22,0-.27.15-.51.38-.63-.09-.14-.14-.31-.14-.5,0-.42.27-.77.65-.9,0,0,0-.01,0-.02,0-.24.12-.46.31-.59-.17-.19-.28-.43-.28-.71,0-.52.37-.94.86-1.04,0-.02,0-.04,0-.06,0-.26.14-.49.35-.61-.07-.13-.11-.28-.11-.44,0-.21.07-.4.18-.55-.35-.05-.62-.34-.62-.71,0-.26.15-.49.36-.62-.16-.17-.26-.4-.26-.65,0-.46.33-.85.77-.94-.03-.08-.05-.17-.05-.26,0-.35.28-.63.62-.65.02-.13.07-.25.15-.35-.08-.14-.13-.3-.13-.47,0-.24.09-.46.24-.62-.28-.1-.47-.36-.47-.67,0-.39.31-.7.69-.71.02-.03.03-.07.05-.1-.16-.13-.27-.33-.27-.55,0-.4.32-.72.72-.72.03,0,.06,0,.09,0-.1-.15-.16-.33-.16-.52,0-.49.38-.89.86-.94.02-.28.21-.52.47-.61,0,0,0,0,0-.01-.11-.15-.17-.34-.17-.55,0-.47.35-.86.8-.94-.07-.11-.12-.25-.12-.39,0-.24.12-.45.3-.58-.06-.12-.1-.26-.1-.41,0-.38.23-.71.55-.86-.07-.1-.11-.21-.11-.34,0-.31.24-.56.54-.58-.01-.05-.02-.09-.02-.14,0-.25.21-.46.46-.46.16,0,.31.09.39.22.35.05.62.34.62.71,0,.07-.01.14-.03.21.1.08.17.21.17.36,0,0,0,.01,0,.02.23.02.41.21.41.44,0,.05-.01.1-.03.15.3.16.51.47.51.84,0,0,0,.01,0,.02.09.12.14.26.14.42,0,.14-.04.28-.12.39.45.08.8.47.8.94,0,.21-.07.4-.18.55.31.1.52.42.48.76,0,.05-.02.1-.03.15.43.09.75.47.75.93,0,.09-.01.17-.04.25.04,0,.07-.01.11-.01.4,0,.72.32.72.72,0,.14-.04.27-.11.38.03,0,.05,0,.08,0,.4,0,.72.32.72.72,0,.32-.21.59-.5.68.04.08.06.18.06.27s-.02.2-.06.28c.02.06.04.13.05.19.13.1.22.27.22.45,0,.09-.02.17-.05.24.2.12.33.33.33.58,0,.15-.05.29-.13.4.03.06.05.11.06.18,0,0,0,0,.01,0,.53,0,.96.43.96.96,0,.25-.1.48-.25.65.21.13.36.35.36.62,0,.36-.26.65-.61.71,0,.03.01.06.02.09.2.04.35.21.35.43,0,.17-.1.32-.25.39.23.15.38.41.38.71,0,.1-.02.2-.05.29.24.17.39.45.39.77,0,.24-.09.45-.23.62.38.02.68.33.68.71,0,0,0,.01,0,.02.38.13.65.48.65.9,0,.18-.05.35-.14.5.23.12.38.36.38.63,0,.08-.01.15-.04.22.38.12.65.46.65.87,0,.39-.24.72-.59.86.23.01.42.2.42.44,0,0,0,0,0,.01.14.15.23.35.26.56.09.09.15.21.15.35,0,.09-.03.17-.07.24.13.17.2.39.2.62,0,.1-.02.2-.05.29.24.17.39.45.39.76,0,.24-.09.45-.24.62.2.13.34.35.34.61,0,.08-.01.16-.04.23.07-.02.14-.03.21-.03.53,0,.96.43.96.96,0,.17-.05.33-.13.47.22.12.37.35.37.62,0,0,0,.01,0,.02.45.08.79.47.79.94,0,.15-.04.28-.09.4.08.07.15.15.19.24.08-.02.16-.03.24-.03.53,0,.96.43.96.96s-.43.96-.96.96c-.25,0-.47-.1-.64-.25-.12.32-.43.56-.8.56-.17,0-.32-.05-.46-.14-.16.3-.47.51-.84.51-.27,0-.52-.12-.69-.3-.16.2-.4.33-.67.33-.24,0-.46-.1-.62-.27-.17.22-.44.37-.75.37-.22,0-.42-.08-.59-.2-.14.11-.32.17-.51.17-.17,0-.33-.05-.47-.14-.17.23-.45.38-.76.38-.18,0-.36-.05-.5-.14-.15.33-.48.55-.86.55-.22,0-.43-.08-.59-.21,0,0-.02,0-.03,0v10.11h-3.63v-10.11s-.02,0-.03,0c-.16.13-.36.21-.59.21-.38,0-.71-.23-.86-.55-.15.09-.32.14-.5.14-.15,0-.29-.03-.41-.1-.15.12-.34.2-.54.2-.35,0-.65-.21-.78-.51-.16.13-.36.2-.59.2-.3,0-.57-.15-.75-.37-.16.16-.37.27-.62.27-.28,0-.52-.13-.67-.33-.17.18-.42.3-.69.3-.37,0-.68-.21-.84-.51-.13.08-.29.14-.46.14-.36,0-.68-.23-.8-.56-.17.15-.39.25-.64.25-.53,0-.96-.43-.96-.96s.43-.96.96-.96"/>
        <path class="cls-21" d="M833.19,310.53c.07,0,.13.01.2.03.04-.08.09-.14.15-.19-.05-.1-.07-.2-.07-.32,0-.37.27-.67.63-.73h0c0-.22.12-.4.3-.5-.06-.11-.1-.23-.1-.37,0-.41.34-.74.77-.75.03-.07.08-.13.15-.17,0-.2.11-.37.27-.47-.12-.13-.19-.3-.19-.49,0-.36.26-.66.61-.73-.02-.06-.03-.11-.03-.18,0-.16.07-.3.19-.4-.05-.07-.08-.15-.08-.24,0-.13.06-.24.15-.32-.02-.06-.04-.12-.04-.19,0-.21.13-.39.3-.49-.3-.09-.52-.36-.52-.68s.22-.59.53-.68c-.02-.05-.03-.11-.03-.17,0-.21.13-.4.31-.49-.07-.11-.12-.24-.12-.39,0-.33.22-.6.52-.7v-.02c0-.19.1-.36.25-.46-.14-.15-.22-.34-.22-.55,0-.4.3-.74.7-.81,0-.01,0-.03,0-.04,0-.2.12-.38.29-.48-.06-.1-.09-.22-.09-.35,0-.16.06-.31.15-.43-.28-.04-.5-.27-.5-.55,0-.21.12-.39.29-.48-.13-.13-.21-.31-.21-.5,0-.36.27-.66.62-.73-.03-.06-.04-.13-.04-.2,0-.27.22-.49.5-.5.02-.1.06-.2.13-.27-.06-.11-.1-.23-.1-.37,0-.19.08-.36.19-.49-.22-.08-.38-.28-.38-.52,0-.3.25-.55.56-.56.01-.03.03-.05.04-.08-.13-.1-.22-.26-.22-.43,0-.31.26-.56.58-.56.02,0,.05,0,.07,0-.08-.12-.13-.26-.13-.41,0-.39.3-.7.69-.74.02-.22.17-.4.38-.48,0,0,0,0,0,0-.09-.12-.14-.27-.14-.43,0-.37.28-.68.64-.73-.06-.09-.09-.19-.09-.31,0-.19.1-.35.24-.45-.05-.1-.08-.2-.08-.32,0-.3.18-.56.45-.68-.05-.07-.09-.17-.09-.26,0-.24.19-.44.43-.46-.01-.03-.02-.07-.02-.11,0-.2.17-.36.37-.36.13,0,.25.07.31.17.28.04.5.27.5.55,0,.06-.01.11-.03.16.08.07.14.17.14.28v.02c.19.01.33.16.33.34,0,.04-.01.08-.02.12.24.13.41.37.41.66,0,0,0,.01,0,.02.07.09.11.2.11.33,0,.11-.04.22-.09.31.37.06.65.36.65.73,0,.16-.06.31-.14.43.25.08.42.33.39.59,0,.04-.01.08-.03.11.35.07.61.37.61.73,0,.07-.01.13-.03.2.03,0,.06,0,.08,0,.32,0,.58.25.58.56,0,.11-.04.21-.09.3.02,0,.04,0,.06,0,.32,0,.58.25.58.56,0,.25-.17.46-.41.53.03.07.05.14.05.22s-.02.15-.05.22c.02.05.03.1.04.15.1.08.17.21.17.35,0,.07-.02.13-.04.19.16.1.27.26.27.45,0,.12-.04.23-.11.31.02.04.04.09.04.14h0c.43,0,.77.33.77.75,0,.2-.08.37-.21.5.17.1.29.27.29.48,0,.28-.21.51-.49.55,0,.02,0,.05.01.07.16.03.28.17.28.33,0,.14-.08.25-.2.31.19.12.31.32.31.56,0,.08-.02.15-.04.22.19.14.32.35.32.6,0,.18-.07.35-.19.48.3.02.55.26.55.56,0,0,0,.01,0,.02.31.1.53.38.53.7,0,.14-.04.28-.12.39.18.09.31.28.31.49,0,.06-.01.12-.03.17.3.09.53.36.53.68s-.2.56-.47.67c.19.01.33.16.33.34h0c.11.13.19.28.21.45.07.07.12.16.12.27,0,.07-.02.13-.05.18.1.14.16.3.16.48,0,.08-.02.15-.04.23.19.14.31.35.31.6,0,.19-.07.36-.19.49.16.1.27.27.27.47,0,.06-.01.12-.03.18.05-.01.11-.02.17-.02.43,0,.77.33.77.75,0,.13-.04.26-.1.37.18.1.3.28.3.49,0,0,0,0,0,.01.36.06.64.37.64.73,0,.11-.03.22-.08.32.06.05.12.12.15.19.06-.02.13-.03.19-.03.43,0,.77.33.77.75s-.35.75-.77.75c-.2,0-.38-.08-.51-.19-.1.25-.35.43-.64.43-.14,0-.26-.04-.37-.1-.13.24-.38.4-.68.4-.22,0-.42-.09-.56-.23-.13.16-.32.26-.54.26-.2,0-.37-.08-.5-.21-.14.17-.36.29-.61.29-.18,0-.34-.06-.47-.16-.11.08-.25.13-.41.13-.14,0-.27-.04-.38-.11-.14.18-.36.3-.61.3-.15,0-.29-.04-.4-.11-.12.25-.39.43-.7.43-.18,0-.35-.06-.48-.16,0,0-.02,0-.03,0v7.89h-2.94v-7.89s-.02,0-.03,0c-.13.1-.29.16-.48.16-.31,0-.57-.18-.7-.43-.12.07-.26.11-.4.11-.12,0-.23-.03-.33-.08-.12.1-.27.16-.44.16-.28,0-.52-.17-.63-.4-.13.1-.29.16-.47.16-.25,0-.46-.11-.6-.29-.13.13-.3.21-.5.21-.22,0-.42-.1-.54-.26-.14.14-.34.23-.56.23-.3,0-.55-.16-.68-.4-.11.07-.23.1-.37.1-.29,0-.54-.18-.64-.43-.14.12-.31.19-.51.19-.43,0-.77-.33-.77-.75s.35-.75.77-.75"/>
      </g>
      <polygon class="cls-18" points="605.42 418.13 605.42 515.05 689.36 563.5 773.29 515.05 773.29 418.13 689.36 369.67 605.42 418.13"/>
      <polygon class="cls-1" points="605.42 455.81 605.42 515.05 614.59 520.34 755.6 476.23 755.6 453.04 605.42 455.81"/>
      <polygon class="cls-20" points="613.37 463.19 613.37 518.42 640.89 510 640.89 462.18 613.37 463.19"/>
      <polygon class="cls-20" points="645.52 461.99 645.52 508.53 672.51 500.32 672.51 460.98 645.52 461.99"/>
      <polygon class="cls-20" points="676.32 460.86 676.32 499.14 697.95 492.54 697.95 460.07 676.32 460.86"/>
      <polygon class="cls-20" points="700.87 459.96 700.87 491.68 718.65 486.16 718.65 459.3 700.87 459.96"/>
      <polygon class="cls-20" points="721.28 459.22 721.28 485.37 736 480.83 736 458.66 721.28 459.22"/>
      <polygon class="cls-20" points="737.99 458.59 737.99 480.27 750.62 476.35 750.62 458.12 737.99 458.59"/>
      <polygon class="cls-16" points="613.37 463.19 613.37 465.71 638.1 464.8 638.1 510.86 640.89 510 640.89 462.18 613.37 463.19"/>
      <polygon class="cls-16" points="645.52 461.99 645.52 464.07 670.36 463.13 670.36 500.98 672.51 500.32 672.51 460.98 645.52 461.99"/>
      <polygon class="cls-16" points="676.32 460.86 676.32 462.51 696.7 461.77 696.7 492.91 697.95 492.54 697.95 460.07 676.32 460.86"/>
      <polygon class="cls-16" points="700.87 459.96 700.87 461.31 717.58 460.69 717.58 486.5 718.65 486.16 718.65 459.3 700.87 459.96"/>
      <polygon class="cls-16" points="721.28 459.22 721.28 460.3 735.33 459.77 735.33 481.04 736 480.83 736 458.66 721.28 459.22"/>
      <polygon class="cls-16" points="737.99 458.59 737.99 459.47 749.94 459.02 749.94 476.56 750.62 476.35 750.62 458.12 737.99 458.59"/>
      <g class="cls-34">
        <line class="cls-27" x1="591.78" y1="408.49" x2="623.85" y2="423.04"/>
      </g>
      <polyline class="cls-25" points="626.14 424.08 640.55 430.62 655.32 424.94"/>
      <line class="cls-28" x1="661.99" y1="422.38" x2="668.65" y2="419.81"/>
      <polyline class="cls-25" points="671.99 418.53 686.76 412.85 700.47 420.75"/>
      <line class="cls-24" x1="705.49" y1="423.64" x2="710.51" y2="426.54"/>
      <g class="cls-39">
        <polyline class="cls-23" points="713.02 427.98 730.67 438.15 794.16 433.95"/>
        <path class="cls-29" d="M647.97,430.62c0,4.1-3.32,7.42-7.42,7.42s-7.42-3.32-7.42-7.42,3.32-7.42,7.42-7.42,7.42,3.32,7.42,7.42Z"/>
        <path class="cls-29" d="M694.18,412.85c0,4.1-3.32,7.42-7.42,7.42s-7.42-3.32-7.42-7.42,3.32-7.42,7.42-7.42,7.42,3.32,7.42,7.42Z"/>
        <path class="cls-29" d="M738.09,438.15c0,4.1-3.32,7.42-7.42,7.42s-7.42-3.32-7.42-7.42,3.32-7.42,7.42-7.42,7.42,3.32,7.42,7.42Z"/>
        <line class="cls-25" x1="565.91" y1="396.75" x2="640.55" y2="430.62"/>
        <line class="cls-25" x1="730.67" y1="438.15" x2="812.84" y2="432.71"/>
        <polygon class="cls-5" points="628.84 493.48 623.55 494.05 623.55 492.94 628.84 492.37 628.84 493.48"/>
        <polygon class="cls-5" points="660.62 488.36 655.33 488.93 655.33 487.81 660.62 487.25 660.62 488.36"/>
        <polygon class="cls-5" points="690.19 482.77 685.53 483.34 685.53 482.23 690.19 481.66 690.19 482.77"/>
        <polygon class="cls-5" points="712.09 478.64 707.7 479.21 707.7 478.09 712.09 477.52 712.09 478.64"/>
        <polygon class="cls-5" points="731.3 474.45 727.29 475.02 727.29 474.17 731.3 473.6 731.3 474.45"/>
        <polygon class="cls-5" points="746.12 471.78 742.97 472.23 742.97 471.62 746.12 471.17 746.12 471.78"/>
        <polygon class="cls-20" points="630.48 461.88 623.22 462.15 623.22 456 630.48 455.86 630.48 461.88"/>
        <polygon class="cls-20" points="663.04 460.71 655.79 460.97 655.79 455.41 663.04 455.26 663.04 460.71"/>
        <polygon class="cls-20" points="691.65 459.66 685.82 459.89 685.82 454.81 691.65 454.72 691.65 459.66"/>
        <polygon class="cls-20" points="712.79 458.93 706.97 459.14 706.97 454.44 712.79 454.32 712.79 458.93"/>
        <polygon class="cls-20" points="731.16 458.27 725.99 458.45 725.99 454.08 731.16 453.98 731.16 458.27"/>
        <polygon class="cls-20" points="746.44 457.71 741.5 457.89 741.5 453.79 746.44 453.7 746.44 457.71"/>
        <path class="cls-16" d="M737.27,544.92l-19.17-38.95c.76-.21,1.32-.9,1.32-1.72v-10.56c0-.99-.81-1.79-1.79-1.79h-8.07c-.99,0-1.79.81-1.79,1.79v10.56c0,.99.81,1.79,1.79,1.79h.5l-24.52,46.66,3.92,2.06,23.04-43.86,1.94,27.4,4.42-.31-1.69-23.89,16.13,32.77,3.97-1.96Z"/>
      </g>
      <polygon class="cls-2" points="309.8 247.19 309.8 306.47 477.67 306.47 477.67 247.19 393.74 198.73 309.8 247.19"/>
      <polygon class="cls-19" points="309.8 306.47 309.8 344.11 393.74 392.57 477.67 344.11 477.67 306.47 309.8 306.47"/>
      <polygon class="cls-1" points="314.68 244.38 311.64 246.13 311.64 342.2 440.21 342.2 440.21 244.38 314.68 244.38"/>
      <polygon class="cls-7" points="311.64 342.3 315.2 347.22 348.48 366.44 439.12 366.37 452.2 358.81 440.21 342.2 311.64 342.3"/>
      <rect class="cls-17" x="316.74" y="249.48" width="118.36" height="87.61"/>
      <g class="cls-31">
        <path class="cls-1" d="M304.69,343.5l-.39-1.13c.6-.21,59.6-20.63,64.71-27.53.97-1.31,1.2-2.71.72-4.28-1.73-5.63-12.16-11.41-16.02-12.76-3.55-1.24-5.74-3.14-5.87-5.07-.06-.99.39-2.44,2.89-3.69,3.49-1.75,4.18-5.31,2.09-10.88-1.88-5.01,4.75-8.55,7.94-10.25,2.78-1.49,3.6-2.76,5.79-6.16.77-1.19,1.72-2.67,2.98-4.49.49-.7.62-1.51.41-2.49-1.52-7.1-19.86-18.21-20.04-18.32l.62-1.03c.77.47,18.96,11.49,20.6,19.1.28,1.3.08,2.45-.6,3.42-1.24,1.8-2.19,3.27-2.96,4.46-2.18,3.39-3.18,4.94-6.24,6.57-4.4,2.35-8.72,5.22-7.38,8.77,2.31,6.17,1.41,10.33-2.67,12.37-1.06.53-2.3,1.4-2.23,2.54.09,1.39,2.08,2.97,5.06,4.02,4.16,1.46,14.89,7.42,16.77,13.54.6,1.94.29,3.74-.9,5.35-5.33,7.2-62.84,27.11-65.29,27.95"/>
        <path class="cls-1" d="M365.27,268.52c0,2.24-1.82,4.06-4.06,4.06s-4.06-1.82-4.06-4.06,1.82-4.06,4.06-4.06,4.06,1.82,4.06,4.06"/>
        <path class="cls-1" d="M372.21,306.15c0,2.24-1.82,4.06-4.06,4.06s-4.06-1.82-4.06-4.06,1.82-4.06,4.06-4.06,4.06,1.82,4.06,4.06"/>
        <path class="cls-1" d="M340.13,330.94c0,2.24-1.82,4.06-4.06,4.06s-4.06-1.82-4.06-4.06,1.82-4.06,4.06-4.06,4.06,1.82,4.06,4.06"/>
        <path class="cls-1" d="M419.02,336.38c-4.31,0-8.79-.39-13.42-1.16-11.1-1.86-19.98-5.43-24.25-7.14-.84-.34-1.51-.61-1.91-.75-4.78-1.64-4.78-3.48-4.78-11.22,0-7.16-5.63-7.72-5.87-7.74l.1-1.19c.07,0,1.79.16,3.5,1.35,1.58,1.09,3.47,3.3,3.47,7.58,0,7.73,0,8.73,3.97,10.09.43.15,1.08.41,1.97.77,4.23,1.7,13.02,5.23,24,7.07,13.58,2.28,25.8,1.16,36.32-3.32l.47,1.1c-7.13,3.04-15.02,4.56-23.56,4.56"/>
        <path class="cls-1" d="M401.33,332.15c0,2.24-1.82,4.06-4.06,4.06s-4.06-1.82-4.06-4.06,1.82-4.06,4.06-4.06,4.06,1.82,4.06,4.06"/>
      </g>
      <rect class="cls-1" x="375.38" y="278.53" width="41.02" height="18.83"/>
      <polygon class="cls-1" points="373.2 304.29 396.98 296.56 387.66 294.58 373.2 304.29"/>
      <rect class="cls-17" x="410.44" y="315.44" width="50.15" height="33.36" transform="translate(-78.38 521.56) rotate(-57.57)"/>
      <g class="cls-32">
        <path class="cls-16" d="M467.78,313.57l-29.18-18.54c-1.55-.98-3.62-.52-4.6,1.02l-31.78,50.01c-.98,1.55-.52,3.62,1.03,4.6l29.18,18.54c1.55.98,3.62.52,4.6-1.03l31.78-50.01c.98-1.55.52-3.62-1.02-4.6M451.54,306.9c.42.27.54.82.28,1.24-.27.42-.82.55-1.24.28-.42-.27-.54-.82-.28-1.24.27-.42.82-.54,1.24-.28M418.9,358.26c-.72-.46-.93-1.41-.47-2.13.46-.72,1.42-.93,2.13-.48.72.46.93,1.41.48,2.13-.46.72-1.42.93-2.14.48M436.14,362.23l-28.16-17.89,26.9-42.33,28.16,17.89-26.9,42.33Z"/>
      </g>
      <g class="cls-38">
        <path class="cls-10" d="M434.92,345.42c-.1,0-.19,0-.29,0-10.61-.19-30.77-4.72-30.98-4.76l.13-.59c.2.05,20.31,4.55,30.86,4.75,2.64.04,4.36-.57,5.12-1.83,1.69-2.81-1.37-8.38-3.39-12.07-.22-.39-.42-.77-.61-1.12-1.3-2.41-1.66-3.86-1.19-4.73.46-.85,1.6-.94,2.81-1.04l.21-.02c2.23-.19,4.32-3.31,4.88-6.1.5-2.48,3.07-2.36,5.55-2.25.82.04,1.67.08,2.45.03,3.06-.19,10.49-4.67,10.56-4.71l.31.51c-.31.19-7.63,4.6-10.84,4.8-.82.05-1.68.01-2.52-.03-2.43-.11-4.54-.2-4.94,1.77-.6,3-2.84,6.37-5.42,6.58l-.21.02c-1.09.09-2.02.16-2.33.73-.36.65.03,2.01,1.19,4.16.19.35.39.72.61,1.11,2.09,3.81,5.25,9.56,3.38,12.66-.85,1.41-2.65,2.13-5.35,2.13"/>
        <path class="cls-10" d="M444.94,360.02c-.08-.06-1.99-1.59-3.51-3.86-2.05-3.05-2.36-5.96-.93-8.42,1.55-2.64,1.46-3.91,1.11-4.51-.42-.73-1.39-.74-1.41-.74h0v-.6c.06,0,1.33,0,1.93,1.03.62,1.07.25,2.79-1.11,5.12-3.2,5.45,4.21,11.44,4.29,11.5l-.37.47Z"/>
        <path class="cls-10" d="M451.67,315.59c0,1.31-1.07,2.38-2.38,2.38s-2.38-1.06-2.38-2.38,1.06-2.38,2.38-2.38,2.38,1.06,2.38,2.38"/>
        <path class="cls-10" d="M443.18,339.16c0,1.31-1.07,2.38-2.38,2.38s-2.38-1.06-2.38-2.38,1.06-2.38,2.38-2.38,2.38,1.06,2.38,2.38"/>
        <path class="cls-10" d="M416.71,341.87c0,1.31-1.07,2.38-2.38,2.38s-2.38-1.06-2.38-2.38,1.06-2.38,2.38-2.38,2.38,1.06,2.38,2.38"/>
        <rect class="cls-10" x="444.34" y="324.21" width="7.13" height="12.48" transform="translate(-62.76 551.91) rotate(-59.86)"/>
        <polygon class="cls-10" points="449.35 332.89 445.27 337.17 451.23 335.59 449.35 332.89"/>
      </g>
      <polygon class="cls-2" points="408.34 418.13 408.34 515.05 492.28 563.5 576.21 515.05 576.21 418.13 492.28 369.67 408.34 418.13"/>
      <rect class="cls-3" x="426.1" y="423.57" width="43.06" height="15.33"/>
      <g class="cls-35">
        <path class="cls-3" d="M471.71,450.29h-48.61c-2.53,0-4.58-2.05-4.58-4.58v-.68c0-2.52,2.05-4.58,4.58-4.58h48.61c2.52,0,4.58,2.06,4.58,4.58v.68c0,2.53-2.06,4.58-4.58,4.58M423.1,441.71c-1.83,0-3.31,1.49-3.31,3.31v.68c0,1.83,1.49,3.31,3.31,3.31h48.61c1.83,0,3.31-1.49,3.31-3.31v-.68c0-1.83-1.49-3.31-3.31-3.31h-48.61Z"/>
        <path class="cls-3" d="M474.16,445.37c0,1.79-1.45,3.24-3.24,3.24s-3.24-1.45-3.24-3.24,1.45-3.24,3.24-3.24,3.24,1.45,3.24,3.24"/>
        <path class="cls-3" d="M427.13,445.37c0,1.79-1.45,3.24-3.24,3.24s-3.24-1.45-3.24-3.24,1.45-3.24,3.24-3.24,3.24,1.45,3.24,3.24"/>
        <rect class="cls-3" x="424.9" y="407.19" width="68.76" height="5.7" transform="translate(-144.82 291.15) rotate(-30.62)"/>
        <rect class="cls-3" x="484.78" y="395.45" width="1.9" height="15.16"/>
        <rect class="cls-3" x="484.46" y="410.61" width="2.53" height="7.53"/>
        <path class="cls-3" d="M487.67,415.2h-3.84v2.6h.59c0,.07.02.14.02.22,0,1.57-1.27,2.84-2.84,2.84s-2.84-1.27-2.84-2.84c0-.63.22-1.22.57-1.69l-1.49-2.14c-.99.98-1.61,2.33-1.61,3.83,0,2.96,2.41,5.37,5.37,5.37s5.37-2.41,5.37-5.37c0-.07,0-.15,0-.22h.7v-2.6Z"/>
        <rect class="cls-14" x="398.77" y="355.45" width="33.75" height="229.92"/>
        <rect class="cls-17" x="437.23" y="355.45" width="25.29" height="229.92"/>
        <rect class="cls-1" x="439.02" y="357.25" width="21.7" height="81.35"/>
        <rect class="cls-1" x="439.02" y="473.46" width="21.7" height="32.59"/>
        <rect class="cls-1" x="439.02" y="538.05" width="21.7" height="45.55"/>
        <rect class="cls-1" x="446.31" y="444.44" width="12.99" height="1.3"/>
        <rect class="cls-1" x="446.31" y="451.58" width="12.99" height="1.3"/>
        <rect class="cls-1" x="446.31" y="458.73" width="12.99" height="1.3"/>
        <rect class="cls-1" x="446.31" y="465.87" width="12.99" height="1.3"/>
        <rect class="cls-1" x="446.31" y="510.85" width="12.99" height="1.3"/>
        <rect class="cls-1" x="446.31" y="518" width="12.99" height="1.3"/>
        <rect class="cls-1" x="446.31" y="525.14" width="12.99" height="1.3"/>
        <rect class="cls-1" x="446.31" y="532.29" width="12.99" height="1.3"/>
        <path class="cls-17" d="M497.93,494.13c-.17-4.33-3.73-7.8-8.1-7.8s-7.93,3.46-8.1,7.8h-4.08v59.11h82.98v-59.11h-62.7ZM489.83,498.98c-2.5,0-4.53-2.03-4.53-4.53s2.03-4.53,4.53-4.53,4.53,2.03,4.53,4.53-2.03,4.53-4.53,4.53"/>
        <path class="cls-17" d="M514.93,443.09c-6.99,1.86-12.44,6.6-15.44,12.6l-5.49,2.76,4.07.76,47.25,8.62c.14-2.49-.1-5.03-.78-7.57-3.44-12.92-16.7-20.6-29.62-17.17"/>
        <path class="cls-17" d="M497.76,472.71c3.44,12.92,16.7,20.6,29.62,17.17,9.86-2.62,16.67-10.97,17.81-20.52l-47.53-8.67c-.95,3.83-.98,7.95.11,12.03"/>
      </g>
      <polygon class="cls-18" points="408.34 76.25 408.34 173.17 492.28 221.63 576.21 173.17 576.21 76.25 492.28 27.79 408.34 76.25"/>
      <g class="cls-40">
        <rect class="cls-15" x="390.06" width="210.07" height="144.86"/>
        <polygon class="cls-17" points="541.16 74.61 497.56 74.61 453.96 74.61 410.36 74.61 366.76 74.61 323.15 74.61 323.15 82.1 361.9 85.85 361.9 138.35 371.61 138.35 371.61 85.85 410.36 82.1 449.1 85.85 449.1 138.35 458.82 138.35 458.82 85.85 497.56 82.1 536.31 85.85 536.31 138.35 546.02 138.35 546.02 85.85 584.76 82.1 584.76 78.35 584.76 74.61 541.16 74.61"/>
        <polygon class="cls-16" points="584.77 106.49 410.36 106.49 410.36 110.24 460.12 110.24 460.12 138.16 463.6 138.16 463.6 110.24 481.9 110.24 481.9 138.16 485.38 138.16 485.38 110.24 503.68 110.24 503.68 138.16 507.16 138.16 507.16 110.24 525.47 110.24 525.47 138.16 528.94 138.16 528.94 110.24 584.77 110.24 584.77 106.49"/>
        <rect class="cls-1" x="487.51" y="60.68" width="17.54" height="8.12"/>
        <path class="cls-1" d="M484.3,70.05c-.98,0-1.77.79-1.77,1.77s.79,1.77,1.77,1.77,1.77-.79,1.77-1.77-.79-1.77-1.77-1.77M484.3,72.63c-.44,0-.8-.36-.8-.81s.36-.8.8-.8.81.36.81.8-.36.81-.81.81"/>
        <path class="cls-1" d="M502.17,70.05c-.98,0-1.77.79-1.77,1.77s.79,1.77,1.77,1.77,1.77-.79,1.77-1.77-.79-1.77-1.77-1.77M502.17,72.63c-.44,0-.81-.36-.81-.81s.36-.8.81-.8.81.36.81.8-.36.81-.81.81"/>
        <path class="cls-1" d="M487.51,69.25v1.58h7.91c.37-.77,1.16-1.31,2.08-1.31s1.71.54,2.08,1.31h.51c.37-.77,1.16-1.31,2.08-1.31s1.71.54,2.08,1.31h.79v-1.58h-17.54Z"/>
        <path class="cls-1" d="M497.5,70.05c-.98,0-1.77.79-1.77,1.77s.79,1.77,1.77,1.77,1.77-.79,1.77-1.77-.79-1.77-1.77-1.77M497.5,72.63c-.44,0-.81-.36-.81-.81s.36-.8.81-.8.81.36.81.8-.36.81-.81.81"/>
        <path class="cls-1" d="M483.41,62.42l-2.34,2.42v5.99h1.14c.37-.77,1.16-1.31,2.08-1.31s1.71.54,2.08,1.31h.6v-8.4h-3.57ZM486.01,66.99h-3.97v-1.76l1.78-1.84h2.19v3.6Z"/>
        <path class="cls-1" d="M469.48,70.33c-.98,0-1.77.79-1.77,1.77s.8,1.77,1.77,1.77,1.77-.79,1.77-1.77-.79-1.77-1.77-1.77M469.48,72.9c-.44,0-.8-.36-.8-.81s.36-.8.8-.8.81.36.81.8-.36.81-.81.81"/>
        <path class="cls-1" d="M454.34,70.33c-.98,0-1.77.79-1.77,1.77s.8,1.77,1.77,1.77,1.77-.79,1.77-1.77-.79-1.77-1.77-1.77M454.34,72.9c-.44,0-.8-.36-.8-.81s.36-.8.8-.8.81.36.81.8-.36.81-.81.81"/>
        <path class="cls-1" d="M472.94,70.45s0-.41-.02-.62c-.02-.21-.15-.72-.15-.72,0,0,0-.23-.01-.53-.01-.3-.16-.56-.28-.65-.12-.09-.26-.09-.26-.09,0,0-.47-1.24-1.29-1.99,0,0,.02-.22-.09-.24-.11-.02-.85-.07-1.53-.16-.15-.02-.36-.06-.63-.1.15-.17.43-.52.52-.62.12-.13.1-.19-.07-.01-.12.13-.41.45-.56.61-.95-.16-2.5-.39-4.45-.34-2.6.07-4.1.14-9.2,2.69-.09.01-.23.05-.23.05,0,0-.36.03-.42.03s-.34.03-.34.11c-.1.02-.99.27-1.67.43-.68.16-1.73.61-2.47,1.4-.15.18-.13.34-.02.35.1.01.24.06.24.06,0,0-.02.06-.03.12-.22.08-.41.23-.38.37.02.15.13.31.26.31v.15s-.16-.02-.17.01c-.01.04-.02.29-.02.37-.12.07-.13.09-.15.15-.01.06.14.74.2.79.07.04.32.1.32.1,0,0,.06.24.25.31s.51.17,1.79.11c-.01-.16.01-.2.01-.2h.03c-.05-.19-.09-.39-.09-.6,0-1.27,1.03-2.31,2.31-2.31s2.31,1.04,2.31,2.31c0,.24-.05.46-.11.68.62-.01,10.1-.26,10.36-.26.1,0,.21,0,.32,0-.03-.14-.04-.27-.04-.42,0-1.27,1.03-2.31,2.31-2.31s2.31,1.04,2.31,2.31c0,.03,0,.05,0,.08.36-.05.93-.15,1-.19.09-.06.32-.38.26-.55.19-.17.2-.38.2-.55,0-.14-.16-.4-.29-.43M463.14,65.87s-.1.5-.13.68-.26,1.46-.32,1.48c-.05.02-3.18.26-3.18.26,0,0,.01-.46-.27-.67-.29-.21-.59-.1-.81.08-.22.18-.38.64-.38.64,0,0,0,.04-.32.03-.32,0-.26-.41-.2-.53.06-.12.8-.97,2.66-1.62,1.79-.62,2.72-.53,2.85-.51.13.01.1.09.1.16M467.74,67.36s-.29.29-2.24.42c-1.45.13-1.55.1-1.55.1,0,0,0-1.9,0-2,0-.1-.01-.17.11-.19.07,0,1.01,0,1.9.05.83.03,1.61.1,1.61.1.1.04.13-.02.13.19s.05,1.31.03,1.34M469.16,66.23s-.32.23-.41.33c-.09.1-.13.05-.16-.04-.03-.09-.08-.32-.11-.39-.03-.08-.03-.13.05-.11.08.01.54.07.63.09.09.02.08.08,0,.13M471.37,67.63c-.1,0-1.12.03-1.34.02-.23,0-.12-.2-.06-.27.06-.07.58-.68.74-.89.16-.2.21-.07.27,0,0,0,.42.63.52.9.08.21-.02.23-.13.24"/>
        <path class="cls-1" d="M519.44,69.93c-.98,0-1.77.79-1.77,1.77s.8,1.77,1.77,1.77,1.77-.79,1.77-1.77-.79-1.77-1.77-1.77M519.44,72.51c-.44,0-.8-.36-.8-.81s.36-.8.8-.8.81.36.81.8-.36.81-.81.81"/>
        <path class="cls-1" d="M535.2,69.93c-.98,0-1.77.79-1.77,1.77s.8,1.77,1.77,1.77,1.77-.79,1.77-1.77-.79-1.77-1.77-1.77M535.2,72.51c-.44,0-.8-.36-.8-.81s.36-.8.8-.8.81.36.81.8-.36.81-.81.81"/>
        <path class="cls-1" d="M537.56,70.99c.06-1.45-.01-1.37-.06-1.46.01-.17-.05-.72-.17-.85-.01-.1-.02-.52-.06-.87-.02-.41,0-.58-.06-.72.08-.06.05-.65.05-.65.08-.02.11-.13.05-.13s-.18-.01-.18-.01c-.17-1.52-.43-2.51-.43-2.51.33-.21.64-.43.4-.52-.24-.09-4.27-.36-6.12-.38-1.85-.02-6.12.14-6.88.31-.76.17-1.19.64-1.19.64-.29.24-2.13,2.73-2.13,2.73-.15.14-.58.18-.65.18s-1.53.2-1.91.27c-.38.07-.82.08-1.07.29-.25.2-.32.39-.26.56-.12.06-.07.63-.07.63,0,0-.12.19-.14.37-.02.18.07.33.07.33,0,0-.15.2-.2.3-.05.09.01.4.02.64.01.24-.06.81.05.79-.06.11,0,.57,0,.57,0,0-.1.2-.05.31.05.11.46.27.57.25,0,0,0,0,.01-.01-.01-.11-.03-.21-.03-.32,0-1.27,1.04-2.31,2.31-2.31s2.31,1.04,2.31,2.31c0,.15-.02.29-.04.43l11.21-.14c-.01-.1-.03-.19-.03-.29,0-1.27,1.04-2.31,2.31-2.31,1.18,0,2.14.89,2.28,2.04.14-.06.14-.36.09-.44M528.56,64.31c-.07.4-.33,2.13-.37,2.17-.03.04-4.79.2-4.79.2,0,0,.25-.05.27-.13.02-.08.02-.81-.03-.83-.06-.02-.47-.07-.63.01,0,0,1.12-1.53,1.35-1.66.24-.13.63-.11,1.1-.12.47-.01,2.55-.06,2.72-.06s.45.01.38.42M533.45,64.21c-.02.2-.24,1.85-.25,1.96-.01.1,0,.22-.09.25-.1.02-3.43,0-3.64,0s-.29-.05-.29-.17.25-2.18.25-2.18c.01-.06.01-.18.12-.19.11-.01,3.77.02,3.87.04.1.01.06.1.04.3M535.32,66.34c-.11,0-1.15.01-1.3,0-.15-.01-.12-.18-.11-.24.01-.06.17-2.05.19-2.15.02-.1.15-.07.33-.07s.4.01.46.17c.06.15.43,1.79.47,1.95s.06.34-.05.34"/>
        <path class="cls-10" d="M529.42,91.87h-5.61v-.38c0-.09-.07-.17-.17-.17h-.86l1.45-.96c.07-.05.15-.15.15-.27s-.07-.22-.15-.26l-1.96-1.3c-.08-.05-.15-.06-.22-.06-.07,0-.15.02-.22.07l-1.96,1.3c-.08.04-.15.14-.15.26s.07.22.15.27l1.45.96h-.86c-.09,0-.17.08-.17.17v.38h-19.48v-.38c0-.09-.08-.17-.17-.17h-.86l1.45-.96c.07-.05.15-.15.15-.27,0-.12-.07-.22-.15-.26l-1.96-1.3c-.08-.05-.15-.06-.22-.06-.07,0-.15.02-.22.07l-1.96,1.3c-.07.04-.15.14-.15.26,0,.12.07.22.15.27l1.45.96h-.86c-.09,0-.17.08-.17.17v.38h-5.61c-1.01,0-1.82.82-1.82,1.82v9.48c0,.4.33.73.73.73h5.38s0,.06,0,.09c0,1.16.94,2.1,2.1,2.1s2.1-.94,2.1-2.1c0-.03,0-.06,0-.09h.56s0,.06,0,.09c0,1.16.94,2.1,2.1,2.1s2.1-.94,2.1-2.1c0-.03,0-.06,0-.09h11.31s0,.06,0,.09c0,1.16.94,2.1,2.1,2.1s2.1-.94,2.1-2.1c0-.03,0-.06,0-.09h.56s0,.06,0,.09c0,1.16.94,2.1,2.1,2.1s2.1-.94,2.1-2.1c0-.03,0-.06,0-.09h5.38c.4,0,.73-.33.73-.73v-9.48c0-1.01-.82-1.82-1.82-1.82M520.37,90.09l1.67-1.1,1.67,1.11-1.67,1.1-1.67-1.11ZM497.37,90.09l1.67-1.1,1.67,1.11-1.67,1.1-1.67-1.11ZM519.39,94.06c0-.2.16-.36.36-.36h3.28c.2,0,.36.16.36.36v4.38c0,.2-.16.36-.36.36h-3.28c-.2,0-.36-.16-.36-.36v-4.38ZM501.7,94.06v4.38c0,.2-.16.36-.36.36h-3.28c-.2,0-.36-.16-.36-.36v-4.38c0-.2.16-.36.36-.36h3.28c.2,0,.36.16.36.36M491.31,101.9v-7.84c0-.2.16-.36.36-.36h1.38v8.57h-1.38c-.2,0-.36-.16-.36-.36M495.32,101.9c0,.2-.16.36-.36.36h-1.44v-8.57h1.44c.2,0,.36.16.36.36v7.84ZM507.13,98.44c0,.2-.16.36-.36.36h-3.28c-.2,0-.36-.16-.36-.36v-4.38c0-.2.16-.36.36-.36h3.28c.2,0,.36.16.36.36v4.38ZM512.55,98.44c0,.2-.16.36-.36.36h-3.28c-.2,0-.36-.16-.36-.36v-4.38c0-.2.16-.36.36-.36h3.28c.2,0,.36.16.36.36v4.38ZM513.96,98.44v-4.38c0-.2.16-.36.36-.36h3.28c.2,0,.36.16.36.36v4.38c0,.2-.16.36-.36.36h-3.28c-.2,0-.36-.16-.36-.36M525.77,101.9v-7.84c0-.2.16-.36.36-.36h1.44v8.57h-1.44c-.2,0-.36-.16-.36-.36M529.78,101.9c0,.2-.16.36-.36.36h-1.38v-8.57h1.38c.2,0,.36.16.36.36v7.84Z"/>
        <path class="cls-10" d="M571.81,91.87h-5.61v-.38c0-.09-.08-.17-.17-.17h-.86l1.45-.96c.07-.05.15-.15.15-.27,0-.12-.07-.22-.15-.26l-1.96-1.3c-.08-.05-.15-.06-.22-.06-.07,0-.15.02-.22.07l-1.96,1.3c-.08.04-.15.14-.15.26s.07.22.15.27l1.45.96h-.86c-.09,0-.17.08-.17.17v.38h-19.48v-.38c0-.09-.08-.17-.17-.17h-.86l1.45-.96c.08-.05.15-.15.15-.27s-.07-.22-.15-.26l-1.96-1.3c-.08-.05-.15-.06-.22-.06-.07,0-.15.02-.22.07l-1.96,1.3c-.07.04-.15.14-.15.26,0,.12.07.22.15.27l1.45.96h-.86c-.09,0-.17.08-.17.17v.38h-5.62c-1.01,0-1.82.82-1.82,1.82v9.48c0,.4.33.73.73.73h5.38s0,.06,0,.09c0,1.16.94,2.1,2.1,2.1s2.1-.94,2.1-2.1c0-.03,0-.06,0-.09h.56s0,.06,0,.09c0,1.16.94,2.1,2.1,2.1s2.1-.94,2.1-2.1c0-.03,0-.06,0-.09h11.32s0,.06,0,.09c0,1.16.94,2.1,2.1,2.1s2.1-.94,2.1-2.1c0-.03,0-.06,0-.09h.56s0,.06,0,.09c0,1.16.94,2.1,2.1,2.1s2.1-.94,2.1-2.1c0-.03,0-.06,0-.09h5.38c.4,0,.73-.33.73-.73v-9.48c0-1.01-.82-1.82-1.83-1.82M562.77,90.09l1.67-1.1,1.67,1.1-1.67,1.11-1.67-1.11ZM539.77,90.09l1.67-1.1,1.67,1.11-1.67,1.1-1.67-1.11ZM561.79,94.06c0-.2.16-.36.36-.36h3.28c.2,0,.37.16.37.36v4.38c0,.2-.16.36-.37.36h-3.28c-.2,0-.36-.16-.36-.36v-4.38ZM544.1,94.06v4.38c0,.2-.16.36-.37.36h-3.28c-.2,0-.36-.16-.36-.36v-4.38c0-.2.16-.36.36-.36h3.28c.2,0,.37.16.37.36M533.7,101.9v-7.84c0-.2.16-.36.36-.36h1.38v8.57h-1.38c-.2,0-.36-.16-.36-.36M537.71,101.9c0,.2-.17.36-.37.36h-1.44v-8.57h1.44c.2,0,.37.16.37.36v7.84ZM549.52,98.44c0,.2-.16.36-.36.36h-3.28c-.2,0-.36-.16-.36-.36v-4.38c0-.2.16-.36.36-.36h3.28c.2,0,.36.16.36.36v4.38ZM554.95,98.44c0,.2-.16.36-.37.36h-3.28c-.2,0-.36-.16-.36-.36v-4.38c0-.2.16-.36.36-.36h3.28c.2,0,.37.16.37.36v4.38ZM556.36,98.44v-4.38c0-.2.16-.36.36-.36h3.28c.2,0,.37.16.37.36v4.38c0,.2-.16.36-.37.36h-3.28c-.2,0-.36-.16-.36-.36M568.17,101.9v-7.84c0-.2.16-.36.36-.36h1.44v8.57h-1.44c-.2,0-.36-.16-.36-.36M572.18,101.9c0,.2-.16.36-.37.36h-1.38v-8.57h1.38c.2,0,.37.16.37.36v7.84Z"/>
        <path class="cls-1" d="M600.13,86.86s-41.51,1.98-63.18,49.12h-83.71c-21.67-47.14-63.18-49.12-63.18-49.12v144.86h210.07V86.86Z"/>
        <path class="cls-20" d="M479.42,145.14c-12.88-1.45,5.04-6.64,14.86-9.16h-8.28c-10.89,2.59-24.73,7.17-15.18,12.21,14.71,7.77,47.73,3.05,27.47,15.82-20.26,12.77-33.86,19.43-33.86,19.43l43.29,19.43s17.21-19.43,24.14-37.74c6.94-18.31-35.24-18.04-52.45-19.98"/>
      </g>
      <g class="cls-22">
        <path class="cls-17" d="M489.64,203.14c0,14.65-11.88,26.53-26.53,26.53s-26.53-11.88-26.53-26.53,11.88-26.53,26.53-26.53,26.53,11.88,26.53,26.53"/>
        <path class="cls-15" d="M509.66,200.19c0,3.52-2.85,6.38-6.38,6.38s-6.38-2.85-6.38-6.38,2.85-6.38,6.38-6.38,6.38,2.85,6.38,6.38"/>
        <path class="cls-17" d="M530.32,190.51c0,5.14-4.17,9.31-9.31,9.31s-9.31-4.17-9.31-9.31,4.17-9.31,9.31-9.31,9.31,4.17,9.31,9.31"/>
        <path class="cls-17" d="M434.08,226.62h51.38c1.97,0,3.57,1.6,3.57,3.57v46.95c0,1.97-1.6,3.57-3.57,3.57h-51.38c-1.97,0-3.57-1.6-3.57-3.57v-46.96c0-1.97,1.6-3.57,3.57-3.57Z"/>
      </g>
      <path class="cls-11" d="M28.55,197.42v19.54c0,4.07,0,12.66-9.81,12.66-4.35,0-6.8-1.86-8.19-2.89l2.14-4.39c.75.55,2.93,2.18,5.54,2.18,4.71,0,4.71-3.96,4.71-7.24v-19.85h5.62Z"/>
      <path class="cls-13" d="M44.45,204.81c6.21,0,11.63,4.75,11.63,12.38s-5.42,12.42-11.67,12.42-11.63-4.71-11.63-12.42,5.5-12.38,11.67-12.38ZM44.41,224.83c2.61,0,6.45-1.66,6.45-7.63s-3.84-7.59-6.41-7.59-6.45,1.54-6.45,7.59,3.96,7.63,6.41,7.63Z"/>
      <path class="cls-13" d="M65.17,226.45l-8.34-21h5.46l5.58,14.55,5.58-14.55h5.46l-13.57,34.05h-5.26l5.1-13.05Z"/>
      <path class="cls-11" d="M21.67,293.11c2.93,0,4.39.16,6.21,1.11,3.12,1.62,4.67,4.51,4.67,8.15,0,2.97-1.23,7.4-7.24,8.74l9.69,13.57h-6.68l-8.82-13.21h-1.5v13.21h-5.5v-31.56h9.18ZM17.99,298.21v8.46h3.12c1.5,0,5.89,0,5.89-4.27s-3.76-4.19-5.85-4.19h-3.16Z"/>
      <path class="cls-13" d="M40.54,314.59c.16,1.54.59,6.09,7.16,6.09,3.44,0,5.46-.95,7.36-1.94v5.06c-1.19.47-3.72,1.5-7.59,1.5-9.89,0-12.1-7.48-12.1-12.22,0-7.44,4.51-12.58,10.92-12.58,2.57,0,7.28.95,9.49,6.41,1.03,2.45,1.19,5.34,1.15,7.67h-16.37ZM51.73,310.59c-.59-5.3-4.51-5.54-5.54-5.54-.87,0-4.86.2-5.58,5.54h11.11Z"/>
      <path class="cls-13" d="M70,324.67h-2.57c-5.74,0-6.33-2.37-6.33-6.45v-26.58h5.22v26.22c0,1.19.12,2.02,2.02,2.02h1.66v4.79Z"/>
      <path class="cls-13" d="M78.9,298.13h-5.77v-5.62h5.77v5.62ZM78.62,324.67h-5.22v-23.53h5.22v23.53Z"/>
      <path class="cls-13" d="M84.71,302.6c2.57-1.38,5.14-2.1,8.07-2.1,2.29,0,5.97.4,8.3,3.12,1.15,1.38,1.66,3.08,1.66,6.29v9.37c0,3.36.55,4.63.91,5.38h-5.1c-.32-.67-.47-1.27-.51-2.41-3.01,3.01-6.41,3.05-7.44,3.05-4.11,0-7.87-2.37-7.87-7.2,0-6.84,6.84-7.75,11.15-8.31,2.57-.36,3.72-.47,3.72-1.94s-1.54-2.69-4.67-2.69c-2.85,0-5.38.91-7.79,2.41l-.43-4.98ZM97.68,313.08c-1.19.55-1.5.59-4.39.99-2.49.32-5.62.71-5.62,3.84,0,1.58.99,2.93,3.28,2.93.47,0,4.27,0,6.72-3.96v-3.8Z"/>
      <path class="cls-13" d="M108.01,324.67v-23.53h5.02v2.57c.59-.71,2.49-3.2,6.72-3.2,3.96,0,6.05,2.25,6.8,3.8.91,1.82,1.07,3.6,1.07,7.12v13.25h-5.22v-13.37c0-2.65,0-6.01-4.11-6.01-.67,0-5.06.12-5.06,6.01v13.37h-5.22Z"/>
      <path class="cls-13" d="M150.99,323.68c-.95.47-3.2,1.62-7.12,1.62-7.87,0-12.38-4.94-12.38-12.26,0-7.83,5.38-12.54,12.18-12.54,4.03,0,6.49,1.54,7.32,2.1l-1.34,4.63c-.71-.55-2.53-1.94-5.62-1.94-4.39,0-7.36,2.97-7.36,7.59,0,4.07,2.17,7.63,7.47,7.63,3.52,0,5.7-1.38,6.84-2.1v5.26Z"/>
      <path class="cls-13" d="M158.71,314.59c.16,1.54.59,6.09,7.16,6.09,3.44,0,5.46-.95,7.36-1.94v5.06c-1.19.47-3.72,1.5-7.59,1.5-9.89,0-12.1-7.48-12.1-12.22,0-7.44,4.51-12.58,10.92-12.58,2.57,0,7.28.95,9.49,6.41,1.03,2.45,1.19,5.34,1.15,7.67h-16.38ZM169.9,310.59c-.59-5.3-4.51-5.54-5.54-5.54-.87,0-4.87.2-5.58,5.54h11.11Z"/>
      <path class="cls-11" d="M43.74,423.74h-6.37l-3.2-3.92c-.79.32-3.05,1.19-6.29,1.19-8.98,0-16.33-6.53-16.33-16.41s7.32-16.41,16.29-16.41,16.33,6.6,16.33,16.41c0,4.9-2.02,9.61-5.73,12.77l5.3,6.37ZM34.96,413.18c2.37-2.14,3.68-5.5,3.68-8.58,0-5.73-4.15-11.31-10.8-11.31s-10.76,5.58-10.76,11.31,4.23,11.31,10.76,11.31c1.34,0,2.29-.24,2.81-.36l-5.81-7.16h6.17l3.96,4.79Z"/>
      <path class="cls-13" d="M68.02,396.85v23.53h-5.06v-2.61c-.55.75-2.45,3.24-6.68,3.24-3.96,0-6.05-2.29-6.8-3.84-.91-1.78-1.07-3.56-1.07-7.08v-13.25h5.22v13.37c0,2.61,0,6.01,4.11,6.01.67,0,5.06-.16,5.06-6.01v-13.37h5.22Z"/>
      <path class="cls-13" d="M73.99,398.31c2.57-1.38,5.14-2.1,8.07-2.1,2.29,0,5.97.4,8.31,3.12,1.15,1.38,1.66,3.08,1.66,6.29v9.37c0,3.36.55,4.63.91,5.38h-5.1c-.32-.67-.47-1.27-.51-2.41-3.01,3.01-6.41,3.05-7.44,3.05-4.11,0-7.87-2.37-7.87-7.2,0-6.84,6.84-7.75,11.15-8.31,2.57-.36,3.72-.47,3.72-1.94s-1.54-2.69-4.67-2.69c-2.85,0-5.38.91-7.79,2.41l-.44-4.98ZM86.97,408.79c-1.19.55-1.5.59-4.39.99-2.49.32-5.62.71-5.62,3.84,0,1.58.99,2.93,3.28,2.93.47,0,4.27,0,6.72-3.96v-3.8Z"/>
      <path class="cls-13" d="M106.27,420.38h-2.57c-5.74,0-6.33-2.37-6.33-6.45v-26.58h5.22v26.22c0,1.19.12,2.02,2.02,2.02h1.66v4.79Z"/>
      <path class="cls-13" d="M115.17,393.84h-5.77v-5.62h5.77v5.62ZM114.89,420.38h-5.22v-23.53h5.22v23.53Z"/>
      <path class="cls-13" d="M121.18,390.04h5.22v6.8h6.61v4.79h-6.61v11.35c0,2.02.24,3.24,3.01,3.24,1.19,0,2.57-.2,3.24-.28v4.75c-.71.08-2.41.32-4.43.32-7.04,0-7.04-4.19-7.04-7.71v-11.67h-2.81v-4.79h2.81v-6.8Z"/>
      <path class="cls-13" d="M143.2,417.85l-8.34-21h5.46l5.58,14.55,5.58-14.55h5.46l-13.57,34.05h-5.26l5.1-13.05Z"/>
      <path class="cls-11" d="M38.16,514.43c-1.11.55-4.55,2.29-10.01,2.29-11,0-16.81-7.59-16.81-16.33,0-10.12,7.48-16.49,16.81-16.49,3.6,0,6.96.95,10.01,2.97l-1.82,5.1c-1.27-1.07-3.52-2.97-8.19-2.97-7.16,0-11.23,5.1-11.23,11.31,0,5.7,3.48,11.31,11.63,11.31,5.02,0,8.07-2.14,9.61-3.16v5.97Z"/>
      <path class="cls-13" d="M41.56,516.09v-33.02h5.22v11.75c.67-.71,2.61-2.89,6.57-2.89,3.64,0,5.89,2.02,6.76,3.8.91,1.82,1.07,3.6,1.07,7.12v13.25h-5.22v-13.37c0-2.61,0-6.01-4.11-6.01-.83,0-5.06.2-5.06,6.01v13.37h-5.22Z"/>
      <path class="cls-13" d="M67.03,494.02c2.57-1.38,5.14-2.1,8.07-2.1,2.29,0,5.97.4,8.3,3.12,1.15,1.38,1.66,3.08,1.66,6.29v9.37c0,3.36.55,4.63.91,5.38h-5.1c-.32-.67-.47-1.27-.51-2.41-3.01,3.01-6.41,3.05-7.44,3.05-4.11,0-7.87-2.37-7.87-7.2,0-6.84,6.84-7.75,11.15-8.31,2.57-.36,3.72-.47,3.72-1.94s-1.54-2.69-4.67-2.69c-2.85,0-5.38.91-7.79,2.41l-.43-4.98ZM80.01,504.5c-1.19.55-1.5.59-4.39.99-2.49.32-5.62.71-5.62,3.84,0,1.58.99,2.93,3.28,2.93.47,0,4.27,0,6.72-3.96v-3.8Z"/>
      <path class="cls-13" d="M99.31,516.09h-2.57c-5.74,0-6.33-2.37-6.33-6.45v-26.58h5.22v26.22c0,1.19.12,2.02,2.02,2.02h1.66v4.79Z"/>
      <path class="cls-13" d="M111.45,516.09h-2.57c-5.74,0-6.33-2.37-6.33-6.45v-26.58h5.22v26.22c0,1.19.12,2.02,2.02,2.02h1.66v4.79Z"/>
      <path class="cls-13" d="M118.4,506c.16,1.54.59,6.09,7.16,6.09,3.44,0,5.46-.95,7.36-1.94v5.06c-1.19.47-3.72,1.5-7.59,1.5-9.89,0-12.1-7.48-12.1-12.22,0-7.44,4.51-12.58,10.92-12.58,2.57,0,7.28.95,9.49,6.41,1.03,2.45,1.19,5.34,1.15,7.67h-16.38ZM129.6,502.01c-.59-5.3-4.51-5.54-5.54-5.54-.87,0-4.87.2-5.58,5.54h11.11Z"/>
      <path class="cls-13" d="M138.81,516.09v-23.53h5.02v2.57c.59-.71,2.49-3.2,6.72-3.2,3.96,0,6.05,2.25,6.8,3.8.91,1.82,1.07,3.6,1.07,7.12v13.25h-5.22v-13.37c0-2.65,0-6.01-4.11-6.01-.67,0-5.06.12-5.06,6.01v13.37h-5.22Z"/>
      <path class="cls-13" d="M184.37,496.63c-.36-.08-.71-.2-1.31-.2-.87,0-1.42.24-1.82.4.28.59.71,1.66.71,3.48,0,5.54-4.71,7.87-9.41,7.87-1.03,0-1.7-.12-2.18-.2-1.82.75-1.82,1.7-1.82,1.82,0,.71.79.95,1.11,1.03.75.24,2.25.32,4.75.44,2.65.16,9.53.51,9.53,7.36s-7.95,7.99-11.55,7.99c-7.63,0-10.72-3.56-10.72-7.48s2.73-5.5,3.52-6.01c-.75-.51-1.9-1.34-1.9-3.08s1.34-3.08,2.57-3.88c-2.93-2.33-2.93-5.02-2.93-6.09,0-4.86,4-8.15,9.49-8.15,1.7,0,3.68.36,5.38,1.23,1.86-1.23,3.92-1.23,4.31-1.23,1.15,0,1.66.2,2.25.4v4.31ZM171.6,515.3c-.79,0-4.71,0-4.71,3.48,0,3.05,3.64,3.48,5.81,3.48,2.93,0,6.01-.91,6.01-3.6s-2.69-3.36-7.12-3.36ZM168,500.19c0,2.21,1.86,3.76,4.43,3.76s4.47-1.54,4.47-3.88c0-1.98-1.38-3.84-4.39-3.84-2.77,0-4.51,1.74-4.51,3.96Z"/>
      <path class="cls-13" d="M191.06,506c.16,1.54.59,6.09,7.16,6.09,3.44,0,5.46-.95,7.36-1.94v5.06c-1.19.47-3.72,1.5-7.59,1.5-9.89,0-12.1-7.48-12.1-12.22,0-7.44,4.51-12.58,10.92-12.58,2.57,0,7.28.95,9.49,6.41,1.03,2.45,1.19,5.34,1.15,7.67h-16.38ZM202.25,502.01c-.59-5.3-4.51-5.54-5.54-5.54-.87,0-4.87.2-5.58,5.54h11.11Z"/>
      <path class="cls-13" d="M18.77,249.51c.6-.1,1.15-.18,1.84-.18,1.55,0,2.81.29,3.65.91.96.71,1.44,1.81,1.44,2.96,0,1.27-.59,2.67-2.62,3.34-.6.21-1.52.34-2.62.35l-.22-1.22c1.31-.01,4.04-.07,4.04-2.52,0-.93-.5-2.67-3.5-2.67-.87,0-1.52.09-2,.18v4.51c0,.69-.25,1.47-1.84,1.47-1.96,0-3.25-1.18-3.25-2.89,0-2.5,2.46-3.46,3.8-3.98v-2.14h-3.55v-1.22h3.55v-1.87h1.3v1.87h3.5v1.22h-3.5v1.86ZM17.49,251.01c-.87.37-2.56,1.08-2.56,2.68,0,.81.6,1.69,1.96,1.69.5,0,.6-.15.6-.43v-3.95ZM23.38,244.63c1.69,1.33,2.52,2.96,2.97,3.89l-1.21.71c-.62-1.28-1.36-2.64-2.78-3.87l1.02-.72Z"/>
      <path class="cls-13" d="M27.61,252.45c3.14-.47,4.9-1.24,5.79-1.6-.54-.37-.93-.65-1.97-1.68-.69.52-1.34.96-2.78,1.6l-.52-1.03c1.35-.54,3.2-1.44,4.61-3.37l1.19.27c-.22.31-.32.46-.56.74h5.2v.91c-.35.49-1.1,1.47-2.93,2.59,1.83.82,3.78,1.27,5.77,1.52l-.41,1.21c-.5-.09-.71-.13-1.49-.31v4.14h-10.03v-4.11c-.41.1-.66.15-1.46.31l-.41-1.18ZM35.09,244v1.12h5.8v3.09h-1.22v-1.99h-10.35v1.99h-1.19v-3.09h5.74v-1.12h1.22ZM38.48,253.03c-.5-.13-2.49-.69-3.98-1.5-1.56.81-3.24,1.31-3.92,1.5h7.89ZM38.33,254.03h-7.69v2.36h7.69v-2.36ZM32.41,248.36s-.13.12-.19.16c1.06,1.08,1.99,1.6,2.28,1.78,1.47-.82,1.99-1.34,2.5-1.94h-4.59Z"/>
      <path class="cls-13" d="M46.9,252.13c-.56-.88-.74-1.31-.96-1.87v7.41h-1.18v-7.02c-.32,1.21-.66,2.31-1.61,3.68l-.52-1.49c.96-1.19,1.69-2.92,2.09-4.86h-1.86v-1.09h1.88v-2.89h1.18v2.89h1.49v1.09h-1.49v.53c.29.85.85,1.83,1.63,2.68l-.68.94ZM46.77,256.21c.49-.19,2.05-.84,3.71-2.06l.26,1.05c-.82.6-2.38,1.53-3.52,2.05l-.46-1.03ZM56.12,257.16c-1.5-.87-2.61-1.86-3.43-3.28v2.58c0,.31,0,1.19-1.13,1.19h-1.69l-.21-1.18,1.38.02c.28,0,.47-.03.47-.47v-4.7h-3.77v-1.06h3.77v-1.31h-3.18v-1.02h3.18v-1.19h-3.55v-1.03h1.99c-.15-.47-.4-1.02-.66-1.55l1.1-.16c.29.54.57,1.15.75,1.71h2c.16-.31.46-.87.71-1.71l1.15.18c-.32.87-.63,1.41-.71,1.53h2.02v1.03h-3.62v1.19h3.27v1.02h-3.27v1.31h3.86v1.06h-3.86v.53c.49,1.37,1.86,3.24,4.03,4.23l-.6,1.09ZM48.58,251.63c.24.15,1.03.66,1.81,1.55l-.81.78c-.41-.49-1.09-1.13-1.75-1.55l.75-.78ZM54.06,253.22c.52-.41,1.1-1.07,1.44-1.62l.93.65c-.46.65-.94,1.18-1.52,1.65l-.85-.68Z"/>
      <path class="cls-13" d="M60.55,257.21c-1.04-1.58-1.96-2.53-2.44-3.05l1.12-.82c.96.88,2,2.12,2.62,2.96l-1.3.91Z"/>
      <path class="cls-13" d="M68.5,257.68h-1.19v-5.96c-.93.85-1.6,1.3-2.02,1.56l-.5-1.21c2.44-1.47,3.81-3.37,4.31-4.56h-4.12v-1.1h2.33v-2.4h1.19v2.4h1.9v1.12c-.15.35-.53,1.27-1.61,2.61.78.9,1.3,1.34,2.12,1.93l-.66,1.07c-.78-.63-.94-.81-1.75-1.77v6.32ZM75.02,244v4.26h3.24v1.21h-3.24v6.48h3.58v1.21h-8.58v-1.21h3.77v-6.48h-3.08v-1.21h3.08v-4.26h1.24Z"/>
      <path class="cls-13" d="M85.01,256.07c-1.3.8-2.86,1.28-4.42,1.62l-.59-1.15c1.56-.16,3-.66,4.21-1.33l.79.85ZM92.72,248.64v6.49h-11.59v-6.49h11.59ZM92.26,244.47v3.25h-10.63v-3.25h10.63ZM82.31,249.55v.97h9.23v-.97h-9.23ZM82.31,251.35v.99h9.23v-.99h-9.23ZM82.31,253.19v1h9.23v-1h-9.23ZM82.82,245.41v1.4h8.25v-1.4h-8.25ZM89.53,255.22c1.3.72,2.84,1.16,4.34,1.28l-.57,1.18c-1.65-.25-3.21-.85-4.56-1.63l.79-.82Z"/>
      <path class="cls-13" d="M105.94,249.39c-1.19.13-9.14,1.03-9.14,4.3,0,1.71,1.8,1.87,4.96,1.87,2.43,0,3.8-.13,4.64-.22l.03,1.38c-.96.06-2.25.15-4.37.15-2.55,0-6.63,0-6.63-3.14,0-2.52,3.03-3.78,4.06-4.23-.49-.96-.51-1.81-.56-4.95h1.44c-.01.4-.03.81-.03,1.53,0,1.56.07,2.34.38,2.97,1.59-.49,2.8-.72,5.08-1.09l.13,1.41Z"/>
      <path class="cls-13" d="M118.45,244.88v1.13c-1.53,1.16-4.12,2.8-5.7,3.59,3.83-.54,5.96-.63,8.23-.62v1.33c-.74-.06-1.28-.09-1.87-.09-1.22,0-1.84.18-2.65.59-1.21.63-2.59,1.91-2.59,3.18,0,1.02.77,1.94,5.27,1.86l-.16,1.31c-2.18-.04-6.48-.1-6.48-2.9,0-2.27,2.43-3.55,3.2-3.95-3.87.53-4.83.69-7.32,1.18l-.15-1.33c1.22-.1,1.52-.15,2.36-.54,2.08-.97,4.01-2.24,5.86-3.58l-6.3.09-.03-1.25h8.33Z"/>
      <path class="cls-13" d="M129.27,255.6c1.52-.16,5.09-.59,5.09-4.8,0-1.16-.35-4.4-4.4-4.54-.13,1.71-.43,5.33-1.94,7.76-.87,1.37-1.81,1.71-2.47,1.71-1.44,0-2.65-1.71-2.65-4.14,0-4.01,2.92-6.57,6.8-6.57,4.77,0,6.05,3.3,6.05,5.79,0,1.75-.63,3.49-1.97,4.61-.96.8-2.43,1.3-4.06,1.46l-.44-1.28ZM126.22,247.27c-1.37,1-2.05,2.65-2.05,4.36,0,1,.37,2.69,1.41,2.69.62,0,1.06-.54,1.44-1.19,1.24-2.12,1.47-5.11,1.62-6.8-.87.16-1.68.38-2.43.94Z"/>
      <path class="cls-13" d="M150.38,249.64c-1.04,1.06-2.71,2.03-3.02,2.21,1.34,2.44,2.92,3.58,3.53,4.03l-.9,1.02c-3.3-2.89-4.52-6.3-4.92-8.5h-.49c-.22.28-.43.52-.93.93.59.57,2.12,2.06,2.12,5.39,0,.85-.1,2.89-1.87,2.89h-2.06l-.24-1.21h1.93c.41.01,1.1.03,1.1-1.75,0-.41-.07-1-.1-1.16-1.19,1.05-3.3,2.44-6.88,3.36l-.49-1.13c3.45-.71,5.8-2.06,7.17-3.28-.15-.53-.32-.88-.38-1-1.12,1-3,2.09-5.82,2.8l-.52-1.09c2.95-.59,4.76-1.62,5.85-2.46-.25-.31-.46-.52-.68-.74-1.43.96-3.06,1.53-4.74,1.87l-.49-1.1c1.77-.28,3.92-.82,5.64-2.3h-3.87v-.97h9.45v.97h-2.71c.26,1.24.62,2.06.79,2.47.29-.18,1.58-.97,2.53-1.99l.96.75ZM143.47,245.24v-1.19h1.24v1.19h5.79v3.06h-1.16v-2h-10.47v2h-1.18v-3.06h5.79Z"/>
      <path class="cls-13" d="M155.63,244.03v1.94h2.15v1.15h-3.02v1.91h2.64c.04,3.45-.12,6.67-.34,7.48-.13.53-.4,1.1-1.63,1.1h-1.12l-.19-1.19h1.09c.32.01.57-.03.69-.25.28-.57.34-3.31.35-6.01h-1.49v.34c0,4.64-1.3,6.39-1.8,7.07l-.87-.99c.5-.74,1.52-2.27,1.52-6.08v-3.39h-1.31v-1.15h2.13v-1.94h1.19ZM157.25,248.34c1.12-1.07,1.91-2.74,2.24-4.31l1.21.18c-.1.46-.21.91-.49,1.6h5.68v1.15h-6.18c-.69,1.31-1.22,1.85-1.47,2.11l-.99-.72ZM165.54,248.76v1.13h-2.97c0,.74-.01,1.38-.13,2.18h3.46v1.13h-3c.27.75.83,2.16,3.14,3.39l-.74,1.09c-1.24-.81-2.49-1.81-3.28-3.74-.62,1.74-2.06,2.96-4,3.68l-.53-1.08c2.87-.93,3.49-3.05,3.58-3.34h-3.06v-1.13h3.28c.12-.94.12-1.6.12-2.18h-1.09c-.56,1.09-.87,1.43-1.24,1.83l-.93-.71c1.16-1.15,1.68-2.84,1.86-3.47l1.1.25c-.1.4-.16.6-.29.97h4.74Z"/>
      <path class="cls-13" d="M169.93,257.21c-1.04-1.58-1.96-2.53-2.44-3.05l1.12-.82c.96.88,2,2.12,2.62,2.96l-1.3.91Z"/>
      <path class="cls-13" d="M177.88,257.68h-1.19v-5.96c-.93.85-1.6,1.3-2.02,1.56l-.5-1.21c2.44-1.47,3.81-3.37,4.31-4.56h-4.12v-1.1h2.33v-2.4h1.19v2.4h1.9v1.12c-.15.35-.53,1.27-1.61,2.61.78.9,1.3,1.34,2.12,1.93l-.66,1.07c-.78-.63-.94-.81-1.75-1.77v6.32ZM184.4,244v4.26h3.24v1.21h-3.24v6.48h3.58v1.21h-8.58v-1.21h3.77v-6.48h-3.08v-1.21h3.08v-4.26h1.24Z"/>
      <path class="cls-13" d="M200.14,249.18h-7.79v-.82c-1.31.81-2.12,1.16-2.62,1.37l-.6-1.19c4.39-1.72,6.04-4.11,6.43-4.7h1.31c1.53,2.05,3.87,3.83,6.44,4.74l-.65,1.18c-.65-.29-1.47-.68-2.52-1.38v.81ZM198.84,252.67c1.58,1.55,2.47,2.58,3.61,4.37l-1.06.71c-.24-.4-.41-.68-.72-1.13-2.46.35-8.47.62-10.73.62l-.13-1.21h2.03c.93-1.59,1.49-2.96,1.81-3.81h-4.03v-1.13h13.15v1.13h-7.69c-.35.81-.94,2.09-1.9,3.78.37-.01,2.02-.06,2.33-.07,1.8-.07,3.31-.21,4.4-.31-.15-.19-.88-1.12-2.03-2.28l.97-.66ZM199.67,248.06c-2.08-1.47-2.93-2.53-3.45-3.18-.93,1.3-2.18,2.33-3.42,3.18h6.86Z"/>
      <path class="cls-13" d="M210.94,255.6c1.52-.16,5.09-.59,5.09-4.8,0-1.16-.35-4.4-4.4-4.54-.13,1.71-.43,5.33-1.94,7.76-.87,1.37-1.81,1.71-2.47,1.71-1.44,0-2.65-1.71-2.65-4.14,0-4.01,2.92-6.57,6.8-6.57,4.77,0,6.05,3.3,6.05,5.79,0,1.75-.63,3.49-1.97,4.61-.96.8-2.43,1.3-4.06,1.46l-.44-1.28ZM207.9,247.27c-1.37,1-2.05,2.65-2.05,4.36,0,1,.37,2.69,1.41,2.69.62,0,1.06-.54,1.44-1.19,1.24-2.12,1.47-5.11,1.62-6.8-.87.16-1.68.38-2.43.94Z"/>
      <path class="cls-13" d="M231.23,251.2h-1.61c-.19.52-.22.59-.41,1.02h3.46v.99h-13.63v-.99h3.5c-.12-.35-.24-.69-.37-1.02h-1.68v-2.83h10.73v2.83ZM232.66,245.77h-6.21v.96h5.39v.9h-11.94v-.9h5.35v-.96h-6.18v-.97h6.18v-.81h1.21v.81h6.21v.97ZM231.45,257.37h-11.21v-3.4h11.21v3.4ZM230.29,254.88h-8.86v1.58h8.86v-1.58ZM230.07,249.26h-8.39v1.05h8.39v-1.05ZM227.95,252.22c.21-.4.27-.56.41-1.02h-4.98c.1.25.25.69.37,1.02h4.2Z"/>
      <path class="cls-13" d="M239.19,245.5v1.24c-1.88,1.41-3.08,3.25-3.08,5.42,0,2.78,1.88,3.45,3.4,3.45,2.33,0,3.73-1.22,3.73-3.95,0-2.06-.62-4.18-1.24-5.32-.44-.79-.57-1.12-.65-1.31l1.24-.4c.53,1.4,1.52,3.39,4.45,4.59l-.49,1.34c-1.49-.65-2.12-1.35-2.69-2.09.37,1.05.59,2.25.59,3.36,0,2.42-.93,5.07-4.87,5.07-4.25,0-4.71-3.4-4.71-4.52,0-2.18.96-4.2,2.69-5.6l-2.92.03v-1.31h4.55ZM244.64,243.87c.56.94.88,1.83,1.21,2.9l-1.04.49c-.34-1.25-.57-1.83-1.15-2.96l.99-.43ZM246.76,243.35c.57.99.88,1.8,1.22,2.92l-1.06.47c-.34-1.27-.56-1.83-1.13-2.96l.97-.43Z"/>
      <path class="cls-13" d="M18.77,345.2c.6-.1,1.15-.18,1.84-.18,1.55,0,2.81.29,3.65.91.96.71,1.44,1.81,1.44,2.96,0,1.27-.59,2.67-2.62,3.34-.6.21-1.52.34-2.62.35l-.22-1.22c1.31-.01,4.04-.07,4.04-2.52,0-.93-.5-2.67-3.5-2.67-.87,0-1.52.09-2,.18v4.51c0,.69-.25,1.47-1.84,1.47-1.96,0-3.25-1.18-3.25-2.89,0-2.5,2.46-3.46,3.8-3.98v-2.14h-3.55v-1.22h3.55v-1.87h1.3v1.87h3.5v1.22h-3.5v1.86ZM17.49,346.7c-.87.37-2.56,1.07-2.56,2.68,0,.81.6,1.69,1.96,1.69.5,0,.6-.15.6-.43v-3.95ZM23.38,340.33c1.69,1.33,2.52,2.96,2.97,3.89l-1.21.71c-.62-1.28-1.36-2.64-2.78-3.87l1.02-.72Z"/>
      <path class="cls-13" d="M27.61,348.15c3.14-.47,4.9-1.24,5.79-1.6-.54-.37-.93-.65-1.97-1.68-.69.52-1.34.96-2.78,1.6l-.52-1.03c1.35-.54,3.2-1.44,4.61-3.37l1.19.27c-.22.31-.32.46-.56.74h5.2v.91c-.35.49-1.1,1.47-2.93,2.59,1.83.82,3.78,1.27,5.77,1.52l-.41,1.21c-.5-.09-.71-.13-1.49-.31v4.14h-10.03v-4.11c-.41.1-.66.15-1.46.31l-.41-1.18ZM35.09,339.69v1.12h5.8v3.09h-1.22v-1.99h-10.35v1.99h-1.19v-3.09h5.74v-1.12h1.22ZM38.48,348.72c-.5-.13-2.49-.69-3.98-1.5-1.56.81-3.24,1.31-3.92,1.5h7.89ZM38.33,349.72h-7.69v2.36h7.69v-2.36ZM32.41,344.05s-.13.12-.19.16c1.06,1.07,1.99,1.6,2.28,1.78,1.47-.82,1.99-1.34,2.5-1.94h-4.59Z"/>
      <path class="cls-13" d="M46.9,347.82c-.56-.88-.74-1.31-.96-1.87v7.41h-1.18v-7.02c-.32,1.21-.66,2.31-1.61,3.68l-.52-1.49c.96-1.19,1.69-2.92,2.09-4.86h-1.86v-1.09h1.88v-2.89h1.18v2.89h1.49v1.09h-1.49v.53c.29.85.85,1.83,1.63,2.68l-.68.94ZM46.77,351.9c.49-.19,2.05-.84,3.71-2.06l.26,1.05c-.82.6-2.38,1.53-3.52,2.05l-.46-1.03ZM56.12,352.86c-1.5-.87-2.61-1.86-3.43-3.28v2.58c0,.31,0,1.19-1.13,1.19h-1.69l-.21-1.18,1.38.02c.28,0,.47-.03.47-.47v-4.7h-3.77v-1.06h3.77v-1.31h-3.18v-1.02h3.18v-1.19h-3.55v-1.03h1.99c-.15-.47-.4-1.02-.66-1.55l1.1-.16c.29.54.57,1.15.75,1.71h2c.16-.31.46-.87.71-1.71l1.15.18c-.32.87-.63,1.41-.71,1.53h2.02v1.03h-3.62v1.19h3.27v1.02h-3.27v1.31h3.86v1.06h-3.86v.53c.49,1.37,1.86,3.24,4.03,4.23l-.6,1.09ZM48.58,347.32c.24.15,1.03.66,1.81,1.55l-.81.78c-.41-.49-1.09-1.13-1.75-1.55l.75-.78ZM54.06,348.91c.52-.41,1.1-1.07,1.44-1.62l.93.65c-.46.65-.94,1.18-1.52,1.65l-.85-.68Z"/>
      <path class="cls-13" d="M60.55,352.9c-1.04-1.58-1.96-2.53-2.44-3.05l1.12-.82c.96.88,2,2.12,2.62,2.96l-1.3.91Z"/>
      <path class="cls-13" d="M68.5,353.37h-1.19v-5.96c-.93.85-1.6,1.3-2.02,1.56l-.5-1.21c2.44-1.47,3.81-3.37,4.31-4.56h-4.12v-1.1h2.33v-2.4h1.19v2.4h1.9v1.12c-.15.35-.53,1.27-1.61,2.61.78.9,1.3,1.34,2.12,1.93l-.66,1.07c-.78-.63-.94-.81-1.75-1.77v6.32ZM75.02,339.69v4.26h3.24v1.21h-3.24v6.48h3.58v1.21h-8.58v-1.21h3.77v-6.48h-3.08v-1.21h3.08v-4.26h1.24Z"/>
      <path class="cls-13" d="M85,351.77c-1.3.8-2.86,1.28-4.42,1.62l-.59-1.15c1.56-.16,3-.66,4.21-1.33l.79.85ZM92.7,344.33v6.49h-11.59v-6.49h11.59ZM92.24,340.16v3.25h-10.63v-3.25h10.63ZM82.29,345.25v.97h9.23v-.97h-9.23ZM82.29,347.04v.99h9.23v-.99h-9.23ZM82.29,348.88v1h9.23v-1h-9.23ZM82.81,341.11v1.4h8.25v-1.4h-8.25ZM89.52,350.91c1.3.72,2.84,1.16,4.34,1.28l-.57,1.18c-1.65-.25-3.21-.85-4.56-1.63l.79-.82Z"/>
      <path class="cls-13" d="M108.03,352.03c0,.88-.35,1.31-1.49,1.31h-2.11l-.21-1.25h2.03c.31.01.52.03.52-.46v-10.26h-9.98v11.97h-1.25v-13.12h12.49v11.81ZM106.08,342.77v1.07h-8.63v-1.07h8.63ZM105.13,345.23v5.37h-6.76v-5.37h6.76ZM103.98,346.31h-4.45v3.25h4.45v-3.25Z"/>
      <path class="cls-13" d="M117.21,339.69v4.18h6.14v1.22h-6.14v6.54h5.33v1.22h-11.91v-1.22h5.29v-6.54h-6.11v-1.22h6.11v-4.18h1.29Z"/>
      <path class="cls-13" d="M131.26,351.3c1.52-.16,5.09-.59,5.09-4.8,0-1.16-.35-4.4-4.4-4.54-.13,1.71-.43,5.33-1.94,7.76-.87,1.37-1.81,1.71-2.47,1.71-1.44,0-2.65-1.71-2.65-4.14,0-4.01,2.92-6.57,6.8-6.57,4.77,0,6.05,3.3,6.05,5.79,0,1.75-.63,3.49-1.97,4.61-.96.8-2.43,1.3-4.06,1.46l-.44-1.28ZM128.21,342.96c-1.37,1-2.05,2.65-2.05,4.36,0,1,.37,2.69,1.41,2.69.62,0,1.06-.54,1.44-1.19,1.24-2.12,1.47-5.11,1.62-6.8-.87.16-1.68.38-2.43.94Z"/>
      <path class="cls-13" d="M142.11,353.37h-1.19v-7.55c-.49.78-.69,1.03-.99,1.35l-.66-1.31c1.31-1.49,2.19-4.15,2.53-6.18l1.24.19c-.31,1.65-.63,2.58-.93,3.42v10.09ZM153.21,343.2h-10.28v-1.1h10.28v1.1ZM152.56,353.09h-8.79v-4.67h8.79v4.67ZM152.34,345.25h-8.33v-1.07h8.33v1.07ZM152.34,347.35h-8.33v-1.06h8.33v1.06ZM152.21,341.11h-8.11v-1.07h8.11v1.07ZM151.35,349.47h-6.38v2.56h6.38v-2.56Z"/>
      <path class="cls-13" d="M161.4,340.18h6.85v1.05h-2.93c-.09.28-.21.74-.44,1.33h2.9v7.91h-5.85v-7.91h1.83c.1-.29.31-.93.38-1.33h-2.72v.99h-2.84v1.12h2.43v4.26h-2.42c.22.34,1,1.52,2.34,2.59l-.71.99c-.54-.57-1.12-1.22-1.65-2.11v4.29h-1.1v-4.34c-.88,1.83-1.8,2.74-2.43,3.33l-.56-1.03c1.59-1.41,2.42-2.97,2.78-3.71h-2.19v-4.26h2.4v-1.12h-2.86v-1.1h2.86v-1.4h1.1v1.4h2.83v-.93ZM157.47,344.32h-1.31v2.28h1.31v-2.28ZM159.93,344.32h-1.35v2.28h1.35v-2.28ZM160.52,352.5c.99-.49,1.91-1.03,2.67-1.86l.9.66c-.81.9-1.84,1.59-2.83,2.08l-.74-.88ZM166.62,343.55h-3.53v1.27h3.53v-1.27ZM166.62,345.76h-3.53v1.31h3.53v-1.31ZM166.62,348.03h-3.53v1.4h3.53v-1.4ZM166.25,350.63c.79.8,1.41,1.27,2.28,1.77l-.71.97c-.72-.46-1.8-1.3-2.43-1.97l.85-.77Z"/>
      <path class="cls-13" d="M175.73,340.16v4.77h-4.34v8.42h-1.16v-13.19h5.51ZM174.58,341.08h-3.2v1.03h3.2v-1.03ZM174.58,342.93h-3.2v1.1h3.2v-1.1ZM179.47,352.64c-.52-.24-2.08-.96-3.02-2.68-.54,1.16-1.66,2.28-3.53,2.9l-.6-1c1.97-.52,2.78-1.53,3.11-2.13h-3.09v-.94h3.43c.12-.5.12-.85.12-1.15h-3.2v-.93h1.65c-.24-.56-.34-.8-.54-1.21l1.13-.19c.18.38.41,1.03.52,1.4h2.06c.21-.47.4-1.22.43-1.37l1.15.15c-.04.15-.21.66-.49,1.22h1.71v.93h-3.3c-.03.37-.04.65-.15,1.15h3.77v.94h-3.24c.34.5,1.08,1.34,2.64,1.91l-.54,1ZM182.74,340.16v12.09c0,.34-.12,1.1-1.03,1.1h-1.58l-.31-1.16h1.35c.29.01.4-.09.4-.47v-6.79h-4.36v-4.77h5.52ZM181.57,341.08h-3.21v1.03h3.21v-1.03ZM181.57,342.93h-3.21v1.1h3.21v-1.1Z"/>
      <path class="cls-13" d="M187.34,353.36h-1.21v-7.67c-.52.81-.85,1.16-1.16,1.52l-.63-1.35c1.65-1.88,2.65-4.4,3.03-6.21l1.22.22c-.12.59-.37,1.74-1.25,3.65v9.85ZM187.93,352c1.09-.91,1.87-2.24,2.28-3.22l1.06.47c-.24.56-.93,2.19-2.46,3.59l-.88-.84ZM196.47,342.48c-1.33,1.99-3.06,3.84-3.71,4.46.72,0,1.93-.01,3.74-.21-.44-.8-.65-1.12-.87-1.47l.97-.49c.75,1.07,1.28,2.08,1.8,3.31l-1.06.52c-.22-.52-.29-.68-.4-.91-1.07.13-2.64.22-3.21.27v5.4h-1.19v-5.36c-.71.01-3.8.1-4.42.1l-.1-1.15c.5.01,2.75,0,3.21-.01.13-.1.34-.28.81-.77-.68-.69-1.84-1.72-3.15-2.69l.71-.84c.38.25.66.46,1,.74.68-.78,1.13-1.46,1.49-1.99-1.72.1-2.52.1-3.06.1l-.18-1.07c2.9.01,6.2-.21,8.36-.81l.46.97c-1.41.41-3.61.65-4.17.71-.41.72-1.3,2-2.05,2.8.78.68,1.15,1.06,1.34,1.27,1.21-1.38,2-2.52,2.67-3.5l1.02.63ZM197.44,352.83c-1.1-1.03-2-2.39-2.58-3.65l.99-.47c.32.65.96,1.81,2.41,3.24l-.82.88Z"/>
      <path class="cls-13" d="M15.93,449.05h-1.21v-7.89c-.63,1.03-1.04,1.43-1.3,1.68l-.68-1.28c1.41-1.4,2.72-3.99,3.25-6.23l1.21.25c-.15.6-.38,1.62-1.28,3.48v10ZM22.3,435.4v4.27h4.29v1.19h-4.29v6.45h3.86v1.18h-8.92v-1.18h3.81v-6.45h-4.34v-1.19h4.34v-4.27h1.25Z"/>
      <path class="cls-13" d="M41.01,437.44h-6.18v.84h4.92v2.84h-4.92v.77h5.26v1.83h1.02v1h-1.02v1.88h-5.26v1.16c0,.49-.13,1.3-1.28,1.3h-2.4l-.18-1.19,2.18.02c.41,0,.49-.16.49-.47v-.81h-5.36v-.93h5.36v-.97h-6.24v-.96h6.24v-.96h-5.32v-.9h5.32v-.77h-4.89v-2.84h4.89v-.84h-6.1v-1h6.1v-1.05h1.19v1.05h6.18v1ZM33.64,439.14h-3.68v1.1h3.68v-1.1ZM38.52,439.14h-3.7v1.1h3.7v-1.1ZM38.86,442.78h-4.03v.96h4.03v-.96ZM38.88,444.69h-4.05v.97h4.05v-.97Z"/>
      <path class="cls-13" d="M49.11,446.99c1.52-.16,5.09-.59,5.09-4.8,0-1.16-.35-4.4-4.4-4.54-.13,1.71-.43,5.33-1.94,7.76-.87,1.37-1.81,1.71-2.47,1.71-1.44,0-2.65-1.71-2.65-4.14,0-4.01,2.92-6.57,6.8-6.57,4.77,0,6.05,3.3,6.05,5.79,0,1.75-.63,3.49-1.97,4.61-.96.8-2.43,1.3-4.06,1.46l-.44-1.28ZM46.06,438.66c-1.37,1-2.05,2.65-2.05,4.36,0,1,.37,2.69,1.41,2.69.62,0,1.06-.54,1.44-1.19,1.24-2.12,1.47-5.11,1.62-6.8-.87.16-1.68.38-2.43.94Z"/>
      <path class="cls-13" d="M63.12,442.35v6.42h-5.64v-6.42h5.64ZM58.62,443.43v4.27h3.37v-4.27h-3.37ZM68.84,435.86v5.17h-9.91v-5.17h9.91ZM60.11,436.93v2.99h7.57v-2.99h-7.57ZM70.24,442.35v6.42h-5.82v-6.42h5.82ZM65.55,443.43v4.27h3.55v-4.27h-3.55Z"/>
      <path class="cls-13" d="M74.1,437.46h4.55v.88h-1.94v1.83h-1.12v-1.83h-1.55c-.12,1.05-.54,2.13-1.34,2.89l-.85-.77c.68-.59,1.15-1.71,1.15-2.69v-1.99c2.44,0,4.06-.16,5.14-.52l.37.97c-.57.15-1.56.4-4.4.44v.78ZM71.93,447.98c2.59-.34,3.4-.74,4.11-1.12l.75.82c-1.36.72-2.47,1.06-4.39,1.37l-.47-1.07ZM84.12,446.84h-10.75v-6.26h10.75v6.26ZM82.92,441.51h-8.36v.9h8.36v-.9ZM82.92,443.18h-8.36v.96h8.36v-.96ZM82.92,444.9h-8.36v1h8.36v-1ZM80.47,437.46h5.12v.88h-2.28v1.83h-1.1v-1.83h-1.85c-.18.94-.66,1.63-1.21,2.11l-.87-.75c.83-.56,1.1-1.62,1.1-2.24v-1.69c3.11,0,4.48-.24,5.48-.57l.41.96c-.99.34-3.27.53-4.8.53v.78ZM81.44,446.89c1.65.78,2.89,1.02,4.12,1.12l-.5,1.07c-.62-.07-2.4-.29-4.33-1.4l.71-.8Z"/>
      <path class="cls-13" d="M99.83,447.76c0,1.05-.49,1.3-1.41,1.3h-2.18l-.19-1.27h2.03c.43.01.5-.16.5-.53v-8.88h-9.97v10.68h-1.27v-11.81h4.49c.28-.62.46-1.12.68-2.03l1.31.25c-.09.29-.22.77-.68,1.78h6.68v10.51ZM96.82,446.17h-6.54v-5.88h6.54v5.88ZM95.69,441.35h-4.25v3.74h4.25v-3.74Z"/>
      <path class="cls-13" d="M108.82,439.94h5.43v1.24h-5.43v6.11h6.39v1.22h-13.63v-1.22h5.96v-11.87h1.28v4.52Z"/>
      <path class="cls-13" d="M25.38,531.79v12.63h-11.19v-12.63h11.19ZM15.47,537.43h8.61v-4.45h-8.61v4.45ZM15.47,538.6v4.64h8.61v-4.64h-8.61Z"/>
      <path class="cls-13" d="M36.62,544.29c-1.34-1.44-3.59-3.33-5.86-4.7l.81-.96c.77.47,1.37.88,2.83,1.97.96-.75,3.39-3.06,4.45-5.07h-6.43c-.91,1.3-2.46,3.17-3.93,4.4l-.9-.88c.97-.82,3.89-3.45,5.55-7.44l1.25.41c-.41.94-.75,1.58-1.21,2.34h7.16v1.15c-.91,1.86-3.09,4.2-5.01,5.82.26.22,1.18.97,2.22,2.02l-.93.93Z"/>
      <path class="cls-13" d="M48.46,542.68c1.52-.16,5.09-.59,5.09-4.8,0-1.16-.35-4.4-4.4-4.54-.13,1.71-.43,5.33-1.94,7.76-.87,1.37-1.81,1.71-2.47,1.71-1.44,0-2.65-1.71-2.65-4.14,0-4.01,2.92-6.57,6.8-6.57,4.77,0,6.05,3.3,6.05,5.79,0,1.75-.63,3.49-1.97,4.61-.96.8-2.43,1.3-4.06,1.46l-.44-1.28ZM45.41,534.35c-1.37,1-2.05,2.65-2.05,4.36,0,1,.37,2.69,1.41,2.69.62,0,1.06-.54,1.44-1.19,1.24-2.12,1.47-5.11,1.62-6.8-.87.16-1.68.38-2.43.94Z"/>
      <path class="cls-13" d="M61,538.44c-.32.16-.57.28-1.52.65v4.62c0,.77-.49,1.02-1.06,1.02h-1.52l-.15-1.19h1.15c.21.01.4.01.4-.34v-3.65c-.84.32-1.13.41-1.61.54l-.22-1.24c.43-.1.68-.16,1.83-.53v-3.42h-1.63v-1.08h1.63v-2.72h1.18v2.72h1.47v1.08h-1.47v3.03c.9-.32,1.09-.43,1.44-.59l.07,1.09ZM63.71,531.11h1.16v6.35c0,2.67-.59,5.42-3.72,7.26l-.87-.94c2.24-1.34,2.89-2.53,3.24-4.18-1.06.74-1.87,1.16-2.74,1.6l-.49-1.16c1.88-.75,3.22-1.66,3.4-1.78,0-.22.01-.43.01-.82v-6.32ZM62.28,536.34c-.15-.52-.43-1.53-1.28-3.21l.96-.4c.57.94,1.05,1.99,1.4,3.12l-1.07.49ZM68.09,537.13c.77.77,1.75,2.12,2.31,3.17l-1.06.66c-.53-1.12-1.4-2.34-2.09-3.2v5.26c0,.27,0,.4.32.4h1.12c.38,0,.41-.1.49-.38.04-.21.15-.79.18-1.53l1.15.4c-.13,2.4-.66,2.68-1.44,2.68h-1.88c-.28,0-1.08-.09-1.08-1.1v-12.37h1.15v6.54l.84-.52ZM67.5,535.73c.62-.84,1.12-1.68,1.68-3.12l1.12.5c-.68,1.65-1.46,2.69-1.84,3.2l-.96-.57Z"/>
      <path class="cls-13" d="M79.17,533.85v6.02h-2.86v1.3h3.33v1.12h-3.33v2.46h-1.12v-2.46h-3.36v-1.12h3.36v-1.3h-2.83v-6.02h4.76c.26-.37.84-1.16,1.41-2.68l1.18.4c-.46.93-.77,1.46-1.3,2.28h.75ZM72.91,533.72c-.31-.82-.56-1.27-1.03-2.05l1.05-.44c.37.52.85,1.37,1.12,2l-1.13.49ZM75.22,534.81h-1.78v1.56h1.78v-1.56ZM75.22,537.28h-1.78v1.6h1.78v-1.6ZM75.39,533.5c-.16-.87-.32-1.4-.66-2.27l1.1-.19c.37.9.52,1.37.74,2.22l-1.18.24ZM78.1,534.81h-1.81v1.56h1.81v-1.56ZM78.1,537.28h-1.81v1.6h1.81v-1.6ZM85.46,534.73v1.13l-3.15.24c.09,1.27.18,2.53.4,3.78.87-1.27,1.25-2.36,1.46-2.92l1.03.5c-.77,1.97-1.53,3.02-2.15,3.8.21.63.83,1.93,1.1,1.93.29,0,.37-.5.57-2l1.02.59c-.19,1.4-.52,2.96-1.43,2.96-1.03,0-1.81-1.58-2.16-2.47-1.27,1.27-2.36,1.91-2.93,2.27l-.84-.97c.71-.34,2.03-1.02,3.43-2.53-.56-2.44-.59-3.67-.62-4.84l-1.63.12v-1.15l1.6-.12c-.01-.63-.09-3.4-.09-3.96h1.15c-.01.99.03,2.84.04,3.89l3.2-.24ZM84.35,534.29c-.41-.77-1.09-1.72-1.59-2.31l.88-.6c.59.6,1.24,1.46,1.66,2.28l-.96.63Z"/>
      <polygon class="cls-11" points="674.75 344.11 674.75 247.19 590.82 198.73 506.89 247.19 506.89 344.11 590.82 392.57 674.75 344.11"/>
      <polyline class="cls-26" points="514.48 250.73 347.14 154.12 0 154.12"/>
    </g>
  </g>
</svg>