<?xml version="1.0" encoding="UTF-8"?>
<svg id="_レイヤー_2" data-name="レイヤー 2" xmlns="http://www.w3.org/2000/svg" viewBox="0 0 246.86 213.74">
  <defs>
    <style>
      .cls-1 {
        stroke-width: .64px;
      }

      .cls-1, .cls-2, .cls-3, .cls-4, .cls-5, .cls-6, .cls-7, .cls-8, .cls-9, .cls-10, .cls-11, .cls-12, .cls-13, .cls-14, .cls-15, .cls-16, .cls-17, .cls-18, .cls-19, .cls-20, .cls-21, .cls-22, .cls-23, .cls-24, .cls-25, .cls-26 {
        fill: none;
        stroke: #fff;
        stroke-miterlimit: 10;
      }

      .cls-2 {
        stroke-width: .61px;
      }

      .cls-27 {
        fill: #ff3a3a;
      }

      .cls-27, .cls-28 {
        stroke-width: 0px;
      }

      .cls-3 {
        stroke-width: .62px;
      }

      .cls-4 {
        stroke-width: .61px;
      }

      .cls-5 {
        stroke-width: .63px;
      }

      .cls-6 {
        stroke-width: .62px;
      }

      .cls-7 {
        stroke-width: .62px;
      }

      .cls-8 {
        stroke-width: .64px;
      }

      .cls-9 {
        stroke-width: .63px;
      }

      .cls-10 {
        stroke-width: .63px;
      }

      .cls-28 {
        fill: #89c33f;
      }

      .cls-11 {
        stroke-width: .62px;
      }

      .cls-12 {
        stroke-width: .63px;
      }

      .cls-13 {
        stroke-width: .62px;
      }

      .cls-14 {
        stroke-width: .62px;
      }

      .cls-15 {
        stroke-width: .62px;
      }

      .cls-16 {
        stroke-width: .63px;
      }

      .cls-17 {
        stroke-width: .63px;
      }

      .cls-18 {
        stroke-width: .61px;
      }

      .cls-19 {
        stroke-width: .62px;
      }

      .cls-20 {
        stroke-width: .62px;
      }

      .cls-21 {
        stroke-width: .63px;
      }

      .cls-22 {
        stroke-width: .63px;
      }

      .cls-23 {
        stroke-width: .62px;
      }

      .cls-24 {
        stroke-width: .63px;
      }

      .cls-25 {
        stroke-width: .44px;
      }

      .cls-26 {
        stroke-width: .63px;
      }
    </style>
  </defs>
  <g id="artwork">
    <g>
      <path class="cls-28" d="M130.39,152.74v-10.66h-24.15v37.55h10c1.93,0,3.51,1.58,3.51,3.51v27.1c0,1.93,1.58,3.51,3.51,3.51h17.75v-44.08h11.02v-16.93h-21.63Z"/>
      <path class="cls-28" d="M242.86,49.57c1.93,0,3.51-1.58,3.51-3.51V12.1c0-1.93-1.58-3.51-3.51-3.51h-57.77c-1.93,0-3.51,1.58-3.51,3.51v43.29c0,1.93,1.58,3.51,3.51,3.51h9.18c1.93,0,3.51-1.58,3.51-3.51v-2.31c0-1.93,1.58-3.51,3.51-3.51h41.58Z"/>
      <path class="cls-28" d="M246.86,2.82c0,1.55-1.58,2.82-3.51,2.82h-10.66c-1.93,0-3.51-1.27-3.51-2.82s1.58-2.82,3.51-2.82h10.66c1.93,0,3.51,1.27,3.51,2.82Z"/>
      <path class="cls-28" d="M71.18,185.86h39.52c1.94,0,3.51,1.57,3.51,3.51v20.1c0,1.94-1.57,3.51-3.51,3.51h-39.52c-1.94,0-3.51-1.57-3.51-3.51v-20.1c0-1.94,1.57-3.51,3.51-3.51Z"/>
      <path class="cls-28" d="M33.44,167.26c0-1.93-1.58-3.51-3.51-3.51h-10.87c-1.93,0-3.51-1.58-3.51-3.51v-15.1c0-1.93,1.58-3.51,3.51-3.51h38.36c1.93,0,3.51,1.58,3.51,3.51v64.32c0,1.93-1.58,3.51-3.51,3.51h-20.51c-1.93,0-3.51-1.58-3.51-3.51l.02-42.21Z"/>
      <path class="cls-28" d="M227.65,64.79h-43.29c-1.93,0-3.51,1.58-3.51,3.51v40.88h10.26v23.7h40.04v-64.58c0-1.93-1.58-3.51-3.51-3.51Z"/>
      <path class="cls-28" d="M194.17,197.28h9.92c1.93,0,3.51-1.59,3.51-3.52v-10.21c0-1.94,1.58-3.52,3.51-3.52h1.57c1.93,0,3.51,1.58,3.51,3.52v15.63c0,1.94,1.58,3.52,3.51,3.52h7.95c1.93,0,3.51-1.58,3.51-3.52v-66.37h-50.43v36.95h10.39v29.17c.6-.98,1.75-1.65,3.06-1.65Z"/>
      <path class="cls-28" d="M180.73,169.54v-36.44l10.38-.23v-23.7h-10.26v2.66c0,1.93-1.58,3.51-3.51,3.51l-21.74.02c-1.93,0-3.51-1.58-3.51-3.5v-3.82c0-1.93-1.58-3.51-3.51-3.51h-4.42c-1.93,0-3.51,1.58-3.51,3.51v30.54c0,1.93-1.58,3.51-3.51,3.51h-6.76v10.66h21.9v-19.41h13.32v51.24h25.51v-15.02h-10.39Z"/>
      <path class="cls-28" d="M151.96,210.24v-3.05c0-1.93,1.58-3.51,3.51-3.51h31.69c1.93,0,3.51-1.44,3.51-3.19,0-.56.16-1.09.45-1.55v-14.37h-25.51v-51.24h-13.61v36.34h-10.99v44.08h7.45c1.93,0,3.51-1.58,3.51-3.51Z"/>
      <path class="cls-28" d="M71.47,142.08c-1.93,0-3.51,1.58-3.51,3.51v30.54c0,1.93,1.58,3.51,3.51,3.51h34.76v-37.55h-34.76Z"/>
      <g>
        <line class="cls-14" x1="180.82" y1="77.57" x2="231.14" y2="77.57"/>
        <line class="cls-14" x1="180.82" y1="95.4" x2="231.14" y2="95.4"/>
        <line class="cls-11" x1="191.05" y1="115.49" x2="231.2" y2="115.49"/>
        <line class="cls-15" x1="206.01" y1="78.02" x2="206.01" y2="115.48"/>
        <line class="cls-26" x1="215.94" y1="132.89" x2="215.94" y2="181.52"/>
        <line class="cls-3" x1="180.77" y1="152.51" x2="215.72" y2="152.51"/>
        <line class="cls-9" x1="198.56" y1="132.75" x2="198.56" y2="152.29"/>
        <line class="cls-25" x1="180.9" y1="169.59" x2="216.17" y2="169.59"/>
        <line class="cls-23" x1="215.72" y1="159.06" x2="231.05" y2="159.06"/>
        <line class="cls-25" x1="175.06" y1="184.57" x2="207.58" y2="184.57"/>
        <line class="cls-25" x1="141" y1="133.11" x2="231.2" y2="133.11"/>
        <line class="cls-8" x1="169.44" y1="115.41" x2="169.44" y2="133.05"/>
        <line class="cls-13" x1="152.51" y1="113.69" x2="152.51" y2="133.33"/>
        <polyline class="cls-1" points="165.43 133.58 165.43 184.57 175.14 184.52 175.14 169.43 180.79 169.43"/>
        <line class="cls-13" x1="151.92" y1="169.67" x2="151.92" y2="206.24"/>
        <line class="cls-24" x1="152.06" y1="184.2" x2="165.6" y2="184.2"/>
        <line class="cls-21" x1="169.67" y1="184.52" x2="169.67" y2="203.66"/>
        <line class="cls-16" x1="119.33" y1="142.09" x2="119.33" y2="181"/>
        <polyline class="cls-12" points="140.77 152.83 140.77 169.44 119.56 169.44"/>
        <polyline class="cls-4" points="130.17 169.71 130.17 203.12 141 203.12"/>
        <line class="cls-22" x1="130.01" y1="194.27" x2="119.83" y2="194.27"/>
        <line class="cls-20" x1="80.05" y1="142.17" x2="80.05" y2="179.6"/>
        <line class="cls-20" x1="93.14" y1="142.17" x2="93.14" y2="179.6"/>
        <line class="cls-5" x1="80.22" y1="159.51" x2="106.22" y2="159.51"/>
        <g>
          <line class="cls-7" x1="90.66" y1="185.92" x2="90.66" y2="213.01"/>
          <line class="cls-6" x1="67.68" y1="199.24" x2="114.21" y2="199.24"/>
        </g>
      </g>
      <g>
        <line class="cls-19" x1="32.65" y1="141.72" x2="32.65" y2="164.7"/>
        <line class="cls-2" x1="24.29" y1="141.72" x2="24.29" y2="163.8"/>
        <line class="cls-13" x1="32.97" y1="159.51" x2="60.97" y2="159.51"/>
        <line class="cls-18" x1="33.49" y1="194.05" x2="60.94" y2="194.05"/>
        <line class="cls-17" x1="45.51" y1="159.74" x2="45.51" y2="194.22"/>
        <line class="cls-13" x1="45.74" y1="177.12" x2="60.86" y2="177.12"/>
      </g>
      <line class="cls-20" x1="106.16" y1="142.37" x2="106.16" y2="179.63"/>
      <polyline class="cls-10" points="151.82 152.74 151.82 169.67 141 169.67 141 203.53 141 213.74"/>
      <polyline class="cls-10" points="130.39 142.08 130.39 152.74 152.02 152.74 152.02 133.33"/>
      <polyline class="cls-25" points="180.85 109.17 191.11 109.17 191.11 132.87"/>
      <line class="cls-25" x1="180.73" y1="133.1" x2="180.73" y2="169.76"/>
      <path class="cls-25" d="M191.11,169.76c-.24-.08,0,29.19,0,29.19"/>
      <path class="cls-27" d="M45.26,6.83C20.26,6.83,0,27.09,0,52.09s45.26,94.21,45.26,94.21c0,0,45.26-69.22,45.26-94.21S70.26,6.83,45.26,6.83ZM45.26,81.45c-16.21,0-29.36-13.14-29.36-29.36s13.14-29.36,29.36-29.36,29.36,13.14,29.36,29.36-13.14,29.36-29.36,29.36Z"/>
      <path class="cls-27" d="M45.37,179.29c-5.42,0-9.81,4.39-9.81,9.81s9.81,20.41,9.81,20.41c0,0,9.81-15,9.81-20.41s-4.39-9.81-9.81-9.81ZM45.37,195.46c-3.51,0-6.36-2.85-6.36-6.36s2.85-6.36,6.36-6.36,6.36,2.85,6.36,6.36-2.85,6.36-6.36,6.36Z"/>
      <path class="cls-27" d="M38.25,156.84c-4.25,0-7.7,3.45-7.7,7.7s7.7,16.02,7.7,16.02c0,0,7.7-11.77,7.7-16.02s-3.45-7.7-7.7-7.7ZM38.25,169.53c-2.76,0-4.99-2.24-4.99-4.99s2.24-4.99,4.99-4.99,4.99,2.24,4.99,4.99-2.24,4.99-4.99,4.99Z"/>
      <path class="cls-27" d="M52.93,154.07c-2.72,0-4.93,2.21-4.93,4.93s4.93,10.26,4.93,10.26c0,0,4.93-7.54,4.93-10.26s-2.21-4.93-4.93-4.93ZM52.93,162.19c-1.77,0-3.2-1.43-3.2-3.2s1.43-3.2,3.2-3.2,3.2,1.43,3.2,3.2-1.43,3.2-3.2,3.2Z"/>
      <path class="cls-27" d="M28.31,134.21c-2.41,0-4.37,1.95-4.37,4.37s4.37,9.09,4.37,9.09c0,0,4.37-6.68,4.37-9.09s-1.95-4.37-4.37-4.37ZM28.31,141.41c-1.56,0-2.83-1.27-2.83-2.83s1.27-2.83,2.83-2.83,2.83,1.27,2.83,2.83-1.27,2.83-2.83,2.83Z"/>
      <path class="cls-27" d="M20.07,144.52c-2.72,0-4.93,2.21-4.93,4.93s4.93,10.26,4.93,10.26c0,0,4.93-7.54,4.93-10.26s-2.21-4.93-4.93-4.93ZM20.07,152.64c-1.77,0-3.2-1.43-3.2-3.2s1.43-3.2,3.2-3.2,3.2,1.43,3.2,3.2-1.43,3.2-3.2,3.2Z"/>
      <path class="cls-27" d="M57.53,173.9c-2.24,0-4.06,1.82-4.06,4.06s4.06,8.46,4.06,8.46c0,0,4.06-6.21,4.06-8.46s-1.82-4.06-4.06-4.06ZM57.53,180.6c-1.46,0-2.63-1.18-2.63-2.63s1.18-2.63,2.63-2.63,2.63,1.18,2.63,2.63-1.18,2.63-2.63,2.63Z"/>
      <path class="cls-27" d="M208.29,25.37c-1.52,0-2.74,1.23-2.74,2.74s2.74,5.71,2.74,5.71c0,0,2.74-4.2,2.74-5.71s-1.23-2.74-2.74-2.74ZM208.29,29.9c-.98,0-1.78-.8-1.78-1.78s.8-1.78,1.78-1.78,1.78.8,1.78,1.78-.8,1.78-1.78,1.78Z"/>
      <path class="cls-27" d="M119.56,160.99c-1.52,0-2.74,1.23-2.74,2.74s2.74,5.71,2.74,5.71c0,0,2.74-4.2,2.74-5.71s-1.23-2.74-2.74-2.74ZM119.56,165.51c-.98,0-1.78-.8-1.78-1.78s.8-1.78,1.78-1.78,1.78.8,1.78,1.78-.8,1.78-1.78,1.78Z"/>
      <path class="cls-27" d="M93.14,151.06c-1.52,0-2.74,1.23-2.74,2.74s2.74,5.71,2.74,5.71c0,0,2.74-4.2,2.74-5.71s-1.23-2.74-2.74-2.74ZM93.14,155.58c-.98,0-1.78-.8-1.78-1.78s.8-1.78,1.78-1.78,1.78.8,1.78,1.78-.8,1.78-1.78,1.78Z"/>
      <path class="cls-27" d="M216.17,161.13c-1.52,0-2.74,1.23-2.74,2.74s2.74,5.71,2.74,5.71c0,0,2.74-4.2,2.74-5.71s-1.23-2.74-2.74-2.74ZM216.17,165.66c-.98,0-1.78-.8-1.78-1.78s.8-1.78,1.78-1.78,1.78.8,1.78,1.78-.8,1.78-1.78,1.78Z"/>
      <path class="cls-27" d="M205.55,98.32c-1.52,0-2.74,1.23-2.74,2.74s2.74,5.71,2.74,5.71c0,0,2.74-4.2,2.74-5.71s-1.23-2.74-2.74-2.74ZM205.55,102.85c-.98,0-1.78-.8-1.78-1.78s.8-1.78,1.78-1.78,1.78.8,1.78,1.78-.8,1.78-1.78,1.78Z"/>
    </g>
  </g>
</svg>