<?xml version="1.0" encoding="UTF-8"?>
<svg id="_レイヤー_2" data-name="レイヤー 2" xmlns="http://www.w3.org/2000/svg" viewBox="0 0 118.57 118.57">
  <defs>
    <style>
      .cls-1 {
        stroke: #4d4d4d;
        stroke-miterlimit: 10;
        stroke-width: 10px;
      }

      .cls-1, .cls-2 {
        fill: #fff;
      }

      .cls-2, .cls-3 {
        stroke-width: 0px;
      }

      .cls-3 {
        fill: #4d4d4d;
      }
    </style>
  </defs>
  <g id="_レイヤー_1-2" data-name="レイヤー 1">
    <g>
      <circle class="cls-1" cx="59.29" cy="59.29" r="54.29"/>
      <circle class="cls-2" cx="59.29" cy="59.29" r="54.29"/>
      <g id="DGL5GV">
        <g>
          <path class="cls-3" d="M37.21,83.11c-14.62-14.16-13.47-33.15-4.06-45.05,10.17-12.86,27.9-16.41,41.97-8.39,14.14,8.07,20.37,25.29,14.58,40.29-4.68,12.12-19.05,22.57-28.63,20.47v-8.09c-8.05,4.66-15.64,9.05-23.66,13.69,8.12,4.68,15.72,9.07,23.6,13.61.1-.99.21-1.59.22-2.19q.13-6.22,6.26-7.49c17.59-3.63,31.57-18.52,33.65-35.85,2.25-18.75-7.16-36.2-23.84-44.19-16.67-7.99-36.06-4.4-49.04,9.06-12.56,13.03-15.39,32.68-7.02,48.88,2.35,4.54,5.33,8.58,9.28,11.93,2.32-2.32,4.42-4.41,6.7-6.68ZM56.76,40.51c0,5.98-.03,11.7.03,17.43,0,.68.3,1.51.75,1.99,2.85,2.97,5.78,5.86,8.66,8.76,1.28-1.06,2.31-1.91,3.62-3-2.24-2.13-3.99-3.99-5.94-5.61-2.05-1.71-2.84-3.68-2.7-6.38.22-4.33.06-8.68.06-13.18h-4.48ZM61,36.69v-7.71h-4.08v7.71h4.08ZM37.29,60.35v-4.12h-7.51v4.12h7.51ZM88.29,56.25h-7.67v4.01h7.67v-4.01ZM75.76,78.3c.99.9,1.75,1.58,2.16,1.96,1.31-.9,2.43-1.65,3.7-2.52-1.17-1.08-1.91-1.77-2.83-2.62-1.01,1.06-1.87,1.96-3.03,3.18ZM38.5,41.13c1.55-1.06,2.67-1.81,3.93-2.67-1.24-1.09-2-1.76-2.87-2.52-1.07,1.12-1.98,2.08-3.01,3.16.89.93,1.54,1.61,1.95,2.04ZM41.98,78.46c-1.07-1.32-1.86-2.29-2.83-3.48-1,1.05-1.74,1.83-2.44,2.57,1.05,1.24,1.86,2.19,2.78,3.28,1.04-.99,1.78-1.69,2.49-2.37ZM78.67,41.38c1.14-.83,2.02-1.46,3.03-2.19-1.47-1.41-2.37-2.26-3.45-3.3-.87.92-1.61,1.7-2.17,2.29,1.01,1.25,1.79,2.22,2.59,3.2Z"/>
          <path class="cls-3" d="M37.21,83.11c-2.27,2.27-4.37,4.36-6.7,6.68-3.95-3.35-6.93-7.39-9.28-11.93-8.37-16.2-5.54-35.84,7.02-48.88,12.98-13.46,32.37-17.05,49.04-9.06,16.68,7.99,26.09,25.45,23.84,44.19-2.08,17.33-16.06,32.22-33.65,35.85q-6.14,1.27-6.26,7.49c-.01.6-.12,1.2-.22,2.19-7.88-4.55-15.48-8.93-23.6-13.61,8.03-4.65,15.61-9.03,23.66-13.69v8.09c9.58,2.1,23.95-8.34,28.63-20.47,5.8-15-.43-32.23-14.58-40.29-14.07-8.02-31.8-4.47-41.97,8.39-9.41,11.9-10.57,30.89,4.06,45.05Z"/>
          <path class="cls-3" d="M56.76,40.51h4.48c0,4.5.16,8.85-.06,13.18-.14,2.7.65,4.67,2.7,6.38,1.95,1.63,3.71,3.48,5.94,5.61-1.31,1.09-2.34,1.94-3.62,3-2.88-2.89-5.81-5.78-8.66-8.76-.46-.48-.75-1.32-.75-1.99-.06-5.73-.03-11.45-.03-17.43Z"/>
          <path class="cls-3" d="M61,36.69h-4.08v-7.71h4.08v7.71Z"/>
          <path class="cls-3" d="M37.29,60.35h-7.51v-4.12h7.51v4.12Z"/>
          <path class="cls-3" d="M88.29,56.25v4.01h-7.67v-4.01h7.67Z"/>
          <path class="cls-3" d="M75.76,78.3c1.16-1.22,2.02-2.13,3.03-3.18.92.85,1.66,1.54,2.83,2.62-1.28.87-2.39,1.63-3.7,2.52-.41-.37-1.17-1.06-2.16-1.96Z"/>
          <path class="cls-3" d="M38.5,41.13c-.41-.43-1.06-1.11-1.95-2.04,1.03-1.08,1.94-2.04,3.01-3.16.86.76,1.63,1.44,2.87,2.52-1.26.86-2.37,1.62-3.93,2.67Z"/>
          <path class="cls-3" d="M41.98,78.46c-.71.68-1.45,1.38-2.49,2.37-.92-1.09-1.73-2.04-2.78-3.28.69-.73,1.44-1.51,2.44-2.57.97,1.19,1.76,2.16,2.83,3.48Z"/>
          <path class="cls-3" d="M78.67,41.38c-.79-.98-1.58-1.95-2.59-3.2.56-.59,1.3-1.37,2.17-2.29,1.09,1.04,1.98,1.89,3.45,3.3-1.01.73-1.89,1.37-3.03,2.19Z"/>
        </g>
      </g>
    </g>
  </g>
</svg>