<?xml version="1.0" encoding="UTF-8"?>
<svg id="_レイヤー_2" data-name="レイヤー 2" xmlns="http://www.w3.org/2000/svg" viewBox="0 0 207.26 153.21">
  <defs>
    <style>
      .cls-1 {
        fill: #fff;
        stroke-width: 3.69px;
      }

      .cls-1, .cls-2 {
        stroke: #4d4d4d;
        stroke-linecap: round;
        stroke-linejoin: round;
      }

      .cls-2 {
        fill: #ffff80;
        stroke-width: 2.34px;
      }

      .cls-3 {
        fill: #4d4d4d;
        stroke-width: 0px;
      }
    </style>
  </defs>
  <g id="_レイヤー_1-2" data-name="レイヤー 1">
    <g>
      <polygon class="cls-1" points="63.08 59.52 1.85 59.52 21.73 32.46 82.95 32.46 63.08 59.52"/>
      <polygon class="cls-1" points="124.3 90.14 124.3 28.91 63.08 28.91 63.08 59.52 1.85 59.52 1.85 151.36 63.08 151.36 124.3 151.36 185.53 151.36 185.53 90.14 124.3 90.14"/>
      <polygon class="cls-1" points="185.53 90.14 124.3 90.14 144.18 63.08 205.41 63.08 185.53 90.14"/>
      <polygon class="cls-1" points="185.53 151.36 185.53 90.14 205.41 63.08 205.41 124.3 185.53 151.36"/>
      <polygon class="cls-1" points="124.3 28.91 124.3 90.14 144.18 63.08 144.18 1.85 124.3 28.91"/>
      <polygon class="cls-1" points="124.3 28.91 63.08 28.91 82.95 1.85 144.18 1.85 124.3 28.91"/>
      <path class="cls-3" d="M99.42,71.11v35.78c0,.22-.09.45-.28.69-.19.24-.44.37-.76.37h-6.13c-.32,0-.57-.12-.76-.37-.19-.24-.28-.48-.28-.69v-28.63h-2.95c-.22,0-.45-.09-.69-.28-.24-.18-.37-.44-.37-.76v-6.13c0-.32.12-.57.37-.76.24-.19.47-.28.69-.28h10.12c.32,0,.57.12.76.37s.28.48.28.69Z"/>
      <path class="cls-3" d="M24.6,129.12h18.11c.22,0,.45.09.69.26.24.18.37.43.37.77v6.13c0,.32-.12.57-.37.76-.24.18-.48.28-.69.28h-25.28c-.34,0-.59-.12-.77-.37-.18-.24-.27-.48-.27-.69v-10.04c.1-.42.32-.75.66-.98l18.49-13.02v-4.72h-10.85v4.39c0,.22-.09.45-.27.69-.18.24-.43.37-.77.37h-6.13c-.34,0-.59-.12-.77-.37-.18-.24-.27-.47-.27-.69v-11.56c0-.32.12-.57.37-.76.24-.18.48-.28.69-.28h25.15c.32,0,.57.12.76.37.19.24.28.48.28.69v13.62c0,.17-.04.43-.11.79s-.17.59-.29.69l-18.75,13.27v.38Z"/>
      <path class="cls-3" d="M155.23,115.82h4.16v-6.11h-10.95v4.49c0,.22-.09.45-.28.69-.19.24-.44.37-.76.37h-6.13c-.34,0-.59-.12-.77-.37s-.27-.48-.27-.69v-11.63c0-.22.09-.45.27-.69s.43-.37.77-.37h25.28c.32,0,.57.12.76.37.19.24.28.48.28.69v14.76c0,.2-.3.63-.9,1.3-.6.67-1.06,1.01-1.4,1.02.35,0,.82.29,1.41.87.59.58.88,1.03.88,1.35v16.47c0,.22-.09.45-.28.69-.19.24-.44.37-.76.37h-25.28c-.34,0-.59-.12-.77-.37-.18-.24-.27-.48-.27-.69v-11.35c0-.22.09-.45.27-.69.18-.24.43-.37.77-.37h6.13c.32,0,.57.12.76.37.18.24.28.48.28.69v4.21h10.95v-7.19h-9.49c-.22,0-.45-.09-.69-.28-.24-.18-.37-.44-.37-.76v-6.13c0-.34.12-.59.37-.77.24-.18.48-.26.69-.26h5.32Z"/>
      <polygon class="cls-2" points="103.34 49.87 93.69 40.23 84.04 49.87 74.4 40.23 74.4 59.52 93.69 59.52 112.98 59.52 112.98 40.23 103.34 49.87"/>
    </g>
  </g>
</svg>