<?xml version="1.0" encoding="UTF-8"?>
<svg id="_レイヤー_2" data-name=" レイヤー 2" xmlns="http://www.w3.org/2000/svg" version="1.1" xmlns:xlink="http://www.w3.org/1999/xlink" viewBox="0 0 118.6 118.6">
  <defs>
    <style>
      .cls-1 {
        fill: none;
      }

      .cls-1, .cls-2, .cls-3 {
        stroke-width: 0px;
      }

      .cls-4 {
        clip-path: url(#clippath);
      }

      .cls-2 {
        fill: #fff;
      }

      .cls-3 {
        fill: #4d4d4d;
      }
    </style>
    <clipPath id="clippath">
      <circle class="cls-1" cx="59.3" cy="59.3" r="54.3"/>
    </clipPath>
  </defs>
  <g id="_レイヤー_1-2" data-name=" レイヤー 1-2">
    <g>
      <g>
        <circle class="cls-2" cx="59.3" cy="59.3" r="54.3"/>
        <path class="cls-3" d="M59.3,118.6C26.6,118.6,0,92,0,59.3S26.6,0,59.3,0s59.3,26.6,59.3,59.3-26.6,59.3-59.3,59.3ZM59.3,10c-27.2,0-49.3,22.1-49.3,49.3s22.1,49.3,49.3,49.3,49.3-22.1,49.3-49.3S86.5,10,59.3,10Z"/>
      </g>
      <g>
        <circle class="cls-2" cx="59.3" cy="59.3" r="54.3"/>
        <g class="cls-4">
          <g id="bKwctP">
            <g>
              <path class="cls-2" d="M68.8,40.8c-2.4,1.5-3.7,2.4-4.9,3.1-9,5-18,10-27.1,15-10.7,6-11.4,8.1-6.7,19.5.2.6.5,1.2.8,1.8,12.3,25.4,18,52.3,18.2,80.5,0,3.9,1.2,7.4,5.7,7.3,4-.1,5.3-3.5,5.5-7.1.2-4.5.5-9,.5-13.5-.2-11.3.7-22.8-1.2-33.8-2.4-13.8-6.9-27.3-10.8-40.9-.8-2.9-.4-4.6,1.9-6.4,6.4-5.1,12.6-10.4,18.9-15.5.8-.7,1.9-1,4.1-2.1.2,4,.9,7.3.5,10.3-1.1,7.7-2.8,15.3-3.8,23.1-.2,1.7,1.4,3.6,2.2,5.4,1.5-1.2,3.6-2.1,4.4-3.7,1.5-2.7,2.3-5.9,3.4-8.9l1.3.3c.4,2.8.6,5.6,1.4,8.2.6,1.7,2.2,3.1,3.3,4.6,1-1.4,2.7-2.8,2.9-4.3.7-5.6.3-11.3,1.2-16.9,1.7-10.1-.4-19.3-5.6-27.7-1.6-2.7-5-5.6-7.9-6-6.7-.9-13.6-.4-20.4-.2-1.1,0-2.2,1.6-3.3,2.4,1,.9,1.8,2.4,2.9,2.7,3.6,1,7.4,1.6,12.4,2.6h0ZM37.5,45c0-6.2-5-11.3-11-11.1-5.9.2-10.6,5.1-10.6,11,0,6.5,4.5,11.2,10.8,11.2,6.3,0,10.9-4.6,10.9-11.1ZM70.2,13.6c-5.2-.1-9,3.6-9,8.5,0,4.7,4.4,9,9,8.9,4.4,0,8.3-4.2,8.4-8.9,0-5-3.3-8.5-8.3-8.6Z"/>
              <path class="cls-3" d="M68.8,40.8c-5-1-8.8-1.6-12.4-2.6-1.1-.3-2-1.8-2.9-2.7,1.1-.8,2.2-2.4,3.3-2.4,6.8-.2,13.7-.7,20.4.2,2.9.4,6.3,3.3,7.9,6,5.1,8.4,7.2,17.7,5.6,27.7-.9,5.5-.6,11.3-1.2,16.9-.2,1.5-1.9,2.9-2.9,4.3-1.2-1.5-2.8-2.9-3.3-4.6-.9-2.6-1-5.5-1.4-8.2l-1.3-.3c-1.1,3-1.9,6.1-3.4,8.9-.9,1.6-2.9,2.5-4.4,3.7-.8-1.8-2.4-3.7-2.2-5.4,1-7.7,2.8-15.4,3.8-23.1.4-3.1-.3-6.3-.5-10.3-2.2,1.1-3.3,1.5-4.1,2.1-6.3,5.2-12.5,10.5-18.9,15.5-2.3,1.8-2.7,3.5-1.9,6.4,3.9,13.6,8.5,27.1,10.8,40.9,1.9,11,1,22.5,1.2,33.8,0,4.5-.3,9-.5,13.5-.2,3.6-1.4,7-5.5,7.1-4.4.1-5.7-3.4-5.7-7.3-.2-28.2-5.9-55.1-18.2-80.5-.3-.6-.6-1.2-.8-1.8-4.7-11.4-4-13.5,6.7-19.5,9-5,18-10,27.1-15,1.3-.7,2.5-1.5,4.9-3.1h0Z"/>
              <path class="cls-3" d="M37.5,45c0,6.5-4.5,11.1-10.9,11.1-6.2,0-10.8-4.8-10.8-11.2,0-5.9,4.8-10.8,10.6-11,6-.2,11,4.9,11,11.1Z"/>
              <path class="cls-3" d="M70.2,13.6c5,.1,8.3,3.6,8.3,8.6,0,4.6-3.9,8.8-8.4,8.9-4.6,0-9-4.2-9-8.9,0-5,3.9-8.6,9-8.5Z"/>
            </g>
          </g>
        </g>
      </g>
    </g>
  </g>
</svg>