<?xml version="1.0" encoding="UTF-8"?>
<svg id="_レイヤー_2" data-name="レイヤー 2" xmlns="http://www.w3.org/2000/svg" viewBox="0 0 118.57 118.57">
  <defs>
    <style>
      .cls-1 {
        stroke: #4d4d4d;
        stroke-miterlimit: 10;
        stroke-width: 10px;
      }

      .cls-1, .cls-2 {
        fill: #fff;
      }

      .cls-2, .cls-3 {
        stroke-width: 0px;
      }

      .cls-3 {
        fill: #4d4d4d;
      }
    </style>
  </defs>
  <g id="_レイヤー_1-2" data-name="レイヤー 1">
    <g>
      <circle class="cls-1" cx="59.29" cy="59.29" r="54.29"/>
      <circle class="cls-2" cx="59.29" cy="59.29" r="54.29"/>
      <g id="_6XMQsB" data-name="6XMQsB">
        <g>
          <path class="cls-3" d="M29.1,75.7c.17,0,.35-.01.52-.02.82,2.65,1.58,5.32,2.46,7.94.67,2,2.2,3,4.28,3.07,1.91.06,3.55-.77,4.17-2.55.45-1.3.46-2.88.23-4.26-.96-5.77-2.05-11.51-3.18-17.25-.27-1.38,0-2.36,1.03-3.33,2.14-1.99,4.22-4.05,6.24-6.17,1.87-1.96,1.86-4.44.11-6.14-1.76-1.71-4.2-1.67-6.17.14-.97.89-1.85,1.89-2.84,2.77-3.85,3.43-9.56,3.36-13.31-.14-.86-.81-1.67-1.68-2.54-2.48-2.06-1.91-4.55-2.02-6.34-.3-1.74,1.67-1.7,4.31.24,6.33,1.88,1.96,3.81,3.88,5.83,5.69,1.22,1.1,1.64,2.19,1.31,3.85-1.17,5.8-2.19,11.64-3.27,17.46-.61,3.27.62,5.65,3.26,6.3,2.74.68,4.97-.88,5.95-4.16.67-2.25,1.35-4.49,2.02-6.74ZM92.39,75.63c.17,0,.34.02.51.02.84,2.71,1.6,5.46,2.54,8.13.78,2.21,3.2,3.37,5.42,2.81,2.23-.56,3.74-2.71,3.49-5.03-.08-.76-.25-1.51-.39-2.26-1.03-5.54-2.04-11.09-3.12-16.63-.28-1.45.05-2.49,1.16-3.51,2.2-2.02,4.34-4.13,6.38-6.32,1.66-1.78,1.53-4.16-.09-5.84-1.51-1.57-4.12-1.71-5.87-.21-1.06.9-1.97,1.97-3,2.91-3.97,3.64-9.68,3.62-13.62-.04-.76-.71-1.45-1.5-2.22-2.21-2.29-2.14-4.84-2.28-6.62-.37-1.83,1.96-1.59,4.44.65,6.62,1.9,1.84,3.74,3.75,5.7,5.51,1.13,1.01,1.39,2.08,1.11,3.53-1.16,5.94-2.24,11.9-3.34,17.85-.57,3.08.76,5.43,3.38,6.01,2.65.59,4.85-.86,5.76-3.83.73-2.37,1.43-4.76,2.14-7.14ZM72.03,59.77c-1.03.26-1.77.28-2.3.63-.5.33-1.19,1.15-1.07,1.47.22.56,1.03,1.31,1.53,1.27,2.7-.2,5.4-.56,8.07-1,1.25-.21,1.57-1.22.95-2.23-1.42-2.31-2.91-4.59-4.52-6.77-.3-.41-1.31-.28-2-.4-.1.68-.4,1.41-.26,2.04.14.67.7,1.25,1.07,1.86-.23.15-.3.23-.34.21-.46-.15-.92-.3-1.37-.47-9.71-3.83-19.08-3.08-28.06,2.18-.64.37-1.36,1.63-1.17,2.18.46,1.34,1.59.88,2.6.35,1.6-.84,3.19-1.76,4.88-2.37,7.32-2.63,14.54-2.47,21.99,1.05ZM48.28,82.17c.83.24,1.35.31,1.8.53,5.01,2.34,10.29,2.76,15.71,2.28,4.61-.41,8.79-2.07,12.67-4.46.59-.36.69-1.5,1.02-2.29-.79-.08-1.59-.2-2.38-.22-.24,0-.49.24-.73.38-5.06,3.06-10.59,4.12-16.42,3.78-3.39-.2-6.63-1.06-10.03-2.86.97-.2,1.6-.17,2.02-.45.6-.41,1.03-1.06,1.53-1.61-.69-.42-1.4-1.21-2.07-1.18-2.35.12-4.7.49-7.04.82-1.26.18-2.34.83-1.55,2.22,1.37,2.41,2.94,4.72,4.56,6.97.27.38,1.53.59,1.74.35.41-.46.6-1.33.48-1.96-.13-.7-.71-1.31-1.31-2.31ZM38.41,39.77c-.04-5.19-4.2-9.33-9.32-9.28-5.18.05-9.29,4.16-9.31,9.31-.02,5.21,4.24,9.35,9.54,9.26,5.03-.08,9.12-4.27,9.08-9.29ZM101.68,39.83c0-5.19-4.12-9.35-9.25-9.34-5.25.02-9.27,4.01-9.32,9.24-.05,5.16,4.05,9.3,9.24,9.33,5.16.03,9.33-4.1,9.33-9.24Z"/>
          <path class="cls-3" d="M29.1,75.7c-.67,2.25-1.35,4.49-2.02,6.74-.98,3.28-3.21,4.84-5.95,4.16-2.64-.65-3.87-3.02-3.26-6.3,1.08-5.82,2.1-11.65,3.27-17.46.34-1.66-.09-2.75-1.31-3.85-2.02-1.81-3.95-3.73-5.83-5.69-1.94-2.02-1.99-4.66-.24-6.33,1.79-1.72,4.28-1.61,6.34.3.87.8,1.67,1.67,2.54,2.48,3.75,3.51,9.46,3.58,13.31.14.99-.88,1.87-1.88,2.84-2.77,1.97-1.81,4.41-1.85,6.17-.14,1.75,1.7,1.76,4.19-.11,6.14-2.02,2.11-4.1,4.18-6.24,6.17-1.04.97-1.31,1.95-1.03,3.33,1.13,5.74,2.22,11.48,3.18,17.25.23,1.38.22,2.96-.23,4.26-.62,1.78-2.25,2.61-4.17,2.55-2.07-.07-3.61-1.07-4.28-3.07-.88-2.63-1.65-5.29-2.46-7.94-.17,0-.35.01-.52.02Z"/>
          <path class="cls-3" d="M92.39,75.63c-.71,2.38-1.41,4.77-2.14,7.14-.92,2.97-3.11,4.42-5.76,3.83-2.62-.58-3.95-2.93-3.38-6.01,1.1-5.95,2.18-11.91,3.34-17.85.28-1.45.02-2.51-1.11-3.53-1.96-1.77-3.81-3.67-5.7-5.51-2.24-2.18-2.49-4.66-.65-6.62,1.78-1.9,4.33-1.77,6.62.37.76.71,1.45,1.5,2.22,2.21,3.94,3.66,9.64,3.68,13.62.04,1.03-.94,1.94-2.01,3-2.91,1.76-1.49,4.37-1.36,5.87.21,1.62,1.68,1.74,4.06.09,5.84-2.04,2.19-4.18,4.29-6.38,6.32-1.11,1.02-1.44,2.06-1.16,3.51,1.08,5.53,2.09,11.08,3.12,16.63.14.75.31,1.5.39,2.26.25,2.32-1.26,4.47-3.49,5.03-2.23.56-4.65-.6-5.42-2.81-.94-2.68-1.7-5.42-2.54-8.13-.17,0-.34-.02-.51-.02Z"/>
          <path class="cls-3" d="M72.03,59.77c-7.45-3.52-14.67-3.68-21.99-1.05-1.69.61-3.28,1.53-4.88,2.37-1.01.53-2.13.99-2.6-.35-.19-.55.53-1.81,1.17-2.18,8.98-5.27,18.35-6.01,28.06-2.18.45.18.91.33,1.37.47.04.01.11-.06.34-.21-.37-.61-.92-1.19-1.07-1.86-.14-.63.16-1.36.26-2.04.68.12,1.7,0,2,.4,1.61,2.18,3.1,4.46,4.52,6.77.62,1.01.3,2.02-.95,2.23-2.68.44-5.37.8-8.07,1-.51.04-1.32-.71-1.53-1.27-.12-.32.57-1.15,1.07-1.47.53-.35,1.27-.37,2.3-.63Z"/>
          <path class="cls-3" d="M48.28,82.17c.59,1,1.18,1.61,1.31,2.31.12.62-.08,1.5-.48,1.96-.21.24-1.47.03-1.74-.35-1.62-2.26-3.2-4.56-4.56-6.97-.79-1.39.3-2.04,1.55-2.22,2.34-.34,4.69-.71,7.04-.82.67-.03,1.38.76,2.07,1.18-.5.55-.94,1.19-1.53,1.61-.41.29-1.05.25-2.02.45,3.4,1.8,6.64,2.66,10.03,2.86,5.83.34,11.36-.72,16.42-3.78.24-.14.49-.39.73-.38.8.02,1.59.14,2.38.22-.33.78-.43,1.93-1.02,2.29-3.88,2.39-8.06,4.05-12.67,4.46-5.42.48-10.7.06-15.71-2.28-.45-.21-.97-.29-1.8-.53Z"/>
          <path class="cls-3" d="M38.41,39.77c.04,5.03-4.05,9.21-9.08,9.29-5.3.08-9.56-4.05-9.54-9.26.01-5.15,4.12-9.27,9.31-9.31,5.12-.05,9.28,4.1,9.32,9.28Z"/>
          <path class="cls-3" d="M101.68,39.83c0,5.14-4.17,9.27-9.33,9.24-5.18-.03-9.28-4.18-9.24-9.33.05-5.23,4.08-9.23,9.32-9.24,5.13-.02,9.25,4.15,9.25,9.34Z"/>
        </g>
      </g>
    </g>
  </g>
</svg>