<?xml version="1.0" encoding="UTF-8"?>
<svg id="_レイヤー_2" data-name="レイヤー 2" xmlns="http://www.w3.org/2000/svg" viewBox="0 0 795.57 555.66">
  <defs>
    <style>
      .cls-1 {
        fill: #202020;
      }

      .cls-1, .cls-2, .cls-3, .cls-4, .cls-5, .cls-6, .cls-7, .cls-8, .cls-9, .cls-10, .cls-11 {
        stroke-width: 0px;
      }

      .cls-2 {
        fill: #606060;
      }

      .cls-3 {
        fill: #000;
      }

      .cls-4 {
        fill: rgba(41, 199, 223, .55);
      }

      .cls-5 {
        fill: #9f9f9f;
      }

      .cls-12 {
        fill: none;
        stroke: #000;
        stroke-miterlimit: 10;
      }

      .cls-6 {
        fill: #dfdfdf;
      }

      .cls-7 {
        fill: #bfbfbf;
      }

      .cls-13 {
        opacity: .4;
      }

      .cls-8 {
        fill: #404040;
      }

      .cls-9 {
        fill: gray;
      }

      .cls-10 {
        fill: #fff;
      }

      .cls-11 {
        fill: #4d4d4d;
      }
    </style>
  </defs>
  <g id="_レイヤー_1-2" data-name="レイヤー 1">
    <g>
      <g>
        <path class="cls-11" d="M3.55,118.55h2.26v8.66c0,.93-.04,1.93-.13,3s-.24,2.16-.47,3.25c-.22,1.1-.56,2.14-1,3.14s-1.03,1.9-1.76,2.7c-.11-.16-.28-.34-.49-.53-.22-.19-.44-.38-.67-.55-.23-.18-.44-.31-.61-.41.67-.75,1.2-1.56,1.58-2.44.38-.87.67-1.78.85-2.71s.3-1.87.36-2.81c.06-.94.08-1.83.08-2.68v-8.64ZM4.75,129.81h15.36v2.16H4.75v-2.16ZM4.85,118.55h15.19v2.16H4.85v-2.16ZM4.85,124.12h15.19v2.11H4.85v-2.11ZM11.04,119.39h2.28v19.54h-2.28v-19.54ZM19.18,118.55h2.26v17.76c0,.66-.09,1.16-.26,1.52-.18.36-.48.64-.91.83-.43.18-1.02.28-1.75.32-.74.04-1.67.05-2.81.04-.03-.29-.12-.65-.28-1.08-.15-.43-.31-.8-.47-1.1.51.03,1.02.05,1.51.06.5,0,.93,0,1.31,0,.38,0,.64-.01.78-.01.24,0,.4-.04.49-.13s.13-.24.13-.47v-17.74Z"/>
        <path class="cls-11" d="M23.97,133.26c.64-.24,1.39-.53,2.24-.88s1.77-.72,2.74-1.12c.97-.4,1.93-.8,2.89-1.2l.5,2.02c-1.28.61-2.58,1.22-3.89,1.82-1.31.61-2.51,1.15-3.6,1.63l-.89-2.28ZM24.21,122.58h7.78v2.14h-7.78v-2.14ZM27.19,117.19h2.14v15.74h-2.14v-15.74ZM31,126.69l12.72-5.38.84,1.92-12.7,5.47-.86-2.02ZM33.5,119.18h2.18v15.84c0,.45.04.79.12,1.02s.25.39.52.47.65.12,1.16.12h5.3c.45,0,.79-.09,1.02-.26s.4-.5.52-.96c.11-.46.19-1.13.24-2.02.26.18.58.34.97.5s.74.27,1.04.34c-.1,1.12-.26,2-.5,2.64-.24.64-.6,1.1-1.09,1.38-.49.28-1.17.42-2.05.42h-5.59c-.98,0-1.75-.1-2.32-.31-.57-.21-.96-.58-1.19-1.12-.22-.54-.34-1.28-.34-2.24v-15.82ZM38.37,116.9h2.14v16.8h-2.14v-16.8ZM43.29,121.58h-.19l.46-.36.41-.31,1.61.6-.1.38c0,1.14,0,2.19-.01,3.16,0,.97-.02,1.83-.04,2.59-.02.76-.04,1.4-.06,1.92-.02.52-.06.9-.11,1.14-.05.51-.18.9-.4,1.18s-.51.46-.88.58c-.32.13-.7.2-1.15.23-.45.02-.85.04-1.2.04-.03-.3-.1-.64-.19-1.02-.1-.38-.2-.68-.31-.92.24.02.5.02.79.02h.6c.18,0,.32-.04.42-.11.1-.07.18-.23.23-.47.03-.14.06-.44.07-.89.02-.45.03-1.04.04-1.76,0-.73.01-1.6.01-2.6v-3.38Z"/>
        <path class="cls-11" d="M47.76,125.22l1.27-1.68c.46.18.94.38,1.44.62.5.24.96.5,1.4.77.44.27.8.54,1.07.79l-1.3,1.82c-.27-.24-.62-.5-1.06-.79s-.9-.57-1.39-.84c-.5-.27-.98-.5-1.44-.7ZM48.21,137.7c.34-.62.69-1.36,1.07-2.21s.76-1.75,1.14-2.7c.38-.95.74-1.88,1.06-2.8l1.82,1.2c-.29.83-.6,1.7-.94,2.59s-.68,1.78-1.04,2.64-.71,1.68-1.04,2.45l-2.06-1.18ZM48.77,118.77l1.27-1.63c.45.19.92.42,1.4.68.49.26.95.54,1.38.83.43.29.78.57,1.06.84l-1.37,1.82c-.24-.27-.57-.56-1-.88-.42-.31-.88-.62-1.36-.91-.48-.3-.94-.55-1.39-.76ZM55.25,133.67l2.09.58c-.4.91-.9,1.82-1.51,2.74-.61.91-1.22,1.67-1.85,2.28-.13-.13-.3-.27-.53-.42-.22-.15-.45-.3-.67-.46-.22-.15-.42-.27-.6-.35.62-.54,1.21-1.21,1.75-1.99.54-.78.98-1.58,1.32-2.38ZM54.41,117.9h7.13v15.38h-7.13v-15.38ZM56.35,119.9v2.54h3.17v-2.54h-3.17ZM56.35,124.29v2.59h3.17v-2.59h-3.17ZM56.35,128.73v2.59h3.17v-2.59h-3.17ZM58.58,134.49l1.7-.96c.32.38.65.8,1,1.25.34.45.66.89.96,1.32.3.43.53.82.71,1.15l-1.8,1.1c-.16-.35-.38-.75-.67-1.2-.29-.45-.6-.9-.92-1.37-.33-.46-.65-.9-.97-1.3ZM63.09,119.37h1.97v13.82h-1.97v-13.82ZM67.17,116.9h2.06v19.58c0,.64-.07,1.13-.22,1.46s-.41.6-.79.79c-.37.18-.86.29-1.49.35s-1.42.08-2.4.08c-.03-.3-.11-.66-.24-1.08-.13-.42-.27-.78-.43-1.1.67.02,1.28.03,1.84.04.55,0,.92,0,1.12-.01.21,0,.35-.04.43-.11s.12-.2.12-.4v-19.61Z"/>
        <path class="cls-11" d="M71.78,136.89h21.86v1.7h-21.86v-1.7ZM71.86,124.43h21.7v1.66h-21.7v-1.66ZM73.85,134.2h17.74v1.51h-17.74v-1.51ZM74.45,127.02h16.66v6.07h-16.66v-6.07ZM74.88,117.64h15.55v5.88h-15.55v-5.88ZM76.58,128.32v1.13h12.26v-1.13h-12.26ZM76.58,130.67v1.13h12.26v-1.13h-12.26ZM77.06,118.89v1.1h11.09v-1.1h-11.09ZM77.06,121.17v1.13h11.09v-1.13h-11.09ZM81.55,127.46h2.21v10.32h-2.21v-10.32Z"/>
        <path class="cls-11" d="M95.37,126.06h12.43v2.06h-12.43v-2.06ZM95.94,119.39h11.54v1.99h-11.54v-1.99ZM96.88,130.02h9.7v9.07h-2.21v-7.1h-5.38v7.2h-2.11v-9.17ZM97.38,122.15l1.9-.41c.26.58.48,1.21.67,1.91.19.7.32,1.3.38,1.81l-1.99.46c-.03-.51-.14-1.12-.32-1.82-.18-.7-.4-1.35-.64-1.94ZM97.67,135.88h7.7v1.99h-7.7v-1.99ZM100.6,117.02h2.21v3.62h-2.21v-3.62ZM104.08,121.62l2.16.48c-.26.69-.52,1.38-.78,2.08-.26.7-.52,1.29-.78,1.79l-1.8-.46c.16-.35.31-.76.46-1.21s.28-.92.42-1.4c.14-.48.24-.9.32-1.27ZM108.66,118.29h7.13v2.14h-4.9v18.74h-2.23v-20.88ZM115.19,118.29h.43l.36-.07,1.68,1.03c-.46,1.15-.97,2.38-1.52,3.67-.55,1.3-1.09,2.47-1.62,3.53.75.74,1.32,1.44,1.72,2.11s.66,1.31.82,1.92c.15.61.23,1.19.23,1.75,0,.8-.1,1.48-.29,2.04-.19.56-.51.99-.96,1.29-.43.29-.97.48-1.61.58-.29.03-.61.05-.96.05h-1.06c-.02-.32-.07-.7-.17-1.13-.1-.43-.24-.81-.43-1.13.34.03.64.05.92.06.28,0,.52,0,.73-.01.19-.02.37-.04.53-.08.16-.04.31-.09.46-.16.24-.16.4-.39.49-.7.09-.3.13-.67.13-1.1,0-.71-.2-1.5-.59-2.38-.39-.88-1.14-1.82-2.24-2.81.27-.61.55-1.26.83-1.97s.56-1.41.83-2.11.52-1.37.73-2c.22-.63.4-1.17.56-1.62v-.77Z"/>
        <path class="cls-11" d="M120.06,117.95h2.23v21.22h-2.23v-21.22ZM121.14,121.55h6.38v1.66h-6.38v-1.66ZM121.33,117.95h7.58v9.02h-7.58v-1.85h5.45v-5.3h-5.45v-1.87ZM138.95,117.95v1.87h-5.88v5.33h5.88v1.87h-8.04v-9.07h8.04ZM132.21,121.55h6.48v1.66h-6.48v-1.66ZM137.75,117.95h2.28v18.31c0,.7-.09,1.24-.26,1.62-.18.38-.5.66-.96.85-.46.19-1.08.31-1.85.35s-1.71.06-2.83.06c-.03-.21-.09-.45-.18-.73-.09-.28-.19-.57-.3-.86-.11-.3-.22-.54-.34-.73.53.02,1.05.03,1.57.04.52,0,.98.01,1.38.01h.84c.24-.02.41-.07.5-.16.1-.09.14-.24.14-.47v-18.29Z"/>
        <path class="cls-11" d="M142.68,137.15v-1.61c1.65-1.62,3.06-3.05,4.24-4.31,1.18-1.26,2.08-2.39,2.7-3.41.62-1.02.94-1.97.94-2.87,0-.64-.11-1.19-.32-1.66-.22-.46-.54-.82-.98-1.08-.44-.26-1-.38-1.67-.38s-1.32.2-1.9.59c-.58.39-1.1.85-1.58,1.38l-1.56-1.54c.75-.83,1.55-1.48,2.39-1.95.84-.46,1.84-.7,3.01-.7,1.07,0,2.01.22,2.81.65.8.43,1.42,1.04,1.86,1.81.44.78.66,1.68.66,2.72s-.29,2.1-.88,3.17c-.58,1.07-1.37,2.18-2.36,3.34-.99,1.15-2.1,2.37-3.34,3.65.46-.05.96-.09,1.48-.13.52-.04,1-.06,1.43-.06h4.51v2.38h-11.42Z"/>
        <path class="cls-11" d="M161.75,137.49c-.93,0-1.75-.11-2.46-.34-.71-.22-1.34-.52-1.88-.9s-1.02-.78-1.42-1.21l1.34-1.78c.53.51,1.13.96,1.8,1.34.67.38,1.46.58,2.38.58.67,0,1.26-.11,1.75-.34.5-.22.88-.54,1.16-.96.28-.42.42-.91.42-1.49,0-.64-.16-1.19-.47-1.64s-.85-.81-1.61-1.07c-.76-.26-1.8-.38-3.13-.38v-2.06c1.17,0,2.08-.13,2.75-.4.66-.26,1.14-.62,1.44-1.06s.44-.93.44-1.48c0-.77-.24-1.37-.72-1.81s-1.14-.66-1.99-.66c-.67,0-1.3.16-1.88.47-.58.31-1.13.72-1.64,1.21l-1.44-1.73c.7-.62,1.47-1.14,2.3-1.55.83-.41,1.75-.61,2.76-.61s1.99.18,2.81.53c.82.35,1.46.86,1.92,1.53.46.66.7,1.47.7,2.41,0,.99-.28,1.82-.83,2.48-.55.66-1.29,1.17-2.22,1.52v.12c.67.16,1.28.43,1.84.82.55.38.99.87,1.31,1.45.32.58.48,1.27.48,2.05,0,1.04-.27,1.93-.8,2.66-.54.74-1.25,1.3-2.15,1.69-.9.39-1.88.59-2.95.59Z"/>
        <path class="cls-11" d="M176.04,137.49c-1.1,0-2.09-.2-2.95-.61-.86-.41-1.55-.97-2.05-1.68-.5-.71-.76-1.52-.76-2.44,0-.74.15-1.39.46-1.96.3-.57.7-1.07,1.18-1.5s.98-.78,1.51-1.06v-.1c-.64-.46-1.19-1.02-1.66-1.68s-.7-1.43-.7-2.33.22-1.71.66-2.39c.44-.68,1.04-1.2,1.8-1.57.76-.37,1.63-.55,2.6-.55,1.02,0,1.9.2,2.64.59.74.39,1.31.93,1.72,1.62.41.69.61,1.49.61,2.4,0,.59-.12,1.14-.36,1.66-.24.51-.54.97-.89,1.37-.35.4-.71.74-1.08,1.01v.1c.53.3,1.02.66,1.48,1.06.46.4.82.88,1.09,1.43.27.55.41,1.21.41,1.98,0,.86-.24,1.65-.71,2.35-.47.7-1.14,1.26-1.99,1.68s-1.86.62-3.01.62ZM176.12,135.47c.59,0,1.12-.11,1.57-.34.46-.22.81-.54,1.07-.95.26-.41.38-.89.38-1.45,0-.5-.11-.92-.34-1.28-.22-.36-.54-.68-.94-.95s-.86-.52-1.38-.76c-.52-.23-1.08-.46-1.69-.68-.61.4-1.1.89-1.49,1.46-.38.58-.58,1.22-.58,1.94,0,.59.15,1.11.44,1.56.3.45.7.8,1.21,1.06.51.26,1.09.38,1.73.38ZM177.22,127.58c.51-.48.9-.98,1.16-1.51s.4-1.08.4-1.66c0-.53-.1-1-.31-1.42-.21-.42-.52-.74-.92-.98-.41-.24-.9-.36-1.48-.36-.72,0-1.32.22-1.8.66-.48.44-.72,1.05-.72,1.84,0,.62.17,1.14.52,1.55s.79.76,1.34,1.06c.55.3,1.16.57,1.81.83Z"/>
      </g>
      <g>
        <path class="cls-11" d="M2.33,98.5v-17.69h2.78v17.69h-2.78Z"/>
        <path class="cls-11" d="M16.31,98.83c-1.1,0-2.13-.2-3.08-.61-.95-.41-1.79-1-2.51-1.79s-1.28-1.74-1.68-2.87-.6-2.42-.6-3.88.21-2.73.62-3.86c.42-1.14.98-2.1,1.7-2.89.72-.79,1.57-1.4,2.54-1.81s2.02-.62,3.14-.62,2.06.22,2.9.67c.85.45,1.54.97,2.09,1.56l-1.49,1.78c-.46-.46-.98-.84-1.55-1.14s-1.2-.44-1.91-.44c-1.02,0-1.92.27-2.7.82-.78.54-1.38,1.31-1.82,2.3-.44.99-.66,2.18-.66,3.58s.21,2.6.62,3.61c.42,1.02,1.01,1.8,1.78,2.34s1.67.82,2.71.82c.8,0,1.52-.17,2.15-.52.63-.34,1.21-.8,1.74-1.38l1.51,1.78c-.72.83-1.53,1.47-2.44,1.91-.9.44-1.93.66-3.08.66Z"/>
        <path class="cls-11" d="M28.4,98.5v-15.34h-5.16v-2.35h13.18v2.35h-5.18v15.34h-2.83Z"/>
        <path class="cls-11" d="M38.31,91.95h21.96v1.78h-21.96v-1.78ZM38.79,79.99h20.98v1.82h-20.98v-1.82ZM40.45,95.23h16.22v1.68h-16.22v-1.68ZM40.64,88.97h17.11v9h-2.28v-7.42h-14.83v-1.58ZM41.29,83.07h16.08v4.46h-16.08v-4.46ZM43.47,84.56v1.46h11.59v-1.46h-11.59ZM48.01,78.24h2.3v19.94c0,.61-.09,1.06-.26,1.37-.18.3-.47.54-.89.7-.42.14-.95.24-1.61.28-.66.04-1.5.06-2.52.06-.05-.27-.15-.58-.3-.94-.15-.35-.31-.66-.47-.91.45.02.89.03,1.32.04.43,0,.82,0,1.15,0,.34,0,.57-.01.7-.01.22-.02.38-.06.46-.14s.12-.23.12-.46v-19.92Z"/>
        <path class="cls-11" d="M71.31,93.79l1.82.84c-.75.82-1.66,1.58-2.74,2.3s-2.22,1.36-3.46,1.91c-1.23.55-2.45,1-3.65,1.33-.11-.21-.25-.43-.42-.66-.17-.23-.34-.46-.53-.68-.18-.22-.36-.42-.54-.58,1.2-.25,2.4-.61,3.6-1.06,1.2-.45,2.32-.96,3.36-1.55s1.89-1.2,2.54-1.86ZM62.47,93h21.19v1.9h-21.19v-1.9ZM62.57,82.37h21.02v1.9h-21.02v-1.9ZM63.53,86.55h19.18v1.82h-19.18v-1.82ZM64.39,79.08l1.94-.67c.4.53.78,1.12,1.15,1.78.37.66.64,1.23.82,1.73l-2.06.74c-.14-.48-.39-1.06-.74-1.73-.35-.67-.72-1.29-1.1-1.85ZM64.73,89.83h16.82v1.68h-16.82v-1.68ZM67.49,84.36l2.18-.38c.26.37.5.78.72,1.25s.38.86.48,1.2l-2.28.43c-.08-.34-.22-.74-.43-1.21s-.43-.9-.67-1.28ZM69.72,78.22h2.14v5.04h-2.14v-5.04ZM71.88,87.44h2.23v13.08h-2.23v-13.08ZM74.69,93.75c.51.5,1.12.98,1.84,1.44.71.46,1.49.89,2.34,1.28.85.39,1.73.73,2.65,1.02s1.84.52,2.77.7c-.16.16-.34.36-.54.6s-.38.49-.55.74-.31.49-.42.7c-.94-.26-1.88-.57-2.81-.95-.93-.38-1.82-.81-2.68-1.31s-1.66-1.04-2.4-1.62c-.74-.58-1.4-1.21-1.96-1.88l1.75-.72ZM74.23,78.22h2.16v4.92h-2.16v-4.92ZM76.59,83.57l2.38.58c-.3.56-.61,1.1-.91,1.62-.3.52-.59.96-.86,1.33l-1.9-.55c.22-.43.46-.93.71-1.49.25-.56.44-1.06.59-1.49ZM79.78,78.48l2.35.6c-.37.64-.75,1.28-1.14,1.92-.39.64-.75,1.19-1.07,1.66l-1.85-.58c.21-.34.42-.72.62-1.14.21-.42.41-.85.6-1.28.19-.43.35-.82.48-1.18Z"/>
        <path class="cls-11" d="M85.45,87.41h12.43v2.06h-12.43v-2.06ZM86.03,80.74h11.54v1.99h-11.54v-1.99ZM86.97,91.37h9.7v9.07h-2.21v-7.1h-5.38v7.2h-2.11v-9.17ZM87.47,83.5l1.9-.41c.26.58.48,1.21.67,1.91.19.7.32,1.3.38,1.81l-1.99.46c-.03-.51-.14-1.12-.32-1.82-.18-.7-.4-1.35-.64-1.94ZM87.76,97.23h7.7v1.99h-7.7v-1.99ZM90.69,78.36h2.21v3.62h-2.21v-3.62ZM94.17,82.97l2.16.48c-.26.69-.52,1.38-.78,2.08-.26.7-.52,1.29-.78,1.79l-1.8-.46c.16-.35.31-.76.46-1.21s.28-.92.42-1.4c.14-.48.24-.9.32-1.27ZM98.75,79.64h7.13v2.14h-4.9v18.74h-2.23v-20.88ZM105.28,79.64h.43l.36-.07,1.68,1.03c-.46,1.15-.97,2.38-1.52,3.67-.55,1.3-1.09,2.47-1.62,3.53.75.74,1.32,1.44,1.72,2.11s.66,1.31.82,1.92c.15.61.23,1.19.23,1.75,0,.8-.1,1.48-.29,2.04-.19.56-.51.99-.96,1.3-.43.29-.97.48-1.61.58-.29.03-.61.05-.96.05h-1.06c-.02-.32-.07-.7-.17-1.13-.1-.43-.24-.81-.43-1.13.34.03.64.05.92.06.28,0,.52,0,.73-.01.19-.02.37-.04.53-.08.16-.04.31-.09.46-.16.24-.16.4-.39.49-.7s.13-.67.13-1.1c0-.7-.2-1.5-.59-2.38s-1.14-1.82-2.24-2.81c.27-.61.55-1.26.83-1.97s.56-1.41.83-2.11.52-1.37.73-2c.22-.63.4-1.17.56-1.62v-.77Z"/>
        <path class="cls-11" d="M110.15,79.3h2.23v21.22h-2.23v-21.22ZM111.23,82.9h6.38v1.66h-6.38v-1.66ZM111.42,79.3h7.58v9.02h-7.58v-1.85h5.45v-5.3h-5.45v-1.87ZM129.04,79.3v1.87h-5.88v5.33h5.88v1.87h-8.04v-9.07h8.04ZM122.29,82.9h6.48v1.66h-6.48v-1.66ZM127.84,79.3h2.28v18.31c0,.7-.09,1.24-.26,1.62-.18.38-.5.66-.96.85-.46.19-1.08.31-1.85.35-.77.04-1.71.06-2.83.06-.03-.21-.09-.45-.18-.73-.09-.28-.19-.57-.3-.86-.11-.3-.22-.54-.34-.73.53.02,1.05.03,1.57.04.52,0,.98.01,1.38.01h.84c.24-.02.41-.07.5-.16.1-.09.14-.24.14-.47v-18.29Z"/>
        <path class="cls-11" d="M132.77,98.5v-1.61c1.65-1.62,3.06-3.05,4.24-4.31,1.18-1.26,2.08-2.39,2.7-3.41.62-1.02.94-1.97.94-2.87,0-.64-.11-1.19-.32-1.66s-.54-.82-.98-1.08c-.44-.26-1-.38-1.67-.38s-1.32.2-1.9.59c-.58.39-1.1.85-1.58,1.38l-1.56-1.54c.75-.83,1.55-1.48,2.39-1.94.84-.46,1.84-.7,3.01-.7,1.07,0,2.01.22,2.81.65.8.43,1.42,1.04,1.86,1.81.44.78.66,1.68.66,2.72s-.29,2.1-.88,3.17c-.58,1.07-1.37,2.18-2.36,3.34-.99,1.15-2.1,2.37-3.34,3.65.46-.05.96-.09,1.48-.13.52-.04,1-.06,1.43-.06h4.51v2.38h-11.42Z"/>
        <path class="cls-11" d="M152.25,98.5v-11.04c0-.48.02-1.06.05-1.74.03-.68.06-1.25.07-1.72h-.1c-.22.42-.45.84-.68,1.26-.23.42-.48.86-.73,1.31l-3.46,5.23h9.67v2.16h-12.48v-1.87l7.03-10.78h3.22v17.18h-2.59Z"/>
        <path class="cls-11" d="M165.1,98.83c-1.1,0-2.09-.2-2.95-.61-.86-.41-1.55-.97-2.05-1.68-.5-.71-.76-1.52-.76-2.44,0-.74.15-1.39.46-1.96.3-.57.7-1.07,1.18-1.5s.98-.78,1.51-1.06v-.1c-.64-.46-1.19-1.02-1.66-1.68s-.7-1.43-.7-2.33.22-1.71.66-2.39c.44-.68,1.04-1.2,1.8-1.57.76-.37,1.63-.55,2.6-.55,1.02,0,1.9.2,2.64.59.74.39,1.31.93,1.72,1.62.41.69.61,1.49.61,2.4,0,.59-.12,1.14-.36,1.66-.24.51-.54.97-.89,1.37-.35.4-.71.74-1.08,1.01v.1c.53.3,1.02.66,1.48,1.06s.82.88,1.09,1.43c.27.55.41,1.21.41,1.98,0,.86-.24,1.65-.71,2.35-.47.7-1.14,1.26-1.99,1.68s-1.86.62-3.01.62ZM165.18,96.82c.59,0,1.12-.11,1.57-.34s.81-.54,1.07-.95c.26-.41.38-.89.38-1.45,0-.5-.11-.92-.34-1.28-.22-.36-.54-.68-.94-.95-.4-.27-.86-.52-1.38-.76-.52-.23-1.08-.46-1.69-.68-.61.4-1.1.89-1.49,1.46-.38.58-.58,1.22-.58,1.94,0,.59.15,1.11.44,1.56.3.45.7.8,1.21,1.06.51.26,1.09.38,1.73.38ZM166.28,88.92c.51-.48.9-.98,1.16-1.51.26-.53.4-1.08.4-1.66,0-.53-.1-1-.31-1.42-.21-.42-.52-.74-.92-.98-.41-.24-.9-.36-1.48-.36-.72,0-1.32.22-1.8.66-.48.44-.72,1.05-.72,1.84,0,.62.17,1.14.52,1.55s.79.76,1.34,1.06c.55.3,1.16.57,1.81.83Z"/>
      </g>
      <g>
        <path class="cls-11" d="M12.62,42.06l2.5.91c-.9,1.65-1.98,3.26-3.25,4.85s-2.7,3.04-4.27,4.38c-1.58,1.34-3.28,2.48-5.1,3.44-.11-.19-.26-.41-.46-.66s-.38-.5-.56-.74c-.18-.25-.36-.45-.54-.61,1.31-.64,2.55-1.39,3.72-2.26,1.17-.86,2.26-1.8,3.28-2.82s1.92-2.08,2.71-3.18,1.45-2.21,1.98-3.31ZM1.61,41.24h20.78v2.3H1.61v-2.3ZM10.75,47.29l2.47-2.45v16.97h-2.47v-14.52ZM13.3,48.69l1.73-1.46c.69.46,1.41.97,2.17,1.51s1.52,1.11,2.27,1.69,1.45,1.16,2.1,1.71c.65.56,1.19,1.07,1.62,1.54l-1.9,1.75c-.4-.48-.91-1-1.54-1.57s-1.3-1.16-2.03-1.76c-.73-.61-1.47-1.2-2.23-1.79-.76-.58-1.49-1.12-2.2-1.62Z"/>
        <path class="cls-11" d="M24.63,59.1c.98-.1,2.11-.2,3.4-.3,1.29-.1,2.65-.22,4.09-.36s2.87-.27,4.3-.4l.02,1.73c-1.36.16-2.73.32-4.12.47-1.38.15-2.71.3-3.97.43-1.26.13-2.41.25-3.43.35l-.29-1.92ZM24.68,43.69h12v1.7h-12v-1.7ZM35.26,39.78l1.06,1.7c-.98.21-2.08.39-3.32.55-1.24.16-2.52.28-3.84.37-1.32.09-2.58.16-3.78.2-.03-.24-.1-.52-.2-.84-.1-.32-.21-.59-.32-.82.9-.05,1.82-.11,2.77-.19.95-.08,1.89-.17,2.82-.26.93-.1,1.8-.2,2.63-.32.82-.12,1.56-.25,2.2-.4ZM25.28,55.19h11.06v1.68h-11.06v-1.68ZM25.35,46.64h10.92v7.32h-10.92v-7.32ZM27.2,48.13v1.46h7.15v-1.46h-7.15ZM27.2,51.01v1.46h7.15v-1.46h-7.15ZM29.69,41.72h2.09v17.47h-2.09v-17.47ZM39.22,39.93h2.18c-.02,1.97-.04,3.86-.08,5.66-.04,1.81-.14,3.52-.31,5.12-.17,1.61-.46,3.11-.86,4.5-.41,1.39-.97,2.66-1.68,3.79-.71,1.13-1.64,2.13-2.77,3-.11-.18-.26-.37-.44-.59s-.38-.42-.59-.61c-.21-.19-.41-.34-.6-.46,1.07-.78,1.94-1.69,2.59-2.72.66-1.03,1.16-2.18,1.52-3.46.36-1.27.61-2.66.74-4.15.14-1.5.22-3.08.25-4.76.03-1.68.05-3.46.05-5.33ZM36.58,45.11h8.5v2.11h-8.5v-2.11ZM44.19,45.11h2.18c0,.29,0,.51-.01.67,0,.16-.01.3-.01.41-.06,2.5-.13,4.61-.19,6.35s-.14,3.16-.23,4.26c-.09,1.1-.2,1.96-.34,2.57-.14.61-.3,1.05-.49,1.32-.24.35-.5.6-.78.74-.28.14-.6.24-.97.29-.35.06-.79.1-1.32.1s-1.07-.02-1.63-.05c-.03-.3-.11-.66-.23-1.08-.12-.42-.27-.78-.44-1.08.56.05,1.07.08,1.54.08.46,0,.82.01,1.06.01.19,0,.35-.02.48-.07.13-.05.25-.15.36-.31.14-.18.27-.54.37-1.1.1-.56.19-1.37.26-2.44.07-1.06.14-2.43.22-4.09.07-1.66.13-3.69.18-6.07v-.5Z"/>
        <path class="cls-11" d="M49.88,46.55h2.18v3.84c0,.82-.03,1.72-.1,2.7-.06.98-.19,1.99-.37,3.02-.18,1.03-.45,2.04-.79,3.02-.34.98-.79,1.88-1.33,2.68-.11-.13-.28-.29-.5-.48s-.45-.38-.67-.55c-.22-.18-.42-.3-.58-.38.48-.75.87-1.56,1.16-2.42.3-.86.52-1.74.66-2.64.14-.9.24-1.77.28-2.62.04-.85.06-1.63.06-2.35v-3.82ZM49.62,41.56h19.06v1.97h-19.06v-1.97ZM51.13,46.55h18.77v1.99h-18.77v-1.99ZM55.43,48.97l2.04.48c-.38,1.06-.87,2.07-1.45,3.04s-1.2,1.8-1.86,2.48c-.13-.11-.3-.24-.52-.38-.22-.14-.44-.29-.67-.42-.23-.14-.44-.24-.61-.32.66-.59,1.26-1.32,1.8-2.2s.97-1.76,1.27-2.68ZM52.67,59.46h17.09v1.92h-17.09v-1.92ZM53.34,43.77l2.04-.55c.3.48.58,1.01.83,1.6.25.58.41,1.08.49,1.5l-2.21.6c-.06-.42-.2-.92-.42-1.51-.22-.59-.46-1.13-.73-1.63ZM54.66,55.04h13.06v1.78h-13.06v-1.78ZM55.09,51.04h13.27v1.78h-13.27v-1.78ZM57.95,39.57h2.28v3.17h-2.28v-3.17ZM59.94,49.04h2.23v11.59h-2.23v-11.59ZM62.96,43.02l2.57.58c-.34.61-.68,1.21-1.02,1.8-.34.59-.65,1.1-.92,1.54l-1.87-.58c.16-.32.32-.68.47-1.07.15-.39.3-.79.44-1.19s.26-.76.34-1.08Z"/>
        <path class="cls-11" d="M71.63,48.76h12.43v2.06h-12.43v-2.06ZM72.21,42.09h11.54v1.99h-11.54v-1.99ZM73.14,52.72h9.7v9.07h-2.21v-7.1h-5.38v7.2h-2.11v-9.17ZM73.65,44.85l1.9-.41c.26.58.48,1.21.67,1.91.19.7.32,1.3.38,1.81l-1.99.46c-.03-.51-.14-1.12-.32-1.82-.18-.7-.4-1.35-.64-1.94ZM73.93,58.57h7.7v1.99h-7.7v-1.99ZM76.86,39.71h2.21v3.62h-2.21v-3.62ZM80.34,44.32l2.16.48c-.26.69-.52,1.38-.78,2.08-.26.7-.52,1.29-.78,1.79l-1.8-.46c.16-.35.31-.76.46-1.21s.28-.92.42-1.4c.14-.48.24-.9.32-1.27ZM84.93,40.98h7.13v2.14h-4.9v18.74h-2.23v-20.88ZM91.45,40.98h.43l.36-.07,1.68,1.03c-.46,1.15-.97,2.38-1.52,3.67-.55,1.3-1.09,2.47-1.62,3.53.75.74,1.32,1.44,1.72,2.11.39.67.66,1.31.82,1.92.15.61.23,1.19.23,1.75,0,.8-.1,1.48-.29,2.04-.19.56-.51.99-.96,1.3-.43.29-.97.48-1.61.58-.29.03-.61.05-.96.05h-1.06c-.02-.32-.07-.7-.17-1.13-.1-.43-.24-.81-.43-1.13.34.03.64.05.92.06s.52,0,.73-.01c.19-.02.37-.04.53-.08.16-.04.31-.09.46-.16.24-.16.4-.39.49-.7s.13-.67.13-1.1c0-.7-.2-1.5-.59-2.38-.39-.88-1.14-1.82-2.24-2.81.27-.61.55-1.26.83-1.97s.56-1.41.83-2.11c.27-.7.52-1.37.73-2,.22-.63.4-1.17.56-1.62v-.77Z"/>
        <path class="cls-11" d="M96.33,40.64h2.23v21.22h-2.23v-21.22ZM97.41,44.24h6.38v1.66h-6.38v-1.66ZM97.6,40.64h7.58v9.03h-7.58v-1.85h5.45v-5.3h-5.45v-1.87ZM115.21,40.64v1.87h-5.88v5.33h5.88v1.87h-8.04v-9.07h8.04ZM108.47,44.24h6.48v1.66h-6.48v-1.66ZM114.01,40.64h2.28v18.31c0,.71-.09,1.24-.26,1.62-.18.38-.5.66-.96.85-.46.19-1.08.31-1.85.35-.77.04-1.71.06-2.83.06-.03-.21-.09-.45-.18-.73-.09-.28-.19-.57-.3-.86s-.22-.54-.34-.73c.53.02,1.05.03,1.57.04.52,0,.98.01,1.38.01h.84c.24-.02.41-.07.5-.16.1-.09.14-.24.14-.47v-18.29Z"/>
        <path class="cls-11" d="M124.46,60.18c-.93,0-1.75-.11-2.46-.34-.71-.22-1.34-.52-1.88-.9s-1.02-.78-1.42-1.21l1.34-1.78c.53.51,1.13.96,1.8,1.34.67.38,1.46.58,2.38.58.67,0,1.26-.11,1.75-.34.5-.22.88-.54,1.16-.96.28-.42.42-.91.42-1.49,0-.64-.16-1.19-.47-1.64s-.85-.81-1.61-1.07c-.76-.26-1.8-.38-3.13-.38v-2.06c1.17,0,2.08-.13,2.75-.4s1.14-.62,1.44-1.06.44-.93.44-1.48c0-.77-.24-1.37-.72-1.81s-1.14-.66-1.99-.66c-.67,0-1.3.16-1.88.47s-1.13.72-1.64,1.21l-1.44-1.73c.7-.62,1.47-1.14,2.3-1.55.83-.41,1.75-.61,2.76-.61s1.99.18,2.81.53,1.46.86,1.92,1.52c.46.66.7,1.47.7,2.41,0,.99-.28,1.82-.83,2.48-.55.66-1.29,1.17-2.22,1.52v.12c.67.16,1.28.43,1.84.82.55.38.99.87,1.31,1.45.32.58.48,1.27.48,2.05,0,1.04-.27,1.93-.8,2.66-.54.74-1.25,1.3-2.15,1.69-.9.39-1.88.59-2.95.59Z"/>
        <path class="cls-11" d="M132.54,59.85v-1.61c1.65-1.62,3.06-3.05,4.24-4.31s2.08-2.39,2.7-3.41.94-1.97.94-2.87c0-.64-.11-1.19-.32-1.66s-.54-.82-.98-1.08c-.44-.25-1-.38-1.67-.38s-1.32.2-1.9.59c-.58.39-1.1.85-1.58,1.38l-1.56-1.54c.75-.83,1.55-1.48,2.39-1.94.84-.46,1.84-.7,3.01-.7,1.07,0,2.01.22,2.81.65.8.43,1.42,1.04,1.86,1.81.44.78.66,1.68.66,2.72s-.29,2.1-.88,3.17c-.58,1.07-1.37,2.18-2.36,3.34-.99,1.15-2.1,2.37-3.34,3.65.46-.05.96-.09,1.48-.13.52-.04,1-.06,1.43-.06h4.51v2.38h-11.42Z"/>
        <path class="cls-11" d="M146.85,59.85v-2.28h3.89v-11.81h-3.17v-1.75c.83-.16,1.56-.35,2.17-.56.62-.22,1.18-.48,1.69-.78h2.09v14.9h3.43v2.28h-10.1Z"/>
      </g>
      <g>
        <path class="cls-11" d="M6.1,3.07c.34.03.67.06,1.01.07s.7.02,1.08.02c.21,0,.54,0,1-.02s.98-.04,1.57-.06c.59-.02,1.19-.05,1.8-.08.61-.03,1.16-.07,1.67-.11.5-.04.89-.08,1.16-.11.34-.03.63-.07.88-.12.25-.05.44-.1.59-.14l1.51,1.75c-.19.13-.45.3-.77.5-.32.21-.58.4-.77.58-.35.29-.75.61-1.19.97-.44.36-.9.74-1.37,1.13-.47.39-.94.78-1.42,1.16-.47.38-.93.76-1.37,1.12s-.84.68-1.21.97c1.15-.13,2.36-.24,3.64-.34s2.52-.18,3.76-.24c1.23-.06,2.38-.1,3.46-.1l.02,2.26c-1.17-.06-2.3-.09-3.4-.08-1.1,0-2.01.06-2.75.16-.56.08-1.1.25-1.62.5s-.99.57-1.4.95c-.42.38-.74.8-.98,1.28-.24.48-.36.98-.36,1.51,0,.72.18,1.3.53,1.75.35.45.83.79,1.43,1.02.6.23,1.26.4,1.98.49.69.08,1.34.12,1.96.11.62,0,1.14-.03,1.57-.06l-.5,2.5c-2.99.11-5.3-.29-6.91-1.2-1.62-.91-2.42-2.32-2.42-4.22,0-.61.12-1.18.36-1.72.24-.54.54-1.02.9-1.45.36-.43.72-.78,1.07-1.03-1.2.1-2.51.23-3.92.41s-2.8.38-4.14.6l-.22-2.28c.66-.06,1.36-.14,2.12-.24.76-.1,1.44-.18,2.05-.24.61-.4,1.26-.88,1.96-1.43.7-.55,1.39-1.12,2.09-1.7.7-.58,1.34-1.13,1.93-1.63.59-.5,1.07-.92,1.44-1.26-.19.02-.48.03-.86.05-.38.02-.81.04-1.28.07-.47.03-.94.06-1.4.07-.46.02-.88.04-1.26.06-.38.02-.67.04-.88.06-.3.02-.63.04-.98.08-.35.04-.69.08-1.01.11l-.12-2.45Z"/>
        <path class="cls-11" d="M36.11,4.77c-.16,1.23-.36,2.53-.61,3.9-.25,1.37-.58,2.72-1,4.07-.48,1.63-1.02,3.01-1.62,4.14-.6,1.13-1.25,1.99-1.96,2.58-.7.59-1.45.89-2.23.89s-1.54-.28-2.23-.83c-.69-.55-1.25-1.33-1.68-2.33s-.65-2.16-.65-3.49.28-2.62.83-3.82c.55-1.2,1.32-2.26,2.29-3.19s2.11-1.66,3.41-2.18c1.3-.53,2.7-.79,4.2-.79s2.74.23,3.9.7c1.16.46,2.15,1.11,2.98,1.93.82.82,1.45,1.79,1.88,2.89s.65,2.28.65,3.53c0,1.68-.35,3.17-1.04,4.48-.7,1.3-1.72,2.37-3.06,3.19-1.34.82-2.99,1.38-4.94,1.67l-1.42-2.26c.42-.05.8-.1,1.15-.16.35-.06.68-.12.98-.18.77-.18,1.5-.45,2.2-.82.7-.37,1.32-.84,1.86-1.4.54-.57.97-1.24,1.28-2s.47-1.63.47-2.59-.15-1.85-.46-2.68-.75-1.54-1.34-2.15c-.59-.61-1.32-1.08-2.18-1.43-.86-.34-1.84-.52-2.93-.52-1.31,0-2.48.23-3.5.7-1.02.46-1.89,1.08-2.6,1.84-.71.76-1.25,1.58-1.62,2.46-.37.88-.55,1.73-.55,2.54,0,.91.11,1.67.34,2.27s.5,1.04.84,1.33c.34.29.68.43,1.03.43s.71-.18,1.08-.54c.37-.36.74-.93,1.12-1.72s.75-1.78,1.12-3c.37-1.15.68-2.38.92-3.68.25-1.3.43-2.58.54-3.83l2.57.05Z"/>
        <path class="cls-11" d="M52.17,1.03l2.09.65c-.51,1.34-1.12,2.68-1.82,4.02-.7,1.34-1.46,2.6-2.27,3.78-.81,1.18-1.64,2.23-2.51,3.14-.08-.18-.19-.41-.34-.7-.14-.29-.3-.58-.46-.88-.16-.29-.31-.52-.46-.68.77-.77,1.51-1.65,2.22-2.64s1.37-2.06,1.98-3.22c.61-1.15,1.13-2.31,1.56-3.48ZM49.67,7.39l2.21-2.21.02.02v17.98h-2.23V7.39ZM52.5,10.68l14.38-5.59.86,1.99-14.35,5.59-.89-1.99ZM55.5,3.45h2.23v15.7c0,.46.05.82.14,1.06s.28.4.56.49c.28.09.69.13,1.24.13h5.59c.5,0,.87-.09,1.12-.28.25-.18.43-.52.54-1.02s.2-1.21.26-2.14c.26.19.58.37.98.54s.76.29,1.08.37c-.1,1.14-.27,2.04-.52,2.71s-.63,1.15-1.15,1.43-1.24.42-2.17.42h-5.88c-1.04,0-1.85-.1-2.44-.31-.58-.21-1-.59-1.24-1.14-.24-.55-.36-1.32-.36-2.29V3.45ZM60.76,1.01h2.14v16.7h-2.14V1.01ZM66.11,5.54h-.22l.46-.36.41-.34,1.56.62-.07.36c0,1.42-.01,2.72-.04,3.89-.02,1.17-.05,2.15-.08,2.94-.03.79-.08,1.36-.14,1.72-.08.58-.24,1.01-.48,1.31-.24.3-.55.51-.94.64-.34.13-.75.2-1.24.23-.49.02-.93.03-1.33.01-.02-.32-.07-.68-.17-1.09-.1-.41-.21-.74-.34-1,.3.02.62.03.96.04s.58.01.72.01c.18,0,.32-.04.44-.12.12-.08.21-.26.28-.53.06-.24.11-.7.13-1.39s.04-1.62.06-2.78c.02-1.17.02-2.55.02-4.15Z"/>
        <path class="cls-11" d="M78.01,21.19v-11.04c0-.48.02-1.06.05-1.74.03-.68.06-1.25.07-1.72h-.1c-.22.42-.45.84-.68,1.26-.23.42-.48.86-.73,1.31l-3.46,5.23h9.67v2.16h-12.48v-1.87l7.03-10.78h3.22v17.18h-2.59Z"/>
        <path class="cls-11" d="M89.33,21.53c-.93,0-1.75-.11-2.46-.34-.71-.22-1.34-.52-1.88-.9-.54-.38-1.02-.78-1.42-1.21l1.34-1.78c.53.51,1.13.96,1.8,1.34s1.46.58,2.38.58c.67,0,1.26-.11,1.75-.34.5-.22.88-.54,1.16-.96.28-.42.42-.91.42-1.49,0-.64-.16-1.19-.47-1.64-.31-.46-.85-.81-1.61-1.07-.76-.26-1.8-.38-3.13-.38v-2.06c1.17,0,2.08-.13,2.75-.4.66-.26,1.14-.62,1.44-1.05.3-.44.44-.93.44-1.48,0-.77-.24-1.37-.72-1.81-.48-.44-1.14-.66-1.99-.66-.67,0-1.3.16-1.88.47-.58.31-1.13.72-1.64,1.21l-1.44-1.73c.7-.62,1.47-1.14,2.3-1.55.83-.41,1.75-.61,2.76-.61s1.99.18,2.81.53c.82.35,1.46.86,1.92,1.52.46.66.7,1.47.7,2.41,0,.99-.28,1.82-.83,2.48-.55.66-1.29,1.17-2.22,1.52v.12c.67.16,1.28.43,1.84.82.55.38.99.87,1.31,1.45.32.58.48,1.27.48,2.05,0,1.04-.27,1.93-.8,2.66-.54.74-1.25,1.3-2.15,1.69-.9.39-1.88.59-2.95.59Z"/>
      </g>
      <g class="cls-13">
        <g>
          <path class="cls-2" d="M517.86,277.71L493.66,1.06c7.33-.64,16.84-1.06,24.2-1.06v277.71Z"/>
          <path class="cls-7" d="M517.86,277.71L350.73,55.92C394.95,22.6,438.5,5.88,493.66,1.06l24.2,276.65Z"/>
          <path class="cls-1" d="M517.86,277.71l-245.2-130.38c20.02-37.65,44.02-65.75,78.07-91.41l167.13,221.79Z"/>
          <path class="cls-5" d="M517.86,277.71l-277.33-14.53c2.14-40.9,12.9-79.69,32.13-115.84l245.2,130.38Z"/>
          <path class="cls-8" d="M517.86,277.71l-90.41,262.58c-120.51-41.5-193.59-149.84-186.92-277.12l277.33,14.53Z"/>
          <path class="cls-9" d="M517.86,277.71l48.22,273.49c-47.88,8.44-92.67,4.92-138.64-10.91l90.41-262.58Z"/>
          <path class="cls-6" d="M517.86,277.71l174.77,215.82c-38.38,31.08-77.91,49.09-126.55,57.67l-48.22-273.49Z"/>
          <path class="cls-3" d="M517.86,277.71V0c153.38,0,277.71,124.34,277.71,277.71,0,87.73-34.76,160.61-102.94,215.82l-174.77-215.82Z"/>
        </g>
      </g>
      <path class="cls-4" d="M517.86,0c-7.36,0-16.87.42-24.2,1.06-55.16,4.83-98.71,21.54-142.93,54.86-34.05,25.66-58.06,53.77-78.07,91.41-19.23,36.16-29.98,74.95-32.13,115.84-6.67,127.28,66.41,235.62,186.92,277.12,45.97,15.83,90.76,19.35,138.64,10.91,48.64-8.58,88.16-26.59,126.55-57.67,68.18-55.21,102.94-128.09,102.94-215.82C795.57,124.34,671.24,0,517.86,0Z"/>
      <g>
        <rect class="cls-10" x="596.26" y="166.55" width="86.76" height="24.71"/>
        <path class="cls-3" d="M682.52,167.05v23.71h-85.76v-23.71h85.76M683.52,166.05h-87.76v25.71h87.76v-25.71h0Z"/>
      </g>
      <g>
        <path class="cls-11" d="M607.3,188.45c-1.01,0-1.89-.12-2.66-.36-.77-.24-1.45-.57-2.04-.97-.59-.41-1.1-.85-1.53-1.31l1.46-1.92c.57.55,1.22,1.04,1.95,1.46s1.59.62,2.57.62c.73,0,1.36-.12,1.9-.36.54-.24.96-.59,1.26-1.04.3-.45.45-.99.45-1.61,0-.69-.17-1.29-.51-1.78s-.92-.88-1.74-1.16c-.82-.28-1.95-.42-3.39-.42v-2.24c1.26,0,2.26-.14,2.98-.43.72-.29,1.24-.67,1.56-1.14s.48-1.01.48-1.6c0-.83-.26-1.49-.78-1.96s-1.24-.71-2.16-.71c-.73,0-1.41.17-2.04.51-.63.34-1.23.78-1.78,1.31l-1.56-1.87c.76-.68,1.59-1.24,2.5-1.68.9-.44,1.9-.66,2.99-.66s2.16.19,3.04.57c.88.38,1.58.93,2.08,1.65.5.72.75,1.59.75,2.61,0,1.07-.3,1.97-.9,2.69-.6.72-1.4,1.27-2.4,1.65v.13c.73.17,1.39.47,1.99.88.6.42,1.07.94,1.42,1.57.35.63.52,1.37.52,2.22,0,1.13-.29,2.09-.87,2.89-.58.8-1.36,1.41-2.33,1.83-.97.42-2.04.64-3.2.64Z"/>
        <path class="cls-11" d="M621.39,188.45c-1.09,0-2.03-.2-2.82-.61-.79-.41-1.45-.89-1.99-1.44l1.64-1.87c.35.43.79.78,1.34,1.04.55.26,1.1.39,1.68.39.83,0,1.59-.24,2.29-.73.69-.48,1.25-1.3,1.66-2.44.42-1.14.62-2.69.62-4.63,0-1.54-.16-2.81-.47-3.81-.31-1-.75-1.73-1.31-2.21-.56-.48-1.23-.71-2.02-.71-.55,0-1.06.15-1.51.44s-.81.72-1.07,1.27c-.26.55-.39,1.23-.39,2.03s.12,1.41.35,1.95.59.94,1.07,1.22c.48.28,1.05.42,1.73.42.55,0,1.16-.19,1.81-.57.65-.38,1.26-1.01,1.83-1.9l.13,2.21c-.36.5-.79.94-1.29,1.3-.49.36-1,.64-1.52.83s-1.02.29-1.51.29c-1.07,0-2.02-.21-2.82-.64-.81-.42-1.44-1.06-1.9-1.91-.46-.85-.69-1.92-.69-3.2s.26-2.3.79-3.2,1.23-1.6,2.09-2.11c.87-.5,1.81-.75,2.83-.75.92,0,1.78.18,2.59.55.81.36,1.51.92,2.11,1.68.6.75,1.07,1.69,1.42,2.82s.52,2.46.52,4c0,1.82-.19,3.38-.58,4.69-.39,1.31-.93,2.38-1.61,3.2-.69.82-1.46,1.43-2.31,1.82-.86.39-1.76.58-2.69.58Z"/>
        <path class="cls-11" d="M633.85,188.45c-.56,0-1.03-.2-1.42-.61s-.58-.91-.58-1.52.19-1.13.58-1.52.86-.58,1.42-.58,1.05.2,1.44.58.58.9.58,1.52-.19,1.11-.58,1.52-.87.61-1.44.61Z"/>
        <path class="cls-11" d="M644.69,188.45c-1.01,0-1.89-.12-2.66-.36-.77-.24-1.45-.57-2.04-.97-.59-.41-1.1-.85-1.53-1.31l1.46-1.92c.57.55,1.22,1.04,1.95,1.46s1.59.62,2.57.62c.73,0,1.36-.12,1.9-.36.54-.24.96-.59,1.26-1.04.3-.45.45-.99.45-1.61,0-.69-.17-1.29-.51-1.78s-.92-.88-1.74-1.16c-.82-.28-1.95-.42-3.39-.42v-2.24c1.26,0,2.26-.14,2.98-.43.72-.29,1.24-.67,1.56-1.14s.48-1.01.48-1.6c0-.83-.26-1.49-.78-1.96s-1.24-.71-2.16-.71c-.73,0-1.41.17-2.04.51-.63.34-1.23.78-1.78,1.31l-1.56-1.87c.76-.68,1.59-1.24,2.5-1.68.9-.44,1.9-.66,2.99-.66s2.16.19,3.04.57c.88.38,1.58.93,2.08,1.65.5.72.75,1.59.75,2.61,0,1.07-.3,1.97-.9,2.69-.6.72-1.4,1.27-2.4,1.65v.13c.73.17,1.39.47,1.99.88.6.42,1.07.94,1.42,1.57.35.63.52,1.37.52,2.22,0,1.13-.29,2.09-.87,2.89-.58.8-1.36,1.41-2.33,1.83-.97.42-2.04.64-3.2.64Z"/>
        <path class="cls-11" d="M657.95,180.67c-.88,0-1.66-.24-2.34-.71-.68-.48-1.2-1.17-1.57-2.08-.37-.91-.56-2.01-.56-3.29s.19-2.37.56-3.26c.37-.89.9-1.57,1.57-2.04.68-.47,1.46-.7,2.34-.7s1.69.23,2.37.7c.68.47,1.2,1.15,1.57,2.04.37.89.56,1.98.56,3.26s-.19,2.38-.56,3.29c-.37.91-.9,1.6-1.57,2.08-.68.48-1.46.71-2.37.71ZM657.95,178.93c.68,0,1.23-.35,1.65-1.07.42-.71.64-1.8.64-3.28s-.21-2.55-.64-3.22c-.42-.68-.98-1.01-1.65-1.01s-1.21.34-1.64,1.01c-.43.68-.65,1.75-.65,3.22s.22,2.57.65,3.28c.43.71.98,1.07,1.64,1.07ZM658.55,188.45l10.48-19.86h1.9l-10.48,19.86h-1.9ZM671.55,188.45c-.88,0-1.66-.24-2.34-.73-.68-.48-1.2-1.18-1.57-2.08-.37-.9-.56-1.99-.56-3.28s.19-2.39.56-3.28.9-1.56,1.57-2.04,1.46-.71,2.34-.71,1.66.24,2.34.71c.68.48,1.2,1.16,1.57,2.04.37.88.56,1.98.56,3.28s-.19,2.38-.56,3.28c-.37.9-.9,1.6-1.57,2.08-.68.49-1.46.73-2.34.73ZM671.55,186.65c.66,0,1.21-.35,1.65-1.04.44-.69.66-1.78.66-3.25s-.22-2.57-.66-3.25c-.44-.68-.99-1.01-1.65-1.01s-1.2.34-1.64,1.01c-.43.68-.65,1.76-.65,3.25s.22,2.56.65,3.25c.43.69.98,1.04,1.64,1.04Z"/>
      </g>
      <g>
        <rect class="cls-10" x="454.97" y="478.85" width="86.76" height="24.71"/>
        <path class="cls-3" d="M541.22,479.35v23.71h-85.76v-23.71h85.76M542.22,478.35h-87.76v25.71h87.76v-25.71h0Z"/>
      </g>
      <g>
        <path class="cls-11" d="M471.47,500.38c.09-1.68.24-3.23.46-4.65.22-1.42.53-2.76.94-4.03.41-1.27.93-2.5,1.56-3.71.63-1.21,1.4-2.43,2.3-3.68h-8.97v-2.55h12.3v1.85c-1.09,1.37-1.98,2.67-2.67,3.91-.69,1.24-1.22,2.5-1.61,3.8-.39,1.29-.68,2.67-.86,4.13s-.31,3.11-.38,4.93h-3.07Z"/>
        <path class="cls-11" d="M485.14,500.75c-.56,0-1.03-.2-1.42-.61s-.58-.91-.58-1.52.19-1.13.58-1.52.86-.58,1.42-.58,1.05.2,1.44.58.58.9.58,1.52-.19,1.11-.58,1.52-.87.61-1.44.61Z"/>
        <path class="cls-11" d="M495.26,500.75c-1.09,0-2.03-.2-2.82-.61-.79-.41-1.45-.89-1.99-1.44l1.64-1.87c.35.43.79.78,1.34,1.04.55.26,1.1.39,1.68.39.83,0,1.59-.24,2.29-.73.69-.48,1.25-1.3,1.66-2.44.42-1.14.62-2.69.62-4.63,0-1.54-.16-2.81-.47-3.81-.31-1-.75-1.73-1.31-2.21-.56-.48-1.23-.71-2.02-.71-.55,0-1.06.15-1.51.44s-.81.72-1.07,1.27c-.26.55-.39,1.23-.39,2.03s.12,1.41.35,1.95.59.94,1.07,1.22c.48.28,1.05.42,1.73.42.55,0,1.16-.19,1.81-.57.65-.38,1.26-1.01,1.83-1.9l.13,2.21c-.36.5-.79.94-1.29,1.3-.49.36-1,.64-1.52.83s-1.02.29-1.51.29c-1.07,0-2.02-.21-2.82-.64-.81-.42-1.44-1.06-1.9-1.91-.46-.85-.69-1.92-.69-3.2s.26-2.3.79-3.2,1.23-1.6,2.09-2.11c.87-.5,1.81-.75,2.83-.75.92,0,1.78.18,2.59.55.81.36,1.51.92,2.11,1.68.6.75,1.07,1.69,1.42,2.82s.52,2.46.52,4c0,1.82-.19,3.38-.58,4.69-.39,1.31-.93,2.38-1.61,3.2-.69.82-1.46,1.43-2.31,1.82-.86.39-1.76.58-2.69.58Z"/>
        <path class="cls-11" d="M509.25,492.97c-.88,0-1.66-.24-2.34-.71-.68-.48-1.2-1.17-1.57-2.08-.37-.91-.56-2.01-.56-3.29s.19-2.37.56-3.26c.37-.89.9-1.57,1.57-2.04.68-.47,1.46-.7,2.34-.7s1.69.23,2.37.7c.68.47,1.2,1.15,1.57,2.04.37.89.56,1.98.56,3.26s-.19,2.38-.56,3.29c-.37.91-.9,1.6-1.57,2.08-.68.48-1.46.71-2.37.71ZM509.25,491.23c.68,0,1.23-.35,1.65-1.07.42-.71.64-1.8.64-3.28s-.21-2.55-.64-3.22c-.42-.68-.98-1.01-1.65-1.01s-1.21.34-1.64,1.01c-.43.68-.65,1.75-.65,3.22s.22,2.57.65,3.28c.43.71.98,1.07,1.64,1.07ZM509.84,500.75l10.48-19.86h1.9l-10.48,19.86h-1.9ZM522.84,500.75c-.88,0-1.66-.24-2.34-.73-.68-.48-1.2-1.18-1.57-2.08-.37-.9-.56-1.99-.56-3.28s.19-2.39.56-3.28.9-1.56,1.57-2.04,1.46-.71,2.34-.71,1.66.24,2.34.71c.68.48,1.2,1.16,1.57,2.04.37.88.56,1.98.56,3.28s-.19,2.38-.56,3.28c-.37.9-.9,1.6-1.57,2.08-.68.49-1.46.73-2.34.73ZM522.84,498.95c.66,0,1.21-.35,1.65-1.04.44-.69.66-1.78.66-3.25s-.22-2.57-.66-3.25c-.44-.68-.99-1.01-1.65-1.01s-1.2.34-1.64,1.01c-.43.68-.65,1.76-.65,3.25s.22,2.56.65,3.25c.43.69.98,1.04,1.64,1.04Z"/>
      </g>
      <g>
        <rect class="cls-10" x="396.52" y="84.66" width="86.76" height="24.71"/>
        <path class="cls-3" d="M482.77,85.16v23.71h-85.76v-23.71h85.76M483.77,84.16h-87.76v25.71h87.76v-25.71h0Z"/>
      </g>
      <g>
        <path class="cls-11" d="M414.24,106.56c-1.09,0-2.03-.2-2.82-.61-.79-.41-1.45-.89-1.99-1.44l1.64-1.87c.35.43.79.78,1.34,1.04.55.26,1.1.39,1.68.39.83,0,1.59-.24,2.29-.73.69-.48,1.25-1.3,1.66-2.44.42-1.14.62-2.69.62-4.63,0-1.54-.16-2.81-.47-3.81-.31-1-.75-1.73-1.31-2.21-.56-.48-1.23-.71-2.02-.71-.55,0-1.06.15-1.51.44s-.81.72-1.07,1.27c-.26.55-.39,1.23-.39,2.03s.12,1.41.35,1.95.59.94,1.07,1.22c.48.28,1.05.42,1.73.42.55,0,1.16-.19,1.81-.57.65-.38,1.26-1.01,1.83-1.9l.13,2.21c-.36.5-.79.94-1.29,1.3-.49.36-1,.64-1.52.83s-1.02.29-1.51.29c-1.07,0-2.02-.21-2.82-.64-.81-.42-1.44-1.06-1.9-1.91-.46-.85-.69-1.92-.69-3.2s.26-2.3.79-3.2,1.23-1.6,2.09-2.11c.87-.5,1.81-.75,2.83-.75.92,0,1.78.18,2.59.55.81.36,1.51.92,2.11,1.68.6.75,1.07,1.69,1.42,2.82s.52,2.46.52,4c0,1.82-.19,3.38-.58,4.69-.39,1.31-.93,2.38-1.61,3.2-.69.82-1.46,1.43-2.31,1.82-.86.39-1.76.58-2.69.58Z"/>
        <path class="cls-11" d="M426.69,106.56c-.56,0-1.03-.2-1.42-.61s-.58-.91-.58-1.52.19-1.13.58-1.52.86-.58,1.42-.58,1.05.2,1.44.58.58.9.58,1.52-.19,1.11-.58,1.52-.87.61-1.44.61Z"/>
        <path class="cls-11" d="M438,106.56c-1.28,0-2.39-.38-3.31-1.13-.93-.75-1.64-1.85-2.15-3.3-.5-1.45-.75-3.22-.75-5.32s.25-3.86.75-5.28c.5-1.42,1.22-2.5,2.15-3.22.93-.73,2.03-1.09,3.31-1.09s2.36.36,3.28,1.09c.92.73,1.63,1.8,2.13,3.22.5,1.42.75,3.18.75,5.28s-.25,3.87-.75,5.32c-.5,1.45-1.21,2.55-2.13,3.3-.92.75-2.01,1.13-3.28,1.13ZM438,104.17c.64,0,1.21-.24,1.72-.73.5-.49.89-1.27,1.17-2.34.28-1.08.42-2.5.42-4.29s-.14-3.2-.42-4.25-.67-1.81-1.17-2.28c-.5-.47-1.07-.7-1.72-.7s-1.21.23-1.72.7c-.5.47-.9,1.23-1.18,2.28s-.43,2.47-.43,4.25.14,3.21.43,4.29c.29,1.07.68,1.85,1.18,2.34.5.49,1.07.73,1.72.73Z"/>
        <path class="cls-11" d="M450.79,98.79c-.88,0-1.66-.24-2.34-.71-.68-.48-1.2-1.17-1.57-2.08-.37-.91-.56-2.01-.56-3.29s.19-2.37.56-3.26c.37-.89.9-1.57,1.57-2.04.68-.47,1.46-.7,2.34-.7s1.69.23,2.37.7c.68.47,1.2,1.15,1.57,2.04.37.89.56,1.98.56,3.26s-.19,2.38-.56,3.29c-.37.91-.9,1.6-1.57,2.08-.68.48-1.46.71-2.37.71ZM450.79,97.04c.68,0,1.23-.35,1.65-1.07.42-.71.64-1.8.64-3.28s-.21-2.55-.64-3.22c-.42-.68-.98-1.01-1.65-1.01s-1.21.34-1.64,1.01c-.43.68-.65,1.75-.65,3.22s.22,2.57.65,3.28c.43.71.98,1.07,1.64,1.07ZM451.39,106.56l10.48-19.86h1.9l-10.48,19.86h-1.9ZM464.39,106.56c-.88,0-1.66-.24-2.34-.73-.68-.48-1.2-1.18-1.57-2.08-.37-.9-.56-1.99-.56-3.28s.19-2.39.56-3.28.9-1.56,1.57-2.04,1.46-.71,2.34-.71,1.66.24,2.34.71c.68.48,1.2,1.16,1.57,2.04.37.88.56,1.98.56,3.28s-.19,2.38-.56,3.28c-.37.9-.9,1.6-1.57,2.08-.68.49-1.46.73-2.34.73ZM464.39,104.77c.66,0,1.21-.35,1.65-1.04.44-.69.66-1.78.66-3.25s-.22-2.57-.66-3.25c-.44-.68-.99-1.01-1.65-1.01s-1.2.34-1.64,1.01c-.43.68-.65,1.76-.65,3.25s.22,2.56.65,3.25c.43.69.98,1.04,1.64,1.04Z"/>
      </g>
      <polyline class="cls-12" points="0 29.18 459.74 29.18 474.42 43.86"/>
      <polyline class="cls-12" points="0 66.64 459.74 66.64 477.26 84.16"/>
      <polyline class="cls-12" points="0 106.23 345.26 106.23 391.54 152.51"/>
      <polyline class="cls-12" points="0 143.89 267.44 143.89 346.67 223.11"/>
      <circle class="cls-10" cx="516.99" cy="271.08" r="89.97"/>
      <g>
        <path class="cls-11" d="M456.03,290.59h2.91c-.12,1.54-.33,2.92-.65,4.16-.31,1.23-.81,2.33-1.48,3.29-.68.96-1.64,1.79-2.87,2.5s-2.83,1.29-4.78,1.75c-.06-.24-.18-.51-.36-.81-.18-.3-.38-.59-.58-.88s-.42-.54-.61-.73c1.76-.38,3.17-.84,4.24-1.38,1.07-.54,1.89-1.18,2.45-1.93.56-.75.96-1.62,1.21-2.61.25-.99.42-2.1.52-3.34ZM448.32,277.09h26.34v2.61h-26.34v-2.61ZM448.92,286.78h25.11v6.03h-2.85v-3.48h-19.5v3.48h-2.76v-6.03ZM451.14,282.25h20.79v2.52h-20.79v-2.52ZM459.87,274.42h2.94v9.18h-2.94v-9.18ZM463.44,290.59h2.82v7.56c0,.46.08.75.24.87.16.12.53.18,1.11.18h3.57c.36,0,.62-.08.79-.25.17-.17.29-.53.38-1.08.08-.55.14-1.37.18-2.45.2.16.45.31.75.45.3.14.62.27.95.38.33.11.61.21.85.29-.08,1.38-.25,2.46-.5,3.22-.25.77-.63,1.3-1.12,1.59-.5.29-1.17.44-2.01.44h-4.2c-1.02,0-1.81-.11-2.35-.33-.55-.22-.93-.59-1.14-1.11-.21-.52-.31-1.23-.31-2.13v-7.62Z"/>
        <path class="cls-11" d="M477.39,297.94h27.15v2.85h-27.15v-2.85ZM488.46,274.81h3.03v24.66h-3.03v-24.66ZM490.08,283.78h12.39v2.85h-12.39v-2.85Z"/>
        <path class="cls-11" d="M520.89,300.13c-1.16,0-2.19-.14-3.08-.42-.89-.28-1.68-.66-2.35-1.12-.68-.47-1.27-.97-1.77-1.51l1.68-2.22c.66.64,1.41,1.2,2.25,1.68.84.48,1.83.72,2.97.72.84,0,1.57-.14,2.19-.42.62-.28,1.1-.68,1.45-1.2.35-.52.53-1.14.53-1.86,0-.8-.2-1.48-.58-2.05-.39-.57-1.06-1.01-2.01-1.33-.95-.32-2.25-.48-3.92-.48v-2.58c1.46,0,2.6-.17,3.44-.5.83-.33,1.43-.77,1.8-1.32.37-.55.56-1.17.56-1.84,0-.96-.3-1.71-.9-2.27-.6-.55-1.43-.82-2.49-.82-.84,0-1.62.19-2.35.58-.73.39-1.42.89-2.05,1.51l-1.8-2.16c.88-.78,1.84-1.42,2.88-1.93,1.04-.51,2.19-.77,3.45-.77s2.49.22,3.51.66c1.02.44,1.82,1.08,2.4,1.91.58.83.87,1.83.87,3.01,0,1.24-.35,2.28-1.04,3.11s-1.62,1.46-2.77,1.91v.15c.84.2,1.6.54,2.29,1.02.69.48,1.23,1.08,1.63,1.81.4.73.6,1.59.6,2.57,0,1.3-.33,2.41-1,3.33-.67.92-1.57,1.62-2.69,2.11-1.12.49-2.35.74-3.69.74Z"/>
        <path class="cls-11" d="M531.39,305.71l-.78-1.95c1.04-.44,1.85-1.03,2.43-1.75.58-.73.86-1.54.84-2.45l-.24-2.76,1.44,2.28c-.2.22-.43.38-.69.46-.26.09-.54.13-.84.13-.6,0-1.14-.19-1.6-.58-.47-.39-.7-.93-.7-1.63s.23-1.22.7-1.62c.47-.4,1.04-.6,1.7-.6.86,0,1.52.33,1.98.99.46.66.69,1.57.69,2.73,0,1.58-.44,2.96-1.31,4.12-.87,1.17-2.08,2.04-3.61,2.62Z"/>
        <path class="cls-11" d="M546.03,300.13c-1.14,0-2.16-.14-3.06-.42s-1.69-.65-2.37-1.11c-.68-.46-1.28-.94-1.8-1.44l1.65-2.25c.42.42.88.8,1.38,1.16.5.35,1.06.63,1.7.85.63.22,1.33.33,2.11.33.82,0,1.56-.17,2.22-.53.66-.35,1.18-.85,1.56-1.51.38-.66.57-1.44.57-2.34,0-1.36-.39-2.42-1.15-3.18-.77-.76-1.79-1.14-3.05-1.14-.7,0-1.3.11-1.8.32-.5.21-1.07.52-1.71.94l-1.71-1.08.66-10.5h11.19v2.94h-8.19l-.51,5.64c.48-.24.96-.42,1.44-.55.48-.13,1.01-.2,1.59-.2,1.24,0,2.37.24,3.39.71,1.02.47,1.83,1.2,2.43,2.19s.9,2.25.9,3.79-.35,2.89-1.05,3.99c-.7,1.1-1.62,1.94-2.75,2.52-1.13.58-2.35.87-3.65.87Z"/>
        <path class="cls-11" d="M564.25,300.13c-1.06,0-2.06-.21-2.98-.64-.93-.43-1.74-1.08-2.43-1.94-.69-.86-1.23-1.94-1.63-3.25-.4-1.31-.6-2.85-.6-4.63,0-2.12.23-3.92.67-5.42.45-1.49,1.06-2.71,1.85-3.67.78-.96,1.67-1.66,2.67-2.1,1-.44,2.05-.66,3.15-.66,1.24,0,2.31.23,3.23.69.91.46,1.67,1.02,2.29,1.68l-1.89,2.1c-.4-.48-.91-.87-1.53-1.17-.62-.3-1.27-.45-1.95-.45-.96,0-1.84.28-2.64.84-.8.56-1.44,1.5-1.92,2.8-.48,1.31-.72,3.1-.72,5.36,0,1.78.18,3.25.54,4.39.36,1.15.87,2.01,1.53,2.57.66.56,1.43.84,2.31.84.64,0,1.22-.17,1.74-.53.52-.35.93-.85,1.24-1.5.31-.65.47-1.42.47-2.32s-.15-1.62-.44-2.24c-.29-.61-.71-1.08-1.25-1.4-.54-.32-1.2-.48-1.98-.48-.64,0-1.33.21-2.08.63s-1.46,1.15-2.11,2.19l-.15-2.52c.44-.58.94-1.08,1.5-1.5s1.15-.75,1.76-.97c.61-.23,1.18-.35,1.72-.35,1.24,0,2.33.25,3.27.74.94.49,1.67,1.23,2.19,2.21.52.98.78,2.21.78,3.69s-.31,2.65-.92,3.69c-.61,1.04-1.41,1.86-2.4,2.45-.99.59-2.08.88-3.29.88Z"/>
        <path class="cls-11" d="M580.75,300.13c-1.48,0-2.76-.43-3.83-1.3s-1.9-2.14-2.48-3.81c-.58-1.67-.87-3.71-.87-6.13s.29-4.45.87-6.09,1.41-2.88,2.48-3.72c1.07-.84,2.34-1.26,3.83-1.26s2.72.42,3.78,1.26c1.06.84,1.88,2.08,2.46,3.72s.87,3.67.87,6.09-.29,4.47-.87,6.13c-.58,1.67-1.4,2.94-2.46,3.81s-2.32,1.3-3.78,1.3ZM580.75,297.37c.74,0,1.4-.28,1.98-.84.58-.56,1.03-1.46,1.35-2.7.32-1.24.48-2.89.48-4.95s-.16-3.69-.48-4.91c-.32-1.21-.77-2.08-1.35-2.62-.58-.54-1.24-.81-1.98-.81s-1.4.27-1.98.81c-.58.54-1.04,1.42-1.37,2.62-.33,1.21-.49,2.85-.49,4.91s.16,3.71.49,4.95.78,2.14,1.37,2.7c.58.56,1.24.84,1.98.84Z"/>
      </g>
      <g>
        <path class="cls-11" d="M474.62,244.85h15.54v2.58h-15.54v-2.58ZM475.34,236.51h14.43v2.49h-14.43v-2.49ZM476.51,249.8h12.12v11.34h-2.76v-8.88h-6.72v9h-2.64v-11.46ZM477.14,239.96l2.37-.51c.32.72.6,1.51.84,2.38.24.87.4,1.62.48,2.26l-2.49.57c-.04-.64-.18-1.4-.4-2.28-.23-.88-.5-1.69-.79-2.43ZM477.5,257.12h9.63v2.49h-9.63v-2.49ZM481.16,233.54h2.76v4.53h-2.76v-4.53ZM485.51,239.3l2.7.6c-.32.86-.65,1.72-.98,2.59s-.66,1.62-.98,2.23l-2.25-.57c.2-.44.39-.95.57-1.52.18-.57.35-1.15.52-1.75.17-.6.3-1.13.4-1.59ZM491.24,235.13h8.91v2.67h-6.12v23.43h-2.79v-26.1ZM499.4,235.13h.54l.45-.09,2.1,1.29c-.58,1.44-1.21,2.97-1.9,4.59s-1.36,3.09-2.02,4.41c.94.92,1.65,1.8,2.15,2.64.49.84.83,1.64,1.02,2.4.19.76.28,1.49.28,2.19,0,1-.12,1.85-.36,2.55-.24.7-.64,1.24-1.2,1.62-.54.36-1.21.6-2.01.72-.36.04-.76.06-1.2.06h-1.32c-.02-.4-.09-.87-.21-1.41s-.3-1.01-.54-1.41c.42.04.8.06,1.16.07.35.01.65,0,.91-.01.24-.02.46-.05.66-.11.2-.05.39-.11.57-.19.3-.2.5-.49.61-.87.11-.38.17-.84.17-1.38,0-.88-.25-1.87-.73-2.97-.49-1.1-1.43-2.27-2.81-3.51.34-.76.69-1.58,1.04-2.46.35-.88.69-1.76,1.03-2.64.34-.88.65-1.71.92-2.5s.5-1.46.71-2.03v-.96Z"/>
        <path class="cls-11" d="M505.41,234.71h2.79v26.52h-2.79v-26.52ZM506.76,239.21h7.98v2.07h-7.98v-2.07ZM507,234.71h9.48v11.28h-9.48v-2.31h6.81v-6.63h-6.81v-2.34ZM529.02,234.71v2.34h-7.35v6.66h7.35v2.34h-10.05v-11.34h10.05ZM520.59,239.21h8.1v2.07h-8.1v-2.07ZM527.52,234.71h2.85v22.89c0,.88-.11,1.56-.33,2.03-.22.47-.62.83-1.2,1.07-.58.24-1.35.38-2.31.43s-2.14.08-3.54.08c-.04-.26-.12-.57-.23-.92-.11-.35-.24-.71-.38-1.08-.14-.37-.28-.67-.42-.92.66.02,1.31.04,1.96.04.65.01,1.23.01,1.73.01h1.05c.3-.02.51-.08.63-.19.12-.11.18-.3.18-.58v-22.86Z"/>
        <path class="cls-11" d="M538.16,244.04h2.79c-.08,1.58-.22,3.18-.41,4.8-.19,1.62-.49,3.19-.9,4.71-.41,1.52-.98,2.94-1.71,4.26-.73,1.32-1.69,2.48-2.87,3.48-.22-.36-.52-.73-.88-1.11-.37-.38-.73-.68-1.06-.9,1.06-.88,1.91-1.91,2.56-3.08.65-1.17,1.14-2.43,1.47-3.79.33-1.36.56-2.75.71-4.19.14-1.43.24-2.82.3-4.18ZM534.95,234.77h12.12v10.11h-12.12v-10.11ZM537.53,237.29v5.04h6.81v-5.04h-6.81ZM538.88,247.79h6.99v2.49h-6.99v-2.49ZM544.67,247.79h2.61v.67c0,.17-.01.32-.03.44-.1,2.46-.21,4.45-.33,5.98s-.27,2.7-.44,3.5-.4,1.37-.67,1.71c-.28.34-.58.58-.9.71-.32.13-.71.22-1.17.29-.4.06-.94.09-1.61.09s-1.36-.02-2.08-.06c-.02-.38-.09-.81-.22-1.28-.13-.47-.32-.88-.56-1.21.7.08,1.35.12,1.95.13.6,0,1.03.01,1.29.01.24,0,.44-.02.6-.06s.3-.13.42-.27c.2-.22.36-.69.5-1.4.13-.71.24-1.77.35-3.2.1-1.42.2-3.29.3-5.61v-.45ZM549.77,237.02h2.76v16.77h-2.76v-16.77ZM557,233.96h2.82v23.67c0,.92-.11,1.61-.33,2.05-.22.45-.6.79-1.14,1.04-.56.22-1.31.37-2.23.44-.93.07-2.09.1-3.47.1-.04-.26-.12-.57-.23-.92s-.23-.71-.36-1.06c-.13-.36-.27-.67-.44-.93,1.04.04,1.99.06,2.85.06h1.74c.28-.02.48-.08.6-.2.12-.11.18-.3.18-.58v-23.67Z"/>
      </g>
      <g>
        <rect class="cls-10" x="562.89" y="453.23" width="86.76" height="24.71"/>
        <path class="cls-3" d="M649.15,453.72v23.71h-85.76v-23.71h85.76M650.15,452.72h-87.76v25.71h87.76v-25.71h0Z"/>
      </g>
      <g>
        <path class="cls-11" d="M581.81,475.13c-1.2,0-2.26-.22-3.2-.66-.94-.44-1.68-1.05-2.22-1.82-.55-.77-.82-1.65-.82-2.64,0-.8.16-1.5.49-2.12.33-.62.75-1.16,1.27-1.62s1.07-.85,1.64-1.14v-.1c-.69-.5-1.29-1.11-1.79-1.82-.5-.71-.75-1.55-.75-2.52s.24-1.85.71-2.59c.48-.74,1.13-1.3,1.95-1.7.82-.4,1.76-.6,2.82-.6s2.06.21,2.86.64,1.42,1.01,1.86,1.75c.44.75.66,1.61.66,2.6,0,.64-.13,1.24-.39,1.79-.26.56-.58,1.05-.96,1.48s-.77.8-1.17,1.09v.1c.57.33,1.1.71,1.6,1.14.49.43.89.95,1.18,1.55.29.6.44,1.31.44,2.15,0,.94-.26,1.79-.77,2.55s-1.23,1.37-2.16,1.82c-.93.45-2.02.68-3.26.68ZM581.89,472.94c.64,0,1.21-.12,1.7-.36.49-.24.88-.58,1.16-1.03.28-.44.42-.97.42-1.57,0-.54-.12-1-.36-1.39-.24-.39-.58-.73-1.01-1.03-.43-.29-.93-.57-1.5-.82-.56-.25-1.17-.5-1.83-.74-.66.43-1.2.96-1.61,1.59s-.62,1.33-.62,2.11c0,.64.16,1.21.48,1.69.32.49.76.87,1.31,1.14.55.28,1.18.42,1.87.42ZM583.09,464.39c.55-.52.98-1.07,1.26-1.64.29-.57.43-1.17.43-1.79,0-.57-.11-1.08-.34-1.53-.23-.45-.56-.81-1-1.07s-.98-.39-1.6-.39c-.78,0-1.43.24-1.95.71s-.78,1.14-.78,1.99c0,.68.19,1.23.56,1.68.37.44.86.82,1.46,1.14.6.32,1.25.62,1.96.9Z"/>
        <path class="cls-11" d="M593.07,475.13c-.56,0-1.03-.2-1.42-.61s-.58-.91-.58-1.52.19-1.13.58-1.52.86-.58,1.42-.58,1.05.2,1.44.58.58.9.58,1.52-.19,1.11-.58,1.52-.87.61-1.44.61Z"/>
        <path class="cls-11" d="M599.16,474.76v-2.47h4.21v-12.79h-3.43v-1.9c.9-.17,1.69-.38,2.35-.61.67-.23,1.28-.51,1.83-.84h2.26v16.15h3.72v2.47h-10.95Z"/>
        <path class="cls-11" d="M617.17,467.35c-.88,0-1.66-.24-2.34-.71-.68-.48-1.2-1.17-1.57-2.08-.37-.91-.56-2.01-.56-3.29s.19-2.37.56-3.26c.37-.89.9-1.57,1.57-2.04.68-.47,1.46-.7,2.34-.7s1.69.23,2.37.7c.68.47,1.2,1.15,1.57,2.04.37.89.56,1.98.56,3.26s-.19,2.38-.56,3.29c-.37.91-.9,1.6-1.57,2.08-.68.48-1.46.71-2.37.71ZM617.17,465.61c.68,0,1.23-.35,1.65-1.07.42-.71.64-1.8.64-3.28s-.21-2.55-.64-3.22c-.42-.68-.98-1.01-1.65-1.01s-1.21.34-1.64,1.01c-.43.68-.65,1.75-.65,3.22s.22,2.57.65,3.28c.43.71.98,1.07,1.64,1.07ZM617.77,475.13l10.48-19.86h1.9l-10.48,19.86h-1.9ZM630.77,475.13c-.88,0-1.66-.24-2.34-.73-.68-.48-1.2-1.18-1.57-2.08-.37-.9-.56-1.99-.56-3.28s.19-2.39.56-3.28.9-1.56,1.57-2.04,1.46-.71,2.34-.71,1.66.24,2.34.71c.68.48,1.2,1.16,1.57,2.04.37.88.56,1.98.56,3.28s-.19,2.38-.56,3.28c-.37.9-.9,1.6-1.57,2.08-.68.49-1.46.73-2.34.73ZM630.77,473.33c.66,0,1.21-.35,1.65-1.04.44-.69.66-1.78.66-3.25s-.22-2.57-.66-3.25c-.44-.68-.99-1.01-1.65-1.01s-1.2.34-1.64,1.01c-.43.68-.65,1.76-.65,3.25s.22,2.56.65,3.25c.43.69.98,1.04,1.64,1.04Z"/>
      </g>
      <g>
        <rect class="cls-10" x="314.28" y="402.36" width="86.76" height="24.71"/>
        <path class="cls-3" d="M400.54,402.87v23.71h-85.76v-23.71h85.76M401.54,401.87h-87.76v25.71h87.76v-25.71h0Z"/>
      </g>
      <g>
        <path class="cls-11" d="M319.5,423.9v-1.74c1.79-1.75,3.31-3.31,4.59-4.67,1.27-1.36,2.25-2.59,2.93-3.69.68-1.1,1.01-2.14,1.01-3.11,0-.69-.12-1.29-.35-1.79-.23-.5-.59-.89-1.07-1.17-.48-.28-1.08-.42-1.81-.42s-1.43.21-2.05.64-1.2.92-1.72,1.5l-1.69-1.66c.81-.9,1.68-1.6,2.59-2.11.91-.5,2-.75,3.26-.75,1.16,0,2.18.23,3.04.7.87.47,1.54,1.12,2.02,1.96.48.84.71,1.83.71,2.95s-.32,2.27-.95,3.43c-.63,1.16-1.49,2.37-2.56,3.61-1.08,1.25-2.28,2.57-3.61,3.95.5-.05,1.04-.1,1.6-.14.56-.04,1.08-.07,1.55-.07h4.89v2.57h-12.38Z"/>
        <path class="cls-11" d="M340.61,424.27c-1.28,0-2.39-.38-3.31-1.13-.93-.75-1.64-1.85-2.15-3.3-.5-1.45-.75-3.22-.75-5.32s.25-3.86.75-5.28c.5-1.42,1.22-2.5,2.15-3.22.93-.73,2.03-1.09,3.31-1.09s2.36.36,3.28,1.09c.92.73,1.63,1.8,2.13,3.22.5,1.42.75,3.18.75,5.28s-.25,3.87-.75,5.32c-.5,1.45-1.21,2.55-2.13,3.3-.92.75-2.01,1.13-3.28,1.13ZM340.61,421.87c.64,0,1.21-.24,1.72-.73.5-.49.89-1.27,1.17-2.34.28-1.08.42-2.5.42-4.29s-.14-3.2-.42-4.25-.67-1.81-1.17-2.28c-.5-.47-1.07-.7-1.72-.7s-1.21.23-1.72.7c-.5.47-.9,1.23-1.18,2.28s-.43,2.47-.43,4.25.14,3.21.43,4.29c.29,1.07.68,1.85,1.18,2.34.5.49,1.07.73,1.72.73Z"/>
        <path class="cls-11" d="M351.87,424.27c-.56,0-1.03-.2-1.42-.61s-.58-.91-.58-1.52.19-1.13.58-1.52.86-.58,1.42-.58,1.05.2,1.44.58.58.9.58,1.52-.19,1.11-.58,1.52-.87.61-1.44.61Z"/>
        <path class="cls-11" d="M363.18,424.27c-1.2,0-2.26-.22-3.2-.66-.94-.44-1.68-1.05-2.22-1.82-.55-.77-.82-1.65-.82-2.64,0-.8.16-1.5.49-2.12.33-.62.75-1.16,1.27-1.62s1.07-.85,1.64-1.14v-.1c-.69-.5-1.29-1.11-1.79-1.82-.5-.71-.75-1.55-.75-2.52s.24-1.85.71-2.59c.48-.74,1.13-1.3,1.95-1.7.82-.4,1.76-.6,2.82-.6s2.06.21,2.86.64,1.42,1.01,1.86,1.75c.44.75.66,1.61.66,2.6,0,.64-.13,1.24-.39,1.79-.26.56-.58,1.05-.96,1.48s-.77.8-1.17,1.09v.1c.57.33,1.1.71,1.6,1.14.49.43.89.95,1.18,1.55.29.6.44,1.31.44,2.15,0,.94-.26,1.79-.77,2.55s-1.23,1.37-2.16,1.82c-.93.45-2.02.68-3.26.68ZM363.26,422.08c.64,0,1.21-.12,1.7-.36.49-.24.88-.58,1.16-1.03.28-.44.42-.97.42-1.57,0-.54-.12-1-.36-1.39-.24-.39-.58-.73-1.01-1.03-.43-.29-.93-.57-1.5-.82-.56-.25-1.17-.5-1.83-.74-.66.43-1.2.96-1.61,1.59s-.62,1.33-.62,2.11c0,.64.16,1.21.48,1.69.32.49.76.87,1.31,1.14.55.28,1.18.42,1.87.42ZM364.45,413.53c.55-.52.98-1.07,1.26-1.64.29-.57.43-1.17.43-1.79,0-.57-.11-1.08-.34-1.53-.23-.45-.56-.81-1-1.07s-.98-.39-1.6-.39c-.78,0-1.43.24-1.95.71s-.78,1.14-.78,1.99c0,.68.19,1.23.56,1.68.37.44.86.82,1.46,1.14.6.32,1.25.62,1.96.9Z"/>
        <path class="cls-11" d="M375.97,416.49c-.88,0-1.66-.24-2.34-.71-.68-.48-1.2-1.17-1.57-2.08-.37-.91-.56-2.01-.56-3.29s.19-2.37.56-3.26c.37-.89.9-1.57,1.57-2.04.68-.47,1.46-.7,2.34-.7s1.69.23,2.37.7c.68.47,1.2,1.15,1.57,2.04.37.89.56,1.98.56,3.26s-.19,2.38-.56,3.29c-.37.91-.9,1.6-1.57,2.08-.68.48-1.46.71-2.37.71ZM375.97,414.75c.68,0,1.23-.35,1.65-1.07.42-.71.64-1.8.64-3.28s-.21-2.55-.64-3.22c-.42-.68-.98-1.01-1.65-1.01s-1.21.34-1.64,1.01c-.43.68-.65,1.75-.65,3.22s.22,2.57.65,3.28c.43.71.98,1.07,1.64,1.07ZM376.57,424.27l10.48-19.86h1.9l-10.48,19.86h-1.9ZM389.57,424.27c-.88,0-1.66-.24-2.34-.73-.68-.48-1.2-1.18-1.57-2.08-.37-.9-.56-1.99-.56-3.28s.19-2.39.56-3.28.9-1.56,1.57-2.04,1.46-.71,2.34-.71,1.66.24,2.34.71c.68.48,1.2,1.16,1.57,2.04.37.88.56,1.98.56,3.28s-.19,2.38-.56,3.28c-.37.9-.9,1.6-1.57,2.08-.68.49-1.46.73-2.34.73ZM389.57,422.47c.66,0,1.21-.35,1.65-1.04.44-.69.66-1.78.66-3.25s-.22-2.57-.66-3.25c-.44-.68-.99-1.01-1.65-1.01s-1.2.34-1.64,1.01c-.43.68-.65,1.76-.65,3.25s.22,2.56.65,3.25c.43.69.98,1.04,1.64,1.04Z"/>
      </g>
      <g>
        <rect class="cls-10" x="287.94" y="216.45" width="86.76" height="24.71"/>
        <path class="cls-3" d="M374.2,216.95v23.71h-85.76v-23.71h85.76M375.2,215.95h-87.76v25.71h87.76v-25.71h0Z"/>
      </g>
      <g>
        <path class="cls-11" d="M307.41,238.36c-.92,0-1.78-.19-2.59-.56-.81-.37-1.51-.93-2.11-1.68s-1.07-1.69-1.42-2.82c-.35-1.13-.52-2.47-.52-4.02,0-1.84.19-3.4.58-4.69.39-1.29.92-2.35,1.6-3.18.68-.83,1.45-1.44,2.31-1.82.87-.38,1.78-.57,2.73-.57,1.07,0,2.01.2,2.79.6.79.4,1.45.88,1.99,1.46l-1.64,1.82c-.35-.42-.79-.75-1.33-1.01-.54-.26-1.1-.39-1.69-.39-.83,0-1.59.24-2.29.73-.69.49-1.25,1.3-1.66,2.43-.42,1.13-.62,2.68-.62,4.64,0,1.54.16,2.81.47,3.81.31,1,.75,1.74,1.33,2.22.57.49,1.24.73,2,.73.55,0,1.06-.15,1.51-.46.45-.3.81-.74,1.08-1.3.27-.56.4-1.24.4-2.01s-.13-1.41-.38-1.94c-.25-.53-.61-.93-1.08-1.21-.47-.28-1.04-.42-1.72-.42-.56,0-1.16.18-1.81.55-.65.36-1.26,1-1.83,1.9l-.13-2.18c.38-.5.81-.94,1.3-1.3.49-.36.99-.65,1.52-.84s1.03-.3,1.5-.3c1.07,0,2.02.21,2.83.64.81.42,1.45,1.06,1.9,1.91.45.85.68,1.92.68,3.2s-.26,2.3-.79,3.2c-.53.9-1.22,1.61-2.08,2.12-.86.51-1.81.77-2.85.77Z"/>
        <path class="cls-11" d="M318.12,238.36c-.56,0-1.03-.2-1.42-.61s-.58-.91-.58-1.52.19-1.13.58-1.52.86-.58,1.42-.58,1.05.2,1.44.58.58.9.58,1.52-.19,1.11-.58,1.52-.87.61-1.44.61Z"/>
        <path class="cls-11" d="M327.01,237.99c.09-1.68.24-3.23.46-4.65.22-1.42.53-2.76.94-4.03.41-1.27.93-2.5,1.56-3.71.63-1.21,1.4-2.43,2.3-3.68h-8.97v-2.55h12.3v1.85c-1.09,1.37-1.98,2.67-2.67,3.91-.69,1.24-1.22,2.5-1.61,3.8-.39,1.29-.68,2.67-.86,4.13s-.31,3.11-.38,4.93h-3.07Z"/>
        <path class="cls-11" d="M342.22,230.58c-.88,0-1.66-.24-2.34-.71-.68-.48-1.2-1.17-1.57-2.08-.37-.91-.56-2.01-.56-3.29s.19-2.37.56-3.26c.37-.89.9-1.57,1.57-2.04.68-.47,1.46-.7,2.34-.7s1.69.23,2.37.7c.68.47,1.2,1.15,1.57,2.04.37.89.56,1.98.56,3.26s-.19,2.38-.56,3.29c-.37.91-.9,1.6-1.57,2.08-.68.48-1.46.71-2.37.71ZM342.22,228.84c.68,0,1.23-.35,1.65-1.07.42-.71.64-1.8.64-3.28s-.21-2.55-.64-3.22c-.42-.68-.98-1.01-1.65-1.01s-1.21.34-1.64,1.01c-.43.68-.65,1.75-.65,3.22s.22,2.57.65,3.28c.43.71.98,1.07,1.64,1.07ZM342.82,238.36l10.48-19.86h1.9l-10.48,19.86h-1.9ZM355.82,238.36c-.88,0-1.66-.24-2.34-.73-.68-.48-1.2-1.18-1.57-2.08-.37-.9-.56-1.99-.56-3.28s.19-2.39.56-3.28.9-1.56,1.57-2.04,1.46-.71,2.34-.71,1.66.24,2.34.71c.68.48,1.2,1.16,1.57,2.04.37.88.56,1.98.56,3.28s-.19,2.38-.56,3.28c-.37.9-.9,1.6-1.57,2.08-.68.49-1.46.73-2.34.73ZM355.82,236.56c.66,0,1.21-.35,1.65-1.04.44-.69.66-1.78.66-3.25s-.22-2.57-.66-3.25c-.44-.68-.99-1.01-1.65-1.01s-1.2.34-1.64,1.01c-.43.68-.65,1.76-.65,3.25s.22,2.56.65,3.25c.43.69.98,1.04,1.64,1.04Z"/>
      </g>
      <g>
        <rect class="cls-10" x="337.28" y="147.47" width="86.76" height="24.71"/>
        <path class="cls-3" d="M423.54,147.97v23.71h-85.76v-23.71h85.76M424.54,146.97h-87.76v25.71h87.76v-25.71h0Z"/>
      </g>
      <g>
        <path class="cls-11" d="M353.78,169c.09-1.68.24-3.23.46-4.65.22-1.42.53-2.76.94-4.03.41-1.27.93-2.5,1.56-3.71.63-1.21,1.4-2.43,2.3-3.68h-8.97v-2.55h12.3v1.85c-1.09,1.37-1.98,2.67-2.67,3.91-.69,1.24-1.22,2.5-1.61,3.8-.39,1.29-.68,2.67-.86,4.13s-.31,3.11-.38,4.93h-3.07Z"/>
        <path class="cls-11" d="M367.46,169.37c-.56,0-1.03-.2-1.42-.61s-.58-.91-.58-1.52.19-1.13.58-1.52.86-.58,1.42-.58,1.05.2,1.44.58.58.9.58,1.52-.19,1.11-.58,1.52-.87.61-1.44.61Z"/>
        <path class="cls-11" d="M378.77,169.37c-1.28,0-2.39-.38-3.31-1.13-.93-.75-1.64-1.85-2.15-3.3-.5-1.45-.75-3.22-.75-5.32s.25-3.86.75-5.28c.5-1.42,1.22-2.5,2.15-3.22.93-.73,2.03-1.09,3.31-1.09s2.36.36,3.28,1.09c.92.73,1.63,1.8,2.13,3.22.5,1.42.75,3.18.75,5.28s-.25,3.87-.75,5.32c-.5,1.45-1.21,2.55-2.13,3.3-.92.75-2.01,1.13-3.28,1.13ZM378.77,166.97c.64,0,1.21-.24,1.72-.73.5-.49.89-1.27,1.17-2.34.28-1.08.42-2.5.42-4.29s-.14-3.2-.42-4.25-.67-1.81-1.17-2.28c-.5-.47-1.07-.7-1.72-.7s-1.21.23-1.72.7c-.5.47-.9,1.23-1.18,2.28s-.43,2.47-.43,4.25.14,3.21.43,4.29c.29,1.07.68,1.85,1.18,2.34.5.49,1.07.73,1.72.73Z"/>
        <path class="cls-11" d="M391.56,161.59c-.88,0-1.66-.24-2.34-.71-.68-.48-1.2-1.17-1.57-2.08-.37-.91-.56-2.01-.56-3.29s.19-2.37.56-3.26c.37-.89.9-1.57,1.57-2.04.68-.47,1.46-.7,2.34-.7s1.69.23,2.37.7c.68.47,1.2,1.15,1.57,2.04.37.89.56,1.98.56,3.26s-.19,2.38-.56,3.29c-.37.91-.9,1.6-1.57,2.08-.68.48-1.46.71-2.37.71ZM391.56,159.85c.68,0,1.23-.35,1.65-1.07.42-.71.64-1.8.64-3.28s-.21-2.55-.64-3.22c-.42-.68-.98-1.01-1.65-1.01s-1.21.34-1.64,1.01c-.43.68-.65,1.75-.65,3.22s.22,2.57.65,3.28c.43.71.98,1.07,1.64,1.07ZM392.16,169.37l10.48-19.86h1.9l-10.48,19.86h-1.9ZM405.16,169.37c-.88,0-1.66-.24-2.34-.73-.68-.48-1.2-1.18-1.57-2.08-.37-.9-.56-1.99-.56-3.28s.19-2.39.56-3.28.9-1.56,1.57-2.04,1.46-.71,2.34-.71,1.66.24,2.34.71c.68.48,1.2,1.16,1.57,2.04.37.88.56,1.98.56,3.28s-.19,2.38-.56,3.28c-.37.9-.9,1.6-1.57,2.08-.68.49-1.46.73-2.34.73ZM405.16,167.57c.66,0,1.21-.35,1.65-1.04.44-.69.66-1.78.66-3.25s-.22-2.57-.66-3.25c-.44-.68-.99-1.01-1.65-1.01s-1.2.34-1.64,1.01c-.43.68-.65,1.76-.65,3.25s.22,2.56.65,3.25c.43.69.98,1.04,1.64,1.04Z"/>
      </g>
      <g>
        <rect class="cls-10" x="464.7" y="34.31" width="86.76" height="24.71"/>
        <path class="cls-3" d="M550.96,34.81v23.71h-85.76v-23.71h85.76M551.96,33.81h-87.76v25.71h87.76v-25.71h0Z"/>
      </g>
      <g>
        <path class="cls-11" d="M478.39,55.84v-2.47h4.21v-12.79h-3.43v-1.9c.9-.17,1.69-.38,2.35-.61.67-.23,1.28-.51,1.83-.84h2.26v16.15h3.72v2.47h-10.95Z"/>
        <path class="cls-11" d="M494.88,56.21c-.56,0-1.03-.2-1.42-.61s-.58-.91-.58-1.52.19-1.13.58-1.52.86-.58,1.42-.58,1.05.2,1.44.58.58.9.58,1.52-.19,1.11-.58,1.52-.87.61-1.44.61Z"/>
        <path class="cls-11" d="M499.9,55.84v-1.74c1.79-1.75,3.31-3.31,4.59-4.67,1.27-1.36,2.25-2.59,2.93-3.69.68-1.1,1.01-2.14,1.01-3.11,0-.69-.12-1.29-.35-1.79-.23-.5-.59-.89-1.07-1.17-.48-.28-1.08-.42-1.81-.42s-1.43.21-2.05.64-1.2.92-1.72,1.5l-1.69-1.66c.81-.9,1.68-1.6,2.59-2.11.91-.5,2-.75,3.26-.75,1.16,0,2.18.23,3.04.7.87.47,1.54,1.12,2.02,1.96.48.84.71,1.83.71,2.95s-.32,2.27-.95,3.43c-.63,1.16-1.49,2.37-2.56,3.61-1.08,1.25-2.28,2.57-3.61,3.95.5-.05,1.04-.1,1.6-.14.56-.04,1.08-.07,1.55-.07h4.89v2.57h-12.38Z"/>
        <path class="cls-11" d="M518.98,48.43c-.88,0-1.66-.24-2.34-.71-.68-.48-1.2-1.17-1.57-2.08-.37-.91-.56-2.01-.56-3.29s.19-2.37.56-3.26c.37-.89.9-1.57,1.57-2.04.68-.47,1.46-.7,2.34-.7s1.69.23,2.37.7c.68.47,1.2,1.15,1.57,2.04.37.89.56,1.98.56,3.26s-.19,2.38-.56,3.29c-.37.91-.9,1.6-1.57,2.08-.68.48-1.46.71-2.37.71ZM518.98,46.69c.68,0,1.23-.35,1.65-1.07.42-.71.64-1.8.64-3.28s-.21-2.55-.64-3.22c-.42-.68-.98-1.01-1.65-1.01s-1.21.34-1.64,1.01c-.43.68-.65,1.75-.65,3.22s.22,2.57.65,3.28c.43.71.98,1.07,1.64,1.07ZM519.58,56.21l10.48-19.86h1.9l-10.48,19.86h-1.9ZM532.58,56.21c-.88,0-1.66-.24-2.34-.73-.68-.48-1.2-1.18-1.57-2.08-.37-.9-.56-1.99-.56-3.28s.19-2.39.56-3.28.9-1.56,1.57-2.04,1.46-.71,2.34-.71,1.66.24,2.34.71c.68.48,1.2,1.16,1.57,2.04.37.88.56,1.98.56,3.28s-.19,2.38-.56,3.28c-.37.9-.9,1.6-1.57,2.08-.68.49-1.46.73-2.34.73ZM532.58,54.41c.66,0,1.21-.35,1.65-1.04.44-.69.66-1.78.66-3.25s-.22-2.57-.66-3.25c-.44-.68-.99-1.01-1.65-1.01s-1.2.34-1.64,1.01c-.43.68-.65,1.76-.65,3.25s.22,2.56.65,3.25c.43.69.98,1.04,1.64,1.04Z"/>
      </g>
      <g>
        <path class="cls-11" d="M574.17,129.94h21.7v2.21h-21.7v-2.21ZM575.73,118.54h18.55v2.23h-18.55v-2.23ZM583.74,110.98h2.42v20.42h-2.42v-20.42Z"/>
        <path class="cls-11" d="M606.89,117.9l1.99.7c-.54,1.25-1.18,2.46-1.91,3.65-.73,1.18-1.52,2.31-2.39,3.37-.86,1.06-1.78,2.04-2.75,2.92-.97.88-1.96,1.63-2.99,2.26-.13-.19-.29-.41-.49-.65-.2-.24-.41-.47-.62-.71-.22-.23-.41-.43-.59-.59.99-.53,1.96-1.19,2.92-1.98.95-.79,1.86-1.68,2.72-2.65.86-.98,1.64-2,2.34-3.07.7-1.07,1.28-2.15,1.76-3.24ZM598.16,116.72h20.95v2.23h-20.95v-2.23ZM607.4,110.94h2.42v22.27h-2.42v-22.27ZM610.25,117.97c.51,1.06,1.12,2.11,1.84,3.16.71,1.05,1.5,2.05,2.36,3.01.86.96,1.77,1.83,2.72,2.62.95.78,1.91,1.45,2.87,1.99-.18.14-.38.33-.6.56-.22.23-.43.47-.62.72-.19.25-.35.48-.48.68-.99-.64-1.96-1.4-2.92-2.27-.95-.87-1.86-1.84-2.72-2.89-.86-1.05-1.66-2.17-2.4-3.34-.74-1.17-1.39-2.35-1.97-3.55l1.92-.7Z"/>
        <path class="cls-11" d="M621.19,114.92h9.26v1.82h-9.26v-1.82ZM622.27,124.76h1.97v8.16h-1.97v-8.16ZM622.31,118.23h7.3v1.75h-7.3v-1.75ZM622.31,121.47h7.3v1.75h-7.3v-1.75ZM622.43,111.73h7.13v1.78h-7.13v-1.78ZM623.37,124.76h6.19v7.13h-6.19v-1.82h4.22v-3.48h-4.22v-1.82ZM632.16,111.65h2.14v2.93c0,.72-.08,1.48-.23,2.27s-.45,1.56-.89,2.29c-.44.74-1.08,1.39-1.93,1.97-.1-.14-.25-.31-.46-.5s-.42-.38-.65-.56c-.22-.18-.42-.32-.58-.4.75-.51,1.31-1.06,1.68-1.63.37-.58.61-1.16.73-1.75s.18-1.17.18-1.73v-2.88ZM640,121.3h.43l.38-.07,1.49.55c-.42,1.58-.99,3-1.73,4.24s-1.6,2.32-2.6,3.25-2.1,1.72-3.3,2.36c-1.2.65-2.48,1.17-3.84,1.57-.06-.21-.17-.44-.31-.68-.14-.25-.3-.49-.46-.73-.16-.24-.31-.44-.46-.6,1.23-.3,2.4-.73,3.5-1.28s2.11-1.22,3.02-2.02,1.7-1.71,2.35-2.75c.66-1.04,1.16-2.2,1.51-3.48v-.36ZM630.76,121.3h10.13v2.06h-10.13v-2.06ZM633.86,123.39c.83,1.9,2.1,3.54,3.79,4.92,1.7,1.38,3.71,2.35,6.05,2.93-.16.14-.34.34-.53.58-.19.24-.37.48-.54.72s-.31.46-.42.65c-2.43-.72-4.52-1.86-6.25-3.42-1.74-1.56-3.11-3.48-4.12-5.75l2.02-.62ZM633.02,111.65h5.9v2.02h-5.9v-2.02ZM637.8,111.65h2.14v5.69c0,.29.02.47.07.55.05.08.16.12.34.12h.94c.13,0,.22-.06.29-.17s.11-.35.14-.72c.03-.37.06-.92.07-1.66.21.18.5.34.88.48.38.14.71.26,1,.34-.05.96-.15,1.71-.31,2.24-.16.54-.38.91-.67,1.12-.29.21-.67.31-1.15.31h-1.56c-.54,0-.98-.08-1.3-.23-.32-.15-.54-.42-.67-.79-.13-.38-.19-.9-.19-1.57v-5.71Z"/>
        <path class="cls-11" d="M645.42,114.92h9.67v1.82h-9.67v-1.82ZM646.52,124.76h1.99v8.16h-1.99v-8.16ZM646.57,118.23h7.61v1.75h-7.61v-1.75ZM646.57,121.47h7.61v1.75h-7.61v-1.75ZM646.69,111.73h7.51v1.78h-7.51v-1.78ZM647.6,124.76h6.5v7.13h-6.5v-1.82h4.49v-3.48h-4.49v-1.82ZM655.04,119.1h12.94v2.23h-12.94v-2.23ZM660.42,111.01h2.3v22.2h-2.3v-22.2Z"/>
        <path class="cls-11" d="M669.76,120.1h12.43v2.06h-12.43v-2.06ZM670.33,113.43h11.54v1.99h-11.54v-1.99ZM671.27,124.06h9.7v9.07h-2.21v-7.1h-5.38v7.2h-2.11v-9.17ZM671.77,116.19l1.9-.41c.26.58.48,1.21.67,1.91s.32,1.3.38,1.81l-1.99.46c-.03-.51-.14-1.12-.32-1.82-.18-.7-.4-1.35-.64-1.94ZM672.06,129.92h7.7v1.99h-7.7v-1.99ZM674.99,111.05h2.21v3.62h-2.21v-3.62ZM678.47,115.66l2.16.48c-.26.69-.52,1.38-.78,2.08-.26.7-.52,1.29-.78,1.79l-1.8-.46c.16-.35.31-.76.46-1.21.14-.46.28-.92.42-1.4s.24-.9.32-1.27ZM683.05,112.33h7.13v2.13h-4.9v18.74h-2.23v-20.88ZM689.58,112.33h.43l.36-.07,1.68,1.03c-.46,1.15-.97,2.38-1.52,3.67-.55,1.3-1.09,2.47-1.62,3.53.75.74,1.32,1.44,1.72,2.11s.66,1.31.82,1.92c.15.61.23,1.19.23,1.75,0,.8-.1,1.48-.29,2.04s-.51.99-.96,1.3c-.43.29-.97.48-1.61.58-.29.03-.61.05-.96.05h-1.06c-.02-.32-.07-.7-.17-1.13-.1-.43-.24-.81-.43-1.13.34.03.64.05.92.06s.52,0,.73-.01c.19-.02.37-.04.53-.08.16-.04.31-.09.46-.16.24-.16.4-.39.49-.7.09-.3.13-.67.13-1.1,0-.7-.2-1.5-.59-2.38s-1.14-1.82-2.24-2.81c.27-.61.55-1.26.83-1.97.28-.71.56-1.41.83-2.11.27-.7.52-1.37.73-2,.22-.63.4-1.17.56-1.62v-.77Z"/>
        <path class="cls-11" d="M694.45,111.99h2.23v21.22h-2.23v-21.22ZM695.53,115.59h6.38v1.66h-6.38v-1.66ZM695.72,111.99h7.58v9.02h-7.58v-1.85h5.45v-5.3h-5.45v-1.87ZM713.34,111.99v1.87h-5.88v5.33h5.88v1.87h-8.04v-9.07h8.04ZM706.6,115.59h6.48v1.66h-6.48v-1.66ZM712.14,111.99h2.28v18.31c0,.71-.09,1.24-.26,1.62-.18.38-.5.66-.96.85-.46.19-1.08.31-1.85.35-.77.04-1.71.06-2.83.06-.03-.21-.09-.45-.18-.73-.09-.28-.19-.57-.3-.86-.11-.3-.22-.54-.34-.73.53.02,1.05.03,1.57.04.52,0,.98.01,1.38.01h.84c.24-.02.41-.07.5-.16.1-.09.14-.24.14-.47v-18.29Z"/>
        <path class="cls-11" d="M616.11,157.19v-2.28h3.89v-11.81h-3.17v-1.75c.83-.16,1.56-.35,2.17-.56.62-.22,1.18-.48,1.69-.78h2.09v14.9h3.43v2.28h-10.1Z"/>
        <path class="cls-11" d="M629.25,161.99l-.62-1.56c.83-.35,1.48-.82,1.94-1.4s.69-1.24.67-1.96l-.19-2.21,1.15,1.82c-.16.18-.34.3-.55.37-.21.07-.43.11-.67.11-.48,0-.91-.16-1.28-.47s-.56-.75-.56-1.31.19-.98.56-1.3.83-.48,1.36-.48c.69,0,1.22.26,1.58.79s.55,1.26.55,2.18c0,1.26-.35,2.36-1.04,3.3-.7.94-1.66,1.64-2.89,2.1Z"/>
        <path class="cls-11" d="M640.92,157.53c-.93,0-1.75-.11-2.46-.34-.71-.22-1.34-.52-1.88-.9-.54-.38-1.02-.78-1.42-1.21l1.34-1.78c.53.51,1.13.96,1.8,1.34s1.46.58,2.38.58c.67,0,1.26-.11,1.75-.34.5-.22.88-.54,1.16-.96.28-.42.42-.91.42-1.49,0-.64-.16-1.19-.47-1.64-.31-.46-.85-.81-1.61-1.07-.76-.26-1.8-.38-3.13-.38v-2.06c1.17,0,2.08-.13,2.75-.4.66-.26,1.14-.62,1.44-1.05.3-.44.44-.93.44-1.48,0-.77-.24-1.37-.72-1.81-.48-.44-1.14-.66-1.99-.66-.67,0-1.3.16-1.88.47-.58.31-1.13.72-1.64,1.21l-1.44-1.73c.7-.62,1.47-1.14,2.3-1.55.83-.41,1.75-.61,2.76-.61s1.99.18,2.81.53c.82.35,1.46.86,1.92,1.52.46.66.7,1.47.7,2.41,0,.99-.28,1.82-.83,2.48-.55.66-1.29,1.17-2.22,1.52v.12c.67.16,1.28.43,1.84.82.55.38.99.87,1.31,1.45.32.58.48,1.27.48,2.05,0,1.04-.27,1.93-.8,2.66-.54.74-1.25,1.3-2.15,1.69-.9.39-1.88.59-2.95.59Z"/>
        <path class="cls-11" d="M653.73,157.53c-1.01,0-1.88-.19-2.6-.56-.73-.38-1.34-.82-1.84-1.33l1.51-1.73c.32.4.73.72,1.24.96s1.02.36,1.55.36c.77,0,1.47-.22,2.11-.67.64-.45,1.15-1.2,1.54-2.26.38-1.06.58-2.48.58-4.27,0-1.42-.14-2.6-.43-3.52-.29-.92-.69-1.6-1.21-2.04-.52-.44-1.14-.66-1.86-.66-.51,0-.98.14-1.39.41-.42.27-.74.66-.98,1.18-.24.51-.36,1.14-.36,1.87s.11,1.3.32,1.8c.22.5.54.87.98,1.13.44.26.97.38,1.6.38.51,0,1.07-.18,1.67-.53.6-.35,1.16-.94,1.69-1.75l.12,2.04c-.34.46-.73.86-1.19,1.2s-.92.59-1.4.77c-.48.18-.94.26-1.39.26-.99,0-1.86-.2-2.6-.59s-1.33-.98-1.75-1.76c-.42-.78-.64-1.77-.64-2.95s.24-2.12.73-2.95c.49-.83,1.13-1.48,1.93-1.94.8-.46,1.67-.7,2.62-.7.85,0,1.64.17,2.39.5.74.34,1.39.85,1.94,1.55.55.7.99,1.56,1.31,2.6.32,1.04.48,2.27.48,3.7,0,1.68-.18,3.12-.54,4.33-.36,1.21-.86,2.19-1.49,2.95-.63.76-1.34,1.32-2.14,1.68s-1.62.54-2.48.54Z"/>
        <path class="cls-11" d="M668.47,157.53c-1.1,0-2.09-.2-2.95-.61-.86-.41-1.55-.97-2.05-1.68s-.76-1.52-.76-2.44c0-.74.15-1.39.46-1.96.3-.57.7-1.07,1.18-1.5s.98-.78,1.51-1.06v-.1c-.64-.46-1.19-1.02-1.66-1.68s-.7-1.43-.7-2.33.22-1.71.66-2.39c.44-.68,1.04-1.2,1.8-1.57.76-.37,1.63-.55,2.6-.55,1.02,0,1.9.2,2.64.59.74.39,1.31.93,1.72,1.62.41.69.61,1.49.61,2.4,0,.59-.12,1.14-.36,1.66-.24.51-.54.97-.89,1.37-.35.4-.71.74-1.08,1.01v.1c.53.3,1.02.66,1.48,1.06.46.4.82.88,1.09,1.43.27.55.41,1.21.41,1.98,0,.86-.24,1.65-.71,2.35-.47.7-1.14,1.26-1.99,1.68s-1.86.62-3.01.62ZM668.55,155.51c.59,0,1.12-.11,1.57-.34.46-.22.81-.54,1.07-.95.26-.41.38-.89.38-1.45,0-.5-.11-.92-.34-1.28-.22-.36-.54-.68-.94-.95-.4-.27-.86-.52-1.38-.76-.52-.23-1.08-.46-1.69-.68-.61.4-1.1.89-1.49,1.46-.38.58-.58,1.22-.58,1.94,0,.59.15,1.11.44,1.56.3.45.7.8,1.21,1.06.51.26,1.09.38,1.73.38ZM669.65,147.61c.51-.48.9-.98,1.16-1.51.26-.53.4-1.08.4-1.66,0-.53-.1-1-.31-1.42-.21-.42-.52-.74-.92-.98-.41-.24-.9-.36-1.48-.36-.72,0-1.32.22-1.8.66s-.72,1.05-.72,1.84c0,.62.17,1.14.52,1.55s.79.76,1.34,1.06c.55.3,1.16.57,1.81.83Z"/>
      </g>
      <g>
        <path class="cls-11" d="M562.63,408.84h.46l.38-.05,1.32.31c-.32,3.55-.97,6.46-1.96,8.71s-2.25,3.96-3.8,5.11c-.11-.16-.28-.34-.49-.54-.22-.2-.43-.4-.65-.59-.22-.19-.41-.34-.59-.43,1.52-1.02,2.72-2.53,3.61-4.51.89-1.98,1.46-4.51,1.72-7.58v-.43ZM557.51,402.03h5.14v2.02h-5.14v-2.02ZM561.83,402.03h.31l.34-.1,1.56.43c-.37.88-.79,1.86-1.27,2.94s-.98,2.17-1.5,3.26c-.52,1.1-1.02,2.13-1.5,3.11l-2.06-.55c.37-.72.75-1.48,1.15-2.29.4-.81.78-1.62,1.15-2.44.37-.82.71-1.58,1.03-2.28.32-.7.58-1.32.79-1.85v-.24ZM559.91,412.52c.48,1.62,1.11,2.92,1.9,3.92.78,1,1.7,1.76,2.75,2.28,1.05.52,2.21.88,3.49,1.07,1.28.19,2.66.29,4.15.29h4.7c.64,0,1.23,0,1.78-.01.54,0,.96-.02,1.25-.04-.11.16-.23.38-.35.65-.12.27-.23.55-.32.83-.1.28-.17.52-.22.73h-6.91c-1.73,0-3.32-.12-4.78-.35-1.46-.23-2.77-.67-3.94-1.32-1.17-.65-2.2-1.57-3.08-2.76-.89-1.19-1.63-2.74-2.22-4.64l1.8-.65ZM559.79,408.84h3.74v2.02h-3.89l.14-2.02ZM564.11,405.48h15.6v1.8h-15.6v-1.8ZM564.45,415.2h14.74v1.82h-14.74v-1.82ZM565.53,411.94h12.6v1.7h-12.6v-1.7ZM565.82,402.34h12.1v8.14h-12.24v-1.78h10.01v-4.61h-9.86v-1.75ZM570.52,400.78h2.18v18.53h-2.18v-18.53Z"/>
        <path class="cls-11" d="M591.12,416.33l1.73.77c-.56.59-1.21,1.15-1.96,1.68-.74.53-1.54,1.01-2.4,1.45-.86.44-1.74.84-2.65,1.19-.91.35-1.82.64-2.71.86-.16-.29-.38-.62-.66-.98-.28-.37-.53-.66-.76-.89.88-.16,1.77-.38,2.68-.65s1.77-.59,2.6-.95,1.6-.75,2.32-1.16,1.32-.86,1.81-1.32ZM585.26,400.44l2.14.55c-.46,1.04-1.04,2.05-1.72,3.04-.68.98-1.37,1.81-2.08,2.48-.13-.11-.3-.25-.53-.41-.22-.16-.45-.32-.68-.47-.23-.15-.44-.28-.64-.37.72-.59,1.39-1.32,2.02-2.17s1.12-1.74,1.49-2.65ZM582.1,411.99c.77-.1,1.64-.21,2.63-.35.98-.14,2.03-.29,3.13-.46s2.21-.34,3.31-.52l.1,1.75c-1.58.26-3.15.5-4.7.74-1.55.24-2.94.46-4.18.67l-.29-1.85ZM582.19,415.32h21.62v1.82h-21.62v-1.82ZM582.6,406.97h8.54v1.63h-8.54v-1.63ZM584.97,402.36h7.66v1.82h-7.66v-1.82ZM585.86,407.48h2.06v4.82h-2.06v-4.82ZM586.1,403.8l1.78-.48c.27.42.54.87.8,1.36.26.49.46.91.59,1.26l-1.87.55c-.1-.37-.27-.8-.52-1.3-.25-.5-.51-.96-.78-1.39ZM592.42,406.83h2.06v2.47c0,.67-.1,1.35-.31,2.03-.21.68-.61,1.32-1.2,1.92-.59.6-1.46,1.12-2.59,1.57-.08-.14-.21-.32-.4-.52-.18-.2-.38-.4-.58-.59-.2-.19-.37-.34-.52-.43,1.01-.35,1.76-.75,2.27-1.19s.84-.9,1.01-1.39c.17-.49.25-.98.25-1.48v-2.4ZM594.86,400.44l2.16.53c-.45,1.07-1.03,2.1-1.74,3.07-.71.98-1.44,1.78-2.2,2.42-.14-.11-.34-.24-.58-.37-.24-.14-.49-.27-.74-.41s-.47-.24-.65-.32c.78-.59,1.51-1.32,2.18-2.2s1.19-1.78,1.56-2.72ZM591.84,413.64h2.21v9.17h-2.21v-9.17ZM594.74,416.43c.51.45,1.13.87,1.85,1.27.72.4,1.5.76,2.35,1.09.85.33,1.72.62,2.63.88.9.26,1.8.46,2.68.6-.14.16-.31.35-.5.58s-.37.46-.53.7c-.16.24-.3.46-.41.67-.88-.22-1.78-.5-2.7-.83-.92-.33-1.81-.71-2.66-1.14-.86-.43-1.66-.91-2.4-1.44-.74-.53-1.4-1.08-1.96-1.66l1.66-.72ZM593.21,406.83h6.79v1.56h-6.79v-1.56ZM594.43,410.36l1.32-1.15c.37.21.75.46,1.14.74s.76.57,1.1.85.62.54.83.78l-1.34,1.32c-.34-.37-.79-.79-1.37-1.27-.58-.48-1.14-.9-1.68-1.27ZM594.48,402.36h9.53v1.82h-9.53v-1.82ZM596.52,403.8l1.85-.53c.37.38.73.82,1.08,1.31.35.49.61.93.77,1.33l-1.92.58c-.16-.37-.41-.8-.74-1.31s-.68-.96-1.03-1.38ZM598.9,406.83h2.14v4.61c0,.21,0,.38.01.5,0,.13.03.22.06.26.06.06.18.1.34.1h.53c.06,0,.14,0,.22-.02.08-.02.14-.03.17-.05.1-.06.17-.23.22-.5.03-.14.05-.37.06-.68,0-.31.02-.68.04-1.09.19.16.43.31.72.46.29.14.56.26.82.34-.03.45-.07.9-.11,1.34-.04.45-.1.77-.18.96-.14.4-.38.68-.72.84-.14.06-.32.12-.54.16-.22.04-.43.06-.64.06h-1.15c-.27,0-.54-.04-.8-.12-.26-.08-.48-.2-.66-.36-.19-.18-.32-.41-.4-.71-.07-.3-.11-.79-.11-1.48v-4.61Z"/>
        <path class="cls-11" d="M606.15,409.76h12.43v2.06h-12.43v-2.06ZM606.72,403.08h11.54v1.99h-11.54v-1.99ZM607.66,413.72h9.7v9.07h-2.21v-7.1h-5.38v7.2h-2.11v-9.17ZM608.16,405.84l1.9-.41c.26.58.48,1.21.67,1.91.19.7.32,1.3.38,1.81l-1.99.46c-.03-.51-.14-1.12-.32-1.82-.18-.7-.4-1.35-.64-1.94ZM608.45,419.57h7.7v1.99h-7.7v-1.99ZM611.38,400.71h2.21v3.62h-2.21v-3.62ZM614.86,405.32l2.16.48c-.26.69-.52,1.38-.78,2.08-.26.7-.52,1.29-.78,1.79l-1.8-.46c.16-.35.31-.76.46-1.21s.28-.92.42-1.4c.14-.48.24-.9.32-1.27ZM619.44,401.98h7.13v2.14h-4.9v18.74h-2.23v-20.88ZM625.97,401.98h.43l.36-.07,1.68,1.03c-.46,1.15-.97,2.38-1.52,3.67-.55,1.3-1.09,2.47-1.62,3.53.75.74,1.32,1.44,1.72,2.11.39.67.66,1.31.82,1.92.15.61.23,1.19.23,1.75,0,.8-.1,1.48-.29,2.04-.19.56-.51.99-.96,1.3-.43.29-.97.48-1.61.58-.29.03-.61.05-.96.05h-1.06c-.02-.32-.07-.7-.17-1.13-.1-.43-.24-.81-.43-1.13.34.03.64.05.92.06s.52,0,.73-.01c.19-.02.37-.04.53-.08.16-.04.31-.09.46-.16.24-.16.4-.39.49-.7.09-.3.13-.67.13-1.1,0-.7-.2-1.5-.59-2.38s-1.14-1.82-2.24-2.81c.27-.61.55-1.26.83-1.97s.56-1.41.83-2.11c.27-.7.52-1.37.73-2,.22-.63.4-1.17.56-1.62v-.77Z"/>
        <path class="cls-11" d="M630.84,401.64h2.23v21.22h-2.23v-21.22ZM631.92,405.24h6.38v1.66h-6.38v-1.66ZM632.11,401.64h7.58v9.02h-7.58v-1.85h5.45v-5.3h-5.45v-1.87ZM649.73,401.64v1.87h-5.88v5.33h5.88v1.87h-8.04v-9.07h8.04ZM642.99,405.24h6.48v1.66h-6.48v-1.66ZM648.53,401.64h2.28v18.31c0,.71-.09,1.24-.26,1.62-.18.38-.5.66-.96.85-.46.19-1.08.31-1.85.35s-1.71.06-2.83.06c-.03-.21-.09-.45-.18-.73-.09-.28-.19-.57-.3-.86s-.22-.54-.34-.73c.53.02,1.05.03,1.57.04.52,0,.98.01,1.38.01h.84c.24-.02.41-.07.5-.16.1-.09.14-.24.14-.47v-18.29Z"/>
        <path class="cls-11" d="M585.69,446.84v-1.61c1.65-1.62,3.06-3.05,4.24-4.31s2.08-2.39,2.7-3.41c.62-1.02.94-1.97.94-2.87,0-.64-.11-1.19-.32-1.66-.22-.46-.54-.82-.98-1.08-.44-.25-1-.38-1.67-.38s-1.32.2-1.9.59c-.58.39-1.1.85-1.58,1.38l-1.56-1.54c.75-.83,1.55-1.48,2.39-1.94.84-.46,1.84-.7,3.01-.7,1.07,0,2.01.22,2.81.65.8.43,1.42,1.04,1.86,1.81.44.78.66,1.68.66,2.72s-.29,2.1-.88,3.17c-.58,1.07-1.37,2.18-2.36,3.34-.99,1.15-2.1,2.37-3.34,3.65.46-.05.96-.09,1.48-.13.52-.04,1-.06,1.43-.06h4.51v2.38h-11.42Z"/>
        <path class="cls-11" d="M604.79,447.18c-1.1,0-2.09-.2-2.95-.61-.86-.41-1.55-.97-2.05-1.68s-.76-1.52-.76-2.44c0-.74.15-1.39.46-1.96.3-.57.7-1.07,1.18-1.5.48-.43.98-.78,1.51-1.06v-.1c-.64-.46-1.19-1.02-1.66-1.68-.46-.66-.7-1.43-.7-2.33s.22-1.71.66-2.39c.44-.68,1.04-1.2,1.8-1.57.76-.37,1.63-.55,2.6-.55,1.02,0,1.9.2,2.64.59.74.39,1.31.93,1.72,1.62.41.69.61,1.49.61,2.4,0,.59-.12,1.14-.36,1.66-.24.51-.54.97-.89,1.37-.35.4-.71.74-1.08,1.01v.1c.53.3,1.02.66,1.48,1.06.46.4.82.88,1.09,1.43.27.55.41,1.21.41,1.98,0,.86-.24,1.65-.71,2.35-.47.7-1.14,1.26-1.99,1.68s-1.86.62-3.01.62ZM604.87,445.16c.59,0,1.12-.11,1.57-.34.46-.22.81-.54,1.07-.95.26-.41.38-.89.38-1.45,0-.5-.11-.92-.34-1.28-.22-.36-.54-.68-.94-.95-.4-.27-.86-.52-1.38-.76-.52-.23-1.08-.46-1.69-.68-.61.4-1.1.89-1.49,1.46-.38.58-.58,1.22-.58,1.94,0,.59.15,1.11.44,1.56.3.45.7.8,1.21,1.06.51.26,1.09.38,1.73.38ZM605.97,437.27c.51-.48.9-.98,1.16-1.51.26-.53.4-1.08.4-1.66,0-.53-.1-1-.31-1.42-.21-.42-.52-.74-.92-.98-.41-.24-.9-.36-1.48-.36-.72,0-1.32.22-1.8.66-.48.44-.72,1.05-.72,1.84,0,.62.17,1.14.52,1.55s.79.76,1.34,1.06c.55.3,1.16.57,1.81.83Z"/>
        <path class="cls-11" d="M615.68,446.84c.08-1.55.22-2.98.42-4.3.2-1.31.49-2.55.86-3.72.38-1.17.86-2.31,1.44-3.42.58-1.11,1.29-2.24,2.12-3.4h-8.28v-2.35h11.35v1.7c-1.01,1.26-1.83,2.47-2.46,3.61-.63,1.14-1.13,2.31-1.49,3.5-.36,1.19-.62,2.46-.79,3.82-.17,1.35-.28,2.87-.35,4.55h-2.83Z"/>
      </g>
      <g>
        <path class="cls-11" d="M455.81,406.27h2.16c-.02,1.66-.06,3.31-.14,4.94-.08,1.63-.23,3.2-.46,4.69-.22,1.5-.55,2.88-.97,4.16s-1,2.42-1.72,3.41c-.18-.26-.42-.54-.74-.84-.32-.3-.62-.54-.91-.72.64-.86,1.14-1.88,1.5-3.05.36-1.17.63-2.44.82-3.8.18-1.37.3-2.8.36-4.28.06-1.49.09-2.99.11-4.51ZM453.31,405h10.2v2.14h-10.2v-2.14ZM460.25,410.11h2.06v.58c0,.14,0,.26-.02.36-.03,1.98-.07,3.66-.11,5.03-.04,1.37-.09,2.49-.16,3.36s-.14,1.55-.24,2.04c-.1.49-.22.84-.38,1.07-.21.29-.42.49-.65.61s-.5.2-.82.25c-.29.05-.66.07-1.1.07s-.93,0-1.44-.02c-.02-.3-.07-.65-.17-1.03-.1-.38-.22-.71-.38-.98.45.03.86.05,1.22.06s.63.01.79.01c.16.02.3,0,.41-.05.11-.05.22-.14.31-.29.14-.18.26-.62.34-1.34s.14-1.82.19-3.31c.05-1.49.1-3.48.14-5.98v-.43ZM456.89,410.11h4.08v2.09h-4.08v-2.09ZM457.32,401.23h2.18v4.51h-2.18v-4.51ZM465.7,401.18l2.23.46c-.42,1.68-.97,3.28-1.66,4.79-.69,1.51-1.49,2.78-2.4,3.8-.11-.13-.27-.29-.48-.49s-.42-.4-.64-.6c-.22-.2-.42-.36-.61-.49.85-.88,1.57-1.98,2.17-3.3.6-1.32,1.06-2.71,1.38-4.16ZM462.55,413.71l10.51-4.92.79,1.85-10.51,4.92-.79-1.85ZM464.59,409.08h2.04v11.26c0,.48.09.79.26.92.18.14.58.2,1.2.2h4.27c.34,0,.59-.06.77-.19.18-.13.3-.38.37-.77.07-.38.13-.95.18-1.7.24.18.54.34.9.48.36.14.68.26.97.34-.08.96-.22,1.72-.42,2.27-.2.55-.5.94-.91,1.18-.41.23-.98.35-1.72.35h-4.58c-.86,0-1.54-.09-2.03-.26-.49-.18-.83-.49-1.02-.94-.19-.45-.29-1.07-.29-1.87v-11.26ZM465.26,404.44h9.98v2.06h-9.98v-2.06ZM468.48,407.28h1.92v12h-1.92v-12ZM472.51,409.24h-.22l.46-.36.36-.26,1.42.53-.07.31c0,.86,0,1.68-.01,2.44,0,.76-.02,1.44-.02,2.05,0,.61-.02,1.12-.04,1.54-.02.42-.03.71-.05.89-.03.42-.14.74-.32.97-.18.23-.44.4-.76.49-.27.1-.58.16-.92.18-.34.02-.67.04-.97.04-.02-.27-.06-.57-.14-.9-.08-.33-.18-.6-.29-.83.19.02.39.02.6.02h.46c.13,0,.23-.02.3-.07.07-.05.12-.15.16-.31,0-.11,0-.34.02-.7.02-.35.02-.82.02-1.4s0-1.27.01-2.05c0-.78.01-1.64.01-2.57Z"/>
        <path class="cls-11" d="M477.61,419.44h21.72v2.28h-21.72v-2.28ZM478.88,403.82h19.18v2.35h-19.18v-2.35ZM487.09,405.07h2.54v15.29h-2.54v-15.29Z"/>
        <path class="cls-11" d="M503.84,401.06l2.14.55c-.46,1.07-1.04,2.11-1.72,3.11-.68,1-1.37,1.84-2.08,2.53-.13-.13-.31-.27-.54-.42-.23-.15-.46-.3-.7-.46-.23-.15-.44-.28-.61-.37.72-.61,1.39-1.35,2.02-2.23s1.12-1.78,1.49-2.71ZM501.39,407.92h20.52v4.63h-2.23v-2.9h-16.15v2.9h-2.14v-4.63ZM503.55,402.96h7.66v1.85h-7.66v-1.85ZM504.68,404.37l1.94-.53c.3.42.6.88.88,1.4.28.52.48.97.61,1.36l-2.04.6c-.11-.37-.3-.82-.56-1.37-.26-.54-.54-1.03-.83-1.46ZM504.96,410.95h2.16v12.55h-2.16v-12.55ZM506.21,410.95h12.05v5.06h-12.05v-1.68h9.79v-1.7h-9.79v-1.68ZM506.31,417.43h13.63v6.05h-2.26v-4.34h-11.38v-1.7ZM506.31,421.05h12.24v1.7h-12.24v-1.7ZM513.44,401.06l2.16.53c-.43,1.02-1,2-1.69,2.94-.7.94-1.42,1.72-2.17,2.34-.14-.11-.34-.24-.58-.38-.24-.14-.48-.28-.73-.42s-.47-.24-.66-.32c.78-.56,1.5-1.26,2.15-2.09s1.16-1.7,1.52-2.59ZM510.39,406.12h2.18v2.78h-2.18v-2.78ZM513.05,402.96h9.53v1.85h-9.53v-1.85ZM515.09,404.42l1.99-.58c.37.42.74.88,1.12,1.4.38.52.65.98.83,1.38l-2.06.62c-.18-.38-.44-.84-.79-1.38s-.71-1.02-1.08-1.45Z"/>
        <path class="cls-11" d="M524.39,418.8c.67-.18,1.43-.39,2.28-.65.85-.26,1.74-.54,2.69-.84.94-.3,1.89-.61,2.83-.91l.38,2.16c-1.31.45-2.64.9-3.98,1.34-1.34.45-2.56.86-3.65,1.22l-.55-2.33ZM524.66,402.72h7.7v2.11h-7.7v-2.11ZM524.9,409.65h7.1v2.09h-7.1v-2.09ZM527.51,403.56h2.16v14.81l-2.16.38v-15.19ZM531.42,420.65h15.53v2.06h-15.53v-2.06ZM533.2,415.7h12.96v2.06h-12.96v-2.06ZM533.42,402.26h12.43v10.97h-12.43v-10.97ZM535.48,404.2v2.62h8.21v-2.62h-8.21ZM535.48,408.65v2.64h8.21v-2.64h-8.21ZM538.65,403.15h1.94v9.14h.17v9.29h-2.3v-9.29h.19v-9.14Z"/>
        <path class="cls-11" d="M477.15,436.37h12.43v2.06h-12.43v-2.06ZM477.73,429.7h11.54v1.99h-11.54v-1.99ZM478.66,440.33h9.7v9.07h-2.21v-7.1h-5.38v7.2h-2.11v-9.17ZM479.17,432.46l1.9-.41c.26.58.48,1.21.67,1.91.19.7.32,1.3.38,1.81l-1.99.46c-.03-.51-.14-1.12-.32-1.82-.18-.7-.4-1.35-.64-1.94ZM479.46,446.19h7.7v1.99h-7.7v-1.99ZM482.38,427.32h2.21v3.62h-2.21v-3.62ZM485.86,431.93l2.16.48c-.26.69-.52,1.38-.78,2.08-.26.7-.52,1.29-.78,1.79l-1.8-.46c.16-.35.31-.76.46-1.21s.28-.92.42-1.4c.14-.48.24-.9.32-1.27ZM490.45,428.6h7.13v2.14h-4.9v18.74h-2.23v-20.88ZM496.98,428.6h.43l.36-.07,1.68,1.03c-.46,1.15-.97,2.38-1.52,3.67-.55,1.3-1.09,2.47-1.62,3.53.75.74,1.32,1.44,1.72,2.11s.66,1.31.82,1.92c.15.61.23,1.19.23,1.75,0,.8-.1,1.48-.29,2.04-.19.56-.51.99-.96,1.3-.43.29-.97.48-1.61.58-.29.03-.61.05-.96.05h-1.06c-.02-.32-.07-.7-.17-1.13-.1-.43-.24-.81-.43-1.13.34.03.64.05.92.06.28,0,.52,0,.73-.01.19-.02.37-.04.53-.08.16-.04.31-.09.46-.16.24-.16.4-.39.49-.7s.13-.67.13-1.1c0-.7-.2-1.5-.59-2.38s-1.14-1.82-2.24-2.81c.27-.61.55-1.26.83-1.97s.56-1.41.83-2.11.52-1.37.73-2c.22-.63.4-1.17.56-1.62v-.77Z"/>
        <path class="cls-11" d="M501.85,428.26h2.23v21.22h-2.23v-21.22ZM502.93,431.86h6.38v1.66h-6.38v-1.66ZM503.12,428.26h7.58v9.02h-7.58v-1.85h5.45v-5.3h-5.45v-1.87ZM520.74,428.26v1.87h-5.88v5.33h5.88v1.87h-8.04v-9.07h8.04ZM513.99,431.86h6.48v1.66h-6.48v-1.66ZM519.54,428.26h2.28v18.31c0,.7-.09,1.24-.26,1.62-.18.38-.5.66-.96.85-.46.19-1.08.31-1.85.35-.77.04-1.71.06-2.83.06-.03-.21-.09-.45-.18-.73-.09-.28-.19-.57-.3-.86-.11-.3-.22-.54-.34-.73.53.02,1.05.03,1.57.04.52,0,.98.01,1.38.01h.84c.24-.02.41-.07.5-.16.1-.09.14-.24.14-.47v-18.29Z"/>
        <path class="cls-11" d="M480.77,473.46v-1.61c1.65-1.62,3.06-3.05,4.24-4.31,1.18-1.26,2.08-2.39,2.7-3.41.62-1.02.94-1.97.94-2.87,0-.64-.11-1.19-.32-1.66s-.54-.82-.98-1.08c-.44-.26-1-.38-1.67-.38s-1.32.2-1.9.59c-.58.39-1.1.85-1.58,1.38l-1.56-1.54c.75-.83,1.55-1.48,2.39-1.94.84-.46,1.84-.7,3.01-.7,1.07,0,2.01.22,2.81.65.8.43,1.42,1.04,1.86,1.81.44.78.66,1.68.66,2.72s-.29,2.1-.88,3.17c-.58,1.07-1.37,2.18-2.36,3.34-.99,1.15-2.1,2.37-3.34,3.65.46-.05.96-.09,1.48-.13.52-.04,1-.06,1.43-.06h4.51v2.38h-11.42Z"/>
        <path class="cls-11" d="M499.88,473.8c-1.1,0-2.09-.2-2.95-.61-.86-.41-1.55-.97-2.05-1.68-.5-.71-.76-1.52-.76-2.44,0-.74.15-1.39.46-1.96.3-.57.7-1.07,1.18-1.5s.98-.78,1.51-1.06v-.1c-.64-.46-1.19-1.02-1.66-1.68s-.7-1.43-.7-2.33.22-1.71.66-2.39c.44-.68,1.04-1.2,1.8-1.57.76-.37,1.63-.55,2.6-.55,1.02,0,1.9.2,2.64.59.74.39,1.31.93,1.72,1.62.41.69.61,1.49.61,2.4,0,.59-.12,1.14-.36,1.66-.24.51-.54.97-.89,1.37-.35.4-.71.74-1.08,1.01v.1c.53.3,1.02.66,1.48,1.06s.82.88,1.09,1.43c.27.55.41,1.21.41,1.98,0,.86-.24,1.65-.71,2.35-.47.7-1.14,1.26-1.99,1.68s-1.86.62-3.01.62ZM499.95,471.78c.59,0,1.12-.11,1.57-.34s.81-.54,1.07-.95c.26-.41.38-.89.38-1.45,0-.5-.11-.92-.34-1.28-.22-.36-.54-.68-.94-.95-.4-.27-.86-.52-1.38-.76-.52-.23-1.08-.46-1.69-.68-.61.4-1.1.89-1.49,1.46-.38.58-.58,1.22-.58,1.94,0,.59.15,1.11.44,1.56.3.45.7.8,1.21,1.06.51.26,1.09.38,1.73.38ZM501.05,463.88c.51-.48.9-.98,1.16-1.51.26-.53.4-1.08.4-1.66,0-.53-.1-1-.31-1.42-.21-.42-.52-.74-.92-.98-.41-.24-.9-.36-1.48-.36-.72,0-1.32.22-1.8.66-.48.44-.72,1.05-.72,1.84,0,.62.17,1.14.52,1.55s.79.76,1.34,1.06c.55.3,1.16.57,1.81.83Z"/>
        <path class="cls-11" d="M507.66,473.46v-1.61c1.65-1.62,3.06-3.05,4.24-4.31,1.18-1.26,2.08-2.39,2.7-3.41.62-1.02.94-1.97.94-2.87,0-.64-.11-1.19-.32-1.66s-.54-.82-.98-1.08c-.44-.26-1-.38-1.67-.38s-1.32.2-1.9.59c-.58.39-1.1.85-1.58,1.38l-1.56-1.54c.75-.83,1.55-1.48,2.39-1.94.84-.46,1.84-.7,3.01-.7,1.07,0,2.01.22,2.81.65.8.43,1.42,1.04,1.86,1.81.44.78.66,1.68.66,2.72s-.29,2.1-.88,3.17c-.58,1.07-1.37,2.18-2.36,3.34-.99,1.15-2.1,2.37-3.34,3.65.46-.05.96-.09,1.48-.13.52-.04,1-.06,1.43-.06h4.51v2.38h-11.42Z"/>
      </g>
      <g>
        <path class="cls-11" d="M325.29,330.01l1.32.46c-.18.94-.4,1.93-.67,2.95-.27,1.02-.58,2.03-.91,3.02-.34.99-.7,1.91-1.09,2.76s-.8,1.58-1.21,2.18c-.11-.3-.28-.65-.49-1.03-.22-.38-.41-.7-.59-.96.38-.53.76-1.16,1.14-1.9.38-.74.72-1.52,1.04-2.36.32-.84.6-1.7.85-2.58.25-.88.45-1.73.61-2.54ZM322.17,328.66h7.85v2.11h-7.85v-2.11ZM325.34,323.55h2.06v22.25h-2.06v-22.25ZM327.29,332.02c.14.18.36.47.64.88.28.41.58.86.91,1.36.33.5.62.95.89,1.36.26.41.45.7.56.88l-1.22,1.68c-.13-.34-.32-.74-.56-1.22s-.51-.98-.78-1.49c-.27-.51-.54-.99-.79-1.43-.26-.44-.46-.8-.62-1.07l.98-.94ZM329.59,340.23h14.78v1.71h-14.78v-1.71ZM330.02,331.33h14.09v1.66h-14.09v-1.66ZM330.55,325.42h13.08v1.63h-13.08v-1.63ZM331.05,328.35h12.22v1.61h-12.22v-1.61ZM331.15,334.18h10.51v1.63h-8.45v9.89h-2.06v-11.52ZM332.25,337.21h9.48v1.54h-9.48v-1.54ZM333.19,323.55h2.11v8.54h-2.11v-8.54ZM335.9,332.29h2.06v8.69h-2.06v-8.69ZM340.82,334.18h2.09v9.36c0,.51-.06.91-.19,1.2-.13.29-.36.5-.7.65-.37.14-.83.23-1.38.26-.55.03-1.22.05-2,.05-.03-.26-.11-.56-.24-.91s-.26-.66-.38-.91c.53.02,1.02.03,1.48.04.46,0,.76,0,.92-.01.27,0,.41-.13.41-.38v-9.34ZM338.64,323.55h2.14v8.52h-2.14v-8.52Z"/>
        <path class="cls-11" d="M351.36,340.64c.54.83,1.3,1.45,2.27,1.86.97.41,2.12.64,3.44.68.69.03,1.5.05,2.45.06.94,0,1.94,0,3-.02,1.06-.02,2.08-.05,3.07-.08.99-.03,1.86-.08,2.62-.14-.1.18-.19.4-.29.68-.1.28-.18.56-.26.85-.08.29-.14.55-.19.79-.69.03-1.48.06-2.39.07-.9.02-1.84.03-2.81.04-.97,0-1.91,0-2.82,0-.91,0-1.71-.03-2.4-.06-1.52-.06-2.82-.31-3.9-.73-1.08-.42-2.01-1.11-2.8-2.05-.54.5-1.11.99-1.69,1.49-.58.5-1.2,1.01-1.86,1.54l-1.15-2.35c.56-.35,1.16-.76,1.81-1.22.65-.46,1.26-.93,1.84-1.39h2.06ZM351.36,332.96v8.66h-2.21v-6.55h-3.1v-2.11h5.3ZM346.2,325.49l1.68-1.37c.51.32,1.04.7,1.57,1.13.54.43,1.03.87,1.48,1.32.45.45.82.86,1.1,1.25l-1.8,1.49c-.26-.38-.6-.8-1.04-1.26-.44-.46-.92-.91-1.44-1.36s-1.04-.85-1.55-1.2ZM355.4,323.84l2.14.48c-.42,1.22-.96,2.39-1.62,3.53-.66,1.14-1.35,2.1-2.05,2.88-.16-.13-.36-.26-.59-.4s-.47-.27-.71-.41c-.24-.14-.46-.24-.65-.32.77-.71,1.45-1.57,2.05-2.6s1.08-2.08,1.43-3.16ZM352.3,330.99h15.48v1.94h-15.48v-1.94ZM354.36,334.57h11.81v6.91h-11.81v-6.91ZM355.32,326.43h11.45v1.94h-11.45v-1.94ZM356.57,336.41v3.22h7.25v-3.22h-7.25ZM358.97,323.55h2.23v8.74h-2.23v-8.74Z"/>
        <path class="cls-11" d="M371.11,324.92l1.92.31c-.11,1.07-.25,2.14-.42,3.19-.17,1.05-.36,2.05-.59,2.97-.22.93-.49,1.75-.79,2.47-.13-.1-.29-.21-.49-.34-.2-.13-.41-.26-.62-.38-.22-.13-.4-.23-.54-.31.29-.66.53-1.42.72-2.28.19-.86.36-1.78.49-2.74.14-.96.24-1.93.32-2.9ZM369.77,336.77c.77-.19,1.64-.42,2.63-.7s2.02-.57,3.12-.89c1.1-.32,2.2-.64,3.3-.96l.29,2.02c-1.5.46-3.03.94-4.58,1.42-1.55.48-2.94.91-4.18,1.3l-.58-2.18ZM371.5,328.35h7.03v2.16h-7.44l.41-2.16ZM374.16,323.55h2.11v22.27h-2.11v-22.27ZM381.63,323.55l2.06.38c-.29,1.33-.65,2.61-1.09,3.84-.44,1.23-.94,2.38-1.51,3.44-.57,1.06-1.18,2-1.84,2.8-.13-.11-.3-.25-.5-.42-.21-.17-.42-.33-.65-.49-.22-.16-.42-.29-.6-.38.67-.7,1.27-1.54,1.79-2.52.52-.98.98-2.03,1.37-3.16s.72-2.29.97-3.49ZM383.98,328.11l1.68.84c-.34,1.39-.8,2.81-1.38,4.26-.58,1.45-1.26,2.8-2.03,4.04-.77,1.25-1.6,2.28-2.5,3.1-.21-.21-.48-.44-.8-.68-.33-.25-.65-.45-.97-.61.7-.56,1.37-1.24,1.99-2.05.62-.81,1.19-1.7,1.7-2.69.51-.98.96-2.01,1.34-3.07.38-1.06.7-2.11.96-3.13ZM387.36,328.33l1.78.82c-.29,1.6-.67,3.18-1.15,4.75-.48,1.57-1.04,3.07-1.69,4.51s-1.38,2.75-2.21,3.94c-.82,1.18-1.75,2.18-2.77,3-.21-.21-.49-.45-.85-.71s-.7-.48-1.02-.64c1.06-.75,2.01-1.69,2.86-2.82.85-1.13,1.6-2.39,2.24-3.78.65-1.39,1.21-2.86,1.68-4.4.47-1.54.85-3.1,1.14-4.67ZM381.84,327.44h8.93v2.11h-9.91l.98-2.11ZM389.81,327.44h2.16v.68c0,.17,0,.31-.02.42-.13,2.72-.26,5.02-.4,6.91-.14,1.89-.28,3.44-.42,4.66s-.31,2.17-.49,2.86c-.18.69-.4,1.18-.64,1.46-.26.37-.52.62-.79.77-.27.14-.6.25-.98.31-.32.05-.72.08-1.21.08-.49,0-1,0-1.52-.04-.02-.34-.08-.72-.18-1.14-.1-.42-.25-.79-.44-1.09.51.05.98.08,1.39.08.42,0,.74.01.96.01.21,0,.38-.03.5-.08.13-.06.26-.16.41-.32.18-.22.34-.65.5-1.27s.31-1.52.44-2.69c.14-1.17.26-2.66.38-4.48s.24-4.02.35-6.61v-.53Z"/>
        <path class="cls-11" d="M313.35,356.01l1.34.46c-.18.96-.4,1.95-.67,2.98-.27,1.02-.58,2.03-.92,3.01s-.71,1.9-1.1,2.76c-.39.86-.8,1.59-1.24,2.2-.13-.3-.3-.65-.52-1.03-.22-.38-.41-.71-.59-.98.4-.53.78-1.16,1.15-1.88.37-.73.72-1.52,1.04-2.37.33-.85.62-1.71.89-2.59.26-.88.47-1.73.61-2.54ZM310.18,354.61h7.73v2.11h-7.73v-2.11ZM313.37,349.55h2.11v22.25h-2.11v-22.25ZM315.36,358.1c.13.16.33.44.61.83.28.39.58.82.91,1.28.33.46.62.9.89,1.3.26.4.44.68.54.84l-1.2,1.78c-.14-.32-.33-.71-.56-1.18s-.48-.95-.74-1.45c-.26-.5-.52-.97-.77-1.4-.25-.43-.45-.78-.61-1.03l.94-.96ZM323.79,356.32h2.06v6.26c0,.88-.1,1.76-.29,2.64-.19.88-.55,1.73-1.07,2.56-.52.82-1.28,1.59-2.27,2.3-.99.71-2.29,1.33-3.89,1.86-.06-.16-.17-.35-.32-.56-.15-.22-.31-.43-.47-.64-.16-.21-.31-.37-.46-.48,1.5-.48,2.7-1.01,3.59-1.6.89-.58,1.56-1.22,2-1.9.45-.68.74-1.38.89-2.09.14-.71.22-1.43.22-2.15v-6.22ZM324.84,351.57c-.45.66-1.01,1.32-1.68,2-.67.68-1.42,1.32-2.23,1.93-.82.61-1.66,1.14-2.52,1.58-.11-.29-.28-.61-.49-.97s-.42-.66-.61-.9c.9-.42,1.75-.93,2.57-1.54.82-.61,1.56-1.27,2.22-1.98s1.2-1.42,1.62-2.12h2.09c.56.78,1.21,1.53,1.94,2.24.74.71,1.52,1.35,2.35,1.91.83.56,1.66,1.01,2.5,1.34-.21.26-.42.57-.64.95-.22.38-.4.72-.54,1.04-.8-.42-1.62-.92-2.45-1.51s-1.6-1.24-2.32-1.93-1.32-1.38-1.81-2.05ZM318.72,358.98h12.41v6.41h-12.41v-6.41ZM320.4,355.17h9v1.87h-9v-1.87ZM320.72,360.73v2.86h8.35v-2.86h-8.35ZM326.07,364.24c.48,1.18,1.03,2.15,1.64,2.89.62.74,1.32,1.34,2.1,1.78.78.44,1.66.81,2.64,1.12-.27.24-.53.53-.78.88-.25.34-.43.69-.54,1.04-1.07-.42-2.04-.91-2.9-1.49-.86-.58-1.63-1.33-2.3-2.26s-1.26-2.11-1.78-3.55l1.92-.41Z"/>
        <path class="cls-11" d="M342.83,353.05l1.87.74c-.53.77-1.14,1.52-1.85,2.26-.7.74-1.46,1.42-2.28,2.05-.82.63-1.66,1.2-2.54,1.7-.88.5-1.77.93-2.66,1.29-.16-.27-.38-.58-.65-.94-.27-.35-.53-.63-.77-.84.85-.29,1.7-.65,2.56-1.09.86-.44,1.68-.94,2.47-1.49s1.52-1.14,2.18-1.76c.66-.62,1.22-1.26,1.67-1.92ZM334.41,369.35h21.62v2.02h-21.62v-2.02ZM334.53,352.43h21.38v1.99h-21.38v-1.99ZM338.44,359.97h13.61v10.46h-2.35v-8.57h-9.02v8.66h-2.23v-10.56ZM339.52,363.23h11.35v1.63h-11.35v-1.63ZM339.52,366.26h11.35v1.66h-11.35v-1.66ZM344.01,349.55h2.26v9.72h-2.26v-9.72ZM347.35,353.1c.46.64,1.03,1.26,1.7,1.87.67.61,1.41,1.17,2.21,1.69.8.52,1.64.99,2.53,1.42.89.42,1.77.77,2.65,1.04-.16.14-.33.32-.52.54s-.36.44-.53.67c-.17.23-.31.44-.42.63-.91-.34-1.82-.75-2.71-1.25-.9-.5-1.76-1.06-2.58-1.68-.82-.62-1.59-1.29-2.3-2-.71-.71-1.33-1.45-1.86-2.22l1.82-.72Z"/>
        <path class="cls-11" d="M358.39,358.72h12.43v2.06h-12.43v-2.06ZM358.96,352.05h11.54v1.99h-11.54v-1.99ZM359.9,362.68h9.7v9.07h-2.21v-7.1h-5.38v7.2h-2.11v-9.17ZM360.4,354.81l1.9-.41c.26.58.48,1.21.67,1.91.19.7.32,1.3.38,1.81l-1.99.46c-.03-.51-.14-1.12-.32-1.82-.18-.7-.4-1.35-.64-1.94ZM360.69,368.53h7.7v1.99h-7.7v-1.99ZM363.62,349.67h2.21v3.62h-2.21v-3.62ZM367.1,354.28l2.16.48c-.26.69-.52,1.38-.78,2.08-.26.7-.52,1.29-.78,1.79l-1.8-.46c.16-.35.31-.76.46-1.21s.28-.92.42-1.4c.14-.48.24-.9.32-1.27ZM371.68,350.94h7.13v2.14h-4.9v18.74h-2.23v-20.88ZM378.21,350.94h.43l.36-.07,1.68,1.03c-.46,1.15-.97,2.38-1.52,3.67-.55,1.3-1.09,2.47-1.62,3.53.75.74,1.32,1.44,1.72,2.11s.66,1.31.82,1.92c.15.61.23,1.19.23,1.75,0,.8-.1,1.48-.29,2.04-.19.56-.51.99-.96,1.29-.43.29-.97.48-1.61.58-.29.03-.61.05-.96.05h-1.06c-.02-.32-.07-.7-.17-1.13-.1-.43-.24-.81-.43-1.13.34.03.64.05.92.06.28,0,.52,0,.73-.01.19-.02.37-.04.53-.08.16-.04.31-.09.46-.16.24-.16.4-.39.49-.7.09-.3.13-.67.13-1.1,0-.71-.2-1.5-.59-2.38-.39-.88-1.14-1.82-2.24-2.81.27-.61.55-1.26.83-1.97s.56-1.41.83-2.11.52-1.37.73-2c.22-.63.4-1.17.56-1.62v-.77Z"/>
        <path class="cls-11" d="M383.08,350.61h2.23v21.22h-2.23v-21.22ZM384.16,354.21h6.38v1.66h-6.38v-1.66ZM384.35,350.61h7.58v9.02h-7.58v-1.85h5.45v-5.3h-5.45v-1.87ZM401.97,350.61v1.87h-5.88v5.33h5.88v1.87h-8.04v-9.07h8.04ZM395.23,354.21h6.48v1.66h-6.48v-1.66ZM400.77,350.61h2.28v18.31c0,.7-.09,1.24-.26,1.62-.18.38-.5.66-.96.85-.46.19-1.08.31-1.85.35s-1.71.06-2.83.06c-.03-.21-.09-.45-.18-.73-.09-.28-.19-.57-.3-.86-.11-.3-.22-.54-.34-.73.53.02,1.05.03,1.57.04.52,0,.98.01,1.38.01h.84c.24-.02.41-.07.5-.16.1-.09.14-.24.14-.47v-18.29Z"/>
        <path class="cls-11" d="M341.33,395.81c.08-1.55.22-2.98.42-4.29.2-1.31.49-2.55.86-3.72s.86-2.31,1.44-3.42c.58-1.11,1.29-2.24,2.12-3.4h-8.28v-2.35h11.35v1.7c-1.01,1.26-1.83,2.47-2.46,3.61s-1.13,2.31-1.49,3.5-.62,2.46-.79,3.82c-.17,1.35-.28,2.87-.35,4.55h-2.83Z"/>
        <path class="cls-11" d="M356.58,396.14c-.93,0-1.75-.11-2.46-.34-.71-.22-1.34-.52-1.88-.9s-1.02-.78-1.42-1.21l1.34-1.78c.53.51,1.13.96,1.8,1.34.67.38,1.46.58,2.38.58.67,0,1.26-.11,1.75-.34.5-.22.88-.54,1.16-.96.28-.42.42-.91.42-1.49,0-.64-.16-1.19-.47-1.64s-.85-.81-1.61-1.07c-.76-.26-1.8-.38-3.13-.38v-2.06c1.17,0,2.08-.13,2.75-.4.66-.26,1.14-.62,1.44-1.06s.44-.93.44-1.48c0-.77-.24-1.37-.72-1.81s-1.14-.66-1.99-.66c-.67,0-1.3.16-1.88.47-.58.31-1.13.72-1.64,1.21l-1.44-1.73c.7-.62,1.47-1.14,2.3-1.55.83-.41,1.75-.61,2.76-.61s1.99.18,2.81.53c.82.35,1.46.86,1.92,1.53.46.66.7,1.47.7,2.41,0,.99-.28,1.82-.83,2.48-.55.66-1.29,1.17-2.22,1.52v.12c.67.16,1.28.43,1.84.82.55.38.99.87,1.31,1.45.32.58.48,1.27.48,2.05,0,1.04-.27,1.93-.8,2.66-.54.74-1.25,1.3-2.15,1.69-.9.39-1.88.59-2.95.59Z"/>
        <path class="cls-11" d="M369.38,396.14c-1.01,0-1.88-.19-2.6-.56s-1.34-.82-1.84-1.33l1.51-1.73c.32.4.73.72,1.24.96.5.24,1.02.36,1.55.36.77,0,1.47-.22,2.11-.67.64-.45,1.15-1.2,1.54-2.26.38-1.06.58-2.48.58-4.27,0-1.42-.14-2.6-.43-3.52-.29-.92-.69-1.6-1.21-2.04s-1.14-.66-1.86-.66c-.51,0-.98.13-1.39.41s-.74.66-.98,1.18c-.24.51-.36,1.14-.36,1.87s.11,1.3.32,1.8c.22.5.54.87.98,1.13.44.26.97.38,1.6.38.51,0,1.07-.18,1.67-.53.6-.35,1.16-.94,1.69-1.75l.12,2.04c-.34.46-.73.86-1.19,1.2-.46.34-.92.59-1.4.77-.48.18-.94.26-1.39.26-.99,0-1.86-.2-2.6-.59-.74-.39-1.33-.98-1.75-1.76-.42-.78-.64-1.77-.64-2.95s.24-2.12.73-2.95c.49-.83,1.13-1.48,1.93-1.95.8-.46,1.67-.7,2.62-.7.85,0,1.64.17,2.39.5.74.34,1.39.85,1.94,1.55.55.7.99,1.56,1.31,2.6.32,1.04.48,2.27.48,3.7,0,1.68-.18,3.12-.54,4.33-.36,1.21-.86,2.19-1.49,2.95-.63.76-1.34,1.32-2.14,1.68-.79.36-1.62.54-2.48.54Z"/>
      </g>
    </g>
  </g>
</svg>