<?xml version="1.0" encoding="UTF-8"?>
<svg xmlns="http://www.w3.org/2000/svg" viewBox="0 0 583.91 617.6">
  <defs>
    <style>
      .cls-1 {
        fill: #ff3a3a;
        mix-blend-mode: multiply;
        opacity: .2;
      }

      .cls-1, .cls-2, .cls-3, .cls-4, .cls-5, .cls-6 {
        stroke-width: 0px;
      }

      .cls-7 {
        isolation: isolate;
      }

      .cls-2 {
        fill: rgba(63, 166, 242, .55);
      }

      .cls-3 {
        fill: #0085b9;
      }

      .cls-4 {
        fill: #fff;
      }

      .cls-5 {
        fill: #ff8ba9;
      }

      .cls-6 {
        fill: #4d4d4d;
      }
    </style>
  </defs>
  <g class="cls-7">
    <g id="_レイヤー_2" data-name="レイヤー 2">
      <g id="_レイヤー_1-2" data-name="レイヤー 1">
        <g>
          <path class="cls-1" d="M185.36,173.24L54.61,59.59C88.38,20.74,133.88,0,185.36,0v173.24Z"/>
          <path class="cls-2" d="M185.36,173.24V0c95.68,0,173.24,77.56,173.24,173.24s-77.56,173.24-173.24,173.24S12.12,268.92,12.12,173.24c0-44.11,13.56-80.37,42.49-113.66l130.75,113.66Z"/>
          <g>
            <path class="cls-6" d="M85.97,199.03h40.92c.49,0,1.02.2,1.57.6.55.4.83.98.83,1.74v13.85c0,.72-.28,1.29-.83,1.71-.55.42-1.07.63-1.57.63h-57.1c-.76,0-1.34-.28-1.74-.83s-.6-1.07-.6-1.57v-22.68c.23-.95.72-1.69,1.48-2.22l41.77-29.4v-10.66h-24.5v9.92c0,.49-.2,1.02-.6,1.57-.4.55-.98.83-1.74.83h-13.85c-.76,0-1.34-.28-1.74-.83s-.6-1.07-.6-1.57v-26.1c0-.72.27-1.29.83-1.71.55-.42,1.07-.63,1.57-.63h56.81c.72,0,1.29.28,1.71.83.42.55.63,1.07.63,1.57v30.77c0,.38-.09.98-.26,1.79-.17.82-.39,1.34-.66,1.57l-42.34,29.97v.85Z"/>
            <path class="cls-6" d="M200.69,134.35v80.8c0,.49-.21,1.02-.63,1.57-.42.55-.99.83-1.71.83h-57.1c-.76,0-1.34-.28-1.74-.83s-.6-1.07-.6-1.57v-80.8c0-.49.2-1.02.6-1.57s.98-.83,1.74-.83h57.1c.72,0,1.29.28,1.71.83.42.55.63,1.07.63,1.57ZM182.17,199.03v-48.55h-24.73v48.55h24.73Z"/>
            <path class="cls-6" d="M272.15,134.35v33.11c0,.46-.67,1.43-2.02,2.94-1.35,1.5-2.4,2.27-3.16,2.31.8,0,1.86.66,3.19,1.97,1.33,1.31,1.99,2.33,1.99,3.05v37.44c0,.49-.21,1.02-.63,1.57-.42.55-.99.83-1.71.83h-57.1c-.76,0-1.34-.28-1.74-.83s-.6-1.07-.6-1.57v-37.21c0-.46.67-1.44,2.02-2.96,1.35-1.52,2.4-2.28,3.16-2.28-.76,0-1.81-.76-3.16-2.28-1.35-1.52-2.02-2.51-2.02-2.96v-33.11c0-.49.2-1.02.6-1.57s.98-.83,1.74-.83h57.1c.72,0,1.29.28,1.71.83.42.55.63,1.07.63,1.57ZM253.63,164.04v-13.56h-24.73v13.56h24.73ZM253.63,199.03v-16.47h-24.73v16.47h24.73Z"/>
            <path class="cls-6" d="M291,177.76c-2.22,1.34-4.43,2.39-6.83,3.38l-4.67-8.17c2.86-.99,5.72-2.28,8.34-3.79,4.61-2.68,8.69-6.24,11.61-10.85l10.44.93c-.7,1.17-1.46,2.33-2.28,3.5h21.3v7.64c-4.78,7.06-10.27,12.25-17.45,16.86h21.18v26.96h-8.87v-1.81h-22.58v1.81h-8.81v-17.45c-3.33,1.28-6.71,2.39-10.09,3.38l-4.03-9.1c7.18-1.4,13.89-3.33,20.54-6.42-2.45-2.45-5.02-4.84-7.82-6.88ZM317.61,170.41h-16.75c-.88.82-1.81,1.58-2.68,2.33,3.09,2.16,6.19,4.61,8.93,7.18,4.08-2.86,7.24-5.78,10.5-9.51ZM301.21,195.44v8.58h22.58v-8.58h-22.58Z"/>
          </g>
          <g>
            <path class="cls-6" d="M105.95,54.41h14.77c.18,0,.37.07.57.22.2.14.3.35.3.63v5c0,.26-.1.47-.3.62-.2.15-.39.23-.57.23h-20.61c-.27,0-.48-.1-.63-.3-.14-.2-.22-.39-.22-.57v-8.18c.08-.34.26-.61.53-.8l15.07-10.61v-3.85h-8.84v3.58c0,.18-.07.37-.22.57-.14.2-.35.3-.63.3h-5c-.27,0-.48-.1-.63-.3-.14-.2-.22-.39-.22-.57v-9.42c0-.26.1-.47.3-.62.2-.15.39-.23.57-.23h20.5c.26,0,.47.1.62.3.15.2.23.39.23.57v11.11c0,.14-.03.35-.09.65s-.14.48-.24.57l-15.28,10.82v.31Z"/>
            <path class="cls-6" d="M149.03,31.07v11.95c0,.17-.24.52-.73,1.06s-.87.82-1.14.83c.29,0,.67.24,1.15.71.48.47.72.84.72,1.1v13.51c0,.18-.08.37-.23.57-.15.2-.36.3-.62.3h-20.61c-.27,0-.48-.1-.63-.3-.14-.2-.22-.39-.22-.57v-13.43c0-.16.24-.52.73-1.07.49-.55.87-.82,1.14-.82-.27,0-.65-.27-1.14-.82-.49-.55-.73-.9-.73-1.07v-11.95c0-.18.07-.37.22-.57.14-.2.35-.3.63-.3h20.61c.26,0,.47.1.62.3.15.2.23.39.23.57ZM142.34,41.78v-4.89h-8.93v4.89h8.93ZM142.34,54.41v-5.94h-8.93v5.94h8.93Z"/>
            <path class="cls-6" d="M157.52,46.73c-.8.48-1.6.86-2.46,1.22l-1.68-2.95c1.03-.36,2.06-.82,3.01-1.37,1.66-.97,3.14-2.25,4.19-3.92l3.77.34c-.25.42-.53.84-.82,1.26h7.69v2.76c-1.73,2.55-3.71,4.42-6.3,6.09h7.64v9.73h-3.2v-.65h-8.15v.65h-3.18v-6.3c-1.2.46-2.42.86-3.64,1.22l-1.45-3.28c2.59-.51,5.01-1.2,7.41-2.32-.88-.88-1.81-1.75-2.82-2.49ZM167.12,44.08h-6.04c-.32.29-.65.57-.97.84,1.12.78,2.23,1.66,3.22,2.59,1.47-1.03,2.61-2.08,3.79-3.43ZM161.2,53.11v3.09h8.15v-3.09h-8.15Z"/>
          </g>
          <g>
            <path class="cls-6" d="M186.95,230.35v29.16c0,.18-.08.37-.23.57-.15.2-.36.3-.62.3h-5c-.26,0-.47-.1-.62-.3-.15-.2-.23-.39-.23-.57v-23.34h-2.41c-.18,0-.37-.08-.57-.23-.2-.15-.3-.36-.3-.62v-5c0-.26.1-.47.3-.62.2-.15.39-.23.57-.23h8.25c.26,0,.47.1.62.3.15.2.23.39.23.57Z"/>
            <path class="cls-6" d="M214.42,230.35v11.95c0,.17-.24.52-.73,1.06s-.87.82-1.14.83c.29,0,.67.24,1.15.71.48.47.72.84.72,1.1v13.51c0,.18-.08.37-.23.57-.15.2-.36.3-.62.3h-20.61c-.27,0-.48-.1-.63-.3-.14-.2-.22-.39-.22-.57v-13.43c0-.16.24-.52.73-1.07.49-.55.87-.82,1.14-.82-.27,0-.65-.27-1.14-.82-.49-.55-.73-.9-.73-1.07v-11.95c0-.18.07-.37.22-.57.14-.2.35-.3.63-.3h20.61c.26,0,.47.1.62.3.15.2.23.39.23.57ZM207.74,241.06v-4.89h-8.93v4.89h8.93ZM207.74,253.69v-5.94h-8.93v5.94h8.93Z"/>
            <path class="cls-6" d="M241.9,230.35v29.16c0,.18-.08.37-.23.57-.15.2-.36.3-.62.3h-20.61c-.27,0-.48-.1-.63-.3-.14-.2-.22-.39-.22-.57v-29.16c0-.18.07-.37.22-.57.14-.2.35-.3.63-.3h20.61c.26,0,.47.1.62.3.15.2.23.39.23.57ZM235.22,253.69v-17.52h-8.93v17.52h8.93Z"/>
            <path class="cls-6" d="M254.6,246.01c-.8.48-1.6.86-2.46,1.22l-1.68-2.95c1.03-.36,2.06-.82,3.01-1.37,1.66-.97,3.14-2.25,4.19-3.92l3.77.34c-.25.42-.53.84-.82,1.26h7.69v2.76c-1.73,2.55-3.71,4.42-6.3,6.09h7.64v9.73h-3.2v-.65h-8.15v.65h-3.18v-6.3c-1.2.46-2.42.86-3.64,1.22l-1.45-3.28c2.59-.51,5.01-1.2,7.41-2.32-.88-.88-1.81-1.75-2.82-2.49ZM264.2,243.36h-6.04c-.32.29-.65.57-.97.84,1.12.78,2.23,1.66,3.22,2.59,1.47-1.03,2.61-2.08,3.79-3.43ZM258.28,252.39v3.09h8.15v-3.09h-8.15Z"/>
          </g>
          <g>
            <circle class="cls-5" cx="35.26" cy="371.73" r="9.86"/>
            <path class="cls-5" d="M60.18,396.45c0-6.05-4.9-10.95-10.95-10.95h-27.93c-6.01,0-10.88,4.84-10.95,10.83-.05.26-.07,34.06-.07,34.06,0,2.46,2,4.46,4.46,4.46s4.46-2,4.46-4.46v-29.25h2.91l-.02,79.02c0,3.12,2.53,5.65,5.65,5.65s5.65-2.53,5.65-5.65v-46.61h3.87v46.61c0,3.12,2.53,5.65,5.65,5.65s5.65-2.53,5.65-5.65l-.17-79.02h2.97v29.25c0,2.46,2,4.46,4.46,4.46s4.46-2,4.46-4.46l-.06-33.95Z"/>
          </g>
          <g>
            <circle class="cls-5" cx="98.46" cy="371.73" r="9.86"/>
            <path class="cls-5" d="M123.39,396.45c0-6.05-4.9-10.95-10.95-10.95h-27.93c-6.01,0-10.88,4.84-10.95,10.83-.05.26-.07,34.06-.07,34.06,0,2.46,2,4.46,4.46,4.46s4.46-2,4.46-4.46v-29.25h2.91l-.02,79.02c0,3.12,2.53,5.65,5.65,5.65s5.65-2.53,5.65-5.65v-46.61h3.87v46.61c0,3.12,2.53,5.65,5.65,5.65s5.65-2.53,5.65-5.65l-.17-79.02h2.97v29.25c0,2.46,2,4.46,4.46,4.46s4.46-2,4.46-4.46l-.06-33.95Z"/>
          </g>
          <g>
            <circle class="cls-3" cx="161.67" cy="371.73" r="9.86"/>
            <path class="cls-3" d="M186.59,396.45c0-6.05-4.9-10.95-10.95-10.95h-27.93c-6.01,0-10.88,4.84-10.95,10.83-.05.26-.07,34.06-.07,34.06,0,2.46,2,4.46,4.46,4.46s4.46-2,4.46-4.46v-29.25h2.91l-.02,79.02c0,3.12,2.53,5.65,5.65,5.65s5.65-2.53,5.65-5.65v-46.61h3.87v46.61c0,3.12,2.53,5.65,5.65,5.65s5.65-2.53,5.65-5.65l-.17-79.02h2.97v29.25c0,2.46,2,4.46,4.46,4.46s4.46-2,4.46-4.46l-.06-33.95Z"/>
          </g>
          <g>
            <circle class="cls-3" cx="224.87" cy="371.73" r="9.86"/>
            <path class="cls-3" d="M249.8,396.45c0-6.05-4.9-10.95-10.95-10.95h-27.93c-6.01,0-10.88,4.84-10.95,10.83-.05.26-.07,34.06-.07,34.06,0,2.46,2,4.46,4.46,4.46s4.46-2,4.46-4.46v-29.25h2.91l-.02,79.02c0,3.12,2.53,5.65,5.65,5.65s5.65-2.53,5.65-5.65v-46.61h3.87v46.61c0,3.12,2.53,5.65,5.65,5.65s5.65-2.53,5.65-5.65l-.17-79.02h2.97v29.25c0,2.46,2,4.46,4.46,4.46s4.46-2,4.46-4.46l-.06-33.95Z"/>
          </g>
          <g>
            <circle class="cls-3" cx="288.08" cy="371.73" r="9.86"/>
            <path class="cls-3" d="M313,396.45c0-6.05-4.9-10.95-10.95-10.95h-27.93c-6.01,0-10.88,4.84-10.95,10.83-.05.26-.07,34.06-.07,34.06,0,2.46,2,4.46,4.46,4.46s4.46-2,4.46-4.46v-29.25h2.91l-.02,79.02c0,3.12,2.53,5.65,5.65,5.65s5.65-2.53,5.65-5.65v-46.61h3.87v46.61c0,3.12,2.53,5.65,5.65,5.65s5.65-2.53,5.65-5.65l-.17-79.02h2.97v29.25c0,2.46,2,4.46,4.46,4.46s4.46-2,4.46-4.46l-.06-33.95Z"/>
          </g>
          <g>
            <circle class="cls-3" cx="351.28" cy="371.73" r="9.86"/>
            <path class="cls-3" d="M376.21,396.45c0-6.05-4.9-10.95-10.95-10.95h-27.93c-6.01,0-10.88,4.84-10.95,10.83-.05.26-.07,34.06-.07,34.06,0,2.46,2,4.46,4.46,4.46s4.46-2,4.46-4.46v-29.25h2.91l-.02,79.02c0,3.12,2.53,5.65,5.65,5.65s5.65-2.53,5.65-5.65v-46.61h3.87v46.61c0,3.12,2.53,5.65,5.65,5.65s5.65-2.53,5.65-5.65l-.17-79.02h2.97v29.25c0,2.46,2,4.46,4.46,4.46s4.46-2,4.46-4.46l-.06-33.95Z"/>
          </g>
          <g>
            <circle class="cls-3" cx="161.67" cy="500.96" r="9.86"/>
            <path class="cls-3" d="M186.59,525.68c0-6.05-4.9-10.95-10.95-10.95h-27.93c-6.01,0-10.88,4.84-10.95,10.83-.05.26-.07,34.06-.07,34.06,0,2.46,2,4.46,4.46,4.46s4.46-2,4.46-4.46v-29.25h2.91l-.02,79.02c0,3.12,2.53,5.65,5.65,5.65s5.65-2.53,5.65-5.65v-46.61h3.87v46.61c0,3.12,2.53,5.65,5.65,5.65s5.65-2.53,5.65-5.65l-.17-79.02h2.97v29.25c0,2.46,2,4.46,4.46,4.46s4.46-2,4.46-4.46l-.06-33.95Z"/>
          </g>
          <g>
            <circle class="cls-3" cx="224.87" cy="500.96" r="9.86"/>
            <path class="cls-3" d="M249.8,525.68c0-6.05-4.9-10.95-10.95-10.95h-27.93c-6.01,0-10.88,4.84-10.95,10.83-.05.26-.07,34.06-.07,34.06,0,2.46,2,4.46,4.46,4.46s4.46-2,4.46-4.46v-29.25h2.91l-.02,79.02c0,3.12,2.53,5.65,5.65,5.65s5.65-2.53,5.65-5.65v-46.61h3.87v46.61c0,3.12,2.53,5.65,5.65,5.65s5.65-2.53,5.65-5.65l-.17-79.02h2.97v29.25c0,2.46,2,4.46,4.46,4.46s4.46-2,4.46-4.46l-.06-33.95Z"/>
          </g>
          <g>
            <circle class="cls-3" cx="288.08" cy="500.96" r="9.86"/>
            <path class="cls-3" d="M313,525.68c0-6.05-4.9-10.95-10.95-10.95h-27.93c-6.01,0-10.88,4.84-10.95,10.83-.05.26-.07,34.06-.07,34.06,0,2.46,2,4.46,4.46,4.46s4.46-2,4.46-4.46v-29.25h2.91l-.02,79.02c0,3.12,2.53,5.65,5.65,5.65s5.65-2.53,5.65-5.65v-46.61h3.87v46.61c0,3.12,2.53,5.65,5.65,5.65s5.65-2.53,5.65-5.65l-.17-79.02h2.97v29.25c0,2.46,2,4.46,4.46,4.46s4.46-2,4.46-4.46l-.06-33.95Z"/>
          </g>
          <g>
            <circle class="cls-3" cx="351.28" cy="500.96" r="9.86"/>
            <path class="cls-3" d="M376.21,525.68c0-6.05-4.9-10.95-10.95-10.95h-27.93c-6.01,0-10.88,4.84-10.95,10.83-.05.26-.07,34.06-.07,34.06,0,2.46,2,4.46,4.46,4.46s4.46-2,4.46-4.46v-29.25h2.91l-.02,79.02c0,3.12,2.53,5.65,5.65,5.65s5.65-2.53,5.65-5.65v-46.61h3.87v46.61c0,3.12,2.53,5.65,5.65,5.65s5.65-2.53,5.65-5.65l-.17-79.02h2.97v29.25c0,2.46,2,4.46,4.46,4.46s4.46-2,4.46-4.46l-.06-33.95Z"/>
          </g>
          <g>
            <circle class="cls-5" cx="78.31" cy="496.69" r="4.73"/>
            <path class="cls-5" d="M90.27,508.55c0-2.9-2.35-5.25-5.25-5.25h-13.4c-2.88,0-5.22,2.32-5.25,5.2-.02.12-.04,16.34-.04,16.34,0,1.18.96,2.14,2.14,2.14s2.14-.96,2.14-2.14v-14.03h1.39v37.91c0,1.5,1.2,2.71,2.7,2.71s2.71-1.21,2.71-2.71v-22.36h1.85v22.36c0,1.5,1.21,2.71,2.71,2.71s2.71-1.21,2.71-2.71l-.08-37.91h1.42v14.03c0,1.18.96,2.14,2.14,2.14s2.14-.96,2.14-2.14l-.03-16.29Z"/>
          </g>
          <g>
            <circle class="cls-5" cx="111.48" cy="496.69" r="4.73"/>
            <path class="cls-5" d="M123.43,508.55c0-2.9-2.35-5.25-5.25-5.25h-13.4c-2.88,0-5.22,2.32-5.25,5.2-.02.12-.04,16.34-.04,16.34,0,1.18.96,2.14,2.14,2.14s2.14-.96,2.14-2.14v-14.03h1.39v37.91c0,1.5,1.2,2.71,2.7,2.71s2.71-1.21,2.71-2.71v-22.36h1.85v22.36c0,1.5,1.21,2.71,2.71,2.71s2.71-1.21,2.71-2.71l-.08-37.91h1.42v14.03c0,1.18.96,2.14,2.14,2.14s2.14-.96,2.14-2.14l-.03-16.29Z"/>
          </g>
          <g>
            <circle class="cls-5" cx="11.98" cy="496.69" r="4.73"/>
            <path class="cls-5" d="M23.94,508.55c0-2.9-2.35-5.25-5.25-5.25H5.29c-2.88,0-5.22,2.32-5.25,5.2-.02.12-.04,16.34-.04,16.34,0,1.18.96,2.14,2.14,2.14s2.14-.96,2.14-2.14v-14.03h1.39v37.91c0,1.5,1.2,2.71,2.7,2.71s2.71-1.21,2.71-2.71v-22.36h1.85v22.36c0,1.5,1.21,2.71,2.71,2.71s2.71-1.21,2.71-2.71l-.08-37.91h1.42v14.03c0,1.18.96,2.14,2.14,2.14s2.14-.96,2.14-2.14l-.03-16.29Z"/>
          </g>
          <g>
            <circle class="cls-5" cx="45.15" cy="496.69" r="4.73"/>
            <path class="cls-5" d="M57.11,508.55c0-2.9-2.35-5.25-5.25-5.25h-13.4c-2.88,0-5.22,2.32-5.25,5.2-.02.12-.04,16.34-.04,16.34,0,1.18.96,2.14,2.14,2.14s2.14-.96,2.14-2.14v-14.03h1.39v37.91c0,1.5,1.2,2.71,2.7,2.71s2.71-1.21,2.71-2.71v-22.36h1.85v22.36c0,1.5,1.21,2.71,2.71,2.71s2.71-1.21,2.71-2.71l-.08-37.91h1.42v14.03c0,1.18.96,2.14,2.14,2.14s2.14-.96,2.14-2.14l-.03-16.29Z"/>
          </g>
          <g>
            <circle class="cls-5" cx="78.31" cy="558.95" r="4.73"/>
            <path class="cls-5" d="M90.27,570.81c0-2.9-2.35-5.25-5.25-5.25h-13.4c-2.88,0-5.22,2.32-5.25,5.2-.02.12-.04,16.34-.04,16.34,0,1.18.96,2.14,2.14,2.14s2.14-.96,2.14-2.14v-14.03h1.39v37.91c0,1.5,1.2,2.71,2.7,2.71s2.71-1.21,2.71-2.71v-22.36h1.85v22.36c0,1.5,1.21,2.71,2.71,2.71s2.71-1.21,2.71-2.71l-.08-37.91h1.42v14.03c0,1.18.96,2.14,2.14,2.14s2.14-.96,2.14-2.14l-.03-16.29Z"/>
          </g>
          <g>
            <circle class="cls-5" cx="111.48" cy="558.95" r="4.73"/>
            <path class="cls-5" d="M123.43,570.81c0-2.9-2.35-5.25-5.25-5.25h-13.4c-2.88,0-5.22,2.32-5.25,5.2-.02.12-.04,16.34-.04,16.34,0,1.18.96,2.14,2.14,2.14s2.14-.96,2.14-2.14v-14.03h1.39v37.91c0,1.5,1.2,2.71,2.7,2.71s2.71-1.21,2.71-2.71v-22.36h1.85v22.36c0,1.5,1.21,2.71,2.71,2.71s2.71-1.21,2.71-2.71l-.08-37.91h1.42v14.03c0,1.18.96,2.14,2.14,2.14s2.14-.96,2.14-2.14l-.03-16.29Z"/>
          </g>
          <g>
            <circle class="cls-5" cx="11.98" cy="558.95" r="4.73"/>
            <path class="cls-5" d="M23.94,570.81c0-2.9-2.35-5.25-5.25-5.25H5.29c-2.88,0-5.22,2.32-5.25,5.2-.02.12-.04,16.34-.04,16.34,0,1.18.96,2.14,2.14,2.14s2.14-.96,2.14-2.14v-14.03h1.39v37.91c0,1.5,1.2,2.71,2.7,2.71s2.71-1.21,2.71-2.71v-22.36h1.85v22.36c0,1.5,1.21,2.71,2.71,2.71s2.71-1.21,2.71-2.71l-.08-37.91h1.42v14.03c0,1.18.96,2.14,2.14,2.14s2.14-.96,2.14-2.14l-.03-16.29Z"/>
          </g>
          <g>
            <circle class="cls-5" cx="45.15" cy="558.95" r="4.73"/>
            <path class="cls-5" d="M57.11,570.81c0-2.9-2.35-5.25-5.25-5.25h-13.4c-2.88,0-5.22,2.32-5.25,5.2-.02.12-.04,16.34-.04,16.34,0,1.18.96,2.14,2.14,2.14s2.14-.96,2.14-2.14v-14.03h1.39v37.91c0,1.5,1.2,2.71,2.7,2.71s2.71-1.21,2.71-2.71v-22.36h1.85v22.36c0,1.5,1.21,2.71,2.71,2.71s2.71-1.21,2.71-2.71l-.08-37.91h1.42v14.03c0,1.18.96,2.14,2.14,2.14s2.14-.96,2.14-2.14l-.03-16.29Z"/>
          </g>
          <g>
            <circle class="cls-3" cx="494.01" cy="207.02" r="35.48"/>
            <path class="cls-3" d="M583.71,295.98c0-21.76-17.64-39.4-39.41-39.4h-100.53c-21.62,0-39.17,17.41-39.39,38.98-.16.92-.27,122.59-.27,122.59,0,8.86,7.18,16.04,16.04,16.04s16.04-7.18,16.04-16.04v-105.26h10.46l-.07,284.39c0,11.22,9.1,20.32,20.32,20.32s20.32-9.1,20.32-20.32v-167.72h13.91v167.72c0,11.22,9.1,20.32,20.32,20.32s20.32-9.1,20.32-20.32l-.62-284.39h10.68v105.26c0,8.86,7.18,16.04,16.04,16.04s16.04-7.18,16.04-16.04l-.2-122.17Z"/>
          </g>
          <rect class="cls-4" x="85.04" y="70.97" width="100.32" height="29.39"/>
          <g>
            <path class="cls-6" d="M90.36,96.16v-2.99h5.1v-15.49h-4.16v-2.3c1.09-.21,2.04-.46,2.85-.74.81-.28,1.55-.62,2.22-1.02h2.74v19.55h4.5v2.99h-13.25Z"/>
            <path class="cls-6" d="M114.06,96.6c-1.22,0-2.29-.15-3.23-.44-.93-.29-1.76-.69-2.47-1.18-.71-.49-1.33-1.02-1.86-1.59l1.76-2.33c.69.67,1.48,1.26,2.36,1.76s1.92.76,3.12.76c.88,0,1.65-.15,2.3-.44.65-.29,1.16-.71,1.53-1.26s.55-1.2.55-1.95c0-.84-.21-1.56-.61-2.16-.41-.6-1.11-1.06-2.11-1.4-1-.34-2.37-.5-4.11-.5v-2.71c1.53,0,2.73-.17,3.6-.52.87-.35,1.5-.81,1.89-1.38.39-.58.58-1.22.58-1.94,0-1.01-.31-1.8-.94-2.38-.63-.58-1.5-.87-2.61-.87-.88,0-1.71.21-2.47.61s-1.48.94-2.16,1.59l-1.89-2.27c.92-.82,1.93-1.5,3.02-2.03,1.09-.54,2.3-.8,3.62-.8s2.61.23,3.68.69,1.91,1.13,2.52,2c.61.87.91,1.92.91,3.16,0,1.3-.36,2.39-1.09,3.26s-1.69,1.54-2.91,2v.16c.88.21,1.68.57,2.41,1.07.72.5,1.3,1.14,1.72,1.9.42.77.63,1.66.63,2.69,0,1.36-.35,2.53-1.05,3.49-.7.97-1.64,1.71-2.82,2.22-1.18.51-2.47.77-3.87.77Z"/>
            <path class="cls-6" d="M128.26,96.6c-.67,0-1.24-.25-1.72-.74-.47-.49-.71-1.11-.71-1.84s.24-1.37.71-1.84c.47-.47,1.04-.71,1.72-.71s1.27.24,1.75.71c.47.47.71,1.09.71,1.84s-.24,1.35-.71,1.84c-.47.49-1.05.74-1.75.74Z"/>
            <path class="cls-6" d="M141.38,96.6c-1.2,0-2.27-.15-3.21-.44s-1.77-.68-2.49-1.17c-.71-.48-1.34-.99-1.89-1.51l1.73-2.36c.44.44.92.85,1.45,1.21.52.37,1.12.67,1.78.9.66.23,1.4.35,2.22.35.86,0,1.64-.18,2.33-.55.69-.37,1.24-.9,1.64-1.59.4-.69.6-1.51.6-2.46,0-1.43-.4-2.54-1.21-3.34-.81-.8-1.87-1.2-3.2-1.2-.73,0-1.36.11-1.89.33-.52.22-1.12.55-1.79.99l-1.79-1.13.69-11.02h11.74v3.08h-8.59l-.54,5.92c.5-.25,1.01-.45,1.51-.58.5-.14,1.06-.21,1.67-.21,1.3,0,2.49.25,3.56.74s1.92,1.26,2.55,2.3c.63,1.04.94,2.37.94,3.98s-.37,3.03-1.1,4.19c-.73,1.15-1.69,2.04-2.88,2.64-1.19.61-2.46.91-3.82.91Z"/>
            <path class="cls-6" d="M157.44,87.19c-1.07,0-2.01-.29-2.83-.87-.82-.58-1.45-1.42-1.9-2.52-.45-1.1-.68-2.43-.68-3.98s.23-2.87.68-3.95c.45-1.08,1.09-1.91,1.9-2.47.82-.57,1.76-.85,2.83-.85s2.05.28,2.86.85c.82.57,1.45,1.39,1.9,2.47.45,1.08.68,2.4.68,3.95s-.23,2.88-.68,3.98c-.45,1.1-1.09,1.94-1.9,2.52-.82.58-1.77.87-2.86.87ZM157.44,85.08c.82,0,1.48-.43,2-1.29.51-.86.77-2.18.77-3.97s-.26-3.08-.77-3.9c-.51-.82-1.18-1.23-2-1.23s-1.46.41-1.98,1.23c-.52.82-.79,2.12-.79,3.9s.26,3.11.79,3.97c.52.86,1.19,1.29,1.98,1.29ZM158.16,96.6l12.69-24.05h2.3l-12.69,24.05h-2.3ZM173.9,96.6c-1.07,0-2.01-.29-2.83-.88-.82-.59-1.45-1.43-1.9-2.52-.45-1.09-.68-2.41-.68-3.97s.23-2.9.68-3.97c.45-1.07,1.09-1.89,1.9-2.47.82-.58,1.76-.87,2.83-.87s2.01.29,2.83.87c.82.58,1.45,1.4,1.9,2.47.45,1.07.68,2.39.68,3.97s-.23,2.88-.68,3.97c-.45,1.09-1.09,1.93-1.9,2.52-.82.59-1.76.88-2.83.88ZM173.9,94.43c.8,0,1.46-.42,2-1.26.54-.84.8-2.15.8-3.94s-.27-3.12-.8-3.93-1.2-1.23-2-1.23-1.46.41-1.98,1.23c-.52.82-.79,2.13-.79,3.93s.26,3.1.79,3.94c.52.84,1.19,1.26,1.98,1.26Z"/>
          </g>
          <g>
            <path class="cls-6" d="M143.44,6.15l3.52.29c-.42,1.35-.86,2.7-1.37,4.02h10.89v3.14h-2.55c-.67,2.53-1.71,4.86-3.41,6.89,1.85.91,3.69,1.87,5.41,2.99l-2.76,2.82c-1.73-1.26-3.54-2.4-5.43-3.43-2.97,1.9-6.42,2.8-9.88,3.31l-1.18-3.24c2.67-.19,5.22-.61,7.67-1.75-2-.95-4.09-1.71-6.19-2.42.91-1.68,1.77-3.41,2.53-5.16h-4.08v-3.14h5.37c.55-1.41,1.05-2.86,1.47-4.32ZM150.45,13.6h-6.11c-.55,1.22-1.1,2.42-1.68,3.62,1.64.55,3.24,1.16,4.82,1.87,1.54-1.5,2.44-3.45,2.97-5.5Z"/>
            <path class="cls-6" d="M158.96,17.22l-1.73-1.33c.4-1.41.57-2.97.63-5.64l1.77.06c-.02,3.01-.17,5.03-.67,6.91ZM163.93,15.12c.4-.67.72-1.28,1.01-2.02l-1.03.8c-.25-.88-.48-1.58-.82-2.38v14.7h-2.97V6.21h2.97v4.06l1.22-.82c.42.72.8,1.45,1.09,2.23.42-1.45.65-3.2.78-4.72l2.82.48c-.08.95-.21,1.89-.4,2.84h1.31v-4.08h3.22v4.08h4.06v2.95h-4.06v3.14h3.56v2.86h-3.56v3.33h4.4v2.95h-13.48v-2.95h5.85v-3.33h-3.77v-2.57l-2.21-1.56ZM169.91,16.38v-3.14h-2.06c-.32,1.07-.72,2.15-1.26,3.14h3.33Z"/>
          </g>
          <g>
            <path class="cls-6" d="M140.23,251.24h8.65c-.02,1.39-.32,5.94-.69,7.1-.42,1.33-1.1,1.85-2.51,1.85h-4.08l-.69-3.05h3.31c.57,0,.86-.27,1.03-.91.13-.48.19-1.16.25-2.06h-6.09c-.78,1.81-2.13,3.18-3.73,4.21-1.45.91-3.12,1.54-4.78,1.94l-1.52-3.1c2.15-.4,5.07-1.22,6.44-3.05h-6.25v-2.93h7.43c.08-.36.15-.69.21-1.05h-6.32v-9.31h17.2v9.31h-7.75c-.02.34-.06.7-.13,1.05ZM133.95,243.37v1.16h4.09v-1.16h-4.09ZM133.95,246.61v1.18h4.09v-1.18h-4.09ZM140.86,243.37v1.16h4.15v-1.16h-4.15ZM140.86,246.61v1.18h4.15v-1.18h-4.15Z"/>
            <path class="cls-6" d="M151.96,251.22l-1.73-1.33c.4-1.41.57-2.97.63-5.64l1.77.06c-.02,3.01-.17,5.03-.67,6.91ZM156.93,249.12c.4-.67.72-1.28,1.01-2.02l-1.03.8c-.25-.88-.48-1.58-.82-2.38v14.7h-2.97v-20h2.97v4.06l1.22-.82c.42.72.8,1.45,1.09,2.23.42-1.45.65-3.2.78-4.72l2.82.48c-.08.95-.21,1.89-.4,2.84h1.31v-4.08h3.22v4.08h4.06v2.95h-4.06v3.14h3.56v2.86h-3.56v3.33h4.4v2.95h-13.48v-2.95h5.85v-3.33h-3.77v-2.57l-2.21-1.56ZM162.91,250.38v-3.14h-2.06c-.32,1.07-.72,2.15-1.26,3.14h3.33Z"/>
          </g>
          <g>
            <rect class="cls-4" x="175.74" y="267.89" width="100.32" height="29.39"/>
            <g>
              <path class="cls-6" d="M187.38,293.52c-1.45,0-2.74-.27-3.87-.8-1.13-.54-2.03-1.27-2.69-2.2-.66-.93-.99-2-.99-3.2,0-.96.2-1.82.6-2.57.4-.75.91-1.4,1.54-1.97.63-.57,1.29-1.03,1.98-1.38v-.13c-.84-.61-1.56-1.34-2.17-2.2-.61-.86-.91-1.88-.91-3.05s.29-2.24.87-3.13c.58-.89,1.36-1.58,2.36-2.06,1-.48,2.14-.72,3.42-.72,1.34,0,2.5.26,3.46.77.96.51,1.72,1.22,2.25,2.12.53.9.8,1.95.8,3.15,0,.78-.16,1.5-.47,2.17-.31.67-.7,1.27-1.16,1.79-.46.53-.93.97-1.42,1.32v.13c.69.4,1.34.86,1.94,1.38.6.53,1.08,1.15,1.43,1.87.36.72.54,1.59.54,2.6,0,1.13-.31,2.16-.93,3.08s-1.49,1.66-2.61,2.2c-1.12.55-2.44.82-3.95.82ZM187.47,290.87c.78,0,1.46-.15,2.06-.44.6-.29,1.06-.71,1.4-1.24.34-.54.5-1.17.5-1.9,0-.65-.15-1.21-.44-1.68-.29-.47-.7-.89-1.23-1.24-.52-.36-1.13-.69-1.81-.99-.68-.3-1.42-.6-2.22-.9-.8.52-1.45,1.17-1.95,1.92-.5.76-.76,1.61-.76,2.55,0,.78.19,1.46.58,2.05.39.59.92,1.05,1.59,1.39.67.34,1.43.5,2.27.5ZM188.92,280.52c.67-.63,1.18-1.29,1.53-1.98.35-.69.52-1.42.52-2.17,0-.69-.14-1.31-.41-1.86-.27-.54-.68-.98-1.21-1.29-.54-.32-1.18-.47-1.94-.47-.94,0-1.73.29-2.36.87-.63.58-.94,1.38-.94,2.41,0,.82.23,1.5.68,2.03.45.54,1.04,1,1.76,1.38.72.39,1.52.75,2.38,1.09Z"/>
              <path class="cls-6" d="M205.98,293.52c-1.11,0-2.16-.23-3.13-.68-.98-.45-1.83-1.13-2.55-2.03-.72-.9-1.3-2.04-1.72-3.42-.42-1.38-.63-3-.63-4.86,0-2.22.24-4.12.71-5.68s1.12-2.85,1.94-3.86c.82-1.01,1.75-1.74,2.8-2.2,1.05-.46,2.15-.69,3.31-.69,1.3,0,2.43.24,3.38.72.95.48,1.76,1.07,2.41,1.76l-1.98,2.2c-.42-.5-.96-.91-1.61-1.23-.65-.31-1.33-.47-2.05-.47-1.01,0-1.93.29-2.77.88-.84.59-1.51,1.57-2.01,2.94-.5,1.38-.76,3.25-.76,5.62,0,1.87.19,3.41.57,4.61.38,1.21.91,2.1,1.61,2.69s1.5.88,2.42.88c.67,0,1.28-.18,1.83-.55.55-.37.98-.89,1.31-1.57.33-.68.49-1.5.49-2.44s-.15-1.7-.46-2.34c-.3-.64-.74-1.13-1.31-1.46s-1.26-.5-2.08-.5c-.67,0-1.4.22-2.19.66-.79.44-1.53,1.21-2.22,2.3l-.16-2.64c.46-.61.99-1.13,1.57-1.57.59-.44,1.2-.78,1.84-1.02.64-.24,1.24-.36,1.81-.36,1.3,0,2.44.26,3.43.77.99.51,1.75,1.29,2.3,2.31.55,1.03.82,2.32.82,3.87s-.32,2.78-.96,3.87c-.64,1.09-1.48,1.95-2.52,2.57-1.04.62-2.19.93-3.45.93Z"/>
              <path class="cls-6" d="M218.95,293.52c-.67,0-1.24-.25-1.72-.74-.47-.49-.71-1.11-.71-1.84s.24-1.37.71-1.84c.47-.47,1.04-.71,1.72-.71s1.27.24,1.75.71c.47.47.71,1.09.71,1.84s-.24,1.35-.71,1.84c-.47.49-1.05.74-1.75.74Z"/>
              <path class="cls-6" d="M232.08,293.52c-1.2,0-2.27-.15-3.21-.44s-1.77-.68-2.49-1.17c-.71-.48-1.34-.99-1.89-1.51l1.73-2.36c.44.44.92.85,1.45,1.21.52.37,1.12.67,1.78.9.66.23,1.4.35,2.22.35.86,0,1.64-.18,2.33-.55.69-.37,1.24-.9,1.64-1.59.4-.69.6-1.51.6-2.46,0-1.43-.4-2.54-1.21-3.34-.81-.8-1.87-1.2-3.2-1.2-.73,0-1.36.11-1.89.33-.52.22-1.12.55-1.79.99l-1.79-1.13.69-11.02h11.74v3.08h-8.59l-.54,5.92c.5-.25,1.01-.45,1.51-.58.5-.14,1.06-.21,1.67-.21,1.3,0,2.49.25,3.56.74s1.92,1.26,2.55,2.3c.63,1.04.94,2.37.94,3.98s-.37,3.03-1.1,4.19c-.73,1.15-1.69,2.04-2.88,2.64-1.19.61-2.46.91-3.82.91Z"/>
              <path class="cls-6" d="M248.13,284.1c-1.07,0-2.01-.29-2.83-.87-.82-.58-1.45-1.42-1.9-2.52-.45-1.1-.68-2.43-.68-3.98s.23-2.87.68-3.95c.45-1.08,1.09-1.91,1.9-2.47.82-.57,1.76-.85,2.83-.85s2.05.28,2.86.85c.82.57,1.45,1.39,1.9,2.47.45,1.08.68,2.4.68,3.95s-.23,2.88-.68,3.98c-.45,1.1-1.09,1.94-1.9,2.52-.82.58-1.77.87-2.86.87ZM248.13,281.99c.82,0,1.48-.43,2-1.29.51-.86.77-2.18.77-3.97s-.26-3.08-.77-3.9c-.51-.82-1.18-1.23-2-1.23s-1.46.41-1.98,1.23c-.52.82-.79,2.12-.79,3.9s.26,3.11.79,3.97c.52.86,1.19,1.29,1.98,1.29ZM248.86,293.52l12.69-24.05h2.3l-12.69,24.05h-2.3ZM264.6,293.52c-1.07,0-2.01-.29-2.83-.88-.82-.59-1.45-1.43-1.9-2.52-.45-1.09-.68-2.41-.68-3.97s.23-2.9.68-3.97c.45-1.07,1.09-1.89,1.9-2.47.82-.58,1.76-.87,2.83-.87s2.01.29,2.83.87c.82.58,1.45,1.4,1.9,2.47.45,1.07.68,2.39.68,3.97s-.23,2.88-.68,3.97c-.45,1.09-1.09,1.93-1.9,2.52-.82.59-1.76.88-2.83.88ZM264.6,291.34c.8,0,1.46-.42,2-1.26.54-.84.8-2.15.8-3.94s-.27-3.12-.8-3.93-1.2-1.23-2-1.23-1.46.41-1.98,1.23c-.52.82-.79,2.13-.79,3.93s.26,3.1.79,3.94c.52.84,1.19,1.26,1.98,1.26Z"/>
            </g>
          </g>
        </g>
      </g>
    </g>
  </g>
</svg>