<?xml version="1.0" encoding="UTF-8"?>
<svg id="_レイヤー_2" data-name="レイヤー 2" xmlns="http://www.w3.org/2000/svg" viewBox="0 0 604.8 603.93">
  <defs>
    <style>
      .cls-1 {
        fill: rgba(255, 255, 0, .55);
      }

      .cls-1, .cls-2, .cls-3, .cls-4, .cls-5, .cls-6, .cls-7, .cls-8, .cls-9, .cls-10 {
        stroke-width: 0px;
      }

      .cls-2 {
        fill: #202020;
      }

      .cls-3 {
        fill: #000;
      }

      .cls-4 {
        fill: #9f9f9f;
      }

      .cls-5 {
        fill: #dfdfdf;
      }

      .cls-6 {
        fill: #bfbfbf;
      }

      .cls-7 {
        fill: #404040;
      }

      .cls-8 {
        fill: gray;
      }

      .cls-9 {
        fill: #fff;
      }

      .cls-10 {
        fill: #4d4d4d;
      }
    </style>
  </defs>
  <g id="_レイヤー_1-2" data-name="レイヤー 1">
    <g>
      <g>
        <path class="cls-6" d="M302.26,301.93L74.39,103.85C133.24,36.14,212.54,0,302.26,0v301.93Z"/>
        <path class="cls-2" d="M302.26,301.93L26.43,179.12c13.02-29.25,26.95-51.12,47.96-75.28l227.87,198.08Z"/>
        <path class="cls-4" d="M302.26,301.93L8.06,369.85C-7.05,304.37-.91,240.52,26.43,179.12l275.83,122.81Z"/>
        <path class="cls-7" d="M302.26,301.93l-15.8,301.52c-137.55-7.21-247.41-99.39-278.39-233.6l294.19-67.92Z"/>
        <path class="cls-8" d="M302.26,301.93l194.08,231.29c-61.31,51.45-129.95,74.41-209.88,70.22l15.8-301.52Z"/>
        <path class="cls-5" d="M302.26,301.93l277.93-117.97c52.58,123.87,19.23,262.77-83.85,349.27l-194.08-231.29Z"/>
        <path class="cls-3" d="M302.26,301.93V0c125.06,0,229.06,68.84,277.93,183.96l-277.93,117.97Z"/>
      </g>
      <path class="cls-1" d="M580.18,183.96C531.32,68.84,427.32,0,302.26,0,212.54,0,133.24,36.14,74.39,103.85c-21,24.16-34.94,46.03-47.96,75.28C-.91,240.52-7.05,304.37,8.06,369.85c30.98,134.21,140.84,226.39,278.39,233.6,79.93,4.19,148.56-18.78,209.88-70.22,103.09-86.5,136.43-225.4,83.85-349.27Z"/>
      <g>
        <path class="cls-9" d="M341.42,116.68h20.99v2.14h-20.99v-2.14ZM342.93,105.65h17.95v2.16h-17.95v-2.16ZM350.69,98.33h2.35v19.76h-2.35v-19.76Z"/>
        <path class="cls-9" d="M373.45,105.02l1.93.67c-.53,1.21-1.14,2.38-1.85,3.53-.71,1.15-1.48,2.23-2.31,3.26s-1.72,1.97-2.66,2.82c-.94.85-1.9,1.58-2.89,2.18-.12-.19-.28-.4-.48-.63-.19-.23-.39-.46-.6-.69s-.4-.41-.57-.57c.96-.51,1.9-1.15,2.82-1.92.92-.77,1.8-1.62,2.64-2.57s1.59-1.94,2.26-2.97c.67-1.04,1.24-2.08,1.71-3.13ZM364.99,103.88h20.27v2.16h-20.27v-2.16ZM373.93,98.29h2.35v21.55h-2.35v-21.55ZM376.7,105.09c.5,1.02,1.09,2.04,1.78,3.05.69,1.01,1.45,1.99,2.29,2.91.84.93,1.71,1.77,2.64,2.53.92.76,1.85,1.4,2.78,1.93-.17.14-.36.32-.58.55-.22.22-.42.46-.6.7-.19.24-.34.46-.46.66-.96-.62-1.9-1.35-2.82-2.19-.92-.84-1.8-1.78-2.64-2.8-.84-1.02-1.61-2.1-2.32-3.23-.71-1.13-1.35-2.28-1.9-3.44l1.86-.67Z"/>
        <path class="cls-9" d="M387.54,102.14h8.96v1.76h-8.96v-1.76ZM388.59,111.66h1.9v7.9h-1.9v-7.9ZM388.63,105.35h7.06v1.7h-7.06v-1.7ZM388.63,108.48h7.06v1.7h-7.06v-1.7ZM388.75,99.05h6.9v1.72h-6.9v-1.72ZM389.66,111.66h5.99v6.9h-5.99v-1.77h4.09v-3.37h-4.09v-1.77ZM398.16,98.98h2.07v2.83c0,.7-.07,1.43-.22,2.19-.15.77-.43,1.51-.86,2.22-.43.71-1.05,1.35-1.87,1.9-.09-.14-.24-.3-.44-.49-.2-.19-.41-.37-.63-.55-.22-.18-.4-.3-.56-.38.73-.5,1.27-1.02,1.63-1.58.36-.56.59-1.12.71-1.7.12-.57.17-1.13.17-1.67v-2.79ZM405.75,108.32h.42l.37-.07,1.44.53c-.4,1.53-.96,2.9-1.67,4.1-.71,1.2-1.55,2.25-2.52,3.15-.97.9-2.03,1.66-3.19,2.29-1.16.63-2.4,1.13-3.72,1.52-.06-.2-.16-.42-.3-.66s-.29-.48-.44-.71c-.15-.23-.3-.43-.44-.58,1.19-.29,2.32-.71,3.39-1.24s2.04-1.18,2.93-1.95c.88-.77,1.64-1.65,2.28-2.66.63-1.01,1.12-2.13,1.46-3.37v-.35ZM396.81,108.32h9.8v2h-9.8v-2ZM399.81,110.34c.81,1.84,2.03,3.43,3.67,4.76,1.64,1.33,3.59,2.28,5.85,2.83-.15.14-.33.33-.51.56-.19.23-.36.46-.52.7s-.3.44-.41.63c-2.35-.7-4.37-1.8-6.05-3.31-1.68-1.51-3.01-3.36-3.98-5.56l1.95-.6ZM398.99,98.98h5.71v1.95h-5.71v-1.95ZM403.61,98.98h2.07v5.5c0,.28.02.46.07.53.05.08.15.12.33.12h.91c.12,0,.22-.05.28-.16.06-.11.11-.34.14-.7.03-.36.05-.89.07-1.6.2.17.48.33.85.46.36.14.69.25.96.33-.05.93-.15,1.65-.3,2.17-.16.52-.37.88-.65,1.08s-.65.3-1.11.3h-1.51c-.53,0-.94-.07-1.25-.22-.31-.15-.53-.4-.65-.77-.12-.36-.19-.87-.19-1.52v-5.53Z"/>
        <path class="cls-9" d="M410.77,102.14h9.36v1.76h-9.36v-1.76ZM411.84,111.66h1.93v7.9h-1.93v-7.9ZM411.88,105.35h7.36v1.7h-7.36v-1.7ZM411.88,108.48h7.36v1.7h-7.36v-1.7ZM412,99.05h7.27v1.72h-7.27v-1.72ZM412.88,111.66h6.29v6.9h-6.29v-1.77h4.34v-3.37h-4.34v-1.77ZM420.08,106.18h12.52v2.16h-12.52v-2.16ZM425.28,98.36h2.23v21.48h-2.23v-21.48Z"/>
      </g>
      <g>
        <path class="cls-9" d="M352.07,159.28c-1.5,0-2.82-.18-3.97-.54-1.15-.36-2.16-.84-3.04-1.45-.88-.61-1.64-1.26-2.28-1.96l2.17-2.86c.85.83,1.82,1.55,2.9,2.17,1.08.62,2.36.93,3.83.93,1.08,0,2.03-.18,2.83-.54.8-.36,1.43-.88,1.88-1.55.45-.67.68-1.47.68-2.4,0-1.03-.25-1.92-.75-2.65-.5-.74-1.37-1.31-2.59-1.72-1.23-.41-2.91-.62-5.05-.62v-3.33c1.88,0,3.36-.21,4.43-.64,1.07-.43,1.84-.99,2.32-1.7.48-.71.72-1.5.72-2.38,0-1.24-.39-2.21-1.16-2.92-.77-.71-1.85-1.06-3.21-1.06-1.08,0-2.1.25-3.04.75-.94.5-1.83,1.16-2.65,1.96l-2.32-2.79c1.14-1.01,2.37-1.84,3.72-2.5,1.34-.66,2.83-.99,4.45-.99s3.21.28,4.53.85,2.35,1.39,3.1,2.46c.75,1.07,1.12,2.37,1.12,3.89,0,1.6-.44,2.94-1.33,4.01-.89,1.07-2.08,1.89-3.58,2.46v.19c1.08.26,2.07.7,2.96,1.32.89.62,1.59,1.4,2.11,2.34.52.94.77,2.04.77,3.31,0,1.68-.43,3.11-1.3,4.3-.86,1.19-2.02,2.1-3.46,2.73-1.45.63-3.03.95-4.76.95Z"/>
        <path class="cls-9" d="M373.05,159.28c-1.63,0-3.03-.3-4.2-.91-1.17-.61-2.16-1.32-2.96-2.15l2.44-2.79c.52.65,1.18,1.16,1.99,1.55.81.39,1.65.58,2.5.58,1.24,0,2.37-.36,3.41-1.08,1.03-.72,1.86-1.94,2.48-3.64.62-1.7.93-4,.93-6.89,0-2.3-.23-4.19-.7-5.67-.46-1.48-1.12-2.58-1.95-3.29-.84-.71-1.84-1.06-3-1.06-.83,0-1.57.22-2.25.66-.67.44-1.2,1.07-1.59,1.9-.39.83-.58,1.83-.58,3.02s.17,2.1.52,2.9.88,1.41,1.59,1.82c.71.41,1.57.62,2.57.62.83,0,1.72-.28,2.69-.85s1.88-1.51,2.73-2.83l.19,3.29c-.54.75-1.18,1.39-1.92,1.94-.74.54-1.49.96-2.26,1.24-.77.28-1.52.43-2.25.43-1.6,0-3-.32-4.2-.95-1.2-.63-2.14-1.58-2.83-2.84-.68-1.26-1.03-2.85-1.03-4.76s.39-3.42,1.18-4.76,1.83-2.39,3.12-3.14c1.29-.75,2.7-1.12,4.22-1.12,1.37,0,2.65.27,3.85.81s2.25,1.37,3.14,2.5c.89,1.12,1.59,2.52,2.11,4.2.52,1.68.77,3.66.77,5.96,0,2.71-.29,5.04-.87,6.99-.58,1.95-1.38,3.54-2.4,4.76-1.02,1.23-2.17,2.13-3.44,2.71-1.28.58-2.61.87-4.01.87Z"/>
        <path class="cls-9" d="M411.45,129.9h.66l.66-.19,2.48,1.35c-1.14,2.97-2.63,5.68-4.47,8.13-1.85,2.45-3.93,4.65-6.25,6.6-2.32,1.95-4.8,3.63-7.43,5.05-2.63,1.42-5.32,2.59-8.05,3.52-.15-.33-.35-.71-.6-1.12-.25-.41-.5-.81-.77-1.2-.27-.39-.52-.71-.75-.97,2.58-.75,5.12-1.77,7.62-3.06s4.86-2.82,7.06-4.59c2.21-1.77,4.16-3.74,5.86-5.9,1.7-2.17,3.03-4.49,3.99-6.97v-.66ZM400.07,125.92l4.1.77c-1.03,1.75-2.25,3.5-3.64,5.23-1.39,1.73-2.99,3.39-4.78,4.97s-3.84,3.06-6.13,4.43c-.15-.31-.39-.64-.7-1.01-.31-.36-.63-.71-.95-1.04-.32-.33-.64-.61-.95-.81,2.14-1.16,4.05-2.45,5.73-3.85,1.68-1.41,3.13-2.86,4.35-4.35,1.23-1.5,2.21-2.94,2.96-4.34ZM393.68,137.49l2.75-2.32c.98.64,1.99,1.39,3.04,2.23,1.04.84,2.03,1.67,2.96,2.5.93.83,1.68,1.61,2.25,2.36l-2.94,2.59c-.54-.7-1.26-1.48-2.15-2.36-.89-.88-1.85-1.75-2.88-2.63-1.03-.88-2.04-1.67-3.02-2.36ZM401.85,145.08h16.57v3.33h-16.57v13.59h-3.68v-14.13l2.86-2.79h.81ZM398.64,129.9h13.97v3.29h-13.97v-3.29ZM400.22,157.12h18.08v3.33h-18.08v-3.33ZM416.6,145.08h3.75v16.95h-3.75v-16.95Z"/>
      </g>
      <rect class="cls-9" x="340.9" y="172.77" width="87.76" height="25.71"/>
      <g>
        <path class="cls-10" d="M345.55,194.81v-2.62h4.46v-13.55h-3.63v-2.01c.95-.18,1.79-.4,2.49-.65.71-.25,1.35-.55,1.94-.89h2.4v17.1h3.94v2.62h-11.59Z"/>
        <path class="cls-10" d="M366.78,195.2c-1.27,0-2.4-.23-3.39-.7-.99-.47-1.78-1.11-2.35-1.93-.58-.82-.87-1.75-.87-2.79,0-.84.17-1.59.52-2.25.35-.65.8-1.22,1.35-1.72s1.13-.9,1.73-1.21v-.11c-.73-.53-1.37-1.17-1.9-1.93-.53-.75-.8-1.64-.8-2.67s.25-1.96.76-2.74c.5-.78,1.19-1.38,2.07-1.8.87-.42,1.87-.63,2.99-.63,1.17,0,2.18.22,3.03.67.84.45,1.5,1.07,1.97,1.86.47.79.7,1.71.7,2.75,0,.68-.14,1.31-.41,1.9s-.62,1.11-1.02,1.57-.82.84-1.24,1.16v.11c.61.35,1.17.75,1.69,1.21.52.46.94,1,1.25,1.64.31.63.47,1.39.47,2.27,0,.99-.27,1.89-.81,2.7-.54.81-1.3,1.45-2.29,1.93-.98.48-2.13.72-3.46.72ZM366.87,192.88c.68,0,1.28-.13,1.8-.39.52-.26.93-.62,1.23-1.09.29-.47.44-1.02.44-1.67,0-.57-.13-1.06-.39-1.47-.26-.41-.62-.78-1.07-1.09-.46-.31-.99-.6-1.58-.87-.6-.27-1.24-.53-1.94-.79-.7.46-1.27,1.02-1.71,1.68-.44.66-.66,1.4-.66,2.23,0,.68.17,1.28.51,1.79.34.51.8.92,1.39,1.21s1.25.44,1.98.44ZM368.13,183.82c.59-.55,1.03-1.13,1.34-1.74.3-.61.45-1.24.45-1.9,0-.61-.12-1.15-.36-1.62-.24-.48-.59-.85-1.06-1.13-.47-.28-1.03-.41-1.69-.41-.83,0-1.51.25-2.07.76s-.83,1.21-.83,2.11c0,.72.2,1.31.59,1.78.39.47.91.87,1.54,1.21s1.33.66,2.08.95Z"/>
        <path class="cls-10" d="M378.71,195.2c-.59,0-1.09-.22-1.5-.65-.41-.43-.62-.97-.62-1.61s.21-1.2.62-1.61.91-.62,1.5-.62,1.12.21,1.53.62.62.95.62,1.61-.21,1.18-.62,1.61c-.41.43-.92.65-1.53.65Z"/>
        <path class="cls-10" d="M390.68,195.2c-1.27,0-2.4-.23-3.39-.7-.99-.47-1.78-1.11-2.35-1.93-.58-.82-.87-1.75-.87-2.79,0-.84.17-1.59.52-2.25.35-.65.8-1.22,1.35-1.72s1.13-.9,1.73-1.21v-.11c-.73-.53-1.37-1.17-1.9-1.93-.53-.75-.8-1.64-.8-2.67s.25-1.96.76-2.74c.5-.78,1.19-1.38,2.07-1.8.87-.42,1.87-.63,2.99-.63,1.17,0,2.18.22,3.03.67.84.45,1.5,1.07,1.97,1.86.47.79.7,1.71.7,2.75,0,.68-.14,1.31-.41,1.9s-.62,1.11-1.02,1.57-.82.84-1.24,1.16v.11c.61.35,1.17.75,1.69,1.21.52.46.94,1,1.25,1.64.31.63.47,1.39.47,2.27,0,.99-.27,1.89-.81,2.7-.54.81-1.3,1.45-2.29,1.93-.98.48-2.13.72-3.46.72ZM390.77,192.88c.68,0,1.28-.13,1.8-.39.52-.26.93-.62,1.23-1.09.29-.47.44-1.02.44-1.67,0-.57-.13-1.06-.39-1.47-.26-.41-.62-.78-1.07-1.09-.46-.31-.99-.6-1.58-.87-.6-.27-1.24-.53-1.94-.79-.7.46-1.27,1.02-1.71,1.68-.44.66-.66,1.4-.66,2.23,0,.68.17,1.28.51,1.79.34.51.8.92,1.39,1.21s1.25.44,1.98.44ZM392.03,183.82c.59-.55,1.03-1.13,1.34-1.74.3-.61.45-1.24.45-1.9,0-.61-.12-1.15-.36-1.62-.24-.48-.59-.85-1.06-1.13-.47-.28-1.03-.41-1.69-.41-.83,0-1.51.25-2.07.76s-.83,1.21-.83,2.11c0,.72.2,1.31.59,1.78.39.47.91.87,1.54,1.21s1.33.66,2.08.95Z"/>
        <path class="cls-10" d="M404.23,186.96c-.94,0-1.76-.25-2.48-.76s-1.27-1.24-1.67-2.2c-.4-.96-.59-2.12-.59-3.48s.2-2.51.59-3.46c.39-.95.95-1.67,1.67-2.16.72-.5,1.54-.74,2.48-.74s1.79.25,2.51.74c.72.5,1.27,1.22,1.67,2.16.39.95.59,2.1.59,3.46s-.2,2.52-.59,3.48c-.4.96-.95,1.7-1.67,2.2s-1.55.76-2.51.76ZM404.23,185.12c.72,0,1.3-.38,1.75-1.13.45-.75.67-1.91.67-3.47s-.23-2.7-.67-3.42c-.45-.72-1.03-1.07-1.75-1.07s-1.28.36-1.73,1.07c-.46.72-.69,1.85-.69,3.42s.23,2.72.69,3.47c.46.75,1.04,1.13,1.73,1.13ZM404.87,195.2l11.1-21.04h2.01l-11.1,21.04h-2.01ZM418.64,195.2c-.94,0-1.76-.26-2.48-.77s-1.27-1.25-1.67-2.2c-.4-.95-.59-2.11-.59-3.47s.2-2.53.59-3.47c.39-.94.95-1.66,1.67-2.16s1.54-.76,2.48-.76,1.76.25,2.48.76c.72.5,1.27,1.22,1.67,2.16.39.94.59,2.09.59,3.47s-.2,2.52-.59,3.47c-.4.96-.95,1.69-1.67,2.2-.72.51-1.54.77-2.48.77ZM418.64,193.29c.7,0,1.28-.37,1.75-1.1s.7-1.88.7-3.44-.23-2.73-.7-3.44c-.47-.72-1.05-1.07-1.75-1.07s-1.28.36-1.73,1.07c-.46.72-.69,1.86-.69,3.44s.23,2.71.69,3.44c.46.73,1.04,1.1,1.73,1.1Z"/>
      </g>
      <g>
        <path class="cls-9" d="M310.47,416.91h2.26c-.02,1.74-.07,3.47-.15,5.18-.08,1.71-.24,3.35-.48,4.92-.24,1.57-.57,3.02-1.02,4.37-.44,1.34-1.04,2.53-1.8,3.57-.19-.27-.44-.56-.78-.88s-.65-.57-.96-.75c.67-.91,1.2-1.97,1.57-3.2.38-1.22.66-2.55.86-3.99.19-1.43.32-2.93.38-4.49.06-1.56.1-3.14.11-4.73ZM307.86,415.57h10.69v2.24h-10.69v-2.24ZM315.13,420.93h2.16v.6c0,.15,0,.28-.02.38-.03,2.08-.07,3.84-.11,5.27-.04,1.43-.1,2.61-.16,3.52-.07.91-.15,1.63-.25,2.14s-.24.88-.4,1.12c-.22.3-.44.52-.68.64-.23.13-.52.21-.86.26-.3.05-.69.08-1.16.08s-.97,0-1.51-.03c-.02-.32-.08-.68-.18-1.08-.1-.4-.24-.75-.4-1.03.47.03.9.05,1.28.06.39,0,.66.01.83.01.17.02.31,0,.43-.05s.23-.15.33-.3c.15-.18.27-.65.35-1.41.08-.75.15-1.91.2-3.47.05-1.56.1-3.65.15-6.26v-.45ZM311.61,420.93h4.28v2.19h-4.28v-2.19ZM312.06,411.62h2.29v4.73h-2.29v-4.73ZM320.84,411.57l2.34.48c-.44,1.76-1.02,3.43-1.74,5.02s-1.56,2.92-2.52,3.99c-.12-.13-.29-.31-.5-.52-.22-.21-.44-.42-.67-.63-.23-.21-.44-.38-.64-.52.89-.92,1.65-2.08,2.28-3.46s1.11-2.84,1.45-4.37ZM317.54,424.7l11.02-5.16.83,1.94-11.02,5.16-.83-1.94ZM319.68,419.85h2.14v11.8c0,.5.09.83.28.97s.6.21,1.26.21h4.48c.35,0,.62-.07.81-.2.18-.13.31-.4.39-.81.08-.4.14-1,.19-1.79.25.18.57.35.94.5.38.15.72.27,1.02.35-.08,1.01-.23,1.8-.44,2.38-.21.58-.53.99-.96,1.23-.43.24-1.03.37-1.8.37h-4.81c-.91,0-1.61-.09-2.13-.28-.51-.18-.87-.51-1.07-.98-.2-.47-.3-1.12-.3-1.96v-11.8ZM320.39,414.99h10.47v2.16h-10.47v-2.16ZM323.76,417.96h2.01v12.58h-2.01v-12.58ZM327.99,420.02h-.23l.48-.38.38-.28,1.48.55-.08.33c0,.91,0,1.76-.01,2.55,0,.8-.02,1.51-.02,2.15,0,.64-.02,1.17-.04,1.61s-.03.75-.05.93c-.03.44-.15.78-.34,1.02-.19.24-.46.42-.79.52-.29.1-.61.16-.97.19-.36.03-.7.04-1.02.04-.02-.29-.07-.6-.15-.94-.08-.34-.19-.63-.3-.87.2.02.41.02.63.02h.48c.13,0,.24-.02.31-.08.08-.05.13-.16.16-.33,0-.12,0-.36.02-.73s.03-.86.03-1.47,0-1.33.01-2.15c0-.82.01-1.72.01-2.69Z"/>
        <path class="cls-9" d="M333.22,430.72h22.77v2.39h-22.77v-2.39ZM334.55,414.34h20.1v2.47h-20.1v-2.47ZM343.16,415.65h2.67v16.03h-2.67v-16.03Z"/>
        <path class="cls-9" d="M311.33,436.61l2.24.58c-.49,1.12-1.09,2.21-1.8,3.26-.71,1.05-1.44,1.93-2.18,2.65-.13-.13-.32-.28-.57-.44-.24-.16-.49-.32-.73-.48s-.46-.29-.64-.39c.75-.64,1.46-1.42,2.11-2.34.65-.92,1.17-1.87,1.56-2.84ZM308.76,443.8h21.51v4.86h-2.34v-3.04h-16.93v3.04h-2.24v-4.86ZM311.03,438.59h8.03v1.94h-8.03v-1.94ZM312.21,440.08l2.04-.55c.32.44.62.93.92,1.47s.51,1.02.64,1.42l-2.14.63c-.12-.38-.31-.86-.59-1.43-.28-.57-.57-1.08-.87-1.54ZM312.51,446.97h2.26v13.16h-2.26v-13.16ZM313.82,446.97h12.63v5.31h-12.63v-1.76h10.27v-1.79h-10.27v-1.76ZM313.92,453.76h14.29v6.34h-2.37v-4.55h-11.93v-1.79ZM313.92,457.56h12.83v1.79h-12.83v-1.79ZM321.39,436.61l2.26.55c-.45,1.07-1.04,2.1-1.77,3.08s-1.49,1.8-2.28,2.45c-.15-.12-.35-.25-.6-.4-.25-.15-.51-.3-.77-.44-.26-.14-.49-.26-.69-.34.82-.59,1.57-1.32,2.25-2.19.68-.87,1.21-1.78,1.6-2.72ZM318.2,441.91h2.29v2.92h-2.29v-2.92ZM320.99,438.59h9.99v1.94h-9.99v-1.94ZM323.13,440.13l2.09-.6c.39.44.78.93,1.17,1.47s.68,1.03.87,1.45l-2.16.65c-.19-.4-.46-.88-.83-1.45-.37-.56-.75-1.07-1.13-1.52Z"/>
        <path class="cls-9" d="M332.74,455.2c.7-.18,1.5-.41,2.39-.68.89-.27,1.83-.56,2.82-.88.99-.32,1.98-.64,2.97-.96l.4,2.26c-1.38.47-2.77.94-4.18,1.41-1.41.47-2.68.9-3.82,1.28l-.58-2.44ZM333.02,438.34h8.08v2.21h-8.08v-2.21ZM333.27,445.61h7.45v2.19h-7.45v-2.19ZM336.01,439.22h2.26v15.52l-2.26.4v-15.93ZM340.11,457.14h16.28v2.16h-16.28v-2.16ZM341.97,451.95h13.59v2.16h-13.59v-2.16ZM342.2,437.86h13.03v11.5h-13.03v-11.5ZM344.36,439.9v2.74h8.6v-2.74h-8.6ZM344.36,444.56v2.77h8.6v-2.77h-8.6ZM347.69,438.79h2.04v9.59h.18v9.74h-2.42v-9.74h.2v-9.59Z"/>
      </g>
      <g>
        <path class="cls-9" d="M309.95,499.71v-2.59c2.66-2.61,4.94-4.92,6.83-6.95,1.9-2.03,3.35-3.86,4.35-5.5,1.01-1.64,1.51-3.18,1.51-4.62,0-1.03-.17-1.92-.52-2.67-.35-.75-.88-1.33-1.59-1.74-.71-.41-1.61-.62-2.69-.62s-2.13.32-3.06.95c-.93.63-1.78,1.37-2.55,2.23l-2.52-2.48c1.21-1.34,2.5-2.39,3.85-3.14,1.35-.75,2.97-1.12,4.86-1.12,1.73,0,3.24.35,4.53,1.04,1.29.7,2.29,1.67,3,2.92.71,1.25,1.06,2.72,1.06,4.39s-.47,3.38-1.41,5.11c-.94,1.73-2.21,3.52-3.81,5.38-1.6,1.86-3.39,3.82-5.38,5.88.75-.08,1.54-.15,2.38-.21.84-.06,1.61-.1,2.3-.1h7.28v3.83h-18.42Z"/>
        <path class="cls-9" d="M340.68,500.25c-1.47,0-2.79-.18-3.95-.54s-2.18-.84-3.06-1.43c-.88-.59-1.65-1.21-2.32-1.86l2.13-2.9c.54.54,1.14,1.04,1.78,1.49.64.45,1.37.82,2.19,1.1.81.28,1.72.43,2.73.43,1.06,0,2.01-.23,2.86-.68.85-.45,1.52-1.1,2.01-1.95.49-.85.74-1.86.74-3.02,0-1.75-.5-3.12-1.49-4.1-.99-.98-2.3-1.47-3.93-1.47-.9,0-1.68.14-2.32.41-.65.27-1.38.68-2.21,1.22l-2.21-1.39.85-13.55h14.44v3.79h-10.57l-.66,7.28c.62-.31,1.24-.55,1.86-.72.62-.17,1.3-.25,2.05-.25,1.6,0,3.06.3,4.37.91,1.32.61,2.36,1.55,3.14,2.83.77,1.28,1.16,2.91,1.16,4.9s-.45,3.73-1.35,5.15c-.9,1.42-2.08,2.5-3.54,3.25-1.46.75-3.03,1.12-4.7,1.12Z"/>
        <path class="cls-9" d="M377.99,470.87h.66l.66-.19,2.48,1.35c-1.14,2.97-2.63,5.68-4.47,8.13-1.85,2.45-3.93,4.65-6.25,6.6-2.32,1.95-4.8,3.63-7.43,5.05-2.63,1.42-5.32,2.59-8.05,3.52-.15-.33-.35-.71-.6-1.12-.25-.41-.5-.81-.77-1.2-.27-.39-.52-.71-.75-.97,2.58-.75,5.12-1.77,7.62-3.06s4.86-2.82,7.06-4.59c2.21-1.77,4.16-3.74,5.86-5.9,1.7-2.17,3.03-4.49,3.99-6.97v-.66ZM366.62,466.88l4.1.77c-1.03,1.75-2.25,3.5-3.64,5.23-1.39,1.73-2.99,3.39-4.78,4.97s-3.84,3.06-6.13,4.43c-.15-.31-.39-.64-.7-1.01-.31-.36-.63-.71-.95-1.04-.32-.33-.64-.61-.95-.81,2.14-1.16,4.05-2.45,5.73-3.85,1.68-1.41,3.13-2.86,4.35-4.35,1.23-1.5,2.21-2.94,2.96-4.34ZM360.23,478.46l2.75-2.32c.98.64,1.99,1.39,3.04,2.23,1.04.84,2.03,1.67,2.96,2.5.93.83,1.68,1.61,2.25,2.36l-2.94,2.59c-.54-.7-1.26-1.48-2.15-2.36-.89-.88-1.85-1.75-2.88-2.63-1.03-.88-2.04-1.67-3.02-2.36ZM368.4,486.04h16.57v3.33h-16.57v13.59h-3.68v-14.13l2.86-2.79h.81ZM365.18,470.87h13.97v3.29h-13.97v-3.29ZM366.77,498.08h18.08v3.33h-18.08v-3.33ZM383.14,486.04h3.75v16.95h-3.75v-16.95Z"/>
      </g>
      <rect class="cls-9" x="307.45" y="513.74" width="87.76" height="25.71"/>
      <g>
        <path class="cls-10" d="M312.1,535.77v-2.62h4.46v-13.55h-3.63v-2.01c.95-.18,1.79-.4,2.49-.65.71-.25,1.35-.55,1.94-.89h2.4v17.1h3.94v2.62h-11.59Z"/>
        <path class="cls-10" d="M326.66,535.77v-1.84c1.89-1.85,3.51-3.5,4.86-4.94,1.35-1.44,2.38-2.74,3.1-3.91.72-1.17,1.07-2.26,1.07-3.29,0-.73-.12-1.37-.37-1.9-.25-.53-.62-.95-1.13-1.24-.5-.29-1.14-.44-1.91-.44s-1.51.22-2.18.67c-.66.45-1.27.98-1.82,1.58l-1.79-1.76c.86-.96,1.78-1.7,2.74-2.23.96-.53,2.12-.8,3.46-.8,1.23,0,2.3.25,3.22.74.92.5,1.63,1.19,2.13,2.08.5.89.76,1.93.76,3.13s-.33,2.41-1.01,3.63c-.67,1.23-1.57,2.51-2.71,3.83-1.14,1.32-2.41,2.72-3.83,4.19.53-.06,1.1-.11,1.69-.15s1.14-.07,1.64-.07h5.18v2.73h-13.11Z"/>
        <path class="cls-10" d="M345.25,536.16c-.59,0-1.09-.22-1.5-.65-.41-.43-.62-.97-.62-1.61s.21-1.2.62-1.61.91-.62,1.5-.62,1.12.21,1.53.62.62.95.62,1.61-.21,1.18-.62,1.61c-.41.43-.92.65-1.53.65Z"/>
        <path class="cls-10" d="M357.23,536.16c-1.36,0-2.53-.4-3.51-1.2-.98-.8-1.74-1.96-2.27-3.5-.53-1.53-.8-3.41-.8-5.63s.27-4.08.8-5.59c.53-1.5,1.29-2.64,2.27-3.42.98-.77,2.15-1.16,3.51-1.16s2.5.39,3.47,1.16c.97.77,1.73,1.91,2.26,3.42.53,1.5.8,3.37.8,5.59s-.27,4.1-.8,5.63c-.53,1.53-1.29,2.7-2.26,3.5-.97.8-2.13,1.2-3.47,1.2ZM357.23,533.63c.68,0,1.28-.26,1.82-.77.53-.51.95-1.34,1.24-2.48.29-1.14.44-2.65.44-4.54s-.15-3.39-.44-4.5c-.29-1.11-.71-1.91-1.24-2.41-.53-.5-1.14-.74-1.82-.74s-1.29.25-1.82.74c-.53.5-.95,1.3-1.25,2.41-.3,1.11-.45,2.61-.45,4.5s.15,3.41.45,4.54c.3,1.14.72,1.96,1.25,2.48.53.51,1.14.77,1.82.77Z"/>
        <path class="cls-10" d="M370.78,527.93c-.94,0-1.76-.25-2.48-.76s-1.27-1.24-1.67-2.2c-.4-.96-.59-2.12-.59-3.48s.2-2.51.59-3.46c.39-.95.95-1.67,1.67-2.16.72-.5,1.54-.74,2.48-.74s1.79.25,2.51.74c.72.5,1.27,1.22,1.67,2.16.39.95.59,2.1.59,3.46s-.2,2.52-.59,3.48c-.4.96-.95,1.7-1.67,2.2s-1.55.76-2.51.76ZM370.78,526.08c.72,0,1.3-.38,1.75-1.13.45-.75.67-1.91.67-3.47s-.23-2.7-.67-3.42c-.45-.72-1.03-1.07-1.75-1.07s-1.28.36-1.73,1.07c-.46.72-.69,1.85-.69,3.42s.23,2.72.69,3.47c.46.75,1.04,1.13,1.73,1.13ZM371.41,536.16l11.1-21.04h2.01l-11.1,21.04h-2.01ZM385.18,536.16c-.94,0-1.76-.26-2.48-.77s-1.27-1.25-1.67-2.2c-.4-.95-.59-2.11-.59-3.47s.2-2.53.59-3.47c.39-.94.95-1.66,1.67-2.16s1.54-.76,2.48-.76,1.76.25,2.48.76c.72.5,1.27,1.22,1.67,2.16.39.94.59,2.09.59,3.47s-.2,2.52-.59,3.47c-.4.96-.95,1.69-1.67,2.2-.72.51-1.54.77-2.48.77ZM385.18,534.26c.7,0,1.28-.37,1.75-1.1s.7-1.88.7-3.44-.23-2.73-.7-3.44c-.47-.72-1.05-1.07-1.75-1.07s-1.28.36-1.73,1.07c-.46.72-.69,1.86-.69,3.44s.23,2.71.69,3.44c.46.73,1.04,1.1,1.73,1.1Z"/>
      </g>
      <g>
        <path class="cls-9" d="M131.67,397.76h2.18v8.38c0,.9-.04,1.87-.13,2.9-.09,1.04-.24,2.09-.45,3.15s-.54,2.07-.96,3.04-.99,1.84-1.71,2.61c-.11-.15-.27-.33-.48-.51s-.43-.36-.65-.53c-.22-.17-.42-.3-.59-.39.65-.73,1.16-1.51,1.53-2.36s.65-1.72.82-2.62c.18-.91.29-1.81.35-2.72.05-.91.08-1.77.08-2.59v-8.36ZM132.83,408.65h14.86v2.09h-14.86v-2.09ZM132.93,397.76h14.7v2.09h-14.7v-2.09ZM132.93,403.15h14.7v2.04h-14.7v-2.04ZM138.92,398.57h2.21v18.9h-2.21v-18.9ZM146.79,397.76h2.18v17.19c0,.63-.08,1.13-.26,1.47s-.46.62-.88.8c-.42.17-.98.28-1.7.31-.71.04-1.62.05-2.72.04-.03-.28-.12-.63-.27-1.04-.15-.42-.3-.77-.45-1.07.5.03.98.05,1.46.06.48,0,.9,0,1.27,0,.36,0,.62-.01.75-.01.23,0,.39-.04.48-.13.08-.08.13-.24.13-.45v-17.16Z"/>
        <path class="cls-9" d="M152.11,412c.62-.23,1.34-.51,2.17-.85.83-.33,1.71-.69,2.65-1.08.94-.39,1.87-.77,2.8-1.16l.49,1.95c-1.24.59-2.49,1.18-3.76,1.76-1.27.59-2.43,1.12-3.48,1.58l-.86-2.21ZM152.34,401.66h7.52v2.07h-7.52v-2.07ZM155.22,396.44h2.07v15.23h-2.07v-15.23ZM158.91,405.63l12.31-5.2.81,1.86-12.29,5.29-.84-1.95ZM161.33,398.36h2.11v15.33c0,.43.04.76.12.99.08.22.24.38.5.45s.63.12,1.13.12h5.13c.43,0,.76-.08.99-.26.22-.17.39-.48.5-.93.11-.45.19-1.1.23-1.95.25.17.56.33.94.49.38.15.72.26,1.01.33-.09,1.08-.26,1.94-.49,2.55-.23.62-.58,1.06-1.06,1.33-.47.27-1.13.41-1.99.41h-5.41c-.94,0-1.69-.1-2.24-.3-.55-.2-.93-.56-1.15-1.08s-.33-1.24-.33-2.17v-15.31ZM166.04,396.16h2.07v16.26h-2.07v-16.26ZM170.8,400.69h-.19l.44-.35.39-.3,1.56.58-.09.37c0,1.1,0,2.12-.01,3.05,0,.94-.02,1.77-.03,2.51-.02.74-.04,1.35-.06,1.86-.02.5-.06.87-.1,1.1-.05.5-.17.88-.38,1.14-.21.26-.49.45-.85.56-.31.12-.68.2-1.11.22-.43.02-.82.03-1.16.03-.03-.29-.09-.62-.19-.99-.09-.36-.19-.66-.3-.89.23.02.49.02.77.02h.58c.17,0,.31-.04.41-.1.1-.07.17-.22.22-.45.03-.14.05-.43.07-.86.02-.43.03-1,.04-1.71,0-.7.01-1.54.01-2.52v-3.27Z"/>
        <path class="cls-9" d="M186.27,404.24c.51,0,.97.12,1.37.36s.73.56.98.96c.25.4.37.86.37,1.37,0,.48-.12.92-.36,1.33-.24.41-.56.74-.96.99-.4.25-.86.37-1.37.37-.48,0-.93-.12-1.34-.36-.41-.24-.74-.57-.99-.98s-.37-.86-.37-1.33c0-.51.12-.97.36-1.37.24-.4.56-.73.98-.98s.86-.37,1.34-.37Z"/>
        <path class="cls-9" d="M210.12,398.55l2.42.88c-.87,1.6-1.92,3.16-3.15,4.69-1.23,1.53-2.61,2.95-4.13,4.24-1.53,1.29-3.17,2.4-4.94,3.33-.11-.19-.26-.4-.44-.64-.19-.24-.37-.48-.55-.72-.18-.24-.35-.44-.52-.59,1.27-.62,2.47-1.35,3.6-2.18s2.19-1.75,3.17-2.73c.98-.98,1.86-2.01,2.62-3.08.77-1.07,1.41-2.14,1.92-3.21ZM199.46,397.76h20.11v2.23h-20.11v-2.23ZM208.31,403.61l2.39-2.37v16.42h-2.39v-14.05ZM210.77,404.96l1.67-1.42c.67.45,1.37.94,2.1,1.46s1.47,1.07,2.19,1.64c.73.57,1.41,1.12,2.03,1.66s1.15,1.04,1.57,1.49l-1.83,1.7c-.39-.46-.88-.97-1.49-1.52-.6-.55-1.26-1.12-1.96-1.71-.71-.59-1.42-1.16-2.16-1.73s-1.44-1.09-2.12-1.57Z"/>
        <path class="cls-9" d="M221.99,415.04c.94-.09,2.04-.19,3.29-.29,1.25-.1,2.57-.22,3.96-.35,1.39-.13,2.78-.26,4.16-.38l.02,1.67c-1.32.15-2.64.31-3.98.45-1.34.15-2.62.29-3.84.42-1.22.13-2.33.24-3.32.34l-.28-1.86ZM222.04,400.13h11.61v1.65h-11.61v-1.65ZM232.28,396.34l1.02,1.65c-.94.2-2.02.38-3.22.53-1.2.16-2.44.28-3.72.36s-2.5.15-3.66.2c-.03-.23-.1-.5-.2-.81-.1-.31-.21-.57-.31-.79.87-.05,1.76-.11,2.68-.19.92-.08,1.83-.16,2.73-.26s1.75-.2,2.54-.31,1.51-.24,2.12-.38ZM222.62,411.25h10.71v1.63h-10.71v-1.63ZM222.69,402.99h10.57v7.08h-10.57v-7.08ZM224.47,404.43v1.42h6.92v-1.42h-6.92ZM224.47,407.21v1.42h6.92v-1.42h-6.92ZM226.89,398.23h2.02v16.91h-2.02v-16.91ZM236.11,396.48h2.11c-.02,1.9-.04,3.73-.08,5.48-.04,1.75-.14,3.4-.3,4.96s-.44,3.01-.84,4.35c-.4,1.35-.94,2.57-1.63,3.67-.69,1.1-1.58,2.07-2.68,2.9-.11-.17-.25-.36-.43-.57-.18-.21-.37-.41-.57-.59-.2-.19-.39-.33-.58-.44,1.04-.76,1.87-1.64,2.51-2.64.63-1,1.13-2.11,1.47-3.34.35-1.23.59-2.57.72-4.02.13-1.45.21-2.98.24-4.61.03-1.63.05-3.34.05-5.16ZM233.56,401.5h8.22v2.04h-8.22v-2.04ZM240.92,401.5h2.11c0,.28,0,.5-.01.65,0,.16-.01.29-.01.39-.06,2.42-.12,4.46-.19,6.14-.06,1.68-.14,3.05-.22,4.12s-.19,1.9-.32,2.48c-.13.59-.29,1.01-.48,1.28-.23.34-.48.58-.75.72-.27.14-.58.23-.94.28-.34.06-.77.09-1.28.09s-1.04-.02-1.58-.05c-.03-.29-.1-.64-.22-1.05s-.26-.75-.43-1.04c.54.05,1.04.07,1.49.08.45,0,.79.01,1.02.01.19,0,.34-.02.46-.07s.24-.15.35-.3c.14-.17.26-.53.36-1.07.1-.54.19-1.33.26-2.36.07-1.03.14-2.35.21-3.96.07-1.61.13-3.57.17-5.88v-.49Z"/>
        <path class="cls-9" d="M247.1,402.89h2.11v3.72c0,.79-.03,1.66-.09,2.61-.06.95-.18,1.93-.36,2.93-.18,1-.43,1.97-.77,2.93-.33.95-.76,1.82-1.29,2.59-.11-.12-.27-.28-.49-.46-.22-.19-.43-.36-.65-.53-.22-.17-.4-.29-.56-.37.46-.73.84-1.51,1.13-2.35.29-.84.5-1.69.64-2.55.14-.87.23-1.71.27-2.53.04-.82.06-1.58.06-2.28v-3.69ZM246.84,398.06h18.44v1.9h-18.44v-1.9ZM248.3,402.89h18.16v1.93h-18.16v-1.93ZM252.46,405.24l1.97.46c-.37,1.02-.84,2-1.41,2.94-.57.94-1.17,1.74-1.8,2.4-.12-.11-.29-.23-.5-.37-.21-.14-.43-.27-.65-.41s-.42-.24-.59-.31c.63-.57,1.21-1.28,1.74-2.12.53-.84.94-1.71,1.23-2.59ZM249.79,415.39h16.54v1.86h-16.54v-1.86ZM250.44,400.2l1.97-.53c.29.46.56.98.8,1.54s.4,1.05.48,1.45l-2.14.58c-.06-.4-.2-.89-.41-1.46-.21-.57-.45-1.1-.71-1.58ZM251.72,411.12h12.63v1.72h-12.63v-1.72ZM252.14,407.24h12.84v1.72h-12.84v-1.72ZM254.9,396.13h2.21v3.07h-2.21v-3.07ZM256.83,405.31h2.16v11.22h-2.16v-11.22ZM259.75,399.48l2.48.56c-.33.59-.65,1.17-.99,1.74-.33.57-.63,1.07-.89,1.49l-1.81-.56c.15-.31.31-.65.45-1.03.15-.38.29-.76.43-1.15.14-.39.25-.74.33-1.04Z"/>
      </g>
      <g>
        <path class="cls-9" d="M142.77,454.63v-17.81c0-.77.03-1.71.08-2.81.05-1.1.09-2.02.12-2.77h-.15c-.36.67-.73,1.35-1.1,2.03s-.77,1.39-1.18,2.11l-5.57,8.44h15.6v3.48h-20.13v-3.02l11.34-17.38h5.19v27.71h-4.18Z"/>
        <path class="cls-9" d="M162.09,455.18c-1.5,0-2.82-.18-3.97-.54-1.15-.36-2.16-.84-3.04-1.45-.88-.61-1.64-1.26-2.28-1.96l2.17-2.86c.85.83,1.82,1.55,2.9,2.17,1.08.62,2.36.93,3.83.93,1.08,0,2.03-.18,2.83-.54.8-.36,1.43-.88,1.88-1.55.45-.67.68-1.47.68-2.4,0-1.03-.25-1.92-.75-2.65-.5-.74-1.37-1.31-2.59-1.72-1.23-.41-2.91-.62-5.05-.62v-3.33c1.88,0,3.36-.21,4.43-.64,1.07-.43,1.84-.99,2.32-1.7.48-.71.72-1.5.72-2.38,0-1.24-.39-2.21-1.16-2.92-.77-.71-1.85-1.06-3.21-1.06-1.08,0-2.1.25-3.04.75-.94.5-1.83,1.16-2.65,1.96l-2.32-2.79c1.14-1.01,2.37-1.84,3.72-2.5,1.34-.66,2.83-.99,4.45-.99s3.21.28,4.53.85,2.35,1.39,3.1,2.46c.75,1.07,1.12,2.37,1.12,3.89,0,1.6-.44,2.94-1.33,4.01-.89,1.07-2.08,1.89-3.58,2.46v.19c1.08.26,2.07.7,2.96,1.32.89.62,1.59,1.4,2.11,2.34.52.94.77,2.04.77,3.31,0,1.68-.43,3.11-1.3,4.3-.86,1.19-2.02,2.1-3.46,2.73-1.45.63-3.03.95-4.76.95Z"/>
        <path class="cls-9" d="M199.4,425.8h.66l.66-.19,2.48,1.35c-1.14,2.97-2.63,5.68-4.47,8.13-1.85,2.45-3.93,4.65-6.25,6.6-2.32,1.95-4.8,3.63-7.43,5.05-2.63,1.42-5.32,2.59-8.05,3.52-.15-.33-.35-.71-.6-1.12-.25-.41-.5-.81-.77-1.2-.27-.39-.52-.71-.75-.97,2.58-.75,5.12-1.77,7.62-3.06s4.86-2.82,7.06-4.59c2.21-1.77,4.16-3.74,5.86-5.9,1.7-2.17,3.03-4.49,3.99-6.97v-.66ZM188.02,421.81l4.1.77c-1.03,1.75-2.25,3.5-3.64,5.23-1.39,1.73-2.99,3.39-4.78,4.97s-3.84,3.06-6.13,4.43c-.15-.31-.39-.64-.7-1.01-.31-.36-.63-.71-.95-1.04-.32-.33-.64-.61-.95-.81,2.14-1.16,4.05-2.45,5.73-3.85,1.68-1.41,3.13-2.86,4.35-4.35,1.23-1.5,2.21-2.94,2.96-4.34ZM181.64,433.38l2.75-2.32c.98.64,1.99,1.39,3.04,2.23,1.04.84,2.03,1.67,2.96,2.5.93.83,1.68,1.61,2.25,2.36l-2.94,2.59c-.54-.7-1.26-1.48-2.15-2.36-.89-.88-1.85-1.75-2.88-2.63-1.03-.88-2.04-1.67-3.02-2.36ZM189.8,440.97h16.57v3.33h-16.57v13.59h-3.68v-14.13l2.86-2.79h.81ZM186.59,425.8h13.97v3.29h-13.97v-3.29ZM188.18,453.01h18.08v3.33h-18.08v-3.33ZM204.55,440.97h3.75v16.95h-3.75v-16.95Z"/>
      </g>
      <rect class="cls-9" x="128.85" y="468.67" width="87.76" height="25.71"/>
      <g>
        <path class="cls-10" d="M132.37,490.7v-1.84c1.89-1.85,3.51-3.5,4.86-4.94,1.35-1.44,2.38-2.74,3.1-3.91.72-1.17,1.07-2.26,1.07-3.29,0-.73-.12-1.37-.37-1.9-.25-.53-.62-.95-1.13-1.24-.5-.29-1.14-.44-1.91-.44s-1.51.22-2.18.67c-.66.45-1.27.98-1.82,1.58l-1.79-1.76c.86-.96,1.78-1.7,2.74-2.23.96-.53,2.12-.8,3.46-.8,1.23,0,2.3.25,3.22.74.92.5,1.63,1.19,2.13,2.08.5.89.76,1.93.76,3.13s-.33,2.41-1.01,3.63c-.67,1.23-1.57,2.51-2.71,3.83-1.14,1.32-2.41,2.72-3.83,4.19.53-.06,1.1-.11,1.69-.15s1.14-.07,1.64-.07h5.18v2.73h-13.11Z"/>
        <path class="cls-10" d="M154.74,491.09c-1.36,0-2.53-.4-3.51-1.2-.98-.8-1.74-1.96-2.27-3.5-.53-1.53-.8-3.41-.8-5.63s.27-4.08.8-5.59c.53-1.5,1.29-2.64,2.27-3.42.98-.77,2.15-1.16,3.51-1.16s2.5.39,3.47,1.16c.97.77,1.73,1.91,2.26,3.42.53,1.5.8,3.37.8,5.59s-.27,4.1-.8,5.63c-.53,1.53-1.29,2.7-2.26,3.5-.97.8-2.13,1.2-3.47,1.2ZM154.74,488.55c.68,0,1.28-.26,1.82-.77.53-.51.95-1.34,1.24-2.48.29-1.14.44-2.65.44-4.54s-.15-3.39-.44-4.5c-.29-1.11-.71-1.91-1.24-2.41-.53-.5-1.14-.74-1.82-.74s-1.29.25-1.82.74c-.53.5-.95,1.3-1.25,2.41-.3,1.11-.45,2.61-.45,4.5s.15,3.41.45,4.54c.3,1.14.72,1.96,1.25,2.48.53.51,1.14.77,1.82.77Z"/>
        <path class="cls-10" d="M166.66,491.09c-.59,0-1.09-.22-1.5-.65-.41-.43-.62-.97-.62-1.61s.21-1.2.62-1.61.91-.62,1.5-.62,1.12.21,1.53.62.62.95.62,1.61-.21,1.18-.62,1.61c-.41.43-.92.65-1.53.65Z"/>
        <path class="cls-10" d="M176.08,490.7c.09-1.78.25-3.42.48-4.93.23-1.5.56-2.93.99-4.27.43-1.34.98-2.65,1.65-3.92.67-1.28,1.48-2.57,2.44-3.9h-9.5v-2.7h13.03v1.96c-1.16,1.45-2.1,2.83-2.82,4.14s-1.29,2.65-1.71,4.02c-.41,1.37-.72,2.83-.91,4.38-.19,1.55-.33,3.29-.4,5.22h-3.25Z"/>
        <path class="cls-10" d="M192.19,482.85c-.94,0-1.76-.25-2.48-.76s-1.27-1.24-1.67-2.2c-.4-.96-.59-2.12-.59-3.48s.2-2.51.59-3.46c.39-.95.95-1.67,1.67-2.16.72-.5,1.54-.74,2.48-.74s1.79.25,2.51.74c.72.5,1.27,1.22,1.67,2.16.39.95.59,2.1.59,3.46s-.2,2.52-.59,3.48c-.4.96-.95,1.7-1.67,2.2s-1.55.76-2.51.76ZM192.19,481.01c.72,0,1.3-.38,1.75-1.13.45-.75.67-1.91.67-3.47s-.23-2.7-.67-3.42c-.45-.72-1.03-1.07-1.75-1.07s-1.28.36-1.73,1.07c-.46.72-.69,1.85-.69,3.42s.23,2.72.69,3.47c.46.75,1.04,1.13,1.73,1.13ZM192.82,491.09l11.1-21.04h2.01l-11.1,21.04h-2.01ZM206.59,491.09c-.94,0-1.76-.26-2.48-.77s-1.27-1.25-1.67-2.2c-.4-.95-.59-2.11-.59-3.47s.2-2.53.59-3.47c.39-.94.95-1.66,1.67-2.16s1.54-.76,2.48-.76,1.76.25,2.48.76c.72.5,1.27,1.22,1.67,2.16.39.94.59,2.09.59,3.47s-.2,2.52-.59,3.47c-.4.96-.95,1.69-1.67,2.2-.72.51-1.54.77-2.48.77ZM206.59,489.19c.7,0,1.28-.37,1.75-1.1s.7-1.88.7-3.44-.23-2.73-.7-3.44c-.47-.72-1.05-1.07-1.75-1.07s-1.28.36-1.73,1.07c-.46.72-.69,1.86-.69,3.44s.23,2.71.69,3.44c.46.73,1.04,1.1,1.73,1.1Z"/>
      </g>
      <g>
        <path class="cls-10" d="M385.13,287.84l1.28.44c-.17.91-.39,1.87-.65,2.86-.26.99-.56,1.97-.88,2.93s-.68,1.85-1.06,2.67c-.38.82-.77,1.53-1.17,2.11-.11-.29-.27-.63-.48-1-.21-.37-.4-.68-.57-.93.37-.51.74-1.12,1.1-1.83.36-.71.7-1.47,1.01-2.29s.58-1.65.82-2.5c.24-.85.44-1.67.59-2.46ZM382.11,286.54h7.59v2.04h-7.59v-2.04ZM385.17,281.6h2v21.53h-2v-21.53ZM387.05,289.79c.14.17.34.45.62.85.27.39.56.83.88,1.31s.6.92.86,1.31c.26.39.44.68.55.85l-1.18,1.62c-.12-.33-.31-.72-.55-1.18-.24-.46-.49-.94-.75-1.44-.26-.5-.52-.96-.77-1.38s-.45-.77-.6-1.03l.95-.91ZM389.28,297.74h14.31v1.65h-14.31v-1.65ZM389.7,289.12h13.63v1.6h-13.63v-1.6ZM390.21,283.41h12.66v1.58h-12.66v-1.58ZM390.7,286.24h11.82v1.56h-11.82v-1.56ZM390.79,291.89h10.17v1.58h-8.17v9.57h-2v-11.15ZM391.86,294.81h9.17v1.49h-9.17v-1.49ZM392.77,281.6h2.04v8.27h-2.04v-8.27ZM395.39,290.05h2v8.41h-2v-8.41ZM400.15,291.89h2.02v9.06c0,.5-.06.88-.19,1.16-.12.28-.35.49-.67.63-.36.14-.8.22-1.34.25s-1.18.05-1.94.05c-.03-.25-.11-.54-.23-.88-.12-.34-.25-.63-.37-.88.51.02.99.03,1.43.04.44,0,.74,0,.89-.01.26,0,.39-.12.39-.37v-9.03ZM398.04,281.6h2.07v8.25h-2.07v-8.25Z"/>
        <path class="cls-10" d="M410.42,298.13c.53.8,1.26,1.41,2.19,1.8.94.39,2.05.62,3.33.66.67.03,1.46.05,2.37.06.91,0,1.88,0,2.9-.02,1.02-.02,2.01-.05,2.97-.08.96-.03,1.8-.08,2.53-.14-.09.17-.19.39-.28.66s-.18.55-.26.82c-.08.28-.14.53-.19.77-.67.03-1.44.05-2.31.07-.88.01-1.78.03-2.72.03-.94,0-1.85,0-2.73,0-.88,0-1.66-.03-2.32-.06-1.47-.06-2.73-.3-3.77-.71-1.04-.41-1.95-1.07-2.71-1.99-.53.48-1.07.96-1.64,1.44-.57.48-1.17.97-1.8,1.49l-1.11-2.28c.54-.34,1.13-.74,1.75-1.18s1.22-.9,1.78-1.35h2ZM410.42,290.7v8.38h-2.14v-6.34h-3v-2.04h5.13ZM405.42,283.48l1.63-1.32c.5.31,1,.67,1.52,1.09.52.42.99.84,1.43,1.28.43.43.79.84,1.07,1.21l-1.74,1.44c-.25-.37-.58-.78-1.01-1.22-.43-.44-.89-.88-1.39-1.31-.5-.43-1-.82-1.5-1.16ZM414.32,281.88l2.07.46c-.4,1.18-.93,2.32-1.57,3.41-.64,1.1-1.3,2.03-1.99,2.79-.16-.12-.34-.25-.57-.38-.22-.13-.45-.26-.69-.4-.23-.13-.44-.24-.63-.31.74-.68,1.41-1.52,1.99-2.52s1.04-2.02,1.38-3.05ZM411.32,288.8h14.98v1.88h-14.98v-1.88ZM413.32,292.26h11.43v6.69h-11.43v-6.69ZM414.25,284.38h11.08v1.88h-11.08v-1.88ZM415.46,294.04v3.11h7.01v-3.11h-7.01ZM417.78,281.6h2.16v8.45h-2.16v-8.45Z"/>
        <path class="cls-10" d="M429.46,282.92l1.86.3c-.11,1.04-.24,2.07-.41,3.09s-.35,1.98-.57,2.88c-.22.9-.47,1.7-.77,2.39-.12-.09-.28-.2-.48-.33-.19-.12-.39-.25-.6-.37s-.38-.22-.52-.3c.28-.63.51-1.37.7-2.21.19-.84.34-1.72.48-2.65.13-.93.24-1.87.31-2.81ZM428.16,294.39c.74-.19,1.59-.41,2.54-.67.95-.26,1.96-.55,3.02-.86,1.06-.31,2.13-.62,3.19-.93l.28,1.95c-1.46.45-2.93.91-4.44,1.37-1.5.46-2.85.88-4.04,1.25l-.56-2.11ZM429.83,286.24h6.8v2.09h-7.2l.4-2.09ZM432.41,281.6h2.04v21.55h-2.04v-21.55ZM439.63,281.6l2,.37c-.28,1.29-.63,2.52-1.06,3.72-.43,1.19-.91,2.3-1.46,3.33-.55,1.03-1.14,1.93-1.78,2.71-.12-.11-.29-.24-.49-.41-.2-.16-.41-.32-.63-.48-.22-.15-.41-.28-.58-.37.65-.68,1.23-1.49,1.73-2.44.5-.94.94-1.96,1.32-3.05.38-1.09.69-2.22.94-3.38ZM441.91,286.01l1.63.81c-.33,1.35-.77,2.72-1.34,4.12-.57,1.4-1.22,2.71-1.96,3.91-.74,1.21-1.55,2.21-2.42,3-.2-.2-.46-.42-.78-.66s-.63-.44-.94-.59c.68-.54,1.32-1.2,1.93-1.99.6-.78,1.15-1.65,1.65-2.6.5-.95.93-1.94,1.3-2.97.37-1.03.68-2.04.93-3.03ZM445.18,286.22l1.72.79c-.28,1.55-.65,3.08-1.11,4.6-.46,1.52-1.01,2.97-1.64,4.37-.63,1.39-1.34,2.66-2.14,3.81-.8,1.15-1.69,2.11-2.68,2.9-.2-.2-.48-.43-.82-.69-.35-.25-.68-.46-.99-.62,1.02-.73,1.94-1.64,2.76-2.73.82-1.09,1.54-2.31,2.17-3.66.63-1.35,1.17-2.77,1.63-4.26.46-1.49.82-3,1.1-4.52ZM439.84,285.36h8.64v2.04h-9.59l.95-2.04ZM447.55,285.36h2.09v.66c0,.16,0,.3-.02.41-.12,2.63-.25,4.86-.38,6.69-.13,1.83-.27,3.33-.41,4.51-.14,1.18-.3,2.1-.48,2.76-.18.67-.38,1.14-.62,1.42-.25.36-.5.6-.77.74-.26.14-.58.24-.95.3-.31.05-.7.07-1.17.08s-.96,0-1.47-.04c-.02-.33-.07-.69-.17-1.1s-.24-.76-.43-1.06c.5.05.94.07,1.35.08.4,0,.71.01.93.01.2,0,.36-.03.49-.08.12-.05.26-.16.39-.31.17-.22.33-.63.49-1.23.15-.6.3-1.47.43-2.6.13-1.13.26-2.57.37-4.33.12-1.76.23-3.89.34-6.4v-.51Z"/>
        <path class="cls-10" d="M454.84,287.84l1.3.44c-.17.93-.39,1.89-.65,2.88-.26.99-.56,1.96-.89,2.92-.33.95-.69,1.84-1.07,2.67-.38.83-.78,1.54-1.2,2.12-.12-.29-.29-.63-.5-1-.21-.37-.4-.69-.57-.95.39-.51.76-1.12,1.11-1.82.36-.7.69-1.47,1.01-2.29s.6-1.66.86-2.51c.26-.85.45-1.67.59-2.46ZM451.78,286.5h7.48v2.04h-7.48v-2.04ZM454.87,281.6h2.04v21.53h-2.04v-21.53ZM456.79,289.87c.12.15.32.42.59.8.27.38.56.79.88,1.24.32.45.6.87.86,1.25.26.39.43.66.52.81l-1.16,1.72c-.14-.31-.32-.69-.55-1.14-.22-.45-.46-.92-.72-1.4-.26-.49-.5-.94-.74-1.36-.24-.42-.44-.75-.59-1l.91-.93ZM464.95,288.15h2v6.06c0,.85-.09,1.7-.28,2.55-.19.85-.53,1.68-1.03,2.47-.5.8-1.23,1.54-2.19,2.23-.96.69-2.21,1.29-3.76,1.8-.06-.16-.17-.34-.31-.55-.15-.21-.3-.42-.45-.62-.16-.2-.3-.36-.44-.46,1.46-.46,2.61-.98,3.47-1.54.86-.56,1.51-1.18,1.94-1.83s.72-1.33.86-2.02c.14-.69.21-1.38.21-2.08v-6.01ZM465.97,283.55c-.43.63-.98,1.28-1.63,1.94-.65.66-1.37,1.28-2.16,1.87-.79.59-1.6,1.1-2.44,1.53-.11-.28-.27-.59-.48-.94-.21-.35-.41-.64-.59-.87.87-.4,1.7-.9,2.48-1.49.79-.59,1.51-1.23,2.15-1.92.64-.69,1.16-1.37,1.57-2.06h2.02c.54.76,1.17,1.48,1.88,2.17.71.69,1.47,1.3,2.28,1.85s1.61.98,2.42,1.3c-.2.25-.41.55-.62.92-.21.36-.38.7-.52,1.01-.77-.4-1.56-.89-2.37-1.46-.81-.57-1.55-1.2-2.24-1.87-.69-.67-1.27-1.33-1.75-1.99ZM460.05,290.72h12.01v6.2h-12.01v-6.2ZM461.67,287.03h8.71v1.81h-8.71v-1.81ZM461.97,292.42v2.76h8.08v-2.76h-8.08ZM467.15,295.81c.46,1.15.99,2.08,1.59,2.8.6.72,1.27,1.29,2.03,1.72.76.43,1.61.79,2.55,1.08-.26.23-.52.51-.75.85-.24.33-.41.67-.52,1.01-1.04-.4-1.97-.88-2.81-1.44-.84-.56-1.58-1.29-2.23-2.18-.65-.9-1.22-2.04-1.72-3.44l1.86-.39Z"/>
        <path class="cls-10" d="M483.18,284.99l1.81.72c-.51.74-1.11,1.47-1.79,2.18-.68.71-1.42,1.37-2.21,1.99-.79.61-1.61,1.16-2.46,1.65-.85.49-1.71.9-2.58,1.24-.16-.26-.36-.56-.63-.91s-.51-.61-.74-.81c.82-.28,1.65-.63,2.47-1.06.83-.43,1.63-.91,2.39-1.44s1.47-1.1,2.11-1.71,1.18-1.22,1.61-1.86ZM475.03,300.76h20.93v1.95h-20.93v-1.95ZM475.14,284.38h20.69v1.93h-20.69v-1.93ZM478.93,291.68h13.17v10.13h-2.28v-8.29h-8.73v8.38h-2.16v-10.22ZM479.97,294.84h10.99v1.58h-10.99v-1.58ZM479.97,297.76h10.99v1.6h-10.99v-1.6ZM484.32,281.6h2.18v9.41h-2.18v-9.41ZM487.54,285.03c.45.62,1,1.22,1.65,1.81.65.59,1.36,1.13,2.14,1.64.77.5,1.59.96,2.45,1.37s1.71.75,2.57,1.01c-.15.14-.32.31-.5.52-.18.21-.35.43-.51.65s-.3.43-.41.62c-.88-.33-1.76-.73-2.62-1.21-.87-.48-1.7-1.02-2.5-1.63s-1.54-1.25-2.23-1.94c-.69-.69-1.29-1.41-1.8-2.15l1.77-.7Z"/>
      </g>
      <g>
        <path class="cls-10" d="M395.51,342.05v-17.81c0-.77.03-1.71.08-2.81.05-1.1.09-2.02.12-2.77h-.15c-.36.67-.73,1.35-1.1,2.03s-.77,1.39-1.18,2.11l-5.57,8.44h15.6v3.48h-20.13v-3.02l11.34-17.38h5.19v27.71h-4.18Z"/>
        <path class="cls-10" d="M406.15,342.05v-2.59c2.66-2.61,4.94-4.92,6.83-6.95,1.9-2.03,3.35-3.86,4.35-5.5,1.01-1.64,1.51-3.18,1.51-4.62,0-1.03-.17-1.92-.52-2.67-.35-.75-.88-1.33-1.59-1.74-.71-.41-1.61-.62-2.69-.62s-2.13.32-3.06.95c-.93.63-1.78,1.37-2.55,2.23l-2.52-2.48c1.21-1.34,2.5-2.39,3.85-3.14,1.35-.75,2.97-1.12,4.86-1.12,1.73,0,3.24.35,4.53,1.04,1.29.7,2.29,1.67,3,2.92.71,1.25,1.06,2.72,1.06,4.39s-.47,3.38-1.41,5.11c-.94,1.73-2.21,3.52-3.81,5.38-1.6,1.86-3.39,3.82-5.38,5.88.75-.08,1.54-.15,2.38-.21.84-.06,1.61-.1,2.3-.1h7.28v3.83h-18.42Z"/>
        <path class="cls-10" d="M452.14,313.21h.66l.66-.19,2.48,1.35c-1.14,2.97-2.63,5.68-4.47,8.13-1.85,2.45-3.93,4.65-6.25,6.6-2.32,1.95-4.8,3.63-7.43,5.05-2.63,1.42-5.32,2.59-8.05,3.52-.15-.33-.35-.71-.6-1.12-.25-.41-.5-.81-.77-1.2-.27-.39-.52-.71-.75-.97,2.58-.75,5.12-1.77,7.62-3.06s4.86-2.82,7.06-4.59c2.21-1.77,4.16-3.74,5.86-5.9,1.7-2.17,3.03-4.49,3.99-6.97v-.66ZM440.76,309.23l4.1.77c-1.03,1.75-2.25,3.5-3.64,5.23-1.39,1.73-2.99,3.39-4.78,4.97s-3.84,3.06-6.13,4.43c-.15-.31-.39-.64-.7-1.01-.31-.36-.63-.71-.95-1.04-.32-.33-.64-.61-.95-.81,2.14-1.16,4.05-2.45,5.73-3.85,1.68-1.41,3.13-2.86,4.35-4.35,1.23-1.5,2.21-2.94,2.96-4.34ZM434.37,320.8l2.75-2.32c.98.64,1.99,1.39,3.04,2.23,1.04.84,2.03,1.67,2.96,2.5.93.83,1.68,1.61,2.25,2.36l-2.94,2.59c-.54-.7-1.26-1.48-2.15-2.36-.89-.88-1.85-1.75-2.88-2.63-1.03-.88-2.04-1.67-3.02-2.36ZM442.54,328.39h16.57v3.33h-16.57v13.59h-3.68v-14.13l2.86-2.79h.81ZM439.32,313.21h13.97v3.29h-13.97v-3.29ZM440.91,340.43h18.08v3.33h-18.08v-3.33ZM457.28,328.39h3.75v16.95h-3.75v-16.95Z"/>
      </g>
      <rect class="cls-9" x="381.59" y="356.08" width="87.76" height="25.71"/>
      <g>
        <path class="cls-10" d="M385.11,378.12v-1.84c1.89-1.85,3.51-3.5,4.86-4.94,1.35-1.44,2.38-2.74,3.1-3.91.72-1.17,1.07-2.26,1.07-3.29,0-.73-.12-1.37-.37-1.9-.25-.53-.62-.95-1.13-1.24-.5-.29-1.14-.44-1.91-.44s-1.51.22-2.18.67c-.66.45-1.27.98-1.82,1.58l-1.79-1.76c.86-.96,1.78-1.7,2.74-2.23.96-.53,2.12-.8,3.46-.8,1.23,0,2.3.25,3.22.74.92.5,1.63,1.19,2.13,2.08.5.89.76,1.93.76,3.13s-.33,2.41-1.01,3.63c-.67,1.23-1.57,2.51-2.71,3.83-1.14,1.32-2.41,2.72-3.83,4.19.53-.06,1.1-.11,1.69-.15s1.14-.07,1.64-.07h5.18v2.73h-13.11Z"/>
        <path class="cls-10" d="M407.47,378.51c-1.36,0-2.53-.4-3.51-1.2-.98-.8-1.74-1.96-2.27-3.5-.53-1.53-.8-3.41-.8-5.63s.27-4.08.8-5.59c.53-1.5,1.29-2.64,2.27-3.42.98-.77,2.15-1.16,3.51-1.16s2.5.39,3.47,1.16c.97.77,1.73,1.91,2.26,3.42.53,1.5.8,3.37.8,5.59s-.27,4.1-.8,5.63c-.53,1.53-1.29,2.7-2.26,3.5-.97.8-2.13,1.2-3.47,1.2ZM407.47,375.97c.68,0,1.28-.26,1.82-.77.53-.51.95-1.34,1.24-2.48.29-1.14.44-2.65.44-4.54s-.15-3.39-.44-4.5c-.29-1.11-.71-1.91-1.24-2.41-.53-.5-1.14-.74-1.82-.74s-1.29.25-1.82.74c-.53.5-.95,1.3-1.25,2.41-.3,1.11-.45,2.61-.45,4.5s.15,3.41.45,4.54c.3,1.14.72,1.96,1.25,2.48.53.51,1.14.77,1.82.77Z"/>
        <path class="cls-10" d="M419.39,378.51c-.59,0-1.09-.22-1.5-.65-.41-.43-.62-.97-.62-1.61s.21-1.2.62-1.61.91-.62,1.5-.62,1.12.21,1.53.62.62.95.62,1.61-.21,1.18-.62,1.61c-.41.43-.92.65-1.53.65Z"/>
        <path class="cls-10" d="M424.71,378.12v-1.84c1.89-1.85,3.51-3.5,4.86-4.94,1.35-1.44,2.38-2.74,3.1-3.91.72-1.17,1.07-2.26,1.07-3.29,0-.73-.12-1.37-.37-1.9-.25-.53-.62-.95-1.13-1.24-.5-.29-1.14-.44-1.91-.44s-1.51.22-2.18.67c-.66.45-1.27.98-1.82,1.58l-1.79-1.76c.86-.96,1.78-1.7,2.74-2.23.96-.53,2.12-.8,3.46-.8,1.23,0,2.3.25,3.22.74.92.5,1.63,1.19,2.13,2.08.5.89.76,1.93.76,3.13s-.33,2.41-1.01,3.63c-.67,1.23-1.57,2.51-2.71,3.83-1.14,1.32-2.41,2.72-3.83,4.19.53-.06,1.1-.11,1.69-.15s1.14-.07,1.64-.07h5.18v2.73h-13.11Z"/>
        <path class="cls-10" d="M444.92,370.27c-.94,0-1.76-.25-2.48-.76s-1.27-1.24-1.67-2.2c-.4-.96-.59-2.12-.59-3.48s.2-2.51.59-3.46c.39-.95.95-1.67,1.67-2.16.72-.5,1.54-.74,2.48-.74s1.79.25,2.51.74c.72.5,1.27,1.22,1.67,2.16.39.95.59,2.1.59,3.46s-.2,2.52-.59,3.48c-.4.96-.95,1.7-1.67,2.2s-1.55.76-2.51.76ZM444.92,368.43c.72,0,1.3-.38,1.75-1.13.45-.75.67-1.91.67-3.47s-.23-2.7-.67-3.42c-.45-.72-1.03-1.07-1.75-1.07s-1.28.36-1.73,1.07c-.46.72-.69,1.85-.69,3.42s.23,2.72.69,3.47c.46.75,1.04,1.13,1.73,1.13ZM445.55,378.51l11.1-21.04h2.01l-11.1,21.04h-2.01ZM459.32,378.51c-.94,0-1.76-.26-2.48-.77s-1.27-1.25-1.67-2.2c-.4-.95-.59-2.11-.59-3.47s.2-2.53.59-3.47c.39-.94.95-1.66,1.67-2.16s1.54-.76,2.48-.76,1.76.25,2.48.76c.72.5,1.27,1.22,1.67,2.16.39.94.59,2.09.59,3.47s-.2,2.52-.59,3.47c-.4.96-.95,1.69-1.67,2.2-.72.51-1.54.77-2.48.77ZM459.32,376.61c.7,0,1.28-.37,1.75-1.1s.7-1.88.7-3.44-.23-2.73-.7-3.44c-.47-.72-1.05-1.07-1.75-1.07s-1.28.36-1.73,1.07c-.46.72-.69,1.86-.69,3.44s.23,2.71.69,3.44c.46.73,1.04,1.1,1.73,1.1Z"/>
      </g>
      <g>
        <path class="cls-10" d="M24.31,241.26h.44l.37-.05,1.28.3c-.31,3.44-.94,6.25-1.89,8.43-.95,2.18-2.18,3.83-3.68,4.95-.11-.16-.27-.33-.48-.52-.21-.19-.42-.38-.63-.57-.21-.19-.4-.33-.57-.42,1.47-.99,2.64-2.45,3.5-4.37.86-1.92,1.41-4.37,1.66-7.34v-.42ZM19.36,234.67h4.97v1.95h-4.97v-1.95ZM23.55,234.67h.3l.33-.09,1.51.42c-.36.85-.77,1.8-1.23,2.84-.46,1.05-.95,2.1-1.45,3.16-.5,1.06-.99,2.06-1.45,3.01l-2-.53c.36-.7.73-1.44,1.11-2.22.39-.78.76-1.57,1.11-2.36.36-.79.69-1.52,1-2.21.31-.68.56-1.28.77-1.79v-.23ZM21.69,244.82c.46,1.56,1.08,2.83,1.83,3.8s1.65,1.7,2.66,2.21c1.01.5,2.14.85,3.38,1.03,1.24.19,2.58.28,4.02.28h4.55c.62,0,1.19,0,1.72-.01s.93-.02,1.21-.04c-.11.16-.22.36-.34.63-.12.26-.22.53-.31.8-.09.27-.16.51-.21.71h-6.69c-1.67,0-3.21-.11-4.62-.34-1.41-.23-2.68-.65-3.81-1.28-1.13-.63-2.12-1.52-2.98-2.67s-1.58-2.65-2.15-4.49l1.74-.63ZM21.57,241.26h3.62v1.95h-3.76l.14-1.95ZM25.75,238.01h15.1v1.74h-15.1v-1.74ZM26.08,247.42h14.26v1.77h-14.26v-1.77ZM27.12,244.26h12.19v1.65h-12.19v-1.65ZM27.4,234.97h11.71v7.87h-11.84v-1.72h9.68v-4.46h-9.55v-1.7ZM31.95,233.46h2.11v17.93h-2.11v-17.93Z"/>
        <path class="cls-10" d="M51.53,248.51l1.67.74c-.54.57-1.17,1.12-1.89,1.63-.72.51-1.49.98-2.32,1.41-.83.43-1.68.81-2.57,1.15-.88.34-1.76.62-2.62.84-.16-.28-.37-.6-.64-.95-.27-.36-.52-.64-.73-.86.85-.15,1.71-.36,2.59-.63.87-.26,1.71-.57,2.52-.92.81-.35,1.55-.72,2.24-1.13s1.27-.83,1.75-1.28ZM45.86,233.13l2.07.53c-.45,1.01-1,1.99-1.66,2.94s-1.33,1.75-2.01,2.4c-.12-.11-.29-.24-.51-.39-.22-.15-.44-.31-.66-.45-.22-.15-.43-.27-.62-.36.7-.57,1.35-1.27,1.95-2.1.6-.83,1.08-1.68,1.44-2.57ZM42.8,244.3c.74-.09,1.59-.21,2.54-.34s1.96-.28,3.03-.44c1.07-.16,2.14-.33,3.2-.5l.09,1.7c-1.53.25-3.05.49-4.55.72s-2.85.45-4.04.65l-.28-1.79ZM42.89,247.53h20.92v1.77h-20.92v-1.77ZM43.29,239.45h8.27v1.58h-8.27v-1.58ZM45.58,234.99h7.41v1.76h-7.41v-1.76ZM46.44,239.94h2v4.67h-2v-4.67ZM46.68,236.38l1.72-.46c.26.4.52.84.78,1.31.26.47.44.88.57,1.22l-1.81.53c-.09-.36-.26-.77-.5-1.25-.24-.48-.49-.93-.75-1.35ZM52.78,239.31h2v2.39c0,.65-.1,1.3-.3,1.96-.2.66-.59,1.28-1.16,1.86-.57.58-1.41,1.09-2.51,1.52-.08-.14-.21-.31-.38-.5-.18-.19-.36-.38-.56-.57-.19-.19-.36-.33-.5-.42.98-.34,1.71-.72,2.19-1.15s.81-.88.98-1.35c.16-.47.24-.95.24-1.43v-2.32ZM55.15,233.13l2.09.51c-.43,1.04-1,2.03-1.68,2.97-.69.94-1.4,1.73-2.12,2.35-.14-.11-.33-.23-.56-.36-.23-.13-.47-.26-.72-.39-.25-.13-.46-.24-.63-.31.76-.57,1.46-1.28,2.11-2.12.65-.84,1.15-1.72,1.51-2.64ZM52.23,245.91h2.14v8.87h-2.14v-8.87ZM55.04,248.6c.5.43,1.09.84,1.79,1.23.7.39,1.46.74,2.28,1.06.82.32,1.67.6,2.54.85.87.25,1.74.44,2.59.58-.14.16-.3.34-.49.56-.19.22-.36.44-.51.67-.15.23-.29.45-.39.65-.85-.22-1.72-.48-2.61-.8-.89-.32-1.75-.68-2.58-1.1-.83-.42-1.6-.88-2.32-1.39-.72-.51-1.35-1.05-1.89-1.6l1.6-.7ZM53.55,239.31h6.57v1.51h-6.57v-1.51ZM54.74,242.72l1.28-1.11c.36.2.72.44,1.1.72s.74.55,1.07.82c.33.27.6.52.8.75l-1.3,1.28c-.33-.36-.77-.77-1.32-1.23-.56-.46-1.1-.88-1.63-1.23ZM54.78,234.99h9.22v1.76h-9.22v-1.76ZM56.76,236.38l1.79-.51c.36.37.7.79,1.04,1.27.34.47.59.9.74,1.29l-1.86.56c-.16-.36-.4-.78-.72-1.27-.33-.49-.66-.93-1-1.33ZM59.05,239.31h2.07v4.46c0,.2,0,.36.01.49,0,.12.03.21.06.26.06.06.17.09.33.09h.51c.06,0,.13,0,.21-.02.08-.02.13-.03.16-.05.09-.06.16-.22.21-.49.03-.14.05-.36.06-.66s.02-.65.03-1.06c.19.16.42.3.7.44.28.14.54.25.79.33-.03.43-.07.87-.1,1.3s-.1.74-.17.93c-.14.39-.37.66-.7.81-.14.06-.31.11-.52.15s-.41.06-.62.06h-1.11c-.26,0-.52-.04-.78-.12-.26-.08-.47-.19-.64-.35-.19-.17-.31-.4-.38-.69-.07-.29-.1-.76-.1-1.43v-4.46Z"/>
      </g>
      <g>
        <path class="cls-9" d="M50.41,168.56v-16.4h2.58v16.4h-2.58Z"/>
        <path class="cls-9" d="M63.67,168.87c-1.02,0-1.98-.19-2.86-.57-.88-.38-1.66-.93-2.33-1.66-.67-.73-1.19-1.61-1.56-2.66-.37-1.05-.56-2.24-.56-3.59s.19-2.53.58-3.58c.39-1.05.91-1.95,1.58-2.68s1.45-1.29,2.36-1.68c.9-.38,1.88-.58,2.92-.58s1.91.21,2.69.62c.79.42,1.43.9,1.94,1.45l-1.38,1.65c-.43-.43-.91-.78-1.44-1.06-.53-.27-1.12-.41-1.77-.41-.95,0-1.78.25-2.5.76-.72.5-1.28,1.22-1.69,2.14-.41.92-.61,2.03-.61,3.32s.19,2.41.58,3.35c.39.94.94,1.67,1.65,2.17.71.5,1.55.76,2.51.76.74,0,1.41-.16,1.99-.48.59-.32,1.12-.75,1.61-1.28l1.4,1.65c-.67.77-1.42,1.36-2.26,1.77-.84.41-1.79.61-2.86.61Z"/>
        <path class="cls-9" d="M74.49,168.56v-14.22h-4.79v-2.18h12.22v2.18h-4.81v14.22h-2.63Z"/>
      </g>
      <g>
        <path class="cls-10" d="M21.6,293.73v-2.59c2.66-2.61,4.94-4.92,6.83-6.95,1.9-2.03,3.35-3.86,4.35-5.5,1.01-1.64,1.51-3.18,1.51-4.62,0-1.03-.17-1.92-.52-2.67-.35-.75-.88-1.33-1.59-1.74-.71-.41-1.61-.62-2.69-.62s-2.13.32-3.06.95c-.93.63-1.78,1.37-2.55,2.23l-2.52-2.48c1.21-1.34,2.5-2.39,3.85-3.14,1.35-.75,2.97-1.12,4.86-1.12,1.73,0,3.24.35,4.53,1.04,1.29.7,2.29,1.67,3,2.92.71,1.25,1.06,2.72,1.06,4.39s-.47,3.38-1.41,5.11c-.94,1.73-2.21,3.52-3.81,5.38-1.6,1.86-3.39,3.82-5.38,5.88.75-.08,1.54-.15,2.38-.21.84-.06,1.61-.1,2.3-.1h7.28v3.83h-18.42Z"/>
        <path class="cls-10" d="M45.25,293.73v-3.68h6.27v-19.04h-5.11v-2.83c1.34-.26,2.51-.56,3.5-.91.99-.35,1.9-.77,2.73-1.26h3.37v24.04h5.54v3.68h-16.3Z"/>
        <path class="cls-10" d="M89.65,264.89h.66l.66-.19,2.48,1.35c-1.14,2.97-2.63,5.68-4.47,8.13-1.85,2.45-3.93,4.65-6.25,6.6-2.32,1.95-4.8,3.63-7.43,5.05-2.63,1.42-5.32,2.59-8.05,3.52-.15-.33-.35-.71-.6-1.12-.25-.41-.5-.81-.77-1.2-.27-.39-.52-.71-.75-.97,2.58-.75,5.12-1.77,7.62-3.06s4.86-2.82,7.06-4.59c2.21-1.77,4.16-3.74,5.86-5.9,1.7-2.17,3.03-4.49,3.99-6.97v-.66ZM78.27,260.9l4.1.77c-1.03,1.75-2.25,3.5-3.64,5.23-1.39,1.73-2.99,3.39-4.78,4.97s-3.84,3.06-6.13,4.43c-.15-.31-.39-.64-.7-1.01-.31-.36-.63-.71-.95-1.04-.32-.33-.64-.61-.95-.81,2.14-1.16,4.05-2.45,5.73-3.85,1.68-1.41,3.13-2.86,4.35-4.35,1.23-1.5,2.21-2.94,2.96-4.34ZM71.88,272.48l2.75-2.32c.98.64,1.99,1.39,3.04,2.23,1.04.84,2.03,1.67,2.96,2.5.93.83,1.68,1.61,2.25,2.36l-2.94,2.59c-.54-.7-1.26-1.48-2.15-2.36-.89-.88-1.85-1.75-2.88-2.63-1.03-.88-2.04-1.67-3.02-2.36ZM80.05,280.06h16.57v3.33h-16.57v13.59h-3.68v-14.13l2.86-2.79h.81ZM76.84,264.89h13.97v3.29h-13.97v-3.29ZM78.43,292.1h18.08v3.33h-18.08v-3.33ZM94.8,280.06h3.75v16.95h-3.75v-16.95Z"/>
      </g>
      <rect class="cls-9" x="19.1" y="307.76" width="87.76" height="25.71"/>
      <g>
        <path class="cls-10" d="M23.75,329.8v-2.62h4.46v-13.55h-3.63v-2.01c.95-.18,1.79-.4,2.49-.65.71-.25,1.35-.55,1.94-.89h2.4v17.1h3.94v2.62h-11.59Z"/>
        <path class="cls-10" d="M44.98,330.18c-1.36,0-2.53-.4-3.51-1.2-.98-.8-1.74-1.96-2.27-3.5-.53-1.53-.8-3.41-.8-5.63s.27-4.08.8-5.59c.53-1.5,1.29-2.64,2.27-3.42.98-.77,2.15-1.16,3.51-1.16s2.5.39,3.47,1.16c.97.77,1.73,1.91,2.26,3.42.53,1.5.8,3.37.8,5.59s-.27,4.1-.8,5.63c-.53,1.53-1.29,2.7-2.26,3.5-.97.8-2.13,1.2-3.47,1.2ZM44.98,327.65c.68,0,1.28-.26,1.82-.77.53-.51.95-1.34,1.24-2.48.29-1.14.44-2.65.44-4.54s-.15-3.39-.44-4.5c-.29-1.11-.71-1.91-1.24-2.41-.53-.5-1.14-.74-1.82-.74s-1.29.25-1.82.74c-.53.5-.95,1.3-1.25,2.41-.3,1.11-.45,2.61-.45,4.5s.15,3.41.45,4.54c.3,1.14.72,1.96,1.25,2.48.53.51,1.14.77,1.82.77Z"/>
        <path class="cls-10" d="M56.91,330.18c-.59,0-1.09-.22-1.5-.65-.41-.43-.62-.97-.62-1.61s.21-1.2.62-1.61.91-.62,1.5-.62,1.12.21,1.53.62.62.95.62,1.61-.21,1.18-.62,1.61c-.41.43-.92.65-1.53.65Z"/>
        <path class="cls-10" d="M63.35,329.8v-2.62h4.46v-13.55h-3.63v-2.01c.95-.18,1.79-.4,2.49-.65.71-.25,1.35-.55,1.94-.89h2.4v17.1h3.94v2.62h-11.59Z"/>
        <path class="cls-10" d="M82.43,321.95c-.94,0-1.76-.25-2.48-.76s-1.27-1.24-1.67-2.2c-.4-.96-.59-2.12-.59-3.48s.2-2.51.59-3.46c.39-.95.95-1.67,1.67-2.16.72-.5,1.54-.74,2.48-.74s1.79.25,2.51.74c.72.5,1.27,1.22,1.67,2.16.39.95.59,2.1.59,3.46s-.2,2.52-.59,3.48c-.4.96-.95,1.7-1.67,2.2s-1.55.76-2.51.76ZM82.43,320.1c.72,0,1.3-.38,1.75-1.13.45-.75.67-1.91.67-3.47s-.23-2.7-.67-3.42c-.45-.72-1.03-1.07-1.75-1.07s-1.28.36-1.73,1.07c-.46.72-.69,1.85-.69,3.42s.23,2.72.69,3.47c.46.75,1.04,1.13,1.73,1.13ZM83.07,330.18l11.1-21.04h2.01l-11.1,21.04h-2.01ZM96.84,330.18c-.94,0-1.76-.26-2.48-.77s-1.27-1.25-1.67-2.2c-.4-.95-.59-2.11-.59-3.47s.2-2.53.59-3.47c.39-.94.95-1.66,1.67-2.16s1.54-.76,2.48-.76,1.76.25,2.48.76c.72.5,1.27,1.22,1.67,2.16.39.94.59,2.09.59,3.47s-.2,2.52-.59,3.47c-.4.96-.95,1.69-1.67,2.2-.72.51-1.54.77-2.48.77ZM96.84,328.28c.7,0,1.28-.37,1.75-1.1s.7-1.88.7-3.44-.23-2.73-.7-3.44c-.47-.72-1.05-1.07-1.75-1.07s-1.28.36-1.73,1.07c-.46.72-.69,1.86-.69,3.44s.23,2.71.69,3.44c.46.73,1.04,1.1,1.73,1.1Z"/>
      </g>
      <g>
        <path class="cls-10" d="M210.31,101.33c.33.03.65.05.98.07.33.02.67.02,1.04.02.2,0,.52,0,.96-.02.44-.01.95-.04,1.52-.06.57-.02,1.15-.05,1.74-.08.59-.03,1.13-.07,1.61-.1.49-.04.86-.07,1.13-.1.33-.03.61-.07.85-.12.24-.05.43-.09.57-.14l1.46,1.7c-.19.12-.43.29-.74.49-.31.2-.56.39-.74.56-.34.28-.72.59-1.15.94-.43.35-.87.71-1.32,1.09-.46.38-.91.75-1.37,1.13-.46.37-.9.73-1.32,1.08s-.82.66-1.17.94c1.11-.12,2.29-.23,3.52-.33,1.23-.09,2.44-.17,3.63-.23,1.19-.06,2.31-.09,3.34-.09l.02,2.18c-1.13-.06-2.23-.09-3.29-.08s-1.95.06-2.66.15c-.54.08-1.06.24-1.57.49-.5.25-.96.55-1.36.92-.4.36-.72.78-.95,1.24-.23.46-.35.95-.35,1.46,0,.7.17,1.26.51,1.7.34.43.8.76,1.38.99.58.22,1.22.38,1.92.48.67.08,1.3.11,1.89.1s1.1-.03,1.52-.06l-.49,2.42c-2.9.11-5.12-.28-6.69-1.16-1.56-.88-2.35-2.25-2.35-4.09,0-.59.12-1.14.35-1.66.23-.52.52-.99.87-1.41.35-.42.69-.75,1.03-1-1.16.09-2.43.22-3.8.4-1.37.17-2.71.36-4.01.58l-.21-2.21c.63-.06,1.32-.14,2.06-.23s1.4-.17,1.99-.23c.59-.39,1.22-.85,1.89-1.38.67-.53,1.35-1.08,2.02-1.65.67-.57,1.3-1.09,1.87-1.58.57-.49,1.04-.89,1.39-1.22-.19.02-.46.03-.84.05s-.79.04-1.24.07-.91.05-1.36.07c-.45.02-.86.04-1.22.06-.36.02-.65.04-.85.06-.29.02-.61.04-.95.08-.34.04-.67.07-.98.1l-.12-2.37Z"/>
        <path class="cls-10" d="M241.02,102.98c-.16,1.19-.35,2.45-.59,3.77-.24,1.32-.56,2.64-.96,3.94-.46,1.58-.99,2.91-1.57,4.01s-1.21,1.92-1.89,2.5c-.68.57-1.4.86-2.16.86s-1.49-.27-2.16-.8c-.67-.53-1.21-1.29-1.63-2.25-.42-.97-.63-2.09-.63-3.38s.27-2.53.8-3.69,1.27-2.19,2.22-3.09c.94-.9,2.04-1.6,3.3-2.11,1.25-.51,2.61-.77,4.06-.77s2.65.22,3.77.67,2.08,1.07,2.88,1.87c.8.8,1.41,1.73,1.82,2.8s.63,2.21.63,3.41c0,1.62-.34,3.07-1.01,4.33s-1.66,2.29-2.96,3.09c-1.3.8-2.9,1.33-4.78,1.61l-1.37-2.18c.4-.05.77-.1,1.12-.15.34-.05.66-.11.95-.17.74-.17,1.45-.43,2.12-.79.67-.36,1.27-.81,1.8-1.36.53-.55.94-1.2,1.24-1.94.3-.74.45-1.58.45-2.51s-.15-1.79-.44-2.59c-.29-.8-.73-1.49-1.3-2.08-.57-.59-1.28-1.05-2.11-1.38-.84-.33-1.78-.5-2.83-.5-1.27,0-2.4.22-3.39.67-.99.45-1.83,1.04-2.52,1.78-.69.74-1.21,1.53-1.57,2.38-.36.85-.53,1.67-.53,2.46,0,.88.11,1.61.33,2.2.22.58.49,1.01.81,1.29.33.28.66.42,1,.42s.69-.17,1.04-.52c.36-.35.72-.9,1.08-1.66.36-.76.72-1.73,1.08-2.9.36-1.11.65-2.3.89-3.56.24-1.26.41-2.5.52-3.7l2.49.05Z"/>
        <path class="cls-10" d="M256.81,99.36l2.02.63c-.5,1.3-1.08,2.6-1.77,3.89s-1.41,2.51-2.19,3.66c-.78,1.15-1.59,2.16-2.43,3.04-.08-.17-.19-.39-.33-.67s-.29-.56-.44-.85c-.16-.29-.3-.51-.44-.66.74-.74,1.46-1.59,2.15-2.55.69-.96,1.33-2,1.92-3.11.59-1.12,1.09-2.24,1.51-3.37ZM254.39,105.51l2.14-2.14.02.02v17.4h-2.16v-15.28ZM257.13,108.69l13.91-5.41.84,1.93-13.89,5.41-.86-1.93ZM260.04,101.7h2.16v15.19c0,.45.05.79.14,1.02.09.23.27.39.55.48.27.09.67.13,1.2.13h5.41c.48,0,.84-.09,1.08-.27.24-.18.41-.51.52-.99.11-.48.19-1.17.26-2.07.25.19.56.36.95.52.39.16.74.28,1.04.36-.09,1.1-.26,1.97-.5,2.62-.24.65-.61,1.11-1.11,1.38-.5.27-1.2.41-2.1.41h-5.69c-1.01,0-1.79-.1-2.36-.3-.57-.2-.96-.57-1.2-1.1s-.35-1.27-.35-2.22v-15.17ZM265.12,99.33h2.07v16.16h-2.07v-16.16ZM270.3,103.72h-.21l.44-.35.4-.33,1.51.6-.07.35c0,1.38-.01,2.63-.04,3.76-.02,1.13-.05,2.08-.08,2.85-.03.77-.08,1.32-.14,1.66-.08.56-.23.98-.46,1.27-.23.29-.53.49-.91.62-.33.12-.72.2-1.2.22-.47.02-.9.03-1.29.01-.02-.31-.07-.66-.16-1.06s-.2-.72-.33-.96c.29.02.6.03.93.04s.56.01.7.01c.17,0,.31-.04.43-.12.12-.08.2-.25.27-.51.06-.23.1-.68.13-1.35.02-.67.04-1.56.06-2.69.02-1.13.02-2.47.02-4.02Z"/>
      </g>
      <g>
        <path class="cls-10" d="M202.82,159.82v-2.59c2.66-2.61,4.94-4.92,6.83-6.95,1.9-2.03,3.35-3.86,4.35-5.5,1.01-1.64,1.51-3.18,1.51-4.62,0-1.03-.17-1.92-.52-2.67-.35-.75-.88-1.33-1.59-1.74-.71-.41-1.61-.62-2.69-.62s-2.13.32-3.06.95c-.93.63-1.78,1.37-2.55,2.23l-2.52-2.48c1.21-1.34,2.5-2.39,3.85-3.14,1.35-.75,2.97-1.12,4.86-1.12,1.73,0,3.24.35,4.53,1.04,1.29.7,2.29,1.67,3,2.92.71,1.25,1.06,2.72,1.06,4.39s-.47,3.38-1.41,5.11c-.94,1.73-2.21,3.52-3.81,5.38-1.6,1.86-3.39,3.82-5.38,5.88.75-.08,1.54-.15,2.38-.21.84-.06,1.61-.1,2.3-.1h7.28v3.83h-18.42Z"/>
        <path class="cls-10" d="M234.25,160.36c-1.78,0-3.37-.33-4.76-.99-1.39-.66-2.5-1.56-3.31-2.71-.81-1.15-1.22-2.46-1.22-3.93,0-1.19.24-2.24.74-3.16.49-.92,1.12-1.72,1.9-2.42.77-.7,1.59-1.26,2.44-1.7v-.16c-1.03-.75-1.92-1.65-2.67-2.71-.75-1.06-1.12-2.31-1.12-3.75s.35-2.75,1.06-3.85c.71-1.1,1.68-1.94,2.9-2.54,1.23-.59,2.63-.89,4.2-.89s3.07.32,4.26.95c1.19.63,2.11,1.5,2.77,2.61.66,1.11.99,2.4.99,3.87,0,.96-.19,1.84-.58,2.67-.39.83-.86,1.56-1.43,2.21-.57.65-1.15,1.19-1.74,1.63v.15c.85.49,1.65,1.06,2.38,1.7.74.65,1.32,1.41,1.76,2.3.44.89.66,1.96.66,3.19,0,1.39-.38,2.66-1.14,3.79-.76,1.14-1.83,2.04-3.21,2.71-1.38.67-3,1.01-4.86,1.01ZM234.37,157.11c.95,0,1.8-.18,2.54-.54s1.31-.87,1.72-1.53c.41-.66.62-1.44.62-2.34,0-.8-.18-1.49-.54-2.07-.36-.58-.86-1.09-1.51-1.53-.65-.44-1.39-.84-2.23-1.22-.84-.37-1.75-.74-2.73-1.1-.98.64-1.78,1.43-2.4,2.36-.62.93-.93,1.97-.93,3.14,0,.96.24,1.79.72,2.52.48.72,1.13,1.29,1.95,1.7.83.41,1.75.62,2.79.62ZM236.15,144.37c.83-.77,1.45-1.59,1.88-2.44s.64-1.74.64-2.67c0-.85-.17-1.61-.5-2.28s-.83-1.2-1.49-1.59c-.66-.39-1.45-.58-2.38-.58-1.16,0-2.13.36-2.9,1.06-.77.71-1.16,1.7-1.16,2.96,0,1.01.28,1.84.83,2.5.55.66,1.28,1.23,2.17,1.7s1.86.92,2.92,1.33Z"/>
        <path class="cls-10" d="M270.87,130.98h.66l.66-.19,2.48,1.35c-1.14,2.97-2.63,5.68-4.47,8.13-1.85,2.45-3.93,4.65-6.25,6.6-2.32,1.95-4.8,3.63-7.43,5.05-2.63,1.42-5.32,2.59-8.05,3.52-.15-.33-.35-.71-.6-1.12-.25-.41-.5-.81-.77-1.2-.27-.39-.52-.71-.75-.97,2.58-.75,5.12-1.77,7.62-3.06s4.86-2.82,7.06-4.59c2.21-1.77,4.16-3.74,5.86-5.9,1.7-2.17,3.03-4.49,3.99-6.97v-.66ZM259.49,126.99l4.1.77c-1.03,1.75-2.25,3.5-3.64,5.23-1.39,1.73-2.99,3.39-4.78,4.97s-3.84,3.06-6.13,4.43c-.15-.31-.39-.64-.7-1.01-.31-.36-.63-.71-.95-1.04-.32-.33-.64-.61-.95-.81,2.14-1.16,4.05-2.45,5.73-3.85,1.68-1.41,3.13-2.86,4.35-4.35,1.23-1.5,2.21-2.94,2.96-4.34ZM253.1,138.57l2.75-2.32c.98.64,1.99,1.39,3.04,2.23,1.04.84,2.03,1.67,2.96,2.5.93.83,1.68,1.61,2.25,2.36l-2.94,2.59c-.54-.7-1.26-1.48-2.15-2.36-.89-.88-1.85-1.75-2.88-2.63-1.03-.88-2.04-1.67-3.02-2.36ZM261.27,146.15h16.57v3.33h-16.57v13.59h-3.68v-14.13l2.86-2.79h.81ZM258.05,130.98h13.97v3.29h-13.97v-3.29ZM259.64,158.19h18.08v3.33h-18.08v-3.33ZM276.01,146.15h3.75v16.95h-3.75v-16.95Z"/>
      </g>
      <g>
        <path class="cls-9" d="M82.68,206.03v-3.68h6.27v-19.04h-5.11v-2.83c1.34-.26,2.51-.56,3.5-.91.99-.35,1.9-.77,2.73-1.26h3.37v24.04h5.54v3.68h-16.3Z"/>
        <path class="cls-9" d="M112.52,206.57c-1.91,0-3.56-.56-4.94-1.68-1.38-1.12-2.45-2.76-3.19-4.92-.75-2.15-1.12-4.79-1.12-7.92s.37-5.74,1.12-7.86c.75-2.12,1.81-3.72,3.19-4.8,1.38-1.08,3.02-1.62,4.94-1.62s3.51.54,4.88,1.62c1.37,1.08,2.43,2.68,3.17,4.8.75,2.12,1.12,4.74,1.12,7.86s-.37,5.76-1.12,7.92c-.75,2.16-1.81,3.79-3.17,4.92-1.37,1.12-2.99,1.68-4.88,1.68ZM112.52,203.01c.95,0,1.81-.36,2.55-1.08.75-.72,1.33-1.88,1.74-3.48.41-1.6.62-3.73.62-6.39s-.21-4.77-.62-6.33c-.41-1.56-.99-2.69-1.74-3.39-.75-.7-1.6-1.05-2.55-1.05s-1.81.35-2.55,1.05c-.75.7-1.34,1.83-1.76,3.39s-.64,3.67-.64,6.33.21,4.79.64,6.39c.43,1.6,1.01,2.76,1.76,3.48.75.72,1.6,1.08,2.55,1.08Z"/>
        <path class="cls-9" d="M149.14,177.19h.66l.66-.19,2.48,1.35c-1.14,2.97-2.63,5.68-4.47,8.13-1.85,2.45-3.93,4.65-6.25,6.6-2.32,1.95-4.8,3.63-7.43,5.05-2.63,1.42-5.32,2.59-8.05,3.52-.15-.33-.35-.71-.6-1.12-.25-.41-.5-.81-.77-1.2-.27-.39-.52-.71-.75-.97,2.58-.75,5.12-1.77,7.62-3.06s4.86-2.82,7.06-4.59c2.21-1.77,4.16-3.74,5.86-5.9,1.7-2.17,3.03-4.49,3.99-6.97v-.66ZM137.76,173.2l4.1.77c-1.03,1.75-2.25,3.5-3.64,5.23-1.39,1.73-2.99,3.39-4.78,4.97s-3.84,3.06-6.13,4.43c-.15-.31-.39-.64-.7-1.01-.31-.36-.63-.71-.95-1.04-.32-.33-.64-.61-.95-.81,2.14-1.16,4.05-2.45,5.73-3.85,1.68-1.41,3.13-2.86,4.35-4.35,1.23-1.5,2.21-2.94,2.96-4.34ZM131.37,184.78l2.75-2.32c.98.64,1.99,1.39,3.04,2.23,1.04.84,2.03,1.67,2.96,2.5.93.83,1.68,1.61,2.25,2.36l-2.94,2.59c-.54-.7-1.26-1.48-2.15-2.36-.89-.88-1.85-1.75-2.88-2.63-1.03-.88-2.04-1.67-3.02-2.36ZM139.54,192.36h16.57v3.33h-16.57v13.59h-3.68v-14.13l2.86-2.79h.81ZM136.32,177.19h13.97v3.29h-13.97v-3.29ZM137.91,204.4h18.08v3.33h-18.08v-3.33ZM154.28,192.36h3.75v16.95h-3.75v-16.95Z"/>
      </g>
      <rect class="cls-9" x="200.32" y="173.85" width="87.76" height="25.71"/>
      <g>
        <path class="cls-10" d="M204.97,195.89v-2.62h4.46v-13.55h-3.63v-2.01c.95-.18,1.79-.4,2.49-.65.71-.25,1.35-.55,1.94-.89h2.4v17.1h3.94v2.62h-11.59Z"/>
        <path class="cls-10" d="M225.7,196.27c-1.06,0-2.01-.13-2.82-.39-.82-.26-1.54-.6-2.16-1.03-.62-.43-1.17-.9-1.62-1.39l1.54-2.04c.61.59,1.29,1.1,2.07,1.54s1.68.66,2.73.66c.77,0,1.44-.13,2.01-.39.57-.26,1.01-.62,1.34-1.1.32-.48.48-1.05.48-1.71,0-.73-.18-1.36-.54-1.89s-.97-.93-1.84-1.23c-.87-.29-2.07-.44-3.59-.44v-2.37c1.34,0,2.39-.15,3.15-.45.76-.3,1.31-.71,1.65-1.21.34-.5.51-1.07.51-1.69,0-.88-.28-1.57-.83-2.08-.55-.5-1.31-.76-2.29-.76-.77,0-1.49.18-2.16.54-.67.36-1.3.82-1.89,1.39l-1.65-1.98c.81-.72,1.69-1.31,2.64-1.78.95-.47,2.01-.7,3.17-.7s2.29.2,3.22.61c.94.4,1.67.99,2.2,1.75.53.76.8,1.68.8,2.77,0,1.14-.32,2.09-.95,2.85-.63.76-1.48,1.35-2.55,1.75v.14c.77.18,1.47.5,2.11.94s1.13,1,1.5,1.67c.37.67.55,1.46.55,2.35,0,1.19-.31,2.21-.92,3.06-.62.84-1.44,1.49-2.46,1.94-1.03.45-2.16.67-3.39.67Z"/>
        <path class="cls-10" d="M238.12,196.27c-.59,0-1.09-.22-1.5-.65-.41-.43-.62-.97-.62-1.61s.21-1.2.62-1.61.91-.62,1.5-.62,1.12.21,1.53.62.62.95.62,1.61-.21,1.18-.62,1.61c-.41.43-.92.65-1.53.65Z"/>
        <path class="cls-10" d="M249.61,196.27c-1.05,0-1.98-.13-2.81-.39s-1.55-.6-2.18-1.02c-.62-.42-1.18-.86-1.65-1.32l1.51-2.07c.39.39.81.74,1.27,1.06.46.32.98.58,1.56.78.58.2,1.23.3,1.94.3.75,0,1.43-.16,2.04-.48.61-.32,1.08-.78,1.43-1.39.35-.61.52-1.32.52-2.15,0-1.25-.35-2.22-1.06-2.92-.71-.7-1.64-1.05-2.8-1.05-.64,0-1.19.1-1.65.29-.46.19-.98.48-1.57.87l-1.57-.99.61-9.64h10.27v2.7h-7.52l-.47,5.18c.44-.22.88-.39,1.32-.51s.93-.18,1.46-.18c1.14,0,2.18.22,3.11.65.94.43,1.68,1.1,2.23,2.01.55.91.83,2.07.83,3.48s-.32,2.65-.96,3.66c-.64,1.01-1.48,1.78-2.52,2.31-1.04.53-2.15.8-3.35.8Z"/>
        <path class="cls-10" d="M263.65,188.04c-.94,0-1.76-.25-2.48-.76s-1.27-1.24-1.67-2.2c-.4-.96-.59-2.12-.59-3.48s.2-2.51.59-3.46c.39-.95.95-1.67,1.67-2.16.72-.5,1.54-.74,2.48-.74s1.79.25,2.51.74c.72.5,1.27,1.22,1.67,2.16.39.95.59,2.1.59,3.46s-.2,2.52-.59,3.48c-.4.96-.95,1.7-1.67,2.2s-1.55.76-2.51.76ZM263.65,186.19c.72,0,1.3-.38,1.75-1.13.45-.75.67-1.91.67-3.47s-.23-2.7-.67-3.42c-.45-.72-1.03-1.07-1.75-1.07s-1.28.36-1.73,1.07c-.46.72-.69,1.85-.69,3.42s.23,2.72.69,3.47c.46.75,1.04,1.13,1.73,1.13ZM264.28,196.27l11.1-21.04h2.01l-11.1,21.04h-2.01ZM278.05,196.27c-.94,0-1.76-.26-2.48-.77s-1.27-1.25-1.67-2.2c-.4-.95-.59-2.11-.59-3.47s.2-2.53.59-3.47c.39-.94.95-1.66,1.67-2.16s1.54-.76,2.48-.76,1.76.25,2.48.76c.72.5,1.27,1.22,1.67,2.16.39.94.59,2.09.59,3.47s-.2,2.52-.59,3.47c-.4.96-.95,1.69-1.67,2.2-.72.51-1.54.77-2.48.77ZM278.05,194.37c.7,0,1.28-.37,1.75-1.1s.7-1.88.7-3.44-.23-2.73-.7-3.44c-.47-.72-1.05-1.07-1.75-1.07s-1.28.36-1.73,1.07c-.46.72-.69,1.86-.69,3.44s.23,2.71.69,3.44c.46.73,1.04,1.1,1.73,1.1Z"/>
      </g>
      <rect class="cls-9" x="137.61" y="215.96" width="75.43" height="25.71"/>
      <g>
        <path class="cls-10" d="M152.93,237.99v-12.67c0-.55.02-1.22.06-2,.04-.78.06-1.44.08-1.97h-.11c-.26.48-.52.96-.78,1.45-.27.49-.55.99-.84,1.5l-3.97,6h11.1v2.48h-14.32v-2.15l8.07-12.36h3.69v19.72h-2.97Z"/>
        <path class="cls-10" d="M163.4,238.38c-.59,0-1.09-.22-1.5-.65-.41-.43-.62-.97-.62-1.61s.21-1.2.62-1.61.91-.62,1.5-.62,1.12.21,1.53.62.62.95.62,1.61-.21,1.18-.62,1.61c-.41.43-.92.65-1.53.65Z"/>
        <path class="cls-10" d="M175.37,238.38c-1.27,0-2.4-.23-3.39-.7-.99-.47-1.78-1.11-2.35-1.93-.58-.82-.87-1.75-.87-2.79,0-.84.17-1.59.52-2.25.35-.65.8-1.22,1.35-1.72s1.13-.9,1.73-1.21v-.11c-.73-.53-1.37-1.17-1.9-1.93-.53-.75-.8-1.64-.8-2.67s.25-1.96.76-2.74c.5-.78,1.19-1.38,2.07-1.8.87-.42,1.87-.63,2.99-.63,1.17,0,2.18.22,3.03.67.84.45,1.5,1.07,1.97,1.86.47.79.7,1.71.7,2.75,0,.68-.14,1.31-.41,1.9s-.62,1.11-1.02,1.57-.82.84-1.24,1.16v.11c.61.35,1.17.75,1.69,1.21.52.46.94,1,1.25,1.64.31.63.47,1.39.47,2.27,0,.99-.27,1.89-.81,2.7-.54.81-1.3,1.45-2.29,1.93-.98.48-2.13.72-3.46.72ZM175.46,236.06c.68,0,1.28-.13,1.8-.39.52-.26.93-.62,1.23-1.09.29-.47.44-1.02.44-1.67,0-.57-.13-1.06-.39-1.47-.26-.41-.62-.78-1.07-1.09-.46-.31-.99-.6-1.58-.87-.6-.27-1.24-.53-1.94-.79-.7.46-1.27,1.02-1.71,1.68-.44.66-.66,1.4-.66,2.23,0,.68.17,1.28.51,1.79.34.51.8.92,1.39,1.21s1.25.44,1.98.44ZM176.72,227c.59-.55,1.03-1.13,1.34-1.74.3-.61.45-1.24.45-1.9,0-.61-.12-1.15-.36-1.62-.24-.48-.59-.85-1.06-1.13-.47-.28-1.03-.41-1.69-.41-.83,0-1.51.25-2.07.76s-.83,1.21-.83,2.11c0,.72.2,1.31.59,1.78.39.47.91.87,1.54,1.21s1.33.66,2.08.95Z"/>
        <path class="cls-10" d="M188.92,230.14c-.94,0-1.76-.25-2.48-.76s-1.27-1.24-1.67-2.2c-.4-.96-.59-2.12-.59-3.48s.2-2.51.59-3.46c.39-.95.95-1.67,1.67-2.16.72-.5,1.54-.74,2.48-.74s1.79.25,2.51.74c.72.5,1.27,1.22,1.67,2.16.39.95.59,2.1.59,3.46s-.2,2.52-.59,3.48c-.4.96-.95,1.7-1.67,2.2s-1.55.76-2.51.76ZM188.92,228.3c.72,0,1.3-.38,1.75-1.13.45-.75.67-1.91.67-3.47s-.23-2.7-.67-3.42c-.45-.72-1.03-1.07-1.75-1.07s-1.28.36-1.73,1.07c-.46.72-.69,1.85-.69,3.42s.23,2.72.69,3.47c.46.75,1.04,1.13,1.73,1.13ZM189.56,238.38l11.1-21.04h2.01l-11.1,21.04h-2.01ZM203.33,238.38c-.94,0-1.76-.26-2.48-.77s-1.27-1.25-1.67-2.2c-.4-.95-.59-2.11-.59-3.47s.2-2.53.59-3.47c.39-.94.95-1.66,1.67-2.16s1.54-.76,2.48-.76,1.76.25,2.48.76c.72.5,1.27,1.22,1.67,2.16.39.94.59,2.09.59,3.47s-.2,2.52-.59,3.47c-.4.96-.95,1.69-1.67,2.2-.72.51-1.54.77-2.48.77ZM203.33,236.48c.7,0,1.28-.37,1.75-1.1s.7-1.88.7-3.44-.23-2.73-.7-3.44c-.47-.72-1.05-1.07-1.75-1.07s-1.28.36-1.73,1.07c-.46.72-.69,1.86-.69,3.44s.23,2.71.69,3.44c.46.73,1.04,1.1,1.73,1.1Z"/>
      </g>
    </g>
  </g>
</svg>