<?xml version="1.0" encoding="UTF-8"?>
<svg id="_レイヤー_2" data-name="レイヤー 2" xmlns="http://www.w3.org/2000/svg" viewBox="0 0 602.7 601.94">
  <defs>
    <style>
      .cls-1 {
        fill: #000;
      }

      .cls-1, .cls-2, .cls-3, .cls-4, .cls-5, .cls-6, .cls-7, .cls-8 {
        stroke-width: 0px;
      }

      .cls-2 {
        fill: rgba(0, 166, 154, .55);
      }

      .cls-3 {
        fill: #9f9f9f;
      }

      .cls-4 {
        fill: #dfdfdf;
      }

      .cls-5 {
        fill: #404040;
      }

      .cls-6 {
        fill: gray;
      }

      .cls-7 {
        fill: #fff;
      }

      .cls-8 {
        fill: #4d4d4d;
      }
    </style>
  </defs>
  <g id="_レイヤー_1-2" data-name="レイヤー 1">
    <g>
      <g>
        <path class="cls-3" d="M300.79,300.77L.43,285.03C8.79,125.62,141.16,0,300.79,0v300.77Z"/>
        <path class="cls-5" d="M300.79,300.77l-77.85,290.53C84.16,554.11-7.09,428.52.43,285.03l300.36,15.74Z"/>
        <path class="cls-6" d="M300.79,300.77l274.77,122.34c-61.01,137.03-207.73,207.01-352.62,168.19l77.85-290.53Z"/>
        <path class="cls-4" d="M300.79,300.77l212.68-212.68c90.33,90.33,114.05,218.32,62.09,335.02l-274.77-122.34Z"/>
        <path class="cls-1" d="M300.79,300.77V0C383.85,0,454.74,29.36,513.47,88.09l-212.68,212.68Z"/>
      </g>
      <path class="cls-2" d="M513.47,88.09C454.74,29.36,383.85,0,300.79,0,141.16,0,8.79,125.62.43,285.03c-7.52,143.49,83.72,269.08,222.52,306.27,144.89,38.82,291.61-31.16,352.62-168.19,51.96-116.7,28.24-244.69-62.09-335.02Z"/>
      <circle class="cls-7" cx="300.79" cy="300.77" r="169.08"/>
      <g>
        <path class="cls-8" d="M220.83,300.38c.58,0,1.21.24,1.88.71s1.02,1.12,1.02,1.95v12.73c0,.83-.34,1.47-1.02,1.95s-1.31.71-1.88.71h-7.6v14.71c0,.54-.23,1.1-.68,1.7-.45.6-1.07.9-1.85.9h-15.02c-.82,0-1.45-.3-1.88-.9-.43-.6-.65-1.16-.65-1.7v-14.71h-42.95c-.82,0-1.33-.33-1.51-.99-.19-.66-.13-1.19.15-1.61l30.84-70.33c.25-.53.72-1.1,1.42-1.7.7-.6,1.44-.9,2.23-.9h27.38c.78,0,1.4.3,1.85.9.45.6.68,1.17.68,1.7v54.88h7.6ZM193.14,300.38v-37.39h-.56l-16.38,37.39h16.93Z"/>
        <path class="cls-8" d="M266.25,335.73h-20.21c-.78,0-1.3-.3-1.54-.9-.25-.6-.27-1.16-.06-1.7,3.34-9.48,7.51-21.17,12.51-35.07s9.18-25.59,12.51-35.07h-37.7c-.54,0-1.1-.23-1.7-.68-.6-.45-.9-1.07-.9-1.85v-15.02c0-.82.3-1.45.9-1.88.6-.43,1.16-.65,1.7-.65h67.55c.78,0,1.3.3,1.54.9.25.6.27,1.17.06,1.7l-31.21,87.63c-.21.54-.64,1.1-1.3,1.7-.66.6-1.38.9-2.16.9Z"/>
        <path class="cls-8" d="M305.89,314.28c.78,0,1.4.3,1.85.9.45.6.68,1.17.68,1.7v16.25c0,.54-.23,1.1-.68,1.7-.45.6-1.07.9-1.85.9h-15.02c-.78,0-1.4-.3-1.85-.9-.45-.6-.68-1.16-.68-1.7v-16.25c0-.54.23-1.1.68-1.7.45-.6,1.07-.9,1.85-.9h15.02Z"/>
        <path class="cls-8" d="M351.04,289.44h7.98v-11.71h-21v8.61c0,.42-.18.86-.53,1.33-.36.47-.84.7-1.45.7h-11.76c-.65,0-1.14-.23-1.48-.7-.34-.47-.51-.91-.51-1.33v-22.3c0-.42.17-.86.51-1.33.34-.47.83-.7,1.48-.7h48.48c.61,0,1.1.23,1.45.7.35.47.53.91.53,1.33v28.3c0,.39-.57,1.22-1.72,2.49-1.15,1.27-2.04,1.93-2.69,1.96.68,0,1.58.56,2.71,1.67,1.13,1.11,1.69,1.98,1.69,2.59v31.59c0,.42-.18.86-.53,1.33-.36.47-.84.7-1.45.7h-48.48c-.65,0-1.14-.23-1.48-.7-.34-.47-.51-.91-.51-1.33v-21.77c0-.42.17-.86.51-1.33.34-.47.83-.7,1.48-.7h11.76c.61,0,1.1.23,1.45.7.35.47.53.91.53,1.33v8.08h21v-13.79h-18.19c-.42,0-.86-.18-1.33-.53-.47-.35-.7-.84-.7-1.45v-11.76c0-.64.23-1.14.7-1.48.47-.34.91-.51,1.33-.51h10.21Z"/>
        <path class="cls-8" d="M418.1,332.19l-4.68-6.96v1.33c0,2.66-.95,4.62-3.86,4.62h-6.45l-.95-4.68c-.51,1.14-.76,1.71-1.33,2.72l-5.25-3.42c1.9-3.73,3.48-8.73,3.92-12.91l5.57,1.01c-.38,3.54-.89,5.76-1.77,9.18h2.28c.76,0,1.14-.13,1.14-.95v-11.07h-7.47v-7.09h20.88v7.09h-6.71v13.22c1.14-.51,2.21-1.01,3.29-1.58-.38-3.04-1.01-6.07-2.02-8.99l5.32-1.39c1.01,2.28,1.65,4.56,2.28,6.9.63-.44,1.27-.95,1.84-1.46-1.9-6.01-2.66-10.69-3.29-16.96h-23.73v7.97c0,7.15-1.77,17.46-5.76,23.48l-7.28-6.83c1.65-2.59,2.72-5.06,3.35-8.04.51-2.72.95-6.71.95-9.49v-14.74h31.96c-.06-.95-.13-1.83-.13-2.78h-35.56v-7.47h8.92v-8.8h9.43v8.8h7.91v-10.69h9.24v2.09h19.55v6.26h-19.55v2.34h24.11v7.47h-3.42c.38.95.7,1.83,1.01,2.78h2.4v7.66h-14.62c.32,3.04.76,6.01,1.52,8.92,1.71-2.85,2.85-5.32,3.92-8.42l6.45,3.16c-1.52,5.32-3.8,9.74-7.09,14.11.44.89,1.2,2.47,2.28,2.47,1.52,0,3.35-5.06,3.92-6.33l4.68,8.04c-1.33,3.92-3.99,9.49-8.8,9.49-3.67,0-6.9-3.8-8.73-6.58-3.1,2.66-6.07,4.56-9.68,6.52ZM433.41,293.15c-.38-.95-.76-1.83-1.14-2.78h-3.16c0,.95,0,1.83.06,2.78h4.24Z"/>
      </g>
      <g>
        <path class="cls-8" d="M199.9,362.54l1.13.26c-.92,2.82-2.19,5.25-3.79,7.31-1.6,2.06-3.51,3.73-5.71,5.03-.06-.08-.15-.17-.26-.27-.11-.1-.22-.21-.34-.33s-.22-.21-.32-.27c2.24-1.22,4.13-2.81,5.69-4.79,1.56-1.97,2.76-4.28,3.6-6.94ZM191.06,365.4h20.83v1.08h-20.83v-1.08ZM191.25,359.82h20.5v1.08h-20.5v-1.08ZM195.96,370.12h13.77v8.44h-1.13v-7.39h-11.54v7.43h-1.1v-8.49ZM196.43,376.38h12.48v1.05h-12.48v-1.05ZM196.71,357.31h1.1v6.05h-1.1v-6.05ZM204.99,357.31h1.1v6.05h-1.1v-6.05Z"/>
        <path class="cls-8" d="M214.44,369.53h20.94v1.12h-20.94v-1.12ZM215.97,364h18.13v1.1h-18.13v-1.1ZM232.08,357.4l.87.89c-.97.31-2.11.59-3.42.84s-2.72.46-4.22.63c-1.5.17-3.02.32-4.55.43-1.53.12-3,.21-4.41.27-.03-.16-.07-.33-.12-.52-.05-.19-.1-.35-.16-.49,1.39-.06,2.84-.15,4.35-.27,1.51-.12,2.99-.26,4.46-.43,1.46-.17,2.81-.37,4.06-.6,1.24-.23,2.29-.48,3.15-.76ZM224.32,359.42h1.17v17.29c0,.52-.09.89-.27,1.11-.18.23-.45.39-.81.5-.38.09-.94.15-1.69.18s-1.76.03-3.03.01c-.02-.11-.06-.23-.12-.36-.06-.13-.13-.27-.19-.41s-.12-.26-.19-.35c.7.02,1.36.02,1.96.02s1.12,0,1.55-.01.73-.01.9-.01c.27-.02.45-.07.55-.16s.15-.26.15-.49v-17.31Z"/>
        <path class="cls-8" d="M238.34,364.07c.34.02.66.02.94.02s.59,0,.91-.02c.34-.01.79-.04,1.35-.08.55-.04,1.16-.08,1.82-.14.66-.05,1.31-.11,1.95-.16.64-.05,1.23-.1,1.77-.13s.96-.05,1.25-.05c.62,0,1.2.09,1.74.27.53.18.97.54,1.3,1.07.34.53.5,1.31.5,2.32,0,.92-.04,1.92-.13,2.98s-.23,2.07-.43,3.03c-.2.95-.47,1.75-.8,2.39-.36.77-.81,1.26-1.34,1.49s-1.15.34-1.85.34c-.44,0-.91-.04-1.42-.11s-.94-.15-1.3-.25l-.19-1.27c.34.09.7.18,1.06.25.36.07.7.13,1.01.16.31.04.59.06.82.06.45,0,.87-.08,1.24-.24.38-.16.7-.52.99-1.1.27-.58.49-1.29.67-2.13.18-.84.31-1.74.4-2.7s.13-1.88.13-2.77c0-.77-.11-1.34-.33-1.74-.22-.39-.53-.66-.93-.81-.4-.15-.85-.22-1.35-.22-.42,0-.99.03-1.7.08s-1.47.12-2.27.2c-.81.08-1.55.15-2.24.22s-1.22.12-1.59.15c-.22.03-.51.07-.87.12-.36.05-.67.09-.94.12l-.16-1.36ZM246.18,358.72c-.03.16-.06.33-.09.5-.03.18-.07.37-.12.57-.03.23-.09.61-.16,1.13s-.17,1.08-.28,1.68c-.11.6-.23,1.18-.35,1.72-.17.66-.37,1.39-.59,2.19-.22.81-.48,1.66-.77,2.56-.3.9-.63,1.82-1.01,2.76-.38.94-.79,1.88-1.24,2.83-.45.95-.96,1.87-1.52,2.76l-1.22-.49c.52-.69,1.01-1.47,1.48-2.36.47-.88.9-1.8,1.29-2.76.39-.95.74-1.9,1.06-2.83.31-.93.58-1.8.81-2.6.23-.8.4-1.49.53-2.05.22-.86.4-1.8.55-2.83.15-1.02.23-1.99.25-2.9l1.41.12ZM254.25,361.42c.38.45.77,1.03,1.18,1.72.41.7.82,1.44,1.23,2.24.41.8.79,1.56,1.14,2.3.35.74.62,1.38.81,1.92l-1.13.56c-.19-.58-.44-1.24-.75-1.99-.31-.75-.67-1.52-1.07-2.3s-.81-1.52-1.23-2.22c-.42-.7-.84-1.27-1.24-1.72l1.06-.52Z"/>
        <path class="cls-8" d="M264.45,362.82c-.08.44-.16.98-.25,1.64-.09.66-.17,1.34-.26,2.04-.09.7-.18,1.37-.27,1.99s-.17,1.14-.23,1.55c1.17-1.11,2.44-1.93,3.79-2.45,1.35-.52,2.78-.79,4.28-.79,1.09,0,2.07.2,2.92.59.85.39,1.52.94,2.02,1.64.49.7.74,1.51.74,2.42,0,1.03-.25,1.96-.74,2.78s-1.24,1.5-2.23,2.04c-.99.54-2.24.92-3.74,1.14-1.5.22-3.27.25-5.3.09l-.35-1.24c2.55.28,4.64.24,6.29-.13,1.64-.37,2.87-.97,3.67-1.81.81-.84,1.21-1.81,1.21-2.92,0-.69-.2-1.3-.6-1.84-.4-.54-.93-.96-1.61-1.25s-1.45-.45-2.32-.45c-1.66,0-3.14.3-4.44.89-1.31.59-2.39,1.42-3.25,2.46-.16.17-.28.35-.38.54s-.17.36-.23.52l-1.17-.28c.09-.41.19-.92.29-1.54.1-.62.2-1.29.29-2,.09-.72.18-1.44.27-2.16.09-.72.16-1.4.22-2.04.06-.64.11-1.17.14-1.6l1.24.17ZM265.39,358.79c.47.16,1.09.33,1.88.52.78.19,1.61.38,2.49.56.88.19,1.72.34,2.53.47s1.48.22,1.99.28l-.3,1.15c-.42-.06-.94-.15-1.56-.26s-1.28-.23-1.98-.36-1.4-.27-2.09-.41-1.32-.28-1.89-.42-1.04-.26-1.4-.35l.33-1.17Z"/>
        <path class="cls-8" d="M281.38,371.01c.28-.24.53-.46.75-.68.22-.22.46-.46.73-.73.3-.3.64-.68,1.03-1.14.39-.46.81-.96,1.24-1.49.44-.53.87-1.06,1.29-1.57.42-.52.81-.98,1.15-1.41.58-.67,1.14-1.05,1.68-1.14s1.18.22,1.91.93c.44.41.95.91,1.52,1.5.58.59,1.16,1.2,1.75,1.81.59.61,1.1,1.15,1.54,1.62.53.55,1.13,1.18,1.78,1.89.66.71,1.33,1.44,2.01,2.17.68.74,1.32,1.43,1.91,2.09l-1.03,1.06c-.56-.69-1.17-1.4-1.82-2.12-.65-.73-1.28-1.44-1.9-2.15-.62-.7-1.19-1.34-1.72-1.92-.33-.38-.7-.79-1.13-1.24-.42-.45-.85-.91-1.29-1.37-.44-.46-.85-.89-1.24-1.29-.39-.4-.72-.72-.98-.97-.5-.47-.9-.68-1.18-.64-.29.04-.66.32-1.11.83-.3.38-.64.81-1.04,1.3s-.81,1-1.23,1.52c-.42.52-.83,1.02-1.22,1.49-.39.47-.73.87-1.01,1.2-.22.27-.44.55-.67.84-.23.3-.43.55-.6.75l-1.1-1.12ZM295.83,361.2c.19.25.42.59.7,1.03.28.44.56.9.83,1.37.27.48.5.9.69,1.28l-.94.47c-.17-.38-.38-.79-.63-1.24-.25-.45-.51-.9-.79-1.35-.27-.45-.54-.82-.79-1.14l.92-.42ZM298.79,360.06c.19.25.42.59.7,1.02.28.43.57.88.87,1.36.3.48.53.9.7,1.28l-.94.47c-.17-.36-.39-.77-.65-1.22-.26-.45-.53-.9-.81-1.34s-.55-.81-.8-1.13l.91-.45Z"/>
        <path class="cls-8" d="M304.93,365.76c.3.02.6.03.9.05.3.02.64.02,1,.02h15.36c.25,0,.52,0,.81-.02.29-.02.57-.03.83-.05v1.27c-.23-.02-.5-.03-.8-.04-.3,0-.58-.01-.84-.01h-16.34c-.31,0-.61.02-.93.05v-1.27ZM307.77,359.91c.31.02.61.04.9.07.29.03.61.05.97.05h9.55c.3,0,.62-.01.98-.04s.7-.05,1.01-.08v1.31c-.33-.03-.67-.05-1.02-.06-.35,0-.68-.01-.97-.01h-9.5c-.38,0-.72,0-1.04.01-.32,0-.61.03-.88.06v-1.31ZM315.39,366.29c0,1.42-.09,2.76-.26,4-.17,1.24-.53,2.36-1.08,3.34-.28.52-.66,1.02-1.14,1.52-.48.5-1,.98-1.58,1.43-.58.45-1.19.84-1.83,1.17l-1.13-.84c.95-.42,1.83-.96,2.64-1.61.81-.65,1.43-1.36,1.89-2.12.59-.95.95-2.01,1.08-3.18.12-1.17.2-2.4.21-3.72h1.2Z"/>
        <path class="cls-8" d="M343.35,365.54c-.05.08-.09.17-.14.27s-.09.19-.12.27c-.27,1.16-.68,2.33-1.23,3.53-.56,1.2-1.27,2.27-2.15,3.22-1.25,1.36-2.59,2.4-4.02,3.11-1.43.71-2.89,1.27-4.37,1.68l-.94-1.08c1.59-.33,3.12-.86,4.57-1.61,1.45-.74,2.7-1.68,3.75-2.8.77-.81,1.41-1.75,1.92-2.81.52-1.06.88-2.08,1.1-3.05h-13.13c-.27,0-.57,0-.93.01-.35,0-.72.03-1.09.06v-1.34c.39.05.75.08,1.09.11.34.02.65.04.93.04h12.81c.2,0,.4-.01.6-.04.2-.02.35-.06.46-.11l.89.54ZM328.64,359.75c.3.03.6.06.9.07.3.02.64.02,1,.02h9.36c.36,0,.7,0,1.01-.02.31-.01.6-.04.87-.07v1.29c-.27-.03-.56-.05-.87-.05h-10.37c-.34,0-.67,0-.98.01-.31,0-.62.02-.92.04v-1.29Z"/>
        <path class="cls-8" d="M347.45,375.86c1.45-.22,2.77-.52,3.94-.91,1.17-.39,2.23-.83,3.17-1.31.94-.49,1.77-.96,2.51-1.43,1.13-.74,2.17-1.58,3.13-2.53.96-.95,1.81-1.94,2.53-2.94.73-1.01,1.3-1.97,1.72-2.87l.73,1.27c-.48.91-1.09,1.85-1.82,2.81-.73.97-1.55,1.91-2.47,2.81-.92.91-1.96,1.74-3.12,2.49-.77.49-1.62.98-2.56,1.48-.94.5-1.98.95-3.12,1.36-1.14.41-2.42.75-3.85,1.03l-.8-1.24ZM348.93,360.1c.42.28.91.63,1.45,1.03.55.41,1.1.84,1.67,1.3.56.46,1.09.9,1.6,1.33.5.42.9.79,1.2,1.1l-.91.94c-.28-.3-.66-.66-1.14-1.09s-.99-.88-1.55-1.35c-.56-.47-1.11-.92-1.65-1.34-.55-.42-1.04-.77-1.48-1.06l.82-.87Z"/>
        <path class="cls-8" d="M369.74,366.18c.45.06.94.12,1.45.18s1.04.1,1.58.13c.54.03,1.07.06,1.58.08.52.02.99.04,1.43.04.95,0,1.94-.02,2.94-.07,1.01-.05,2.04-.12,3.08-.23,1.05-.11,2.1-.24,3.14-.4v1.17c-.78.09-1.56.18-2.35.26-.78.08-1.55.14-2.31.2s-1.51.09-2.26.12-1.5.04-2.25.04c-.58,0-1.22-.02-1.94-.05-.71-.03-1.42-.07-2.13-.12-.71-.05-1.36-.1-1.96-.16l-.02-1.17ZM378.37,358.48c-.02.19-.03.4-.05.62s-.03.53-.05.9c-.02.19-.02.5-.02.94v4.83c0,.86.02,1.74.05,2.63.03.89.07,1.74.11,2.56.04.81.08,1.54.12,2.18.04.64.06,1.14.06,1.5,0,.47-.11.95-.33,1.43-.22.49-.61.89-1.17,1.21-.56.32-1.35.48-2.37.48-1.58,0-2.79-.27-3.65-.8-.85-.53-1.28-1.33-1.28-2.39,0-.67.21-1.25.63-1.75.42-.49,1.02-.88,1.81-1.15s1.71-.41,2.79-.41c1.2,0,2.34.15,3.41.45,1.07.3,2.06.67,2.96,1.11.9.45,1.69.9,2.38,1.37.69.47,1.24.88,1.67,1.22l-.7,1.1c-.52-.47-1.12-.95-1.81-1.44-.69-.49-1.45-.95-2.29-1.37-.84-.42-1.74-.76-2.7-1.02-.96-.26-1.98-.39-3.06-.39-1.3,0-2.28.21-2.96.64-.67.43-1.01.96-1.01,1.58,0,.39.12.75.36,1.09.24.34.64.6,1.18.8.55.2,1.27.29,2.16.29.48,0,.93-.06,1.35-.19.41-.12.75-.35,1.01-.68.26-.33.39-.78.39-1.36,0-.52-.01-1.16-.04-1.93-.02-.77-.05-1.59-.07-2.45-.02-.86-.05-1.67-.07-2.43-.02-.76-.04-1.39-.04-1.89v-6c0-.19,0-.42-.01-.69,0-.27-.03-.47-.06-.6h1.29ZM369.85,361.25c.36.06.8.13,1.33.19.52.06,1.07.12,1.65.18s1.14.09,1.69.12c.55.02,1.02.04,1.43.04,1.44,0,2.92-.06,4.46-.19,1.53-.12,3-.3,4.41-.52v1.13c-.92.11-1.88.21-2.87.3-.99.09-1.99.17-2.99.22-1,.06-1.99.08-2.98.08-.56,0-1.23-.02-2.01-.06-.77-.04-1.53-.09-2.27-.16-.74-.07-1.36-.13-1.84-.18v-1.15Z"/>
        <path class="cls-8" d="M388.71,361.84c.44-.02.82-.04,1.15-.06.33-.02.61-.04.84-.06.31-.03.82-.09,1.52-.16s1.53-.17,2.49-.26c.95-.09,1.98-.19,3.07-.29,1.09-.1,2.18-.2,3.26-.29.89-.08,1.7-.14,2.44-.2.73-.05,1.41-.1,2.03-.13s1.18-.05,1.68-.07v1.2c-.45-.02-.97-.02-1.55,0s-1.14.05-1.69.11c-.55.05-1.01.15-1.38.29-.92.31-1.73.77-2.43,1.37s-1.28,1.28-1.76,2.03c-.48.75-.84,1.52-1.09,2.31-.25.79-.38,1.53-.38,2.22,0,1,.17,1.87.52,2.6.34.73.81,1.35,1.38,1.85.58.5,1.23.91,1.95,1.22.72.31,1.47.54,2.26.69.79.15,1.55.23,2.29.25l-.42,1.2c-.8-.02-1.62-.12-2.47-.31s-1.67-.47-2.46-.84c-.79-.38-1.5-.86-2.13-1.45-.63-.59-1.13-1.3-1.5-2.11-.37-.81-.55-1.75-.55-2.81,0-1.28.24-2.47.72-3.57.48-1.09,1.09-2.05,1.84-2.87.75-.82,1.54-1.45,2.37-1.89-.55.06-1.22.13-2.03.21-.81.08-1.67.17-2.6.27-.93.1-1.85.2-2.77.3-.92.1-1.76.21-2.53.32s-1.4.21-1.89.3l-.16-1.36ZM403.79,364.72c.17.23.38.54.62.93.24.38.48.78.73,1.2.24.41.45.81.62,1.18l-.89.42c-.23-.53-.53-1.11-.89-1.72-.36-.62-.71-1.15-1.06-1.61l.87-.4ZM406.3,363.78c.2.25.43.56.67.94.24.38.49.77.75,1.18.26.41.48.81.67,1.18l-.89.45c-.27-.53-.58-1.1-.94-1.71-.36-.61-.72-1.16-1.08-1.64l.82-.4Z"/>
        <path class="cls-8" d="M191.48,394.44h6.92v1.03h-5.96v10.93h-.96v-11.96ZM194.58,389.93h1.03v21.27h-1.03v-21.27ZM197.86,394.44h.96v10.51c0,.25-.03.46-.09.63s-.18.31-.35.42c-.17.09-.4.15-.68.18s-.63.04-1.03.04c-.02-.14-.06-.31-.14-.5-.08-.2-.16-.37-.26-.53.34.02.64.02.88.02h.5c.14-.02.21-.1.21-.26v-10.51ZM199.71,391.22h12.27v1.01h-12.27v-1.01ZM199.92,401.61h11.63v9.52h-1.08v-8.54h-9.48v8.63h-1.08v-9.62ZM200.51,409.4h10.65v.99h-10.65v-.99ZM200.53,405.51h10.6v1.01h-10.6v-1.01ZM201.03,394.23h9.5v5.23h-9.5v-5.23ZM202.06,395.19v3.28h7.41v-3.28h-7.41ZM205.06,402.15h1.01v7.88h-1.01v-7.88Z"/>
        <path class="cls-8" d="M216.34,393.29h1.13v6.4c0,.86-.03,1.79-.08,2.78s-.17,2.01-.34,3.05c-.17,1.04-.42,2.05-.75,3.04-.33.99-.77,1.89-1.31,2.72-.08-.08-.17-.16-.28-.23s-.23-.16-.35-.23c-.13-.08-.23-.13-.33-.16.53-.8.95-1.67,1.25-2.6.31-.94.54-1.89.69-2.86s.26-1.92.31-2.85c.05-.93.07-1.81.07-2.64v-6.4ZM216.98,393.29h18.41v1.08h-18.41v-1.08ZM217.89,408.7c1.28-.05,2.79-.1,4.53-.16,1.74-.06,3.58-.14,5.55-.23s3.93-.19,5.9-.28l-.02,1.03-5.77.33c-1.92.11-3.75.21-5.48.29-1.73.09-3.26.16-4.59.22l-.12-1.2ZM224.86,396.1l1.22.33c-.28,1.02-.61,2.1-.97,3.25-.37,1.15-.75,2.3-1.15,3.46-.4,1.16-.8,2.26-1.2,3.32-.4,1.06-.79,2-1.16,2.83l-.99-.33c.36-.83.74-1.77,1.14-2.84.4-1.06.79-2.18,1.17-3.34.38-1.17.74-2.32,1.08-3.47.34-1.15.62-2.22.86-3.2ZM224.93,389.91h1.15v3.92h-1.15v-3.92ZM229.17,402.76l.98-.49c.73.89,1.46,1.85,2.18,2.87.72,1.02,1.37,2.03,1.96,3,.59.98,1.04,1.85,1.35,2.62l-1.08.56c-.31-.77-.76-1.65-1.34-2.64-.58-.99-1.22-2.01-1.92-3.06-.7-1.05-1.42-2-2.13-2.86Z"/>
        <path class="cls-8" d="M249.46,391.93c-.17.14-.4.34-.68.6-.28.26-.5.46-.66.6-.42.38-.94.82-1.55,1.34-.61.52-1.25,1.05-1.92,1.59-.67.55-1.32,1.08-1.95,1.58-.63.51-1.17.95-1.62,1.33-.5.44-.84.8-1.01,1.09-.17.29-.17.57.01.86.18.28.54.66,1.09,1.12.47.38,1,.8,1.58,1.28.59.48,1.2.99,1.83,1.53.63.54,1.27,1.09,1.92,1.65.65.56,1.27,1.13,1.88,1.69s1.15,1.1,1.65,1.62l-1.03.94c-.39-.45-.84-.93-1.36-1.43-.44-.45-.98-.97-1.62-1.56-.64-.59-1.32-1.19-2.03-1.81-.71-.62-1.41-1.22-2.1-1.81-.69-.59-1.31-1.11-1.88-1.56-.72-.59-1.17-1.11-1.36-1.54s-.15-.86.12-1.29c.27-.43.73-.92,1.38-1.47.42-.38.95-.82,1.6-1.34.64-.52,1.31-1.06,1.99-1.63.69-.57,1.34-1.12,1.97-1.67.63-.54,1.13-1.01,1.52-1.42.17-.19.37-.41.59-.67.22-.26.38-.47.47-.65l1.15,1.01Z"/>
        <path class="cls-8" d="M253.8,397.42l.66-.82c.47.24.97.5,1.51.8s1.06.59,1.55.88.9.55,1.21.79l-.63.92c-.31-.22-.72-.48-1.21-.77-.49-.3-1.01-.61-1.55-.93s-1.05-.61-1.54-.86ZM254.48,410.1c.42-.61.89-1.34,1.42-2.19.52-.85,1.05-1.75,1.58-2.71.53-.95,1.02-1.87,1.45-2.74l.82.73c-.41.83-.86,1.71-1.36,2.63-.5.92-1,1.82-1.51,2.7-.51.88-1,1.67-1.47,2.37l-.94-.77ZM254.95,390.99l.63-.8c.5.23,1.04.5,1.61.8.57.3,1.11.59,1.62.89.51.3.93.56,1.25.8l-.66.94c-.33-.25-.75-.53-1.25-.83-.51-.31-1.04-.62-1.61-.94s-1.09-.61-1.6-.86ZM260.09,396.81h14.92v1.1h-14.92v-1.1ZM272.99,390.05l.94.87c-1.03.33-2.24.63-3.61.89s-2.81.5-4.32.7c-1.5.2-2.95.38-4.34.52-.03-.12-.08-.28-.15-.47-.07-.19-.14-.35-.2-.49,1.02-.11,2.08-.23,3.18-.38,1.1-.14,2.18-.3,3.22-.48,1.05-.18,2.02-.37,2.93-.56.91-.2,1.69-.39,2.35-.6ZM261.92,402.32h11.35v8.75h-1.1v-7.69h-9.17v7.83h-1.08v-8.89ZM262.62,409.1h10.13v1.08h-10.13v-1.08ZM267.15,391.72h1.1v11.23h-1.1v-11.23Z"/>
        <path class="cls-8" d="M277.09,409c.7-.17,1.51-.38,2.42-.62.91-.24,1.86-.5,2.87-.77,1.01-.27,2.03-.55,3.06-.83l.12,1.03c-1.45.41-2.9.81-4.35,1.21-1.45.4-2.73.75-3.86,1.07l-.26-1.08ZM278.24,391.08h6.33v6.9h-6.33v-6.9ZM278.29,400.54h.99v8.54h-.99v-8.54ZM279.27,392.09v4.88h4.27v-4.88h-4.27ZM281.05,397.42h.99v11.02h-.99v-11.02ZM281.5,401.8h3.49v1.06h-3.49v-1.06ZM288.14,397.67l1.1.3c-.31.72-.69,1.47-1.13,2.24-.44.77-.92,1.52-1.44,2.24-.52.72-1.07,1.36-1.63,1.92-.09-.09-.22-.21-.39-.34-.16-.13-.31-.25-.43-.34.55-.53,1.07-1.14,1.58-1.82.51-.68.96-1.38,1.36-2.11.4-.73.72-1.43.97-2.1ZM285.79,390.8h5.37v6.83h-5.44v-.94h4.41v-4.95h-4.34v-.94ZM286.14,393.73h4.43v.94h-4.43v-.94ZM287.81,400.09h10.11v.99h-10.11v10.16h-1.06v-10.34l.75-.8h.3ZM287.27,403.14h10.06v.94h-10.06v-.94ZM287.27,406.28h10.06v.91h-10.06v-.91ZM287.29,409.47h11.26v.99h-11.26v-.99ZM293.09,397.7l1.08.38c-.27.5-.54,1.01-.83,1.54-.29.52-.57.96-.83,1.33l-.84-.31c.25-.42.51-.91.79-1.47.27-.55.49-1.04.65-1.47ZM291.87,400.79h1.03v9.22h-1.03v-9.22ZM292.24,390.8h5.54v6.83h-5.58v-.94h4.53v-4.95h-4.48v-.94ZM292.69,393.73h4.5v.94h-4.5v-.94Z"/>
        <path class="cls-8" d="M305.35,391.39c-.06.33-.1.64-.12.95s-.04.63-.07.97c-.02.67-.04,1.51-.08,2.51-.04,1-.07,2.07-.09,3.21l-.07,3.42c-.02,1.14-.04,2.19-.04,3.14,0,.89.18,1.61.54,2.15.36.54.86.93,1.49,1.17s1.36.36,2.19.36c1.13,0,2.13-.14,3.03-.42.89-.28,1.68-.66,2.37-1.13.69-.47,1.29-.99,1.82-1.57.52-.58,1-1.17,1.42-1.76l.84,1.01c-.41.55-.9,1.12-1.48,1.71-.58.59-1.25,1.14-2.03,1.64-.77.5-1.66.91-2.66,1.22-1,.31-2.13.47-3.38.47-1.03,0-1.95-.16-2.76-.47-.81-.31-1.44-.83-1.9-1.55-.46-.72-.69-1.7-.69-2.93,0-.73,0-1.54.02-2.42.02-.88.04-1.77.07-2.69.03-.91.06-1.81.08-2.69.02-.88.04-1.7.06-2.46.02-.77.02-1.42.02-1.95,0-.38-.01-.72-.04-1.04-.02-.32-.07-.61-.13-.88h1.57Z"/>
        <path class="cls-8" d="M319.97,394.2c.44-.02.82-.04,1.14-.06.32-.02.6-.04.83-.06.31-.03.82-.08,1.52-.15.7-.07,1.54-.16,2.5-.26.96-.1,1.99-.2,3.08-.29,1.09-.09,2.18-.19,3.26-.28.88-.08,1.68-.14,2.43-.2s1.42-.1,2.03-.13,1.17-.05,1.67-.07v1.2c-.45-.01-.97-.01-1.54,0-.57.02-1.13.05-1.68.11-.55.06-1.02.15-1.41.29-.91.3-1.71.75-2.42,1.35-.7.6-1.29,1.28-1.77,2.04-.48.76-.84,1.53-1.08,2.32-.24.79-.36,1.53-.36,2.22,0,1,.17,1.87.5,2.6.34.73.79,1.35,1.37,1.85.58.5,1.23.91,1.95,1.22s1.47.54,2.26.69c.79.15,1.56.23,2.31.25l-.45,1.17c-.8-.02-1.62-.12-2.46-.3-.84-.19-1.67-.47-2.46-.84-.8-.38-1.51-.86-2.13-1.44-.63-.59-1.12-1.29-1.49-2.1-.37-.81-.55-1.75-.55-2.81,0-1.28.23-2.47.7-3.57.47-1.09,1.08-2.05,1.83-2.87.75-.82,1.54-1.45,2.37-1.89-.53.05-1.2.11-2.02.2s-1.68.18-2.6.27c-.92.09-1.85.2-2.77.3-.92.11-1.77.21-2.54.32-.77.1-1.4.21-1.89.32l-.14-1.38Z"/>
        <path class="cls-8" d="M344.66,393.34c-.03.14-.06.32-.07.55-.02.23-.03.47-.05.72-.02.25-.03.47-.05.66,0,.49,0,1.05.01,1.7,0,.65.02,1.34.05,2.06.02.73.07,1.43.13,2.12.14,1.41.38,2.64.73,3.69.34,1.05.76,1.87,1.25,2.45.49.58,1.04.87,1.63.87.3,0,.6-.13.9-.39.3-.26.59-.61.87-1.06.27-.45.53-.97.77-1.56.24-.59.45-1.21.62-1.85l.94.96c-.44,1.3-.89,2.33-1.35,3.1-.46.77-.92,1.31-1.38,1.64-.46.33-.93.49-1.4.49-.67,0-1.33-.26-1.97-.79-.64-.52-1.2-1.38-1.69-2.56-.48-1.18-.84-2.76-1.06-4.75-.06-.66-.11-1.38-.15-2.17-.04-.79-.07-1.55-.08-2.27-.02-.73-.02-1.31-.02-1.75,0-.23,0-.56-.01-.97s-.04-.73-.11-.95l1.48.05ZM357.16,394.06c.39.55.77,1.16,1.14,1.83.37.67.71,1.39,1.02,2.16.31.77.6,1.56.86,2.38.26.82.47,1.65.65,2.49.17.84.3,1.68.38,2.52l-1.17.49c-.11-1.12-.29-2.23-.53-3.31-.24-1.08-.54-2.11-.88-3.1-.34-.99-.74-1.91-1.18-2.77-.45-.86-.92-1.62-1.42-2.28l1.15-.42Z"/>
        <path class="cls-8" d="M366.27,398.75c.45.06.94.12,1.45.18s1.04.1,1.58.13c.54.03,1.07.06,1.58.08.52.02.99.04,1.43.04.95,0,1.94-.02,2.94-.07,1.01-.05,2.04-.12,3.08-.23,1.05-.11,2.1-.24,3.14-.4v1.17c-.78.09-1.56.18-2.35.26-.78.08-1.55.14-2.31.2s-1.51.09-2.26.12-1.5.04-2.25.04c-.58,0-1.22-.02-1.94-.05-.71-.03-1.42-.07-2.13-.12-.71-.05-1.36-.1-1.96-.16l-.02-1.17ZM374.9,391.06c-.02.19-.03.4-.05.62s-.03.53-.05.9c-.02.19-.02.5-.02.94v4.83c0,.86.02,1.74.05,2.63.03.89.07,1.74.11,2.56.04.81.08,1.54.12,2.18.04.64.06,1.14.06,1.5,0,.47-.11.95-.33,1.43-.22.49-.61.89-1.17,1.21-.56.32-1.35.48-2.37.48-1.58,0-2.79-.27-3.65-.8-.85-.53-1.28-1.33-1.28-2.39,0-.67.21-1.25.63-1.75.42-.49,1.02-.88,1.81-1.15s1.71-.41,2.79-.41c1.2,0,2.34.15,3.41.45,1.07.3,2.06.67,2.96,1.11.9.45,1.69.9,2.38,1.37.69.47,1.24.88,1.67,1.22l-.7,1.1c-.52-.47-1.12-.95-1.81-1.44-.69-.49-1.45-.95-2.29-1.37-.84-.42-1.74-.76-2.7-1.02-.96-.26-1.98-.39-3.06-.39-1.3,0-2.28.21-2.96.64-.67.43-1.01.96-1.01,1.58,0,.39.12.75.36,1.09.24.34.64.6,1.18.8.55.2,1.27.29,2.16.29.48,0,.93-.06,1.35-.19.41-.12.75-.35,1.01-.68.26-.33.39-.78.39-1.36,0-.52-.01-1.16-.04-1.93-.02-.77-.05-1.59-.07-2.45-.02-.86-.05-1.67-.07-2.43-.02-.76-.04-1.39-.04-1.89v-6c0-.19,0-.42-.01-.69,0-.27-.03-.47-.06-.6h1.29ZM366.38,393.83c.36.06.8.13,1.33.19.52.06,1.07.12,1.65.18s1.14.09,1.69.12c.55.02,1.02.04,1.43.04,1.44,0,2.92-.06,4.46-.19,1.53-.12,3-.3,4.41-.52v1.13c-.92.11-1.88.21-2.87.3-.99.09-1.99.17-2.99.22-1,.06-1.99.08-2.98.08-.56,0-1.23-.02-2.01-.06-.77-.04-1.53-.09-2.27-.16-.74-.07-1.36-.13-1.84-.18v-1.15Z"/>
        <path class="cls-8" d="M385.19,394.56c.59-.02,1.28-.04,2.06-.06.78-.02,1.62-.05,2.52-.08s1.82-.06,2.77-.08c.95-.02,1.87-.04,2.77-.06.9-.02,1.75-.02,2.57-.02s1.52,0,2.22.01c.7,0,1.33.01,1.9.01s1.07,0,1.5.01c.43,0,.77.01,1.02.01l-.02,1.13c-.61-.03-1.43-.05-2.47-.07-1.04-.01-2.42-.02-4.14-.02-.98,0-2.02,0-3.12.02-1.09.02-2.21.04-3.34.08-1.13.04-2.23.09-3.3.14-1.06.05-2.03.12-2.91.2l-.02-1.22ZM397.27,401.29c0,.91-.15,1.67-.46,2.28-.31.61-.7,1.07-1.2,1.37-.49.3-1.04.46-1.65.46-.52,0-1-.08-1.45-.23s-.85-.4-1.2-.73c-.34-.33-.61-.72-.81-1.17-.2-.45-.29-.98-.29-1.57,0-.72.18-1.37.53-1.95.35-.58.82-1.05,1.4-1.41.58-.36,1.21-.54,1.9-.54.84,0,1.54.19,2.1.58.55.38.97.91,1.24,1.58.27.67.41,1.44.41,2.3,0,.81-.1,1.62-.3,2.42-.2.8-.56,1.56-1.06,2.29-.5.73-1.18,1.39-2.04,1.98-.86.59-1.95,1.09-3.28,1.5l-1.03-.96c1.11-.27,2.08-.62,2.9-1.06.82-.44,1.5-.95,2.05-1.55.55-.59.95-1.27,1.22-2.04.27-.77.4-1.62.4-2.56,0-1.24-.25-2.12-.75-2.65s-1.11-.8-1.83-.8c-.47,0-.91.12-1.33.36-.41.24-.75.58-1,1s-.38.92-.38,1.48c0,.86.27,1.52.8,1.98.53.46,1.17.69,1.92.69.56,0,1.03-.15,1.41-.45.38-.3.65-.72.83-1.28s.25-1.22.2-2.01l.75.68ZM397.18,391.08c0,.06-.01.17-.04.33s-.04.31-.05.47-.01.28-.01.38c-.02.3-.02.7-.02,1.2v1.64c0,.59,0,1.2.01,1.81,0,.61.02,1.18.02,1.72s.01,1,.01,1.37l-1.13-.87v-.87c0-.42,0-.92-.01-1.5,0-.58-.02-1.16-.02-1.75,0-.59-.02-1.13-.02-1.62,0-.49-.02-.87-.04-1.14-.02-.22-.04-.45-.06-.69s-.04-.4-.06-.48h1.41Z"/>
        <path class="cls-8" d="M407.55,403.8c.64,0,1.22.16,1.74.47.52.31.93.73,1.24,1.24.31.52.47,1.09.47,1.74s-.16,1.2-.47,1.72c-.31.52-.73.94-1.24,1.25-.52.31-1.09.47-1.74.47s-1.2-.16-1.72-.47c-.52-.31-.94-.73-1.25-1.25-.31-.52-.47-1.1-.47-1.72s.16-1.22.47-1.74.73-.93,1.25-1.24c.52-.31,1.1-.47,1.72-.47ZM407.55,409.78c.7,0,1.3-.25,1.79-.74.49-.49.74-1.09.74-1.79,0-.45-.11-.87-.34-1.25-.23-.38-.53-.69-.91-.93-.38-.23-.81-.35-1.28-.35s-.9.12-1.28.35c-.38.23-.69.54-.93.93-.23.38-.35.8-.35,1.25s.12.9.35,1.29c.23.39.54.7.93.92.38.22.81.33,1.28.33Z"/>
      </g>
      <g>
        <path class="cls-7" d="M341.46,61.11c-.93-.96-1.85-1.7-2.77-2.23-.92-.53-2.06-.79-3.43-.79s-2.72.45-3.89,1.35c-1.17.9-2.15,2.09-2.92,3.56l-3.41-1.86c1.26-2.3,2.78-4.03,4.55-5.19s3.67-1.74,5.71-1.74c1.81,0,3.41.36,4.82,1.06,1.41.71,2.78,1.75,4.12,3.12.93.96,1.85,1.7,2.77,2.23.92.53,2.06.79,3.43.79s2.72-.45,3.89-1.36c1.17-.9,2.15-2.09,2.92-3.56l3.41,1.86c-1.26,2.3-2.78,4.03-4.55,5.19-1.77,1.16-3.67,1.74-5.71,1.74-1.78,0-3.38-.35-4.8-1.06-1.42-.71-2.8-1.75-4.14-3.12Z"/>
        <path class="cls-7" d="M363.91,74.46v-2.59c2.66-2.61,4.94-4.92,6.83-6.95,1.9-2.03,3.35-3.86,4.35-5.5,1.01-1.64,1.51-3.18,1.51-4.62,0-1.03-.17-1.92-.52-2.67-.35-.75-.88-1.33-1.59-1.74-.71-.41-1.61-.62-2.69-.62s-2.13.32-3.06.95c-.93.63-1.78,1.37-2.55,2.23l-2.52-2.48c1.21-1.34,2.5-2.39,3.85-3.14,1.35-.75,2.97-1.12,4.86-1.12,1.73,0,3.24.35,4.53,1.04,1.29.7,2.29,1.67,3,2.92.71,1.25,1.06,2.72,1.06,4.39s-.47,3.38-1.41,5.11c-.94,1.73-2.21,3.52-3.81,5.38-1.6,1.86-3.39,3.82-5.38,5.88.75-.08,1.54-.15,2.38-.21.84-.06,1.61-.1,2.3-.1h7.28v3.83h-18.42Z"/>
        <path class="cls-7" d="M395.34,75c-1.91,0-3.56-.56-4.94-1.68-1.38-1.12-2.45-2.76-3.19-4.92-.75-2.15-1.12-4.79-1.12-7.92s.37-5.74,1.12-7.86c.75-2.12,1.81-3.72,3.19-4.8,1.38-1.08,3.02-1.62,4.94-1.62s3.51.54,4.88,1.62c1.37,1.08,2.43,2.68,3.17,4.8.75,2.12,1.12,4.74,1.12,7.86s-.37,5.76-1.12,7.92c-.75,2.16-1.81,3.79-3.17,4.92-1.37,1.12-2.99,1.68-4.88,1.68ZM395.34,71.44c.95,0,1.81-.36,2.55-1.08.75-.72,1.33-1.88,1.74-3.48.41-1.6.62-3.73.62-6.39s-.21-4.77-.62-6.33c-.41-1.56-.99-2.69-1.74-3.39-.75-.7-1.6-1.05-2.55-1.05s-1.81.35-2.55,1.05c-.75.7-1.34,1.83-1.76,3.39s-.64,3.67-.64,6.33.21,4.79.64,6.39c.43,1.6,1.01,2.76,1.76,3.48.75.72,1.6,1.08,2.55,1.08Z"/>
        <path class="cls-7" d="M417.66,49.44l2.61.84c-.72,1.72-1.57,3.41-2.55,5.07-.99,1.66-2.06,3.21-3.21,4.66-1.15,1.45-2.33,2.73-3.53,3.83-.1-.21-.24-.49-.42-.84-.18-.35-.38-.7-.6-1.04-.21-.35-.4-.63-.55-.84,1.08-.93,2.14-2.01,3.16-3.25,1.03-1.24,1.97-2.57,2.84-4.01.87-1.43,1.62-2.9,2.24-4.41ZM414.49,57.46l2.79-2.79.03.03v21.37h-2.82v-18.61ZM418.56,59.08l17.85-2.32.38,2.61-17.85,2.32-.38-2.61ZM424.59,49.62h2.76c.08,3.19.26,6.17.55,8.93.29,2.76.68,5.19,1.18,7.29.49,2.1,1.11,3.75,1.86,4.96.74,1.21,1.62,1.88,2.63,2.02.37.02.67-.38.9-1.19.23-.81.41-2.04.52-3.69.19.17.43.36.71.57.28.2.57.39.87.57.3.17.53.3.68.38-.21,1.76-.5,3.13-.87,4.11-.37.98-.78,1.65-1.23,2.02-.46.37-.95.54-1.5.52-1.34-.12-2.49-.61-3.45-1.5-.97-.88-1.79-2.1-2.45-3.66-.67-1.56-1.21-3.42-1.64-5.57-.43-2.16-.75-4.56-.99-7.21s-.41-5.5-.52-8.54ZM429.7,50.93l2.03-1.31c.56.45,1.13.95,1.71,1.51.58.56,1.12,1.12,1.63,1.67.5.55.9,1.06,1.19,1.52l-2.18,1.42c-.27-.45-.65-.95-1.13-1.51-.48-.56-1.01-1.14-1.57-1.73-.56-.59-1.12-1.12-1.68-1.58Z"/>
      </g>
      <g>
        <path class="cls-7" d="M502.62,262.22c-1.5,0-2.82-.18-3.97-.54-1.15-.36-2.16-.84-3.04-1.45-.88-.61-1.64-1.26-2.28-1.96l2.17-2.86c.85.83,1.82,1.55,2.9,2.17,1.08.62,2.36.93,3.83.93,1.08,0,2.03-.18,2.83-.54.8-.36,1.43-.88,1.88-1.55.45-.67.68-1.47.68-2.4,0-1.03-.25-1.92-.75-2.65-.5-.74-1.37-1.31-2.59-1.72-1.23-.41-2.91-.62-5.05-.62v-3.33c1.88,0,3.36-.21,4.43-.64,1.07-.43,1.84-.99,2.32-1.7.48-.71.72-1.5.72-2.38,0-1.24-.39-2.21-1.16-2.92-.77-.71-1.85-1.06-3.21-1.06-1.08,0-2.1.25-3.04.75-.94.5-1.83,1.16-2.65,1.96l-2.32-2.79c1.14-1.01,2.37-1.84,3.72-2.5,1.34-.66,2.83-.99,4.45-.99s3.21.28,4.53.85,2.35,1.39,3.1,2.46c.75,1.07,1.12,2.37,1.12,3.89,0,1.6-.44,2.94-1.33,4.01-.89,1.07-2.08,1.89-3.58,2.46v.19c1.08.26,2.07.7,2.96,1.32.89.62,1.59,1.4,2.11,2.34.52.94.77,2.04.77,3.31,0,1.68-.43,3.11-1.3,4.3-.86,1.19-2.02,2.1-3.46,2.73-1.45.63-3.03.95-4.76.95Z"/>
        <path class="cls-7" d="M525.38,262.22c-1.91,0-3.56-.56-4.94-1.68-1.38-1.12-2.45-2.76-3.19-4.92-.75-2.15-1.12-4.79-1.12-7.92s.37-5.74,1.12-7.86c.75-2.12,1.81-3.72,3.19-4.8,1.38-1.08,3.02-1.62,4.94-1.62s3.51.54,4.88,1.62c1.37,1.08,2.43,2.68,3.17,4.8.75,2.12,1.12,4.74,1.12,7.86s-.37,5.76-1.12,7.92c-.75,2.16-1.81,3.79-3.17,4.92-1.37,1.12-2.99,1.68-4.88,1.68ZM525.38,258.65c.95,0,1.81-.36,2.55-1.08.75-.72,1.33-1.88,1.74-3.48.41-1.6.62-3.73.62-6.39s-.21-4.77-.62-6.33c-.41-1.56-.99-2.69-1.74-3.39-.75-.7-1.6-1.05-2.55-1.05s-1.81.35-2.55,1.05c-.75.7-1.34,1.83-1.76,3.39s-.64,3.67-.64,6.33.21,4.79.64,6.39c.43,1.6,1.01,2.76,1.76,3.48.75.72,1.6,1.08,2.55,1.08Z"/>
        <path class="cls-7" d="M547.7,236.66l2.61.84c-.72,1.72-1.57,3.41-2.55,5.07-.99,1.66-2.06,3.21-3.21,4.66-1.15,1.45-2.33,2.73-3.53,3.83-.1-.21-.24-.49-.42-.84-.18-.35-.38-.7-.6-1.04-.21-.35-.4-.63-.55-.84,1.08-.93,2.14-2.01,3.16-3.25,1.03-1.24,1.97-2.57,2.84-4.01.87-1.43,1.62-2.9,2.24-4.41ZM544.53,244.67l2.79-2.79.03.03v21.37h-2.82v-18.61ZM548.6,246.3l17.85-2.32.38,2.61-17.85,2.32-.38-2.61ZM554.64,236.83h2.76c.08,3.19.26,6.17.55,8.93.29,2.76.68,5.19,1.18,7.29.49,2.1,1.11,3.75,1.86,4.96.74,1.21,1.62,1.88,2.63,2.02.37.02.67-.38.9-1.19.23-.81.41-2.04.52-3.69.19.17.43.36.71.57.28.2.57.39.87.57.3.17.53.3.68.38-.21,1.76-.5,3.13-.87,4.11-.37.98-.78,1.65-1.23,2.02-.46.37-.95.54-1.5.52-1.34-.12-2.49-.61-3.45-1.5-.97-.88-1.79-2.1-2.45-3.66-.67-1.56-1.21-3.42-1.64-5.57-.43-2.16-.75-4.56-.99-7.21s-.41-5.5-.52-8.54ZM559.75,238.14l2.03-1.31c.56.45,1.13.95,1.71,1.51.58.56,1.12,1.12,1.63,1.67.5.55.9,1.06,1.19,1.52l-2.18,1.42c-.27-.45-.65-.95-1.13-1.51-.48-.56-1.01-1.14-1.57-1.73-.56-.59-1.12-1.12-1.68-1.58Z"/>
      </g>
      <g>
        <path class="cls-7" d="M375.56,500.73v-17.81c0-.77.03-1.71.08-2.81.05-1.1.09-2.02.12-2.77h-.15c-.36.67-.73,1.35-1.1,2.03s-.77,1.39-1.18,2.11l-5.57,8.44h15.6v3.48h-20.13v-3.02l11.34-17.38h5.19v27.71h-4.18Z"/>
        <path class="cls-7" d="M395.57,501.28c-1.91,0-3.56-.56-4.94-1.68-1.38-1.12-2.45-2.76-3.19-4.92-.75-2.15-1.12-4.79-1.12-7.92s.37-5.74,1.12-7.86c.75-2.12,1.81-3.72,3.19-4.8,1.38-1.08,3.02-1.62,4.94-1.62s3.51.54,4.88,1.62c1.37,1.08,2.43,2.68,3.17,4.8.75,2.12,1.12,4.74,1.12,7.86s-.37,5.76-1.12,7.92c-.75,2.16-1.81,3.79-3.17,4.92-1.37,1.12-2.99,1.68-4.88,1.68ZM395.57,497.72c.95,0,1.81-.36,2.55-1.08.75-.72,1.33-1.88,1.74-3.48.41-1.6.62-3.73.62-6.39s-.21-4.77-.62-6.33c-.41-1.56-.99-2.69-1.74-3.39-.75-.7-1.6-1.05-2.55-1.05s-1.81.35-2.55,1.05c-.75.7-1.34,1.83-1.76,3.39s-.64,3.67-.64,6.33.21,4.79.64,6.39c.43,1.6,1.01,2.76,1.76,3.48.75.72,1.6,1.08,2.55,1.08Z"/>
        <path class="cls-7" d="M422.53,475.72l2.61.84c-.72,1.72-1.57,3.41-2.55,5.07-.99,1.66-2.06,3.21-3.21,4.66-1.15,1.45-2.33,2.73-3.53,3.83-.1-.21-.24-.49-.42-.84-.18-.35-.38-.7-.6-1.04-.21-.35-.4-.63-.55-.84,1.08-.93,2.14-2.01,3.16-3.25,1.03-1.24,1.97-2.57,2.84-4.01.87-1.43,1.62-2.9,2.24-4.41ZM419.37,483.73l2.79-2.79.03.03v21.37h-2.82v-18.61ZM423.43,485.36l17.85-2.32.38,2.61-17.85,2.32-.38-2.61ZM429.47,475.89h2.76c.08,3.19.26,6.17.55,8.93.29,2.76.68,5.19,1.18,7.29.49,2.1,1.11,3.75,1.86,4.96.74,1.21,1.62,1.88,2.63,2.02.37.02.67-.38.9-1.19.23-.81.41-2.04.52-3.69.19.17.43.36.71.57.28.2.57.39.87.57.3.17.53.3.68.38-.21,1.76-.5,3.13-.87,4.11-.37.98-.78,1.65-1.23,2.02-.46.37-.95.54-1.5.52-1.34-.12-2.49-.61-3.45-1.5-.97-.88-1.79-2.1-2.45-3.66-.67-1.56-1.21-3.42-1.64-5.57-.43-2.16-.75-4.56-.99-7.21s-.41-5.5-.52-8.54ZM434.58,477.2l2.03-1.31c.56.45,1.13.95,1.71,1.51.58.56,1.12,1.12,1.63,1.67.5.55.9,1.06,1.19,1.52l-2.18,1.42c-.27-.45-.65-.95-1.13-1.51-.48-.56-1.01-1.14-1.57-1.73-.56-.59-1.12-1.12-1.68-1.58Z"/>
      </g>
      <g>
        <path class="cls-7" d="M91.56,445.28c-1.47,0-2.79-.18-3.95-.54s-2.18-.84-3.06-1.43c-.88-.59-1.65-1.21-2.32-1.86l2.13-2.9c.54.54,1.14,1.04,1.78,1.49.64.45,1.37.82,2.19,1.1.81.28,1.72.43,2.73.43,1.06,0,2.01-.23,2.86-.68.85-.45,1.52-1.1,2.01-1.95.49-.85.74-1.86.74-3.02,0-1.75-.5-3.12-1.49-4.1-.99-.98-2.3-1.47-3.93-1.47-.9,0-1.68.14-2.32.41-.65.27-1.38.68-2.21,1.22l-2.21-1.39.85-13.55h14.44v3.79h-10.57l-.66,7.28c.62-.31,1.24-.55,1.86-.72.62-.17,1.3-.25,2.05-.25,1.6,0,3.06.3,4.37.91,1.32.61,2.36,1.55,3.14,2.83.77,1.28,1.16,2.91,1.16,4.9s-.45,3.73-1.35,5.15c-.9,1.42-2.08,2.5-3.54,3.25-1.46.75-3.03,1.12-4.7,1.12Z"/>
        <path class="cls-7" d="M114.32,445.28c-1.91,0-3.56-.56-4.94-1.68-1.38-1.12-2.45-2.76-3.19-4.92-.75-2.15-1.12-4.79-1.12-7.92s.37-5.74,1.12-7.86c.75-2.12,1.81-3.72,3.19-4.8,1.38-1.08,3.02-1.62,4.94-1.62s3.51.54,4.88,1.62c1.37,1.08,2.43,2.68,3.17,4.8.75,2.12,1.12,4.74,1.12,7.86s-.37,5.76-1.12,7.92c-.75,2.16-1.81,3.79-3.17,4.92-1.37,1.12-2.99,1.68-4.88,1.68ZM114.32,441.72c.95,0,1.81-.36,2.55-1.08.75-.72,1.33-1.88,1.74-3.48.41-1.6.62-3.73.62-6.39s-.21-4.77-.62-6.33c-.41-1.56-.99-2.69-1.74-3.39-.75-.7-1.6-1.05-2.55-1.05s-1.81.35-2.55,1.05c-.75.7-1.34,1.83-1.76,3.39s-.64,3.67-.64,6.33.21,4.79.64,6.39c.43,1.6,1.01,2.76,1.76,3.48.75.72,1.6,1.08,2.55,1.08Z"/>
        <path class="cls-7" d="M141.28,419.73l2.61.84c-.72,1.72-1.57,3.41-2.55,5.07-.99,1.66-2.06,3.21-3.21,4.66-1.15,1.45-2.33,2.73-3.53,3.83-.1-.21-.24-.49-.42-.84-.18-.35-.38-.7-.6-1.04-.21-.35-.4-.63-.55-.84,1.08-.93,2.14-2.01,3.16-3.25,1.03-1.24,1.97-2.57,2.84-4.01.87-1.43,1.62-2.9,2.24-4.41ZM138.12,427.74l2.79-2.79.03.03v21.37h-2.82v-18.61ZM142.18,429.36l17.85-2.32.38,2.61-17.85,2.32-.38-2.61ZM148.22,419.9h2.76c.08,3.19.26,6.17.55,8.93.29,2.76.68,5.19,1.18,7.29.49,2.1,1.11,3.75,1.86,4.96.74,1.21,1.62,1.88,2.63,2.02.37.02.67-.38.9-1.19.23-.81.41-2.04.52-3.69.19.17.43.36.71.57.28.2.57.39.87.57.3.17.53.3.68.38-.21,1.76-.5,3.13-.87,4.11-.37.98-.78,1.65-1.23,2.02-.46.37-.95.54-1.5.52-1.34-.12-2.49-.61-3.45-1.5-.97-.88-1.79-2.1-2.45-3.66-.67-1.56-1.21-3.42-1.64-5.57-.43-2.16-.75-4.56-.99-7.21s-.41-5.5-.52-8.54ZM153.33,421.21l2.03-1.31c.56.45,1.13.95,1.71,1.51.58.56,1.12,1.12,1.63,1.67.5.55.9,1.06,1.19,1.52l-2.18,1.42c-.27-.45-.65-.95-1.13-1.51-.48-.56-1.01-1.14-1.57-1.73-.56-.59-1.12-1.12-1.68-1.58Z"/>
      </g>
      <g>
        <path class="cls-7" d="M105.86,130.8c-1.37,0-2.65-.28-3.85-.83s-2.25-1.39-3.14-2.5c-.89-1.11-1.59-2.51-2.11-4.2-.52-1.69-.77-3.68-.77-5.98,0-2.74.29-5.06.87-6.99.58-1.92,1.37-3.5,2.38-4.74s2.15-2.14,3.44-2.71c1.29-.57,2.65-.85,4.06-.85,1.6,0,2.99.3,4.16.89,1.17.59,2.16,1.32,2.96,2.17l-2.44,2.71c-.52-.62-1.17-1.12-1.97-1.51-.8-.39-1.64-.58-2.52-.58-1.24,0-2.37.36-3.41,1.08-1.03.72-1.86,1.93-2.48,3.62-.62,1.69-.93,3.99-.93,6.91,0,2.3.23,4.19.7,5.67.46,1.48,1.12,2.59,1.97,3.31.85.72,1.84,1.08,2.98,1.08.83,0,1.57-.23,2.25-.68.67-.45,1.21-1.1,1.61-1.94.4-.84.6-1.84.6-3s-.19-2.1-.56-2.88c-.37-.79-.91-1.39-1.61-1.8-.7-.41-1.55-.62-2.55-.62-.83,0-1.72.27-2.69.81s-1.88,1.48-2.73,2.83l-.19-3.25c.57-.75,1.21-1.39,1.94-1.94.72-.54,1.48-.96,2.26-1.26.79-.3,1.53-.45,2.23-.45,1.6,0,3.01.32,4.22.95,1.21.63,2.15,1.58,2.83,2.84s1.01,2.85,1.01,4.76-.39,3.42-1.18,4.76c-.79,1.34-1.82,2.39-3.1,3.16s-2.69,1.14-4.24,1.14Z"/>
        <path class="cls-7" d="M127.11,130.8c-1.91,0-3.56-.56-4.94-1.68-1.38-1.12-2.45-2.76-3.19-4.92-.75-2.15-1.12-4.79-1.12-7.92s.37-5.74,1.12-7.86c.75-2.12,1.81-3.72,3.19-4.8,1.38-1.08,3.02-1.62,4.94-1.62s3.51.54,4.88,1.62c1.37,1.08,2.43,2.68,3.17,4.8.75,2.12,1.12,4.74,1.12,7.86s-.37,5.76-1.12,7.92c-.75,2.16-1.81,3.79-3.17,4.92-1.37,1.12-2.99,1.68-4.88,1.68ZM127.11,127.23c.95,0,1.81-.36,2.55-1.08.75-.72,1.33-1.88,1.74-3.48.41-1.6.62-3.73.62-6.39s-.21-4.77-.62-6.33c-.41-1.56-.99-2.69-1.74-3.39-.75-.7-1.6-1.05-2.55-1.05s-1.81.35-2.55,1.05c-.75.7-1.34,1.83-1.76,3.39s-.64,3.67-.64,6.33.21,4.79.64,6.39c.43,1.6,1.01,2.76,1.76,3.48.75.72,1.6,1.08,2.55,1.08Z"/>
        <path class="cls-7" d="M154.07,105.24l2.61.84c-.72,1.72-1.57,3.41-2.55,5.07-.99,1.66-2.06,3.21-3.21,4.66-1.15,1.45-2.33,2.73-3.53,3.83-.1-.21-.24-.49-.42-.84-.18-.35-.38-.7-.6-1.04-.21-.35-.4-.63-.55-.84,1.08-.93,2.14-2.01,3.16-3.25,1.03-1.24,1.97-2.57,2.84-4.01.87-1.43,1.62-2.9,2.24-4.41ZM150.9,113.25l2.79-2.79.03.03v21.37h-2.82v-18.61ZM154.97,114.88l17.85-2.32.38,2.61-17.85,2.32-.38-2.61ZM161.01,105.41h2.76c.08,3.19.26,6.17.55,8.93.29,2.76.68,5.19,1.18,7.29.49,2.1,1.11,3.75,1.86,4.96.74,1.21,1.62,1.88,2.63,2.02.37.02.67-.38.9-1.19.23-.81.41-2.04.52-3.69.19.17.43.36.71.57.28.2.57.39.87.57.3.17.53.3.68.38-.21,1.76-.5,3.13-.87,4.11-.37.98-.78,1.65-1.23,2.02-.46.37-.95.54-1.5.52-1.34-.12-2.49-.61-3.45-1.5-.97-.88-1.79-2.1-2.45-3.66-.67-1.56-1.21-3.42-1.64-5.57-.43-2.16-.75-4.56-.99-7.21s-.41-5.5-.52-8.54ZM166.11,106.72l2.03-1.31c.56.45,1.13.95,1.71,1.51.58.56,1.12,1.12,1.63,1.67.5.55.9,1.06,1.19,1.52l-2.18,1.42c-.27-.45-.65-.95-1.13-1.51-.48-.56-1.01-1.14-1.57-1.73-.56-.59-1.12-1.12-1.68-1.58Z"/>
        <path class="cls-7" d="M187.86,119.46c-.7-.72-1.39-1.27-2.08-1.67-.69-.4-1.54-.6-2.57-.6s-2.04.34-2.92,1.02c-.88.68-1.61,1.57-2.19,2.67l-2.55-1.39c.95-1.72,2.09-3.02,3.41-3.89,1.33-.87,2.75-1.31,4.28-1.31,1.35,0,2.56.27,3.61.8,1.05.53,2.08,1.31,3.09,2.34.7.72,1.39,1.27,2.08,1.67s1.54.59,2.57.59,2.04-.34,2.92-1.02c.88-.68,1.61-1.57,2.19-2.67l2.55,1.39c-.95,1.72-2.09,3.02-3.41,3.89s-2.75,1.31-4.28,1.31c-1.34,0-2.54-.27-3.6-.8s-2.1-1.31-3.11-2.34Z"/>
      </g>
      <rect class="cls-7" x="95.59" y="148.02" width="87.76" height="25.71"/>
      <g>
        <path class="cls-8" d="M99.11,170.06v-1.84c1.89-1.85,3.51-3.5,4.86-4.94,1.35-1.44,2.38-2.74,3.1-3.91.72-1.17,1.07-2.26,1.07-3.29,0-.73-.12-1.37-.37-1.9-.25-.53-.62-.95-1.13-1.24-.5-.29-1.14-.44-1.91-.44s-1.51.22-2.18.67c-.66.45-1.27.98-1.82,1.58l-1.79-1.76c.86-.96,1.78-1.7,2.74-2.23.96-.53,2.12-.8,3.46-.8,1.23,0,2.3.25,3.22.74.92.5,1.63,1.19,2.13,2.08.5.89.76,1.93.76,3.13s-.33,2.41-1.01,3.63c-.67,1.23-1.57,2.51-2.71,3.83-1.14,1.32-2.41,2.72-3.83,4.19.53-.06,1.1-.11,1.69-.15s1.14-.07,1.64-.07h5.18v2.73h-13.11Z"/>
        <path class="cls-8" d="M122.93,170.06v-12.67c0-.55.02-1.22.06-2,.04-.78.06-1.44.08-1.97h-.11c-.26.48-.52.96-.78,1.45-.27.49-.55.99-.84,1.5l-3.97,6h11.1v2.48h-14.32v-2.15l8.07-12.36h3.69v19.72h-2.97Z"/>
        <path class="cls-8" d="M133.39,170.44c-.59,0-1.09-.22-1.5-.65-.41-.43-.62-.97-.62-1.61s.21-1.2.62-1.61.91-.62,1.5-.62,1.12.21,1.53.62.62.95.62,1.61-.21,1.18-.62,1.61c-.41.43-.92.65-1.53.65Z"/>
        <path class="cls-8" d="M145.37,170.44c-1.36,0-2.53-.4-3.51-1.2-.98-.8-1.74-1.96-2.27-3.5-.53-1.53-.8-3.41-.8-5.63s.27-4.08.8-5.59c.53-1.5,1.29-2.64,2.27-3.42.98-.77,2.15-1.16,3.51-1.16s2.5.39,3.47,1.16c.97.77,1.73,1.91,2.26,3.42.53,1.5.8,3.37.8,5.59s-.27,4.1-.8,5.63c-.53,1.53-1.29,2.7-2.26,3.5-.97.8-2.13,1.2-3.47,1.2ZM145.37,167.91c.68,0,1.28-.26,1.82-.77.53-.51.95-1.34,1.24-2.48.29-1.14.44-2.65.44-4.54s-.15-3.39-.44-4.5c-.29-1.11-.71-1.91-1.24-2.41-.53-.5-1.14-.74-1.82-.74s-1.29.25-1.82.74c-.53.5-.95,1.3-1.25,2.41-.3,1.11-.45,2.61-.45,4.5s.15,3.41.45,4.54c.3,1.14.72,1.96,1.25,2.48.53.51,1.14.77,1.82.77Z"/>
        <path class="cls-8" d="M158.92,162.21c-.94,0-1.76-.25-2.48-.76s-1.27-1.24-1.67-2.2c-.4-.96-.59-2.12-.59-3.48s.2-2.51.59-3.46c.39-.95.95-1.67,1.67-2.16.72-.5,1.54-.74,2.48-.74s1.79.25,2.51.74c.72.5,1.27,1.22,1.67,2.16.39.95.59,2.1.59,3.46s-.2,2.52-.59,3.48c-.4.96-.95,1.7-1.67,2.2s-1.55.76-2.51.76ZM158.92,160.36c.72,0,1.3-.38,1.75-1.13.45-.75.67-1.91.67-3.47s-.23-2.7-.67-3.42c-.45-.72-1.03-1.07-1.75-1.07s-1.28.36-1.73,1.07c-.46.72-.69,1.85-.69,3.42s.23,2.72.69,3.47c.46.75,1.04,1.13,1.73,1.13ZM159.56,170.44l11.1-21.04h2.01l-11.1,21.04h-2.01ZM173.32,170.44c-.94,0-1.76-.26-2.48-.77s-1.27-1.25-1.67-2.2c-.4-.95-.59-2.11-.59-3.47s.2-2.53.59-3.47c.39-.94.95-1.66,1.67-2.16s1.54-.76,2.48-.76,1.76.25,2.48.76c.72.5,1.27,1.22,1.67,2.16.39.94.59,2.09.59,3.47s-.2,2.52-.59,3.47c-.4.96-.95,1.69-1.67,2.2-.72.51-1.54.77-2.48.77ZM173.32,168.54c.7,0,1.28-.37,1.75-1.1s.7-1.88.7-3.44-.23-2.73-.7-3.44c-.47-.72-1.05-1.07-1.75-1.07s-1.28.36-1.73,1.07c-.46.72-.69,1.86-.69,3.44s.23,2.71.69,3.44c.46.73,1.04,1.1,1.73,1.1Z"/>
      </g>
      <rect class="cls-7" x="81.68" y="456.28" width="87.76" height="25.71"/>
      <g>
        <path class="cls-8" d="M85.2,478.32v-1.84c1.89-1.85,3.51-3.5,4.86-4.94,1.35-1.44,2.38-2.74,3.1-3.91.72-1.17,1.07-2.26,1.07-3.29,0-.73-.12-1.37-.37-1.9-.25-.53-.62-.95-1.13-1.24-.5-.29-1.14-.44-1.91-.44s-1.51.22-2.18.67c-.66.45-1.27.98-1.82,1.58l-1.79-1.76c.86-.96,1.78-1.7,2.74-2.23.96-.53,2.12-.8,3.46-.8,1.23,0,2.3.25,3.22.74.92.5,1.63,1.19,2.13,2.08.5.89.76,1.93.76,3.13s-.33,2.41-1.01,3.63c-.67,1.23-1.57,2.51-2.71,3.83-1.14,1.32-2.41,2.72-3.83,4.19.53-.06,1.1-.11,1.69-.15s1.14-.07,1.64-.07h5.18v2.73h-13.11Z"/>
        <path class="cls-8" d="M102.02,478.32v-2.62h4.46v-13.55h-3.63v-2.01c.95-.18,1.79-.4,2.49-.65.71-.25,1.35-.55,1.94-.89h2.4v17.1h3.94v2.62h-11.59Z"/>
        <path class="cls-8" d="M119.48,478.7c-.59,0-1.09-.22-1.5-.65-.41-.43-.62-.97-.62-1.61s.21-1.2.62-1.61.91-.62,1.5-.62,1.12.21,1.53.62.62.95.62,1.61-.21,1.18-.62,1.61c-.41.43-.92.65-1.53.65Z"/>
        <path class="cls-8" d="M132.04,478.7c-.97,0-1.89-.2-2.74-.59-.85-.4-1.6-.99-2.23-1.78s-1.13-1.79-1.5-2.99c-.37-1.2-.55-2.62-.55-4.25,0-1.95.21-3.6.62-4.97.41-1.37.98-2.49,1.69-3.37s1.53-1.52,2.45-1.93c.92-.4,1.88-.61,2.89-.61,1.14,0,2.12.21,2.96.63.84.42,1.54.94,2.11,1.54l-1.74,1.93c-.37-.44-.84-.8-1.4-1.07-.57-.28-1.17-.41-1.79-.41-.88,0-1.69.26-2.42.77-.73.51-1.32,1.37-1.76,2.58-.44,1.2-.66,2.84-.66,4.92,0,1.63.17,2.98.5,4.03.33,1.06.8,1.84,1.4,2.36.61.51,1.31.77,2.12.77.59,0,1.12-.16,1.6-.48s.86-.78,1.14-1.38c.28-.6.43-1.31.43-2.13s-.13-1.49-.4-2.05c-.27-.56-.65-.99-1.14-1.28-.5-.29-1.1-.44-1.82-.44-.59,0-1.23.19-1.91.58s-1.34,1.06-1.94,2.01l-.14-2.31c.4-.53.86-.99,1.38-1.38.51-.39,1.05-.68,1.61-.89s1.09-.32,1.58-.32c1.14,0,2.14.23,3,.67.86.45,1.53,1.12,2.01,2.02s.72,2.03.72,3.39-.28,2.43-.84,3.39c-.56.95-1.29,1.7-2.2,2.24s-1.91.81-3.02.81Z"/>
        <path class="cls-8" d="M145.01,470.47c-.94,0-1.76-.25-2.48-.76s-1.27-1.24-1.67-2.2c-.4-.96-.59-2.12-.59-3.48s.2-2.51.59-3.46c.39-.95.95-1.67,1.67-2.16.72-.5,1.54-.74,2.48-.74s1.79.25,2.51.74c.72.5,1.27,1.22,1.67,2.16.39.95.59,2.1.59,3.46s-.2,2.52-.59,3.48c-.4.96-.95,1.7-1.67,2.2s-1.55.76-2.51.76ZM145.01,468.62c.72,0,1.3-.38,1.75-1.13.45-.75.67-1.91.67-3.47s-.23-2.7-.67-3.42c-.45-.72-1.03-1.07-1.75-1.07s-1.28.36-1.73,1.07c-.46.72-.69,1.85-.69,3.42s.23,2.72.69,3.47c.46.75,1.04,1.13,1.73,1.13ZM145.64,478.7l11.1-21.04h2.01l-11.1,21.04h-2.01ZM159.41,478.7c-.94,0-1.76-.26-2.48-.77s-1.27-1.25-1.67-2.2c-.4-.95-.59-2.11-.59-3.47s.2-2.53.59-3.47c.39-.94.95-1.66,1.67-2.16s1.54-.76,2.48-.76,1.76.25,2.48.76c.72.5,1.27,1.22,1.67,2.16.39.94.59,2.09.59,3.47s-.2,2.52-.59,3.47c-.4.96-.95,1.69-1.67,2.2-.72.51-1.54.77-2.48.77ZM159.41,476.8c.7,0,1.28-.37,1.75-1.1s.7-1.88.7-3.44-.23-2.73-.7-3.44c-.47-.72-1.05-1.07-1.75-1.07s-1.28.36-1.73,1.07c-.46.72-.69,1.86-.69,3.44s.23,2.71.69,3.44c.46.73,1.04,1.1,1.73,1.1Z"/>
      </g>
      <rect class="cls-7" x="363.99" y="512.41" width="87.76" height="25.71"/>
      <g>
        <path class="cls-8" d="M367.51,534.44v-1.84c1.89-1.85,3.51-3.5,4.86-4.94,1.35-1.44,2.38-2.74,3.1-3.91.72-1.17,1.07-2.26,1.07-3.29,0-.73-.12-1.37-.37-1.9-.25-.53-.62-.95-1.13-1.24-.5-.29-1.14-.44-1.91-.44s-1.51.22-2.18.67c-.66.45-1.27.98-1.82,1.58l-1.79-1.76c.86-.96,1.78-1.7,2.74-2.23.96-.53,2.12-.8,3.46-.8,1.23,0,2.3.25,3.22.74.92.5,1.63,1.19,2.13,2.08.5.89.76,1.93.76,3.13s-.33,2.41-1.01,3.63c-.67,1.23-1.57,2.51-2.71,3.83-1.14,1.32-2.41,2.72-3.83,4.19.53-.06,1.1-.11,1.69-.15s1.14-.07,1.64-.07h5.18v2.73h-13.11Z"/>
        <path class="cls-8" d="M383.21,534.44v-1.84c1.89-1.85,3.51-3.5,4.86-4.94,1.35-1.44,2.38-2.74,3.1-3.91.72-1.17,1.07-2.26,1.07-3.29,0-.73-.12-1.37-.37-1.9-.25-.53-.62-.95-1.13-1.24-.5-.29-1.14-.44-1.91-.44s-1.51.22-2.18.67c-.66.45-1.27.98-1.82,1.58l-1.79-1.76c.86-.96,1.78-1.7,2.74-2.23.96-.53,2.12-.8,3.46-.8,1.23,0,2.3.25,3.22.74.92.5,1.63,1.19,2.13,2.08.5.89.76,1.93.76,3.13s-.33,2.41-1.01,3.63c-.67,1.23-1.57,2.51-2.71,3.83-1.14,1.32-2.41,2.72-3.83,4.19.53-.06,1.1-.11,1.69-.15s1.14-.07,1.64-.07h5.18v2.73h-13.11Z"/>
        <path class="cls-8" d="M401.79,534.83c-.59,0-1.09-.22-1.5-.65-.41-.43-.62-.97-.62-1.61s.21-1.2.62-1.61.91-.62,1.5-.62,1.12.21,1.53.62.62.95.62,1.61-.21,1.18-.62,1.61c-.41.43-.92.65-1.53.65Z"/>
        <path class="cls-8" d="M414.35,534.83c-.97,0-1.89-.2-2.74-.59-.85-.4-1.6-.99-2.23-1.78s-1.13-1.79-1.5-2.99c-.37-1.2-.55-2.62-.55-4.25,0-1.95.21-3.6.62-4.97.41-1.37.98-2.49,1.69-3.37s1.53-1.52,2.45-1.93c.92-.4,1.88-.61,2.89-.61,1.14,0,2.12.21,2.96.63.84.42,1.54.94,2.11,1.54l-1.74,1.93c-.37-.44-.84-.8-1.4-1.07-.57-.28-1.17-.41-1.79-.41-.88,0-1.69.26-2.42.77-.73.51-1.32,1.37-1.76,2.58-.44,1.2-.66,2.84-.66,4.92,0,1.63.17,2.98.5,4.03.33,1.06.8,1.84,1.4,2.36.61.51,1.31.77,2.12.77.59,0,1.12-.16,1.6-.48s.86-.78,1.14-1.38c.28-.6.43-1.31.43-2.13s-.13-1.49-.4-2.05c-.27-.56-.65-.99-1.14-1.28-.5-.29-1.1-.44-1.82-.44-.59,0-1.23.19-1.91.58s-1.34,1.06-1.94,2.01l-.14-2.31c.4-.53.86-.99,1.38-1.38.51-.39,1.05-.68,1.61-.89s1.09-.32,1.58-.32c1.14,0,2.14.23,3,.67.86.45,1.53,1.12,2.01,2.02s.72,2.03.72,3.39-.28,2.43-.84,3.39c-.56.95-1.29,1.7-2.2,2.24s-1.91.81-3.02.81Z"/>
        <path class="cls-8" d="M427.32,526.6c-.94,0-1.76-.25-2.48-.76s-1.27-1.24-1.67-2.2c-.4-.96-.59-2.12-.59-3.48s.2-2.51.59-3.46c.39-.95.95-1.67,1.67-2.16.72-.5,1.54-.74,2.48-.74s1.79.25,2.51.74c.72.5,1.27,1.22,1.67,2.16.39.95.59,2.1.59,3.46s-.2,2.52-.59,3.48c-.4.96-.95,1.7-1.67,2.2s-1.55.76-2.51.76ZM427.32,524.75c.72,0,1.3-.38,1.75-1.13.45-.75.67-1.91.67-3.47s-.23-2.7-.67-3.42c-.45-.72-1.03-1.07-1.75-1.07s-1.28.36-1.73,1.07c-.46.72-.69,1.85-.69,3.42s.23,2.72.69,3.47c.46.75,1.04,1.13,1.73,1.13ZM427.95,534.83l11.1-21.04h2.01l-11.1,21.04h-2.01ZM441.72,534.83c-.94,0-1.76-.26-2.48-.77s-1.27-1.25-1.67-2.2c-.4-.95-.59-2.11-.59-3.47s.2-2.53.59-3.47c.39-.94.95-1.66,1.67-2.16s1.54-.76,2.48-.76,1.76.25,2.48.76c.72.5,1.27,1.22,1.67,2.16.39.94.59,2.09.59,3.47s-.2,2.52-.59,3.47c-.4.96-.95,1.69-1.67,2.2-.72.51-1.54.77-2.48.77ZM441.72,532.93c.7,0,1.28-.37,1.75-1.1s.7-1.88.7-3.44-.23-2.73-.7-3.44c-.47-.72-1.05-1.07-1.75-1.07s-1.28.36-1.73,1.07c-.46.72-.69,1.86-.69,3.44s.23,2.71.69,3.44c.46.73,1.04,1.1,1.73,1.1Z"/>
      </g>
      <rect class="cls-7" x="495.3" y="274.43" width="87.76" height="25.71"/>
      <g>
        <path class="cls-8" d="M499.95,296.46v-2.62h4.46v-13.55h-3.63v-2.01c.95-.18,1.79-.4,2.49-.65.71-.25,1.35-.55,1.94-.89h2.4v17.1h3.94v2.62h-11.59Z"/>
        <path class="cls-8" d="M519.92,296.85c-1.16,0-2.15-.22-2.99-.65-.84-.43-1.54-.94-2.11-1.53l1.73-1.98c.37.46.84.83,1.42,1.1.58.28,1.17.41,1.78.41.88,0,1.69-.26,2.42-.77.73-.51,1.32-1.38,1.76-2.59.44-1.21.66-2.84.66-4.9,0-1.63-.17-2.98-.5-4.03s-.79-1.84-1.39-2.34c-.6-.5-1.31-.76-2.13-.76-.59,0-1.12.16-1.6.47-.48.31-.85.76-1.13,1.35-.28.59-.41,1.3-.41,2.15s.12,1.5.37,2.07c.25.57.62,1,1.13,1.29.5.29,1.12.44,1.83.44.59,0,1.23-.2,1.91-.61.69-.4,1.34-1.07,1.94-2.01l.14,2.34c-.39.53-.84.99-1.36,1.38-.52.38-1.06.68-1.61.88s-1.08.3-1.6.3c-1.14,0-2.13-.22-2.99-.67-.85-.45-1.52-1.12-2.01-2.02s-.73-2.03-.73-3.39.28-2.43.84-3.39c.56-.96,1.3-1.7,2.22-2.23.92-.53,1.92-.8,3-.8.97,0,1.89.19,2.74.58s1.6.98,2.23,1.78,1.13,1.79,1.5,2.99c.37,1.19.55,2.61.55,4.24,0,1.93-.21,3.58-.62,4.97-.41,1.39-.98,2.52-1.71,3.39-.73.87-1.54,1.51-2.45,1.93s-1.86.62-2.85.62Z"/>
        <path class="cls-8" d="M533.11,296.85c-.59,0-1.09-.22-1.5-.65-.41-.43-.62-.97-.62-1.61s.21-1.2.62-1.61.91-.62,1.5-.62,1.12.21,1.53.62.62.95.62,1.61-.21,1.18-.62,1.61c-.41.43-.92.65-1.53.65Z"/>
        <path class="cls-8" d="M538.42,296.46v-1.84c1.89-1.85,3.51-3.5,4.86-4.94,1.35-1.44,2.38-2.74,3.1-3.91.72-1.17,1.07-2.26,1.07-3.29,0-.73-.12-1.37-.37-1.9-.25-.53-.62-.95-1.13-1.24-.5-.29-1.14-.44-1.91-.44s-1.51.22-2.18.67c-.66.45-1.27.98-1.82,1.58l-1.79-1.76c.86-.96,1.78-1.7,2.74-2.23.96-.53,2.12-.8,3.46-.8,1.23,0,2.3.25,3.22.74.92.5,1.63,1.19,2.13,2.08.5.89.76,1.93.76,3.13s-.33,2.41-1.01,3.63c-.67,1.23-1.57,2.51-2.71,3.83-1.14,1.32-2.41,2.72-3.83,4.19.53-.06,1.1-.11,1.69-.15s1.14-.07,1.64-.07h5.18v2.73h-13.11Z"/>
        <path class="cls-8" d="M558.64,288.62c-.94,0-1.76-.25-2.48-.76s-1.27-1.24-1.67-2.2c-.4-.96-.59-2.12-.59-3.48s.2-2.51.59-3.46c.39-.95.95-1.67,1.67-2.16.72-.5,1.54-.74,2.48-.74s1.79.25,2.51.74c.72.5,1.27,1.22,1.67,2.16.39.95.59,2.1.59,3.46s-.2,2.52-.59,3.48c-.4.96-.95,1.7-1.67,2.2s-1.55.76-2.51.76ZM558.64,286.77c.72,0,1.3-.38,1.75-1.13.45-.75.67-1.91.67-3.47s-.23-2.7-.67-3.42c-.45-.72-1.03-1.07-1.75-1.07s-1.28.36-1.73,1.07c-.46.72-.69,1.85-.69,3.42s.23,2.72.69,3.47c.46.75,1.04,1.13,1.73,1.13ZM559.27,296.85l11.1-21.04h2.01l-11.1,21.04h-2.01ZM573.04,296.85c-.94,0-1.76-.26-2.48-.77s-1.27-1.25-1.67-2.2c-.4-.95-.59-2.11-.59-3.47s.2-2.53.59-3.47c.39-.94.95-1.66,1.67-2.16s1.54-.76,2.48-.76,1.76.25,2.48.76c.72.5,1.27,1.22,1.67,2.16.39.94.59,2.09.59,3.47s-.2,2.52-.59,3.47c-.4.96-.95,1.69-1.67,2.2-.72.51-1.54.77-2.48.77ZM573.04,294.95c.7,0,1.28-.37,1.75-1.1s.7-1.88.7-3.44-.23-2.73-.7-3.44c-.47-.72-1.05-1.07-1.75-1.07s-1.28.36-1.73,1.07c-.46.72-.69,1.86-.69,3.44s.23,2.71.69,3.44c.46.73,1.04,1.1,1.73,1.1Z"/>
      </g>
      <rect class="cls-7" x="350.31" y="85.64" width="87.76" height="25.71"/>
      <g>
        <path class="cls-8" d="M354.96,107.68v-2.62h4.46v-13.55h-3.63v-2.01c.95-.18,1.79-.4,2.49-.65.71-.25,1.35-.55,1.94-.89h2.4v17.1h3.94v2.62h-11.59Z"/>
        <path class="cls-8" d="M369.53,107.68v-1.84c1.89-1.85,3.51-3.5,4.86-4.94,1.35-1.44,2.38-2.74,3.1-3.91.72-1.17,1.07-2.26,1.07-3.29,0-.73-.12-1.37-.37-1.9-.25-.53-.62-.95-1.13-1.24-.5-.29-1.14-.44-1.91-.44s-1.51.22-2.18.67c-.66.45-1.27.98-1.82,1.58l-1.79-1.76c.86-.96,1.78-1.7,2.74-2.23.96-.53,2.12-.8,3.46-.8,1.23,0,2.3.25,3.22.74.92.5,1.63,1.19,2.13,2.08.5.89.76,1.93.76,3.13s-.33,2.41-1.01,3.63c-.67,1.23-1.57,2.51-2.71,3.83-1.14,1.32-2.41,2.72-3.83,4.19.53-.06,1.1-.11,1.69-.15s1.14-.07,1.64-.07h5.18v2.73h-13.11Z"/>
        <path class="cls-8" d="M388.11,108.06c-.59,0-1.09-.22-1.5-.65-.41-.43-.62-.97-.62-1.61s.21-1.2.62-1.61.91-.62,1.5-.62,1.12.21,1.53.62.62.95.62,1.61-.21,1.18-.62,1.61c-.41.43-.92.65-1.53.65Z"/>
        <path class="cls-8" d="M399.6,108.06c-1.05,0-1.98-.13-2.81-.39s-1.55-.6-2.18-1.02c-.62-.42-1.18-.86-1.65-1.32l1.51-2.07c.39.39.81.74,1.27,1.06.46.32.98.58,1.56.78.58.2,1.23.3,1.94.3.75,0,1.43-.16,2.04-.48.61-.32,1.08-.78,1.43-1.39.35-.61.52-1.32.52-2.15,0-1.25-.35-2.22-1.06-2.92-.71-.7-1.64-1.05-2.8-1.05-.64,0-1.19.1-1.65.29-.46.19-.98.48-1.57.87l-1.57-.99.61-9.64h10.27v2.7h-7.52l-.47,5.18c.44-.22.88-.39,1.32-.51s.93-.18,1.46-.18c1.14,0,2.18.22,3.11.65.94.43,1.68,1.1,2.23,2.01.55.91.83,2.07.83,3.48s-.32,2.65-.96,3.66c-.64,1.01-1.48,1.78-2.52,2.31-1.04.53-2.15.8-3.35.8Z"/>
        <path class="cls-8" d="M413.64,99.83c-.94,0-1.76-.25-2.48-.76s-1.27-1.24-1.67-2.2c-.4-.96-.59-2.12-.59-3.48s.2-2.51.59-3.46c.39-.95.95-1.67,1.67-2.16.72-.5,1.54-.74,2.48-.74s1.79.25,2.51.74c.72.5,1.27,1.22,1.67,2.16.39.95.59,2.1.59,3.46s-.2,2.52-.59,3.48c-.4.96-.95,1.7-1.67,2.2s-1.55.76-2.51.76ZM413.64,97.98c.72,0,1.3-.38,1.75-1.13.45-.75.67-1.91.67-3.47s-.23-2.7-.67-3.42c-.45-.72-1.03-1.07-1.75-1.07s-1.28.36-1.73,1.07c-.46.72-.69,1.85-.69,3.42s.23,2.72.69,3.47c.46.75,1.04,1.13,1.73,1.13ZM414.28,108.06l11.1-21.04h2.01l-11.1,21.04h-2.01ZM428.04,108.06c-.94,0-1.76-.26-2.48-.77s-1.27-1.25-1.67-2.2c-.4-.95-.59-2.11-.59-3.47s.2-2.53.59-3.47c.39-.94.95-1.66,1.67-2.16s1.54-.76,2.48-.76,1.76.25,2.48.76c.72.5,1.27,1.22,1.67,2.16.39.94.59,2.09.59,3.47s-.2,2.52-.59,3.47c-.4.96-.95,1.69-1.67,2.2-.72.51-1.54.77-2.48.77ZM428.04,106.16c.7,0,1.28-.37,1.75-1.1s.7-1.88.7-3.44-.23-2.73-.7-3.44c-.47-.72-1.05-1.07-1.75-1.07s-1.28.36-1.73,1.07c-.46.72-.69,1.86-.69,3.44s.23,2.71.69,3.44c.46.73,1.04,1.1,1.73,1.1Z"/>
      </g>
      <g>
        <path class="cls-8" d="M288.54,205.54v3.56h-9.07v7.97h9.87v3.61h-9.87v7.97h-3.91v-7.97h-9.87v-3.61h9.87v-7.97h-8.94v-3.56h21.92ZM273.71,215.86l-3.68,1.1c-.43-1.93-1.3-4.56-2.23-6.31l3.48-1.1c.85,1.5,1.95,4.61,2.43,6.31ZM284.71,216.99l-3.53-1.18c1.03-1.73,1.93-4.28,2.51-6.24l3.76,1c-.63,1.83-1.75,4.81-2.73,6.41Z"/>
        <path class="cls-8" d="M308.49,216.19l-2.28-2.51h-.9v6.51c.75-.25,1.48-.53,2.21-.83l.28,3.41c-2.56,1.23-5.94,2.28-8.64,3.11l-.45-3.91c.98-.22,1.98-.45,2.96-.7v-7.59h-2.56v-3.61h2.56v-5.24h3.66v5.24h2.15v1.4c1.53-2.23,2.28-4.23,2.76-6.89l3.73.45c-.18.8-.38,1.6-.63,2.38h9.2c0,2.88-.02,5.81-.1,8.49-.05,2.15-.38,7.44-.93,9.6s-2.33,3.06-4.06,3.06h-4.51l-.63-3.93h4.01c1.15,0,1.48-.12,1.73-1.15.55-2.23.7-9.82.7-12.45h-6.77c-.35.78-.75,1.5-1.2,2.2h6.34v3.43h-7.77v-1.45c-.3.33-.58.65-.85.98ZM307.91,221.1c3.33-.85,6.14-1.65,9.35-2.93l.45,3.33c-2.28,1.03-6.74,2.63-9.17,3.38l-.63-3.78Z"/>
      </g>
    </g>
  </g>
</svg>