<?xml version="1.0" encoding="UTF-8"?>
<svg id="_レイヤー_2" data-name="レイヤー 2" xmlns="http://www.w3.org/2000/svg" viewBox="0 0 424.15 423.8">
  <defs>
    <style>
      .cls-1 {
        opacity: .7;
      }

      .cls-2 {
        fill: #000;
      }

      .cls-2, .cls-3, .cls-4, .cls-5, .cls-6, .cls-7, .cls-8, .cls-9 {
        stroke-width: 0px;
      }

      .cls-3 {
        fill: rgba(137, 195, 63, .55);
      }

      .cls-4 {
        fill: #9f9f9f;
      }

      .cls-5 {
        fill: #dfdfdf;
      }

      .cls-6 {
        fill: #404040;
      }

      .cls-7 {
        fill: gray;
      }

      .cls-8 {
        fill: #fff;
      }

      .cls-9 {
        fill: #4d4d4d;
      }
    </style>
  </defs>
  <g id="_レイヤー_1-2" data-name="レイヤー 1">
    <g>
      <g class="cls-1">
        <path class="cls-4" d="M212.24,211.9L175.45,3.22c11.99-2.11,24.63-3.22,36.8-3.22v211.9Z"/>
        <path class="cls-6" d="M212.24,211.9L76.04,49.58C106.16,24.3,136.72,10.05,175.45,3.22l36.8,208.68Z"/>
        <path class="cls-7" d="M212.24,211.9L18.66,298.09C-20.18,210.85,2.88,110.96,76.04,49.58l136.21,162.33Z"/>
        <path class="cls-5" d="M212.24,211.9L47.56,345.26c-12.96-16.01-20.53-28.35-28.9-47.17l193.58-86.19Z"/>
        <path class="cls-2" d="M212.24,211.9V0c117.03,0,211.9,94.87,211.9,211.9s-94.87,211.9-211.9,211.9c-66.47,0-122.85-26.89-164.68-78.55l164.68-133.35Z"/>
      </g>
      <circle class="cls-3" cx="212.24" cy="211.9" r="211.9"/>
      <circle class="cls-8" cx="212.24" cy="211.9" r="76.88"/>
      <g>
        <path class="cls-9" d="M165.69,199.95h.51l.51-.12,1.89.9c-.52,1.5-1.2,2.89-2.03,4.17s-1.77,2.45-2.82,3.51c-1.05,1.06-2.17,2-3.34,2.82-1.18.82-2.4,1.51-3.66,2.07-.18-.32-.44-.69-.78-1.12-.34-.43-.66-.76-.96-1,1.12-.46,2.23-1.05,3.32-1.79,1.09-.73,2.12-1.56,3.08-2.49.96-.93,1.81-1.94,2.55-3.03.74-1.09,1.32-2.22,1.74-3.41v-.51ZM163.95,210.48h2.82v5.16c0,1.06-.1,2.11-.29,3.15-.19,1.04-.57,2.04-1.14,3-.57.96-1.42,1.86-2.54,2.7-1.12.84-2.61,1.58-4.47,2.22-.12-.22-.28-.48-.49-.76-.21-.29-.43-.57-.66-.84-.23-.27-.45-.49-.65-.65,1.64-.54,2.96-1.15,3.96-1.83,1-.68,1.75-1.41,2.24-2.19.49-.78.81-1.58.97-2.39.16-.81.24-1.62.24-2.44v-5.13ZM157.2,215.85h23.94v2.64h-23.94v-2.64ZM157.32,204.72l1.8-1.5c.42.28.87.61,1.35.99.48.38.93.75,1.36,1.11.43.36.79.69,1.07.99l-1.86,1.68c-.26-.3-.6-.64-1.02-1.02-.42-.38-.87-.77-1.33-1.17-.47-.4-.93-.76-1.37-1.08ZM157.92,199.95h8.76v2.46h-8.76v-2.46ZM161.04,209.16h16.44v2.7h-16.44v-2.7ZM172.02,198.78c.66,1.76,1.55,3.42,2.68,5s2.43,2.96,3.92,4.17c1.48,1.21,3.1,2.17,4.86,2.86-.22.18-.45.42-.69.71-.24.29-.48.58-.71.89-.23.3-.42.58-.55.84-1.84-.84-3.53-1.94-5.05-3.3-1.53-1.36-2.88-2.93-4.05-4.7-1.17-1.77-2.14-3.68-2.92-5.75l2.52-.72ZM171.36,210.6h2.94v12.03c0,.5.07.82.2.96.13.14.44.21.92.21h2.94c.3,0,.52-.09.67-.27.15-.18.25-.53.31-1.05.06-.52.11-1.29.15-2.31.32.24.73.46,1.23.67.5.21.95.37,1.35.46-.1,1.3-.27,2.32-.5,3.05-.23.73-.58,1.24-1.05,1.54-.47.3-1.11.45-1.91.45h-3.66c-.96,0-1.7-.11-2.22-.33-.52-.22-.88-.61-1.08-1.16-.2-.55-.3-1.29-.3-2.24v-12.03ZM176.97,199.11l2.19,1.5c-.78.74-1.62,1.48-2.52,2.22-.9.74-1.72,1.36-2.46,1.86l-1.71-1.32c.48-.36,1-.79,1.56-1.28.56-.49,1.1-1,1.62-1.53.52-.53.96-1.02,1.32-1.46ZM180.57,202.53l2.1,1.5c-.82.76-1.71,1.53-2.68,2.29-.97.77-1.86,1.42-2.66,1.96l-1.74-1.35c.52-.36,1.08-.79,1.7-1.31.61-.51,1.21-1.04,1.79-1.59.58-.55,1.08-1.05,1.5-1.51Z"/>
        <path class="cls-9" d="M184.12,209.19l1.47-2.19c.68.22,1.39.49,2.13.81.74.32,1.45.66,2.12,1.01s1.22.69,1.67,1.03l-1.56,2.4c-.42-.34-.96-.7-1.61-1.08-.65-.38-1.34-.75-2.07-1.09-.73-.35-1.44-.65-2.14-.88ZM185.32,224.28c.54-.76,1.14-1.67,1.8-2.73.66-1.06,1.33-2.18,2.01-3.38.68-1.19,1.32-2.35,1.92-3.5l2.07,1.89c-.52,1.04-1.08,2.12-1.7,3.25s-1.23,2.23-1.86,3.31-1.25,2.1-1.85,3.06l-2.4-1.92ZM185.98,201l1.56-2.1c.66.24,1.35.54,2.08.9.73.36,1.42.73,2.07,1.11.65.38,1.17.75,1.58,1.11l-1.65,2.34c-.4-.36-.92-.75-1.54-1.16s-1.3-.81-2.01-1.2c-.71-.39-1.41-.72-2.08-1ZM192.49,222.93h19.62v2.7h-19.62v-2.7ZM193.54,205.2h17.91v2.73h-17.91v-2.73ZM194.62,213.72h15.75v2.7h-15.75v-2.7ZM197.02,200.82l1.86-2.16c.82.38,1.68.84,2.58,1.38.9.54,1.75,1.08,2.55,1.63.8.55,1.44,1.08,1.92,1.58l-2.01,2.43c-.46-.5-1.08-1.04-1.84-1.63-.77-.59-1.6-1.17-2.49-1.74-.89-.57-1.75-1.06-2.56-1.48ZM200.86,206.13h2.94v18h-2.94v-18Z"/>
        <path class="cls-9" d="M236.59,199.68l2.43,1.29c-1.96,2.66-4.25,5.1-6.87,7.31s-5.44,4.17-8.46,5.88c-3.02,1.71-6.13,3.17-9.33,4.39-.12-.22-.29-.47-.5-.76s-.43-.58-.66-.87-.43-.53-.62-.71c3.24-1.1,6.35-2.46,9.33-4.08,2.98-1.62,5.72-3.48,8.22-5.58,2.5-2.1,4.65-4.39,6.45-6.87ZM213.37,208.11h26.88v2.52h-26.88v-2.52ZM216.01,202.26h17.28v2.49h-17.28v-2.49ZM219.49,213.48h17.16v12.99h-2.94v-10.62h-11.4v10.74h-2.82v-13.11ZM221.05,218.34h13.8v2.22h-13.8v-2.22ZM221.05,223.23h13.8v2.4h-13.8v-2.4ZM223.42,198.72h2.82v10.77h-2.82v-10.77Z"/>
        <path class="cls-9" d="M246.9,209.37h2.79c-.08,1.58-.21,3.18-.41,4.8s-.49,3.19-.9,4.71c-.41,1.52-.98,2.94-1.71,4.26-.73,1.32-1.69,2.48-2.87,3.48-.22-.36-.52-.73-.88-1.11-.37-.38-.73-.68-1.07-.9,1.06-.88,1.92-1.91,2.57-3.08.65-1.17,1.14-2.43,1.47-3.79s.56-2.75.71-4.19c.14-1.43.24-2.82.3-4.18ZM243.69,200.1h12.12v10.11h-12.12v-10.11ZM246.27,202.62v5.04h6.81v-5.04h-6.81ZM247.62,213.12h6.99v2.49h-6.99v-2.49ZM253.41,213.12h2.61v.67c0,.17-.01.32-.03.44-.1,2.46-.21,4.45-.33,5.98s-.26,2.7-.43,3.5-.4,1.37-.67,1.71c-.28.34-.58.58-.9.71-.32.13-.71.22-1.17.29-.4.06-.94.09-1.61.09s-1.36-.02-2.08-.06c-.02-.38-.09-.81-.22-1.28s-.32-.88-.55-1.21c.7.08,1.35.12,1.95.13.6,0,1.03.01,1.29.01.24,0,.44-.02.6-.06s.3-.13.42-.27c.2-.22.36-.69.5-1.4.13-.71.24-1.77.34-3.2.1-1.42.2-3.29.3-5.61v-.45ZM258.51,202.35h2.76v16.77h-2.76v-16.77ZM265.74,199.29h2.82v23.67c0,.92-.11,1.61-.33,2.05-.22.45-.6.79-1.14,1.04-.56.22-1.31.37-2.24.44-.93.07-2.08.1-3.46.1-.04-.26-.12-.57-.23-.92-.11-.35-.23-.71-.36-1.06-.13-.36-.28-.67-.44-.93,1.04.04,1.99.06,2.85.06h1.74c.28-.02.48-.08.6-.2.12-.11.18-.3.18-.58v-23.67Z"/>
      </g>
      <g>
        <rect class="cls-8" x="304.29" y="218.27" width="86.76" height="24.71"/>
        <path class="cls-2" d="M390.55,218.77v23.71h-85.76v-23.71h85.76M391.55,217.77h-87.76v25.71h87.76v-25.71h0Z"/>
      </g>
      <g>
        <path class="cls-9" d="M316.35,240.17c-.92,0-1.78-.19-2.59-.56-.81-.37-1.51-.93-2.11-1.68s-1.07-1.69-1.42-2.82c-.35-1.13-.52-2.47-.52-4.02,0-1.84.19-3.4.58-4.69.39-1.29.92-2.35,1.6-3.18.68-.83,1.45-1.44,2.31-1.82.87-.38,1.78-.57,2.73-.57,1.07,0,2.01.2,2.79.6.79.4,1.45.88,1.99,1.46l-1.64,1.82c-.35-.42-.79-.75-1.33-1.01-.54-.26-1.1-.39-1.69-.39-.83,0-1.59.24-2.29.73-.69.49-1.25,1.3-1.66,2.43-.42,1.13-.62,2.68-.62,4.64,0,1.54.16,2.81.47,3.81.31,1,.75,1.74,1.33,2.22.57.49,1.24.73,2,.73.55,0,1.06-.15,1.51-.46.45-.3.81-.74,1.08-1.3.27-.56.4-1.24.4-2.01s-.13-1.41-.38-1.94c-.25-.53-.61-.93-1.08-1.21-.47-.28-1.04-.42-1.72-.42-.56,0-1.16.18-1.81.55-.65.36-1.26,1-1.83,1.9l-.13-2.18c.38-.5.81-.94,1.3-1.3.49-.36.99-.65,1.52-.84s1.03-.3,1.5-.3c1.07,0,2.02.21,2.83.64.81.42,1.45,1.06,1.9,1.91.45.85.68,1.92.68,3.2s-.26,2.3-.79,3.2c-.53.9-1.22,1.61-2.08,2.12-.86.51-1.81.77-2.85.77Z"/>
        <path class="cls-9" d="M332,239.81v-11.96c0-.52.02-1.15.05-1.88.03-.74.06-1.36.08-1.86h-.1c-.24.45-.49.91-.74,1.37-.25.46-.52.93-.79,1.42l-3.74,5.67h10.48v2.34h-13.52v-2.03l7.62-11.67h3.48v18.62h-2.81Z"/>
        <path class="cls-9" d="M341.88,240.17c-.56,0-1.03-.2-1.42-.61s-.58-.91-.58-1.52.19-1.13.58-1.52.86-.58,1.42-.58,1.05.2,1.44.58.58.9.58,1.52-.19,1.11-.58,1.52-.87.61-1.44.61Z"/>
        <path class="cls-9" d="M346.9,239.81v-1.74c1.79-1.75,3.31-3.31,4.59-4.67,1.27-1.36,2.25-2.59,2.93-3.69.68-1.1,1.01-2.14,1.01-3.11,0-.69-.12-1.29-.35-1.79-.23-.5-.59-.89-1.07-1.17-.48-.28-1.08-.42-1.81-.42s-1.43.21-2.05.64-1.2.92-1.72,1.5l-1.69-1.66c.81-.9,1.68-1.6,2.59-2.11.91-.5,2-.75,3.26-.75,1.16,0,2.18.23,3.04.7.87.47,1.54,1.12,2.02,1.96.48.84.71,1.83.71,2.95s-.32,2.27-.95,3.43c-.63,1.16-1.49,2.37-2.56,3.61-1.08,1.25-2.28,2.57-3.61,3.95.5-.05,1.04-.1,1.6-.14.56-.04,1.08-.07,1.55-.07h4.89v2.57h-12.38Z"/>
        <path class="cls-9" d="M365.98,232.4c-.88,0-1.66-.24-2.34-.71-.68-.48-1.2-1.17-1.57-2.08-.37-.91-.56-2.01-.56-3.29s.19-2.37.56-3.26c.37-.89.9-1.57,1.57-2.04.68-.47,1.46-.7,2.34-.7s1.69.23,2.37.7c.68.47,1.2,1.15,1.57,2.04.37.89.56,1.98.56,3.26s-.19,2.38-.56,3.29c-.37.91-.9,1.6-1.57,2.08-.68.48-1.46.71-2.37.71ZM365.98,230.65c.68,0,1.23-.35,1.65-1.07.42-.71.64-1.8.64-3.28s-.21-2.55-.64-3.22c-.42-.68-.98-1.01-1.65-1.01s-1.21.34-1.64,1.01c-.43.68-.65,1.75-.65,3.22s.22,2.57.65,3.28c.43.71.98,1.07,1.64,1.07ZM366.58,240.17l10.48-19.86h1.9l-10.48,19.86h-1.9ZM379.58,240.17c-.88,0-1.66-.24-2.34-.73-.68-.48-1.2-1.18-1.57-2.08-.37-.9-.56-1.99-.56-3.28s.19-2.39.56-3.28.9-1.56,1.57-2.04,1.46-.71,2.34-.71,1.66.24,2.34.71c.68.48,1.2,1.16,1.57,2.04.37.88.56,1.98.56,3.28s-.19,2.38-.56,3.28c-.37.9-.9,1.6-1.57,2.08-.68.49-1.46.73-2.34.73ZM379.58,238.38c.66,0,1.21-.35,1.65-1.04.44-.69.66-1.78.66-3.25s-.22-2.57-.66-3.25c-.44-.68-.99-1.01-1.65-1.01s-1.2.34-1.64,1.01c-.43.68-.65,1.76-.65,3.25s.22,2.56.65,3.25c.43.69.98,1.04,1.64,1.04Z"/>
      </g>
      <g>
        <rect class="cls-8" x="41.96" y="280.51" width="86.76" height="24.71"/>
        <path class="cls-2" d="M128.22,281.01v23.71H42.46v-23.71h85.76M129.22,280.01H41.46v25.71h87.76v-25.71h0Z"/>
      </g>
      <g>
        <path class="cls-9" d="M62.26,302.04v-11.96c0-.52.02-1.15.05-1.88.03-.74.06-1.36.08-1.86h-.1c-.24.45-.49.91-.74,1.37-.25.46-.52.93-.79,1.42l-3.74,5.67h10.48v2.34h-13.52v-2.03l7.62-11.67h3.48v18.62h-2.81Z"/>
        <path class="cls-9" d="M72.14,302.41c-.56,0-1.03-.2-1.42-.61s-.58-.91-.58-1.52.19-1.13.58-1.52.86-.58,1.42-.58,1.05.2,1.44.58.58.9.58,1.52-.19,1.11-.58,1.52-.87.61-1.44.61Z"/>
        <path class="cls-9" d="M84.83,302.04v-11.96c0-.52.02-1.15.05-1.88.03-.74.06-1.36.08-1.86h-.1c-.24.45-.49.91-.74,1.37-.25.46-.52.93-.79,1.42l-3.74,5.67h10.48v2.34h-13.52v-2.03l7.62-11.67h3.48v18.62h-2.81Z"/>
        <path class="cls-9" d="M96.24,294.63c-.88,0-1.66-.24-2.34-.71-.68-.48-1.2-1.17-1.57-2.08-.37-.91-.56-2.01-.56-3.29s.19-2.37.56-3.26c.37-.89.9-1.57,1.57-2.04.68-.47,1.46-.7,2.34-.7s1.69.23,2.37.7c.68.47,1.2,1.15,1.57,2.04.37.89.56,1.98.56,3.26s-.19,2.38-.56,3.29c-.37.91-.9,1.6-1.57,2.08-.68.48-1.46.71-2.37.71ZM96.24,292.89c.68,0,1.23-.35,1.65-1.07.42-.71.64-1.8.64-3.28s-.21-2.55-.64-3.22c-.42-.68-.98-1.01-1.65-1.01s-1.21.34-1.64,1.01c-.43.68-.65,1.75-.65,3.22s.22,2.57.65,3.28c.43.71.98,1.07,1.64,1.07ZM96.84,302.41l10.48-19.86h1.9l-10.48,19.86h-1.9ZM109.84,302.41c-.88,0-1.66-.24-2.34-.73-.68-.48-1.2-1.18-1.57-2.08-.37-.9-.56-1.99-.56-3.28s.19-2.39.56-3.28.9-1.56,1.57-2.04,1.46-.71,2.34-.71,1.66.24,2.34.71c.68.48,1.2,1.16,1.57,2.04.37.88.56,1.98.56,3.28s-.19,2.38-.56,3.28c-.37.9-.9,1.6-1.57,2.08-.68.49-1.46.73-2.34.73ZM109.84,300.61c.66,0,1.21-.35,1.65-1.04.44-.69.66-1.78.66-3.25s-.22-2.57-.66-3.25c-.44-.68-.99-1.01-1.65-1.01s-1.2.34-1.64,1.01c-.43.68-.65,1.76-.65,3.25s.22,2.56.65,3.25c.43.69.98,1.04,1.64,1.04Z"/>
      </g>
      <g>
        <rect class="cls-8" x="36.83" y="187.71" width="86.76" height="24.71"/>
        <path class="cls-2" d="M123.09,188.2v23.71H37.33v-23.71h85.76M124.09,187.2H36.33v25.71h87.76v-25.71h0Z"/>
      </g>
      <g>
        <path class="cls-9" d="M42.05,209.24v-1.74c1.79-1.75,3.31-3.31,4.59-4.67,1.27-1.36,2.25-2.59,2.93-3.69.68-1.1,1.01-2.14,1.01-3.11,0-.69-.12-1.29-.35-1.79-.23-.5-.59-.89-1.07-1.17-.48-.28-1.08-.42-1.81-.42s-1.43.21-2.05.64-1.2.92-1.72,1.5l-1.69-1.66c.81-.9,1.68-1.6,2.59-2.11.91-.5,2-.75,3.26-.75,1.16,0,2.18.23,3.04.7.87.47,1.54,1.12,2.02,1.96.48.84.71,1.83.71,2.95s-.32,2.27-.95,3.43c-.63,1.16-1.49,2.37-2.56,3.61-1.08,1.25-2.28,2.57-3.61,3.95.5-.05,1.04-.1,1.6-.14.56-.04,1.08-.07,1.55-.07h4.89v2.57h-12.38Z"/>
        <path class="cls-9" d="M63.16,209.61c-1.28,0-2.39-.38-3.31-1.13-.93-.75-1.64-1.85-2.15-3.3-.5-1.45-.75-3.22-.75-5.32s.25-3.86.75-5.28c.5-1.42,1.22-2.5,2.15-3.22.93-.73,2.03-1.09,3.31-1.09s2.36.36,3.28,1.09c.92.73,1.63,1.8,2.13,3.22.5,1.42.75,3.18.75,5.28s-.25,3.87-.75,5.32c-.5,1.45-1.21,2.55-2.13,3.3-.92.75-2.01,1.13-3.28,1.13ZM63.16,207.21c.64,0,1.21-.24,1.72-.73.5-.49.89-1.27,1.17-2.34.28-1.08.42-2.5.42-4.29s-.14-3.2-.42-4.25-.67-1.81-1.17-2.28c-.5-.47-1.07-.7-1.72-.7s-1.21.23-1.72.7c-.5.47-.9,1.23-1.18,2.28s-.43,2.47-.43,4.25.14,3.21.43,4.29c.29,1.07.68,1.85,1.18,2.34.5.49,1.07.73,1.72.73Z"/>
        <path class="cls-9" d="M74.42,209.61c-.56,0-1.03-.2-1.42-.61s-.58-.91-.58-1.52.19-1.13.58-1.52.86-.58,1.42-.58,1.05.2,1.44.58.58.9.58,1.52-.19,1.11-.58,1.52-.87.61-1.44.61Z"/>
        <path class="cls-9" d="M87.11,209.24v-11.96c0-.52.02-1.15.05-1.88.03-.74.06-1.36.08-1.86h-.1c-.24.45-.49.91-.74,1.37-.25.46-.52.93-.79,1.42l-3.74,5.67h10.48v2.34h-13.52v-2.03l7.62-11.67h3.48v18.62h-2.81Z"/>
        <path class="cls-9" d="M98.52,201.83c-.88,0-1.66-.24-2.34-.71-.68-.48-1.2-1.17-1.57-2.08-.37-.91-.56-2.01-.56-3.29s.19-2.37.56-3.26c.37-.89.9-1.57,1.57-2.04.68-.47,1.46-.7,2.34-.7s1.69.23,2.37.7c.68.47,1.2,1.15,1.57,2.04.37.89.56,1.98.56,3.26s-.19,2.38-.56,3.29c-.37.91-.9,1.6-1.57,2.08-.68.48-1.46.71-2.37.71ZM98.52,200.09c.68,0,1.23-.35,1.65-1.07.42-.71.64-1.8.64-3.28s-.21-2.55-.64-3.22c-.42-.68-.98-1.01-1.65-1.01s-1.21.34-1.64,1.01c-.43.68-.65,1.75-.65,3.22s.22,2.57.65,3.28c.43.71.98,1.07,1.64,1.07ZM99.12,209.61l10.48-19.86h1.9l-10.48,19.86h-1.9ZM112.12,209.61c-.88,0-1.66-.24-2.34-.73-.68-.48-1.2-1.18-1.57-2.08-.37-.9-.56-1.99-.56-3.28s.19-2.39.56-3.28.9-1.56,1.57-2.04,1.46-.71,2.34-.71,1.66.24,2.34.71c.68.48,1.2,1.16,1.57,2.04.37.88.56,1.98.56,3.28s-.19,2.38-.56,3.28c-.37.9-.9,1.6-1.57,2.08-.68.49-1.46.73-2.34.73ZM112.12,207.81c.66,0,1.21-.35,1.65-1.04.44-.69.66-1.78.66-3.25s-.22-2.57-.66-3.25c-.44-.68-.99-1.01-1.65-1.01s-1.2.34-1.64,1.01c-.43.68-.65,1.76-.65,3.25s.22,2.56.65,3.25c.43.69.98,1.04,1.64,1.04Z"/>
      </g>
      <g>
        <rect class="cls-8" x="122.13" y="100.99" width="86.76" height="24.71"/>
        <path class="cls-2" d="M208.39,101.49v23.71h-85.76v-23.71h85.76M209.39,100.49h-87.76v25.71h87.76v-25.71h0Z"/>
      </g>
      <g>
        <path class="cls-9" d="M141.05,122.89c-1.2,0-2.26-.22-3.2-.66-.94-.44-1.68-1.05-2.22-1.82s-.82-1.65-.82-2.64c0-.8.16-1.5.49-2.12.33-.62.75-1.16,1.27-1.62.52-.47,1.07-.85,1.64-1.14v-.1c-.69-.5-1.29-1.11-1.79-1.82-.5-.71-.75-1.55-.75-2.52s.24-1.85.71-2.59c.48-.74,1.13-1.3,1.95-1.7.82-.4,1.76-.6,2.82-.6s2.06.21,2.86.64c.8.43,1.42,1.01,1.86,1.76.44.74.66,1.61.66,2.6,0,.64-.13,1.24-.39,1.79-.26.56-.58,1.05-.96,1.48s-.77.8-1.17,1.09v.11c.57.33,1.1.71,1.6,1.14.49.43.89.95,1.18,1.55.29.6.44,1.31.44,2.15,0,.94-.26,1.79-.77,2.55-.51.76-1.23,1.37-2.16,1.82-.93.45-2.02.68-3.26.68ZM141.13,120.71c.64,0,1.21-.12,1.7-.36.49-.24.88-.59,1.16-1.03.28-.44.42-.97.42-1.57,0-.54-.12-1-.36-1.39s-.58-.73-1.01-1.03c-.43-.29-.93-.57-1.5-.82-.56-.25-1.17-.5-1.83-.74-.66.43-1.2.96-1.61,1.59-.42.62-.62,1.33-.62,2.11,0,.64.16,1.21.48,1.69.32.49.76.87,1.31,1.14.55.28,1.18.42,1.87.42ZM142.32,112.15c.55-.52.98-1.07,1.26-1.64.29-.57.43-1.17.43-1.79,0-.57-.11-1.08-.34-1.53-.23-.45-.56-.81-1-1.07s-.98-.39-1.6-.39c-.78,0-1.43.24-1.95.71s-.78,1.14-.78,1.99c0,.68.19,1.23.56,1.68.37.44.86.82,1.46,1.14s1.25.62,1.96.9Z"/>
        <path class="cls-9" d="M152.31,122.89c-.56,0-1.03-.2-1.42-.61-.39-.41-.58-.91-.58-1.52s.19-1.13.58-1.52c.39-.39.86-.59,1.42-.59s1.05.2,1.44.59c.39.39.58.9.58,1.52s-.19,1.11-.58,1.52c-.39.41-.87.61-1.44.61Z"/>
        <path class="cls-9" d="M165,122.53v-11.96c0-.52.02-1.15.05-1.88.03-.74.06-1.36.08-1.86h-.1c-.24.45-.49.91-.74,1.37-.25.46-.52.93-.79,1.42l-3.74,5.67h10.48v2.34h-13.52v-2.03l7.62-11.67h3.48v18.62h-2.81Z"/>
        <path class="cls-9" d="M176.41,115.12c-.88,0-1.66-.24-2.34-.71-.68-.48-1.2-1.17-1.57-2.08-.37-.91-.56-2.01-.56-3.29s.19-2.37.56-3.26c.37-.89.9-1.57,1.57-2.04.68-.47,1.46-.7,2.34-.7s1.69.23,2.37.7c.68.47,1.2,1.15,1.57,2.04.37.89.56,1.98.56,3.26s-.19,2.38-.56,3.29c-.37.91-.9,1.6-1.57,2.08-.68.48-1.46.71-2.37.71ZM176.41,113.38c.68,0,1.23-.36,1.65-1.07.42-.71.64-1.8.64-3.28s-.21-2.55-.64-3.22c-.42-.68-.98-1.01-1.65-1.01s-1.21.34-1.64,1.01c-.43.68-.65,1.75-.65,3.22s.22,2.56.65,3.28c.43.71.98,1.07,1.64,1.07ZM177.01,122.89l10.48-19.86h1.9l-10.48,19.86h-1.9ZM190.01,122.89c-.88,0-1.66-.24-2.34-.73-.68-.48-1.2-1.18-1.57-2.08-.37-.9-.56-1.99-.56-3.28s.19-2.39.56-3.28c.37-.88.9-1.56,1.57-2.04s1.46-.71,2.34-.71,1.66.24,2.34.71c.68.48,1.2,1.16,1.57,2.04.37.88.56,1.98.56,3.28s-.19,2.38-.56,3.28c-.37.9-.9,1.6-1.57,2.08-.68.49-1.46.73-2.34.73ZM190.01,121.1c.66,0,1.21-.35,1.65-1.04.44-.69.66-1.78.66-3.25s-.22-2.57-.66-3.25c-.44-.68-.99-1.01-1.65-1.01s-1.2.34-1.64,1.01c-.43.68-.65,1.76-.65,3.25s.22,2.56.65,3.25c.43.69.98,1.04,1.64,1.04Z"/>
      </g>
      <g>
        <rect class="cls-8" x="152.73" y="41.24" width="86.76" height="24.71"/>
        <path class="cls-2" d="M238.99,41.74v23.71h-85.76v-23.71h85.76M239.99,40.74h-87.76v25.71h87.76v-25.71h0Z"/>
      </g>
      <g>
        <path class="cls-9" d="M165.36,62.77v-1.74c1.79-1.75,3.31-3.31,4.59-4.67,1.27-1.36,2.25-2.59,2.92-3.69s1.01-2.14,1.01-3.11c0-.69-.12-1.29-.35-1.79s-.59-.89-1.07-1.17-1.08-.42-1.81-.42-1.43.21-2.05.64-1.2.92-1.72,1.5l-1.69-1.66c.81-.9,1.68-1.6,2.59-2.11s2-.75,3.26-.75c1.16,0,2.18.23,3.04.7.87.47,1.54,1.12,2.02,1.96.48.84.71,1.83.71,2.95s-.32,2.27-.95,3.43-1.49,2.37-2.56,3.61c-1.08,1.25-2.28,2.57-3.61,3.95.5-.05,1.04-.1,1.6-.14s1.08-.07,1.55-.07h4.89v2.57h-12.38Z"/>
        <path class="cls-9" d="M182.91,63.14c-.56,0-1.03-.2-1.42-.61-.39-.41-.58-.91-.58-1.52s.19-1.13.58-1.52c.39-.39.86-.58,1.42-.58s1.05.2,1.44.58c.39.39.58.9.58,1.52s-.19,1.11-.58,1.52c-.39.41-.87.61-1.44.61Z"/>
        <path class="cls-9" d="M194.76,63.14c-.92,0-1.78-.19-2.59-.56-.81-.37-1.51-.93-2.11-1.68-.6-.75-1.07-1.69-1.42-2.82-.35-1.13-.52-2.47-.52-4.02,0-1.84.19-3.4.58-4.69.39-1.29.92-2.35,1.6-3.18s1.45-1.44,2.31-1.82c.87-.38,1.78-.57,2.73-.57,1.07,0,2.01.2,2.79.6s1.45.88,1.99,1.46l-1.64,1.82c-.35-.42-.79-.75-1.33-1.01-.54-.26-1.1-.39-1.69-.39-.83,0-1.59.24-2.29.73-.69.49-1.25,1.3-1.66,2.43-.42,1.13-.62,2.68-.62,4.64,0,1.54.16,2.81.47,3.81.31,1,.75,1.74,1.33,2.22.57.49,1.24.73,2,.73.55,0,1.06-.15,1.51-.46.45-.3.81-.74,1.08-1.3.27-.56.4-1.24.4-2.01s-.13-1.41-.38-1.94c-.25-.53-.61-.93-1.08-1.21-.47-.28-1.04-.42-1.72-.42-.55,0-1.16.18-1.81.55-.65.36-1.26,1-1.83,1.9l-.13-2.18c.38-.5.81-.94,1.3-1.3.49-.36.99-.65,1.52-.84.53-.2,1.03-.3,1.5-.3,1.08,0,2.02.21,2.83.64s1.45,1.06,1.9,1.91c.45.85.68,1.92.68,3.2s-.26,2.3-.79,3.2c-.53.9-1.22,1.61-2.08,2.12-.86.51-1.81.77-2.85.77Z"/>
        <path class="cls-9" d="M207.01,55.36c-.88,0-1.66-.24-2.34-.71-.68-.48-1.2-1.17-1.57-2.08-.37-.91-.56-2.01-.56-3.29s.19-2.37.56-3.26c.37-.89.9-1.57,1.57-2.04.68-.47,1.46-.7,2.34-.7s1.69.23,2.37.7c.68.47,1.2,1.15,1.57,2.04s.56,1.98.56,3.26-.19,2.38-.56,3.29-.9,1.6-1.57,2.08c-.68.48-1.46.71-2.37.71ZM207.01,53.62c.68,0,1.23-.35,1.65-1.07s.64-1.8.64-3.28-.21-2.55-.64-3.22-.97-1.01-1.65-1.01-1.21.34-1.64,1.01-.65,1.75-.65,3.22.22,2.57.65,3.28.98,1.07,1.64,1.07ZM207.61,63.14l10.48-19.86h1.9l-10.48,19.86h-1.9ZM220.61,63.14c-.88,0-1.66-.24-2.34-.73-.68-.48-1.2-1.18-1.57-2.08-.37-.9-.56-1.99-.56-3.28s.19-2.39.56-3.28c.37-.88.9-1.56,1.57-2.04s1.46-.71,2.34-.71,1.66.24,2.34.71,1.2,1.16,1.57,2.04c.37.88.56,1.98.56,3.28s-.19,2.38-.56,3.28c-.37.9-.9,1.6-1.57,2.08-.68.49-1.46.73-2.34.73ZM220.61,61.34c.66,0,1.21-.35,1.65-1.04.44-.69.66-1.78.66-3.25s-.22-2.57-.66-3.25c-.44-.68-.99-1.01-1.65-1.01s-1.21.34-1.64,1.01c-.43.68-.65,1.76-.65,3.25s.22,2.56.65,3.25c.43.69.98,1.04,1.64,1.04Z"/>
      </g>
      <g>
        <path class="cls-8" d="M333.92,210.86c-1.18,0-2.2-.25-3.04-.74s-1.53-1.23-2.08-2.21l1.94-1.42c.38.67.82,1.16,1.3,1.46.48.3,1,.46,1.56.46.9,0,1.56-.27,1.99-.8.43-.54.65-1.45.65-2.75v-12.02h2.81v12.26c0,1.05-.18,2.02-.53,2.89-.35.87-.9,1.57-1.66,2.09-.75.52-1.74.78-2.95.78Z"/>
        <path class="cls-8" d="M343.05,210.53v-17.69h5.78c1.22,0,2.3.16,3.26.49s1.72.86,2.28,1.61c.56.74.84,1.76.84,3.04s-.28,2.25-.84,3.05c-.56.8-1.32,1.4-2.28,1.79-.96.39-2.05.59-3.26.59h-3v7.13h-2.78ZM345.83,201.17h2.66c1.28,0,2.26-.27,2.94-.8.68-.54,1.02-1.33,1.02-2.39s-.34-1.82-1.02-2.24c-.68-.42-1.66-.64-2.94-.64h-2.66v6.07ZM352.7,210.53l-4.39-7.87,2.06-1.61,5.47,9.48h-3.14Z"/>
      </g>
      <g>
        <path class="cls-8" d="M66.04,275.54c-1.18,0-2.2-.25-3.04-.74-.84-.5-1.53-1.23-2.08-2.21l1.94-1.42c.38.67.82,1.16,1.3,1.46s1,.46,1.56.46c.9,0,1.56-.27,1.99-.8.43-.54.65-1.45.65-2.75v-12.02h2.81v12.26c0,1.06-.18,2.02-.53,2.89-.35.87-.9,1.57-1.66,2.09-.75.52-1.74.78-2.95.78Z"/>
        <path class="cls-8" d="M75.16,275.2v-17.69h5.78c1.22,0,2.3.16,3.26.49s1.72.86,2.28,1.61.84,1.76.84,3.04-.28,2.25-.84,3.05c-.56.8-1.32,1.4-2.28,1.79-.96.39-2.05.59-3.26.59h-3v7.13h-2.78ZM77.95,265.84h2.66c1.28,0,2.26-.27,2.94-.8.68-.54,1.02-1.33,1.02-2.39s-.34-1.82-1.02-2.24-1.66-.64-2.94-.64h-2.66v6.07ZM84.81,275.2l-4.39-7.87,2.06-1.61,5.47,9.48h-3.14Z"/>
        <path class="cls-8" d="M98.08,275.54c-1.57,0-2.97-.36-4.21-1.08-1.24-.72-2.22-1.76-2.93-3.12-.71-1.36-1.07-3.01-1.07-4.94,0-1.44.21-2.73.64-3.86.42-1.14,1.01-2.1,1.75-2.89s1.62-1.4,2.62-1.81c1-.42,2.09-.62,3.28-.62,1.25,0,2.3.23,3.16.7s1.55.98,2.08,1.54l-1.49,1.78c-.45-.43-.96-.8-1.54-1.12-.58-.31-1.29-.47-2.14-.47-1.09,0-2.04.27-2.87.82-.82.54-1.46,1.31-1.92,2.3-.46.99-.68,2.18-.68,3.58s.22,2.6.65,3.61,1.06,1.8,1.9,2.34c.83.54,1.86.82,3.07.82.54,0,1.06-.08,1.55-.23.49-.15.88-.36,1.19-.64v-4.13h-3.48v-2.3h6.02v7.66c-.59.59-1.37,1.09-2.33,1.49s-2.04.6-3.24.6Z"/>
      </g>
      <g>
        <path class="cls-8" d="M47.11,162.29h20.45v5.52h-2.33v-3.38h-15.89v3.38h-2.23v-5.52ZM50.85,166.42h2.23v16.15h-2.23v-16.15ZM51.96,174.8h13.32v7.66h-2.26v-5.64h-11.06v-2.02ZM52.01,166.42h11.86v6.41h-11.86v-1.94h9.6v-2.52h-9.6v-1.94ZM52.01,179.55h12.34v1.99h-12.34v-1.99ZM56.09,160.37h2.42v3.86h-2.42v-3.86Z"/>
        <path class="cls-8" d="M74.96,160.95l2.57.72c-.53,1.28-1.15,2.53-1.86,3.74-.71,1.22-1.47,2.35-2.28,3.4-.81,1.05-1.64,1.96-2.48,2.72-.14-.16-.35-.34-.62-.55-.27-.21-.55-.42-.83-.62-.28-.21-.52-.37-.73-.48.86-.7,1.68-1.53,2.46-2.47.78-.94,1.49-1.97,2.15-3.07s1.2-2.23,1.63-3.38ZM69.73,179.26c1.12-.05,2.38-.1,3.77-.14,1.39-.05,2.87-.11,4.43-.18s3.16-.15,4.79-.23c1.63-.08,3.25-.15,4.85-.22l-.07,2.18c-2.06.13-4.15.25-6.26.37-2.11.12-4.13.23-6.05.34s-3.63.2-5.14.28l-.31-2.4ZM77.43,169.04l2.69.67c-.37.93-.78,1.88-1.22,2.86-.45.98-.91,1.95-1.38,2.92-.47.97-.95,1.89-1.43,2.76s-.94,1.67-1.37,2.39l-2.11-.67c.43-.74.88-1.56,1.33-2.46.46-.9.9-1.84,1.33-2.82.43-.98.84-1.95,1.21-2.9.38-.96.69-1.87.95-2.74ZM84.03,160.97c.37.75.82,1.52,1.34,2.32.53.79,1.09,1.58,1.69,2.35.6.78,1.21,1.5,1.82,2.17s1.2,1.26,1.74,1.78c-.19.14-.41.33-.66.56-.25.23-.48.47-.7.72-.22.25-.4.48-.56.68-.56-.59-1.15-1.27-1.76-2.04-.62-.77-1.24-1.58-1.86-2.44s-1.22-1.72-1.79-2.6c-.57-.88-1.08-1.74-1.55-2.59l2.28-.91ZM82.06,174.32l2.18-1.01c.72.85,1.44,1.76,2.17,2.75.73.98,1.4,1.94,2.03,2.88.62.94,1.14,1.78,1.54,2.53l-2.33,1.25c-.37-.75-.86-1.62-1.46-2.59-.61-.98-1.27-1.97-1.99-2.99-.72-1.02-1.43-1.96-2.14-2.82Z"/>
        <path class="cls-8" d="M94.06,163.23h2.28v6.34c0,.93-.03,1.95-.1,3.07-.06,1.12-.18,2.27-.34,3.44s-.4,2.32-.71,3.42-.72,2.11-1.24,3.02c-.13-.13-.32-.28-.56-.44s-.5-.33-.74-.48c-.25-.15-.47-.26-.66-.32.48-.85.86-1.77,1.14-2.77.28-1,.49-2.03.62-3.08s.22-2.08.25-3.08c.03-1,.05-1.93.05-2.8v-6.31ZM95.28,163.23h19.06v2.18h-19.06v-2.18ZM97.63,168.75h16.51v2.14h-16.51v-2.14ZM105.07,169.56h2.33v10.42c0,.66-.09,1.16-.28,1.51-.18.35-.52.61-1.02.77-.5.18-1.13.28-1.9.32s-1.72.06-2.86.06c-.05-.34-.15-.72-.31-1.14-.16-.42-.32-.79-.48-1.09.56.02,1.11.03,1.64.04.54,0,1,0,1.4,0s.68-.01.84-.01c.24,0,.4-.04.49-.11.09-.07.13-.2.13-.4v-10.37ZM102.91,160.33h2.35v4.08h-2.35v-4.08Z"/>
      </g>
      <path class="cls-8" d="M153.5,94.25c.98-.11,2.12-.25,3.43-.41s2.69-.34,4.14-.53c1.45-.19,2.89-.38,4.33-.58l.07,2.23c-1.34.19-2.7.39-4.08.59-1.38.2-2.7.39-3.96.56-1.26.18-2.42.34-3.46.48l-.48-2.35ZM156.02,75.87h2.33v19.15h-2.33v-19.15ZM157.17,75.87h16.08v7.51h-16.08v-2.11h13.78v-3.29h-13.78v-2.11ZM157.19,86.28h17.81v2.11h-17.81v-2.11ZM164.2,82.92h2.35c.08,1.6.31,3.11.68,4.54.38,1.42.85,2.68,1.42,3.78s1.18,1.95,1.85,2.57c.66.62,1.32.92,1.98.9.34,0,.58-.27.73-.82.15-.54.26-1.45.32-2.71.26.24.57.46.95.66s.72.35,1.04.44c-.11,1.25-.3,2.21-.55,2.89-.26.68-.59,1.15-1.01,1.4s-.95.38-1.61.38c-1.09,0-2.1-.37-3.05-1.12-.94-.74-1.78-1.77-2.51-3.07-.73-1.3-1.32-2.8-1.76-4.49-.45-1.69-.73-3.47-.84-5.36Z"/>
      <g>
        <path class="cls-8" d="M173.07,35.53c-.93,0-1.75-.11-2.46-.34-.71-.22-1.34-.52-1.88-.9s-1.02-.78-1.42-1.21l1.34-1.78c.53.51,1.13.96,1.8,1.34s1.46.58,2.38.58c.67,0,1.26-.11,1.75-.34.5-.22.88-.54,1.16-.96.28-.42.42-.91.42-1.49,0-.64-.16-1.19-.47-1.64s-.85-.81-1.61-1.07c-.76-.26-1.8-.38-3.13-.38v-2.06c1.17,0,2.08-.13,2.75-.4s1.14-.62,1.44-1.06c.3-.44.44-.93.44-1.48,0-.77-.24-1.37-.72-1.81-.48-.44-1.14-.66-1.99-.66-.67,0-1.3.16-1.88.47s-1.13.72-1.64,1.21l-1.44-1.73c.7-.62,1.47-1.14,2.3-1.55.83-.41,1.75-.61,2.76-.61s1.99.18,2.81.53c.82.35,1.46.86,1.92,1.52.46.66.7,1.47.7,2.41,0,.99-.28,1.82-.83,2.48-.55.66-1.29,1.17-2.22,1.52v.12c.67.16,1.28.43,1.84.82.55.38.99.87,1.31,1.45.32.58.48,1.27.48,2.05,0,1.04-.27,1.93-.8,2.66-.54.74-1.25,1.3-2.15,1.69s-1.88.59-2.95.59Z"/>
        <path class="cls-8" d="M207.1,21.42c-.08.14-.19.32-.32.53-.14.21-.25.4-.35.58-.27.5-.6,1.05-.97,1.67-.38.62-.78,1.24-1.21,1.88-.43.64-.88,1.26-1.36,1.85-.47.59-.94,1.12-1.4,1.58l-2.09-1.22c.58-.53,1.13-1.12,1.67-1.78.54-.66,1.02-1.3,1.44-1.94.42-.64.75-1.18.97-1.63-.14.03-.49.1-1.04.22-.55.11-1.24.25-2.08.42-.83.17-1.74.35-2.74.55-.99.2-2,.4-3.02.61s-2.01.4-2.95.59c-.94.18-1.79.36-2.54.52s-1.34.29-1.75.38l-.46-2.52c.45-.05,1.05-.13,1.81-.25s1.62-.27,2.57-.44c.95-.18,1.95-.36,2.99-.56s2.06-.4,3.07-.6c1.01-.2,1.96-.39,2.84-.56.89-.18,1.65-.33,2.29-.47.64-.14,1.1-.24,1.37-.3.3-.06.58-.14.83-.22s.46-.18.64-.29l1.8,1.42ZM192.65,32.05v-13.13c0-.26,0-.53-.01-.82,0-.29-.02-.58-.05-.86s-.06-.54-.11-.77h2.86c-.06.35-.11.75-.14,1.2-.03.45-.05.86-.05,1.25v12.48c0,.53.08.95.24,1.26.16.31.48.53.96.66.48.13,1.18.19,2.09.19s1.77-.03,2.62-.08c.85-.06,1.68-.14,2.5-.25s1.62-.25,2.42-.41l-.1,2.59c-.69.1-1.43.18-2.23.26-.8.08-1.64.14-2.53.18s-1.8.06-2.72.06c-1.23,0-2.22-.08-2.98-.24-.75-.16-1.33-.4-1.73-.71-.4-.31-.67-.71-.82-1.19-.14-.48-.22-1.04-.22-1.68Z"/>
        <path class="cls-8" d="M219.6,16.52c-.24.35-.48.74-.71,1.15s-.41.74-.54.98c-.5.91-1.12,1.88-1.88,2.9-.76,1.02-1.64,2.03-2.63,3.01-.99.98-2.1,1.89-3.34,2.72l-2.11-1.58c1.04-.62,1.97-1.29,2.78-1.99s1.52-1.41,2.12-2.12c.6-.71,1.12-1.4,1.55-2.05s.79-1.25,1.08-1.78c.14-.24.3-.57.48-1,.18-.42.31-.81.41-1.16l2.78.91ZM227.54,20.22c-.13.19-.25.42-.36.7-.11.27-.22.53-.31.77-.21.77-.5,1.62-.89,2.54-.38.93-.86,1.88-1.42,2.84-.56.97-1.2,1.89-1.92,2.77-1.1,1.36-2.42,2.59-3.95,3.7-1.53,1.1-3.41,2.09-5.65,2.95l-2.23-1.99c1.55-.46,2.92-1,4.09-1.62,1.18-.62,2.22-1.29,3.12-2.03.9-.74,1.71-1.52,2.41-2.35.61-.69,1.16-1.45,1.64-2.29.49-.84.91-1.68,1.27-2.52.36-.84.6-1.6.73-2.27h-8.54l.91-2.16h7.32c.34,0,.66-.02.98-.06.32-.04.59-.1.82-.18l1.97,1.2Z"/>
      </g>
    </g>
  </g>
</svg>