<?xml version="1.0" encoding="UTF-8"?>
<svg id="_レイヤー_2" data-name="レイヤー 2" xmlns="http://www.w3.org/2000/svg" viewBox="0 0 381.53 419.41">
  <defs>
    <style>
      .cls-1 {
        fill: #202020;
      }

      .cls-1, .cls-2, .cls-3, .cls-4, .cls-5, .cls-6, .cls-7, .cls-8, .cls-9, .cls-10, .cls-11 {
        stroke-width: 0px;
      }

      .cls-2 {
        fill: #606060;
      }

      .cls-3 {
        fill: #000;
      }

      .cls-4 {
        fill: rgba(41, 207, 228, .55);
      }

      .cls-5 {
        fill: #9f9f9f;
      }

      .cls-6 {
        fill: #dfdfdf;
      }

      .cls-7 {
        fill: #bfbfbf;
      }

      .cls-12 {
        opacity: .4;
      }

      .cls-13 {
        fill: none;
        stroke: #000;
        stroke-miterlimit: 10;
        stroke-width: .65px;
      }

      .cls-8 {
        fill: #404040;
      }

      .cls-9 {
        fill: gray;
      }

      .cls-10 {
        fill: #606060;
      }

      .cls-11 {
        fill: #fff;
      }
    </style>
  </defs>
  <g id="_レイヤー_1-2" data-name="レイヤー 1">
    <g>
      <g>
        <path class="cls-10" d="M2.3,76.17h1.46v5.61c0,.6-.03,1.25-.09,1.94-.06.69-.16,1.4-.3,2.11-.15.71-.36,1.39-.65,2.04-.29.65-.67,1.23-1.14,1.75-.07-.1-.18-.22-.32-.34-.14-.12-.29-.24-.44-.36-.15-.11-.28-.2-.4-.26.44-.49.78-1.01,1.03-1.58.25-.56.43-1.15.55-1.76.12-.61.2-1.21.23-1.82.04-.61.05-1.18.05-1.73v-5.6ZM3.08,83.46h9.95v1.4H3.08v-1.4ZM3.14,76.17h9.84v1.4H3.14v-1.4ZM3.14,79.78h9.84v1.37H3.14v-1.37ZM7.15,76.71h1.48v12.66h-1.48v-12.66ZM12.43,76.17h1.46v11.51c0,.42-.06.75-.17.99-.11.23-.31.41-.59.54-.28.11-.66.18-1.14.21-.48.03-1.08.03-1.82.02-.02-.19-.08-.42-.18-.7-.1-.28-.2-.52-.3-.72.33.02.66.03.98.04.32,0,.6,0,.85,0,.24,0,.41,0,.51,0,.16,0,.26-.03.32-.09.06-.06.09-.16.09-.3v-11.49Z"/>
        <path class="cls-10" d="M15.59,85.7c.41-.16.9-.34,1.45-.57.55-.22,1.15-.46,1.77-.72.63-.26,1.25-.52,1.87-.78l.33,1.31c-.83.39-1.67.79-2.52,1.18-.85.39-1.63.75-2.33,1.06l-.58-1.48ZM15.74,78.78h5.04v1.38h-5.04v-1.38ZM17.67,75.28h1.38v10.2h-1.38v-10.2ZM20.15,81.44l8.24-3.48.54,1.24-8.23,3.55-.56-1.31ZM21.76,76.57h1.42v10.26c0,.29.03.51.08.66.05.15.16.25.33.3s.42.08.75.08h3.44c.29,0,.51-.06.66-.17.15-.11.26-.32.33-.62.07-.3.12-.74.16-1.31.17.11.38.22.63.33.25.1.48.18.68.22-.06.73-.17,1.3-.33,1.71-.16.41-.39.71-.71.89-.32.18-.76.27-1.33.27h-3.62c-.63,0-1.13-.07-1.5-.2-.37-.13-.62-.38-.77-.72-.15-.35-.22-.83-.22-1.45v-10.25ZM24.92,75.1h1.38v10.89h-1.38v-10.89ZM28.11,78.13h-.12l.3-.23.26-.2,1.04.39-.06.25c0,.74,0,1.42,0,2.04,0,.63-.01,1.19-.02,1.68-.01.49-.02.91-.04,1.24s-.04.58-.07.74c-.03.33-.12.59-.26.76-.14.18-.33.3-.57.37-.21.08-.46.13-.75.15-.29.02-.55.02-.78.02-.02-.2-.06-.42-.12-.66-.06-.24-.13-.44-.2-.6.16.01.33.02.51.02h.39c.11,0,.2-.02.27-.07.07-.05.12-.15.15-.3.02-.09.04-.29.05-.58.01-.29.02-.67.02-1.14,0-.47,0-1.03,0-1.69v-2.19Z"/>
        <path class="cls-10" d="M31.06,80.49l.82-1.09c.3.11.61.25.93.4.32.16.62.32.91.5.29.18.52.35.69.51l-.84,1.18c-.18-.16-.4-.33-.68-.51-.28-.19-.58-.37-.9-.54-.32-.18-.63-.33-.93-.45ZM31.35,88.58c.22-.4.45-.88.69-1.43.24-.55.49-1.13.74-1.75.25-.62.48-1.22.68-1.81l1.18.78c-.19.54-.39,1.1-.61,1.68-.22.58-.44,1.15-.68,1.71-.23.56-.46,1.09-.68,1.59l-1.34-.76ZM31.71,76.31l.82-1.06c.29.12.59.27.91.44.32.17.61.35.89.54.28.19.51.37.68.54l-.89,1.18c-.16-.18-.37-.37-.65-.57-.27-.2-.57-.4-.88-.59s-.61-.36-.9-.49ZM35.91,85.97l1.35.37c-.26.59-.59,1.18-.98,1.77-.39.59-.79,1.08-1.2,1.48-.08-.08-.2-.17-.34-.27-.15-.1-.29-.2-.44-.3-.15-.1-.27-.17-.39-.23.4-.35.78-.78,1.14-1.29.35-.51.64-1.02.86-1.54ZM35.36,75.75h4.62v9.97h-4.62v-9.97ZM36.62,77.04v1.65h2.05v-1.65h-2.05ZM36.62,79.89v1.68h2.05v-1.68h-2.05ZM36.62,82.76v1.68h2.05v-1.68h-2.05ZM38.07,86.5l1.1-.62c.21.25.42.52.65.81.22.29.43.58.62.86.19.28.34.53.46.75l-1.17.71c-.1-.23-.25-.49-.44-.78-.19-.29-.39-.59-.6-.89-.21-.3-.42-.58-.63-.84ZM40.99,76.7h1.28v8.96h-1.28v-8.96ZM43.64,75.1h1.34v12.69c0,.42-.05.73-.14.95-.09.22-.26.39-.51.51-.24.11-.56.19-.96.23-.4.04-.92.05-1.56.05-.02-.2-.07-.43-.16-.7-.08-.27-.18-.51-.28-.71.44,0,.83.02,1.19.02.36,0,.6,0,.72,0,.13,0,.23-.02.28-.07.05-.05.08-.13.08-.26v-12.71Z"/>
        <path class="cls-10" d="M46.68,88.05h14.17v1.1h-14.17v-1.1ZM46.72,79.98h14.06v1.07h-14.06v-1.07ZM48.02,86.31h11.49v.98h-11.49v-.98ZM48.4,81.66h10.79v3.93h-10.79v-3.93ZM48.68,75.58h10.08v3.81h-10.08v-3.81ZM49.79,82.5v.73h7.95v-.73h-7.95ZM49.79,84.02v.73h7.95v-.73h-7.95ZM50.1,76.39v.71h7.18v-.71h-7.18ZM50.1,77.87v.73h7.18v-.73h-7.18ZM53.01,81.94h1.43v6.69h-1.43v-6.69Z"/>
        <path class="cls-10" d="M62.01,81.04h8.06v1.34h-8.06v-1.34ZM62.39,76.71h7.48v1.29h-7.48v-1.29ZM62.99,83.6h6.28v5.88h-1.43v-4.6h-3.48v4.67h-1.37v-5.94ZM63.32,78.5l1.23-.26c.17.37.31.79.44,1.24.12.45.21.84.25,1.17l-1.29.3c-.02-.33-.09-.73-.21-1.18-.12-.46-.26-.88-.41-1.26ZM63.51,87.4h4.99v1.29h-4.99v-1.29ZM65.4,75.17h1.43v2.35h-1.43v-2.35ZM67.66,78.16l1.4.31c-.17.45-.33.89-.51,1.34-.17.45-.34.84-.51,1.16l-1.17-.3c.1-.23.2-.49.3-.79.09-.3.18-.6.27-.91.09-.31.16-.58.21-.82ZM70.63,76h4.62v1.38h-3.17v12.15h-1.45v-13.53ZM74.86,76h.28l.23-.05,1.09.67c-.3.75-.63,1.54-.99,2.38-.36.84-.71,1.6-1.05,2.29.49.48.86.93,1.11,1.37.25.44.43.85.53,1.24s.15.77.15,1.13c0,.52-.06.96-.19,1.32-.12.36-.33.64-.62.84-.28.19-.63.31-1.04.37-.19.02-.39.03-.62.03h-.68c-.01-.21-.05-.45-.11-.73-.06-.28-.16-.52-.28-.73.22.02.42.03.6.04.18,0,.34,0,.47,0,.12-.01.24-.03.34-.05.1-.03.2-.06.3-.1.16-.1.26-.25.32-.45.06-.2.09-.44.09-.72,0-.46-.13-.97-.38-1.54-.25-.57-.74-1.18-1.45-1.82.18-.39.35-.82.54-1.28.18-.46.36-.91.54-1.37.18-.46.33-.89.47-1.3.14-.41.26-.76.37-1.05v-.5Z"/>
        <path class="cls-10" d="M78.07,75.78h1.45v13.75h-1.45v-13.75ZM78.77,78.11h4.14v1.07h-4.14v-1.07ZM78.89,75.78h4.91v5.85h-4.91v-1.2h3.53v-3.44h-3.53v-1.21ZM90.31,75.78v1.21h-3.81v3.45h3.81v1.21h-5.21v-5.88h5.21ZM85.94,78.11h4.2v1.07h-4.2v-1.07ZM89.53,75.78h1.48v11.87c0,.46-.06.81-.17,1.05-.11.24-.32.43-.62.55-.3.12-.7.2-1.2.23-.5.03-1.11.04-1.84.04-.02-.13-.06-.29-.12-.47-.06-.18-.12-.37-.19-.56-.07-.19-.15-.35-.22-.47.34.01.68.02,1.02.02.34,0,.64,0,.89,0h.54c.16-.01.26-.04.33-.1.06-.06.09-.16.09-.3v-11.85Z"/>
        <path class="cls-10" d="M.68,103.77v-1.04c1.07-1.05,1.98-1.98,2.74-2.79.76-.81,1.35-1.55,1.75-2.21s.61-1.28.61-1.86c0-.42-.07-.77-.21-1.07s-.35-.53-.64-.7c-.29-.17-.65-.25-1.08-.25s-.86.13-1.23.38-.72.55-1.03.89l-1.01-1c.49-.54,1-.96,1.55-1.26.54-.3,1.19-.45,1.95-.45.69,0,1.3.14,1.82.42.52.28.92.67,1.21,1.17.29.5.43,1.09.43,1.76s-.19,1.36-.57,2.05c-.38.69-.89,1.42-1.53,2.16-.64.75-1.36,1.54-2.16,2.36.3-.03.62-.06.96-.09.34-.03.65-.04.93-.04h2.92v1.54H.68Z"/>
        <path class="cls-10" d="M13.09,103.99c-.6,0-1.13-.07-1.59-.22-.46-.15-.87-.34-1.22-.58-.35-.24-.66-.51-.92-.79l.87-1.15c.34.33.73.62,1.17.87.44.25.95.37,1.54.37.44,0,.81-.07,1.14-.22.32-.14.57-.35.75-.62.18-.27.27-.59.27-.96,0-.42-.1-.77-.3-1.07-.2-.3-.55-.53-1.04-.69-.49-.17-1.17-.25-2.03-.25v-1.34c.76,0,1.35-.09,1.78-.26.43-.17.74-.4.93-.68.19-.28.29-.6.29-.96,0-.5-.16-.89-.47-1.17s-.74-.43-1.29-.43c-.44,0-.84.1-1.22.3-.38.2-.73.46-1.07.79l-.93-1.12c.46-.4.95-.74,1.49-1,.54-.26,1.14-.4,1.79-.4s1.29.11,1.82.34c.53.23.94.56,1.24.99.3.43.45.95.45,1.56,0,.64-.18,1.18-.54,1.61-.36.43-.84.76-1.44.99v.08c.44.1.83.28,1.19.53.36.25.64.56.85.94.21.38.31.82.31,1.33,0,.67-.17,1.25-.52,1.73-.35.48-.81.84-1.39,1.1-.58.25-1.22.38-1.91.38Z"/>
        <path class="cls-10" d="M22.4,103.99c-.72,0-1.35-.13-1.91-.4s-1-.63-1.33-1.09c-.33-.46-.49-.99-.49-1.58,0-.48.1-.9.3-1.27.2-.37.45-.69.76-.97.31-.28.64-.51.98-.68v-.06c-.41-.3-.77-.66-1.07-1.09-.3-.42-.45-.93-.45-1.51s.14-1.11.43-1.55c.29-.44.67-.78,1.17-1.02.49-.24,1.05-.36,1.69-.36.66,0,1.23.13,1.71.38.48.25.85.6,1.11,1.05.26.45.4.96.4,1.55,0,.38-.08.74-.23,1.07-.16.33-.35.63-.58.89-.23.26-.46.48-.7.65v.06c.34.2.66.43.96.68.3.26.53.57.71.93.18.36.26.79.26,1.28,0,.56-.15,1.07-.46,1.52-.31.46-.74.82-1.29,1.09-.55.27-1.21.4-1.95.4ZM22.45,102.69c.38,0,.72-.07,1.02-.22.3-.14.53-.35.69-.61.17-.26.25-.58.25-.94,0-.32-.07-.6-.22-.83-.15-.23-.35-.44-.61-.61-.26-.18-.56-.34-.89-.49-.34-.15-.7-.3-1.1-.44-.39.26-.72.58-.96.95-.25.37-.37.79-.37,1.26,0,.38.1.72.29,1.01.19.29.45.52.79.68.33.17.7.25,1.12.25ZM23.16,97.57c.33-.31.58-.64.75-.98.17-.34.26-.7.26-1.07,0-.34-.07-.65-.2-.92-.13-.27-.33-.48-.6-.64-.26-.16-.58-.23-.96-.23-.47,0-.86.14-1.17.43-.31.29-.47.68-.47,1.19,0,.4.11.74.33,1,.22.26.51.49.87.68.36.19.75.37,1.17.54Z"/>
      </g>
      <g>
        <path class="cls-10" d="M1.51,63.17v-11.46h1.8v11.46h-1.8Z"/>
        <path class="cls-10" d="M10.62,63.39c-.72,0-1.38-.13-2-.4-.62-.26-1.16-.65-1.63-1.16-.47-.51-.83-1.13-1.09-1.86-.26-.73-.39-1.57-.39-2.51s.13-1.77.4-2.5c.27-.74.64-1.36,1.1-1.87.47-.51,1.02-.9,1.65-1.17.63-.27,1.31-.4,2.04-.4s1.33.15,1.88.44c.55.29,1,.63,1.35,1.01l-.96,1.15c-.3-.3-.64-.55-1-.74-.37-.19-.78-.29-1.24-.29-.66,0-1.25.18-1.75.53-.5.35-.9.85-1.18,1.49-.29.64-.43,1.42-.43,2.32s.13,1.68.4,2.34c.27.66.65,1.16,1.15,1.52s1.08.53,1.76.53c.52,0,.98-.11,1.39-.33.41-.22.79-.52,1.13-.89l.98,1.15c-.47.54-.99.95-1.58,1.24-.59.29-1.25.43-2,.43Z"/>
        <path class="cls-10" d="M18.51,63.17v-9.94h-3.34v-1.52h8.54v1.52h-3.36v9.94h-1.84Z"/>
        <path class="cls-10" d="M24.98,58.93h14.23v1.15h-14.23v-1.15ZM25.29,51.18h13.59v1.18h-13.59v-1.18ZM26.37,61.06h10.51v1.09h-10.51v-1.09ZM26.49,57h11.09v5.83h-1.48v-4.81h-9.61v-1.03ZM26.91,53.17h10.42v2.89h-10.42v-2.89ZM28.32,54.14v.95h7.51v-.95h-7.51ZM31.26,50.05h1.49v12.92c0,.39-.06.69-.17.89-.11.2-.31.35-.58.45-.27.09-.62.15-1.04.18-.43.03-.97.04-1.63.04-.03-.18-.1-.38-.19-.61-.1-.23-.2-.42-.3-.59.29.01.58.02.86.02s.53,0,.75,0c.22,0,.37,0,.45,0,.15-.01.24-.04.3-.09.05-.05.08-.15.08-.3v-12.91Z"/>
        <path class="cls-10" d="M46.41,60.13l1.18.54c-.49.53-1.08,1.03-1.77,1.49-.69.47-1.44.88-2.24,1.24-.8.36-1.59.65-2.36.86-.07-.13-.16-.28-.27-.43-.11-.15-.22-.3-.34-.44-.12-.15-.24-.27-.35-.37.78-.17,1.56-.39,2.33-.68.78-.29,1.5-.62,2.18-1,.67-.38,1.22-.78,1.65-1.21ZM40.69,59.61h13.73v1.23h-13.73v-1.23ZM40.75,52.72h13.62v1.23h-13.62v-1.23ZM41.37,55.43h12.43v1.18h-12.43v-1.18ZM41.93,50.59l1.26-.43c.26.34.51.73.75,1.15.24.42.41.8.53,1.12l-1.34.48c-.09-.31-.25-.68-.48-1.12-.23-.44-.47-.83-.72-1.2ZM42.15,57.56h10.9v1.09h-10.9v-1.09ZM43.94,54.01l1.42-.25c.17.24.32.51.47.81.15.3.25.56.31.78l-1.48.28c-.05-.22-.15-.48-.28-.79-.13-.31-.28-.58-.44-.83ZM45.39,50.03h1.38v3.27h-1.38v-3.27ZM46.78,56h1.45v8.48h-1.45v-8.48ZM48.6,60.1c.33.32.73.63,1.19.93.46.3.97.58,1.52.83.55.25,1.12.47,1.72.66.6.19,1.19.34,1.8.45-.1.1-.22.23-.35.39-.13.16-.25.32-.36.48-.11.17-.2.32-.27.45-.61-.17-1.22-.37-1.82-.61-.6-.24-1.18-.53-1.73-.85-.55-.32-1.07-.67-1.56-1.05-.48-.38-.9-.79-1.27-1.22l1.14-.47ZM48.31,50.03h1.4v3.19h-1.4v-3.19ZM49.83,53.5l1.54.37c-.2.36-.39.71-.59,1.05-.2.34-.38.62-.56.86l-1.23-.36c.15-.28.3-.6.46-.96.16-.36.29-.68.38-.96ZM51.9,50.2l1.52.39c-.24.42-.48.83-.74,1.24-.25.42-.48.77-.69,1.07l-1.2-.37c.13-.22.27-.46.4-.74.13-.27.26-.55.39-.83.12-.28.23-.53.31-.76Z"/>
        <path class="cls-10" d="M55.63,55.99h8.06v1.34h-8.06v-1.34ZM56.01,51.67h7.48v1.29h-7.48v-1.29ZM56.61,58.56h6.28v5.88h-1.43v-4.6h-3.48v4.67h-1.37v-5.94ZM56.94,53.46l1.23-.26c.17.37.31.79.44,1.24.12.45.21.84.25,1.17l-1.29.3c-.02-.33-.09-.73-.21-1.18-.12-.46-.26-.88-.41-1.26ZM57.13,62.35h4.99v1.29h-4.99v-1.29ZM59.02,50.13h1.43v2.35h-1.43v-2.35ZM61.28,53.11l1.4.31c-.17.45-.33.89-.51,1.34-.17.45-.34.84-.51,1.16l-1.17-.3c.1-.23.2-.49.3-.79.09-.3.18-.6.27-.91.09-.31.16-.58.21-.82ZM64.25,50.95h4.62v1.38h-3.17v12.15h-1.45v-13.53ZM68.48,50.95h.28l.23-.05,1.09.67c-.3.75-.63,1.54-.99,2.38-.36.84-.71,1.6-1.05,2.29.49.48.86.93,1.11,1.37.25.44.43.85.53,1.24s.15.77.15,1.13c0,.52-.06.96-.19,1.32-.12.36-.33.64-.62.84-.28.19-.63.31-1.04.37-.19.02-.39.03-.62.03h-.68c-.01-.21-.05-.45-.11-.73-.06-.28-.16-.52-.28-.73.22.02.42.03.6.04.18,0,.34,0,.47,0,.12-.01.24-.03.34-.05.1-.03.2-.06.3-.1.16-.1.26-.25.32-.45.06-.2.09-.44.09-.72,0-.46-.13-.97-.38-1.54-.25-.57-.74-1.18-1.45-1.82.18-.39.35-.82.54-1.28.18-.46.36-.91.54-1.37.18-.46.33-.89.47-1.3.14-.41.26-.76.37-1.05v-.5Z"/>
        <path class="cls-10" d="M71.69,50.73h1.45v13.75h-1.45v-13.75ZM72.39,53.07h4.14v1.07h-4.14v-1.07ZM72.51,50.73h4.91v5.85h-4.91v-1.2h3.53v-3.44h-3.53v-1.21ZM83.93,50.73v1.21h-3.81v3.45h3.81v1.21h-5.21v-5.88h5.21ZM79.56,53.07h4.2v1.07h-4.2v-1.07ZM83.15,50.73h1.48v11.87c0,.46-.06.81-.17,1.05-.11.24-.32.43-.62.55-.3.12-.7.2-1.2.23-.5.03-1.11.04-1.84.04-.02-.13-.06-.29-.12-.47-.06-.18-.12-.37-.19-.56-.07-.19-.15-.35-.22-.47.34.01.68.02,1.02.02.34,0,.64,0,.89,0h.54c.16-.01.26-.04.33-.1.06-.06.09-.16.09-.3v-11.85Z"/>
        <path class="cls-10" d="M86.4,63.17v-1.04c1.07-1.05,1.98-1.98,2.74-2.79.76-.81,1.35-1.55,1.75-2.21s.61-1.28.61-1.86c0-.42-.07-.77-.21-1.07s-.35-.53-.64-.7c-.29-.17-.65-.25-1.08-.25s-.86.13-1.23.38-.72.55-1.03.89l-1.01-1c.49-.54,1-.96,1.55-1.26.54-.3,1.19-.45,1.95-.45.69,0,1.3.14,1.82.42.52.28.92.67,1.21,1.17.29.5.43,1.09.43,1.76s-.19,1.36-.57,2.05c-.38.69-.89,1.42-1.53,2.16-.64.75-1.36,1.54-2.16,2.36.3-.03.62-.06.96-.09.34-.03.65-.04.93-.04h2.92v1.54h-7.4Z"/>
        <path class="cls-10" d="M99.08,63.17v-7.15c0-.31.01-.69.03-1.13.02-.44.04-.81.05-1.11h-.06c-.15.27-.29.54-.44.82-.15.28-.31.56-.47.85l-2.24,3.39h6.27v1.4h-8.09v-1.21l4.56-6.98h2.08v11.13h-1.68Z"/>
        <path class="cls-10" d="M107.46,63.39c-.72,0-1.35-.13-1.91-.4s-1-.63-1.33-1.09c-.33-.46-.49-.99-.49-1.58,0-.48.1-.9.3-1.27.2-.37.45-.69.76-.97.31-.28.64-.51.98-.68v-.06c-.41-.3-.77-.66-1.07-1.09-.3-.42-.45-.93-.45-1.51s.14-1.11.43-1.55c.29-.44.67-.78,1.17-1.02.49-.24,1.05-.36,1.69-.36.66,0,1.23.13,1.71.38.48.25.85.6,1.11,1.05.26.45.4.96.4,1.55,0,.38-.08.74-.23,1.07-.16.33-.35.63-.58.89-.23.26-.46.48-.7.65v.06c.34.2.66.43.96.68.3.26.53.57.71.93.18.36.26.79.26,1.28,0,.56-.15,1.07-.46,1.52-.31.46-.74.82-1.29,1.09-.55.27-1.21.4-1.95.4ZM107.51,62.09c.38,0,.72-.07,1.02-.22.3-.14.53-.35.69-.61.17-.26.25-.58.25-.94,0-.32-.07-.6-.22-.83-.15-.23-.35-.44-.61-.61-.26-.18-.56-.34-.89-.49-.34-.15-.7-.3-1.1-.44-.39.26-.72.58-.96.95-.25.37-.37.79-.37,1.26,0,.38.1.72.29,1.01.19.29.45.52.79.68.33.17.7.25,1.12.25ZM108.22,56.97c.33-.31.58-.64.75-.98.17-.34.26-.7.26-1.07,0-.34-.07-.65-.2-.92-.13-.27-.33-.48-.6-.64-.26-.16-.58-.23-.96-.23-.47,0-.86.14-1.17.43-.31.29-.47.68-.47,1.19,0,.4.11.74.33,1,.22.26.51.49.87.68.36.19.75.37,1.17.54Z"/>
      </g>
      <g>
        <path class="cls-10" d="M8.18,26.6l1.62.59c-.58,1.07-1.28,2.11-2.11,3.14-.82,1.03-1.75,1.97-2.77,2.84-1.02.87-2.12,1.61-3.3,2.23-.07-.12-.17-.27-.3-.43-.12-.16-.25-.32-.37-.48-.12-.16-.24-.29-.35-.4.85-.41,1.65-.9,2.41-1.46.76-.56,1.46-1.17,2.12-1.83.66-.66,1.24-1.34,1.76-2.06.51-.71.94-1.43,1.28-2.15ZM1.04,26.08h13.47v1.49H1.04v-1.49ZM6.97,29.99l1.6-1.59v11h-1.6v-9.41ZM8.62,30.9l1.12-.95c.45.3.91.63,1.41.98.49.35.98.72,1.47,1.1.49.38.94.75,1.36,1.11.42.36.77.69,1.05,1l-1.23,1.14c-.26-.31-.59-.65-1-1.02s-.84-.75-1.31-1.14c-.47-.39-.95-.78-1.45-1.16-.49-.38-.97-.73-1.42-1.05Z"/>
        <path class="cls-10" d="M16.01,37.65c.63-.06,1.37-.13,2.2-.19.83-.07,1.72-.14,2.65-.23.93-.09,1.86-.17,2.78-.26l.02,1.12c-.88.1-1.77.21-2.67.3-.9.1-1.75.19-2.57.28-.82.09-1.56.16-2.22.23l-.19-1.24ZM16.04,27.66h7.78v1.1h-7.78v-1.1ZM22.9,25.13l.68,1.1c-.63.13-1.35.25-2.15.36-.8.1-1.63.18-2.49.24-.86.06-1.67.1-2.45.13-.02-.16-.06-.34-.13-.54-.07-.21-.14-.38-.21-.53.58-.03,1.18-.07,1.8-.12.62-.05,1.23-.11,1.83-.17.6-.06,1.17-.13,1.7-.21.53-.08,1.01-.16,1.42-.26ZM16.43,35.11h7.17v1.09h-7.17v-1.09ZM16.48,29.57h7.08v4.74h-7.08v-4.74ZM17.67,30.54v.95h4.63v-.95h-4.63ZM17.67,32.41v.95h4.63v-.95h-4.63ZM19.29,26.39h1.35v11.32h-1.35v-11.32ZM25.47,25.22h1.42c-.01,1.28-.03,2.5-.05,3.67-.03,1.17-.09,2.28-.2,3.32-.11,1.04-.3,2.01-.56,2.92-.26.9-.63,1.72-1.09,2.46-.46.74-1.06,1.38-1.8,1.94-.07-.11-.17-.24-.29-.38-.12-.14-.25-.27-.38-.4-.13-.12-.26-.22-.39-.3.69-.51,1.25-1.1,1.68-1.76.42-.67.75-1.42.99-2.24s.39-1.72.48-2.69c.09-.97.14-2,.16-3.09.02-1.09.03-2.24.03-3.45ZM23.76,28.58h5.51v1.37h-5.51v-1.37ZM28.69,28.58h1.42c0,.19,0,.33,0,.44,0,.1,0,.19,0,.26-.04,1.62-.08,2.99-.12,4.11-.04,1.12-.09,2.04-.15,2.76-.06.72-.13,1.27-.22,1.66-.09.39-.19.68-.32.86-.16.23-.32.39-.51.48-.18.09-.39.16-.63.19-.23.04-.51.06-.86.06s-.69-.01-1.06-.03c-.02-.2-.07-.43-.15-.7s-.17-.5-.29-.7c.36.03.69.05,1,.05.3,0,.53,0,.68,0,.12,0,.23-.01.31-.05.08-.03.16-.1.23-.2.09-.11.17-.35.24-.72.07-.36.12-.89.17-1.58.05-.69.09-1.57.14-2.65.05-1.08.09-2.39.12-3.93v-.33Z"/>
        <path class="cls-10" d="M32.43,29.51h1.42v2.49c0,.53-.02,1.11-.06,1.75-.04.64-.12,1.29-.24,1.96-.12.67-.29,1.32-.51,1.96-.22.64-.51,1.22-.86,1.73-.07-.08-.18-.19-.33-.31-.15-.12-.29-.24-.44-.36-.15-.11-.27-.2-.37-.25.31-.49.56-1.01.75-1.57.19-.56.33-1.13.43-1.71.09-.58.15-1.15.18-1.7.03-.55.04-1.06.04-1.52v-2.47ZM32.26,26.28h12.35v1.28h-12.35v-1.28ZM33.24,29.51h12.16v1.29h-12.16v-1.29ZM36.02,31.08l1.32.31c-.25.68-.56,1.34-.94,1.97-.38.63-.78,1.16-1.21,1.61-.08-.07-.19-.16-.33-.25-.14-.09-.29-.18-.44-.27-.15-.09-.28-.16-.4-.21.42-.38.81-.86,1.17-1.42.35-.57.63-1.14.82-1.73ZM34.24,37.88h11.07v1.24h-11.07v-1.24ZM34.67,27.71l1.32-.36c.2.31.38.66.54,1.03.16.38.27.7.32.97l-1.43.39c-.04-.27-.13-.6-.27-.98s-.3-.74-.47-1.06ZM35.53,35.02h8.46v1.15h-8.46v-1.15ZM35.81,32.42h8.6v1.15h-8.6v-1.15ZM37.66,24.99h1.48v2.05h-1.48v-2.05ZM38.95,31.13h1.45v7.51h-1.45v-7.51ZM40.91,27.23l1.66.37c-.22.39-.44.78-.66,1.17-.22.38-.42.72-.6,1l-1.21-.37c.1-.21.2-.44.3-.69.1-.25.19-.51.29-.77.09-.26.17-.49.22-.7Z"/>
        <path class="cls-10" d="M46.58,30.94h8.06v1.34h-8.06v-1.34ZM46.95,26.62h7.48v1.29h-7.48v-1.29ZM47.56,33.51h6.28v5.88h-1.43v-4.6h-3.48v4.67h-1.37v-5.94ZM47.88,28.41l1.23-.26c.17.37.31.79.44,1.24.12.45.21.84.25,1.17l-1.29.3c-.02-.33-.09-.73-.21-1.18-.12-.46-.26-.88-.41-1.26ZM48.07,37.3h4.99v1.29h-4.99v-1.29ZM49.97,25.08h1.43v2.35h-1.43v-2.35ZM52.22,28.07l1.4.31c-.17.45-.33.89-.51,1.34-.17.45-.34.84-.51,1.16l-1.17-.3c.1-.23.2-.49.3-.79.09-.3.18-.6.27-.91.09-.31.16-.58.21-.82ZM55.19,25.9h4.62v1.38h-3.17v12.15h-1.45v-13.53ZM59.42,25.9h.28l.23-.05,1.09.67c-.3.75-.63,1.54-.99,2.38-.36.84-.71,1.6-1.05,2.29.49.48.86.93,1.11,1.37.25.44.43.85.53,1.24s.15.77.15,1.13c0,.52-.06.96-.19,1.32-.12.36-.33.64-.62.84-.28.19-.63.31-1.04.37-.19.02-.39.03-.62.03h-.68c-.01-.21-.05-.45-.11-.73-.06-.28-.16-.52-.28-.73.22.02.42.03.6.04.18,0,.34,0,.47,0,.12-.01.24-.03.34-.05.1-.03.2-.06.3-.1.16-.1.26-.25.32-.45.06-.2.09-.44.09-.72,0-.46-.13-.97-.38-1.54-.25-.57-.74-1.18-1.45-1.82.18-.39.35-.82.54-1.28.18-.46.36-.91.54-1.37.18-.46.33-.89.47-1.3.14-.41.26-.76.37-1.05v-.5Z"/>
        <path class="cls-10" d="M62.63,25.69h1.45v13.75h-1.45v-13.75ZM63.33,28.02h4.14v1.07h-4.14v-1.07ZM63.46,25.69h4.91v5.85h-4.91v-1.2h3.53v-3.44h-3.53v-1.21ZM74.87,25.69v1.21h-3.81v3.45h3.81v1.21h-5.21v-5.88h5.21ZM70.5,28.02h4.2v1.07h-4.2v-1.07ZM74.1,25.69h1.48v11.87c0,.46-.06.81-.17,1.05-.11.24-.32.43-.62.55-.3.12-.7.2-1.2.23-.5.03-1.11.04-1.84.04-.02-.13-.06-.29-.12-.47-.06-.18-.12-.37-.19-.56-.07-.19-.15-.35-.22-.47.34.01.68.02,1.02.02.34,0,.64,0,.89,0h.54c.16-.01.26-.04.33-.1.06-.06.09-.16.09-.3v-11.85Z"/>
        <path class="cls-10" d="M80.92,38.35c-.6,0-1.13-.07-1.59-.22-.46-.15-.87-.34-1.22-.58-.35-.24-.66-.51-.92-.79l.87-1.15c.34.33.73.62,1.17.87.44.25.95.37,1.54.37.44,0,.81-.07,1.14-.22.32-.14.57-.35.75-.62.18-.27.27-.59.27-.96,0-.42-.1-.77-.3-1.07-.2-.3-.55-.53-1.04-.69-.49-.17-1.17-.25-2.03-.25v-1.34c.76,0,1.35-.09,1.78-.26.43-.17.74-.4.93-.68.19-.28.29-.6.29-.96,0-.5-.16-.89-.47-1.17s-.74-.43-1.29-.43c-.44,0-.84.1-1.22.3-.38.2-.73.46-1.07.79l-.93-1.12c.46-.4.95-.74,1.49-1,.54-.26,1.14-.4,1.79-.4s1.29.11,1.82.34c.53.23.94.56,1.24.99.3.43.45.95.45,1.56,0,.64-.18,1.18-.54,1.61-.36.43-.84.76-1.44.99v.08c.44.1.83.28,1.19.53.36.25.64.56.85.94.21.38.31.82.31,1.33,0,.67-.17,1.25-.52,1.73-.35.48-.81.84-1.39,1.1-.58.25-1.22.38-1.91.38Z"/>
        <path class="cls-10" d="M86.2,38.13v-1.04c1.07-1.05,1.98-1.98,2.74-2.79.76-.81,1.35-1.55,1.75-2.21s.61-1.28.61-1.86c0-.42-.07-.77-.21-1.07s-.35-.53-.64-.7c-.29-.17-.65-.25-1.08-.25s-.86.13-1.23.38-.72.55-1.03.89l-1.01-1c.49-.54,1-.96,1.55-1.26.54-.3,1.19-.45,1.95-.45.69,0,1.3.14,1.82.42.52.28.92.67,1.21,1.17.29.5.43,1.09.43,1.76s-.19,1.36-.57,2.05c-.38.69-.89,1.42-1.53,2.16-.64.75-1.36,1.54-2.16,2.36.3-.03.62-.06.96-.09.34-.03.65-.04.93-.04h2.92v1.54h-7.4Z"/>
        <path class="cls-10" d="M95.53,38.13v-1.48h2.52v-7.65h-2.05v-1.14c.54-.1,1.01-.23,1.41-.37.4-.14.76-.31,1.1-.5h1.35v9.66h2.22v1.48h-6.55Z"/>
      </g>
      <g>
        <path class="cls-10" d="M3.95,1.34c.22.02.44.04.65.05.22.01.45.02.7.02.13,0,.35,0,.65-.02.3,0,.63-.02,1.02-.04.38-.02.77-.03,1.17-.05.39-.02.75-.04,1.08-.07.33-.03.58-.05.75-.07.22-.02.41-.05.57-.08.16-.03.29-.06.38-.09l.98,1.14c-.12.08-.29.19-.5.33-.21.13-.37.26-.5.37-.23.19-.48.4-.77.63-.29.23-.58.48-.89.73-.31.25-.61.5-.92.75-.31.25-.6.49-.89.72-.29.23-.55.44-.79.63.75-.08,1.53-.16,2.36-.22.82-.06,1.64-.11,2.43-.16.8-.04,1.54-.06,2.24-.06l.02,1.46c-.76-.04-1.49-.06-2.2-.05-.71,0-1.3.04-1.78.1-.36.05-.71.16-1.05.33-.34.17-.64.37-.91.61-.27.24-.48.52-.64.83-.16.31-.23.64-.23.98,0,.47.11.85.34,1.14.23.29.54.51.93.66s.82.26,1.28.32c.45.05.87.08,1.27.07.4,0,.74-.02,1.02-.04l-.33,1.62c-1.94.07-3.43-.19-4.48-.78-1.05-.59-1.57-1.5-1.57-2.74,0-.39.08-.76.23-1.11.16-.35.35-.66.58-.94s.46-.5.69-.67c-.78.06-1.63.15-2.54.26-.92.11-1.81.24-2.68.39l-.14-1.48c.42-.04.88-.09,1.38-.16.49-.06.94-.11,1.33-.16.39-.26.82-.57,1.27-.93.45-.36.9-.73,1.35-1.1.45-.38.87-.73,1.25-1.06.38-.33.69-.6.93-.82-.12.01-.31.02-.56.03-.25.01-.53.03-.83.05-.31.02-.61.04-.91.05-.3,0-.57.02-.82.04-.24.02-.43.03-.57.04-.2.01-.41.03-.64.05-.23.03-.45.05-.65.07l-.08-1.59Z"/>
        <path class="cls-10" d="M23.46,2.44c-.1.8-.24,1.64-.4,2.53-.16.89-.38,1.76-.65,2.64-.31,1.06-.66,1.95-1.05,2.68-.39.73-.81,1.29-1.27,1.67-.46.38-.94.58-1.45.58s-1-.18-1.45-.54c-.45-.36-.81-.86-1.09-1.51-.28-.65-.42-1.4-.42-2.26s.18-1.7.54-2.47c.36-.78.85-1.47,1.49-2.07.63-.6,1.37-1.07,2.21-1.42.84-.34,1.75-.51,2.72-.51s1.78.15,2.53.45c.75.3,1.39.72,1.93,1.25.53.53.94,1.16,1.22,1.87.28.72.42,1.48.42,2.29,0,1.09-.23,2.06-.68,2.9-.45.85-1.11,1.54-1.98,2.07-.87.53-1.94.89-3.2,1.08l-.92-1.46c.27-.03.52-.06.75-.1.23-.04.44-.08.64-.12.5-.11.97-.29,1.42-.53s.85-.54,1.21-.91c.35-.37.63-.8.83-1.3.2-.5.3-1.06.3-1.68s-.1-1.2-.3-1.73c-.2-.53-.49-1-.87-1.39-.38-.39-.86-.7-1.42-.92s-1.19-.33-1.9-.33c-.85,0-1.61.15-2.27.45-.66.3-1.23.7-1.69,1.19-.46.49-.81,1.02-1.05,1.59-.24.57-.36,1.12-.36,1.65,0,.59.07,1.08.22,1.47.15.39.33.68.54.86.22.19.44.28.67.28s.46-.12.7-.35c.24-.23.48-.6.72-1.11.24-.51.48-1.16.72-1.94.24-.75.44-1.54.6-2.39.16-.84.28-1.67.35-2.48l1.66.03Z"/>
        <path class="cls-10" d="M33.92.02l1.35.42c-.33.87-.73,1.74-1.18,2.6-.46.87-.95,1.68-1.47,2.45-.52.77-1.07,1.45-1.63,2.04-.05-.11-.12-.26-.22-.45-.09-.19-.19-.38-.3-.57-.1-.19-.2-.34-.3-.44.5-.5.98-1.07,1.44-1.71.46-.64.89-1.34,1.28-2.08.39-.75.73-1.5,1.01-2.25ZM32.3,4.14l1.43-1.43.02.02v11.65h-1.45V4.14ZM34.14,6.27l9.32-3.62.56,1.29-9.3,3.62-.58-1.29ZM36.08,1.59h1.45v10.17c0,.3.03.53.09.68s.18.26.37.32c.18.06.45.08.8.08h3.62c.32,0,.56-.06.72-.18.16-.12.28-.34.35-.66.07-.32.13-.78.17-1.38.17.12.38.24.64.35.26.11.49.19.7.24-.06.74-.17,1.32-.33,1.76-.16.43-.41.74-.75.92-.34.18-.81.27-1.41.27h-3.81c-.67,0-1.2-.07-1.58-.2-.38-.13-.65-.38-.8-.74-.16-.36-.23-.85-.23-1.49V1.59ZM39.49,0h1.38v10.82h-1.38V0ZM42.96,2.94h-.14l.3-.23.26-.22,1.01.4-.05.23c0,.92,0,1.76-.02,2.52s-.03,1.39-.05,1.91c-.02.51-.05.88-.09,1.11-.05.37-.16.66-.31.85-.16.19-.36.33-.61.41-.22.08-.48.13-.8.15-.32.02-.6.02-.86,0-.01-.21-.05-.44-.11-.71-.06-.26-.13-.48-.22-.65.2.01.4.02.62.02.22,0,.37,0,.47,0,.11,0,.21-.03.29-.08s.14-.17.18-.34c.04-.16.07-.46.09-.9.02-.45.03-1.05.04-1.8.01-.76.02-1.65.02-2.69Z"/>
        <path class="cls-10" d="M50.72,13.08v-7.15c0-.31.01-.69.03-1.13.02-.44.04-.81.05-1.11h-.06c-.15.27-.29.54-.44.82-.15.28-.31.56-.47.85l-2.24,3.39h6.27v1.4h-8.09v-1.21l4.56-6.98h2.08v11.13h-1.68Z"/>
        <path class="cls-10" d="M58.11,13.3c-.6,0-1.13-.07-1.59-.22-.46-.15-.87-.34-1.22-.58-.35-.24-.66-.51-.92-.79l.87-1.15c.34.33.73.62,1.17.87.44.25.95.37,1.54.37.44,0,.81-.07,1.14-.22.32-.14.57-.35.75-.62.18-.27.27-.59.27-.96,0-.42-.1-.77-.3-1.07-.2-.3-.55-.53-1.04-.69-.49-.17-1.17-.25-2.03-.25v-1.34c.76,0,1.35-.09,1.78-.26.43-.17.74-.4.93-.68.19-.28.29-.6.29-.96,0-.5-.16-.89-.47-1.17s-.74-.43-1.29-.43c-.44,0-.84.1-1.22.3-.38.2-.73.46-1.07.79l-.93-1.12c.46-.4.95-.74,1.49-1,.54-.26,1.14-.4,1.79-.4s1.29.11,1.82.34c.53.23.94.56,1.24.99.3.43.45.95.45,1.56,0,.64-.18,1.18-.54,1.61-.36.43-.84.76-1.44.99v.08c.44.1.83.28,1.19.53.36.25.64.56.85.94.21.38.31.82.31,1.33,0,.67-.17,1.25-.52,1.73-.35.48-.81.84-1.39,1.1-.58.25-1.22.38-1.91.38Z"/>
      </g>
      <g class="cls-12">
        <g>
          <path class="cls-2" d="M201.58,239.31l-15.68-179.27c4.75-.42,10.91-.68,15.68-.68v179.96Z"/>
          <path class="cls-7" d="M201.58,239.31L93.27,95.59c28.65-21.59,56.87-32.43,92.62-35.55l15.68,179.27Z"/>
          <path class="cls-1" d="M201.58,239.31L42.68,154.82c12.97-24.4,28.53-42.61,50.59-59.24l108.3,143.72Z"/>
          <path class="cls-5" d="M201.58,239.31l-179.71-9.42c1.39-26.5,8.36-51.64,20.82-75.07l158.89,84.48Z"/>
          <path class="cls-8" d="M201.58,239.31l-58.59,170.15c-78.09-26.89-125.44-97.09-121.12-179.57l179.71,9.42Z"/>
          <path class="cls-9" d="M201.58,239.31l31.25,177.22c-31.03,5.47-60.05,3.19-89.84-7.07l58.59-170.15Z"/>
          <path class="cls-6" d="M201.58,239.31l113.25,139.85c-24.87,20.14-50.48,31.81-82,37.37l-31.25-177.22Z"/>
          <path class="cls-3" d="M201.58,239.31V59.35c99.39,0,179.96,80.57,179.96,179.96,0,56.85-22.53,104.08-66.71,139.85l-113.25-139.85Z"/>
        </g>
      </g>
      <path class="cls-4" d="M201.58,59.35c-4.77,0-10.93.27-15.68.68-35.74,3.13-63.96,13.96-92.62,35.55-22.07,16.63-37.62,34.84-50.59,59.24-12.46,23.43-19.43,48.57-20.82,75.07-4.32,82.48,43.03,152.68,121.12,179.57,29.79,10.26,58.81,12.54,89.84,7.07,31.52-5.56,57.13-17.23,82-37.37,44.18-35.78,66.71-83,66.71-139.85,0-99.39-80.57-179.96-179.96-179.96Z"/>
      <g>
        <rect class="cls-11" x="252.38" y="167.27" width="56.22" height="16.01"/>
        <path class="cls-3" d="M308.27,167.6v15.36h-55.57v-15.36h55.57M308.92,166.95h-56.87v16.66h56.87v-16.66h0Z"/>
      </g>
      <g>
        <path class="cls-10" d="M259.53,181.46c-.65,0-1.23-.08-1.73-.24-.5-.16-.94-.37-1.32-.63-.38-.26-.71-.55-.99-.85l.94-1.25c.37.36.79.67,1.26.94s1.03.4,1.67.4c.47,0,.88-.08,1.23-.24.35-.16.62-.38.82-.67.2-.29.29-.64.29-1.04,0-.45-.11-.83-.33-1.15s-.6-.57-1.13-.75c-.53-.18-1.27-.27-2.2-.27v-1.45c.82,0,1.46-.09,1.93-.28s.8-.43,1.01-.74c.21-.31.31-.65.31-1.04,0-.54-.17-.96-.51-1.27-.34-.31-.8-.46-1.4-.46-.47,0-.91.11-1.32.33-.41.22-.79.5-1.15.85l-1.01-1.21c.49-.44,1.03-.8,1.62-1.09.58-.29,1.23-.43,1.94-.43s1.4.12,1.97.37,1.02.6,1.35,1.07c.33.47.49,1.03.49,1.69,0,.7-.19,1.28-.58,1.74-.39.47-.91.82-1.56,1.07v.08c.47.11.9.3,1.29.57.39.27.69.61.92,1.02.22.41.34.89.34,1.44,0,.73-.19,1.35-.56,1.87-.38.52-.88.91-1.51,1.19-.63.28-1.32.41-2.07.41Z"/>
        <path class="cls-10" d="M268.66,181.46c-.71,0-1.32-.13-1.83-.4-.51-.26-.94-.58-1.29-.93l1.06-1.21c.22.28.51.51.87.67.35.17.72.25,1.09.25.54,0,1.03-.16,1.48-.47.45-.31.81-.84,1.08-1.58.27-.74.4-1.74.4-3,0-1-.1-1.82-.3-2.47-.2-.65-.49-1.12-.85-1.43-.36-.31-.8-.46-1.31-.46-.36,0-.69.1-.98.29-.29.19-.52.47-.69.83-.17.36-.25.8-.25,1.31s.08.92.23,1.26c.15.35.38.61.69.79.31.18.68.27,1.12.27.36,0,.75-.12,1.17-.37.42-.25.82-.66,1.19-1.23l.08,1.43c-.24.33-.51.61-.83.84-.32.24-.65.42-.99.54-.34.12-.66.18-.98.18-.7,0-1.31-.14-1.83-.41s-.93-.69-1.23-1.24c-.3-.55-.45-1.24-.45-2.07s.17-1.49.51-2.07c.34-.58.79-1.04,1.36-1.37.56-.33,1.17-.49,1.84-.49.6,0,1.15.12,1.68.35.52.24.98.6,1.36,1.09.39.49.69,1.1.92,1.83s.34,1.59.34,2.59c0,1.18-.13,2.19-.38,3.04-.25.85-.6,1.54-1.04,2.07-.44.53-.94.93-1.5,1.18-.56.25-1.14.38-1.74.38Z"/>
        <path class="cls-10" d="M276.73,181.46c-.36,0-.67-.13-.92-.4-.25-.26-.38-.59-.38-.99s.13-.73.38-.99c.25-.25.56-.38.92-.38s.68.13.94.38c.25.25.38.58.38.99s-.13.72-.38.99-.56.4-.94.4Z"/>
        <path class="cls-10" d="M283.76,181.46c-.65,0-1.23-.08-1.73-.24-.5-.16-.94-.37-1.32-.63-.38-.26-.71-.55-.99-.85l.94-1.25c.37.36.79.67,1.26.94s1.03.4,1.67.4c.47,0,.88-.08,1.23-.24.35-.16.62-.38.82-.67.2-.29.29-.64.29-1.04,0-.45-.11-.83-.33-1.15s-.6-.57-1.13-.75c-.53-.18-1.27-.27-2.2-.27v-1.45c.82,0,1.46-.09,1.93-.28.47-.19.8-.43,1.01-.74.21-.31.31-.65.31-1.04,0-.54-.17-.96-.51-1.27-.34-.31-.8-.46-1.4-.46-.47,0-.91.11-1.32.33-.41.22-.79.5-1.15.85l-1.01-1.21c.49-.44,1.03-.8,1.62-1.09.58-.29,1.23-.43,1.94-.43s1.4.12,1.97.37c.57.25,1.02.6,1.35,1.07.33.47.49,1.03.49,1.69,0,.7-.19,1.28-.58,1.74-.39.47-.91.82-1.56,1.07v.08c.47.11.9.3,1.29.57.39.27.69.61.92,1.02.22.41.34.89.34,1.44,0,.73-.19,1.35-.56,1.87-.38.52-.88.91-1.51,1.19-.63.28-1.32.41-2.07.41Z"/>
        <path class="cls-10" d="M292.35,176.42c-.57,0-1.08-.15-1.52-.46-.44-.31-.78-.76-1.02-1.35-.24-.59-.36-1.3-.36-2.13s.12-1.54.36-2.11c.24-.58.58-1.02,1.02-1.32.44-.3.94-.46,1.52-.46s1.1.15,1.53.46c.44.3.78.74,1.02,1.32.24.58.36,1.28.36,2.11s-.12,1.54-.36,2.13c-.24.59-.58,1.04-1.02,1.35-.44.31-.95.46-1.53.46ZM292.35,175.29c.44,0,.79-.23,1.07-.69.28-.46.41-1.17.41-2.12s-.14-1.65-.41-2.09c-.28-.44-.63-.66-1.07-.66s-.78.22-1.06.66c-.28.44-.42,1.13-.42,2.09s.14,1.66.42,2.12c.28.46.63.69,1.06.69ZM292.74,181.46l6.79-12.87h1.23l-6.79,12.87h-1.23ZM301.16,181.46c-.57,0-1.08-.16-1.52-.47-.44-.31-.78-.76-1.02-1.35-.24-.58-.36-1.29-.36-2.12s.12-1.55.36-2.12c.24-.57.58-1.01,1.02-1.32.44-.31.94-.46,1.52-.46s1.08.15,1.52.46c.44.31.78.75,1.02,1.32.24.57.36,1.28.36,2.12s-.12,1.54-.36,2.12c-.24.58-.58,1.03-1.02,1.35-.44.31-.94.47-1.52.47ZM301.16,180.3c.43,0,.78-.22,1.07-.67s.43-1.15.43-2.11-.14-1.67-.43-2.11c-.29-.44-.64-.66-1.07-.66s-.78.22-1.06.66c-.28.44-.42,1.14-.42,2.11s.14,1.66.42,2.11c.28.45.63.67,1.06.67Z"/>
      </g>
      <g>
        <rect class="cls-11" x="160.82" y="369.64" width="56.22" height="16.01"/>
        <path class="cls-3" d="M216.71,369.97v15.36h-55.57v-15.36h55.57M217.36,369.32h-56.87v16.66h56.87v-16.66h0Z"/>
      </g>
      <g>
        <path class="cls-10" d="M171.51,383.6c.06-1.09.15-2.09.29-3.02.14-.92.34-1.79.61-2.61.26-.82.6-1.62,1.01-2.4.41-.78.91-1.58,1.49-2.38h-5.81v-1.65h7.97v1.2c-.71.89-1.28,1.73-1.73,2.54-.44.8-.79,1.62-1.04,2.46-.25.84-.44,1.73-.56,2.68-.12.95-.2,2.01-.24,3.19h-1.99Z"/>
        <path class="cls-10" d="M180.37,383.83c-.36,0-.67-.13-.92-.4-.25-.26-.38-.59-.38-.99s.13-.73.38-.99c.25-.25.56-.38.92-.38s.68.13.94.38c.25.25.38.58.38.99s-.13.72-.38.99c-.25.26-.56.4-.94.4Z"/>
        <path class="cls-10" d="M186.93,383.83c-.71,0-1.32-.13-1.83-.4-.51-.26-.94-.58-1.29-.93l1.06-1.21c.22.28.51.51.87.67.35.17.72.25,1.09.25.54,0,1.03-.16,1.48-.47.45-.31.81-.84,1.08-1.58.27-.74.4-1.74.4-3,0-1-.1-1.82-.3-2.47-.2-.65-.49-1.12-.85-1.43-.37-.31-.8-.46-1.31-.46-.36,0-.69.1-.98.29-.29.19-.52.47-.69.83-.17.36-.25.8-.25,1.31s.08.92.23,1.26c.15.35.38.61.69.79.31.18.68.27,1.12.27.36,0,.75-.12,1.17-.37s.82-.66,1.19-1.23l.08,1.43c-.24.33-.51.61-.83.84-.32.24-.65.42-.99.54-.34.12-.66.18-.98.18-.7,0-1.31-.14-1.83-.41s-.93-.69-1.23-1.24c-.3-.55-.45-1.24-.45-2.07s.17-1.49.51-2.07c.34-.58.79-1.04,1.36-1.37.56-.33,1.17-.49,1.84-.49.6,0,1.15.12,1.68.35.52.24.98.6,1.36,1.09s.69,1.1.92,1.83c.22.73.34,1.59.34,2.59,0,1.18-.13,2.19-.38,3.04-.25.85-.6,1.54-1.04,2.07-.44.53-.94.93-1.5,1.18-.56.25-1.14.38-1.74.38Z"/>
        <path class="cls-10" d="M195.99,378.79c-.57,0-1.08-.15-1.52-.46-.44-.31-.78-.76-1.02-1.35-.24-.59-.36-1.3-.36-2.13s.12-1.54.36-2.11c.24-.58.58-1.02,1.02-1.32.44-.3.94-.46,1.52-.46s1.1.15,1.53.46c.44.3.78.74,1.02,1.32.24.58.36,1.28.36,2.11s-.12,1.54-.36,2.13c-.24.59-.58,1.04-1.02,1.35-.44.31-.95.46-1.53.46ZM195.99,377.67c.44,0,.79-.23,1.07-.69.28-.46.41-1.17.41-2.12s-.14-1.65-.41-2.09c-.28-.44-.63-.66-1.07-.66s-.78.22-1.06.66c-.28.44-.42,1.13-.42,2.09s.14,1.66.42,2.12c.28.46.63.69,1.06.69ZM196.38,383.83l6.79-12.87h1.23l-6.79,12.87h-1.23ZM204.8,383.83c-.57,0-1.08-.16-1.52-.47-.44-.31-.78-.76-1.02-1.35-.24-.58-.36-1.29-.36-2.12s.12-1.55.36-2.12c.24-.57.58-1.01,1.02-1.32.44-.31.94-.46,1.52-.46s1.08.15,1.52.46c.44.31.78.75,1.02,1.32.24.57.36,1.28.36,2.12s-.12,1.54-.36,2.12c-.24.58-.58,1.03-1.02,1.35-.44.31-.94.47-1.52.47ZM204.8,382.67c.43,0,.78-.22,1.07-.67s.43-1.15.43-2.11-.14-1.67-.43-2.11c-.29-.44-.64-.66-1.07-.66s-.78.22-1.06.66c-.28.44-.42,1.14-.42,2.11s.14,1.66.42,2.11c.28.45.63.67,1.06.67Z"/>
      </g>
      <g>
        <rect class="cls-11" x="122.94" y="114.21" width="56.22" height="16.01"/>
        <path class="cls-3" d="M178.84,114.53v15.36h-55.57v-15.36h55.57M179.48,113.88h-56.87v16.66h56.87v-16.66h0Z"/>
      </g>
      <g>
        <path class="cls-10" d="M134.43,128.4c-.71,0-1.32-.13-1.83-.4-.51-.26-.94-.58-1.29-.93l1.06-1.21c.22.28.51.51.87.67.35.17.72.25,1.09.25.54,0,1.03-.16,1.48-.47.45-.31.81-.84,1.08-1.58.27-.74.4-1.74.4-3,0-1-.1-1.82-.3-2.47-.2-.65-.49-1.12-.85-1.43-.37-.31-.8-.46-1.31-.46-.36,0-.69.1-.98.29-.29.19-.52.47-.69.83-.17.36-.25.8-.25,1.31s.08.92.23,1.26c.15.35.38.61.69.79.31.18.68.27,1.12.27.36,0,.75-.12,1.17-.37s.82-.66,1.19-1.23l.08,1.43c-.24.33-.51.61-.83.84-.32.24-.65.42-.99.54-.34.12-.66.18-.98.18-.7,0-1.31-.14-1.83-.41s-.93-.69-1.23-1.24c-.3-.55-.45-1.24-.45-2.07s.17-1.49.51-2.07c.34-.58.79-1.04,1.36-1.37.56-.33,1.17-.49,1.84-.49.6,0,1.15.12,1.68.35.52.24.98.6,1.36,1.09s.69,1.1.92,1.83c.22.73.34,1.59.34,2.59,0,1.18-.13,2.19-.38,3.04-.25.85-.6,1.54-1.04,2.07-.44.53-.94.93-1.5,1.18-.56.25-1.14.38-1.74.38Z"/>
        <path class="cls-10" d="M142.5,128.4c-.36,0-.67-.13-.92-.4-.25-.26-.38-.59-.38-.99s.13-.73.38-.99c.25-.25.56-.38.92-.38s.68.13.94.38c.25.25.38.58.38.99s-.13.72-.38.99c-.25.26-.56.4-.94.4Z"/>
        <path class="cls-10" d="M149.83,128.4c-.83,0-1.55-.25-2.15-.73-.6-.49-1.06-1.2-1.39-2.14-.33-.94-.49-2.09-.49-3.45s.16-2.5.49-3.42c.33-.92.79-1.62,1.39-2.09.6-.47,1.32-.71,2.15-.71s1.53.24,2.12.71c.6.47,1.06,1.17,1.38,2.09.33.92.49,2.06.49,3.42s-.16,2.51-.49,3.45c-.33.94-.79,1.65-1.38,2.14-.6.49-1.3.73-2.12.73ZM149.83,126.85c.42,0,.79-.16,1.11-.47.33-.31.58-.82.76-1.52.18-.7.27-1.62.27-2.78s-.09-2.08-.27-2.75c-.18-.68-.43-1.17-.76-1.47-.33-.3-.7-.46-1.11-.46s-.79.15-1.11.46c-.33.3-.58.79-.77,1.47-.19.68-.28,1.6-.28,2.75s.09,2.08.28,2.78c.19.7.44,1.2.77,1.52.33.31.7.47,1.11.47Z"/>
        <path class="cls-10" d="M158.11,123.36c-.57,0-1.08-.15-1.52-.46-.44-.31-.78-.76-1.02-1.35-.24-.59-.36-1.3-.36-2.13s.12-1.54.36-2.11c.24-.58.58-1.02,1.02-1.32.44-.3.94-.46,1.52-.46s1.1.15,1.53.46c.44.3.78.74,1.02,1.32.24.58.36,1.28.36,2.11s-.12,1.54-.36,2.13c-.24.59-.58,1.04-1.02,1.35-.44.31-.95.46-1.53.46ZM158.11,122.23c.44,0,.79-.23,1.07-.69.28-.46.41-1.17.41-2.12s-.14-1.65-.41-2.09c-.28-.44-.63-.66-1.07-.66s-.78.22-1.06.66c-.28.44-.42,1.13-.42,2.09s.14,1.66.42,2.12c.28.46.63.69,1.06.69ZM158.5,128.4l6.79-12.87h1.23l-6.79,12.87h-1.23ZM166.93,128.4c-.57,0-1.08-.16-1.52-.47-.44-.31-.78-.76-1.02-1.35-.24-.58-.36-1.29-.36-2.12s.12-1.55.36-2.12c.24-.57.58-1.01,1.02-1.32.44-.31.94-.46,1.52-.46s1.08.15,1.52.46c.44.31.78.75,1.02,1.32.24.57.36,1.28.36,2.12s-.12,1.54-.36,2.12c-.24.58-.58,1.03-1.02,1.35-.44.31-.94.47-1.52.47ZM166.93,127.24c.43,0,.78-.22,1.07-.67s.43-1.15.43-2.11-.14-1.67-.43-2.11c-.29-.44-.64-.66-1.07-.66s-.78.22-1.06.66c-.28.44-.42,1.14-.42,2.11s.14,1.66.42,2.11c.28.45.63.67,1.06.67Z"/>
      </g>
      <polyline class="cls-13" points="0 18.26 179.01 18.26 188.52 87.77"/>
      <polyline class="cls-13" points="0 42.53 163.91 42.53 175.26 113.88"/>
      <polyline class="cls-13" points="0 68.19 100.22 68.19 130.2 158.18"/>
      <polyline class="cls-13" points=".86 112.02 48.3 112.02 90.64 203.92"/>
      <circle class="cls-11" cx="201.01" cy="235.01" r="58.3"/>
      <g>
        <path class="cls-10" d="M161.26,247.65h1.89c-.08,1-.22,1.9-.42,2.69-.2.8-.52,1.51-.96,2.13-.44.62-1.06,1.16-1.86,1.62s-1.83.84-3.1,1.14c-.04-.16-.12-.33-.23-.53-.12-.19-.24-.39-.38-.57-.14-.19-.27-.35-.4-.48,1.14-.25,2.06-.54,2.75-.89.69-.35,1.22-.77,1.58-1.25.36-.49.63-1.05.79-1.69.16-.64.28-1.36.34-2.17ZM156.27,238.9h17.07v1.69h-17.07v-1.69ZM156.65,245.18h16.27v3.91h-1.85v-2.25h-12.64v2.25h-1.79v-3.91ZM158.09,242.25h13.47v1.63h-13.47v-1.63ZM163.75,237.17h1.91v5.95h-1.91v-5.95ZM166.06,247.65h1.83v4.9c0,.3.05.49.16.56.1.08.34.12.72.12h2.31c.23,0,.4-.06.52-.17.11-.11.19-.34.24-.7.05-.36.09-.88.12-1.58.13.1.29.2.49.29s.4.17.61.24c.21.07.4.13.55.18-.05.89-.16,1.59-.32,2.09-.16.5-.41.84-.73,1.03-.32.19-.76.28-1.3.28h-2.72c-.66,0-1.17-.07-1.53-.21-.36-.14-.6-.38-.74-.72-.14-.34-.2-.8-.2-1.38v-4.94Z"/>
        <path class="cls-10" d="M175.19,252.41h17.59v1.85h-17.59v-1.85ZM182.36,237.43h1.96v15.98h-1.96v-15.98ZM183.41,243.24h8.03v1.85h-8.03v-1.85Z"/>
        <path class="cls-10" d="M203.46,253.83c-.75,0-1.42-.09-1.99-.27-.58-.18-1.09-.42-1.53-.73-.44-.3-.82-.63-1.15-.98l1.09-1.44c.43.42.91.78,1.46,1.09.54.31,1.19.47,1.92.47.54,0,1.02-.09,1.42-.27.4-.18.72-.44.94-.78.23-.34.34-.74.34-1.21,0-.52-.13-.96-.38-1.33-.25-.37-.69-.66-1.3-.87-.62-.21-1.46-.31-2.54-.31v-1.67c.95,0,1.69-.11,2.23-.32.54-.21.93-.5,1.17-.86.24-.36.36-.75.36-1.2,0-.62-.19-1.11-.58-1.47s-.93-.53-1.61-.53c-.54,0-1.05.13-1.53.38-.47.25-.92.58-1.33.98l-1.17-1.4c.57-.51,1.19-.92,1.87-1.25.67-.33,1.42-.5,2.24-.5s1.61.14,2.27.43c.66.29,1.18.7,1.56,1.23.38.54.56,1.19.56,1.95,0,.8-.22,1.47-.67,2.01-.45.54-1.05.95-1.8,1.23v.1c.54.13,1.04.35,1.49.66.45.31.8.7,1.06,1.18.26.47.39,1.03.39,1.66,0,.84-.22,1.56-.65,2.16-.43.6-1.01,1.05-1.74,1.37-.73.32-1.52.48-2.39.48Z"/>
        <path class="cls-10" d="M210.35,257.45l-.51-1.26c.67-.29,1.2-.66,1.57-1.14.38-.47.56-1,.54-1.58l-.16-1.79.93,1.48c-.13.14-.28.24-.45.3-.17.06-.35.09-.54.09-.39,0-.74-.13-1.04-.38-.3-.25-.46-.61-.46-1.06s.15-.79.46-1.05c.3-.26.67-.39,1.1-.39.56,0,.98.21,1.28.64.3.43.45,1.02.45,1.77,0,1.02-.28,1.92-.85,2.67-.56.76-1.34,1.33-2.34,1.7Z"/>
        <path class="cls-10" d="M219.92,253.83c-.74,0-1.4-.09-1.98-.27s-1.1-.42-1.54-.72c-.44-.3-.83-.61-1.17-.93l1.07-1.46c.27.27.57.52.89.75.32.23.69.41,1.1.55.41.14.87.21,1.37.21.53,0,1.01-.11,1.44-.34.43-.23.76-.55,1.01-.98.25-.43.37-.93.37-1.52,0-.88-.25-1.57-.75-2.06-.5-.49-1.16-.74-1.97-.74-.45,0-.84.07-1.17.2-.32.14-.69.34-1.11.61l-1.11-.7.43-6.8h7.25v1.91h-5.31l-.33,3.65c.31-.16.62-.28.93-.36s.65-.13,1.03-.13c.8,0,1.54.15,2.2.46.66.3,1.19.78,1.57,1.42.39.64.58,1.46.58,2.46s-.23,1.87-.68,2.58c-.45.71-1.05,1.26-1.78,1.63-.73.38-1.52.56-2.36.56Z"/>
        <path class="cls-10" d="M231.8,253.83c-.69,0-1.33-.14-1.93-.42-.6-.28-1.13-.7-1.57-1.25-.45-.56-.8-1.26-1.06-2.11-.26-.85-.39-1.85-.39-3,0-1.37.15-2.54.44-3.51.29-.96.69-1.76,1.2-2.38s1.08-1.08,1.73-1.36c.65-.29,1.33-.43,2.04-.43.8,0,1.5.15,2.09.45.59.3,1.09.66,1.49,1.09l-1.22,1.36c-.26-.31-.59-.56-.99-.76-.4-.19-.82-.29-1.26-.29-.62,0-1.19.18-1.71.54-.52.36-.93.97-1.24,1.82s-.47,2.01-.47,3.47c0,1.15.12,2.1.35,2.85s.56,1.3.99,1.66c.43.36.93.54,1.5.54.41,0,.79-.11,1.13-.34.34-.23.61-.55.81-.97.2-.42.3-.92.3-1.51s-.09-1.05-.28-1.45c-.19-.4-.46-.7-.81-.9s-.78-.31-1.28-.31c-.41,0-.87.14-1.35.41-.49.27-.94.75-1.37,1.42l-.1-1.63c.28-.38.61-.7.97-.97.36-.27.74-.48,1.14-.63.4-.15.77-.22,1.12-.22.8,0,1.51.16,2.12.48.61.32,1.08.79,1.42,1.43.34.63.51,1.43.51,2.39s-.2,1.72-.59,2.39c-.4.67-.91,1.2-1.56,1.58-.64.38-1.35.57-2.13.57Z"/>
        <path class="cls-10" d="M242.57,253.83c-.96,0-1.79-.28-2.48-.85-.69-.56-1.23-1.39-1.6-2.47-.38-1.08-.56-2.41-.56-3.98s.19-2.88.56-3.95c.38-1.06.91-1.87,1.6-2.41.69-.54,1.52-.82,2.48-.82s1.76.27,2.45.82c.69.54,1.22,1.35,1.59,2.41.38,1.06.56,2.38.56,3.95s-.19,2.89-.56,3.98c-.38,1.08-.91,1.9-1.59,2.47-.69.56-1.5.85-2.45.85ZM242.57,252.04c.48,0,.91-.18,1.28-.54.38-.36.67-.95.87-1.75.21-.8.31-1.87.31-3.21s-.1-2.39-.31-3.18c-.21-.78-.5-1.35-.87-1.7-.38-.35-.8-.52-1.28-.52s-.91.17-1.28.52c-.38.35-.67.92-.88,1.7-.21.78-.32,1.84-.32,3.18s.11,2.4.32,3.21c.21.8.51,1.39.88,1.75.38.36.8.54,1.28.54Z"/>
      </g>
      <g>
        <path class="cls-10" d="M173.47,218.01h10.07v1.67h-10.07v-1.67ZM173.94,212.61h9.35v1.61h-9.35v-1.61ZM174.69,221.22h7.85v7.35h-1.79v-5.75h-4.35v5.83h-1.71v-7.43ZM175.1,214.84l1.54-.33c.21.47.39.98.54,1.55.16.56.26,1.05.31,1.47l-1.61.37c-.03-.42-.11-.91-.26-1.48-.15-.57-.32-1.09-.52-1.58ZM175.34,225.96h6.24v1.61h-6.24v-1.61ZM177.71,210.68h1.79v2.94h-1.79v-2.94ZM180.53,214.42l1.75.39c-.21.56-.42,1.12-.63,1.68-.21.56-.42,1.05-.63,1.45l-1.46-.37c.13-.28.25-.61.37-.98s.23-.75.34-1.14c.11-.39.2-.73.26-1.03ZM184.24,211.71h5.77v1.73h-3.97v15.18h-1.81v-16.91ZM189.53,211.71h.35l.29-.06,1.36.84c-.38.93-.79,1.92-1.23,2.97-.45,1.05-.88,2-1.31,2.86.61.6,1.07,1.17,1.39,1.71.32.54.54,1.06.66,1.56.12.49.18.97.18,1.42,0,.65-.08,1.2-.23,1.65-.16.45-.41.8-.78,1.05-.35.23-.78.39-1.3.47-.23.03-.49.04-.78.04h-.86c-.01-.26-.06-.56-.14-.91s-.19-.65-.35-.91c.27.03.52.04.75.05.23,0,.42,0,.59,0,.16-.01.3-.04.43-.07.13-.03.25-.08.37-.13.19-.13.33-.32.4-.56.07-.25.11-.54.11-.89,0-.57-.16-1.21-.48-1.92-.32-.71-.92-1.47-1.82-2.28.22-.49.44-1.02.67-1.59.23-.57.45-1.14.67-1.71.22-.57.42-1.11.59-1.62.17-.51.33-.95.46-1.31v-.62Z"/>
        <path class="cls-10" d="M193.51,211.44h1.81v17.18h-1.81v-17.18ZM194.38,214.36h5.17v1.34h-5.17v-1.34ZM194.54,211.44h6.14v7.31h-6.14v-1.5h4.41v-4.3h-4.41v-1.52ZM208.81,211.44v1.52h-4.76v4.32h4.76v1.52h-6.51v-7.35h6.51ZM203.34,214.36h5.25v1.34h-5.25v-1.34ZM207.83,211.44h1.85v14.83c0,.57-.07,1.01-.21,1.31-.14.3-.4.54-.78.69-.38.16-.87.25-1.5.28-.62.03-1.39.05-2.29.05-.03-.17-.07-.37-.15-.59-.07-.23-.15-.46-.24-.7-.09-.24-.18-.44-.27-.59.43.01.85.02,1.27.03.42,0,.79,0,1.12,0h.68c.19-.01.33-.05.41-.13s.12-.2.12-.38v-14.81Z"/>
        <path class="cls-10" d="M214.81,217.49h1.81c-.05,1.02-.14,2.06-.26,3.11-.12,1.05-.32,2.07-.58,3.05-.27.99-.64,1.91-1.11,2.76-.47.86-1.09,1.61-1.86,2.25-.14-.23-.33-.47-.57-.72-.24-.25-.47-.44-.69-.58.69-.57,1.24-1.23,1.66-1.99.42-.76.74-1.58.95-2.46.21-.88.37-1.79.46-2.71.09-.93.16-1.83.19-2.71ZM212.73,211.48h7.85v6.55h-7.85v-6.55ZM214.4,213.11v3.27h4.41v-3.27h-4.41ZM215.28,219.92h4.53v1.61h-4.53v-1.61ZM219.03,219.92h1.69v.44c0,.11,0,.2-.02.28-.07,1.59-.14,2.89-.21,3.88s-.17,1.75-.28,2.26c-.11.52-.26.89-.44,1.11-.18.22-.38.37-.58.46-.21.08-.46.15-.76.18-.26.04-.61.06-1.04.06s-.88-.01-1.35-.04c-.01-.25-.06-.52-.15-.83-.08-.3-.2-.57-.36-.79.45.05.87.08,1.26.09.39,0,.67,0,.84,0,.16,0,.28-.01.39-.04.1-.03.19-.08.27-.17.13-.14.24-.44.32-.9.08-.46.16-1.15.22-2.07.06-.92.13-2.13.19-3.63v-.29ZM222.33,212.94h1.79v10.87h-1.79v-10.87ZM227.02,210.96h1.83v15.34c0,.6-.07,1.04-.21,1.33-.14.29-.39.51-.74.67-.36.14-.85.24-1.45.28-.6.05-1.35.07-2.25.07-.03-.17-.07-.37-.15-.59-.07-.23-.15-.46-.23-.69-.08-.23-.18-.43-.28-.6.67.03,1.29.04,1.85.04h1.13c.18-.01.31-.05.39-.13s.12-.2.12-.38v-15.34Z"/>
      </g>
      <g>
        <rect class="cls-11" x="230.76" y="353.04" width="56.22" height="16.01"/>
        <path class="cls-3" d="M286.65,353.36v15.36h-55.57v-15.36h55.57M287.3,352.71h-56.87v16.66h56.87v-16.66h0Z"/>
      </g>
      <g>
        <path class="cls-10" d="M243.02,367.23c-.78,0-1.47-.14-2.07-.43-.61-.29-1.09-.68-1.44-1.18s-.53-1.07-.53-1.71c0-.52.11-.97.32-1.37.21-.4.49-.75.83-1.05.34-.3.69-.55,1.06-.74v-.07c-.45-.33-.84-.72-1.16-1.18-.33-.46-.49-1.01-.49-1.63s.15-1.2.46-1.68c.31-.48.73-.85,1.26-1.1.53-.26,1.14-.39,1.83-.39.72,0,1.34.14,1.85.41.52.28.92.66,1.2,1.14.29.48.43,1.04.43,1.68,0,.42-.08.8-.25,1.16s-.38.68-.62.96c-.25.28-.5.52-.76.71v.07c.37.21.72.46,1.04.74.32.28.58.61.77,1,.19.39.29.85.29,1.39,0,.61-.17,1.16-.5,1.65-.33.5-.8.89-1.4,1.18-.6.29-1.31.44-2.11.44ZM243.07,365.81c.42,0,.78-.08,1.1-.24s.57-.38.75-.67c.18-.29.27-.63.27-1.02,0-.35-.08-.65-.24-.9-.16-.25-.38-.47-.66-.67-.28-.19-.6-.37-.97-.53-.37-.16-.76-.32-1.19-.48-.43.28-.78.62-1.04,1.03-.27.4-.4.86-.4,1.37,0,.42.1.78.31,1.09.21.31.49.56.85.74.36.18.76.27,1.21.27ZM243.84,360.27c.36-.34.63-.69.82-1.06.19-.37.28-.76.28-1.16,0-.37-.07-.7-.22-.99-.15-.29-.36-.52-.65-.69-.29-.17-.63-.25-1.04-.25-.51,0-.93.15-1.26.46-.34.31-.51.74-.51,1.29,0,.44.12.8.36,1.09.24.29.56.53.94.74s.81.4,1.27.58Z"/>
        <path class="cls-10" d="M250.31,367.23c-.36,0-.67-.13-.92-.4-.25-.26-.38-.59-.38-.99s.13-.73.38-.99c.25-.25.56-.38.92-.38s.68.13.94.38c.25.25.38.58.38.99s-.13.72-.38.99c-.25.26-.56.4-.94.4Z"/>
        <path class="cls-10" d="M254.25,366.99v-1.6h2.73v-8.29h-2.22v-1.23c.58-.11,1.09-.24,1.52-.4.43-.15.83-.33,1.19-.55h1.47v10.46h2.41v1.6h-7.09Z"/>
        <path class="cls-10" d="M265.93,362.19c-.57,0-1.08-.15-1.52-.46-.44-.31-.78-.76-1.02-1.35-.24-.59-.36-1.3-.36-2.13s.12-1.54.36-2.11c.24-.58.58-1.02,1.02-1.32.44-.3.94-.46,1.52-.46s1.09.15,1.53.46c.44.3.78.74,1.02,1.32.24.58.36,1.28.36,2.11s-.12,1.54-.36,2.13c-.24.59-.58,1.04-1.02,1.35-.44.31-.95.46-1.53.46ZM265.93,361.06c.44,0,.79-.23,1.07-.69.28-.46.41-1.17.41-2.12s-.14-1.65-.41-2.09c-.28-.44-.63-.66-1.07-.66s-.78.22-1.06.66c-.28.44-.42,1.13-.42,2.09s.14,1.66.42,2.12c.28.46.63.69,1.06.69ZM266.32,367.23l6.79-12.87h1.23l-6.79,12.87h-1.23ZM274.74,367.23c-.57,0-1.08-.16-1.52-.47-.44-.31-.78-.76-1.02-1.35-.24-.58-.36-1.29-.36-2.12s.12-1.55.36-2.12c.24-.57.58-1.01,1.02-1.32.44-.31.94-.46,1.52-.46s1.08.15,1.52.46c.44.31.78.75,1.02,1.32.24.57.36,1.28.36,2.12s-.12,1.54-.36,2.12c-.24.58-.58,1.03-1.02,1.35-.44.31-.94.47-1.52.47ZM274.74,366.07c.43,0,.78-.22,1.07-.67s.43-1.15.43-2.11-.14-1.67-.43-2.11c-.29-.44-.64-.66-1.07-.66s-.78.22-1.06.66c-.28.44-.42,1.14-.42,2.11s.14,1.66.42,2.11c.28.45.63.67,1.06.67Z"/>
      </g>
      <g>
        <rect class="cls-11" x="69.65" y="320.08" width="56.22" height="16.01"/>
        <path class="cls-3" d="M125.55,320.41v15.36h-55.57v-15.36h55.57M126.2,319.76h-56.87v16.66h56.87v-16.66h0Z"/>
      </g>
      <g>
        <path class="cls-10" d="M73.03,334.04v-1.13c1.16-1.13,2.15-2.14,2.97-3.02.83-.88,1.46-1.68,1.9-2.39.44-.71.66-1.38.66-2.01,0-.45-.08-.84-.23-1.16-.15-.33-.38-.58-.69-.76-.31-.18-.7-.27-1.17-.27s-.93.14-1.33.41-.77.6-1.11.97l-1.1-1.08c.53-.58,1.09-1.04,1.68-1.37.59-.33,1.29-.49,2.11-.49.75,0,1.41.15,1.97.46.56.3,1,.73,1.31,1.27.31.54.46,1.18.46,1.91s-.21,1.47-.61,2.22c-.41.75-.96,1.53-1.66,2.34-.7.81-1.48,1.66-2.34,2.56.33-.03.67-.06,1.04-.09.36-.03.7-.04,1-.04h3.17v1.67h-8.02Z"/>
        <path class="cls-10" d="M86.72,334.27c-.83,0-1.55-.25-2.15-.73-.6-.49-1.06-1.2-1.39-2.14-.33-.94-.49-2.09-.49-3.45s.16-2.5.49-3.42c.33-.92.79-1.62,1.39-2.09.6-.47,1.32-.71,2.15-.71s1.53.24,2.12.71c.6.47,1.06,1.17,1.38,2.09.33.92.49,2.06.49,3.42s-.16,2.51-.49,3.45c-.33.94-.79,1.65-1.38,2.14-.6.49-1.3.73-2.12.73ZM86.72,332.72c.42,0,.79-.16,1.11-.47.33-.31.58-.82.76-1.52.18-.7.27-1.62.27-2.78s-.09-2.08-.27-2.75c-.18-.68-.43-1.17-.76-1.47-.33-.3-.7-.46-1.11-.46s-.79.15-1.11.46c-.33.3-.58.79-.77,1.47-.19.68-.28,1.6-.28,2.75s.09,2.08.28,2.78c.19.7.44,1.2.77,1.52.33.31.7.47,1.11.47Z"/>
        <path class="cls-10" d="M94.01,334.27c-.36,0-.67-.13-.92-.4-.25-.26-.38-.59-.38-.99s.13-.73.38-.99c.25-.25.56-.38.92-.38s.68.13.94.38c.25.25.38.58.38.99s-.13.72-.38.99c-.25.26-.56.4-.94.4Z"/>
        <path class="cls-10" d="M101.34,334.27c-.78,0-1.47-.14-2.07-.43-.61-.29-1.09-.68-1.44-1.18s-.53-1.07-.53-1.71c0-.52.11-.97.32-1.37.21-.4.49-.75.83-1.05.34-.3.69-.55,1.06-.74v-.07c-.45-.33-.84-.72-1.16-1.18-.33-.46-.49-1.01-.49-1.63s.15-1.2.46-1.68c.31-.48.73-.85,1.26-1.1.53-.26,1.14-.39,1.83-.39.72,0,1.34.14,1.85.41.52.28.92.66,1.2,1.14.29.48.43,1.04.43,1.68,0,.42-.08.8-.25,1.16-.17.36-.38.68-.62.96-.25.28-.5.52-.76.71v.07c.37.21.72.46,1.04.74.32.28.58.61.77,1,.19.39.29.85.29,1.39,0,.61-.17,1.16-.5,1.65-.33.5-.8.89-1.4,1.18-.6.29-1.31.44-2.11.44ZM101.39,332.86c.42,0,.78-.08,1.1-.24.32-.16.57-.38.75-.67.18-.29.27-.63.27-1.02,0-.35-.08-.65-.24-.9-.16-.25-.38-.47-.66-.67-.28-.19-.6-.37-.97-.53-.37-.16-.76-.32-1.19-.48-.43.28-.78.62-1.04,1.03-.27.4-.4.86-.4,1.37,0,.42.1.78.31,1.09.21.31.49.56.85.74.36.18.76.27,1.21.27ZM102.16,327.31c.36-.34.63-.69.82-1.06.19-.37.28-.76.28-1.16,0-.37-.07-.7-.22-.99-.15-.29-.36-.52-.65-.69-.29-.17-.63-.25-1.04-.25-.51,0-.93.15-1.26.46-.34.31-.51.74-.51,1.29,0,.44.12.8.36,1.09.24.29.56.53.94.74s.81.4,1.27.58Z"/>
        <path class="cls-10" d="M109.63,329.23c-.57,0-1.08-.15-1.52-.46-.44-.31-.78-.76-1.02-1.35-.24-.59-.36-1.3-.36-2.13s.12-1.54.36-2.11c.24-.58.58-1.02,1.02-1.32.44-.3.94-.46,1.52-.46s1.1.15,1.53.46c.44.3.78.74,1.02,1.32.24.58.36,1.28.36,2.11s-.12,1.54-.36,2.13c-.24.59-.58,1.04-1.02,1.35-.44.31-.95.46-1.53.46ZM109.63,328.11c.44,0,.79-.23,1.07-.69.28-.46.41-1.17.41-2.12s-.14-1.65-.41-2.09c-.28-.44-.63-.66-1.07-.66s-.78.22-1.06.66c-.28.44-.42,1.13-.42,2.09s.14,1.66.42,2.12c.28.46.63.69,1.06.69ZM110.02,334.27l6.79-12.87h1.23l-6.79,12.87h-1.23ZM118.44,334.27c-.57,0-1.08-.16-1.52-.47-.44-.31-.78-.76-1.02-1.35-.24-.58-.36-1.29-.36-2.12s.12-1.55.36-2.12c.24-.57.58-1.01,1.02-1.32.44-.31.94-.46,1.52-.46s1.08.15,1.52.46c.44.31.78.75,1.02,1.32.24.57.36,1.28.36,2.12s-.12,1.54-.36,2.12c-.24.58-.58,1.03-1.02,1.35-.44.31-.94.47-1.52.47ZM118.44,333.11c.43,0,.78-.22,1.07-.67s.43-1.15.43-2.11-.14-1.67-.43-2.11c-.29-.44-.64-.66-1.07-.66s-.78.22-1.06.66c-.28.44-.42,1.14-.42,2.11s.14,1.66.42,2.11c.28.45.63.67,1.06.67Z"/>
      </g>
      <g>
        <rect class="cls-11" x="52.59" y="199.61" width="56.22" height="16.01"/>
        <path class="cls-3" d="M108.48,199.94v15.36h-55.57v-15.36h55.57M109.13,199.29h-56.87v16.66h56.87v-16.66h0Z"/>
      </g>
      <g>
        <path class="cls-10" d="M65.2,213.8c-.6,0-1.15-.12-1.68-.36-.52-.24-.98-.6-1.36-1.09-.39-.48-.69-1.09-.92-1.83-.22-.74-.34-1.6-.34-2.6,0-1.19.13-2.2.38-3.04.25-.84.6-1.52,1.04-2.06s.94-.93,1.5-1.18c.56-.25,1.15-.37,1.77-.37.7,0,1.3.13,1.81.39.51.26.94.57,1.29.94l-1.06,1.18c-.22-.27-.51-.49-.86-.66-.35-.17-.71-.25-1.1-.25-.54,0-1.03.16-1.48.47-.45.31-.81.84-1.08,1.58-.27.74-.4,1.74-.4,3.01,0,1,.1,1.82.3,2.47.2.65.49,1.13.86,1.44.37.31.8.47,1.3.47.36,0,.68-.1.98-.29.29-.2.52-.48.7-.84.17-.37.26-.8.26-1.31s-.08-.91-.24-1.25c-.16-.34-.4-.6-.7-.78-.3-.18-.67-.27-1.11-.27-.36,0-.75.12-1.17.35-.42.24-.82.65-1.19,1.23l-.08-1.42c.25-.33.53-.61.84-.84.31-.24.64-.42.99-.55.34-.13.67-.19.97-.19.7,0,1.31.14,1.84.41.53.28.94.69,1.23,1.24.29.55.44,1.24.44,2.07s-.17,1.49-.51,2.07c-.34.58-.79,1.04-1.35,1.37-.56.33-1.17.5-1.84.5Z"/>
        <path class="cls-10" d="M72.14,213.8c-.36,0-.67-.13-.92-.4-.25-.26-.38-.59-.38-.99s.13-.73.38-.99c.25-.25.56-.38.92-.38s.68.13.94.38c.25.25.38.58.38.99s-.13.72-.38.99c-.25.26-.56.4-.94.4Z"/>
        <path class="cls-10" d="M77.9,213.57c.06-1.09.15-2.09.29-3.02.14-.92.34-1.79.61-2.61.26-.82.6-1.62,1.01-2.4.41-.78.91-1.58,1.49-2.38h-5.81v-1.65h7.97v1.2c-.71.89-1.28,1.73-1.73,2.54-.44.8-.79,1.62-1.04,2.46-.25.84-.44,1.73-.56,2.68-.12.95-.2,2.01-.24,3.19h-1.99Z"/>
        <path class="cls-10" d="M87.76,208.76c-.57,0-1.08-.15-1.52-.46-.44-.31-.78-.76-1.02-1.35-.24-.59-.36-1.3-.36-2.13s.12-1.54.36-2.11c.24-.58.58-1.02,1.02-1.32.44-.3.94-.46,1.52-.46s1.1.15,1.53.46c.44.3.78.74,1.02,1.32.24.58.36,1.28.36,2.11s-.12,1.54-.36,2.13c-.24.59-.58,1.04-1.02,1.35-.44.31-.95.46-1.53.46ZM87.76,207.64c.44,0,.79-.23,1.07-.69.28-.46.41-1.17.41-2.12s-.14-1.65-.41-2.09c-.28-.44-.63-.66-1.07-.66s-.78.22-1.06.66c-.28.44-.42,1.13-.42,2.09s.14,1.66.42,2.12c.28.46.63.69,1.06.69ZM88.15,213.8l6.79-12.87h1.23l-6.79,12.87h-1.23ZM96.57,213.8c-.57,0-1.08-.16-1.52-.47-.44-.31-.78-.76-1.02-1.35-.24-.58-.36-1.29-.36-2.12s.12-1.55.36-2.12c.24-.57.58-1.01,1.02-1.32.44-.31.94-.46,1.52-.46s1.08.15,1.52.46c.44.31.78.75,1.02,1.32.24.57.36,1.28.36,2.12s-.12,1.54-.36,2.12c-.24.58-.58,1.03-1.02,1.35-.44.31-.94.47-1.52.47ZM96.57,212.64c.43,0,.78-.22,1.07-.67s.43-1.15.43-2.11-.14-1.67-.43-2.11c-.29-.44-.64-.66-1.07-.66s-.78.22-1.06.66c-.28.44-.42,1.14-.42,2.11s.14,1.66.42,2.11c.28.45.63.67,1.06.67Z"/>
      </g>
      <g>
        <rect class="cls-11" x="84.56" y="154.91" width="56.22" height="16.01"/>
        <path class="cls-3" d="M140.45,155.23v15.36h-55.57v-15.36h55.57M141.1,154.58h-56.87v16.66h56.87v-16.66h0Z"/>
      </g>
      <g>
        <path class="cls-10" d="M95.25,168.86c.06-1.09.15-2.09.29-3.02.14-.92.34-1.79.61-2.61.26-.82.6-1.62,1.01-2.4.41-.78.91-1.58,1.49-2.38h-5.81v-1.65h7.97v1.2c-.71.89-1.28,1.73-1.73,2.54-.44.8-.79,1.62-1.04,2.46-.25.84-.44,1.73-.56,2.68-.12.95-.2,2.01-.24,3.19h-1.99Z"/>
        <path class="cls-10" d="M104.11,169.1c-.36,0-.67-.13-.92-.4-.25-.26-.38-.59-.38-.99s.13-.73.38-.99c.25-.25.56-.38.92-.38s.68.13.94.38c.25.25.38.58.38.99s-.13.72-.38.99c-.25.26-.56.4-.94.4Z"/>
        <path class="cls-10" d="M111.44,169.1c-.83,0-1.55-.25-2.15-.73-.6-.49-1.06-1.2-1.39-2.14-.33-.94-.49-2.09-.49-3.45s.16-2.5.49-3.42c.33-.92.79-1.62,1.39-2.09.6-.47,1.32-.71,2.15-.71s1.53.24,2.12.71c.6.47,1.06,1.17,1.38,2.09.33.92.49,2.06.49,3.42s-.16,2.51-.49,3.45c-.33.94-.79,1.65-1.38,2.14-.6.49-1.3.73-2.12.73ZM111.44,167.55c.42,0,.79-.16,1.11-.47.33-.31.58-.82.76-1.52.18-.7.27-1.62.27-2.78s-.09-2.08-.27-2.75c-.18-.68-.43-1.17-.76-1.47-.33-.3-.7-.46-1.11-.46s-.79.15-1.11.46c-.33.3-.58.79-.77,1.47-.19.68-.28,1.6-.28,2.75s.09,2.08.28,2.78c.19.7.44,1.2.77,1.52.33.31.7.47,1.11.47Z"/>
        <path class="cls-10" d="M119.73,164.06c-.57,0-1.08-.15-1.52-.46-.44-.31-.78-.76-1.02-1.35-.24-.59-.36-1.3-.36-2.13s.12-1.54.36-2.11c.24-.58.58-1.02,1.02-1.32.44-.3.94-.46,1.52-.46s1.1.15,1.53.46c.44.3.78.74,1.02,1.32.24.58.36,1.28.36,2.11s-.12,1.54-.36,2.13c-.24.59-.58,1.04-1.02,1.35-.44.31-.95.46-1.53.46ZM119.73,162.93c.44,0,.79-.23,1.07-.69.28-.46.41-1.17.41-2.12s-.14-1.65-.41-2.09c-.28-.44-.63-.66-1.07-.66s-.78.22-1.06.66c-.28.44-.42,1.13-.42,2.09s.14,1.66.42,2.12c.28.46.63.69,1.06.69ZM120.12,169.1l6.79-12.87h1.23l-6.79,12.87h-1.23ZM128.54,169.1c-.57,0-1.08-.16-1.52-.47-.44-.31-.78-.76-1.02-1.35-.24-.58-.36-1.29-.36-2.12s.12-1.55.36-2.12c.24-.57.58-1.01,1.02-1.32.44-.31.94-.46,1.52-.46s1.08.15,1.52.46c.44.31.78.75,1.02,1.32.24.57.36,1.28.36,2.12s-.12,1.54-.36,2.12c-.24.58-.58,1.03-1.02,1.35-.44.31-.94.47-1.52.47ZM128.54,167.93c.43,0,.78-.22,1.07-.67s.43-1.15.43-2.11-.14-1.67-.43-2.11c-.29-.44-.64-.66-1.07-.66s-.78.22-1.06.66c-.28.44-.42,1.14-.42,2.11s.14,1.66.42,2.11c.28.45.63.67,1.06.67Z"/>
      </g>
      <g>
        <rect class="cls-11" x="167.13" y="81.58" width="56.22" height="16.01"/>
        <path class="cls-3" d="M223.02,81.9v15.36h-55.57v-15.36h55.57M223.67,81.26h-56.87v16.66h56.87v-16.66h0Z"/>
      </g>
      <g>
        <path class="cls-10" d="M176,95.54v-1.6h2.73v-8.29h-2.22v-1.23c.58-.11,1.09-.24,1.52-.4.43-.15.83-.33,1.19-.55h1.47v10.46h2.41v1.6h-7.09Z"/>
        <path class="cls-10" d="M186.68,95.77c-.36,0-.67-.13-.92-.4-.25-.26-.38-.59-.38-.99s.13-.73.38-.99c.25-.25.56-.38.92-.38s.68.13.94.38c.25.25.38.58.38.99s-.13.72-.38.99c-.25.26-.56.4-.94.4Z"/>
        <path class="cls-10" d="M189.93,95.54v-1.13c1.16-1.13,2.15-2.14,2.97-3.02.83-.88,1.46-1.68,1.9-2.39.44-.71.66-1.38.66-2.01,0-.45-.08-.84-.23-1.16-.15-.33-.38-.58-.69-.76-.31-.18-.7-.27-1.17-.27s-.93.14-1.33.41-.77.6-1.11.97l-1.1-1.08c.53-.58,1.09-1.04,1.68-1.37.59-.33,1.29-.49,2.11-.49.75,0,1.41.15,1.97.46.56.3,1,.73,1.31,1.27.31.54.46,1.18.46,1.91s-.21,1.47-.61,2.22c-.41.75-.96,1.53-1.66,2.34-.7.81-1.48,1.66-2.34,2.56.33-.03.67-.06,1.04-.09.36-.03.7-.04,1-.04h3.17v1.67h-8.02Z"/>
        <path class="cls-10" d="M202.3,90.73c-.57,0-1.08-.15-1.52-.46-.44-.31-.78-.76-1.02-1.35-.24-.59-.36-1.3-.36-2.13s.12-1.54.36-2.11c.24-.58.58-1.02,1.02-1.32.44-.3.94-.46,1.52-.46s1.1.15,1.53.46c.44.3.78.74,1.02,1.32.24.58.36,1.28.36,2.11s-.12,1.54-.36,2.13c-.24.59-.58,1.04-1.02,1.35-.44.31-.95.46-1.53.46ZM202.3,89.6c.44,0,.79-.23,1.07-.69.28-.46.41-1.17.41-2.12s-.14-1.65-.41-2.09c-.28-.44-.63-.66-1.07-.66s-.78.22-1.06.66c-.28.44-.42,1.13-.42,2.09s.14,1.66.42,2.12c.28.46.63.69,1.06.69ZM202.69,95.77l6.79-12.87h1.23l-6.79,12.87h-1.23ZM211.11,95.77c-.57,0-1.08-.16-1.52-.47-.44-.31-.78-.76-1.02-1.35-.24-.58-.36-1.29-.36-2.12s.12-1.55.36-2.12c.24-.57.58-1.01,1.02-1.32.44-.31.94-.46,1.52-.46s1.08.15,1.52.46c.44.31.78.75,1.02,1.32.24.57.36,1.28.36,2.12s-.12,1.54-.36,2.12c-.24.58-.58,1.03-1.02,1.35-.44.31-.94.47-1.52.47ZM211.11,94.61c.43,0,.78-.22,1.07-.67s.43-1.15.43-2.11-.14-1.67-.43-2.11c-.29-.44-.64-.66-1.07-.66s-.78.22-1.06.66c-.28.44-.42,1.14-.42,2.11s.14,1.66.42,2.11c.28.45.63.67,1.06.67Z"/>
      </g>
      <g>
        <path class="cls-10" d="M237.93,143.55h14.06v1.43h-14.06v-1.43ZM238.94,136.16h12.02v1.45h-12.02v-1.45ZM244.14,131.26h1.57v13.23h-1.57v-13.23Z"/>
        <path class="cls-10" d="M259.19,135.74l1.29.45c-.35.81-.76,1.6-1.24,2.36-.47.77-.99,1.5-1.55,2.18-.56.69-1.15,1.32-1.78,1.89-.63.57-1.27,1.06-1.94,1.46-.08-.12-.19-.26-.32-.42-.13-.16-.26-.31-.4-.46-.14-.15-.27-.28-.38-.38.64-.34,1.27-.77,1.89-1.28.62-.51,1.21-1.09,1.77-1.72.56-.63,1.07-1.3,1.52-1.99.45-.69.83-1.39,1.14-2.1ZM253.53,134.98h13.58v1.45h-13.58v-1.45ZM259.52,131.23h1.57v14.43h-1.57v-14.43ZM261.37,135.79c.33.68.73,1.37,1.19,2.04.46.68.97,1.33,1.53,1.95.56.62,1.15,1.19,1.77,1.7.62.51,1.24.94,1.86,1.29-.11.09-.24.21-.39.37-.15.15-.28.31-.4.47-.12.16-.23.31-.31.44-.64-.41-1.27-.9-1.89-1.47-.62-.57-1.21-1.19-1.77-1.87-.56-.68-1.08-1.41-1.56-2.16-.48-.76-.9-1.52-1.28-2.3l1.24-.45Z"/>
        <path class="cls-10" d="M268.51,133.82h6v1.18h-6v-1.18ZM269.21,140.19h1.28v5.29h-1.28v-5.29ZM269.24,135.96h4.73v1.14h-4.73v-1.14ZM269.24,138.06h4.73v1.14h-4.73v-1.14ZM269.32,131.75h4.62v1.15h-4.62v-1.15ZM269.92,140.19h4.01v4.62h-4.01v-1.18h2.74v-2.26h-2.74v-1.18ZM275.62,131.7h1.38v1.9c0,.47-.05.96-.15,1.47-.1.51-.29,1.01-.58,1.49-.29.48-.7.9-1.25,1.27-.06-.09-.16-.2-.3-.33-.13-.12-.27-.25-.42-.37-.15-.12-.27-.21-.37-.26.49-.33.85-.68,1.09-1.06.24-.37.4-.75.47-1.14.08-.38.12-.76.12-1.12v-1.87ZM280.7,137.95h.28l.25-.05.96.36c-.27,1.03-.64,1.94-1.12,2.75-.48.8-1.04,1.51-1.69,2.11-.65.6-1.36,1.11-2.14,1.53s-1.61.76-2.49,1.02c-.04-.13-.11-.28-.2-.44-.09-.16-.19-.32-.3-.47-.1-.16-.2-.29-.3-.39.8-.2,1.56-.47,2.27-.83.72-.36,1.37-.79,1.96-1.31.59-.51,1.1-1.11,1.52-1.78.43-.67.75-1.43.98-2.25v-.23ZM274.71,137.95h6.56v1.34h-6.56v-1.34ZM276.72,139.3c.54,1.23,1.36,2.3,2.46,3.19,1.1.89,2.41,1.52,3.92,1.9-.1.09-.22.22-.34.37s-.24.31-.35.47-.2.29-.27.42c-1.58-.47-2.93-1.21-4.05-2.22-1.13-1.01-2.01-2.25-2.67-3.72l1.31-.4ZM276.18,131.7h3.83v1.31h-3.83v-1.31ZM279.27,131.7h1.38v3.69c0,.19.02.31.05.36.03.05.1.08.22.08h.61c.08,0,.15-.04.19-.11.04-.07.07-.23.09-.47.02-.24.04-.6.05-1.07.13.11.32.22.57.31.24.09.46.17.65.22-.03.62-.1,1.11-.2,1.45-.1.35-.25.59-.44.72s-.44.2-.75.2h-1.01c-.35,0-.63-.05-.84-.15-.21-.1-.35-.27-.44-.51-.08-.24-.12-.58-.12-1.02v-3.7Z"/>
        <path class="cls-10" d="M284.26,133.82h6.27v1.18h-6.27v-1.18ZM284.97,140.19h1.29v5.29h-1.29v-5.29ZM285,135.96h4.93v1.14h-4.93v-1.14ZM285,138.06h4.93v1.14h-4.93v-1.14ZM285.08,131.75h4.87v1.15h-4.87v-1.15ZM285.67,140.19h4.21v4.62h-4.21v-1.18h2.91v-2.26h-2.91v-1.18ZM290.49,136.52h8.38v1.45h-8.38v-1.45ZM293.98,131.28h1.49v14.39h-1.49v-14.39Z"/>
        <path class="cls-10" d="M300.08,137.17h8.06v1.34h-8.06v-1.34ZM300.45,132.85h7.48v1.29h-7.48v-1.29ZM301.06,139.74h6.28v5.88h-1.43v-4.6h-3.48v4.67h-1.37v-5.94ZM301.38,134.64l1.23-.26c.17.37.31.79.44,1.24s.21.84.25,1.17l-1.29.3c-.02-.33-.09-.73-.21-1.18-.12-.46-.26-.88-.41-1.26ZM301.57,143.54h4.99v1.29h-4.99v-1.29ZM303.47,131.31h1.43v2.35h-1.43v-2.35ZM305.72,134.3l1.4.31c-.17.45-.33.89-.51,1.34-.17.45-.34.84-.51,1.16l-1.17-.3c.1-.23.2-.49.3-.79.09-.3.18-.6.27-.91.09-.31.16-.58.21-.82ZM308.69,132.14h4.62v1.38h-3.17v12.15h-1.45v-13.53ZM312.92,132.14h.28l.23-.05,1.09.67c-.3.75-.63,1.54-.99,2.38-.36.84-.71,1.6-1.05,2.29.49.48.86.93,1.11,1.37.25.44.43.85.53,1.24s.15.77.15,1.13c0,.52-.06.96-.19,1.32-.12.36-.33.64-.62.84-.28.19-.63.31-1.04.37-.19.02-.39.03-.62.03h-.68c-.01-.21-.05-.45-.11-.73-.06-.28-.16-.52-.28-.73.22.02.42.03.6.04.18,0,.34,0,.47,0,.12-.01.24-.03.34-.05.1-.03.2-.06.3-.1.16-.1.26-.25.32-.45.06-.2.09-.44.09-.72,0-.46-.13-.97-.38-1.54-.25-.57-.74-1.18-1.45-1.82.18-.39.35-.82.54-1.28.18-.46.36-.91.54-1.37.18-.46.33-.89.47-1.3.14-.41.26-.76.37-1.05v-.5Z"/>
        <path class="cls-10" d="M316.13,131.92h1.45v13.75h-1.45v-13.75ZM316.83,134.25h4.14v1.07h-4.14v-1.07ZM316.96,131.92h4.91v5.85h-4.91v-1.2h3.53v-3.44h-3.53v-1.21ZM328.37,131.92v1.21h-3.81v3.45h3.81v1.21h-5.21v-5.88h5.21ZM324,134.25h4.2v1.07h-4.2v-1.07ZM327.59,131.92h1.48v11.87c0,.46-.06.81-.17,1.05-.11.24-.32.43-.62.55-.3.12-.7.2-1.2.23-.5.03-1.11.04-1.84.04-.02-.13-.06-.29-.12-.47-.06-.18-.12-.37-.19-.56-.07-.19-.15-.35-.22-.47.34.01.68.02,1.02.02.34,0,.63,0,.89,0h.54c.16-.01.26-.04.33-.1.06-.06.09-.16.09-.3v-11.85Z"/>
        <path class="cls-10" d="M265.13,161.21v-1.48h2.52v-7.65h-2.05v-1.14c.54-.1,1.01-.23,1.41-.37s.76-.31,1.1-.5h1.35v9.66h2.22v1.48h-6.55Z"/>
        <path class="cls-10" d="M273.7,164.32l-.4-1.01c.54-.23.96-.53,1.26-.91.3-.38.45-.8.44-1.27l-.12-1.43.75,1.18c-.1.11-.22.19-.36.24-.13.05-.28.07-.44.07-.31,0-.59-.1-.83-.3-.24-.2-.37-.49-.37-.85s.12-.63.37-.84c.24-.21.54-.31.88-.31.45,0,.79.17,1.03.51.24.34.36.81.36,1.42,0,.82-.23,1.53-.68,2.14-.45.61-1.08,1.06-1.87,1.36Z"/>
        <path class="cls-10" d="M281.32,161.42c-.6,0-1.13-.07-1.59-.22-.46-.15-.87-.34-1.22-.58-.35-.24-.66-.51-.92-.79l.87-1.15c.34.33.73.62,1.17.87s.95.37,1.54.37c.44,0,.81-.07,1.14-.22.32-.14.57-.35.75-.62.18-.27.27-.59.27-.96,0-.42-.1-.77-.3-1.07s-.55-.53-1.04-.69c-.49-.17-1.17-.25-2.03-.25v-1.34c.76,0,1.35-.09,1.78-.26.43-.17.74-.4.93-.68.19-.28.29-.6.29-.96,0-.5-.16-.89-.47-1.17s-.74-.43-1.29-.43c-.44,0-.84.1-1.22.3-.38.2-.73.46-1.07.79l-.93-1.12c.46-.4.95-.74,1.49-1,.54-.26,1.14-.4,1.79-.4s1.29.11,1.82.34c.53.23.94.56,1.24.99.3.43.45.95.45,1.56,0,.64-.18,1.18-.54,1.61-.36.43-.84.76-1.44.99v.08c.44.1.83.28,1.19.53s.64.56.85.94c.21.38.31.82.31,1.33,0,.67-.17,1.25-.52,1.73-.35.48-.81.84-1.39,1.1-.58.25-1.22.38-1.91.38Z"/>
        <path class="cls-10" d="M289.67,161.42c-.65,0-1.22-.12-1.69-.37-.47-.24-.87-.53-1.19-.86l.98-1.12c.21.26.47.47.8.62.33.16.66.23,1,.23.5,0,.95-.14,1.37-.44.41-.29.75-.78,1-1.46.25-.68.37-1.61.37-2.77,0-.92-.09-1.68-.28-2.28-.19-.6-.45-1.04-.79-1.32-.34-.29-.74-.43-1.21-.43-.33,0-.63.09-.9.26-.27.18-.48.43-.64.76s-.23.74-.23,1.21.07.85.21,1.17c.14.32.35.56.64.73.29.17.63.25,1.03.25.33,0,.69-.11,1.08-.34.39-.23.75-.61,1.1-1.13l.08,1.32c-.22.3-.47.56-.77.78-.3.22-.6.38-.91.5-.31.11-.61.17-.9.17-.64,0-1.21-.13-1.69-.38-.48-.25-.86-.63-1.14-1.14-.27-.51-.41-1.15-.41-1.91s.16-1.37.47-1.91c.32-.54.73-.96,1.25-1.26.52-.3,1.08-.45,1.7-.45.55,0,1.07.11,1.55.33.48.22.9.55,1.26,1,.36.45.64,1.01.85,1.69.21.67.31,1.47.31,2.4,0,1.09-.12,2.02-.35,2.81-.23.78-.55,1.42-.96,1.91-.41.49-.87.86-1.38,1.09-.51.23-1.05.35-1.61.35Z"/>
        <path class="cls-10" d="M299.27,161.42c-.72,0-1.35-.13-1.91-.4-.56-.26-1-.63-1.33-1.09-.33-.46-.49-.99-.49-1.58,0-.48.1-.9.3-1.27.2-.37.45-.69.76-.97.31-.28.64-.51.98-.68v-.06c-.41-.3-.77-.66-1.07-1.09-.3-.42-.45-.93-.45-1.51s.14-1.11.43-1.55c.29-.44.67-.78,1.17-1.02.49-.24,1.05-.36,1.69-.36s1.23.13,1.71.38c.48.25.85.6,1.11,1.05.26.45.4.96.4,1.55,0,.38-.08.74-.23,1.07s-.35.63-.58.89c-.23.26-.46.48-.7.65v.06c.34.2.66.43.96.68.3.26.53.57.71.93.18.36.26.79.26,1.28,0,.56-.15,1.07-.46,1.52-.31.46-.74.82-1.29,1.09-.55.27-1.21.4-1.95.4ZM299.32,160.12c.38,0,.72-.07,1.02-.22.3-.14.53-.35.69-.61.17-.26.25-.58.25-.94,0-.32-.07-.6-.22-.83-.15-.23-.35-.44-.61-.61-.26-.18-.56-.34-.89-.49-.34-.15-.7-.3-1.1-.44-.39.26-.72.58-.96.95-.25.37-.37.79-.37,1.26,0,.38.1.72.29,1.01.19.29.45.52.79.68.33.17.7.25,1.12.25ZM300.04,155c.33-.31.58-.64.75-.98.17-.34.26-.7.26-1.07,0-.34-.07-.65-.2-.92-.13-.27-.33-.48-.6-.64-.26-.16-.58-.23-.96-.23-.47,0-.86.14-1.17.43s-.47.68-.47,1.19c0,.4.11.74.33,1,.22.26.51.49.87.68.36.19.75.37,1.17.54Z"/>
      </g>
      <g>
        <path class="cls-10" d="M230.51,324.28h.3l.25-.03.86.2c-.21,2.3-.63,4.18-1.27,5.64-.64,1.46-1.46,2.57-2.47,3.31-.07-.1-.18-.22-.32-.35-.14-.13-.28-.26-.42-.38s-.27-.22-.38-.28c.98-.66,1.77-1.64,2.34-2.92.58-1.29.95-2.92,1.11-4.91v-.28ZM227.2,319.86h3.33v1.31h-3.33v-1.31ZM229.99,319.86h.2l.22-.06,1.01.28c-.24.57-.51,1.21-.82,1.9-.31.7-.64,1.41-.97,2.12-.34.71-.66,1.38-.97,2.01l-1.34-.36c.24-.47.49-.96.75-1.49.26-.52.51-1.05.75-1.58.24-.53.46-1.02.67-1.48.21-.46.38-.86.51-1.2v-.16ZM228.75,326.66c.31,1.05.72,1.89,1.23,2.54.51.65,1.1,1.14,1.78,1.48.68.34,1.43.57,2.26.69.83.12,1.73.19,2.69.19h3.05c.41,0,.8,0,1.15,0,.35,0,.62-.01.81-.02-.07.1-.15.24-.23.42-.08.18-.15.35-.21.54s-.11.34-.14.47h-4.48c-1.12,0-2.15-.08-3.09-.23-.94-.15-1.79-.44-2.55-.86-.76-.42-1.42-1.02-2-1.79-.58-.77-1.06-1.78-1.44-3.01l1.17-.42ZM228.67,324.28h2.43v1.31h-2.52l.09-1.31ZM231.47,322.1h10.11v1.17h-10.11v-1.17ZM231.69,328.4h9.55v1.18h-9.55v-1.18ZM232.39,326.29h8.16v1.1h-8.16v-1.1ZM232.58,320.06h7.84v5.27h-7.93v-1.15h6.49v-2.99h-6.39v-1.13ZM235.62,319.05h1.42v12.01h-1.42v-12.01Z"/>
        <path class="cls-10" d="M249.02,329.13l1.12.5c-.36.38-.79.75-1.27,1.09-.48.34-1,.66-1.56.94-.55.29-1.13.54-1.72.77-.59.23-1.18.42-1.76.56-.1-.19-.25-.4-.43-.64-.18-.24-.34-.43-.49-.58.57-.1,1.15-.24,1.73-.42.59-.18,1.15-.38,1.69-.61.54-.23,1.04-.48,1.5-.75.46-.27.85-.55,1.17-.86ZM245.22,318.84l1.38.36c-.3.67-.67,1.33-1.11,1.97-.44.64-.89,1.17-1.35,1.61-.08-.07-.2-.16-.34-.26-.15-.1-.29-.21-.44-.3-.15-.1-.29-.18-.41-.24.47-.38.9-.85,1.31-1.41s.73-1.13.96-1.72ZM243.17,326.32c.5-.06,1.07-.14,1.7-.23.64-.09,1.31-.19,2.03-.3.72-.11,1.43-.22,2.15-.33l.06,1.13c-1.03.17-2.04.33-3.05.48-1.01.16-1.91.3-2.71.44l-.19-1.2ZM243.23,328.48h14.01v1.18h-14.01v-1.18ZM243.5,323.07h5.54v1.06h-5.54v-1.06ZM245.04,320.08h4.96v1.18h-4.96v-1.18ZM245.61,323.39h1.34v3.13h-1.34v-3.13ZM245.77,321.01l1.15-.31c.18.27.35.56.52.88.17.32.3.59.38.82l-1.21.36c-.06-.24-.17-.52-.33-.84-.16-.32-.33-.62-.51-.9ZM249.86,322.97h1.34v1.6c0,.44-.07.87-.2,1.31-.13.44-.39.86-.78,1.24-.38.39-.94.73-1.68,1.02-.05-.09-.14-.21-.26-.33-.12-.13-.24-.26-.37-.38-.13-.12-.24-.22-.33-.28.65-.23,1.14-.49,1.47-.77s.54-.58.65-.9.16-.64.16-.96v-1.55ZM251.44,318.84l1.4.34c-.29.69-.67,1.36-1.13,1.99-.46.63-.94,1.16-1.42,1.57-.09-.07-.22-.15-.37-.24s-.32-.18-.48-.26c-.17-.09-.31-.16-.42-.21.51-.38.98-.86,1.42-1.42.44-.56.77-1.15,1.01-1.76ZM249.48,327.39h1.43v5.94h-1.43v-5.94ZM251.37,329.19c.33.29.73.57,1.2.82s.97.5,1.52.71c.55.21,1.12.4,1.7.57.59.17,1.16.29,1.73.39-.09.1-.2.23-.33.37-.12.15-.24.3-.34.45-.1.16-.19.3-.26.44-.57-.15-1.15-.32-1.75-.54-.6-.21-1.17-.46-1.73-.74-.55-.28-1.07-.59-1.56-.93-.48-.34-.9-.7-1.27-1.07l1.07-.47ZM250.37,322.97h4.4v1.01h-4.4v-1.01ZM251.16,325.26l.86-.75c.24.13.48.3.74.48.25.19.49.37.72.55.22.18.4.35.54.51l-.87.86c-.22-.24-.51-.51-.89-.82-.37-.31-.74-.59-1.09-.82ZM251.2,320.08h6.17v1.18h-6.17v-1.18ZM252.52,321.01l1.2-.34c.24.25.47.53.7.85s.39.6.5.86l-1.24.37c-.1-.24-.26-.52-.48-.85-.22-.33-.44-.62-.67-.89ZM254.06,322.97h1.38v2.99c0,.13,0,.24,0,.33,0,.08.02.14.04.17.04.04.11.06.22.06h.34s.09,0,.14-.02c.05-.01.09-.02.11-.03.06-.04.11-.15.14-.33.02-.09.03-.24.04-.44,0-.2.01-.44.02-.71.12.1.28.2.47.3.19.09.36.17.53.22-.02.29-.04.58-.07.87-.03.29-.06.5-.12.62-.09.26-.25.44-.47.54-.09.04-.21.08-.35.1-.14.03-.28.04-.41.04h-.75c-.18,0-.35-.03-.52-.08-.17-.05-.31-.13-.43-.23-.12-.11-.21-.27-.26-.46-.05-.19-.07-.51-.07-.96v-2.99Z"/>
        <path class="cls-10" d="M258.8,324.87h8.06v1.34h-8.06v-1.34ZM259.17,320.55h7.48v1.29h-7.48v-1.29ZM259.78,327.44h6.28v5.88h-1.43v-4.6h-3.48v4.67h-1.37v-5.94ZM260.11,322.33l1.23-.26c.17.37.31.79.44,1.24.12.45.21.84.25,1.17l-1.29.3c-.02-.33-.09-.73-.21-1.18s-.26-.88-.41-1.26ZM260.29,331.23h4.99v1.29h-4.99v-1.29ZM262.19,319.01h1.43v2.35h-1.43v-2.35ZM264.45,321.99l1.4.31c-.17.45-.33.89-.51,1.34-.17.45-.34.84-.51,1.16l-1.17-.3c.1-.23.2-.49.3-.79s.18-.6.27-.91c.09-.31.16-.58.21-.82ZM267.42,319.83h4.62v1.38h-3.17v12.15h-1.45v-13.53ZM271.65,319.83h.28l.23-.05,1.09.67c-.3.75-.63,1.54-.99,2.38-.36.84-.71,1.6-1.05,2.29.49.48.86.93,1.11,1.37s.43.85.53,1.24.15.77.15,1.13c0,.52-.06.96-.19,1.32s-.33.64-.62.84c-.28.19-.63.31-1.04.37-.19.02-.39.03-.62.03h-.68c-.01-.21-.05-.45-.11-.73-.06-.28-.16-.52-.28-.73.22.02.42.03.6.04s.34,0,.47,0c.12-.01.24-.03.34-.05.1-.03.2-.06.3-.1.16-.1.26-.25.32-.45.06-.2.09-.44.09-.72,0-.46-.13-.97-.38-1.54-.25-.57-.74-1.18-1.45-1.82.18-.39.35-.82.54-1.28.18-.46.36-.91.54-1.37.18-.46.33-.89.47-1.3.14-.41.26-.76.37-1.05v-.5Z"/>
        <path class="cls-10" d="M274.86,319.61h1.45v13.75h-1.45v-13.75ZM275.56,321.95h4.14v1.07h-4.14v-1.07ZM275.68,319.61h4.91v5.85h-4.91v-1.2h3.53v-3.44h-3.53v-1.21ZM287.1,319.61v1.21h-3.81v3.45h3.81v1.21h-5.21v-5.88h5.21ZM282.73,321.95h4.2v1.07h-4.2v-1.07ZM286.32,319.61h1.48v11.87c0,.46-.06.81-.17,1.05-.11.24-.32.43-.62.55-.3.12-.7.2-1.2.23-.5.03-1.11.04-1.84.04-.02-.13-.06-.29-.12-.47-.06-.18-.12-.37-.19-.56-.07-.19-.15-.35-.22-.47.34.01.68.02,1.02.02.34,0,.63,0,.89,0h.54c.16-.01.26-.04.33-.1.06-.06.09-.16.09-.3v-11.85Z"/>
        <path class="cls-10" d="M245.47,348.9v-1.04c1.07-1.05,1.98-1.98,2.74-2.79.76-.81,1.35-1.55,1.75-2.21s.61-1.28.61-1.86c0-.42-.07-.77-.21-1.07-.14-.3-.35-.53-.64-.7-.29-.17-.65-.25-1.08-.25s-.86.13-1.23.38-.72.55-1.03.89l-1.01-1c.49-.54,1-.96,1.55-1.26.54-.3,1.19-.45,1.95-.45.69,0,1.3.14,1.82.42.52.28.92.67,1.21,1.17s.43,1.09.43,1.76-.19,1.36-.57,2.05c-.38.69-.89,1.42-1.53,2.16-.64.75-1.36,1.54-2.16,2.36.3-.03.62-.06.96-.09.34-.03.65-.04.93-.04h2.92v1.54h-7.4Z"/>
        <path class="cls-10" d="M257.91,349.12c-.72,0-1.35-.13-1.91-.4s-1-.63-1.33-1.09c-.33-.46-.49-.99-.49-1.58,0-.48.1-.9.3-1.27.2-.37.45-.69.76-.97.31-.28.64-.51.98-.68v-.06c-.41-.3-.77-.66-1.07-1.09-.3-.42-.45-.93-.45-1.51s.14-1.11.43-1.55c.29-.44.67-.78,1.17-1.02.49-.24,1.05-.36,1.69-.36s1.23.13,1.71.38c.48.25.85.6,1.11,1.05.26.45.4.96.4,1.55,0,.38-.08.74-.23,1.07-.16.33-.35.63-.58.89-.23.26-.46.48-.7.65v.06c.34.2.66.43.96.68.3.26.53.57.71.93.18.36.26.79.26,1.28,0,.56-.15,1.07-.46,1.52-.31.46-.74.82-1.29,1.09-.55.27-1.21.4-1.95.4ZM257.95,347.81c.38,0,.72-.07,1.02-.22.3-.14.53-.35.69-.61.17-.26.25-.58.25-.94,0-.32-.07-.6-.22-.83-.15-.23-.35-.44-.61-.61-.26-.18-.56-.34-.89-.49-.34-.15-.7-.3-1.1-.44-.39.26-.72.58-.96.95-.25.37-.37.79-.37,1.26,0,.38.1.72.29,1.01.19.29.45.52.79.68.33.17.7.25,1.12.25ZM258.67,342.7c.33-.31.58-.64.75-.98.17-.34.26-.7.26-1.07,0-.34-.07-.65-.2-.92-.13-.27-.33-.48-.6-.64-.26-.16-.58-.23-.96-.23-.47,0-.86.14-1.17.43-.31.29-.47.68-.47,1.19,0,.4.11.74.33,1,.22.26.51.49.87.68.36.19.75.37,1.17.54Z"/>
        <path class="cls-10" d="M265.01,348.9c.05-1.01.14-1.93.27-2.78.13-.85.32-1.65.56-2.41.24-.76.55-1.5.93-2.22.38-.72.84-1.45,1.38-2.2h-5.37v-1.52h7.36v1.1c-.65.82-1.18,1.6-1.59,2.34-.41.74-.73,1.5-.96,2.27-.23.77-.4,1.6-.51,2.47-.11.88-.18,1.86-.23,2.95h-1.84Z"/>
      </g>
      <g>
        <path class="cls-10" d="M161.29,322.61h1.4c-.01,1.08-.04,2.15-.09,3.2-.05,1.06-.15,2.07-.3,3.04-.15.97-.36,1.87-.63,2.7-.27.83-.65,1.57-1.11,2.21-.11-.17-.27-.35-.48-.54-.21-.2-.4-.35-.59-.47.41-.56.74-1.22.97-1.98s.41-1.58.53-2.46c.12-.89.2-1.81.23-2.78.04-.96.06-1.94.07-2.92ZM159.67,321.79h6.61v1.38h-6.61v-1.38ZM164.16,325.1h1.34v.37c0,.09,0,.17-.02.23-.02,1.29-.04,2.37-.07,3.26-.03.89-.06,1.61-.1,2.18-.04.57-.09,1.01-.16,1.32s-.15.55-.25.69c-.13.19-.27.32-.42.4-.15.08-.32.13-.53.16-.19.03-.43.05-.72.05s-.6,0-.93-.02c-.01-.2-.05-.42-.11-.67s-.15-.46-.25-.64c.29.02.55.03.79.04.24,0,.41,0,.51,0,.1,0,.19,0,.26-.03.07-.03.14-.09.2-.19.09-.11.17-.4.22-.87.05-.47.09-1.18.12-2.15.03-.96.06-2.25.09-3.87v-.28ZM161.99,325.1h2.64v1.35h-2.64v-1.35ZM162.27,319.34h1.42v2.92h-1.42v-2.92ZM167.69,319.31l1.45.3c-.27,1.09-.63,2.12-1.07,3.1-.45.98-.96,1.8-1.56,2.46-.07-.08-.18-.19-.31-.32-.13-.13-.27-.26-.41-.39-.14-.13-.27-.24-.4-.32.55-.57,1.02-1.28,1.41-2.14.39-.86.69-1.75.89-2.7ZM165.66,327.43l6.81-3.19.51,1.2-6.81,3.19-.51-1.2ZM166.98,324.43h1.32v7.29c0,.31.06.51.17.6.11.09.37.13.78.13h2.77c.22,0,.38-.04.5-.12.11-.08.19-.25.24-.5.05-.25.09-.62.12-1.1.16.11.35.22.58.31.23.09.44.17.63.22-.05.62-.14,1.11-.27,1.47-.13.36-.33.61-.59.76-.26.15-.64.23-1.11.23h-2.97c-.56,0-1-.06-1.31-.17-.32-.11-.54-.32-.66-.61-.12-.29-.19-.69-.19-1.21v-7.29ZM167.41,321.43h6.47v1.34h-6.47v-1.34ZM169.5,323.26h1.24v7.78h-1.24v-7.78ZM172.11,324.54h-.14l.3-.23.23-.17.92.34-.05.2c0,.56,0,1.09,0,1.58,0,.49-.01.94-.02,1.33,0,.39-.01.73-.02,1-.01.27-.02.46-.03.58-.02.27-.09.48-.21.63-.12.15-.28.26-.49.32-.18.06-.38.1-.6.12-.22.02-.43.02-.63.02-.01-.18-.04-.37-.09-.58-.05-.21-.11-.39-.19-.54.12.01.25.02.39.02h.3c.08,0,.15-.02.19-.05.05-.03.08-.1.1-.2,0-.07,0-.22.02-.45.01-.23.02-.53.02-.91s0-.82,0-1.33c0-.51,0-1.06,0-1.66Z"/>
        <path class="cls-10" d="M175.46,331.15h14.07v1.48h-14.07v-1.48ZM176.29,321.02h12.43v1.52h-12.43v-1.52ZM181.61,321.83h1.65v9.91h-1.65v-9.91Z"/>
        <path class="cls-10" d="M192.51,319.24l1.38.36c-.3.69-.67,1.37-1.11,2.01-.44.65-.89,1.2-1.35,1.64-.08-.08-.2-.17-.35-.27-.15-.1-.3-.2-.45-.3-.15-.1-.28-.18-.4-.24.47-.39.9-.88,1.31-1.45s.73-1.16.96-1.76ZM190.93,323.68h13.3v3h-1.45v-1.88h-10.47v1.88h-1.38v-3ZM192.33,320.46h4.96v1.2h-4.96v-1.2ZM193.06,321.38l1.26-.34c.2.27.39.57.57.91.18.34.31.63.4.88l-1.32.39c-.07-.24-.19-.53-.37-.89s-.35-.67-.54-.95ZM193.25,325.64h1.4v8.13h-1.4v-8.13ZM194.05,325.64h7.81v3.28h-7.81v-1.09h6.35v-1.1h-6.35v-1.09ZM194.12,329.84h8.83v3.92h-1.46v-2.82h-7.37v-1.1ZM194.12,332.19h7.93v1.1h-7.93v-1.1ZM198.74,319.24l1.4.34c-.28.66-.65,1.3-1.1,1.91s-.92,1.11-1.41,1.52c-.09-.07-.22-.16-.37-.25-.16-.09-.31-.18-.47-.27-.16-.09-.3-.16-.43-.21.51-.36.97-.81,1.39-1.35.42-.54.75-1.1.99-1.68ZM196.76,322.52h1.42v1.8h-1.42v-1.8ZM198.49,320.46h6.17v1.2h-6.17v-1.2ZM199.81,321.41l1.29-.37c.24.27.48.57.72.91.24.34.42.64.54.89l-1.34.4c-.11-.25-.29-.55-.51-.89-.23-.35-.46-.66-.7-.94Z"/>
        <path class="cls-10" d="M205.88,330.73c.44-.11.93-.25,1.48-.42.55-.17,1.13-.35,1.74-.54.61-.2,1.22-.39,1.84-.59l.25,1.4c-.85.29-1.71.58-2.58.87s-1.66.55-2.36.79l-.36-1.51ZM206.05,320.31h4.99v1.37h-4.99v-1.37ZM206.21,324.8h4.6v1.35h-4.6v-1.35ZM207.91,320.85h1.4v9.6l-1.4.25v-9.84ZM210.44,331.93h10.06v1.34h-10.06v-1.34ZM211.59,328.72h8.4v1.34h-8.4v-1.34ZM211.73,320.01h8.06v7.11h-8.06v-7.11ZM213.07,321.27v1.7h5.32v-1.7h-5.32ZM213.07,324.15v1.71h5.32v-1.71h-5.32ZM215.12,320.59h1.26v5.93h.11v6.02h-1.49v-6.02h.12v-5.93Z"/>
        <path class="cls-10" d="M175.17,342.12h8.06v1.34h-8.06v-1.34ZM175.54,337.79h7.48v1.29h-7.48v-1.29ZM176.15,344.68h6.28v5.88h-1.43v-4.6h-3.48v4.67h-1.37v-5.94ZM176.47,339.58l1.23-.26c.17.37.31.79.44,1.24.12.45.21.84.25,1.17l-1.29.3c-.02-.33-.09-.73-.21-1.18-.12-.46-.26-.88-.41-1.26ZM176.66,348.48h4.99v1.29h-4.99v-1.29ZM178.56,336.25h1.43v2.35h-1.43v-2.35ZM180.81,339.24l1.4.31c-.17.45-.33.89-.51,1.34-.17.45-.34.84-.51,1.16l-1.17-.3c.1-.23.2-.49.3-.79.09-.3.18-.6.27-.91.09-.31.16-.58.21-.82ZM183.78,337.08h4.62v1.38h-3.17v12.15h-1.45v-13.53ZM188.01,337.08h.28l.23-.05,1.09.67c-.3.75-.63,1.54-.99,2.38-.36.84-.71,1.6-1.05,2.29.49.48.86.93,1.11,1.37.25.44.43.85.53,1.24s.15.77.15,1.13c0,.52-.06.96-.19,1.32-.12.36-.33.64-.62.84-.28.19-.63.31-1.04.37-.19.02-.39.03-.62.03h-.68c-.01-.21-.05-.45-.11-.73-.06-.28-.16-.52-.28-.73.22.02.42.03.6.04.18,0,.34,0,.47,0,.12-.01.24-.03.34-.05.1-.03.2-.06.3-.1.16-.1.26-.25.32-.45.06-.2.09-.44.09-.72,0-.46-.13-.97-.38-1.54-.25-.57-.74-1.18-1.45-1.82.18-.39.35-.82.54-1.28.18-.46.36-.91.54-1.37.18-.46.33-.89.47-1.3.14-.41.26-.76.37-1.05v-.5Z"/>
        <path class="cls-10" d="M191.22,336.86h1.45v13.75h-1.45v-13.75ZM191.92,339.19h4.14v1.07h-4.14v-1.07ZM192.05,336.86h4.91v5.85h-4.91v-1.2h3.53v-3.44h-3.53v-1.21ZM203.46,336.86v1.21h-3.81v3.45h3.81v1.21h-5.21v-5.88h5.21ZM199.09,339.19h4.2v1.07h-4.2v-1.07ZM202.69,336.86h1.48v11.87c0,.46-.06.81-.17,1.05-.11.24-.32.43-.62.55-.3.12-.7.2-1.2.23-.5.03-1.11.04-1.84.04-.02-.13-.06-.29-.12-.47-.06-.18-.12-.37-.19-.56-.07-.19-.15-.35-.22-.47.34.01.68.02,1.02.02.34,0,.64,0,.89,0h.54c.16-.01.26-.04.33-.1.06-.06.09-.16.09-.3v-11.85Z"/>
        <path class="cls-10" d="M177.49,366.15v-1.04c1.07-1.05,1.98-1.98,2.74-2.79.76-.81,1.35-1.55,1.75-2.21s.61-1.28.61-1.86c0-.42-.07-.77-.21-1.07s-.35-.53-.64-.7c-.29-.17-.65-.25-1.08-.25s-.86.13-1.23.38-.72.55-1.03.89l-1.01-1c.49-.54,1-.96,1.55-1.26.54-.3,1.19-.45,1.95-.45.69,0,1.3.14,1.82.42.52.28.92.67,1.21,1.17.29.5.43,1.09.43,1.76s-.19,1.36-.57,2.05c-.38.69-.89,1.42-1.53,2.16-.64.75-1.36,1.54-2.16,2.36.3-.03.62-.06.96-.09.34-.03.65-.04.93-.04h2.92v1.54h-7.4Z"/>
        <path class="cls-10" d="M189.92,366.37c-.72,0-1.35-.13-1.91-.4s-1-.63-1.33-1.09c-.33-.46-.49-.99-.49-1.58,0-.48.1-.9.3-1.27.2-.37.45-.69.76-.97.31-.28.64-.51.98-.68v-.06c-.41-.3-.77-.66-1.07-1.09-.3-.42-.45-.93-.45-1.51s.14-1.11.43-1.55c.29-.44.67-.78,1.17-1.02.49-.24,1.05-.36,1.69-.36.66,0,1.23.13,1.71.38.48.25.85.6,1.11,1.05.26.45.4.96.4,1.55,0,.38-.08.74-.23,1.07-.16.33-.35.63-.58.89-.23.26-.46.48-.7.65v.06c.34.2.66.43.96.68.3.26.53.57.71.93.18.36.26.79.26,1.28,0,.56-.15,1.07-.46,1.52-.31.46-.74.82-1.29,1.09-.55.27-1.21.4-1.95.4ZM189.97,365.06c.38,0,.72-.07,1.02-.22.3-.14.53-.35.69-.61.17-.26.25-.58.25-.94,0-.32-.07-.6-.22-.83-.15-.23-.35-.44-.61-.61-.26-.18-.56-.34-.89-.49-.34-.15-.7-.3-1.1-.44-.39.26-.72.58-.96.95-.25.37-.37.79-.37,1.26,0,.38.1.72.29,1.01.19.29.45.52.79.68.33.17.7.25,1.12.25ZM190.68,359.95c.33-.31.58-.64.75-.98.17-.34.26-.7.26-1.07,0-.34-.07-.65-.2-.92-.13-.27-.33-.48-.6-.64-.26-.16-.58-.23-.96-.23-.47,0-.86.14-1.17.43-.31.29-.47.68-.47,1.19,0,.4.11.74.33,1,.22.26.51.49.87.68.36.19.75.37,1.17.54Z"/>
        <path class="cls-10" d="M195.02,366.15v-1.04c1.07-1.05,1.98-1.98,2.74-2.79.76-.81,1.35-1.55,1.75-2.21s.61-1.28.61-1.86c0-.42-.07-.77-.21-1.07s-.35-.53-.64-.7c-.29-.17-.65-.25-1.08-.25s-.86.13-1.23.38-.72.55-1.03.89l-1.01-1c.49-.54,1-.96,1.55-1.26.54-.3,1.19-.45,1.95-.45.69,0,1.3.14,1.82.42.52.28.92.67,1.21,1.17.29.5.43,1.09.43,1.76s-.19,1.36-.57,2.05c-.38.69-.89,1.42-1.53,2.16-.64.75-1.36,1.54-2.16,2.36.3-.03.62-.06.96-.09.34-.03.65-.04.93-.04h2.92v1.54h-7.4Z"/>
      </g>
      <g>
        <path class="cls-10" d="M76.74,273.19l.86.3c-.11.61-.26,1.25-.44,1.91-.18.66-.37,1.32-.59,1.96s-.45,1.24-.71,1.79c-.25.55-.52,1.02-.79,1.42-.07-.2-.18-.42-.32-.67-.14-.25-.27-.46-.38-.62.25-.34.49-.75.74-1.23.24-.48.47-.99.68-1.53.21-.54.39-1.1.55-1.67.16-.57.29-1.12.4-1.65ZM74.72,272.32h5.09v1.37h-5.09v-1.37ZM76.77,269.01h1.34v14.42h-1.34v-14.42ZM78.03,274.5c.09.11.23.3.41.57.18.26.38.56.59.88.21.32.4.61.58.88.17.26.29.45.37.57l-.79,1.09c-.08-.22-.2-.48-.37-.79-.16-.31-.33-.63-.51-.96-.18-.33-.35-.64-.51-.93-.17-.28-.3-.52-.4-.69l.64-.61ZM79.52,279.82h9.58v1.1h-9.58v-1.1ZM79.8,274.05h9.13v1.07h-9.13v-1.07ZM80.15,270.22h8.48v1.06h-8.48v-1.06ZM80.47,272.12h7.92v1.04h-7.92v-1.04ZM80.54,275.9h6.81v1.06h-5.47v6.41h-1.34v-7.46ZM81.25,277.86h6.14v1h-6.14v-1ZM81.86,269.01h1.37v5.54h-1.37v-5.54ZM83.61,274.67h1.34v5.63h-1.34v-5.63ZM86.8,275.9h1.35v6.07c0,.33-.04.59-.12.78-.08.19-.23.33-.45.42-.24.09-.54.15-.89.17-.36.02-.79.03-1.3.03-.02-.17-.07-.36-.16-.59-.08-.23-.17-.43-.25-.59.34,0,.66.02.96.02.3,0,.49,0,.6,0,.18,0,.26-.08.26-.25v-6.05ZM85.39,269.01h1.38v5.52h-1.38v-5.52Z"/>
        <path class="cls-10" d="M93.69,280.08c.35.54.84.94,1.47,1.21.63.26,1.37.41,2.23.44.45.02.97.03,1.59.04.61,0,1.26,0,1.94-.02.68-.02,1.35-.03,1.99-.05.64-.02,1.21-.05,1.7-.09-.06.11-.12.26-.19.44-.06.18-.12.37-.17.55-.05.19-.09.36-.12.51-.45.02-.96.04-1.55.05-.59.01-1.19.02-1.82.02-.63,0-1.24,0-1.83,0-.59,0-1.11-.02-1.56-.04-.99-.04-1.83-.2-2.53-.47-.7-.27-1.3-.72-1.81-1.33-.35.32-.72.64-1.1.96-.38.32-.78.65-1.21,1l-.75-1.52c.36-.23.75-.49,1.17-.79s.82-.6,1.19-.9h1.34ZM93.69,275.11v5.61h-1.43v-4.25h-2.01v-1.37h3.44ZM90.34,270.27l1.09-.89c.33.21.67.45,1.02.73.35.28.67.57.96.86.29.29.53.56.72.81l-1.17.96c-.17-.25-.39-.52-.68-.82-.29-.3-.6-.59-.93-.88-.34-.29-.67-.55-1-.78ZM96.3,269.2l1.38.31c-.27.79-.62,1.55-1.05,2.29-.43.74-.87,1.36-1.33,1.87-.1-.08-.23-.17-.38-.26-.15-.09-.3-.18-.46-.26-.16-.09-.3-.16-.42-.21.5-.46.94-1.02,1.33-1.69.39-.67.7-1.35.93-2.04ZM94.29,273.83h10.03v1.26h-10.03v-1.26ZM95.63,276.15h7.65v4.48h-7.65v-4.48ZM96.25,270.88h7.42v1.26h-7.42v-1.26ZM97.06,277.35v2.08h4.7v-2.08h-4.7ZM98.62,269.01h1.45v5.66h-1.45v-5.66Z"/>
        <path class="cls-10" d="M106.53,269.9l1.24.2c-.07.69-.16,1.38-.27,2.07s-.24,1.33-.38,1.93c-.15.6-.32,1.13-.51,1.6-.08-.06-.19-.13-.32-.22-.13-.08-.26-.17-.4-.25-.14-.08-.26-.15-.35-.2.19-.42.34-.92.47-1.48.12-.56.23-1.15.32-1.77.09-.62.16-1.25.21-1.88ZM105.66,277.58c.5-.12,1.07-.27,1.7-.45.64-.18,1.31-.37,2.02-.58.71-.21,1.42-.42,2.14-.62l.19,1.31c-.97.3-1.96.61-2.97.92-1.01.31-1.91.59-2.71.84l-.37-1.42ZM106.78,272.12h4.56v1.4h-4.82l.26-1.4ZM108.51,269.01h1.37v14.43h-1.37v-14.43ZM113.34,269.01l1.34.25c-.19.86-.42,1.69-.71,2.49-.29.8-.61,1.54-.98,2.23-.37.69-.76,1.29-1.19,1.81-.08-.07-.19-.16-.33-.27-.13-.11-.27-.21-.42-.32-.15-.1-.27-.19-.39-.25.44-.46.82-1,1.16-1.63.34-.63.63-1.31.89-2.04.25-.73.46-1.49.63-2.26ZM114.87,271.96l1.09.54c-.22.9-.52,1.82-.89,2.76-.38.94-.82,1.81-1.31,2.62-.5.81-1.04,1.48-1.62,2.01-.13-.13-.31-.28-.52-.44-.21-.16-.42-.29-.63-.4.46-.36.89-.81,1.29-1.33.4-.52.77-1.1,1.1-1.74.33-.64.62-1.3.87-1.99.25-.69.46-1.37.62-2.03ZM117.06,272.1l1.15.53c-.19,1.04-.44,2.06-.75,3.08s-.68,1.99-1.1,2.92c-.42.93-.9,1.78-1.43,2.55-.53.77-1.13,1.42-1.8,1.94-.13-.13-.32-.29-.55-.46-.23-.17-.45-.31-.66-.41.68-.49,1.3-1.1,1.85-1.83.55-.73,1.03-1.55,1.45-2.45.42-.9.78-1.85,1.09-2.85.31-1,.55-2.01.74-3.03ZM113.48,271.53h5.79v1.37h-6.42l.64-1.37ZM118.65,271.53h1.4v.44c0,.11,0,.2-.02.27-.08,1.76-.17,3.25-.26,4.48-.09,1.22-.18,2.23-.27,3.02-.09.79-.2,1.4-.32,1.85-.12.45-.26.76-.41.95-.17.24-.34.4-.51.5-.18.09-.39.16-.64.2-.21.03-.47.05-.79.05-.32,0-.65,0-.99-.02-.01-.22-.05-.46-.12-.74-.07-.27-.16-.51-.29-.71.33.03.63.05.9.05.27,0,.48,0,.62,0,.13,0,.24-.02.33-.05.08-.04.17-.11.26-.21.11-.14.22-.42.33-.82.1-.4.2-.98.29-1.74.09-.76.17-1.72.25-2.9.08-1.18.15-2.61.23-4.29v-.34Z"/>
        <path class="cls-10" d="M68.98,290.04l.87.3c-.11.62-.26,1.26-.44,1.93-.18.66-.38,1.31-.6,1.95-.22.64-.46,1.23-.72,1.79-.25.55-.52,1.03-.8,1.42-.08-.2-.19-.42-.33-.67-.14-.25-.27-.46-.38-.64.26-.34.51-.75.75-1.22.24-.47.46-.98.68-1.53.21-.55.4-1.11.58-1.68s.3-1.12.4-1.65ZM66.92,289.14h5.01v1.37h-5.01v-1.37ZM68.99,285.86h1.37v14.42h-1.37v-14.42ZM70.28,291.39c.08.1.22.28.4.54.18.25.38.53.59.83.21.3.4.58.58.84s.29.44.35.54l-.78,1.15c-.09-.21-.22-.46-.37-.76-.15-.3-.31-.61-.48-.94-.17-.33-.34-.63-.5-.91-.16-.28-.29-.5-.4-.67l.61-.62ZM75.74,290.24h1.34v4.06c0,.57-.06,1.14-.19,1.71-.12.57-.36,1.12-.69,1.66-.34.53-.83,1.03-1.47,1.49-.64.46-1.48.86-2.52,1.21-.04-.1-.11-.23-.21-.37-.1-.14-.2-.28-.3-.41-.1-.13-.2-.24-.3-.31.97-.31,1.75-.66,2.33-1.03.58-.38,1.01-.79,1.3-1.23.29-.44.48-.89.58-1.35s.14-.93.14-1.39v-4.03ZM76.42,287.16c-.29.42-.65.86-1.09,1.3-.44.44-.92.86-1.45,1.25-.53.39-1.07.74-1.63,1.03-.07-.19-.18-.4-.32-.63-.14-.23-.27-.43-.4-.58.58-.27,1.14-.6,1.66-1,.53-.39,1.01-.82,1.44-1.28.43-.46.78-.92,1.05-1.38h1.35c.36.51.78.99,1.26,1.45.48.46.98.87,1.52,1.24.54.36,1.08.65,1.62.87-.13.17-.27.37-.41.61-.14.24-.26.47-.35.68-.52-.27-1.05-.6-1.59-.98-.54-.38-1.04-.8-1.5-1.25-.46-.45-.85-.89-1.17-1.33ZM72.46,291.97h8.04v4.15h-8.04v-4.15ZM73.55,289.5h5.83v1.21h-5.83v-1.21ZM73.75,293.1v1.85h5.41v-1.85h-5.41ZM77.22,295.38c.31.77.67,1.39,1.07,1.87.4.48.85.87,1.36,1.15.51.29,1.08.53,1.71.72-.18.16-.34.34-.51.57-.16.22-.28.45-.35.68-.69-.27-1.32-.59-1.88-.96s-1.06-.86-1.49-1.46c-.44-.6-.82-1.37-1.15-2.3l1.24-.26Z"/>
        <path class="cls-10" d="M88.13,288.13l1.21.48c-.34.5-.74.99-1.2,1.46-.46.48-.95.92-1.48,1.33-.53.41-1.08.78-1.65,1.1-.57.33-1.15.6-1.73.83-.1-.18-.24-.38-.42-.61-.18-.23-.34-.41-.5-.54.55-.19,1.1-.42,1.66-.71.55-.29,1.09-.61,1.6-.96.51-.36.98-.74,1.42-1.14.43-.4.79-.82,1.08-1.24ZM82.67,298.69h14.01v1.31h-14.01v-1.31ZM82.75,287.72h13.86v1.29h-13.86v-1.29ZM85.28,292.61h8.82v6.78h-1.52v-5.55h-5.85v5.61h-1.45v-6.84ZM85.98,294.72h7.36v1.06h-7.36v-1.06ZM85.98,296.68h7.36v1.07h-7.36v-1.07ZM88.89,285.86h1.46v6.3h-1.46v-6.3ZM91.05,288.16c.3.42.67.82,1.1,1.21.44.39.91.76,1.43,1.1.52.34,1.07.64,1.64.92.58.27,1.15.5,1.72.68-.1.09-.22.21-.33.35-.12.14-.23.29-.34.43-.11.15-.2.29-.27.41-.59-.22-1.18-.49-1.76-.81-.58-.32-1.14-.68-1.67-1.09-.53-.4-1.03-.84-1.49-1.3-.46-.46-.86-.94-1.21-1.44l1.18-.47Z"/>
        <path class="cls-10" d="M98.26,291.8h8.06v1.34h-8.06v-1.34ZM98.63,287.47h7.48v1.29h-7.48v-1.29ZM99.24,294.36h6.28v5.88h-1.43v-4.6h-3.48v4.67h-1.37v-5.94ZM99.56,289.26l1.23-.26c.17.37.31.79.44,1.24.12.45.21.84.25,1.17l-1.29.3c-.02-.33-.09-.73-.21-1.18-.12-.46-.26-.88-.41-1.26ZM99.75,298.16h4.99v1.29h-4.99v-1.29ZM101.65,285.94h1.43v2.35h-1.43v-2.35ZM103.9,288.92l1.4.31c-.17.45-.33.89-.51,1.34-.17.45-.34.84-.51,1.16l-1.17-.3c.1-.23.2-.49.3-.79.09-.3.18-.6.27-.91.09-.31.16-.58.21-.82ZM106.87,286.76h4.62v1.38h-3.17v12.15h-1.45v-13.53ZM111.1,286.76h.28l.23-.05,1.09.67c-.3.75-.63,1.54-.99,2.38-.36.84-.71,1.6-1.05,2.29.49.48.86.93,1.11,1.37.25.44.43.85.53,1.24s.15.77.15,1.13c0,.52-.06.96-.19,1.32-.12.36-.33.64-.62.84-.28.19-.63.31-1.04.37-.19.02-.39.03-.62.03h-.68c-.01-.21-.05-.45-.11-.73-.06-.28-.16-.52-.28-.73.22.02.42.03.6.04.18,0,.34,0,.47,0,.12-.01.24-.03.34-.05.1-.03.2-.06.3-.1.16-.1.26-.25.32-.45.06-.2.09-.44.09-.72,0-.46-.13-.97-.38-1.54-.25-.57-.74-1.18-1.45-1.82.18-.39.35-.82.54-1.28.18-.46.36-.91.54-1.37.18-.46.33-.89.47-1.3.14-.41.26-.76.37-1.05v-.5Z"/>
        <path class="cls-10" d="M114.31,286.54h1.45v13.75h-1.45v-13.75ZM115.01,288.88h4.14v1.07h-4.14v-1.07ZM115.14,286.54h4.91v5.85h-4.91v-1.2h3.53v-3.44h-3.53v-1.21ZM126.55,286.54v1.21h-3.81v3.45h3.81v1.21h-5.21v-5.88h5.21ZM122.18,288.88h4.2v1.07h-4.2v-1.07ZM125.77,286.54h1.48v11.87c0,.46-.06.81-.17,1.05-.11.24-.32.43-.62.55-.3.12-.7.2-1.2.23-.5.03-1.11.04-1.84.04-.02-.13-.06-.29-.12-.47-.06-.18-.12-.37-.19-.56-.07-.19-.15-.35-.22-.47.34.01.68.02,1.02.02.34,0,.64,0,.89,0h.54c.16-.01.26-.04.33-.1.06-.06.09-.16.09-.3v-11.85Z"/>
        <path class="cls-10" d="M87.13,315.83c.05-1.01.14-1.93.27-2.78.13-.85.32-1.65.56-2.41.24-.76.55-1.5.93-2.22.38-.72.84-1.45,1.38-2.2h-5.37v-1.52h7.36v1.1c-.65.82-1.18,1.6-1.59,2.34-.41.74-.73,1.5-.96,2.27s-.4,1.6-.51,2.47c-.11.88-.18,1.86-.23,2.95h-1.84Z"/>
        <path class="cls-10" d="M97.06,316.05c-.6,0-1.13-.07-1.59-.22-.46-.15-.87-.34-1.22-.58-.35-.24-.66-.51-.92-.79l.87-1.15c.34.33.73.62,1.17.87.44.25.95.37,1.54.37.44,0,.81-.07,1.14-.22.32-.14.57-.35.75-.62.18-.27.27-.59.27-.96,0-.42-.1-.77-.3-1.07-.2-.3-.55-.53-1.04-.69-.49-.17-1.17-.25-2.03-.25v-1.34c.76,0,1.35-.09,1.78-.26.43-.17.74-.4.93-.68.19-.28.29-.6.29-.96,0-.5-.16-.89-.47-1.17s-.74-.43-1.29-.43c-.44,0-.84.1-1.22.3-.38.2-.73.46-1.07.79l-.93-1.12c.46-.4.95-.74,1.49-1,.54-.26,1.14-.4,1.79-.4s1.29.11,1.82.34c.53.23.94.56,1.24.99.3.43.45.95.45,1.56,0,.64-.18,1.18-.54,1.61-.36.43-.84.76-1.44.99v.08c.44.1.83.28,1.19.53.36.25.64.56.85.94.21.38.31.82.31,1.33,0,.67-.17,1.25-.52,1.73-.35.48-.81.84-1.39,1.1-.58.25-1.22.38-1.91.38Z"/>
        <path class="cls-10" d="M105.41,316.05c-.65,0-1.22-.12-1.69-.37-.47-.24-.87-.53-1.19-.86l.98-1.12c.21.26.47.47.8.62.33.16.66.23,1,.23.5,0,.95-.14,1.37-.44.41-.29.75-.78,1-1.46.25-.68.37-1.61.37-2.77,0-.92-.09-1.68-.28-2.28-.19-.6-.45-1.04-.79-1.32-.34-.29-.74-.43-1.21-.43-.33,0-.63.09-.9.26-.27.18-.48.43-.64.76s-.23.74-.23,1.21.07.85.21,1.17c.14.32.35.56.64.73.29.17.63.25,1.03.25.33,0,.69-.11,1.08-.34.39-.23.75-.61,1.1-1.13l.08,1.32c-.22.3-.47.56-.77.78-.3.22-.6.38-.91.5-.31.11-.61.17-.9.17-.64,0-1.21-.13-1.69-.38-.48-.25-.86-.63-1.14-1.14-.27-.51-.41-1.15-.41-1.91s.16-1.37.47-1.91c.32-.54.73-.96,1.25-1.26.52-.3,1.08-.45,1.7-.45.55,0,1.07.11,1.55.33s.9.55,1.26,1c.36.45.64,1.01.85,1.69.21.67.31,1.47.31,2.4,0,1.09-.12,2.02-.35,2.81-.23.78-.55,1.42-.96,1.91-.41.49-.87.86-1.38,1.09-.51.23-1.05.35-1.61.35Z"/>
      </g>
    </g>
  </g>
</svg>