<?xml version="1.0" encoding="UTF-8"?>
<svg id="_レイヤー_2" data-name="レイヤー 2" xmlns="http://www.w3.org/2000/svg" viewBox="0 0 407.19 111.71">
  <defs>
    <style>
      .cls-1 {
        fill: #4d4d4d;
        stroke-width: 0px;
      }
    </style>
  </defs>
  <g id="_レイヤー_1-2" data-name="レイヤー 1">
    <g>
      <path class="cls-1" d="M35.13,3.41v102.93c0,.63-.27,1.29-.8,2-.53.7-1.26,1.05-2.18,1.05H14.52c-.92,0-1.65-.35-2.18-1.05-.53-.7-.8-1.37-.8-2V23.95H3.05c-.63,0-1.3-.26-2-.8-.7-.53-1.05-1.26-1.05-2.18V3.34c0-.92.35-1.64,1.05-2.18.7-.53,1.37-.8,2-.8h29.11c.92,0,1.64.35,2.18,1.05.53.7.8,1.37.8,2Z"/>
      <path class="cls-1" d="M71.07,85.8h52.12c.63,0,1.29.25,2,.76.7.51,1.05,1.25,1.05,2.21v17.64c0,.92-.35,1.64-1.05,2.18-.7.53-1.37.8-2,.8H50.46c-.97,0-1.71-.35-2.21-1.05-.51-.7-.76-1.37-.76-2v-28.89c.29-1.21.92-2.15,1.89-2.83l53.21-37.46v-13.57h-31.21v12.63c0,.63-.25,1.3-.76,2-.51.7-1.25,1.05-2.21,1.05h-17.64c-.97,0-1.71-.35-2.21-1.05-.51-.7-.76-1.37-.76-2V2.98c0-.92.35-1.64,1.05-2.18.7-.53,1.37-.8,2-.8h72.37c.92,0,1.64.35,2.18,1.05.53.7.8,1.37.8,2v39.2c0,.48-.11,1.25-.33,2.29-.22,1.04-.5,1.71-.83,2l-53.93,38.18v1.09Z"/>
      <path class="cls-1" d="M145.9,95.79c.48,0,.86.19,1.15.55.28.37.42.72.42,1.05v10.04c0,.33-.14.68-.42,1.05-.28.37-.66.55-1.15.55h-9.28c-.48,0-.87-.19-1.15-.55-.28-.37-.42-.72-.42-1.05v-10.04c0-.33.14-.68.42-1.05.28-.37.66-.55,1.15-.55h9.28Z"/>
      <path class="cls-1" d="M172.43,53.3v54.14c0,.33-.14.68-.42,1.05-.28.37-.66.55-1.15.55h-9.28c-.48,0-.87-.19-1.15-.55-.28-.37-.42-.72-.42-1.05v-43.33h-4.47c-.33,0-.68-.14-1.05-.42-.37-.28-.55-.66-.55-1.15v-9.28c0-.48.18-.86.55-1.15.37-.28.72-.42,1.05-.42h15.31c.48,0,.87.19,1.15.55.28.37.42.72.42,1.05Z"/>
      <path class="cls-1" d="M213.42,54.38v48.7h-12.21v4.51h-8.39v-53.2h20.59ZM201.21,63.14v11.27h4.69v-11.27h-4.69ZM201.21,82.23v12.27h4.69v-12.27h-4.69ZM215.49,91.44v-8.95h20.72v-4.07h-21.28v-8.83h13.08v-4.51h-11.27v-8.45h11.27v-4.69h9.45v4.69h11.58v8.45h-11.58v4.51h13.27v8.83h-5.13v4.07h4.63v8.95h-4.63v13.33c0,1.88-.06,3.25-1.5,4.76-1.25,1.38-3,1.69-4.82,1.69h-11.52l-1.19-6.76-3.94,1.94c-2-4.44-3.94-7.64-6.88-11.52l7.39-3.44h-7.64ZM231.01,101.95h3.76c1.25,0,1.44-.5,1.44-1.63v-8.89h-12.02c2.63,3.25,4.88,6.82,6.82,10.52Z"/>
      <path class="cls-1" d="M278.95,54.01v24.22h-16.84v33.11h-8.83v-57.33h25.66ZM262.11,60.45v2.88h8.2v-2.88h-8.2ZM262.11,68.78v2.94h8.2v-2.94h-8.2ZM298.16,102.33c1.69,0,1.88-.69,1.88-2.07v-22.03h-17.27v-24.22h26.23v50.64c0,4.57-2.69,6.7-5.57,6.7h-12.02l-1-5.76h-23.41v-24.54h28.1v21.28h3.07ZM275.44,87.49v2.94h11.14v-2.94h-11.14ZM275.44,95.57v3.13h11.14v-3.13h-11.14ZM291.4,60.45v2.88h8.64v-2.88h-8.64ZM291.4,68.78v2.94h8.64v-2.94h-8.64Z"/>
      <path class="cls-1" d="M346.85,56.13l-20.47,49.32h-8.32l20.47-49.32h8.32Z"/>
      <path class="cls-1" d="M371.07,92.25c-1.31,6.89-3.94,13.77-8.07,19.47l-8.7-6.82c5.7-7.7,7.7-14.9,7.7-24.41v-26.29h45.19v51.08c0,4.07-3.07,6.07-5.95,6.07h-14.58l-1.56-9.89h10.58c1.19,0,1.75-.75,1.75-1.88v-7.32h-26.35ZM371.76,68.84h25.66v-5.63h-25.66v5.63ZM371.76,83.55h25.66v-6.13h-25.66v6.13Z"/>
    </g>
  </g>
</svg>