<?xml version="1.0" encoding="UTF-8"?>
<svg id="_レイヤー_2" data-name="レイヤー 2" xmlns="http://www.w3.org/2000/svg" viewBox="0 0 72.76 50.77">
  <defs>
    <style>
      .cls-1 {
        fill: #db0011;
        stroke-width: 0px;
      }
    </style>
  </defs>
  <g id="_文字" data-name="文字">
    <g>
      <path class="cls-1" d="M5.06,48.29c0,1.67-.86,2.48-2.44,2.48-2.62,0-2.62-1.67-2.62-3.17h1.53c0,1.23.09,1.84.97,1.84s.92-.55.92-1.15v-5.59h1.65v5.59Z"/>
      <path class="cls-1" d="M9.61,46.16v-2.1h2.05c.96,0,1.15.62,1.15,1.03,0,.77-.41,1.07-1.27,1.07h-1.93ZM8,50.57h1.61v-3.08h1.7c1.21,0,1.28.42,1.28,1.49,0,.81.06,1.22.18,1.59h1.82v-.21c-.35-.13-.35-.42-.35-1.57,0-1.47-.35-1.71-1-2,.78-.26,1.21-1,1.21-1.88,0-.67-.38-2.22-2.47-2.22h-3.98v7.87Z"/>
      <path class="cls-1" d="M25.77,48.76c-.21,1.24-.32,1.94-1.79,1.94-.98,0-1.41-.47-1.41-1.17,0-.11.01-.25.02-.36l.37-3.86-1.27.03c-.11,1.05-.24,2.41-1.2,3.69-.76,1-1.53,1.3-2.26,1.59l-.94-.93c.72-.23,1.51-.5,2.21-1.37.81-1,.9-2.04.99-2.94l-2.48.05v-1.07l2.5-.05v-1.85l1.22.1c.19,0,.29.07.29.17s-.13.19-.3.27v1.29l2.52-.04-.46,4.86c-.03.31.1.46.4.46.43,0,.5-.39.59-1.25l1,.45Z"/>
      <path class="cls-1" d="M28.94,47.22c.23-.58.33-1.29.37-2.35.06-.05.11-.11.11-.18,0-.05-.1-.08-.22-.1l-.91-.13c.04.77-.06,1.71-.36,2.45l1.01.31ZM34.83,46.33h-.02c-.11-.42-.39-1.17-.59-1.6l-1,.34c.32.62.56,1.29.71,1.94l.91-.17v3.54h1.06v-7.67c.11-.12.21-.21.21-.28,0-.06-.07-.08-.23-.09l-1.03-.05v4.02ZM32.13,46.05h-.02c-.13-.45-.33-1-.51-1.31l-.94.28c0-.88,0-1.49-.01-2.19.13-.14.23-.22.23-.28,0-.08-.12-.11-.23-.12l-1.06-.1c.02.59.05,1.43.05,2.65,0,3.26-.49,4-1.66,4.87l.92.71c1.42-1.17,1.72-2.3,1.75-5.3h.02c.26.52.47,1.29.55,1.88l.91-.19v3.16h1.06v-7.23c.12-.12.22-.19.22-.27s-.14-.09-.24-.09l-1.04-.05v3.59Z"/>
      <path class="cls-1" d="M43.04,42.47c.26.18.56.43.82.8l.49-.4c-.24-.31-.5-.56-.83-.79l-.49.39ZM41.51,43.67c.11-.16.21-.33.27-.45.12-.04.23-.08.23-.15,0-.09-.11-.13-.25-.19l-.98-.42c-.62,1.71-1.74,2.87-2.72,3.68l.98.67c1.02-.98,1.43-1.55,1.82-2.1h2.42c-.75,2.1-2.04,3.77-4.37,4.97l1.09.74c.87-.55,2.03-1.28,3.24-3.08.6-.95,1.09-2.04,1.28-2.57.14-.17.27-.25.33-.3l-.8-.93c-.11.07-.27.14-.4.14h-2.14ZM44.38,42.34c.39.29.7.7.86.93l.49-.39c-.21-.3-.51-.68-.85-.93l-.5.39Z"/>
      <path class="cls-1" d="M45.91,48.8c.79-.47,2.04-1.23,2.04-3.72,0-.28,0-.97-.1-1.79l1.15.08c.15,0,.27.03.27.11,0,.07-.08.15-.19.24,0,.26.03.61.02,1.03.02,1.39-.2,3.45-2.14,4.82l-1.06-.77ZM50.1,43.17l1.11.14c.12,0,.27.04.27.1,0,.08-.11.16-.22.27v4.18c1.11-.66,2.01-1.67,2.53-2.45l.64.96c-.84,1.1-2.04,2.35-3.5,3.22l-.82-.63v-5.8Z"/>
      <path class="cls-1" d="M63.51,47.11h-6.75v-1.22h6.75v1.22Z"/>
      <path class="cls-1" d="M64.29,43.38h5.36c.11,0,.21-.08.31-.15l.94.86c-.25.22-.33.35-.39.52-1.05,2.59-1.79,4.01-4.5,5.54l-1.04-.84c2.21-.97,3.77-2.9,4.35-4.83h-5.05v-1.11ZM70.28,42.6c0-.48.38-.9.9-.9.49,0,.89.4.89.9s-.4.92-.89.92c-.45,0-.9-.37-.9-.92ZM71.7,42.6c0-.28-.22-.53-.52-.53s-.54.24-.54.53.24.54.54.54c.27,0,.52-.22.52-.54Z"/>
      <path class="cls-1" d="M61.89,23.58c5.99,0,10.87-5.29,10.87-11.79S67.88,0,61.89,0H28.18v26.87c0,.68-3.11,3.46-9.69,3.46s-9.69-2.78-9.69-3.46v-10.88H.06v10.88c0,6.96,7.92,12.21,18.43,12.21s18.44-5.25,18.44-12.21V8.75h24.96c1,0,2.12,1.25,2.12,3.04s-1.12,3.04-2.12,3.04h-20.32l19.24,23.43h11.31c-2.66-3.24-7.92-9.65-12.05-14.68h1.82Z"/>
    </g>
  </g>
</svg>