<?xml version="1.0" encoding="UTF-8"?>
<svg id="_レイヤー_2" data-name="レイヤー 2" xmlns="http://www.w3.org/2000/svg" viewBox="0 0 127.07 69.73">
  <defs>
    <style>
      .cls-1 {
        stroke-width: 3.19px;
      }

      .cls-1, .cls-2, .cls-3, .cls-4, .cls-5, .cls-6, .cls-7 {
        stroke: #151515;
        stroke-linecap: round;
        stroke-linejoin: round;
      }

      .cls-1, .cls-5 {
        fill: none;
      }

      .cls-2, .cls-3, .cls-4, .cls-5, .cls-6, .cls-7 {
        stroke-width: .85px;
      }

      .cls-2, .cls-8 {
        fill: #fff;
      }

      .cls-3 {
        fill: #444;
      }

      .cls-4 {
        fill: #ededed;
      }

      .cls-6 {
        fill: #959595;
      }

      .cls-8, .cls-9 {
        stroke-width: 0px;
      }

      .cls-7 {
        fill: #353535;
      }

      .cls-9 {
        fill: #151515;
      }
    </style>
  </defs>
  <g id="_文字" data-name="文字">
    <g>
      <path class="cls-1" d="M125.14,13.49c-.77-.97-1.73-1.47-3.81-1.28,1.55-.86,2.58-1.68,1.93-2.87-.79-1.46-2.66-1.5-4.78-.62,1.2-.93,1.88-1.8,1.17-2.8-1.14-1.6-3.53-1.03-5.92.68-.04.03-.07.05-.11.08,1.33-1.93,2.38-3.51,1.01-4.42-1.64-1.08-3.66.3-5.29,2.75-.46.69-.83,1.39-1.1,2.07-.4-.06-.8-.07-1.18-.04.02-.69-.16-1.44-.63-2.26-1.46-2.55-4.37-3.83-6.07-2.86-1.7.97-.34,1.98,1.12,4.54.82,1.43,1.25,2.76,1.78,3.49-.01.06-.02.12-.03.18-.18,1.2.36,2.37,1.33,3.21-.64.58-1.1,1.32-1.29,2.17-.22.97-.06,1.95.39,2.82-1,1.13-1.94,2.29-2.8,3.45l-6.1-10.41S68.14-.44,34.11,7.97c0,0,.08,10.67.65,19.96-2.11-.08-5.41-1.43-8.24-8.24.06-.21.12-.43.17-.66.71-3.1-.53-5.21-2.2-5.59-.27-.06-.53-.07-.78-.03.16-.75.13-1.49-.11-2.2-1.03-2.92-5.41-4.04-9.79-2.5-2.79.98-4.91,2.8-5.81,4.76C3.46,15.65.76,19.42,1.83,22.46c1.2,3.42,6.72,4.59,12.32,2.62,2.65-.93,4.22-1.56,5.67-3.2.21,1.26,1.77,1.79,2.67,1.76.35-.01.7-.09,1.05-.22,2.27,4.95,4.24,6.38,7,7.67,1.78.83,3.35,1.02,4.53,1,.35,4.05.82,7.38,1.46,8.71,0,0,5.35-1.65,15.8-1.85.18.8.36,1.62.51,2.37-2.22.63-3.78,2.13-3.78,3.89,0,1.41,1.01,2.65,2.55,3.41-.57.31-1.08.67-1.51,1.08-1.36-1.22-3.16-1.96-5.13-1.96-4.24,0-7.68,3.42-7.68,7.64s3.44,7.64,7.68,7.64c3.53,0,6-.92,8.32-3.78,1.5-1.09,2.64-1.37,3.96-1.37,4.06,0,6.11-2.11,6.11-5.03,0-2.01-1.57-3.76-3.87-4.64,1.13-.76,1.83-1.82,1.83-3,0-1.54-1.2-2.88-2.99-3.62-.16-.72-.38-1.51-.61-2.3l13.94,1.06c.05,1.32.12,2.79.21,4.11-1.95,1.07-3.08,2.82-2.69,4.45.28,1.15,1.26,2,2.59,2.42-.76,1.31-1.04,2.95-.64,4.59.45,1.84,1.23,2.46,2.73,3.23-.13.86.32,2.58.53,3.46.96,3.95,5.18,6.31,9.44,5.28,4.25-1.03,6.93-5.07,5.97-9.02-.83-3.43-4.13-5.66-7.78-5.51,0-.03,0-.05-.01-.08-.41-1.68-1.43-3.02-2.75-3.83.93-.97,1.38-2.14,1.11-3.26-.39-1.59-2.11-2.61-4.25-2.72-.12-.89-.24-1.86-.36-2.79,4.26.66,8.86,1.55,13.8,2.71l7.21-2.2,2.23-8.44c1.66-3.2,4.31-7.69,7.89-11.72.22.08.45.14.68.19,2.93.65,5.75-.85,6.3-3.35.11-.49.12-.98.05-1.47,1,.26,1.99.22,2.84-.05,1.1.58,2.61-.45,4.44-.77,2.9-.5,5.17-.56,3.95-2.09Z"/>
      <path class="cls-2" d="M24.49,13.44c-.27-.06-.53-.07-.78-.03.16-.75.13-1.49-.11-2.2-1.03-2.92-5.41-4.04-9.79-2.5-2.79.98-4.91,2.8-5.81,4.76C3.46,15.65.76,19.42,1.83,22.46c1.2,3.42,6.72,4.59,12.32,2.62,2.65-.93,4.22-1.56,5.67-3.2.21,1.26,1.77,1.79,2.67,1.76,1.71-.07,3.5-1.5,4.2-4.6.71-3.1-.53-5.21-2.2-5.59Z"/>
      <path class="cls-5" d="M13.17,14.78s-2.14,5.08-1.55,7.92"/>
      <path class="cls-2" d="M17.72,16.4c-4.45.68-5-3.4-5-3.4,0,0-.23.67-.46,1.69-.23,1.02-2.15,2.39-4.04,2-1.89-.39.54-4.46.54-4.46,0,0,.8-1.06,2.14-2.01"/>
      <path class="cls-2" d="M123.27,9.35c-.79-1.46-2.66-1.5-4.78-.62,1.2-.93,1.88-1.8,1.17-2.8-1.14-1.6-3.53-1.03-5.92.68-.04.03-.07.05-.11.08,1.33-1.93,2.38-3.51,1.01-4.42-1.64-1.08-3.66.3-5.29,2.75-1.62,2.45-2.23,5.05-.6,6.13.73.49,1.3.37,1.85-.13.02.39.14.76.39,1.1.84,1.17,1.84.67,3.26-.35-.62.88-.81,1.79-.36,2.64.93,1.73,2.55.42,5.14-.98,2.59-1.4,5.17-2.35,4.24-4.08Z"/>
      <path class="cls-2" d="M125.14,13.49c-.9-1.13-2.05-1.62-4.95-1.12-.33.06-.64.11-.94.15-.29-1.5-1.59-2.86-3.42-3.37-1.43-.4-2.85-.18-3.89.47-.59-1.27-1.96-2.28-3.67-2.54-.41-.06-.81-.07-1.2-.04.02-.69-.16-1.44-.63-2.26-1.46-2.55-4.37-3.83-6.07-2.86-1.7.97-.34,1.98,1.12,4.54.82,1.43,1.25,2.76,1.78,3.49-.01.06-.02.12-.03.18-.3,2.05,1.46,4.01,3.94,4.37,1.3.19,2.55-.09,3.47-.71.52,1.17,1.67,2.16,3.17,2.58,1.03.29,2.06.25,2.94-.03,1.1.58,2.61-.45,4.44-.77,2.9-.5,5.17-.56,3.95-2.09Z"/>
      <path class="cls-2" d="M113.86,17.87c-.56,2.5-3.38,4-6.3,3.35-2.92-.65-4.84-3.21-4.29-5.7.56-2.5,3.38-4,6.3-3.35,2.92.65,4.84,3.2,4.29,5.7Z"/>
      <path class="cls-2" d="M23.36,17.31c-1.08.41-1.63,1.62-1.23,2.7,2.92,7.79,5.1,9.53,8.4,11.07,3.63,1.7,6.38.73,6.7.7,1.15-.1,2-1.11,1.91-2.26-.09-1.15-1.11-2.01-2.26-1.92h.02c-.36.02-6.33,2.96-10.84-9.07-.41-1.09-1.61-1.63-2.7-1.23Z"/>
      <path class="cls-6" d="M59.47,48.2c1.13-.76,1.83-1.82,1.83-3,0-2.33-2.74-4.21-6.13-4.21s-6.13,1.88-6.13,4.21c0,1.41,1.01,2.65,2.55,3.41-.57.31-1.08.67-1.51,1.08-1.36-1.22-3.16-1.96-5.13-1.96-4.24,0-7.68,3.42-7.68,7.64s3.44,7.64,7.68,7.64c3.53,0,6-.92,8.32-3.78,1.5-1.09,2.64-1.37,3.96-1.37,4.06,0,6.11-2.11,6.11-5.03,0-2.01-1.57-3.76-3.87-4.64Z"/>
      <path class="cls-6" d="M82.01,53.36s0-.05-.01-.08c-.41-1.68-1.43-3.02-2.75-3.83.93-.97,1.38-2.14,1.11-3.26-.52-2.13-3.44-3.25-6.53-2.49-3.09.75-5.18,3.08-4.66,5.21.28,1.15,1.26,2,2.59,2.42-.76,1.31-1.04,2.95-.64,4.59.45,1.84,1.23,2.46,2.73,3.23-.13.86.32,2.58.53,3.46.96,3.95,5.18,6.31,9.44,5.28,4.25-1.03,6.93-5.07,5.97-9.02-.83-3.43-4.13-5.66-7.78-5.51Z"/>
      <path class="cls-2" d="M51.08,33.76s2.27,9.07,2.25,10.79c-.02,1.72,4.64,1.8,5.23-.16.59-1.96-2.9-11.12-2.9-11.12l-4.58.49Z"/>
      <path class="cls-2" d="M71.52,36.3s.16,10.4.84,12c.68,1.59,4.89.35,4.36-1.31-.54-1.67-1.51-11.07-1.51-11.07l-3.69.39Z"/>
      <path class="cls-3" d="M34.11,7.97s.2,28.22,2.4,32.82c0,0,18.21-5.61,53.04,2.6l7.21-2.2,4.8-18.21-6.8-11.61S68.14-.44,34.11,7.97Z"/>
      <path class="cls-5" d="M94.76,11.37s-4,25.62-5.2,32.02"/>
      <polygon class="cls-7" points="89.55 43.39 96.76 41.19 101.56 22.98 94.76 11.37 89.55 43.39"/>
      <path class="cls-2" d="M36.71,12.37s0,22.02,1.8,26.02c0,0,6.6-1.6,9.61-1.4,0,0-1.8-24.22-1-26.02,0,0-6.2.4-10.41,1.4Z"/>
      <path class="cls-2" d="M81.55,13.77l-3.4,25.62s7.41,1,9.21,1.6l3.8-25.22-9.61-2Z"/>
      <path class="cls-4" d="M50.32,10.97s-.6,22.42.8,27.82l23.82,1.8,3.8-27.62s-18.01-4.2-28.42-2Z"/>
      <path class="cls-5" d="M57.97,24.61s-.7.22-.7.89.38.86.96.86c.43,0,4.24-.62,8.13.48,0,0,1.44.1,1.44-.86s-.7-.98-.7-.98"/>
      <path class="cls-3" d="M61.12,26.22c-.83.01-2.62.09-2.62.09,0,0,1.29,11.94,3.21,12.07,1.92.13,4.22-11.57,4.22-11.57,0,0-2.36-.48-3.48-.54-.43-.02-.9-.06-1.33-.05Z"/>
      <path class="cls-9" d="M58.51,18.59c-.08,3.04-1.49,5.46-3.14,5.42-1.66-.05-2.94-2.55-2.86-5.58.08-3.04,1.49-5.47,3.15-5.42,1.66.04,2.94,2.54,2.85,5.58Z"/>
      <path class="cls-5" d="M52.02,11.72c.23-2.08,1.95-3.59,3.86-3.38,1.9.21,3.26,2.06,3.04,4.14"/>
      <path class="cls-5" d="M67.7,12.74c.35-2.06,2.17-3.47,4.06-3.14,1.89.32,3.13,2.25,2.78,4.31"/>
      <line class="cls-5" x1="36.94" y1="15.8" x2="46.76" y2="14.65"/>
      <line class="cls-5" x1="36.94" y1="20.21" x2="46.76" y2="19.36"/>
      <line class="cls-5" x1="36.94" y1="25.05" x2="47.19" y2="24.34"/>
      <line class="cls-5" x1="37.36" y1="30.04" x2="47.62" y2="29.19"/>
      <line class="cls-5" x1="37.79" y1="34.32" x2="47.91" y2="33.32"/>
      <line class="cls-5" x1="81.39" y1="16.65" x2="90.51" y2="18.64"/>
      <line class="cls-5" x1="80.68" y1="20.92" x2="89.94" y2="22.92"/>
      <line class="cls-5" x1="80.25" y1="24.91" x2="89.37" y2="26.76"/>
      <line class="cls-5" x1="79.39" y1="29.19" x2="88.51" y2="31.04"/>
      <line class="cls-5" x1="79.11" y1="33.03" x2="88.08" y2="35.03"/>
      <line class="cls-5" x1="78.54" y1="36.45" x2="87.8" y2="38.02"/>
      <path class="cls-8" d="M56.45,17.66c-.04,1.52-.74,2.73-1.57,2.71-.83-.02-1.47-1.27-1.43-2.79.04-1.52.75-2.73,1.57-2.71.83.02,1.47,1.27,1.43,2.79Z"/>
      <path class="cls-9" d="M72.31,19.45c-.08,3.04-1.49,5.46-3.15,5.42-1.66-.05-2.94-2.54-2.85-5.58.08-3.04,1.49-5.47,3.15-5.42,1.66.04,2.94,2.54,2.85,5.58Z"/>
      <path class="cls-8" d="M70.25,18.52c-.04,1.52-.74,2.73-1.57,2.71-.83-.02-1.47-1.27-1.43-2.79.04-1.52.75-2.73,1.58-2.71.83.02,1.47,1.27,1.43,2.79Z"/>
      <path class="cls-2" d="M106.3,15.58c-8.48,8.08-12.86,19.1-13.15,19.71-.48,1.05-.02,2.3,1.03,2.78,1.05.48,2.3.02,2.78-1.03.07-.14,4.33-10.91,12.23-18.43.84-.8.87-2.13.07-2.97-.8-.84-2.13-.87-2.97-.07Z"/>
    </g>
  </g>
</svg>