<?xml version="1.0" encoding="UTF-8"?>
<svg id="_レイヤー_2" data-name=" レイヤー 2" xmlns="http://www.w3.org/2000/svg" version="1.1" viewBox="0 0 483.5 46.4">
  <defs>
    <style>
      .cls-1 {
        fill: none;
      }

      .cls-1, .cls-2, .cls-3 {
        stroke-width: 0px;
      }

      .cls-2 {
        fill: #da0011;
      }

      .cls-3 {
        fill: #4d4d4d;
      }
    </style>
  </defs>
  <g id="_文字" data-name=" 文字">
    <g>
      <rect class="cls-1" x="-16.5" y="-24.8" />
      <g>
        <path class="cls-2" d="M15.6,2.3v28c0,0,.9,9.4-4.1,12.9-2.1,1.3-7.3,2.2-11.5-5.8v8.3s21.2,6,24.1-15.5V2.3s-8.5,0-8.5,0Z"/>
        <path class="cls-2" d="M76,46.2h-13c0,.1,2.2-7.4-14-7.7-6.4,0-21.6-3.2-21.8-17.8-.2-14.4,13.3-19.3,21.5-19.3s20.4,4.5,20.7,18.8c-.3,7.4-3.9,12.2-5.9,13.6h-12.6s9.6-2.2,10.5-14.7c0-9.8-6-16-13.7-16s-12.7,5.7-12.7,16.1,5.2,17.7,19.4,17.7,18,1,21.5,9.3h0Z"/>
      </g>
      <g>
        <path class="cls-3" d="M109.7,24.3c-2.8,0-4.6-1.5-5.2-3.2-.4-1.2-.4-1.9-.4-3.9h3c0,.3,0,.9,0,1,0,1.8.6,3.4,2.7,3.4s2.5-1,2.5-3.1V3.5h3.1v15.1c0,1.3,0,5.7-5.5,5.7Z"/>
        <path class="cls-3" d="M132.5,23.6c-.3-.6-.6-1.3-.6-4.3,0-3.2-.8-4.1-3.1-4.1h-5.3v8.4h-3.1V3.5h8.8c4,0,6.2,2.2,6.2,5.6s-.1,1.7-.7,2.8c-.8,1.3-1.6,1.6-2.4,1.8,1.8.5,2.7,1.2,2.7,5.3,0,3.5.5,4,1.4,4.7h-3.9,0ZM129.2,6.3h-5.8v6.3h5.8c1.3,0,3.1-1,3.1-3.2s-.4-3-3-3h0Z"/>
        <path class="cls-3" d="M162.6,22.8c-.8,1.1-1.9,1.1-3.3,1.1h-1.4c-1.4,0-3.4,0-3.4-3.1s.6-8.9.9-11h-4c-.4,5.5-2.1,12.1-9.7,15.2l-2.4-2.5c6.5-2,8.7-5,9.5-12.5h-2.5c-1.1,0-2.9.2-4.2.3v-2.7c1,0,3.1,0,4.1,0h2.6c0-2.2,0-4.4-.1-6.5l3.1.4c.6,0,.9.1.9.4s-.2.4-.9.7c0,.7-.2,4.1-.2,4.8h2.7c.6-.1,3.1-.2,4.2-.3-.9,5.7-1.2,10.9-1.2,12.6s.3,1.7,1,1.7h1.2c.8,0,1.1,0,1.7-1.2.4-1,.7-2.5.8-3.1l2.3,2.1c-.4,1.7-1.1,3-1.5,3.6h0Z"/>
        <path class="cls-3" d="M176.5,16.1c0-1.9-.4-4.3-.9-5.9-.3-.9-.3-1-1.1-2.8,0,7.2,0,8.3-.7,10.7-.8,3.2-2.5,5.6-5.2,7.5l-2.3-1.9c1.8-1,3.5-2.3,4.7-5.2,1-2.5,1-4.7,1-8.5s0-6.8-.3-9.3l3,.4c.4,0,.7,0,.7.5s-.5.5-.8.7c0,1.2,0,1.5,0,4.9l2.1-.9c1.2,2.4,2.2,5.9,2.5,8.5l-2.7,1.3h0ZM170.7,7.2c-.1,3.3-.2,3.6-.5,5.7-.3,2-.6,2.7-.8,3.4l-2.7-.6c1.1-2.4,1.6-4.4,1.6-7.8s0-1.6-.2-2.4l2.8.4c.5,0,.7.2.7.4,0,.4-.2.5-.9.7h0ZM190,2.1c0,.4,0,5.3,0,6.3v6.9c0,.2.1,6.3.5,10.3h-3.2c.2-2.1.3-7.1.3-9.4v-2l-2.7,1.6c-.2-2.6-1.6-5.7-1.7-5.8-.2-.4-.6-1.2-1.4-2.3v9.4c0,2.5.1,5,.3,7.6h-3.2c.1-.7.3-2.2.3-4.1,0-.6,0-3.3,0-3.8v-8c0-1.4,0-5.9-.2-7.2l2.9.2c.4,0,.8,0,.8.5s-.4.5-1,.8c0,.9,0,1.5,0,4.3l2.2-1.1c2.1,3.4,3.2,6.6,3.5,7.8v-5.5c0-1.9,0-5.2-.2-7.5l2.8.3c.4,0,.7.1.7.5s-.3.4-.8.6h0Z"/>
        <path class="cls-3" d="M210.9,22c0-.4,0-.6,0-1.4h-7.5c-1.9,0-5.9,0-7.6.3v-3c2.9.1,5.9.2,8.9.2h6.4V7.5h-6.7c-1.1,0-5.6,0-6.6.1-.9,0-1.6.1-2.4.2v-3c.9,0,1.4.1,2.1.1.7,0,4.1,0,4.8,0h6.5c1.4,0,3.8,0,5.2,0-.1,1.1-.2,4.3-.2,5.5v4.7c0,1.6.1,5.3.3,6.8h-3.4,0Z"/>
        <path class="cls-3" d="M223,22.9c0,.1-.2.5-.2.6,0,.1-.2.2-.3.2-.2,0-.3-.1-.6-.7l-1.5-2.9c4.2-.6,14.2-4.9,19.4-11.7l1.1,2.7c-5.4,6.4-14.1,10.1-17.9,11.7h0ZM226.9,8.7c-1.8-1.7-4.7-3.2-6-3.8l1.5-2.5c4.1,2,5.4,3.1,6.1,3.8l-1.6,2.5h0Z"/>
        <path class="cls-3" d="M263.4,10.6c-.1,3.6-.3,7-2.7,10-2.1,2.6-4.4,3.8-5.4,4.3l-2.4-1.8c7.2-3.3,7.7-6.8,7.8-12.5h-6.8v1.7c0,2.6,0,3.9.3,5.1h-2.9c.1-.9.3-4.6.3-5.4v-1.4c-3,0-3.8,0-5.9.2v-2.7c1.6.1,4.2.2,5.9.2v-.5c0-2.6,0-3.5-.2-5.4l2.7.2c.5,0,.9.1.9.5s-.4.6-.8.9c0,.7-.2,1.8-.2,4.3h6.8c0-1.7-.1-4.9-.5-6.5l2.9.2c.9,0,1,0,1,.4s0,.2-.8.9c0,1,0,1.4,0,4.9,3,0,4.1-.1,5-.2v2.7c-1.1,0-2.1-.1-5-.2h0Z"/>
        <path class="cls-3" d="M279.1,5.1c-.1,0-.7.4-.8.5,0,8.5-1.1,14.2-6.8,17.4l-2.2-2.3c1.1-.5,3.3-1.4,4.9-4.9.5-1.1.8-2.3,1-4,.2-1.4.2-2.6.2-3.2,0-2.6-.2-4-.3-4.9l3.3.4c.7,0,.9.1.9.6s0,.3-.2.4h0ZM284.2,22.7l-2-1.5c.1-.6.2-2.4.2-3.1,0-.9,0-2.4,0-3.3v-5.6c0-.4-.1-5.1-.2-6l3.1.3c.4,0,.8.2.8.5s-.1.4-.3.5c-.2.2-.3.2-.5.4-.2,1.2-.2,4.8-.2,6.1v7.7c.7-.4,2.5-1.3,4.6-3.7,1.4-1.5,2-2.6,2.8-4.1l1.9,2.2c-3.5,5.6-7.8,8.1-10.2,9.6h0Z"/>
        <path class="cls-3" d="M317.7,8.5c-1.5,4.6-2.1,5.8-2.8,7,1,.7,1.6,1.2,2.5,2l-1.9,2.3c-.6-.7-1.4-1.3-2.1-2-3.5,4.7-7.9,6.4-10.4,7.2l-2.1-2.3c1.3-.2,4.1-.8,7.6-3.6,1-.8,2-1.8,2.8-2.9-1.1-.7-3-1.7-5.4-2.8l1.4-1.7c1.5.5,4.7,2,5.4,2.4,1-1.8,1.7-3.8,2.2-5.9h-7.9c-2.3,3.3-3.3,4.4-5.4,6.1l-2.6-1.6c1.1-.6,3.1-1.8,5.6-5.4.7-1,1.7-2.7,2.4-4.3.2-.7.3-1,.4-1.5l3,1.2c.2,0,.5.2.5.5,0,.4-.6.6-1.1.6-.2.3-1.2,2.1-1.3,2.3h3.4c.5,0,2.1,0,3.4-.3.8-.1,1.4-.4,1.8-.6l2,2c-.7.6-.9.8-1.2,1.4h0Z"/>
        <path class="cls-3" d="M326.3,22.9c0,.1-.2.5-.2.6,0,.1-.2.2-.3.2-.2,0-.3-.1-.6-.7l-1.5-2.9c4.2-.6,14.2-4.9,19.4-11.7l1.1,2.7c-5.4,6.4-14.1,10.1-17.9,11.7h0ZM330.1,8.7c-1.8-1.7-4.7-3.2-6-3.8l1.5-2.5c4.1,2,5.4,3.1,6.1,3.8l-1.6,2.5h0Z"/>
        <path class="cls-3" d="M350.8,10.8c-.4-1.3-1.3-3.5-2.9-5.6l2.6-1c2,2.7,2.5,4.3,3,5.6l-2.6.9h0ZM368.6,5.8c-1.5,4.8-2.9,7.9-4.8,10.4-1.7,2.2-5.7,6-9.7,7.4l-2.4-2.3c1.2-.3,2.9-.7,5.7-2.8,2.5-1.8,5.1-4.2,6.9-8.8,1.5-3.8,1.5-5.5,1.5-6.5l3.1,1.2c.5.2.8.4.8.6s-.1.3-1.1.8h0ZM357.5,9.5c-.4-2.3-2-4.7-2.8-5.8l2.7-.9c1,1.2,2.4,3.5,2.8,5.8l-2.7.8h0Z"/>
        <path class="cls-3" d="M381.9,17c-.7-.5-1.3-1.3-2.2-2.7v4c0,2.4,0,3.9.2,7.4h-2.7c0-2.5.2-5,.2-7.4v-3.4c-1.2,2.4-1.9,3.3-2.7,4.1l-2.2-1.4c3-3,4.1-6.8,4.5-9.3-1,0-2.3,0-3.4.2v-2.7c1,.2,2.6.2,3.1.2h.6c0-2.7,0-3,0-5.5l2.8.2c.3,0,.8,0,.8.4s0,.3-.9.7c-.1,3.3-.1,3.6-.1,4.2.3,0,1.9,0,3.2-.2v2.7c-1.3-.2-2.8-.2-3.2-.2v.8c.7,2.3,2,4.4,3.9,5.9l-1.7,1.9h0ZM397.2,23.8c-2.2-1.5-4-3.6-5.3-6v.4c0,3,.1,6.8.2,7.5h-2.8c0-1.5.2-4.9.2-7.4v-.8c-.9,1.4-2.9,4.5-6.4,6.4l-2.1-1.9c3.6-1.6,6-4.6,7.5-8.2h-.4c-1.7,0-3.3,0-5,.2v-2.7c1.7.2,4.2.2,5,.2h1.5v-3.4h-2.9c-.8,1.6-1.4,2.3-1.9,2.8l-2.4-1.5c2-1.7,3.1-4.5,3.5-7.5l2.7,1c.2,0,.4.2.4.4s0,.3-.8.5c-.1.5-.2,1-.7,2.2h2c0-2.6,0-3.3,0-5.6l2.9.2c.5,0,.6,0,.6.3,0,.4-.4.6-.8.8v4.2c1.8,0,3.7,0,5.5-.2v2.5c-.8,0-1.7,0-2.9,0h-2.2c-.2,0-.4,0-.5,0v3.3h1c1.7,0,3.4,0,5-.2v2.7c-2.2-.2-4.8-.2-5-.2h-.4c1.4,3.3,3.6,6.3,6.9,8.1l-2.1,1.9h0Z"/>
        <path class="cls-3" d="M425.3,24.9c-.3.4-.7.7-1.5.7-3,0-7.4-6.3-8.4-16.8h-5c-2.9,0-5.6.1-7.9.2v-2.7c3,.2,3.6.2,7.9.2h4.8c-.1-1.4-.2-3.1-.2-6l3.3.3c.4,0,.5,0,.5.3s-.2.4-.8.9c-.1,2.5-.1,3.8,0,4.6h.5c2.7,0,5.4,0,8-.2v2.7c-2.6-.2-5.3-.2-8-.2h-.4c.6,5.8,2.5,10.5,4.1,12.3.4.5,1,1.1,1.5,1.1s1.6-2.3,1.9-3.5l1.7,2.6c-.5,1.4-1.1,2.5-2,3.5h0ZM415.8,22.1c-2.1.5-11,2.3-11.6,2.4,0,.2-.1.9-.6.9s-.4-.3-.4-.5l-.5-3c1.8-.2,4.1-.5,5.3-.7v-6.4h-.8c-.6,0-3.1.3-3.7.3v-2.6c.3,0,.5.1.9.1.5,0,2.6,0,3,0h3.9c.3,0,4.1-.2,4.1-.2v2.4c-.4,0-3.7-.2-4.2-.2h-.5v6c.9-.2,4.7-.9,5.5-1l-.3,2.3h0ZM423.2,5.6c-.9-1-2.1-2.2-3.5-3l1.8-1.8c1.9,1,2.9,2.1,3.6,2.9,0,0-1.9,1.9-1.9,1.9Z"/>
        <path class="cls-3" d="M454,12.2c-2.3-.8-3.3-1.3-4.8-2.2v1.6c-1.4-.2-3.1-.2-4.4-.2h-4.4c-1.4,0-3.1,0-4.4.2v-1.7c-2.4,1.6-3.5,2-4.4,2.3l-2-2.3c2.5-.8,4.4-1.5,7-3.6,2-1.6,3.8-3.5,4.9-5.9l2.9,1c.3,0,.5.2.5.5s-.2.4-.5.5c.8,1.9,5.1,5.9,11.5,7.3,0,0-1.8,2.5-1.8,2.5ZM444.8,16.5h-2.3c-.8,2.2-2,4.1-2.9,5.3,2.1-.2,5-.5,7.9-.9-.7-.7-1.1-1.1-2.4-2.1l2.1-1.4c2.5,1.9,4.7,5,5.5,6.6l-2.1,1.7c-.3-.7-.6-1.5-1.5-2.8-9.2,1.3-10,1.5-14.1,1.8-.1.2-.3.7-.7.7s-.3,0-.4-.4l-.4-2.8c1.4,0,2,0,2.9-.1.8-1.1,2.2-3.2,3-5.5h-1c-3,0-4.3,0-7,.3v-2.7c2.6.1,3.6.2,7.1.2h6c3.3,0,5.2,0,9.1-.3v2.7c-1.9-.1-4.3-.1-9.1-.1h0ZM442.3,3.9c-1.1,1.5-2.6,3.4-5.4,5.3.3,0,2.1.1,3.4.1h4.4c1.1,0,2.6,0,3.1-.1-2.7-1.8-3.8-3-5.6-5.3Z"/>
        <path class="cls-3" d="M468.4,17.5c-.6-.5-1.7-1.3-3.1-2.9v5.7c0,1.1.1,4.3.2,5.2h-2.8c.2-2.6.2-4.9.2-5.1v-5.4c-1.6,1.5-3,2.4-4,3l-1.7-2.2c5.2-2.8,7.3-6.1,8-7.8h-3.1c-1.2,0-2.4,0-3.6.2v-2.6c.9.1,1.1.1,3.2.1h.9v-.5c0-1.4,0-2.2,0-4.6l3,.3c.3,0,.5.2.5.5,0,.4-.5.6-.8.7,0,.7,0,2,0,3.2v.5c1,0,2-.1,2.9-.3l1,1c-.4.7-2.4,3.7-2.8,4.3-.3.5-.5.8-.7,1,1.4,1.4,2.9,2.6,4.5,3.8l-1.9,1.8h0ZM478.1,24.2h-4.9c-2.2,0-3.1,0-4.9.2v-2.5c1.5.1,2.3.1,4.9.1h1.4v-10.7h-1.2c-1.4,0-3.1,0-4.4.2v-2.5c1.8.2,4.3.2,4.4.2h1.2c0-4.2,0-4.7-.1-8.6l2.9.3c.2,0,.7,0,.7.4s-.2.4-.6.6c0,3.1,0,3.3,0,7.3h.5s2.5,0,4.4-.2v2.5c-1.4-.2-3.1-.2-4.4-.2h-.5v10.7h.8c1.3,0,3.5,0,5.2-.2v2.6c-1.9-.1-2.6-.2-5.2-.2Z"/>
      </g>
      <g>
        <path class="cls-3" d="M111.6,43.6c-.1.4-.3.8-.7,1.2-.3.3-.7.6-1.2.8s-1.1.3-1.9.3c-1.2,0-2.2-.3-2.9-1-.7-.7-1-1.6-1-2.9v-.8h1.8v.6c0,.4,0,.7,0,1.1s.2.6.3.8.4.4.7.6c.3.1.6.2,1.1.2.8,0,1.4-.2,1.7-.7.3-.4.5-1,.5-1.8v-9.7h1.8v10c0,.4,0,.9-.2,1.3h0Z"/>
        <path class="cls-3" d="M122.4,32.3c1.3,0,2.3.3,3,.9s1.1,1.5,1.1,2.5-.2,1.5-.6,2.1c-.4.6-.9,1-1.8,1.2h0c.4.1.7.2.9.4.2.2.4.4.6.6.1.2.2.5.3.8,0,.3.1.6.2.9,0,.3,0,.7,0,1,0,.3,0,.7,0,1s.1.6.2.9c0,.3.2.6.4.8h-2c-.1-.1-.2-.3-.2-.6s0-.5,0-.8,0-.6,0-.9c0-.3,0-.7-.1-1,0-.3-.1-.6-.2-.9s-.2-.6-.4-.8c-.2-.2-.4-.4-.6-.5-.3-.1-.6-.2-1-.2h-4.3v5.7h-1.8v-13.3h6.3,0ZM122.7,38.4c.4,0,.7-.2,1-.4s.5-.4.7-.7.2-.7.2-1.2-.2-1.2-.6-1.6-1-.6-1.8-.6h-4.4v4.6h3.7c.4,0,.8,0,1.2,0h0Z"/>
        <path class="cls-3" d="M138.1,32.3v6.6l6.8-6.6h2.3l-5.6,5.4,5.8,7.9h-2.2l-4.8-6.7-2.2,2.1v4.7h-1.8v-13.3h1.8Z"/>
        <path class="cls-3" d="M156.2,45.6h-1.8v-5.4l-5.1-7.9h2.1l4,6.3,3.9-6.3h2l-5.1,7.9v5.4Z"/>
        <path class="cls-3" d="M173.6,44.7c-.9.8-2.2,1.3-3.9,1.3s-3.1-.4-4-1.2-1.4-2.1-1.4-3.9v-8.5h1.8v8.5c0,1.2.3,2.1.9,2.7.6.6,1.6.9,2.7.9s2-.3,2.6-.9.9-1.5.9-2.7v-8.5h1.8v8.5c0,1.7-.4,3-1.4,3.8Z"/>
        <path class="cls-3" d="M185.8,34.1c-.6-.4-1.4-.6-2.3-.6s-.7,0-1.1.1-.7.2-1,.4c-.3.2-.5.4-.7.7s-.2.7-.2,1.1.1.7.4,1,.6.5,1,.6c.4.2.9.3,1.4.4s1,.2,1.6.3,1.1.3,1.6.4,1,.4,1.4.7.7.7,1,1.1.4,1,.4,1.6-.2,1.3-.5,1.8c-.3.5-.7.9-1.2,1.2s-1.1.6-1.7.7c-.6.1-1.2.2-1.8.2s-1.4,0-2.1-.3-1.2-.5-1.8-.8-.9-.9-1.2-1.4c-.3-.6-.4-1.3-.4-2.1h1.7c0,.6.1,1,.3,1.4s.5.7.9,1c.4.3.8.4,1.2.6.5.1,1,.2,1.4.2s.8,0,1.2-.1.8-.2,1.1-.4c.3-.2.6-.4.8-.7s.3-.7.3-1.2-.1-.8-.4-1.1-.6-.5-1-.7-.9-.3-1.4-.4-1-.2-1.6-.3c-.5-.1-1.1-.3-1.6-.4-.5-.2-1-.4-1.4-.6-.4-.3-.7-.6-1-1-.2-.4-.4-.9-.4-1.5s.1-1.2.4-1.7.6-.9,1.1-1.2,1-.5,1.6-.7,1.2-.2,1.8-.2,1.3,0,1.9.2c.6.2,1.1.4,1.5.8.4.3.8.8,1,1.3.3.5.4,1.2.4,1.9h-1.7c-.1-1-.4-1.7-1-2.1h0Z"/>
        <path class="cls-3" d="M194.4,32.3v5.7h7v-5.7h1.8v13.3h-1.8v-6.1h-7v6.1h-1.8v-13.3s1.8,0,1.8,0Z"/>
        <path class="cls-3" d="M216.8,44.7c-.9.8-2.2,1.3-3.9,1.3s-3.1-.4-4-1.2-1.4-2.1-1.4-3.9v-8.5h1.8v8.5c0,1.2.3,2.1.9,2.7.6.6,1.6.9,2.7.9s2-.3,2.6-.9.9-1.5.9-2.7v-8.5h1.8v8.5c0,1.7-.4,3-1.4,3.8Z"/>
        <path class="cls-3" d="M236.4,34.2c-.7-.5-1.5-.7-2.4-.7s-1.5.2-2,.5c-.6.3-1,.7-1.4,1.2s-.6,1.1-.8,1.7c-.2.7-.3,1.3-.3,2s0,1.5.3,2.2c.2.7.4,1.3.8,1.8s.8.9,1.4,1.2c.6.3,1.3.4,2.1.4s1.1,0,1.6-.3c.4-.2.9-.5,1.2-.8.3-.3.6-.8.8-1.2.2-.5.3-1,.3-1.5h1.8c-.2,1.7-.8,3-1.7,3.9-1,.9-2.3,1.4-4,1.4s-1.9-.2-2.7-.5-1.4-.8-1.9-1.5-.9-1.4-1.1-2.2-.4-1.8-.4-2.7.1-1.9.4-2.7.7-1.6,1.2-2.2c.5-.6,1.2-1.1,2-1.5s1.7-.5,2.7-.5,1.4,0,2,.3,1.2.5,1.7.8c.5.4.9.8,1.2,1.3.3.5.5,1.2.6,1.9h-1.8c-.2-.9-.6-1.7-1.3-2.1h0Z"/>
        <path class="cls-3" d="M242.9,36.4c.3-.8.7-1.6,1.2-2.2.5-.7,1.2-1.2,2-1.5.8-.4,1.7-.6,2.8-.6s2,.2,2.8.6c.8.4,1.5.9,2,1.5.5.7.9,1.4,1.2,2.2.3.8.4,1.7.4,2.6s-.1,1.8-.4,2.6-.7,1.6-1.2,2.2-1.2,1.2-2,1.5-1.7.6-2.8.6-2-.2-2.8-.6-1.5-.9-2-1.5-.9-1.4-1.2-2.2c-.3-.8-.4-1.7-.4-2.6s.1-1.8.4-2.6ZM244.5,41c.2.7.5,1.2.8,1.8.4.5.9.9,1.4,1.3.6.3,1.3.5,2.1.5s1.5-.2,2.1-.5c.6-.3,1.1-.7,1.4-1.3.4-.5.6-1.1.8-1.8s.3-1.3.3-2,0-1.3-.3-2c-.2-.7-.5-1.2-.8-1.8-.4-.5-.9-.9-1.4-1.3-.6-.3-1.3-.5-2.1-.5s-1.5.2-2.1.5c-.6.3-1.1.7-1.4,1.3-.4.5-.6,1.1-.8,1.8-.2.7-.3,1.3-.3,2s0,1.3.3,2Z"/>
        <path class="cls-3" d="M260.7,32.3l7,10.8h0v-10.8h1.7v13.3h-1.9l-7-10.7h0v10.7h-1.7v-13.3h1.9Z"/>
        <path class="cls-3" d="M280.4,34.1c-.6-.4-1.4-.6-2.3-.6s-.7,0-1.1.1c-.4,0-.7.2-1,.4s-.5.4-.7.7-.2.7-.2,1.1.1.7.4,1,.6.5,1,.6c.4.2.9.3,1.4.4s1,.2,1.6.3,1,.3,1.6.4,1,.4,1.4.7.7.7,1,1.1.4,1,.4,1.6-.2,1.3-.5,1.8-.7.9-1.2,1.2-1,.6-1.7.7c-.6.1-1.2.2-1.8.2s-1.5,0-2.1-.3c-.7-.2-1.2-.5-1.8-.8s-.9-.9-1.2-1.4-.4-1.3-.4-2.1h1.7c0,.6.1,1,.3,1.4s.5.7.9,1c.4.3.8.4,1.2.6.5.1,1,.2,1.5.2s.8,0,1.2-.1c.4,0,.8-.2,1.1-.4s.6-.4.8-.7.3-.7.3-1.2-.1-.8-.4-1.1-.6-.5-1-.7-.9-.3-1.4-.4-1-.2-1.6-.3c-.5-.1-1-.3-1.6-.4-.5-.2-1-.4-1.4-.6-.4-.3-.7-.6-1-1-.2-.4-.4-.9-.4-1.5s.1-1.2.4-1.7.6-.9,1.1-1.2c.5-.3,1-.5,1.5-.7s1.2-.2,1.8-.2,1.3,0,1.9.2,1.1.4,1.5.8c.4.3.8.8,1,1.3.3.5.4,1.2.4,1.9h-1.7c-.1-1-.4-1.7-1-2.1h0Z"/>
        <path class="cls-3" d="M296.4,44.7c-.9.8-2.2,1.3-3.9,1.3s-3.1-.4-4-1.2-1.4-2.1-1.4-3.9v-8.5h1.8v8.5c0,1.2.3,2.1,1,2.7.6.6,1.5.9,2.7.9s2-.3,2.6-.9.9-1.5.9-2.7v-8.5h1.8v8.5c0,1.7-.5,3-1.4,3.8Z"/>
        <path class="cls-3" d="M303.8,32.3v11.8h7v1.5h-8.8v-13.3h1.8Z"/>
        <path class="cls-3" d="M311,33.8v-1.5h10.6v1.5h-4.4v11.8h-1.8v-11.8s-4.4,0-4.4,0Z"/>
        <path class="cls-3" d="M328.7,32.3l5.2,13.3h-2l-1.5-4h-5.6l-1.5,4h-1.8l5.2-13.3h2ZM330,40.1l-2.2-6.2h0l-2.3,6.2h4.5Z"/>
        <path class="cls-3" d="M338.6,32.3l7,10.8h0v-10.8h1.7v13.3h-1.9l-7-10.7h0v10.7h-1.7v-13.3h1.9Z"/>
        <path class="cls-3" d="M350.2,33.8v-1.5h10.6v1.5h-4.4v11.8h-1.8v-11.8s-4.4,0-4.4,0Z"/>
        <path class="cls-3" d="M370.4,34.1c-.6-.4-1.4-.6-2.3-.6s-.7,0-1.1.1c-.4,0-.7.2-1,.4s-.5.4-.7.7-.2.7-.2,1.1.1.7.4,1,.6.5,1,.6c.4.2.9.3,1.4.4s1,.2,1.6.3,1,.3,1.6.4,1,.4,1.4.7.7.7,1,1.1.4,1,.4,1.6-.2,1.3-.5,1.8-.7.9-1.2,1.2-1,.6-1.7.7c-.6.1-1.2.2-1.8.2s-1.5,0-2.1-.3c-.7-.2-1.2-.5-1.8-.8s-.9-.9-1.2-1.4-.4-1.3-.4-2.1h1.7c0,.6.1,1,.3,1.4s.5.7.9,1,.8.4,1.2.6c.5.1,1,.2,1.5.2s.8,0,1.2-.1c.4,0,.8-.2,1.1-.4s.6-.4.8-.7.3-.7.3-1.2-.1-.8-.4-1.1-.6-.5-1-.7c-.4-.2-.9-.3-1.4-.4s-1-.2-1.6-.3c-.5-.1-1-.3-1.6-.4-.5-.2-1-.4-1.4-.6-.4-.3-.7-.6-1-1-.2-.4-.4-.9-.4-1.5s.1-1.2.4-1.7.6-.9,1.1-1.2c.5-.3,1-.5,1.5-.7s1.2-.2,1.8-.2,1.3,0,1.9.2,1.1.4,1.5.8c.4.3.8.8,1,1.3.3.5.4,1.2.4,1.9h-1.7c-.1-1-.4-1.7-1-2.1h0Z"/>
        <path class="cls-3" d="M391.3,34.2c-.7-.5-1.5-.7-2.4-.7s-1.5.2-2,.5c-.6.3-1,.7-1.4,1.2s-.6,1.1-.8,1.7c-.2.7-.3,1.3-.3,2s0,1.5.3,2.2c.2.7.4,1.3.8,1.8s.8.9,1.4,1.2c.6.3,1.3.4,2,.4s1.1,0,1.6-.3c.5-.2.9-.5,1.2-.8.3-.3.6-.8.8-1.2.2-.5.3-1,.3-1.5h1.8c-.2,1.7-.8,3-1.7,3.9-1,.9-2.3,1.4-4,1.4s-1.9-.2-2.7-.5c-.8-.3-1.4-.8-1.9-1.5s-.9-1.4-1.1-2.2c-.3-.8-.4-1.8-.4-2.7s.1-1.9.4-2.7.7-1.6,1.2-2.2c.5-.6,1.2-1.1,2-1.5s1.7-.5,2.7-.5,1.4,0,2,.3c.6.2,1.2.5,1.7.8s.9.8,1.2,1.3c.3.5.5,1.2.6,1.9h-1.8c-.2-.9-.6-1.7-1.3-2.1h0Z"/>
        <path class="cls-3" d="M397.7,36.4c.3-.8.7-1.6,1.2-2.2.5-.7,1.2-1.2,2-1.5.8-.4,1.7-.6,2.8-.6s2,.2,2.8.6c.8.4,1.5.9,2,1.5.5.7.9,1.4,1.2,2.2.3.8.4,1.7.4,2.6s-.1,1.8-.4,2.6-.7,1.6-1.2,2.2-1.2,1.2-2,1.5-1.7.6-2.8.6-2-.2-2.8-.6-1.5-.9-2-1.5-.9-1.4-1.2-2.2c-.3-.8-.4-1.7-.4-2.6s.1-1.8.4-2.6ZM399.4,41c.2.7.5,1.2.8,1.8.4.5.9.9,1.4,1.3.6.3,1.3.5,2.1.5s1.5-.2,2.1-.5c.6-.3,1.1-.7,1.4-1.3.4-.5.6-1.1.8-1.8s.3-1.3.3-2,0-1.3-.3-2c-.2-.7-.5-1.2-.8-1.8-.4-.5-.9-.9-1.4-1.3-.6-.3-1.3-.5-2.1-.5s-1.5.2-2.1.5c-.6.3-1.1.7-1.4,1.3-.4.5-.6,1.1-.8,1.8-.2.7-.3,1.3-.3,2s0,1.3.3,2Z"/>
        <path class="cls-3" d="M416.1,32.3l4.2,11.2,4.2-11.2h2.4v13.3h-1.7v-11.1h0l-4.2,11.1h-1.5l-4.2-11.1h0v11.1h-1.7v-13.3h2.4Z"/>
        <path class="cls-3" d="M437.1,32.3c1.3,0,2.4.3,3,1s1,1.7,1,2.9-.3,2.2-1,2.9c-.7.7-1.7,1-3,1h-4.1v5.4h-1.8v-13.3h5.8,0ZM436.5,38.7c1,0,1.7-.2,2.2-.6.5-.4.7-1,.7-1.8s-.2-1.4-.7-1.8-1.2-.6-2.2-.6h-3.5v4.9h3.5Z"/>
        <path class="cls-3" d="M449.3,32.3l5.2,13.3h-2l-1.5-4h-5.6l-1.5,4h-1.8l5.2-13.3h2ZM450.5,40.1l-2.2-6.2h0l-2.3,6.2h4.5Z"/>
        <path class="cls-3" d="M459.2,32.3l7,10.8h0v-10.8h1.7v13.3h-1.9l-7-10.7h0v10.7h-1.7v-13.3h1.9Z"/>
        <path class="cls-3" d="M477.7,45.6h-1.8v-5.4l-5.1-7.9h2.1l4,6.3,3.9-6.3h2l-5.1,7.9v5.4Z"/>
      </g>
    </g>
  </g>
</svg>