<?xml version="1.0" encoding="UTF-8"?>
<svg id="_レイヤー_2" data-name="レイヤー 2" xmlns="http://www.w3.org/2000/svg" viewBox="0 0 396.48 37.74">
  <defs>
    <style>
      .cls-1 {
        fill: #fff;
        stroke-width: 0px;
      }
    </style>
  </defs>
  <g id="_文字" data-name="文字">
    <g>
      <g>
        <path class="cls-1" d="M12.77,1.5l.08,22.99s.67,7.71-3.44,10.56c-1.72,1.05-5.99,1.84-9.4-4.71v6.77s17.41,4.94,19.77-12.69V1.5h-7Z"/>
        <path class="cls-1" d="M62.33,37.56l-10.67.11s1.8-6.18-11.46-6.4c-5.28,0-17.69-2.61-17.86-14.6-.17-11.82,10.92-15.84,17.63-15.84,5.95,0,16.74,3.71,16.96,15.39-.22,6.07-3.23,10.05-4.83,11.12h-10.33s7.86-1.8,8.65-12.02c0-8.03-4.94-13.14-11.23-13.14-4.83,0-10.39,4.69-10.39,13.2,0,7.97,4.3,14.54,15.89,14.54,7.27,0,14.74.79,17.63,7.64Z"/>
      </g>
      <g>
        <path class="cls-1" d="M89.98,19.58c-2.31,0-3.78-1.25-4.26-2.63-.36-1.02-.36-1.54-.36-3.19h2.45c-.02.27-.05.7-.05.86,0,1.45.5,2.76,2.17,2.76,1.36,0,2.02-.79,2.02-2.56V2.51h2.51v12.38c0,1.09,0,4.69-4.48,4.69Z"/>
        <path class="cls-1" d="M108.7,19.04c-.25-.48-.48-1.04-.5-3.51-.05-2.6-.68-3.35-2.58-3.35h-4.37v6.86h-2.51V2.51h7.22c3.28,0,5.07,1.83,5.07,4.57,0,.54-.09,1.43-.57,2.29-.63,1.11-1.34,1.31-1.99,1.49,1.47.45,2.2.97,2.24,4.35.04,2.9.43,3.24,1.15,3.83h-3.17ZM106.01,4.78h-4.75v5.14h4.73c1.06,0,2.51-.81,2.51-2.65,0-.84-.36-2.49-2.49-2.49Z"/>
        <path class="cls-1" d="M133.38,18.32c-.68.91-1.54.91-2.74.91h-1.18c-1.18,0-2.78,0-2.78-2.56,0-1.92.52-7.31.75-9.01h-.88l-2.42.07c-.34,4.41-1.72,9.82-7.99,12.43l-1.95-2.08c5.32-1.63,7.13-4.08,7.77-10.28l-2.02.04c-.93.02-2.4.11-3.44.2v-2.17c.82.07,2.54.05,3.4.02l2.17-.07c.02-1.74,0-3.51-.11-5.25l2.54.34c.45.07.72.11.72.36s-.2.34-.75.59c-.02.61-.18,3.35-.2,3.92l2.24-.07c.48-.02,2.53-.09,3.44-.2-.72,4.71-1,8.94-1,10.32,0,1.24.23,1.38.81,1.38h.97c.66,0,.93,0,1.36-1.02.36-.86.57-2.08.66-2.54l1.88,1.7c-.34,1.4-.88,2.49-1.25,2.97Z"/>
        <path class="cls-1" d="M144.8,12.84c.04-1.56-.32-3.55-.7-4.84-.23-.7-.27-.79-.86-2.26-.02,5.89-.04,6.84-.57,8.81-.68,2.63-2.06,4.57-4.3,6.11l-1.9-1.56c1.47-.86,2.9-1.9,3.83-4.23.81-2.04.81-3.83.81-6.97,0-2.54,0-5.55-.23-7.61l2.47.29c.32.05.59.07.59.41,0,.27-.43.43-.68.54-.02.95-.02,1.27-.02,4.05l1.74-.77c.95,1.95,1.79,4.87,2.06,6.95l-2.24,1.09ZM140.02,5.57c-.11,2.69-.14,2.99-.43,4.71-.27,1.63-.48,2.22-.68,2.81l-2.2-.48c.93-1.99,1.31-3.62,1.31-6.41,0-1-.04-1.31-.16-1.92l2.31.32c.41.04.54.18.54.36,0,.29-.2.38-.7.61ZM155.85,1.36c0,.32-.04,4.35-.04,5.16v5.66c0,.2.11,5.14.43,8.42h-2.65c.18-1.74.25-5.82.25-7.74v-1.65l-2.22,1.29c-.2-2.15-1.31-4.66-1.36-4.78-.16-.36-.45-.95-1.13-1.9v7.67c0,2.06.09,4.14.25,6.2h-2.6c.11-.57.25-1.81.27-3.35,0-.5.07-2.69.07-3.15v-6.56c0-1.15-.07-4.8-.2-5.89l2.42.2c.34.02.68.07.68.43,0,.25-.32.39-.82.61-.02.77-.02,1.27-.04,3.51l1.79-.93c1.72,2.76,2.63,5.39,2.9,6.36v-4.55c0-1.56-.04-4.26-.18-6.18l2.31.27c.34.04.57.11.57.38s-.23.36-.68.5Z"/>
        <path class="cls-1" d="M173.02,17.66c.05-.34.05-.5.07-1.18h-6.13c-1.56,0-4.87.07-6.27.25v-2.47c2.42.11,4.84.2,7.29.2h5.25V5.82h-5.48c-.86,0-4.62.07-5.39.09-.77.04-1.31.11-1.92.18v-2.44c.75.07,1.15.09,1.74.11.61.05,3.37.07,3.94.07h5.3c1.13,0,3.1-.05,4.23-.07-.09.91-.14,3.55-.14,4.53v3.83c0,1.29.09,4.39.27,5.55h-2.76Z"/>
        <path class="cls-1" d="M182.98,18.43c-.05.09-.16.45-.2.52-.04.09-.14.14-.25.14-.16,0-.23-.09-.48-.54l-1.22-2.35c3.49-.48,11.64-4.03,15.94-9.58l.91,2.2c-4.44,5.23-11.57,8.29-14.69,9.62ZM186.13,6.75c-1.49-1.43-3.83-2.65-4.94-3.12l1.25-2.04c3.37,1.61,4.39,2.58,4.98,3.15l-1.29,2.01Z"/>
        <path class="cls-1" d="M216.07,8.35c-.11,2.94-.23,5.73-2.24,8.24-1.72,2.15-3.65,3.12-4.44,3.53l-1.95-1.52c5.93-2.74,6.34-5.59,6.43-10.28h-5.55v1.38c0,2.15.07,3.22.25,4.21h-2.38c.09-.75.23-3.76.23-4.44v-1.15c-2.44.07-3.15.07-4.84.18v-2.2c1.34.09,3.49.18,4.84.18v-.43c0-2.13-.07-2.83-.2-4.44l2.22.2c.43.05.72.09.72.41s-.34.52-.66.7c-.07.61-.18,1.45-.18,3.55h5.57c0-1.38-.11-4.01-.41-5.34l2.35.2c.7.07.79.07.79.36,0,.14-.07.2-.63.72.02.79.02,1.13.07,4.03,2.47-.05,3.4-.11,4.14-.16v2.2c-.88-.05-1.72-.11-4.14-.16Z"/>
        <path class="cls-1" d="M228.96,3.85c-.09.07-.54.34-.61.41-.02,7-.91,11.61-5.59,14.24l-1.79-1.9c.88-.38,2.69-1.13,4.03-4.01.41-.88.68-1.92.81-3.26.14-1.18.14-2.11.14-2.65,0-2.17-.16-3.28-.27-4.01l2.67.36c.57.07.75.11.75.48,0,.16-.04.25-.14.34ZM233.12,18.22l-1.61-1.2c.09-.47.14-1.95.14-2.51.02-.75.04-1.97.04-2.69v-4.62c0-.36-.11-4.21-.16-4.91l2.54.27c.29.02.61.14.61.45,0,.18-.09.29-.25.41-.2.16-.23.18-.38.32-.14,1-.16,3.89-.16,4.98v6.29c.59-.32,2.04-1.11,3.8-3.06,1.13-1.25,1.65-2.15,2.29-3.4l1.52,1.81c-2.9,4.57-6.41,6.68-8.38,7.86Z"/>
        <path class="cls-1" d="M260.62,6.61c-1.27,3.78-1.77,4.73-2.33,5.73.79.57,1.29,1,2.01,1.61l-1.54,1.9c-.52-.59-1.11-1.11-1.72-1.61-2.9,3.87-6.48,5.23-8.56,5.91l-1.7-1.88c1.06-.2,3.4-.63,6.2-2.92.86-.68,1.63-1.47,2.31-2.35-.91-.54-2.42-1.43-4.41-2.31l1.13-1.43c1.2.41,3.87,1.65,4.44,1.95.86-1.49,1.43-3.15,1.81-4.84h-6.45c-1.88,2.74-2.72,3.62-4.44,4.98l-2.17-1.31c.88-.52,2.58-1.52,4.57-4.44.57-.81,1.43-2.22,1.92-3.53.2-.54.27-.86.34-1.22l2.47.97c.14.05.38.2.38.41,0,.32-.5.48-.91.52-.18.27-1.02,1.77-1.09,1.88h2.76c.41,0,1.77-.07,2.81-.25.68-.11,1.15-.34,1.49-.5l1.68,1.63c-.59.52-.7.68-1.02,1.11Z"/>
        <path class="cls-1" d="M267.71,18.43c-.05.09-.16.45-.2.52-.04.09-.14.14-.25.14-.16,0-.23-.09-.48-.54l-1.22-2.35c3.49-.48,11.64-4.03,15.94-9.58l.91,2.2c-4.44,5.23-11.57,8.29-14.69,9.62ZM270.86,6.75c-1.49-1.43-3.83-2.65-4.94-3.12l1.25-2.04c3.37,1.61,4.39,2.58,4.98,3.15l-1.29,2.01Z"/>
        <path class="cls-1" d="M287.75,8.49c-.36-1.09-1.06-2.9-2.4-4.57l2.11-.79c1.63,2.22,2.08,3.51,2.45,4.62l-2.15.75ZM302.4,4.37c-1.22,3.89-2.38,6.45-3.94,8.49-1.4,1.81-4.69,4.89-7.97,6.07l-1.99-1.86c.95-.23,2.38-.59,4.69-2.29,2.06-1.49,4.17-3.49,5.66-7.22,1.25-3.12,1.25-4.55,1.25-5.32l2.56,1.02c.45.18.66.32.66.5,0,.23-.09.27-.91.61ZM293.32,7.4c-.29-1.88-1.63-3.83-2.31-4.73l2.2-.7c.79.97,1.92,2.85,2.33,4.73l-2.22.7Z"/>
        <path class="cls-1" d="M313.3,13.58c-.54-.45-1.06-1.06-1.81-2.24v3.3c0,1.95.02,3.19.14,6.09h-2.24c.07-2.04.16-4.07.16-6.09v-2.76c-.95,1.95-1.52,2.67-2.2,3.37l-1.81-1.15c2.47-2.49,3.37-5.61,3.74-7.61-.79,0-1.88.05-2.81.2v-2.24c.86.16,2.13.2,2.54.2h.52c-.02-2.2-.02-2.45-.07-4.53l2.26.2c.23.02.61.07.61.36,0,.11,0,.25-.75.54-.09,2.69-.09,2.97-.09,3.42.23,0,1.58-.02,2.6-.2v2.24c-1.04-.18-2.26-.2-2.6-.2v.66c.57,1.9,1.65,3.62,3.21,4.84l-1.4,1.58ZM325.88,19.18c-1.81-1.27-3.28-2.97-4.35-4.91v.34c0,2.49.11,5.57.14,6.13h-2.31c.02-1.22.14-3.98.14-6.07v-.66c-.7,1.13-2.4,3.69-5.27,5.27l-1.74-1.54c2.97-1.34,4.91-3.78,6.13-6.72h-.32c-1.36,0-2.72.05-4.07.18v-2.22c1.4.14,3.46.18,4.07.18h1.2v-2.76h-2.38c-.68,1.34-1.18,1.9-1.54,2.31l-1.92-1.2c1.61-1.38,2.56-3.69,2.85-6.14l2.2.79c.16.05.36.16.36.36s-.07.23-.68.39c-.09.38-.2.79-.54,1.79h1.63c-.02-2.11-.02-2.72-.07-4.62l2.38.2c.39.02.5.07.5.27,0,.29-.34.48-.68.66l-.07,3.46c1.52-.05,3.06-.07,4.57-.2v2.04c-.68-.04-1.4-.07-2.35-.07h-1.79c-.18,0-.29-.02-.43-.02v2.74h.81c1.38,0,2.76-.05,4.12-.18v2.22c-1.79-.18-3.96-.18-4.12-.18h-.36c1.15,2.74,2.99,5.21,5.64,6.61l-1.74,1.54Z"/>
        <path class="cls-1" d="M348.95,20.1c-.27.32-.57.54-1.22.54-2.47,0-6.05-5.14-6.9-13.76h-4.1c-2.4,0-4.6.09-6.5.18v-2.22c2.42.16,2.99.18,6.5.18h3.92c-.11-1.13-.2-2.51-.2-4.96l2.72.25c.32.02.43.04.43.27,0,.25-.16.36-.63.7-.11,2.04-.09,3.1-.05,3.74h.45c2.2,0,4.39-.05,6.56-.18v2.22c-2.17-.14-4.37-.18-6.56-.18h-.34c.48,4.8,2.06,8.65,3.33,10.1.36.43.84.93,1.27.93.54,0,1.31-1.92,1.54-2.83l1.43,2.15c-.38,1.13-.91,2.06-1.63,2.88ZM341.09,17.79c-1.72.41-9.03,1.88-9.55,1.97-.02.2-.09.72-.52.72-.27,0-.29-.25-.34-.45l-.43-2.45c1.45-.16,3.35-.38,4.37-.54v-5.27h-.68c-.48,0-2.58.25-3.01.27v-2.15c.23.04.43.09.72.09.38.02,2.13.07,2.49.07h3.17c.25-.02,3.33-.14,3.37-.14v1.99c-.36-.02-3.01-.14-3.44-.14h-.38v4.94c.72-.14,3.85-.7,4.51-.79l-.27,1.88ZM347.18,4.21c-.75-.84-1.7-1.79-2.85-2.49l1.47-1.47c1.56.79,2.4,1.72,2.94,2.38l-1.56,1.58Z"/>
        <path class="cls-1" d="M372.5,9.67c-1.9-.68-2.69-1.04-3.96-1.79v1.29c-1.13-.14-2.51-.14-3.62-.14h-3.64c-1.15,0-2.54,0-3.62.14v-1.38c-1.95,1.29-2.85,1.61-3.58,1.88l-1.65-1.88c2.01-.61,3.6-1.2,5.75-2.97,1.63-1.34,3.12-2.88,3.98-4.82l2.35.81c.23.07.39.2.39.43,0,.18-.18.32-.39.39.63,1.52,4.17,4.84,9.44,6.02l-1.45,2.01ZM364.92,13.15h-1.9c-.66,1.77-1.65,3.4-2.4,4.37,1.74-.14,4.14-.43,6.5-.75-.54-.59-.93-.91-1.99-1.74l1.72-1.18c2.04,1.54,3.87,4.08,4.51,5.39l-1.72,1.43c-.23-.59-.5-1.22-1.22-2.26-7.58,1.11-8.17,1.2-11.55,1.49-.09.2-.27.57-.54.57-.07,0-.25-.05-.29-.34l-.29-2.33c1.18-.02,1.65-.05,2.4-.09.66-.93,1.83-2.58,2.49-4.55h-.84c-2.42,0-3.55,0-5.71.23v-2.17c2.17.11,2.97.14,5.86.14h4.94c2.67,0,4.26-.02,7.49-.27v2.17c-1.58-.09-3.51-.09-7.45-.09ZM362.86,2.85c-.93,1.2-2.15,2.78-4.39,4.35.23.02,1.7.11,2.81.11h3.64c.88,0,2.11-.07,2.56-.09-2.24-1.49-3.15-2.47-4.62-4.37Z"/>
        <path class="cls-1" d="M384.3,14.01c-.47-.39-1.4-1.11-2.54-2.35v4.71c0,.91.11,3.51.16,4.28h-2.33c.18-2.15.2-4.05.2-4.17v-4.44c-1.31,1.27-2.47,1.99-3.24,2.49l-1.36-1.79c4.23-2.29,5.95-4.98,6.57-6.43h-2.54c-1,0-1.97.07-2.97.14v-2.13c.75.11.93.11,2.63.11h.75v-.45c0-1.15,0-1.79-.07-3.8l2.47.23c.23.02.43.2.43.41,0,.32-.45.5-.63.54-.02.54-.07,1.61-.07,2.63v.45c.79-.02,1.61-.09,2.4-.25l.81.86c-.36.57-1.92,3.03-2.26,3.53-.27.38-.45.66-.61.86,1.13,1.15,2.4,2.15,3.74,3.08l-1.54,1.49ZM392.2,19.52h-4.03c-1.81,0-2.54.02-4.03.16v-2.06c1.27.11,1.86.11,4.03.11h1.18v-8.81h-1c-1.18,0-2.56,0-3.64.14v-2.04c1.47.18,3.51.18,3.64.18h1c-.02-3.49-.05-3.87-.09-7.09l2.35.23c.16.02.57.04.57.34,0,.23-.16.32-.52.5-.02,2.54-.05,2.72-.07,6.02h.43s2.06,0,3.64-.18v2.04c-1.13-.14-2.54-.14-3.64-.14h-.43v8.81h.66c1.09,0,2.85-.05,4.23-.18v2.13c-1.56-.11-2.17-.16-4.28-.16Z"/>
      </g>
      <g>
        <path class="cls-1" d="M91.57,35.44c-.11.36-.28.68-.54.96-.25.28-.58.51-.99.67-.41.17-.93.25-1.54.25-1.02,0-1.8-.27-2.36-.8-.55-.54-.83-1.32-.83-2.36v-.67h1.45v.46c0,.32.03.61.08.87.05.27.14.49.27.69.13.19.31.34.54.45.23.11.52.16.88.16.66,0,1.12-.18,1.37-.54.25-.36.37-.84.37-1.44v-7.99h1.45v8.2c0,.37-.05.73-.16,1.09Z"/>
        <path class="cls-1" d="M100.39,26.15c1.04,0,1.85.26,2.44.77.59.51.88,1.21.88,2.1,0,.66-.15,1.24-.45,1.74-.3.5-.78.84-1.45,1.02v.03c.32.06.57.16.77.31.2.14.36.31.47.51.12.2.2.42.26.67.05.24.1.5.13.76.02.27.04.54.05.81,0,.28.04.55.08.81.04.27.1.52.18.76.08.24.19.45.34.63h-1.62c-.1-.11-.17-.26-.21-.46-.04-.19-.06-.41-.07-.65-.01-.24-.02-.5-.03-.77-.01-.28-.04-.54-.09-.81-.04-.27-.09-.52-.15-.76-.06-.24-.16-.45-.29-.63-.13-.18-.31-.32-.52-.43-.21-.11-.5-.16-.86-.16h-3.55v4.67h-1.45v-10.92h5.14ZM100.69,31.11c.31-.05.57-.15.8-.3.23-.15.41-.35.55-.6.14-.25.21-.57.21-.97,0-.55-.15-1-.46-1.35s-.8-.52-1.48-.52h-3.61v3.81h3.03c.34,0,.66-.03.96-.08Z"/>
        <path class="cls-1" d="M113.27,26.15v5.45l5.54-5.45h1.88l-4.6,4.41,4.79,6.52h-1.84l-3.95-5.52-1.82,1.7v3.82h-1.45v-10.92h1.45Z"/>
        <path class="cls-1" d="M128.19,37.08h-1.45v-4.47l-4.22-6.46h1.73l3.27,5.2,3.2-5.2h1.65l-4.18,6.46v4.47Z"/>
        <path class="cls-1" d="M142.38,36.27c-.74.7-1.81,1.05-3.18,1.05s-2.51-.33-3.3-1c-.79-.67-1.19-1.73-1.19-3.19v-6.98h1.45v6.98c0,.98.26,1.72.78,2.23.52.51,1.27.76,2.25.76.93,0,1.63-.25,2.12-.76.48-.5.73-1.25.73-2.23v-6.98h1.45v6.98c0,1.4-.37,2.45-1.12,3.14Z"/>
        <path class="cls-1" d="M152.4,27.64c-.49-.35-1.1-.53-1.86-.53-.31,0-.61.03-.9.09-.3.06-.56.16-.79.31-.23.14-.41.33-.55.57-.14.24-.21.54-.21.9,0,.34.1.61.3.82.2.21.46.38.79.51.33.13.71.24,1.12.33.42.09.84.18,1.28.28.43.1.86.22,1.28.36.42.14.79.32,1.12.56.33.23.6.53.8.89.2.36.3.81.3,1.35,0,.58-.13,1.08-.39,1.49-.26.41-.59.75-1,1.01-.41.26-.86.45-1.37.57-.5.12-1.01.18-1.51.18-.61,0-1.19-.08-1.74-.23-.55-.15-1.02-.39-1.44-.7-.41-.31-.74-.71-.98-1.19-.24-.48-.36-1.06-.36-1.72h1.38c0,.46.09.85.27,1.19.18.33.41.6.7.82.29.21.63.37,1.02.47.39.1.79.15,1.19.15.33,0,.66-.03.99-.09.33-.06.63-.17.9-.31.26-.15.48-.35.64-.6s.24-.58.24-.98-.1-.68-.3-.92c-.2-.23-.46-.43-.8-.57-.33-.15-.71-.27-1.12-.36-.42-.09-.84-.19-1.28-.28-.43-.1-.86-.21-1.28-.34-.42-.13-.79-.3-1.12-.5-.33-.21-.6-.48-.8-.81-.2-.33-.3-.75-.3-1.25,0-.55.11-1.03.34-1.43.22-.4.52-.73.89-.99.37-.26.8-.45,1.27-.58.47-.13.96-.19,1.46-.19.56,0,1.08.07,1.56.2.48.13.9.34,1.26.63.36.29.65.65.86,1.08.21.43.32.95.35,1.55h-1.38c-.08-.79-.36-1.35-.85-1.71Z"/>
        <path class="cls-1" d="M159.47,26.15v4.7h5.75v-4.7h1.45v10.92h-1.45v-5h-5.75v5h-1.45v-10.92h1.45Z"/>
        <path class="cls-1" d="M177.82,36.27c-.74.7-1.81,1.05-3.18,1.05s-2.51-.33-3.3-1c-.79-.67-1.19-1.73-1.19-3.19v-6.98h1.45v6.98c0,.98.26,1.72.78,2.23.52.51,1.27.76,2.25.76.93,0,1.63-.25,2.12-.76.48-.5.73-1.25.73-2.23v-6.98h1.45v6.98c0,1.4-.37,2.45-1.12,3.14Z"/>
        <path class="cls-1" d="M193.95,27.7c-.56-.39-1.22-.58-1.98-.58-.65,0-1.21.12-1.68.37-.46.24-.85.57-1.15.99-.3.41-.52.88-.67,1.42-.14.53-.21,1.08-.21,1.65,0,.62.07,1.21.21,1.77.14.56.36,1.04.67,1.45.3.41.69.74,1.16.99.47.25,1.03.37,1.68.37.48,0,.91-.08,1.28-.24.37-.16.69-.38.96-.66.27-.28.48-.61.64-1,.15-.39.24-.81.28-1.25h1.45c-.14,1.38-.62,2.45-1.42,3.21-.81.76-1.91,1.15-3.3,1.15-.85,0-1.59-.15-2.22-.44-.63-.29-1.16-.69-1.58-1.2s-.73-1.11-.94-1.81c-.21-.69-.31-1.44-.31-2.23s.11-1.54.34-2.24c.22-.7.55-1.31.99-1.83.43-.52.97-.93,1.62-1.23.65-.3,1.39-.45,2.23-.45.57,0,1.11.08,1.62.23.51.15.96.38,1.36.67.4.3.73.67.99,1.11.26.44.44.96.52,1.54h-1.45c-.16-.77-.52-1.36-1.08-1.74Z"/>
        <path class="cls-1" d="M199.25,29.47c.22-.69.55-1.3.99-1.83.44-.53.98-.95,1.64-1.27.65-.32,1.41-.47,2.28-.47s1.63.16,2.28.47c.65.32,1.2.74,1.64,1.27.44.53.77,1.14.99,1.83.22.69.33,1.4.33,2.15s-.11,1.46-.33,2.15c-.22.69-.55,1.3-.99,1.83-.44.53-.98.95-1.64,1.26-.65.31-1.41.47-2.28.47s-1.63-.16-2.28-.47c-.65-.31-1.2-.73-1.64-1.26-.44-.53-.77-1.14-.99-1.83-.22-.69-.33-1.41-.33-2.15s.11-1.46.33-2.15ZM200.59,33.24c.14.54.37,1.02.67,1.45.31.43.7.77,1.18,1.03.48.26,1.05.39,1.71.39s1.23-.13,1.71-.39c.48-.26.87-.6,1.18-1.03.31-.43.53-.91.67-1.45.14-.54.21-1.08.21-1.63s-.07-1.09-.21-1.63c-.14-.54-.37-1.02-.67-1.45-.31-.43-.7-.77-1.18-1.03-.48-.26-1.05-.39-1.71-.39s-1.23.13-1.71.39c-.48.26-.87.6-1.18,1.03-.31.43-.53.91-.67,1.45-.14.54-.21,1.08-.21,1.63s.07,1.09.21,1.63Z"/>
        <path class="cls-1" d="M213.87,26.15l5.75,8.86h.03v-8.86h1.38v10.92h-1.59l-5.71-8.77h-.03v8.77h-1.38v-10.92h1.55Z"/>
        <path class="cls-1" d="M230.03,27.64c-.49-.35-1.1-.53-1.86-.53-.31,0-.61.03-.9.09-.3.06-.56.16-.79.31-.23.14-.41.33-.55.57-.14.24-.21.54-.21.9,0,.34.1.61.3.82.2.21.46.38.79.51.33.13.71.24,1.12.33.42.09.84.18,1.28.28.43.1.86.22,1.28.36.42.14.79.32,1.12.56.33.23.6.53.8.89.2.36.3.81.3,1.35,0,.58-.13,1.08-.39,1.49-.26.41-.59.75-1,1.01-.41.26-.86.45-1.37.57-.5.12-1.01.18-1.51.18-.61,0-1.19-.08-1.74-.23-.55-.15-1.02-.39-1.44-.7-.41-.31-.74-.71-.98-1.19-.24-.48-.36-1.06-.36-1.72h1.38c0,.46.09.85.27,1.19.18.33.41.6.7.82.29.21.63.37,1.02.47.39.1.79.15,1.19.15.33,0,.66-.03.99-.09.33-.06.63-.17.9-.31.26-.15.48-.35.64-.6.16-.26.24-.58.24-.98s-.1-.68-.3-.92c-.2-.23-.46-.43-.79-.57s-.71-.27-1.12-.36c-.42-.09-.84-.19-1.28-.28-.43-.1-.86-.21-1.28-.34-.42-.13-.79-.3-1.12-.5-.33-.21-.6-.48-.8-.81-.2-.33-.3-.75-.3-1.25,0-.55.11-1.03.34-1.43.22-.4.52-.73.89-.99.37-.26.8-.45,1.27-.58.47-.13.96-.19,1.46-.19.56,0,1.08.07,1.56.2.48.13.9.34,1.26.63.36.29.65.65.86,1.08.21.43.32.95.35,1.55h-1.38c-.08-.79-.36-1.35-.85-1.71Z"/>
        <path class="cls-1" d="M243.19,36.27c-.74.7-1.81,1.05-3.18,1.05s-2.51-.33-3.3-1c-.79-.67-1.19-1.73-1.19-3.19v-6.98h1.45v6.98c0,.98.26,1.72.78,2.23.52.51,1.27.76,2.25.76.93,0,1.63-.25,2.12-.76.48-.5.73-1.25.73-2.23v-6.98h1.45v6.98c0,1.4-.37,2.45-1.12,3.14Z"/>
        <path class="cls-1" d="M249.23,26.15v9.7h5.78v1.22h-7.24v-10.92h1.45Z"/>
        <path class="cls-1" d="M255.11,27.38v-1.22h8.73v1.22h-3.64v9.7h-1.45v-9.7h-3.64Z"/>
        <path class="cls-1" d="M269.7,26.15l4.27,10.92h-1.61l-1.19-3.29h-4.62l-1.22,3.29h-1.48l4.25-10.92h1.61ZM270.71,32.56l-1.82-5.09h-.03l-1.85,5.09h3.7Z"/>
        <path class="cls-1" d="M277.81,26.15l5.75,8.86h.03v-8.86h1.38v10.92h-1.59l-5.71-8.77h-.03v8.77h-1.38v-10.92h1.55Z"/>
        <path class="cls-1" d="M287.33,27.38v-1.22h8.73v1.22h-3.64v9.7h-1.45v-9.7h-3.64Z"/>
        <path class="cls-1" d="M303.87,27.64c-.48-.35-1.1-.53-1.86-.53-.31,0-.61.03-.9.09-.3.06-.56.16-.79.31-.23.14-.41.33-.55.57-.14.24-.21.54-.21.9,0,.34.1.61.3.82.2.21.46.38.79.51.33.13.71.24,1.12.33.42.09.84.18,1.28.28.43.1.86.22,1.28.36.42.14.79.32,1.12.56.33.23.6.53.8.89.2.36.3.81.3,1.35,0,.58-.13,1.08-.39,1.49-.26.41-.59.75-1,1.01-.41.26-.86.45-1.37.57-.5.12-1.01.18-1.51.18-.61,0-1.19-.08-1.74-.23-.55-.15-1.02-.39-1.44-.7-.41-.31-.74-.71-.98-1.19-.24-.48-.36-1.06-.36-1.72h1.38c0,.46.09.85.27,1.19.18.33.41.6.7.82s.63.37,1.02.47c.39.1.79.15,1.19.15.33,0,.66-.03.99-.09.33-.06.63-.17.9-.31.26-.15.48-.35.64-.6s.24-.58.24-.98-.1-.68-.3-.92c-.2-.23-.46-.43-.79-.57-.33-.15-.71-.27-1.12-.36s-.84-.19-1.28-.28c-.43-.1-.86-.21-1.28-.34-.42-.13-.79-.3-1.12-.5-.33-.21-.6-.48-.8-.81-.2-.33-.3-.75-.3-1.25,0-.55.11-1.03.34-1.43.22-.4.52-.73.89-.99.37-.26.8-.45,1.27-.58.47-.13.96-.19,1.46-.19.56,0,1.08.07,1.56.2.48.13.9.34,1.26.63.36.29.65.65.86,1.08.21.43.32.95.34,1.55h-1.38c-.08-.79-.36-1.35-.85-1.71Z"/>
        <path class="cls-1" d="M321.01,27.7c-.56-.39-1.22-.58-1.98-.58-.65,0-1.21.12-1.67.37-.46.24-.85.57-1.15.99-.3.41-.52.88-.67,1.42-.14.53-.21,1.08-.21,1.65,0,.62.07,1.21.21,1.77.14.56.36,1.04.67,1.45.3.41.69.74,1.16.99.47.25,1.03.37,1.68.37.48,0,.91-.08,1.28-.24.37-.16.69-.38.96-.66.27-.28.48-.61.64-1,.15-.39.24-.81.28-1.25h1.45c-.14,1.38-.62,2.45-1.42,3.21-.81.76-1.91,1.15-3.3,1.15-.85,0-1.59-.15-2.22-.44-.63-.29-1.16-.69-1.58-1.2-.42-.51-.73-1.11-.94-1.81-.21-.69-.31-1.44-.31-2.23s.11-1.54.34-2.24c.22-.7.55-1.31.99-1.83.43-.52.97-.93,1.62-1.23.65-.3,1.39-.45,2.23-.45.57,0,1.11.08,1.62.23.51.15.96.38,1.36.67.4.3.73.67.99,1.11.26.44.44.96.52,1.54h-1.45c-.16-.77-.52-1.36-1.08-1.74Z"/>
        <path class="cls-1" d="M326.3,29.47c.22-.69.55-1.3.99-1.83.44-.53.98-.95,1.64-1.27.65-.32,1.41-.47,2.28-.47s1.63.16,2.28.47c.65.32,1.2.74,1.64,1.27.44.53.77,1.14.99,1.83.22.69.33,1.4.33,2.15s-.11,1.46-.33,2.15c-.22.69-.55,1.3-.99,1.83-.44.53-.98.95-1.64,1.26-.65.31-1.41.47-2.28.47s-1.63-.16-2.28-.47c-.65-.31-1.2-.73-1.64-1.26-.44-.53-.77-1.14-.99-1.83-.22-.69-.33-1.41-.33-2.15s.11-1.46.33-2.15ZM327.64,33.24c.14.54.37,1.02.67,1.45.31.43.7.77,1.18,1.03.48.26,1.05.39,1.71.39s1.23-.13,1.71-.39c.48-.26.87-.6,1.18-1.03.31-.43.53-.91.67-1.45.14-.54.21-1.08.21-1.63s-.07-1.09-.21-1.63c-.14-.54-.37-1.02-.67-1.45-.31-.43-.7-.77-1.18-1.03-.48-.26-1.05-.39-1.71-.39s-1.23.13-1.71.39c-.48.26-.87.6-1.18,1.03-.31.43-.53.91-.67,1.45-.14.54-.21,1.08-.21,1.63s.07,1.09.21,1.63Z"/>
        <path class="cls-1" d="M341.39,26.15l3.44,9.18,3.46-9.18h1.99v10.92h-1.38v-9.09h-.03l-3.41,9.09h-1.24l-3.41-9.09h-.03v9.09h-1.38v-10.92h1.99Z"/>
        <path class="cls-1" d="M358.61,26.15c1.1,0,1.93.28,2.5.85s.85,1.36.85,2.38-.28,1.82-.85,2.39c-.57.57-1.4.85-2.5.84h-3.33v4.47h-1.45v-10.92h4.79ZM358.12,31.39c.83.01,1.43-.16,1.81-.51.38-.35.57-.85.57-1.5s-.19-1.15-.57-1.49c-.38-.34-.99-.51-1.81-.51h-2.84v4.01h2.84Z"/>
        <path class="cls-1" d="M368.62,26.15l4.27,10.92h-1.61l-1.19-3.29h-4.62l-1.22,3.29h-1.48l4.25-10.92h1.61ZM369.63,32.56l-1.82-5.09h-.03l-1.85,5.09h3.7Z"/>
        <path class="cls-1" d="M376.73,26.15l5.75,8.86h.03v-8.86h1.38v10.92h-1.59l-5.71-8.77h-.03v8.77h-1.38v-10.92h1.55Z"/>
        <path class="cls-1" d="M391.93,37.08h-1.45v-4.47l-4.22-6.46h1.73l3.27,5.2,3.2-5.2h1.65l-4.18,6.46v4.47Z"/>
      </g>
    </g>
  </g>
</svg>