<?xml version="1.0" encoding="UTF-8"?>
<svg id="_レイヤー_2" data-name="レイヤー 2" xmlns="http://www.w3.org/2000/svg" viewBox="0 0 102.21 23.9">
  <defs>
    <style>
      .cls-1 {
        fill: #4d4d4d;
        stroke-width: 0px;
      }
    </style>
  </defs>
  <g id="_レイヤー_1-2" data-name="レイヤー 1">
    <g>
      <path class="cls-1" d="M5.75,15.31c0,2.47.08,3.9.08,5.17,0,1.46-.21,2.13-.78,2.6-.57.44-1.22.57-2.86.57q-.81,0-.99-.78c-.16-.81-.39-1.46-.65-1.9.6.08,1.17.1,1.85.1.62,0,.81-.23.81-.99v-5.12c-.39.16-.78.29-1.12.39-.47.16-.78.31-.94.44-.1.08-.26.16-.42.16s-.26-.1-.31-.31c-.18-.7-.31-1.59-.42-2.5.75-.1,1.48-.26,2.39-.49.23-.05.52-.13.81-.23v-4.91h-.29c-1.69,0-2.21.05-2.37.05-.23,0-.26-.03-.26-.29v-1.87c0-.29.03-.31.26-.31.16,0,.68.05,2.37.05h.29v-1.35c0-1.69-.03-2.5-.18-3.69.96.03,1.77.08,2.65.18.26.03.42.13.42.26,0,.23-.1.39-.18.57-.13.31-.16.86-.16,2.63v1.4c1.35,0,1.79-.05,1.95-.05.29,0,.31.03.31.31v1.87c0,.26-.03.29-.31.29-.16,0-.6-.03-1.95-.05v4.03c.7-.26,1.43-.57,2.13-.86-.05.42-.13.99-.13,1.61,0,.86-.03.81-.75,1.14l-1.25.55v1.33ZM12.12,14.82c-2.5,0-3.35.05-3.51.05-.26,0-.29-.03-.29-.29v-1.85c0-.26.03-.29.29-.29.16,0,1.01.05,3.51.05h2.05c-.03-.65-.08-1.38-.16-2.29.96.03,1.72.08,2.6.18.26.03.39.16.39.29,0,.23-.13.44-.18.65-.08.26-.1.62-.1,1.17h2.91c2.5,0,3.35-.05,3.51-.05.29,0,.31.03.31.29v1.85c0,.26-.03.29-.31.29-.16,0-1.01-.05-3.51-.05h-1.82c1.64,2.13,3.69,3.77,6.32,4.99-.44.47-.78,1.07-1.09,1.79-.18.42-.26.6-.44.6-.13,0-.31-.13-.62-.31-2.21-1.33-4.08-3.22-5.33-5.3.03,2.65.13,6.29.13,6.97,0,.26-.03.29-.31.29h-2.05c-.26,0-.29-.03-.29-.29,0-.68.1-4.26.13-6.94-1.3,2.11-3.09,3.82-5.43,5.28-.26.18-.42.29-.55.29-.16,0-.26-.18-.52-.6-.42-.65-.81-1.09-1.2-1.46,2.73-1.3,4.76-3.02,6.34-5.3h-.78ZM22.44,1.87c.16.18.23.31.23.52,0,.16-.13.34-.42.34-.39.03-.81.13-1.33.26-3.43.94-6.87,1.43-10.92,1.79-.86.08-.86.05-1.09-.73-.18-.6-.44-1.17-.7-1.59,4.47-.21,7.62-.73,10.37-1.4,1.01-.26,1.56-.49,2.11-.75.7.52,1.27,1.07,1.74,1.56ZM10.66,5.8c.29-.13.36-.16.52.1.65.96,1.2,2.11,1.61,3.22.1.26.1.34-.29.49l-1.51.62c-.31.16-.39.16-.47-.1-.42-1.25-.91-2.37-1.51-3.33-.16-.23-.1-.31.21-.44l1.43-.57ZM15.39,4.91c.36-.13.39-.1.55.13.49.88,1.07,2.34,1.35,3.35.1.29.05.34-.31.47l-1.53.49c-.34.1-.42.1-.49-.21-.26-1.07-.78-2.44-1.25-3.33-.1-.23-.08-.29.26-.39l1.43-.52ZM19.79,5.88c.1-.34.26-.88.34-1.46.88.23,1.69.52,2.34.81.29.13.44.23.44.39,0,.18-.05.21-.23.36-.23.21-.44.52-.6.86-.42.91-1.09,2.24-1.87,3.43-.26.39-.36.55-.52.55s-.34-.1-.65-.29c-.49-.26-.96-.47-1.35-.6.94-1.4,1.64-2.76,2.11-4.06Z"/>
      <path class="cls-1" d="M48.28,17.29c0,1.2.05,2.52.05,3.59,0,.96-.26,1.61-.86,2.11-.49.44-1.27.68-3.43.68-.81,0-.78.03-.96-.75-.18-.83-.42-1.43-.73-1.98,1.07.08,1.56.1,2.42.1.6,0,.83-.26.83-.86v-4.32h-6.11v3.09c0,2.52.05,3.69.05,3.85,0,.26-.03.29-.29.29h-2.24c-.26,0-.29-.03-.29-.29,0-.18.05-1.33.05-3.85v-3.09h-5.93c-.36,3.22-1.07,5.23-2.26,7.2-.21.36-.34.52-.47.52s-.26-.13-.55-.42c-.62-.62-1.22-1.01-1.85-1.33,1.9-2.44,2.68-5.54,2.68-11.8v-4.26c0-2.7-.05-4.11-.05-4.26,0-.29.03-.31.31-.31.16,0,1.07.05,3.56.05h12.22c2.52,0,3.41-.05,3.59-.05.26,0,.29.03.29.31,0,.16-.05,1.56-.05,4.26v11.52ZM36.79,13.44v-3.67h-5.67v.29c0,1.25-.03,2.37-.08,3.38h5.75ZM36.79,7.36v-3.61h-5.67v3.61h5.67ZM39.5,3.74v3.61h6.11v-3.61h-6.11ZM45.61,13.44v-3.67h-6.11v3.67h6.11Z"/>
      <path class="cls-1" d="M54.34,5.77c.34.08.39.13.36.42-.1,2.13-.36,4.08-.88,5.69-.08.26-.13.23-.42.1l-1.25-.52c-.34-.13-.36-.26-.29-.52.44-1.4.73-3.2.83-5.28,0-.26.05-.23.42-.16l1.22.26ZM55.38,3.98c0-1.85-.03-2.68-.21-3.93.99.03,1.82.08,2.68.18.26.03.42.13.42.26,0,.18-.05.34-.13.52-.13.34-.18.99-.18,2.89v15.11c0,2.94.05,4.42.05,4.55,0,.29-.03.31-.29.31h-2.11c-.26,0-.29-.03-.29-.31,0-.13.05-1.61.05-4.52V3.98ZM59.31,4.65c.29-.1.36-.08.47.16.44,1.01.81,2.03,1.07,3.09.08.26.05.31-.29.44l-1.09.39c-.34.13-.42.13-.47-.16-.26-1.2-.57-2.16-.96-3.15-.1-.29-.08-.34.26-.44l1.01-.34ZM64.06,10.58c-2.52,0-3.38.03-3.54.03-.26,0-.29,0-.29-.29v-1.48c0-.26.03-.29.29-.29.16,0,1.01.05,3.54.05h2.18v-1.2h-1.3c-2.34,0-3.09.05-3.28.05-.26,0-.29-.03-.29-.31v-1.3c0-.26.03-.29.29-.29.18,0,.94.05,3.28.05h1.3v-1.17h-1.72c-2.44,0-3.28.05-3.43.05-.26,0-.29-.03-.29-.29v-1.4c0-.29.03-.31.29-.31.16,0,.99.05,3.43.05h1.72c-.03-.91-.08-1.64-.18-2.55.96.03,1.69.08,2.57.18.29.03.42.16.42.26,0,.26-.13.47-.18.68-.08.26-.1.68-.1,1.43h2.5c2.42,0,3.25-.05,3.41-.05.29,0,.31.03.31.31v1.4c0,.26-.03.29-.31.29-.16,0-.99-.05-3.41-.05h-2.5v1.17h1.77c2.31,0,3.09-.05,3.25-.05.26,0,.29.03.29.29v1.3c0,.29-.03.31-.29.31-.16,0-.94-.05-3.25-.05h-1.77v1.2h3.22c2.5,0,3.38-.05,3.51-.05.26,0,.29.03.29.29v1.48c0,.29-.03.29-.29.29-.13,0-1.01-.03-3.51-.03h-7.93ZM73.66,17.29c0,1.3.05,2.81.05,3.61,0,1.01-.16,1.72-.68,2.18-.44.39-1.07.6-2.96.65-.81.03-.83.03-1.01-.81-.1-.49-.34-1.17-.6-1.61.6.05,1.3.08,1.77.08.75,0,.91-.26.91-.78v-1.04h-7.05v1.2c0,1.82.05,2.68.05,2.81,0,.29-.03.31-.31.31h-2.03c-.29,0-.31-.03-.31-.31,0-.13.05-.91.05-2.76v-6.08c0-1.82-.05-2.65-.05-2.81,0-.29.03-.31.31-.31.16,0,.94.05,3.22.05h5.17c2.29,0,3.04-.05,3.22-.05.26,0,.29.03.29.31,0,.16-.05,1.12-.05,3.04v2.31ZM64.09,13.65v1.22h7.05v-1.22h-7.05ZM71.14,17.86v-1.27h-7.05v1.27h7.05Z"/>
      <path class="cls-1" d="M82.91,7.12v-2.05h-.7c-2,0-2.65.05-2.81.05-.26,0-.29-.03-.29-.29v-1.64c0-.23.03-.26.29-.26.16,0,.81.05,2.81.05h.7v-.05c0-1.09-.03-1.92-.18-2.86.96.03,1.82.08,2.57.18.29.03.42.13.42.26,0,.18-.08.31-.16.47-.13.23-.16.57-.16,1.3v.7h.57c2,0,2.65-.05,2.81-.05.23,0,.26.03.26.26v1.64c0,.26-.03.29-.26.29-.16,0-.81-.05-2.81-.05h-.57v2.05h.88c2.24,0,2.94-.05,3.09-.05.26,0,.29.03.29.31v1.61c0,.26-.03.29-.29.29-.16,0-.86-.05-3.09-.05h-4.68c-2.18,0-2.91.05-3.04.05-.29,0-.31-.03-.31-.29v-1.61c0-.29.03-.31.31-.31.13,0,.86.05,3.04.05h1.3ZM82.91,17.13v-2.13h-1.33c-2.18,0-2.91.05-3.04.05-.26,0-.29-.03-.29-.31v-1.61c0-.26.03-.29.29-.29.13,0,.86.05,3.04.05h3.07c.31-.75.6-1.53.83-2.29.1-.34.18-.73.26-1.22.73.13,1.51.31,2.18.52.26.08.36.16.36.29s-.08.23-.18.31c-.13.1-.26.31-.34.49-.29.73-.49,1.22-.83,1.9,1.72,0,2.34-.05,2.5-.05.26,0,.29.03.29.29v1.61c0,.29-.03.31-.29.31-.16,0-.86-.05-3.07-.05h-.96v2.13h.7c2.03,0,2.68-.05,2.83-.05.26,0,.29.03.29.29v1.61c0,.26-.03.29-.29.29-.16,0-.81-.05-2.83-.05h-.7v1.69c0,1.74.05,2.57.05,2.7,0,.26-.03.29-.29.29h-2.03c-.26,0-.29-.03-.29-.29,0-.16.05-.96.05-2.7v-1.69h-.86c-2.03,0-2.7.05-2.86.05-.26,0-.29-.03-.29-.29v-1.61c0-.26.03-.29.29-.29.16,0,.83.05,2.86.05h.86ZM81.48,12.82c-.34.1-.39.08-.47-.18-.26-.86-.55-1.64-.86-2.29-.13-.29-.08-.31.23-.42l1.43-.44c.29-.08.36-.03.47.18.36.73.65,1.46.88,2.26.08.26.08.34-.26.44l-1.43.44ZM98.38,9.49c.42,0,.6-.03.73-.1.13-.08.23-.1.39-.1s.36.08.99.7c.62.65.73.83.73,1.01,0,.21-.08.31-.18.44-.21.23-.31.42-.44.99-.52,2.29-1.17,4.24-2.11,6.01,1.04,1.14,2.26,2.11,3.72,3.02-.39.44-.73,1.04-1.01,1.77-.18.39-.29.57-.44.57-.1,0-.26-.1-.52-.29-1.17-.88-2.18-1.79-3.12-2.81-.65.91-1.38,1.77-2.21,2.63-.26.23-.39.36-.52.36-.16,0-.26-.18-.47-.55-.36-.68-.75-1.17-1.12-1.53.03,1.22.05,1.9.05,2,0,.23-.03.26-.29.26h-2c-.29,0-.31-.03-.31-.26,0-.18.05-1.9.05-5.43V6.97c0-3.56-.05-5.33-.05-5.51,0-.26.03-.29.31-.29.16,0,1.17.05,3.22.05h4.19c2.08,0,2.78-.05,2.94-.05.26,0,.36.08.34.34-.05.49-.05.88-.08,1.33-.1,2.16-.23,3.2-.57,3.9-.49,1.01-1.22,1.38-2.83,1.38-.44,0-.91,0-1.38-.03-.6-.05-.62-.05-.73-.68-.13-.75-.29-1.33-.42-1.66.75.1,1.4.16,2.03.16.68,0,.94-.16,1.09-.68.13-.44.18-1.01.18-1.61h-5.75v5.88h5.59ZM92.79,21.53c1.09-.96,2-1.92,2.73-2.94-1.14-1.79-2-3.95-2.55-6.76h-.18v9.7ZM95.16,11.83c.44,1.74,1.01,3.2,1.74,4.45.62-1.33,1.04-2.78,1.4-4.45h-3.15Z"/>
    </g>
  </g>
</svg>