<?xml version="1.0" encoding="UTF-8"?>
<svg id="_レイヤー_2" data-name=" レイヤー 2" xmlns="http://www.w3.org/2000/svg" version="1.1" viewBox="0 0 273 273">
  <defs>
    <style>
      .cls-1 {
        fill: #000;
      }

      .cls-1, .cls-2, .cls-3, .cls-4, .cls-5 {
        stroke-width: 0px;
      }

      .cls-2 {
        fill: #76b4e3;
      }

      .cls-3 {
        fill: #4cb5f4;
        fill-opacity: .6;
      }

      .cls-4 {
        fill: #65a5dd;
      }

      .cls-5 {
        fill: #fff;
      }

      .cls-6 {
        display: none;
      }
    </style>
  </defs>
  <g id="_タイトル" data-name=" タイトル" class="cls-6">
    <g>
      <g>
        <path class="cls-1" d="M56.6,212.7l16.4-16.2,7.2-6.5-18.4-18.4,1.6-6.2,5-9.6,5.3-5.4-12.5-12.5-.8-24.4,5-9.6,19.3-6.3-16.2-16.2,1.6-6.2,5-9.6,11.4-1.3,107.8,107.8,2.4-2.3,8.3-17.4-5-5-5.2-5-1.3-49.2,3.6-54.9,27.2,27.2,14.1-2.8,26,26C245,36.9,195.1,0,136.5,0S0,61.1,0,136.5s50,124.7,115.4,134.9l-58.7-58.7h-.1,0Z"/>
        <path class="cls-4" d="M273,136.5c0-16.8-3-32.9-8.6-47.8l-26-26-14.1,2.8-27.2-27.2-3.6,54.9,1.3,49.2,5.2,5,5,5-8.3,17.4-2.4,2.3-107.8-107.8-11.4,1.3-5,9.6-1.6,6.2,16.2,16.2-19.3,6.3-5,9.6.8,24.4,12.5,12.5-5.3,5.4-5,9.6-1.6,6.2,18.4,18.4-7.2,6.5-16.4,16.2h.1l58.7,58.7c6.9,1.1,13.9,1.6,21.1,1.6,75.4,0,136.5-61.1,136.5-136.5h0Z"/>
      </g>
      <g>
        <path class="cls-5" d="M65.8,173.2c-1.4,0-2.9-.5-4-1.6-2.4-2.2-2.6-6-.3-8.4l14-15.2h0s-1.3-22.6-1.3-22.6c-.2-3.3,2.3-6.1,5.6-6.2s6.1,2.3,6.2,5.6l1.5,27.6h0s-17.4,18.9-17.4,18.9c-1.2,1.3-2.8,1.9-4.4,1.9h0Z"/>
        <path class="cls-5" d="M120.6,165.2c-2.1,0-4.2-1.1-5.2-3.1l-13.1-24.2h0l-14.4-7.4c-2.8-1.4-4.2-4.8-2.9-7.8,1.4-3.2,5.1-4.4,8.2-2.9l17.9,9.2h0l14.7,27.2c1.4,2.6.8,6.1-1.6,7.8-1.1.8-2.3,1.1-3.5,1.1h0Z"/>
        <path class="cls-5" d="M63.1,138.5c-2.6,0-4.7-2-4.9-4.6l-1.9-30.4h0s17.8-15.7,17.8-15.7c2-1.8,5.1-1.8,7,.2s1.7,5.2-.3,7l-14.4,12.7h0s1.6,25.7,1.6,25.7c.2,2.7-1.9,5-4.6,5.2h-.3,0Z"/>
        <path class="cls-5" d="M118.9,113.6c-.2,0-.4,0-.6,0l-30.7-3.7c-2.7-.3-4.6-2.8-4.3-5.4.3-2.7,2.8-4.6,5.4-4.3l30.7,3.7c2.7.3,4.6,2.8,4.3,5.4-.3,2.5-2.4,4.3-4.8,4.3Z"/>
        <path class="cls-5" d="M86.1,137.3c-5.6,0-10.5-4.1-11.4-9.8l-4.5-29c-.9-5.8,2.6-11.7,8.3-13.2,6.7-1.8,13.4,2.7,14.4,9.3l4.5,29c.9,5.9-2.7,11.8-8.5,13.3-.9.2-1.9.3-2.8.3Z"/>
        <rect class="cls-5" x="56.8" y="184.7" width="29.3" height="29.3" rx="0" ry="0"/>
        <rect class="cls-5" x="97.9" y="170.8" width="29.3" height="43.2" rx="0" ry="0"/>
        <rect class="cls-5" x="139.1" y="156.8" width="29.3" height="57.2" rx="0" ry="0"/>
        <rect class="cls-5" x="180.2" y="142.9" width="29.3" height="71.1" rx="0" ry="0"/>
        <rect class="cls-5" x="192.8" y="38.2" width="4.2" height="106" rx="0" ry="0"/>
        <path class="cls-5" d="M199.8,38v49.2s0,0,0,0l38.5-24.6s0,0,0,0l-38.5-24.6s0,0,0,0h0Z"/>
        <circle class="cls-5" cx="76.3" cy="71.7" r="12.6"/>
      </g>
    </g>
  </g>
  <g>
    <g>
      <path class="cls-3" d="M56.1,212.7l16.4-16.2,7.2-6.5-18.4-18.4,1.6-6.2,5-9.6,5.3-5.4-12.5-12.5-.9-24.4,5-9.6,19.3-6.3-16.2-16.2,1.6-6.2,5-9.6,11.4-1.3,107.8,107.8,2.4-2.3,8.3-17.4-5-5-5.2-5-1.3-49.2,3.6-54.9,27.2,27.2,14.1-2.8,26,26C244.5,36.9,194.6,0,136,0S-.5,61.1-.5,136.5s50,124.7,115.4,134.9l-58.7-58.7h-.1Z"/>
      <path class="cls-2" d="M272.5,136.5c0-16.8-3.1-32.9-8.6-47.8l-26-26-14.1,2.8-27.2-27.2-3.6,54.9,1.3,49.2,5.2,5,5,5-8.3,17.4-2.4,2.3-107.8-107.8-11.4,1.3-5,9.6-1.6,6.2,16.2,16.2-19.3,6.3-5,9.6.9,24.4,12.5,12.5-5.3,5.4-5,9.6-1.6,6.2,18.4,18.4-7.2,6.5-16.4,16.2h.1l58.7,58.7c6.9,1.1,13.9,1.6,21.1,1.6,75.4,0,136.5-61.1,136.5-136.5Z"/>
    </g>
    <g>
      <path class="cls-5" d="M65.3,173.2c-1.4,0-2.9-.5-4-1.6-2.4-2.2-2.6-6-.3-8.4l14-15.2s0,0,0,0l-1.3-22.6c-.2-3.3,2.3-6.1,5.6-6.2,3.3-.2,6.1,2.3,6.2,5.6l1.5,27.6s0,0,0,0l-17.4,18.9c-1.2,1.3-2.8,1.9-4.4,1.9Z"/>
      <path class="cls-5" d="M120.1,165.2c-2.1,0-4.1-1.1-5.2-3.1l-13.1-24.2s0,0,0,0l-14.4-7.4c-2.8-1.5-4.2-4.8-2.9-7.7s5.1-4.5,8.1-2.9l17.9,9.2s0,0,0,0l14.7,27.2c1.4,2.7.8,6.1-1.6,7.8s-2.3,1.1-3.5,1.1Z"/>
      <path class="cls-5" d="M62.6,138.5c-2.6,0-4.7-2-4.9-4.6l-1.9-30.4s0,0,0,0l17.8-15.7c2-1.8,5.1-1.8,7,.2s1.7,5.2-.3,7l-14.4,12.7s0,0,0,0l1.6,25.6c.2,2.7-1.9,5-4.6,5.2-.1,0-.2,0-.3,0Z"/>
      <path class="cls-5" d="M118.4,113.6c-.2,0-.4,0-.6,0l-30.7-3.7c-2.7-.3-4.6-2.8-4.3-5.4.3-2.7,2.8-4.6,5.4-4.3l30.7,3.7c2.7.3,4.6,2.8,4.3,5.4-.3,2.5-2.4,4.3-4.8,4.3Z"/>
      <path class="cls-5" d="M85.6,137.3c-5.6,0-10.5-4.1-11.4-9.8l-4.5-29c-.9-5.8,2.6-11.7,8.3-13.2s13.4,2.6,14.4,9.3l4.5,29c.9,5.9-2.7,11.8-8.5,13.2s-1.9.3-2.8.3Z"/>
      <rect class="cls-5" x="56.3" y="184.7" width="29.3" height="29.3" rx="0" ry="0"/>
      <rect class="cls-5" x="97.4" y="170.8" width="29.3" height="43.2" rx="0" ry="0"/>
      <rect class="cls-5" x="138.6" y="156.8" width="29.3" height="57.2" rx="0" ry="0"/>
      <rect class="cls-5" x="179.7" y="142.9" width="29.3" height="71.1" rx="0" ry="0"/>
      <rect class="cls-5" x="192.3" y="38.2" width="4.2" height="106" rx="0" ry="0"/>
      <path class="cls-5" d="M199.3,38v49.2s0,0,0,0l38.5-24.6s0,0,0,0l-38.5-24.6s0,0,0,0Z"/>
      <circle class="cls-5" cx="75.8" cy="71.7" r="12.6"/>
    </g>
  </g>
</svg>