<?xml version="1.0" encoding="UTF-8"?>
<svg id="_レイヤー_2" data-name=" レイヤー 2" xmlns="http://www.w3.org/2000/svg" version="1.1" viewBox="0 0 273 273">
  <defs>
    <style>
      .cls-1 {
        fill: #76b4e3;
      }

      .cls-1, .cls-2, .cls-3 {
        stroke-width: 0px;
      }

      .cls-2 {
        fill: #4cb5f4;
        fill-opacity: .6;
      }

      .cls-3 {
        fill: #fff;
      }
    </style>
  </defs>
  <g>
    <path class="cls-2" d="M148.3,272.4c-41.8-41.8-83.7-83.6-125.5-125.4h-.4.1l17-63,28,9,7,4,4,2,8-2,40-17,13,6,63,12,9-6,26-2,34.5,34.5C265.9,54.7,207.3,0,136,0S-.5,60.9-.5,136.5c0,87,83.4,135.5,136.5,136.5,4.7,0,8.8-.2,12.3-.6Z"/>
    <path class="cls-1" d="M272.5,136.5c0-4.1-.2-8.1-.5-12l-34.5-34.5-26,2-9,6-63-12-13-6-40,17-8,2-4-2-7-4-28-9-17,63h.4l125.4,125.4c69.6-6.2,124.2-64.7,124.2-135.9Z"/>
  </g>
  <g>
    <path class="cls-3" d="M63.1,160.6c2.6-3.4,5-6.6,7.5-9.7,3.7-4.8,8.6-6.9,14.6-5.9,6.1,1,10,4.6,12.1,10.4.3.8,1.3,1.7,2.1,1.9,5.9,1.7,9.7,5.3,11.4,11.3.2.8,1.2,1.8,2,2,6.2,1.6,9.9,5.5,11.7,11.6.2.8,1,1.8,1.7,1.9,10.3,2.2,14.6,13.5,10.6,21.4-.3.5-.3,1.6,0,1.9,2.8,2.4,5.8,4.4,9.7,4.2,4-.2,5.9-3,7.4-6.2,1.4-3-1.1-4-2.5-5.5l-1.8-1.8c-4.8-4.8-9.7-9.5-14.5-14.3s-1.5-2.3-.3-3.2c.6-.4,2,.2,3,.4.4,0,.6.6.9.9,5.9,5.8,11.9,11.6,17.7,17.5,2.9,3,6.3,3.6,10.1,3.1,2.8-.4,4.6-2.1,5.5-4.8s.4-4.7-1.7-6.7c-5.9-5.5-11.5-11.2-17.2-16.9s-1.6-2.3-.3-3.2c.6-.4,2,.1,3,.4.5.2.8.8,1.3,1.2,6,5.9,12,11.7,17.9,17.7,1.5,1.5,3.1,2.1,5.2,1.9,4.3-.3,7.3-3.2,8.4-8.3.5-2.3,0-4.1-1.8-5.8-5.7-5.4-11.3-11-16.9-16.5-.4-.4-1.1-.8-1.2-1.3-.2-.8-.3-2,.1-2.4.5-.5,1.7-.5,2.4-.2.6.2,1.1.9,1.7,1.5,5.6,5.5,11.3,11,16.8,16.6,2,2.1,4,2.1,6.3,1.3,5.5-2,9-10.2,3.3-15.2-12.5-11.2-24.6-22.8-36.8-34.2-4.6-4.3-9.2-8.5-13.8-12.8-4.1,2-8.1,4.1-12.1,6s-8.1,3.7-12.2,5.4c-5.7,2.3-11.5,3.4-17.7,2.8-8.8-.9-15.1-6.5-16-15-.4-3.3.5-6.8.7-10.2s1.1-2.6,2.6-3.3c11.8-5.3,23.5-10.7,35.2-16,1.2-.5,2.3-1.1,3.7-1.8-6.4-3.2-9.6-3.5-15.6-.8-9,4-17.9,8.3-26.8,12.6-5.3,2.6-10.7,3.9-16.5,2.9-1.5-.3-2.1.3-2.5,1.7-1.2,3.8-2.5,7.5-3.7,11.2-4.8,14.4-9.6,28.7-14.4,43.1-.6,1.8-.4,2.7,1.4,3.5,2.7,1.2,5.4,2.7,8.2,4.2v-.5ZM216.5,151.9c0-.8,0-1.3-.2-1.9-4.1-16.9-8.1-33.9-12.2-50.8-.3-1.4-.9-1.9-2.4-1.9-6.9,0-13.1-2.3-18.6-6.5-3-2.3-5.9-4.8-8.9-6.9-7.4-5.2-15.6-6.5-23.9-2.9-17.3,7.6-34.5,15.6-51.7,23.4-.6.3-1.4.8-1.6,1.4-2.8,6.5,1.1,14.7,8,16.5,5.5,1.4,11.1.9,16.2-1.4,8.8-3.9,17.5-8,26.1-12.3,1.9-.9,3-.7,4.5.7,16.1,15,32.2,29.8,48.4,44.7.7.6,1.9,1.2,2.8,1.1,4.5-.9,8.9-2.1,13.5-3.2h0ZM45.5,154.6c.2.1.4.3.6.4.9-1.1,2.3-2.1,2.7-3.3,6.3-18.6,12.5-37.3,18.7-55.9.9-2.6.2-4-2.4-4.9-7-2.4-14.1-4.7-21.2-7.1-2.5-.8-4,0-4.8,2.5-6.2,18.6-12.4,37.1-18.5,55.7-1,3-.4,4.1,2.6,5.1,7,2.4,14,4.7,20.9,7,.5.2,1,.3,1.4.4h0ZM225.1,154.2h.6c7.6-1.8,15.1-3.6,22.7-5.5,2.3-.6,2.8-2.3,2.3-4.5-4.3-17.9-8.6-35.8-12.9-53.7-.7-2.8-2-3.7-4.8-3.1-7.2,1.6-14.3,3.4-21.5,5.1-2.6.6-3.5,2.2-2.8,4.9.4,1.8.9,3.6,1.3,5.4,3.8,15.9,7.7,31.9,11.5,47.8.5,2.1,1.3,3.6,3.7,3.6h-.1ZM103.9,177.6c2-4.6,1.9-8.5-1.1-11.9-3-3.3-6.9-3.5-11.1-2.2v-1c1-5-.9-9.3-5-11.1-4.2-1.9-8.7-.7-11.8,3.3-2,2.5-3.9,5-5.8,7.6-2.5,3.3-2.5,7.8-.2,11.1s6.2,4.6,10.2,3.6c.5-.1,1.1-.2,1.9-.4-1.2,4.4-.5,8.1,2.9,10.9,3.5,2.9,7.3,2.4,11.5.6-2.1,4.7-2.1,8.8,1.6,12.2,4,3.7,8.4,3.2,13,.1,0,.7,0,1.1-.2,1.4-1.2,4.9.6,9.2,4.7,11.3,4.2,2.1,8.8.9,12-3.2,1.3-1.6,2.6-3.3,3.8-5,2.7-3.6,2.8-8.4.2-11.6-2.8-3.5-7.3-4.6-11.5-2.8-.5.2-1.1.5-2,.8,2.4-4.5,2.6-8.5-.5-12.1-3.4-3.8-7.6-4.1-12.7-1.6h0Z"/>
    <path class="cls-3" d="M63.1,160.6c-2.9-1.5-5.5-2.9-8.2-4.2-1.8-.8-2-1.7-1.4-3.5,4.9-14.3,9.6-28.7,14.4-43.1,1.2-3.7,2.6-7.4,3.7-11.2.4-1.4,1-1.9,2.5-1.7,5.8,1,11.2-.3,16.5-2.9,8.9-4.3,17.8-8.5,26.8-12.6,6-2.7,9.3-2.4,15.6.8-1.4.7-2.5,1.3-3.7,1.8-11.7,5.4-23.5,10.7-35.2,16-1.5.7-2.5,1.6-2.6,3.3-.2,3.4-1.1,6.9-.7,10.2.9,8.5,7.2,14.1,16,15,6.1.6,12-.4,17.7-2.8,4.1-1.7,8.2-3.5,12.2-5.4s8-3.9,12.1-6c4.6,4.3,9.2,8.5,13.8,12.8,12.3,11.4,24.3,23,36.8,34.2,5.7,5.1,2.2,13.2-3.3,15.2-2.3.8-4.3.8-6.3-1.3-5.5-5.7-11.2-11.1-16.8-16.6-.5-.5-1-1.3-1.7-1.5-.8-.2-2-.2-2.4.2s-.3,1.6-.1,2.4c.1.5.8.9,1.2,1.3,5.6,5.5,11.2,11.1,16.9,16.5,1.8,1.7,2.3,3.5,1.8,5.8-1.1,5.1-4,8-8.4,8.3-2.1.2-3.7-.4-5.2-1.9-5.9-5.9-11.9-11.8-17.9-17.7-.4-.4-.8-1-1.3-1.2-1-.3-2.4-.9-3-.4-1.3.9-.7,2.1.3,3.2,5.7,5.6,11.4,11.4,17.2,16.9,2.2,2,2.6,4,1.7,6.7-.9,2.8-2.8,4.4-5.5,4.8-3.8.5-7.2-.1-10.1-3.1-5.8-5.9-11.8-11.7-17.7-17.5-.3-.3-.6-.8-.9-.9-1-.3-2.4-.9-3-.4-1.3.9-.8,2.2.3,3.2,4.8,4.8,9.7,9.5,14.5,14.3s1.2,1.1,1.8,1.8c1.4,1.6,3.9,2.6,2.5,5.5-1.6,3.3-3.4,6-7.4,6.2-3.9.2-6.9-1.8-9.7-4.2-.3-.3-.4-1.4,0-1.9,4-7.9-.3-19.2-10.6-21.4-.7-.1-1.5-1.1-1.7-1.9-1.8-6.1-5.5-10-11.7-11.6-.8-.2-1.8-1.2-2-2-1.7-5.9-5.5-9.6-11.4-11.3-.8-.2-1.8-1.1-2.1-1.9-2.1-5.8-6-9.4-12.1-10.4-6-1-10.9,1.1-14.6,5.9-2.5,3.2-4.9,6.4-7.5,9.7v.5Z"/>
    <path class="cls-3" d="M216.5,151.9c-4.5,1.1-9,2.3-13.5,3.2-.8.2-2.1-.4-2.8-1.1-16.2-14.9-32.3-29.7-48.4-44.7-1.5-1.4-2.6-1.6-4.5-.7-8.6,4.2-17.3,8.4-26.1,12.3-5.2,2.3-10.7,2.8-16.2,1.4-6.9-1.8-10.8-9.9-8-16.5.3-.6,1-1.1,1.6-1.4,17.2-7.9,34.4-15.9,51.7-23.4,8.3-3.6,16.4-2.3,23.9,2.9,3.1,2.2,6,4.6,8.9,6.9,5.5,4.2,11.7,6.5,18.6,6.5s2,.5,2.4,1.9c4,16.9,8.1,33.9,12.2,50.8.1.5,0,1.1.2,1.9h0Z"/>
    <path class="cls-3" d="M45.5,154.6c-.5-.1-1-.2-1.4-.4-7-2.3-14-4.6-20.9-7-3-1-3.6-2.2-2.6-5.1,6.2-18.6,12.3-37.1,18.5-55.7.8-2.5,2.3-3.3,4.8-2.5,7.1,2.3,14.1,4.7,21.2,7.1,2.6.9,3.2,2.2,2.4,4.9-6.2,18.6-12.4,37.3-18.7,55.9-.4,1.3-1.8,2.2-2.7,3.3-.2-.1-.4-.3-.6-.4h0Z"/>
    <path class="cls-3" d="M225.1,154.2c-2.3,0-3.2-1.5-3.7-3.6-3.8-15.9-7.7-31.9-11.5-47.8-.4-1.8-.9-3.6-1.3-5.4-.6-2.7.2-4.3,2.8-4.9,7.1-1.8,14.3-3.5,21.5-5.1,2.7-.6,4.1.3,4.8,3.1,4.3,17.9,8.6,35.8,12.9,53.7.5,2.2,0,3.9-2.3,4.5-7.5,1.9-15.1,3.7-22.7,5.5h-.6.1Z"/>
    <path class="cls-3" d="M103.9,177.6c5-2.5,9.3-2.2,12.7,1.6,3.2,3.6,3,7.6.5,12.1.9-.4,1.4-.6,2-.8,4.2-1.8,8.7-.8,11.5,2.8,2.6,3.3,2.5,8.1-.2,11.6-1.3,1.7-2.5,3.3-3.8,5-3.2,4.1-7.8,5.3-12,3.2-4.1-2.1-5.9-6.4-4.7-11.3,0-.3,0-.6.2-1.4-4.6,3.1-9,3.6-13-.1-3.6-3.3-3.6-7.5-1.6-12.2-4.2,1.8-8,2.3-11.5-.6-3.4-2.8-4.1-6.5-2.9-10.9-.8.2-1.4.2-1.9.4-4,1-7.9-.4-10.2-3.6-2.3-3.3-2.3-7.7.2-11.1,1.9-2.6,3.8-5.1,5.8-7.6,3.1-4,7.6-5.2,11.8-3.3,4.1,1.9,6,6.1,5,11.1v1c4.1-1.3,8-1.1,11.1,2.2,3,3.3,3.1,7.2,1.1,11.9h-.1Z"/>
  </g>
</svg>