<?xml version="1.0" encoding="UTF-8"?>
<svg id="_レイヤー_2" data-name=" レイヤー 2" xmlns="http://www.w3.org/2000/svg" version="1.1" viewBox="0 0 273 273">
  <defs>
    <style>
      .cls-1 {
        fill: #000;
      }

      .cls-1, .cls-2, .cls-3, .cls-4, .cls-5 {
        stroke-width: 0px;
      }

      .cls-2 {
        fill: #76b4e3;
      }

      .cls-3 {
        fill: #4cb5f4;
        fill-opacity: .6;
      }

      .cls-4 {
        fill: #65a5dd;
      }

      .cls-5 {
        fill: #fff;
      }

      .cls-6 {
        display: none;
      }
    </style>
  </defs>
  <g id="_レイヤー_1-2" data-name=" レイヤー 1-2" class="cls-6">
    <g>
      <g>
        <path class="cls-1" d="M204.9,182.2l12.9,12.9.2-2.6-3.8-3.8,2-23.6,22.3,22.3,2.8-4.4-10.8-10.8.2-.2-3.9-3.9-4.9-23.8,18.2,18.2,4.9-4.9-12.8-12.8-3.1-15.3,11.8,10.8,2.6-3.9-13-13-3.6-9.9,10.2,9.3,1.8-3.6-16.3-16.3,1.3-6.8,9.6,9.6.2-1-16.7-16.7,3.3-3.5,14.7,14.7.4-2-7.2-7.2.8-13.2,42.6,42.6C263.5,52.1,206.1,0,136.5,0S0,61.1,0,136.5s48,122.5,111.5,134.2l-52.5-52.6,2.6-2.2-21-21,13.4-1.4-25.4-25.4,5-9.9,23.8,23.8.5-4-10.6-10.6.6-4.9-18.7-18.7,1.4-11.2,10.9,10.9,3.8-8.1-15.5-15.5-2.7-15.3,16,16,4.5-4.8-11.1-11.1-.5-17.5,13.5,13.5,6.5-6.9-5.2-5.2,10.4-6.8,160.7,160.7c2-1.6,4-3.3,5.9-5.1l-30.8-30.8,7.6-24.6h0Z"/>
        <path class="cls-4" d="M273,136.5c0-5.8-.4-11.5-1.1-17.1l-42.6-42.6-.8,13.2,7.2,7.2-.4,2-14.7-14.7-3.3,3.5,16.7,16.7-.2,1-9.6-9.6-1.3,6.8,16.3,16.3-1.8,3.6-10.2-9.3,3.6,9.9,13,13-2.6,3.9-11.8-10.8,3.1,15.3,12.8,12.8-4.9,4.9-18.2-18.2,4.9,23.8,3.9,3.9-.2.2,10.8,10.8-2.8,4.4-22.3-22.3-2,23.6,3.8,3.8-.2,2.6-12.9-12.9-7.6,24.6,30.8,30.8c27.6-25,44.9-61.1,44.9-101.2h0Z"/>
        <path class="cls-4" d="M51.1,88.9l5.2,5.2-6.5,6.9-13.5-13.5.5,17.5,11.1,11.1-4.5,4.8-16-16,2.7,15.3,15.5,15.5-3.8,8.1-10.9-10.9-1.4,11.2,18.7,18.7-.6,4.9,10.6,10.6-.5,4-23.8-23.8-5,9.9,25.4,25.4-13.4,1.4,21,21-2.6,2.2,52.5,52.5c8.1,1.5,16.5,2.3,25,2.3,32.5,0,62.3-11.3,85.7-30.2L61.5,82.1l-10.4,6.8Z"/>
      </g>
      <g>
        <path class="cls-5" d="M91.9,165c-2,0-3.8-.5-5.3-1.5s-2.8-2.4-3.6-4.3c-.9-1.9-1.3-4-1.3-6.6s.4-4.7,1.3-6.5c.9-1.8,2.1-3.2,3.6-4.2,1.6-1,3.3-1.5,5.3-1.5s3.8.5,5.3,1.5,2.7,2.4,3.6,4.2c.9,1.8,1.3,4,1.3,6.5s-.4,4.7-1.3,6.6c-.9,1.9-2.1,3.3-3.6,4.3s-3.3,1.5-5.3,1.5ZM91.9,161.9c1.3,0,2.4-.4,3.4-1.1,1-.7,1.7-1.8,2.3-3.2.5-1.4.8-3,.8-4.9s-.3-3.4-.8-4.8c-.5-1.3-1.3-2.4-2.3-3.1s-2.1-1.1-3.4-1.1-2.4.4-3.4,1.1c-1,.7-1.7,1.7-2.2,3.1s-.8,2.9-.8,4.8.3,3.5.8,4.9,1.3,2.4,2.2,3.2,2.1,1.1,3.4,1.1ZM99.3,170.7c-1.6,0-3-.3-4.2-.8-1.2-.5-2.3-1.3-3.1-2.2-.8-.9-1.5-2-2-3.2l3.8-.4c.3.8.7,1.4,1.3,2,.6.5,1.3.9,2.1,1.2.8.2,1.6.4,2.5.4s1,0,1.4-.1.8-.2,1.1-.3l.7,2.8c-.4.2-.9.3-1.5.4-.6.1-1.3.2-2.1.2h0Z"/>
        <path class="cls-5" d="M111.9,165c-1.9,0-3.3-.6-4.1-1.8-.9-1.2-1.3-2.9-1.3-5.1v-11.1h3.7v10.7c0,1.5.2,2.6.7,3.2.5.7,1.2,1,2.2,1s1.5-.2,2.2-.6c.6-.4,1.3-1.1,2.1-2v-12.3h3.7v17.6h-3l-.3-2.7h0c-.8.9-1.7,1.7-2.6,2.2-.9.6-1.9.9-3.2.9h0Z"/>
        <path class="cls-5" d="M130.7,165c-1,0-1.9-.2-2.7-.6s-1.4-1-1.8-1.8c-.4-.8-.7-1.7-.7-2.7,0-1.9.8-3.4,2.5-4.4,1.7-1,4.4-1.8,8-2.2,0-.7-.1-1.3-.3-1.9s-.5-1-1-1.4-1.2-.5-2-.5-1.8.2-2.7.5c-.9.4-1.7.8-2.4,1.2l-1.4-2.5c.6-.4,1.3-.8,2.1-1.1s1.6-.6,2.4-.9c.9-.2,1.7-.3,2.7-.3,1.5,0,2.7.3,3.6.9.9.6,1.6,1.4,2.1,2.6s.7,2.4.7,4v10.6h-3l-.3-2h-.1c-.8.7-1.6,1.3-2.6,1.8-.9.5-1.9.7-3,.7h0ZM131.9,162.1c.8,0,1.5-.2,2.1-.5.7-.4,1.4-.9,2.1-1.6v-4.3c-1.7.2-3.1.5-4.1.9-1,.4-1.8.8-2.2,1.3-.4.5-.7,1.1-.7,1.8s.3,1.5.8,1.9c.5.4,1.2.6,1.9.6h0Z"/>
        <path class="cls-5" d="M148.6,165c-.9,0-1.6-.2-2.1-.6-.5-.4-.9-.9-1.1-1.6-.2-.7-.4-1.5-.4-2.4v-21.4h3.7v21.6c0,.5,0,.8.3,1,.2.2.4.3.6.3s.2,0,.3,0c0,0,.2,0,.4,0l.4,2.8c-.2,0-.5.2-.8.2s-.7.1-1.2.1h0Z"/>
        <path class="cls-5" d="M156.4,143.7c-.7,0-1.3-.2-1.7-.6s-.6-.9-.6-1.6.2-1.2.6-1.6c.4-.4,1-.6,1.7-.6s1.2.2,1.6.6c.4.4.6.9.6,1.6s-.2,1.2-.6,1.6c-.4.4-1,.6-1.6.6ZM154.5,164.6v-17.6h3.7v17.6h-3.7Z"/>
        <path class="cls-5" d="M169.7,165c-1.3,0-2.4-.3-3.1-.8-.8-.5-1.3-1.2-1.7-2.2s-.5-2-.5-3.2v-8.9h-2.6v-2.8l2.8-.2.4-4.9h3.1v4.9h4.6v3h-4.6v8.9c0,1.1.2,1.8.6,2.4.4.5,1.1.8,2,.8s.6,0,1-.1c.3,0,.6-.2.9-.3l.7,2.7c-.5.1-1,.3-1.6.4-.6.1-1.2.2-1.9.2h0Z"/>
        <path class="cls-5" d="M177.2,171.9c-.5,0-.9,0-1.2-.1s-.7-.1-1-.3l.7-2.9c.2,0,.4.1.6.2.2,0,.5.1.7.1,1,0,1.7-.3,2.3-.9s1-1.4,1.3-2.4l.4-1.2-7-17.5h3.8l3.2,9.1c.3.8.6,1.6.8,2.4s.5,1.7.8,2.5h.2c.2-.8.4-1.6.7-2.5.2-.9.5-1.7.7-2.5l2.9-9.1h3.6l-6.5,18.7c-.4,1.3-1,2.4-1.6,3.3-.6.9-1.3,1.7-2.2,2.2s-1.9.8-3.1.8h0Z"/>
      </g>
      <g>
        <path class="cls-5" d="M89.1,124.6c-3.4,0-6.2-.7-8.6-2.1-2.4-1.4-4.3-3.4-5.9-6.2l6.4-4.8c.9,1.7,2,2.9,3.2,3.7s2.4,1.2,3.8,1.2c2.1,0,3.6-.6,4.7-1.9,1.1-1.3,1.6-3.5,1.6-6.8v-31h9.4v31.8c0,2.9-.5,5.6-1.5,8.1-1,2.4-2.6,4.4-4.7,5.8s-4.9,2.2-8.3,2.2h0Z"/>
        <path class="cls-5" d="M133.4,124.6c-4.1,0-7.8-1-10.9-2.9-3.1-2-5.6-4.8-7.4-8.4-1.8-3.7-2.7-8.1-2.7-13.2s.9-9.4,2.7-13c1.8-3.6,4.2-6.3,7.4-8.2,3.1-1.9,6.8-2.8,10.9-2.8s7.8,1,10.9,2.9c3.1,1.9,5.6,4.7,7.3,8.2,1.8,3.6,2.7,7.9,2.7,12.9s-.9,9.5-2.7,13.2c-1.8,3.7-4.2,6.5-7.3,8.4s-6.8,2.9-10.9,2.9ZM133.4,116.5c2.3,0,4.3-.7,6-2,1.7-1.3,3-3.3,3.9-5.7.9-2.5,1.4-5.4,1.4-8.7s-.5-6.2-1.4-8.6-2.2-4.2-3.9-5.5c-1.7-1.3-3.7-1.9-6-1.9s-4.3.6-6,1.9-3,3.1-3.9,5.5c-.9,2.4-1.4,5.2-1.4,8.6s.4,6.2,1.4,8.7c.9,2.5,2.2,4.4,3.9,5.7,1.7,1.3,3.7,2,6,2Z"/>
        <path class="cls-5" d="M163.5,123.7v-46.9h15.5c3.2,0,6.1.4,8.6,1.1,2.6.7,4.6,1.9,6.1,3.6,1.5,1.7,2.2,4,2.2,6.9s-.3,2.8-.8,4.2-1.3,2.6-2.2,3.6c-.9,1.1-2.1,1.8-3.4,2.3v.2c2.5.6,4.6,1.8,6.3,3.6,1.6,1.8,2.5,4.3,2.5,7.4s-.8,5.7-2.4,7.8c-1.6,2.1-3.7,3.6-6.4,4.6-2.7,1-5.8,1.5-9.3,1.5h-16.7ZM172.9,95.9h5.5c2.9,0,5.1-.6,6.4-1.7,1.4-1.1,2-2.6,2-4.5s-.7-3.5-2.1-4.4-3.5-1.3-6.3-1.3h-5.6v11.9h0ZM172.9,116.5h6.5c3.2,0,5.6-.6,7.3-1.7,1.7-1.2,2.5-3,2.5-5.4s-.8-3.9-2.5-5c-1.7-1-4.1-1.6-7.3-1.6h-6.5v13.7Z"/>
      </g>
      <g id="VUIRtf">
        <g>
          <path class="cls-5" d="M99.8,59.5c-4.1-8.6-10-14.5-18.7-18.4,8.4-4,15-9.4,17.8-19.5,3.5,5.1,5.5,9,8.5,12,2.9,2.9,6.8,4.8,11.6,8.1-9.4,3.1-15.5,9-19.2,17.8h0Z"/>
          <path class="cls-5" d="M186.2,66.5c-2.5-5.4-6.2-9-11.6-11.4,5.2-2.5,9.3-5.9,11.1-12.1,2.2,3.1,3.4,5.6,5.3,7.4,1.8,1.8,4.2,3,7.2,5-5.8,2-9.6,5.6-11.9,11h0Z"/>
          <path class="cls-5" d="M82.5,61c-1.3-2.7-3.2-4.6-5.9-5.8,2.7-1.3,4.7-3,5.6-6.2,1.1,1.6,1.8,2.8,2.7,3.8.9.9,2.1,1.5,3.7,2.6-3,1-4.9,2.9-6.1,5.6Z"/>
        </g>
      </g>
      <g id="QZ8fLZ">
        <g>
          <path class="cls-5" d="M116.2,232.8c-10.2-2-18.4-4.7-25.6-12.8,31.1,13.2,61.1,13.1,92,.1-6.9,8-15.3,10.6-25.2,12.8,9.6,4.2,19.4,6.2,24.3,15.7-13.9-7.9-28.5-14.3-44.7-14.4-16.3,0-31.1,6.2-44.9,14.7-.4-.6-.7-1.1-1.1-1.7,3.6-2.8,7-6.1,10.9-8.4,4-2.4,8.6-3.8,14.2-6.1h0Z"/>
          <path class="cls-5" d="M226.8,208c-7.6,11.4-17.1,14.2-28.4,8.3,6.5-8.1,19.1-11.8,28.4-8.3Z"/>
          <path class="cls-5" d="M46.1,207.4c11.6-2.1,21.1.3,29.1,8.4-10.2,6.7-19.7,4.1-29.1-8.4Z"/>
          <path class="cls-5" d="M31.2,182.7c10-1.1,20,3.6,25.5,12-10.6,6.4-20,.6-25.5-12Z"/>
          <path class="cls-5" d="M216.2,194.9c6.8-8.9,15.5-12.5,26-12.6-3.9,13-13.9,18-26,12.6Z"/>
          <path class="cls-5" d="M251.1,151.9c-1.2,14.7-7.8,21.3-20.6,20.4,3.6-10.1,10.4-16.5,20.6-20.4Z"/>
          <path class="cls-5" d="M42.4,172.3c-12,1.1-18.6-5.3-20-19.6,9,1.6,17.8,10.2,20,19.6Z"/>
          <path class="cls-5" d="M237.1,147c1.3-9.6,6.1-16.1,13.9-21.3.8,13.5-3.1,19.4-13.9,21.3Z"/>
          <path class="cls-5" d="M36,147.1c-10.6-2.4-13.8-7.3-13.6-20.4,7,2.3,12.9,11.1,13.6,20.4Z"/>
          <path class="cls-5" d="M74.9,207.5c-7.7-4.3-10.6-16.8-6.1-25.1,5.1,7.7,8.6,15.4,6.1,25.1Z"/>
          <path class="cls-5" d="M204.7,182c4.2,10.5,1.9,19.8-6.1,25.4-2.8-9.6,1.3-17.3,6.1-25.4Z"/>
          <path class="cls-5" d="M214.2,188.8c-2.9-8.5-2.7-16.1,2-23.6,5.2,6.8,4.6,14.8-2,23.6Z"/>
          <path class="cls-5" d="M59.4,188.7c-6.6-8-7.3-16.1-2.3-23.7,4.9,7.4,4.9,15.1,2.3,23.7h0Z"/>
          <path class="cls-5" d="M221.9,144.6c7.8,7,7.2,14.7,5.1,23.6-5.6-7.2-7.4-14.6-5.1-23.6Z"/>
          <path class="cls-5" d="M51.7,145.3c2.3,8.2.4,15.4-4.4,22.2-4.3-7.7-2.5-17.3,4.4-22.2Z"/>
          <path class="cls-5" d="M237.1,123.6c-.4-7.8,3.4-13.4,8.9-18.4,2.5,10.1-.4,16-8.9,18.4Z"/>
          <path class="cls-5" d="M27.1,104.8c5.8,5.6,9.7,11.1,9.2,19-8.6-3-10.8-7.3-9.2-19Z"/>
          <path class="cls-5" d="M36.2,87.4c4.3,6,5.9,12.3,4.3,19.5-7.1-2.1-9-10.7-4.3-19.5Z"/>
          <path class="cls-5" d="M232.5,145c-6.4-5.2-9.4-11.3-9.5-18.9,7.2,2.2,10.5,8.5,9.5,18.9Z"/>
          <path class="cls-5" d="M237.8,87.7c3.7,10.3,2.7,15.1-4.3,19.1-2.2-7.3-.7-14.1,4.3-19.1Z"/>
          <path class="cls-5" d="M41,144.8c-1-9.9,1.8-15.6,9-18.9.7,7.3-1.7,12.6-9,18.9Z"/>
          <path class="cls-5" d="M217.1,93.8c6.4.4,9.4,3.3,11.9,11.7-6.2-1.1-9.7-4.5-11.9-11.7Z"/>
          <path class="cls-5" d="M228.5,90.1c-4-5-3.3-10.5-2.1-16.1,5.9,4,6.8,9.8,2.1,16.1Z"/>
          <path class="cls-5" d="M56.6,93.7c-1.7,6.4-5.8,10.2-11.7,12.5.8-7.7,4.6-11.8,11.7-12.5Z"/>
          <path class="cls-5" d="M46.5,90c-6.1-5.7-5.6-10.5,1.4-15.9-.5,5.3-1,10.6-1.4,15.9Z"/>
          <path class="cls-5" d="M40.8,123.4c2.3-6.9,4.9-11.8,12.2-12.9-1.6,6.7-5.8,10.1-12.2,12.9Z"/>
          <path class="cls-5" d="M221.1,110.9c6.3,1.1,9.2,4.1,9.7,12.7-3.7-3.8-7.5-7.5-11.2-11.3l1.5-1.4Z"/>
          <path class="cls-5" d="M113.9,208.1c-.7-1.9-1.3-3.6-1.9-5.5,1.3-1,2.9-2.3,4.6-3.6,1.4,1,3.2,2.3,4.7,3.5-.6,2.1-1.1,4.1-1.6,5.6h-5.9Z"/>
          <path class="cls-5" d="M155.1,208.1c-.6-2-1.2-3.8-1.7-5.7,1.4-1.1,3.1-2.3,4.8-3.5,1.3,1.1,2.9,2.3,4.6,3.7-.5,1.5-1.2,3.4-1.9,5.5h-5.7Z"/>
          <path class="cls-5" d="M140.4,208h-6.1c-.4-1.5-.9-3.5-1.4-5.7,1.3-1,3-2.2,4.7-3.5,1.2,1,2.8,2.3,4.5,3.7-.5,1.5-1,3.4-1.6,5.4h0Z"/>
          <path class="cls-5" d="M62.5,84c-3.9,1.9-7.8,3.9-11.7,5.8l-.8-1.5c2.5-4.6,6.1-7,11.4-6.3.3.7.7,1.3,1,2h0Z"/>
          <path class="cls-5" d="M211.4,82.4c5.6-1.6,8.9,1.4,11.9,5.3-4.6,1.9-8.1.3-11.9-5.3Z"/>
        </g>
      </g>
      <g id="QZ8fLZ-2">
        <g>
          <path class="cls-5" d="M116.2,232.8c-5.6,2.4-10.2,3.8-14.2,6.1-3.9,2.3-7.3,5.5-10.9,8.4.4.6.7,1.1,1.1,1.7,13.8-8.5,28.6-14.8,44.9-14.7,16.1,0,30.7,6.5,44.7,14.4-5-9.6-14.7-11.5-24.3-15.7,9.9-2.1,18.3-4.8,25.2-12.8-30.9,13-60.9,13-92-.1,7.1,8.1,15.3,10.9,25.5,12.8h0ZM226.8,208c-9.3-3.6-21.9.1-28.4,8.3,11.2,5.9,20.8,3.1,28.4-8.3ZM46.1,207.4c9.4,12.4,18.9,15.1,29.1,8.4-8-8-17.5-10.4-29.1-8.4ZM31.2,182.7c5.5,12.6,14.9,18.4,25.5,12-5.6-8.4-15.6-13.1-25.5-12ZM216.2,194.9c12.1,5.4,22.2.4,26-12.6-10.5.1-19.2,3.8-26,12.6ZM251.1,151.9c-10.2,3.9-17,10.3-20.6,20.4,12.7.9,19.3-5.7,20.6-20.4ZM42.4,172.3c-2.3-9.4-11-18-20-19.6,1.5,14.4,8,20.8,20,19.6ZM237.1,147c10.8-1.9,14.7-7.8,13.9-21.3-7.7,5.2-12.5,11.7-13.9,21.3ZM36,147.1c-.7-9.4-6.6-18.1-13.6-20.4-.2,13.1,3,18,13.6,20.4ZM74.9,207.5c2.5-9.7-1-17.4-6.1-25.1-4.5,8.4-1.6,20.8,6.1,25.1ZM204.7,182c-4.8,8.1-8.9,15.8-6.1,25.4,8-5.6,10.3-14.9,6.1-25.4ZM214.2,188.8c6.6-8.8,7.2-16.8,2-23.6-4.6,7.4-4.9,15.1-2,23.6ZM59.4,188.7c2.6-8.6,2.6-16.3-2.3-23.7-5,7.6-4.3,15.7,2.3,23.7h0ZM221.9,144.6c-2.4,9.1-.6,16.4,5.1,23.6,2.2-8.9,2.7-16.6-5.1-23.6ZM51.7,145.3c-6.9,5-8.7,14.5-4.4,22.2,4.8-6.8,6.7-14,4.4-22.2ZM237.1,123.6c8.6-2.4,11.4-8.3,8.9-18.4-5.5,5-9.4,10.6-8.9,18.4ZM27.1,104.8c-1.6,11.7.6,16,9.2,19,.5-7.9-3.4-13.4-9.2-19ZM36.2,87.4c-4.8,8.8-2.8,17.4,4.3,19.5,1.6-7.2,0-13.5-4.3-19.5ZM232.5,145c1-10.5-2.3-16.8-9.5-18.9.1,7.6,3.1,13.7,9.5,18.9ZM237.8,87.7c-5,5.1-6.6,11.8-4.3,19.1,7-4.1,8.1-8.8,4.3-19.1ZM41,144.8c7.3-6.3,9.7-11.6,9-18.9-7.2,3.3-10,9.1-9,18.9ZM217.1,93.8c2.2,7.2,5.7,10.6,11.9,11.7-2.5-8.4-5.5-11.3-11.9-11.7ZM228.5,90.1c4.6-6.3,3.8-12.1-2.1-16.1-1.1,5.6-1.9,11,2.1,16.1ZM56.6,93.7c-7.1.7-10.9,4.8-11.7,12.5,5.9-2.3,10-6.1,11.7-12.5ZM46.5,90c.5-5.3,1-10.6,1.4-15.9-7,5.3-7.6,10.2-1.4,15.9ZM40.8,123.4c6.4-2.9,10.7-6.2,12.2-12.9-7.4,1.2-10,6-12.2,12.9ZM221.1,110.9l-1.5,1.4c3.7,3.8,7.5,7.5,11.2,11.3-.5-8.6-3.4-11.6-9.7-12.7ZM113.9,208.1h5.9c.4-1.6,1-3.6,1.6-5.6-1.5-1.1-3.3-2.4-4.7-3.5-1.7,1.3-3.3,2.6-4.6,3.6.7,1.9,1.3,3.7,1.9,5.5h0ZM155.1,208.1h5.7c.7-2.1,1.4-4,1.9-5.5-1.7-1.4-3.2-2.6-4.6-3.7-1.7,1.3-3.4,2.5-4.8,3.5.6,1.9,1.1,3.7,1.7,5.7h0ZM140.4,208c.6-2,1.2-3.9,1.6-5.4-1.7-1.4-3.3-2.7-4.5-3.7-1.7,1.3-3.4,2.5-4.7,3.5.5,2.1,1,4.1,1.4,5.7h6.1ZM62.5,84c-.3-.7-.7-1.3-1-2-5.3-.7-9,1.7-11.4,6.3l.8,1.5c3.9-1.9,7.8-3.9,11.7-5.8h0ZM211.4,82.4c3.8,5.7,7.3,7.2,11.9,5.3-3-3.9-6.3-6.9-11.9-5.3ZM204.4,60.9c2.6,2.3,5.1,4.6,7.7,6.9.4-.5.9-.9,1.3-1.4-.6-4.4-3.2-6.7-9-5.5h0ZM69,60.9c-.5-.5-.9-1-1.4-1.5-4.2.7-7.2,2.5-6.3,8.5,2.6-2.3,5.1-4.6,7.7-7h0ZM56.3,65.1c-4.5,2.2-6.5,5.2-2.6,9.7l2.6-9.7ZM219.5,64.2c-.9.3-1.8.6-2.6.9,1,3.2,2.1,6.5,3.1,9.7.9-.3,1.7-.5,2.5-.8-1-3.3-2-6.5-3-9.8h0Z"/>
          <path class="cls-5" d="M116.2,232.8c-10.2-2-18.4-4.7-25.6-12.8,31.1,13.2,61.1,13.1,92,.1-6.9,8-15.3,10.6-25.2,12.8,9.6,4.2,19.4,6.2,24.3,15.7-13.9-7.9-28.5-14.3-44.7-14.4-16.3,0-31.1,6.2-44.9,14.7-.4-.6-.7-1.1-1.1-1.7,3.6-2.8,7-6.1,10.9-8.4,4-2.4,8.6-3.8,14.2-6.1h0Z"/>
          <path class="cls-5" d="M226.8,208c-7.6,11.4-17.1,14.2-28.4,8.3,6.5-8.1,19.1-11.8,28.4-8.3Z"/>
          <path class="cls-5" d="M46.1,207.4c11.6-2.1,21.1.3,29.1,8.4-10.2,6.7-19.7,4.1-29.1-8.4Z"/>
          <path class="cls-5" d="M31.2,182.7c10-1.1,20,3.6,25.5,12-10.6,6.4-20,.6-25.5-12Z"/>
          <path class="cls-5" d="M216.2,194.9c6.8-8.9,15.5-12.5,26-12.6-3.9,13-13.9,18-26,12.6Z"/>
          <path class="cls-5" d="M251.1,151.9c-1.2,14.7-7.8,21.3-20.6,20.4,3.6-10.1,10.4-16.5,20.6-20.4Z"/>
          <path class="cls-5" d="M42.4,172.3c-12,1.1-18.6-5.3-20-19.6,9,1.6,17.8,10.2,20,19.6Z"/>
          <path class="cls-5" d="M237.1,147c1.3-9.6,6.1-16.1,13.9-21.3.8,13.5-3.1,19.4-13.9,21.3Z"/>
          <path class="cls-5" d="M36,147.1c-10.6-2.4-13.8-7.3-13.6-20.4,7,2.3,12.9,11.1,13.6,20.4Z"/>
          <path class="cls-5" d="M74.9,207.5c-7.7-4.3-10.6-16.8-6.1-25.1,5.1,7.7,8.6,15.4,6.1,25.1Z"/>
          <path class="cls-5" d="M204.7,182c4.2,10.5,1.9,19.8-6.1,25.4-2.8-9.6,1.3-17.3,6.1-25.4Z"/>
          <path class="cls-5" d="M214.2,188.8c-2.9-8.5-2.7-16.1,2-23.6,5.2,6.8,4.6,14.8-2,23.6Z"/>
          <path class="cls-5" d="M59.4,188.7c-6.6-8-7.3-16.1-2.3-23.7,4.9,7.4,4.9,15.1,2.3,23.7h0Z"/>
          <path class="cls-5" d="M221.9,144.6c7.8,7,7.2,14.7,5.1,23.6-5.6-7.2-7.4-14.6-5.1-23.6Z"/>
          <path class="cls-5" d="M51.7,145.3c2.3,8.2.4,15.4-4.4,22.2-4.3-7.7-2.5-17.3,4.4-22.2Z"/>
          <path class="cls-5" d="M237.1,123.6c-.4-7.8,3.4-13.4,8.9-18.4,2.5,10.1-.4,16-8.9,18.4Z"/>
          <path class="cls-5" d="M27.1,104.8c5.8,5.6,9.7,11.1,9.2,19-8.6-3-10.8-7.3-9.2-19Z"/>
          <path class="cls-5" d="M36.2,87.4c4.3,6,5.9,12.3,4.3,19.5-7.1-2.1-9-10.7-4.3-19.5Z"/>
          <path class="cls-5" d="M232.5,145c-6.4-5.2-9.4-11.3-9.5-18.9,7.2,2.2,10.5,8.5,9.5,18.9Z"/>
          <path class="cls-5" d="M237.8,87.7c3.7,10.3,2.7,15.1-4.3,19.1-2.2-7.3-.7-14.1,4.3-19.1Z"/>
          <path class="cls-5" d="M41,144.8c-1-9.9,1.8-15.6,9-18.9.7,7.3-1.7,12.6-9,18.9Z"/>
          <path class="cls-5" d="M217.1,93.8c6.4.4,9.4,3.3,11.9,11.7-6.2-1.1-9.7-4.5-11.9-11.7Z"/>
          <path class="cls-5" d="M228.5,90.1c-4-5-3.3-10.5-2.1-16.1,5.9,4,6.8,9.8,2.1,16.1Z"/>
          <path class="cls-5" d="M56.6,93.7c-1.7,6.4-5.8,10.2-11.7,12.5.8-7.7,4.6-11.8,11.7-12.5Z"/>
          <path class="cls-5" d="M46.5,90c-6.1-5.7-5.6-10.5,1.4-15.9-.5,5.3-1,10.6-1.4,15.9Z"/>
          <path class="cls-5" d="M40.8,123.4c2.3-6.9,4.9-11.8,12.2-12.9-1.6,6.7-5.8,10.1-12.2,12.9Z"/>
          <path class="cls-5" d="M221.1,110.9c6.3,1.1,9.2,4.1,9.7,12.7-3.7-3.8-7.5-7.5-11.2-11.3l1.5-1.4Z"/>
          <path class="cls-5" d="M113.9,208.1c-.7-1.9-1.3-3.6-1.9-5.5,1.3-1,2.9-2.3,4.6-3.6,1.4,1,3.2,2.3,4.7,3.5-.6,2.1-1.1,4.1-1.6,5.6h-5.9Z"/>
          <path class="cls-5" d="M155.1,208.1c-.6-2-1.2-3.8-1.7-5.7,1.4-1.1,3.1-2.3,4.8-3.5,1.3,1.1,2.9,2.3,4.6,3.7-.5,1.5-1.2,3.4-1.9,5.5h-5.7Z"/>
          <path class="cls-5" d="M140.4,208h-6.1c-.4-1.5-.9-3.5-1.4-5.7,1.3-1,3-2.2,4.7-3.5,1.2,1,2.8,2.3,4.5,3.7-.5,1.5-1,3.4-1.6,5.4h0Z"/>
          <path class="cls-5" d="M62.5,84c-3.9,1.9-7.8,3.9-11.7,5.8l-.8-1.5c2.5-4.6,6.1-7,11.4-6.3.3.7.7,1.3,1,2h0Z"/>
          <path class="cls-5" d="M211.4,82.4c5.6-1.6,8.9,1.4,11.9,5.3-4.6,1.9-8.1.3-11.9-5.3Z"/>
          <path class="cls-5" d="M204.4,60.9c5.7-1.2,8.3,1.1,9,5.5-.4.5-.9.9-1.3,1.4-2.6-2.3-5.1-4.6-7.7-6.9h0Z"/>
          <path class="cls-5" d="M69,60.9c-2.6,2.3-5.2,4.6-7.7,6.9-.9-6,2.1-7.8,6.3-8.5.5.5.9,1,1.4,1.5h0Z"/>
          <path class="cls-5" d="M56.3,65.1l-2.6,9.7c-3.8-4.5-1.9-7.4,2.6-9.7Z"/>
          <path class="cls-5" d="M219.5,64.2c1,3.3,2,6.5,3,9.8-.9.3-1.7.5-2.5.8-1-3.2-2.1-6.5-3.1-9.7.9-.3,1.8-.6,2.6-.9h0Z"/>
        </g>
      </g>
    </g>
  </g>
  <g>
    <g>
      <path class="cls-3" d="M204.4,182.2l12.9,12.9.2-2.6-3.8-3.8,2-23.6,22.3,22.3,2.8-4.4-10.8-10.8.2-.2-3.8-3.8-4.9-23.8,18.2,18.2,4.9-4.9-12.8-12.8-3.1-15.3,11.8,10.8,2.6-3.9-13-13-3.6-9.9,10.2,9.3,1.8-3.6-16.3-16.3,1.3-6.8,9.6,9.6.2-1-16.7-16.7,3.3-3.5,14.7,14.7.5-2-7.2-7.2.8-13.3,42.6,42.6C263,52.1,205.6,0,136,0S-.5,61.1-.5,136.5s48,122.4,111.5,134.2l-52.5-52.5,2.6-2.2-21-21,13.4-1.4-25.4-25.4,5-9.9,23.8,23.8.5-4-10.6-10.6.6-4.9-18.7-18.7,1.4-11.2,10.9,10.9,3.8-8.1-15.5-15.5-2.7-15.3,16,16,4.6-4.8-11.1-11.1-.5-17.5,13.5,13.5,6.5-7-5.1-5.1,10.4-6.8,160.7,160.7c2-1.6,4-3.3,5.9-5.1l-30.8-30.8,7.6-24.6Z"/>
      <path class="cls-2" d="M272.5,136.5c0-5.8-.4-11.5-1.1-17.1l-42.6-42.6-.8,13.3,7.2,7.2-.5,2-14.7-14.7-3.3,3.5,16.7,16.7-.2,1-9.6-9.6-1.3,6.8,16.3,16.3-1.8,3.6-10.2-9.3,3.6,9.9,13,13-2.6,3.9-11.8-10.8,3.1,15.3,12.8,12.8-4.9,4.9-18.2-18.2,4.9,23.8,3.8,3.8-.2.2,10.8,10.8-2.8,4.4-22.3-22.3-2,23.6,3.8,3.8-.2,2.6-12.9-12.9-7.6,24.6,30.8,30.8c27.6-25,44.9-61,44.9-101.2Z"/>
      <path class="cls-2" d="M50.6,88.9l5.1,5.1-6.5,7-13.5-13.5.5,17.5,11.1,11.1-4.6,4.8-16-16,2.7,15.3,15.5,15.5-3.8,8.1-10.9-10.9-1.4,11.2,18.7,18.7-.6,4.9,10.6,10.6-.5,4-23.8-23.8-5,9.9,25.4,25.4-13.4,1.4,21,21-2.6,2.2,52.5,52.5c8.1,1.5,16.5,2.3,25,2.3,32.5,0,62.3-11.3,85.7-30.3L61,82.1l-10.4,6.8Z"/>
    </g>
    <g>
      <path class="cls-5" d="M91.4,165c-2,0-3.8-.5-5.3-1.5-1.5-1-2.8-2.4-3.6-4.3-.9-1.8-1.3-4-1.3-6.5s.4-4.7,1.3-6.5c.9-1.8,2.1-3.2,3.6-4.2,1.5-1,3.3-1.5,5.3-1.5s3.8.5,5.3,1.5c1.5,1,2.7,2.4,3.6,4.2.9,1.8,1.3,4,1.3,6.5s-.4,4.7-1.3,6.5c-.9,1.8-2.1,3.3-3.6,4.3-1.5,1-3.3,1.5-5.3,1.5ZM91.4,161.9c1.3,0,2.4-.4,3.4-1.1,1-.7,1.7-1.8,2.3-3.2.5-1.4.8-3,.8-4.9s-.3-3.4-.8-4.8c-.5-1.3-1.3-2.4-2.3-3.1-1-.7-2.1-1.1-3.4-1.1s-2.4.4-3.4,1.1c-1,.7-1.7,1.7-2.2,3.1-.5,1.3-.8,2.9-.8,4.8s.3,3.5.8,4.9c.5,1.4,1.3,2.4,2.2,3.2,1,.7,2.1,1.1,3.4,1.1ZM98.8,170.7c-1.6,0-3-.3-4.2-.8-1.2-.5-2.3-1.3-3.1-2.2-.9-.9-1.5-2-2-3.2l3.8-.4c.3.8.7,1.5,1.3,2,.6.5,1.3.9,2.1,1.2.8.2,1.6.4,2.5.4s1,0,1.4,0,.8-.2,1.1-.3l.7,2.8c-.4.2-.9.3-1.5.4-.6.1-1.3.2-2.1.2Z"/>
      <path class="cls-5" d="M111.4,165c-1.9,0-3.3-.6-4.1-1.8-.9-1.2-1.3-2.9-1.3-5.2v-11.1h3.7v10.7c0,1.5.2,2.6.7,3.2.5.7,1.2,1,2.2,1s1.5-.2,2.2-.6c.6-.4,1.3-1.1,2-2v-12.3h3.7v17.6h-3l-.3-2.7h0c-.8.9-1.7,1.7-2.6,2.2-.9.6-2,.9-3.2.9Z"/>
      <path class="cls-5" d="M130.2,165c-1,0-1.9-.2-2.7-.6-.8-.4-1.4-1-1.8-1.8-.4-.8-.7-1.7-.7-2.7,0-1.9.8-3.4,2.5-4.4,1.7-1,4.3-1.8,8-2.2,0-.7-.1-1.3-.3-1.9-.2-.6-.5-1-1-1.4-.5-.4-1.2-.5-2-.5s-1.8.2-2.7.5c-.9.4-1.7.8-2.4,1.2l-1.4-2.5c.6-.4,1.3-.8,2-1.1.7-.4,1.5-.6,2.4-.9.9-.2,1.7-.3,2.7-.3,1.5,0,2.7.3,3.6.9.9.6,1.6,1.4,2.1,2.5s.7,2.5.7,4v10.6h-3l-.3-2h-.1c-.8.7-1.7,1.3-2.6,1.7-.9.5-1.9.7-3,.7ZM131.3,162.1c.8,0,1.5-.2,2.1-.5.7-.4,1.4-.9,2.1-1.6v-4.3c-1.7.2-3.1.5-4.1.8-1,.4-1.8.8-2.2,1.3-.4.5-.7,1.1-.7,1.7s.3,1.5.8,1.9c.5.4,1.2.6,2,.6Z"/>
      <path class="cls-5" d="M148.1,165c-.9,0-1.6-.2-2.1-.6-.5-.4-.9-.9-1.2-1.6-.2-.7-.4-1.5-.4-2.4v-21.4h3.7v21.5c0,.5,0,.8.3,1,.2.2.4.3.6.3s.2,0,.3,0c0,0,.2,0,.4,0l.4,2.8c-.2,0-.5.2-.8.2-.3,0-.7.1-1.2.1Z"/>
      <path class="cls-5" d="M155.9,143.7c-.7,0-1.3-.2-1.7-.6-.4-.4-.6-.9-.6-1.6s.2-1.2.6-1.6c.4-.4,1-.6,1.7-.6s1.2.2,1.6.6c.4.4.6.9.6,1.6s-.2,1.2-.6,1.6c-.4.4-1,.6-1.6.6ZM154,164.6v-17.6h3.7v17.6h-3.7Z"/>
      <path class="cls-5" d="M169.2,165c-1.3,0-2.4-.3-3.2-.8-.8-.5-1.3-1.2-1.7-2.2-.3-.9-.5-2-.5-3.2v-8.9h-2.6v-2.8l2.8-.2.4-4.9h3.1v4.9h4.6v3h-4.6v8.9c0,1,.2,1.8.6,2.4.4.5,1.1.8,2,.8s.6,0,1-.1c.3,0,.6-.2.9-.3l.7,2.7c-.5.1-1,.3-1.6.4-.6.1-1.2.2-1.9.2Z"/>
      <path class="cls-5" d="M176.7,171.9c-.5,0-.9,0-1.2,0s-.7-.1-1-.3l.7-2.9c.2,0,.4,0,.6.2.2,0,.5,0,.7,0,1,0,1.7-.3,2.3-.9.6-.6,1-1.4,1.3-2.4l.4-1.2-7-17.5h3.7l3.2,9.1c.3.8.5,1.6.8,2.4.3.8.5,1.7.8,2.5h.2c.2-.8.4-1.6.7-2.5.2-.9.5-1.7.7-2.5l2.8-9.1h3.6l-6.5,18.7c-.4,1.3-1,2.4-1.6,3.3-.6.9-1.3,1.7-2.2,2.2-.9.5-1.9.8-3.1.8Z"/>
    </g>
    <g>
      <path class="cls-5" d="M88.6,124.6c-3.4,0-6.2-.7-8.6-2.1-2.4-1.4-4.3-3.4-5.9-6.2l6.4-4.7c.9,1.7,2,2.9,3.2,3.7,1.2.8,2.4,1.2,3.8,1.2,2.1,0,3.6-.6,4.7-1.9,1.1-1.3,1.6-3.5,1.6-6.8v-31h9.4v31.8c0,3-.5,5.6-1.5,8.1-1,2.4-2.6,4.4-4.7,5.8-2.1,1.4-4.9,2.2-8.3,2.2Z"/>
      <path class="cls-5" d="M132.9,124.6c-4.1,0-7.8-1-10.9-2.9-3.1-2-5.6-4.8-7.4-8.4-1.8-3.7-2.7-8.1-2.7-13.2s.9-9.4,2.7-13c1.8-3.6,4.2-6.3,7.4-8.2,3.1-1.9,6.8-2.8,10.9-2.8s7.8,1,10.9,2.9c3.1,1.9,5.6,4.7,7.3,8.2,1.8,3.6,2.7,7.9,2.7,12.9s-.9,9.5-2.7,13.2c-1.8,3.7-4.2,6.5-7.3,8.4-3.1,2-6.8,2.9-10.9,2.9ZM132.9,116.5c2.3,0,4.3-.7,6-2,1.7-1.3,3-3.3,4-5.7.9-2.5,1.4-5.4,1.4-8.7s-.5-6.2-1.4-8.6c-.9-2.4-2.2-4.2-4-5.5-1.7-1.3-3.7-1.9-6-1.9s-4.3.6-6,1.9c-1.7,1.3-3,3.1-3.9,5.5-.9,2.4-1.4,5.2-1.4,8.6s.5,6.2,1.4,8.7c.9,2.5,2.2,4.4,3.9,5.7,1.7,1.4,3.7,2,6,2Z"/>
      <path class="cls-5" d="M163,123.7v-46.9h15.5c3.2,0,6.1.4,8.6,1.1,2.6.7,4.6,1.9,6.1,3.6,1.5,1.7,2.2,4,2.2,6.9s-.3,2.8-.8,4.2c-.5,1.4-1.3,2.6-2.2,3.6-.9,1.1-2.1,1.8-3.4,2.3v.3c2.5.6,4.6,1.8,6.3,3.6,1.6,1.8,2.5,4.3,2.5,7.4s-.8,5.7-2.4,7.8c-1.6,2-3.7,3.6-6.5,4.6-2.7,1-5.8,1.5-9.3,1.5h-16.7ZM172.4,95.9h5.5c3,0,5.1-.6,6.5-1.7,1.3-1.1,2-2.6,2-4.5s-.7-3.5-2.1-4.4c-1.4-.9-3.5-1.3-6.3-1.3h-5.6v11.9ZM172.4,116.5h6.5c3.2,0,5.6-.6,7.3-1.7,1.7-1.2,2.5-3,2.5-5.4s-.8-3.9-2.5-5c-1.7-1-4.1-1.6-7.3-1.6h-6.5v13.7Z"/>
    </g>
    <g id="VUIRtf-2" data-name="VUIRtf">
      <g>
        <path class="cls-5" d="M99.3,59.5c-4.1-8.6-10-14.5-18.7-18.4,8.4-4,15-9.4,17.8-19.5,3.5,5.1,5.5,9,8.5,12,2.9,2.9,6.8,4.8,11.6,8.1-9.4,3.1-15.5,9-19.2,17.8Z"/>
        <path class="cls-5" d="M185.7,66.5c-2.5-5.4-6.2-9-11.6-11.4,5.2-2.5,9.3-5.9,11-12.1,2.2,3.1,3.4,5.6,5.3,7.4,1.8,1.8,4.2,3,7.2,5-5.8,1.9-9.6,5.6-11.9,11.1Z"/>
        <path class="cls-5" d="M82,61c-1.3-2.7-3.2-4.6-5.9-5.8,2.7-1.3,4.7-3,5.6-6.2,1.1,1.6,1.8,2.8,2.7,3.8.9.9,2.1,1.5,3.7,2.6-3,1-4.9,2.9-6.1,5.6Z"/>
      </g>
    </g>
    <g id="QZ8fLZ-2" data-name="QZ8fLZ">
      <g>
        <path class="cls-5" d="M115.7,232.8c-10.2-2-18.4-4.7-25.6-12.8,31.1,13.2,61,13.1,92,.1-6.9,8-15.3,10.6-25.2,12.8,9.6,4.2,19.4,6.2,24.3,15.7-13.9-7.9-28.5-14.3-44.7-14.4-16.3,0-31.1,6.2-44.9,14.7-.4-.6-.7-1.1-1.1-1.7,3.6-2.8,7-6.1,10.9-8.4,4-2.3,8.6-3.8,14.2-6.1Z"/>
        <path class="cls-5" d="M226.3,208c-7.6,11.4-17.1,14.2-28.4,8.3,6.5-8.1,19.1-11.8,28.4-8.3Z"/>
        <path class="cls-5" d="M45.6,207.4c11.6-2.1,21.1.3,29.1,8.4-10.2,6.7-19.7,4.1-29.1-8.4Z"/>
        <path class="cls-5" d="M30.7,182.7c10-1.1,19.9,3.6,25.5,12-10.6,6.4-20.1.6-25.5-12Z"/>
        <path class="cls-5" d="M215.7,194.9c6.8-8.9,15.5-12.5,26-12.6-3.8,13-13.9,18-26,12.6Z"/>
        <path class="cls-5" d="M250.7,151.9c-1.2,14.7-7.8,21.3-20.6,20.4,3.6-10.1,10.4-16.5,20.6-20.4Z"/>
        <path class="cls-5" d="M41.9,172.3c-12,1.1-18.6-5.3-20-19.6,9,1.6,17.8,10.2,20,19.6Z"/>
        <path class="cls-5" d="M236.6,147c1.3-9.6,6.1-16.1,13.9-21.3.8,13.5-3.1,19.4-13.9,21.3Z"/>
        <path class="cls-5" d="M35.5,147.1c-10.6-2.4-13.8-7.3-13.6-20.4,7,2.3,12.9,11.1,13.6,20.4Z"/>
        <path class="cls-5" d="M74.4,207.5c-7.6-4.3-10.6-16.7-6.1-25.1,5.1,7.7,8.6,15.4,6.1,25.1Z"/>
        <path class="cls-5" d="M204.2,182c4.2,10.5,1.9,19.8-6.1,25.4-2.8-9.6,1.3-17.3,6.1-25.4Z"/>
        <path class="cls-5" d="M213.7,188.8c-2.9-8.5-2.7-16.1,2-23.6,5.2,6.8,4.6,14.8-2,23.6Z"/>
        <path class="cls-5" d="M58.9,188.7c-6.6-8-7.3-16.1-2.3-23.7,4.9,7.4,4.9,15.1,2.3,23.7Z"/>
        <path class="cls-5" d="M221.4,144.6c7.8,7,7.3,14.7,5.1,23.6-5.6-7.2-7.4-14.6-5.1-23.6Z"/>
        <path class="cls-5" d="M51.2,145.3c2.3,8.2.4,15.4-4.4,22.2-4.3-7.7-2.5-17.3,4.4-22.2Z"/>
        <path class="cls-5" d="M236.6,123.6c-.4-7.8,3.4-13.4,9-18.4,2.5,10.1-.4,16-9,18.4Z"/>
        <path class="cls-5" d="M26.6,104.8c5.8,5.6,9.7,11.1,9.2,19-8.7-3-10.8-7.3-9.2-19Z"/>
        <path class="cls-5" d="M35.7,87.4c4.3,6,5.9,12.3,4.3,19.5-7.1-2.1-9-10.7-4.3-19.5Z"/>
        <path class="cls-5" d="M232,145c-6.4-5.2-9.4-11.3-9.5-18.9,7.2,2.2,10.5,8.5,9.5,18.9Z"/>
        <path class="cls-5" d="M237.3,87.7c3.7,10.3,2.7,15.1-4.3,19.1-2.2-7.3-.7-14.1,4.3-19.1Z"/>
        <path class="cls-5" d="M40.5,144.8c-1-9.9,1.8-15.6,9-18.9.7,7.3-1.7,12.6-9,18.9Z"/>
        <path class="cls-5" d="M216.6,93.8c6.4.4,9.4,3.3,11.9,11.7-6.2-1.1-9.7-4.5-11.9-11.7Z"/>
        <path class="cls-5" d="M228,90.1c-4-5-3.3-10.5-2.1-16.1,5.9,4,6.8,9.8,2.1,16.1Z"/>
        <path class="cls-5" d="M56.1,93.7c-1.7,6.4-5.8,10.2-11.7,12.5.8-7.7,4.6-11.8,11.7-12.5Z"/>
        <path class="cls-5" d="M46,90c-6.1-5.7-5.6-10.5,1.4-15.9-.5,5.3-1,10.6-1.4,15.9Z"/>
        <path class="cls-5" d="M40.3,123.4c2.3-6.9,4.9-11.8,12.2-12.9-1.6,6.7-5.8,10-12.2,12.9Z"/>
        <path class="cls-5" d="M220.6,110.9c6.3,1.1,9.2,4.1,9.7,12.7-3.7-3.8-7.5-7.5-11.2-11.3l1.5-1.4Z"/>
        <path class="cls-5" d="M113.4,208.1c-.6-1.9-1.3-3.6-1.9-5.5,1.3-1,2.9-2.3,4.6-3.6,1.4,1,3.2,2.3,4.7,3.5-.6,2-1.1,4.1-1.6,5.6h-5.9Z"/>
        <path class="cls-5" d="M154.6,208.1c-.6-2-1.2-3.8-1.7-5.7,1.4-1.1,3.1-2.3,4.8-3.5,1.3,1.1,2.9,2.3,4.5,3.7-.5,1.5-1.2,3.4-1.9,5.5h-5.7Z"/>
        <path class="cls-5" d="M139.9,208h-6.1c-.4-1.5-.9-3.5-1.4-5.7,1.3-1,3-2.2,4.7-3.5,1.2,1,2.8,2.3,4.5,3.7-.5,1.5-1,3.5-1.6,5.4Z"/>
        <path class="cls-5" d="M62,84c-3.9,1.9-7.8,3.9-11.7,5.8l-.8-1.5c2.5-4.6,6.1-7,11.4-6.3.3.7.7,1.3,1,2Z"/>
        <path class="cls-5" d="M210.9,82.4c5.6-1.5,8.9,1.5,11.9,5.3-4.6,1.9-8.1.3-11.9-5.3Z"/>
      </g>
    </g>
    <g id="QZ8fLZ-3" data-name="QZ8fLZ">
      <g>
        <path class="cls-5" d="M115.7,232.8c-5.6,2.4-10.2,3.8-14.2,6.1-3.9,2.3-7.3,5.5-10.9,8.4.4.6.7,1.1,1.1,1.7,13.8-8.5,28.6-14.8,44.9-14.7,16.1,0,30.7,6.5,44.7,14.4-5-9.6-14.7-11.5-24.3-15.7,9.9-2.1,18.3-4.8,25.2-12.8-30.9,13-60.9,13-92-.1,7.1,8.1,15.3,10.8,25.6,12.8ZM226.3,208c-9.3-3.5-21.9.1-28.4,8.3,11.2,5.9,20.8,3.1,28.4-8.3ZM45.6,207.4c9.4,12.5,18.9,15.1,29.1,8.4-8-8-17.5-10.4-29.1-8.4ZM30.7,182.7c5.5,12.6,14.9,18.4,25.5,12-5.6-8.4-15.6-13.1-25.5-12ZM215.7,194.9c12.1,5.4,22.2.4,26-12.6-10.5.1-19.2,3.8-26,12.6ZM250.7,151.9c-10.2,3.9-17,10.3-20.6,20.4,12.7.9,19.3-5.7,20.6-20.4ZM41.9,172.3c-2.3-9.4-11-18-20-19.6,1.5,14.4,8,20.8,20,19.6ZM236.6,147c10.8-1.9,14.7-7.8,13.9-21.3-7.7,5.2-12.5,11.7-13.9,21.3ZM35.5,147.1c-.7-9.4-6.6-18.1-13.6-20.4-.2,13.1,3,18,13.6,20.4ZM74.4,207.5c2.5-9.7-1-17.4-6.1-25.1-4.5,8.4-1.6,20.8,6.1,25.1ZM204.2,182c-4.8,8.1-8.9,15.7-6.1,25.4,8-5.6,10.3-14.9,6.1-25.4ZM213.7,188.8c6.6-8.8,7.2-16.8,2-23.6-4.6,7.4-4.9,15.1-2,23.6ZM58.9,188.7c2.6-8.6,2.6-16.3-2.3-23.7-5,7.6-4.3,15.7,2.3,23.7ZM221.4,144.6c-2.4,9.1-.6,16.4,5.1,23.6,2.2-8.9,2.7-16.6-5.1-23.6ZM51.2,145.3c-6.9,5-8.7,14.5-4.4,22.2,4.8-6.8,6.7-14,4.4-22.2ZM236.6,123.6c8.6-2.4,11.4-8.3,9-18.4-5.5,5-9.3,10.6-9,18.4ZM26.6,104.8c-1.6,11.7.6,16,9.2,19,.5-7.9-3.4-13.4-9.2-19ZM35.7,87.4c-4.8,8.8-2.8,17.4,4.3,19.5,1.6-7.2,0-13.5-4.3-19.5ZM232,145c1-10.5-2.3-16.8-9.5-18.9.1,7.6,3.1,13.7,9.5,18.9ZM237.3,87.7c-5,5.1-6.5,11.8-4.3,19.1,7-4.1,8.1-8.8,4.3-19.1ZM40.5,144.8c7.3-6.3,9.7-11.6,9-18.9-7.2,3.3-10,9.1-9,18.9ZM216.6,93.8c2.2,7.2,5.7,10.6,11.9,11.7-2.5-8.4-5.5-11.3-11.9-11.7ZM228,90.1c4.6-6.3,3.8-12.1-2.1-16.1-1.1,5.6-1.9,11,2.1,16.1ZM56.1,93.7c-7.1.6-10.9,4.8-11.7,12.5,5.9-2.3,10-6.1,11.7-12.5ZM46,90c.5-5.3,1-10.6,1.4-15.9-7.1,5.3-7.6,10.2-1.4,15.9ZM40.3,123.4c6.4-2.9,10.7-6.2,12.2-12.9-7.4,1.2-10,6-12.2,12.9ZM220.6,110.9l-1.5,1.4c3.7,3.8,7.5,7.5,11.2,11.3-.5-8.6-3.4-11.6-9.7-12.7ZM113.4,208.1h5.9c.4-1.6,1-3.6,1.6-5.6-1.5-1.1-3.3-2.4-4.7-3.5-1.7,1.3-3.3,2.6-4.6,3.6.7,1.9,1.3,3.7,1.9,5.5ZM154.6,208.1h5.7c.7-2.1,1.4-4,1.9-5.5-1.7-1.4-3.2-2.6-4.5-3.7-1.7,1.3-3.4,2.5-4.8,3.5.6,1.9,1.1,3.7,1.7,5.7ZM139.9,208c.6-2,1.2-3.9,1.6-5.4-1.7-1.4-3.3-2.7-4.5-3.7-1.7,1.3-3.4,2.5-4.7,3.5.5,2.2,1,4.1,1.4,5.7h6.1ZM62,84c-.3-.7-.7-1.3-1-2-5.4-.7-9,1.7-11.4,6.3l.8,1.5c3.9-1.9,7.8-3.9,11.7-5.8ZM210.9,82.4c3.7,5.6,7.3,7.2,11.9,5.3-3-3.9-6.3-6.9-11.9-5.3ZM203.9,60.9c2.6,2.3,5.1,4.6,7.7,6.9.4-.5.9-1,1.3-1.4-.6-4.4-3.2-6.7-9-5.5ZM68.5,60.9c-.5-.5-1-1-1.4-1.5-4.2.7-7.2,2.5-6.3,8.5,2.6-2.3,5.2-4.6,7.7-7ZM55.8,65.1c-4.5,2.2-6.5,5.2-2.6,9.6l2.6-9.6ZM219,64.2c-.9.3-1.7.6-2.6.9,1,3.2,2.1,6.5,3.1,9.7.8-.3,1.7-.5,2.5-.8-1-3.3-2-6.5-3-9.8Z"/>
        <path class="cls-5" d="M115.7,232.8c-10.2-2-18.4-4.7-25.6-12.8,31.1,13.2,61,13.1,92,.1-6.9,8-15.3,10.6-25.2,12.8,9.6,4.2,19.4,6.2,24.3,15.7-13.9-7.9-28.5-14.3-44.7-14.4-16.3,0-31.1,6.2-44.9,14.7-.4-.6-.7-1.1-1.1-1.7,3.6-2.8,7-6.1,10.9-8.4,4-2.3,8.6-3.8,14.2-6.1Z"/>
        <path class="cls-5" d="M226.3,208c-7.6,11.4-17.1,14.2-28.4,8.3,6.5-8.1,19.1-11.8,28.4-8.3Z"/>
        <path class="cls-5" d="M45.6,207.4c11.6-2.1,21.1.3,29.1,8.4-10.2,6.7-19.7,4.1-29.1-8.4Z"/>
        <path class="cls-5" d="M30.7,182.7c10-1.1,19.9,3.6,25.5,12-10.6,6.4-20.1.6-25.5-12Z"/>
        <path class="cls-5" d="M215.7,194.9c6.8-8.9,15.5-12.5,26-12.6-3.8,13-13.9,18-26,12.6Z"/>
        <path class="cls-5" d="M250.7,151.9c-1.2,14.7-7.8,21.3-20.6,20.4,3.6-10.1,10.4-16.5,20.6-20.4Z"/>
        <path class="cls-5" d="M41.9,172.3c-12,1.1-18.6-5.3-20-19.6,9,1.6,17.8,10.2,20,19.6Z"/>
        <path class="cls-5" d="M236.6,147c1.3-9.6,6.1-16.1,13.9-21.3.8,13.5-3.1,19.4-13.9,21.3Z"/>
        <path class="cls-5" d="M35.5,147.1c-10.6-2.4-13.8-7.3-13.6-20.4,7,2.3,12.9,11.1,13.6,20.4Z"/>
        <path class="cls-5" d="M74.4,207.5c-7.6-4.3-10.6-16.7-6.1-25.1,5.1,7.7,8.6,15.4,6.1,25.1Z"/>
        <path class="cls-5" d="M204.2,182c4.2,10.5,1.9,19.8-6.1,25.4-2.8-9.6,1.3-17.3,6.1-25.4Z"/>
        <path class="cls-5" d="M213.7,188.8c-2.9-8.5-2.7-16.1,2-23.6,5.2,6.8,4.6,14.8-2,23.6Z"/>
        <path class="cls-5" d="M58.9,188.7c-6.6-8-7.3-16.1-2.3-23.7,4.9,7.4,4.9,15.1,2.3,23.7Z"/>
        <path class="cls-5" d="M221.4,144.6c7.8,7,7.3,14.7,5.1,23.6-5.6-7.2-7.4-14.6-5.1-23.6Z"/>
        <path class="cls-5" d="M51.2,145.3c2.3,8.2.4,15.4-4.4,22.2-4.3-7.7-2.5-17.3,4.4-22.2Z"/>
        <path class="cls-5" d="M236.6,123.6c-.4-7.8,3.4-13.4,9-18.4,2.5,10.1-.4,16-9,18.4Z"/>
        <path class="cls-5" d="M26.6,104.8c5.8,5.6,9.7,11.1,9.2,19-8.7-3-10.8-7.3-9.2-19Z"/>
        <path class="cls-5" d="M35.7,87.4c4.3,6,5.9,12.3,4.3,19.5-7.1-2.1-9-10.7-4.3-19.5Z"/>
        <path class="cls-5" d="M232,145c-6.4-5.2-9.4-11.3-9.5-18.9,7.2,2.2,10.5,8.5,9.5,18.9Z"/>
        <path class="cls-5" d="M237.3,87.7c3.7,10.3,2.7,15.1-4.3,19.1-2.2-7.3-.7-14.1,4.3-19.1Z"/>
        <path class="cls-5" d="M40.5,144.8c-1-9.9,1.8-15.6,9-18.9.7,7.3-1.7,12.6-9,18.9Z"/>
        <path class="cls-5" d="M216.6,93.8c6.4.4,9.4,3.3,11.9,11.7-6.2-1.1-9.7-4.5-11.9-11.7Z"/>
        <path class="cls-5" d="M228,90.1c-4-5-3.3-10.5-2.1-16.1,5.9,4,6.8,9.8,2.1,16.1Z"/>
        <path class="cls-5" d="M56.1,93.7c-1.7,6.4-5.8,10.2-11.7,12.5.8-7.7,4.6-11.8,11.7-12.5Z"/>
        <path class="cls-5" d="M46,90c-6.1-5.7-5.6-10.5,1.4-15.9-.5,5.3-1,10.6-1.4,15.9Z"/>
        <path class="cls-5" d="M40.3,123.4c2.3-6.9,4.9-11.8,12.2-12.9-1.6,6.7-5.8,10-12.2,12.9Z"/>
        <path class="cls-5" d="M220.6,110.9c6.3,1.1,9.2,4.1,9.7,12.7-3.7-3.8-7.5-7.5-11.2-11.3l1.5-1.4Z"/>
        <path class="cls-5" d="M113.4,208.1c-.6-1.9-1.3-3.6-1.9-5.5,1.3-1,2.9-2.3,4.6-3.6,1.4,1,3.2,2.3,4.7,3.5-.6,2-1.1,4.1-1.6,5.6h-5.9Z"/>
        <path class="cls-5" d="M154.6,208.1c-.6-2-1.2-3.8-1.7-5.7,1.4-1.1,3.1-2.3,4.8-3.5,1.3,1.1,2.9,2.3,4.5,3.7-.5,1.5-1.2,3.4-1.9,5.5h-5.7Z"/>
        <path class="cls-5" d="M139.9,208h-6.1c-.4-1.5-.9-3.5-1.4-5.7,1.3-1,3-2.2,4.7-3.5,1.2,1,2.8,2.3,4.5,3.7-.5,1.5-1,3.5-1.6,5.4Z"/>
        <path class="cls-5" d="M62,84c-3.9,1.9-7.8,3.9-11.7,5.8l-.8-1.5c2.5-4.6,6.1-7,11.4-6.3.3.7.7,1.3,1,2Z"/>
        <path class="cls-5" d="M210.9,82.4c5.6-1.5,8.9,1.5,11.9,5.3-4.6,1.9-8.1.3-11.9-5.3Z"/>
        <path class="cls-5" d="M203.9,60.9c5.7-1.2,8.3,1.1,9,5.5-.4.5-.9,1-1.3,1.4-2.6-2.3-5.1-4.6-7.7-6.9Z"/>
        <path class="cls-5" d="M68.5,60.9c-2.6,2.3-5.2,4.6-7.7,7-.9-5.9,2.1-7.8,6.3-8.5.5.5,1,1,1.4,1.5Z"/>
        <path class="cls-5" d="M55.8,65.1l-2.6,9.6c-3.8-4.5-1.9-7.4,2.6-9.6Z"/>
        <path class="cls-5" d="M219,64.2c1,3.3,2,6.5,3,9.8-.8.3-1.7.5-2.5.8-1-3.2-2.1-6.5-3.1-9.7.9-.3,1.7-.6,2.6-.9Z"/>
      </g>
    </g>
  </g>
</svg>