<?xml version="1.0" encoding="UTF-8"?>
<svg id="_レイヤー_2" data-name="レイヤー 2" xmlns="http://www.w3.org/2000/svg" viewBox="0 0 273 273">
  <defs>
    <style>
      .cls-1 {
        fill: rgba(76, 181, 244, .55);
      }

      .cls-1, .cls-2, .cls-3 {
        stroke-width: 0px;
      }

      .cls-2 {
        fill: #76b4e3;
      }

      .cls-3 {
        fill: #fff;
      }
    </style>
  </defs>
  <g id="_レイヤー_1-2" data-name="レイヤー 1">
    <g>
      <g>
        <path class="cls-1" d="M204.9,182.23l12.88,12.88.22-2.59-3.76-3.76,1.98-23.6,22.33,22.33,2.81-4.42-10.75-10.75.2-.2-3.85-3.85-4.9-23.8,18.23,18.23,4.94-4.91-12.75-12.75-3.05-15.32,11.8,10.79,2.59-3.95-12.97-12.97-3.61-9.94,10.18,9.3,1.75-3.63-16.33-16.33,1.29-6.79,9.59,9.55.23-1.04-16.74-16.74,3.26-3.47,14.71,14.71.45-2-7.16-7.16.84-13.25,42.62,42.62C263.54,52.1,206.11,0,136.5,0,61.11,0,0,61.11,0,136.5c0,66.84,48.04,122.45,111.48,134.2l-52.55-52.55,2.6-2.19-20.97-20.97,13.4-1.4-25.37-25.37,5-9.87,23.79,23.79.51-3.99-10.6-10.6.62-4.86-18.69-18.69,1.43-11.18,10.88,10.88,3.83-8.05-15.52-15.52-2.69-15.3,16.04,16.04,4.55-4.82-11.07-11.07-.47-17.52,13.53,13.53,6.54-6.95-5.15-5.15,10.41-6.79,160.68,160.68c2.03-1.64,4.01-3.33,5.94-5.08l-30.83-30.83,7.59-24.61Z"/>
        <path class="cls-2" d="M273,136.5c0-5.78-.36-11.47-1.06-17.06l-42.62-42.62-.84,13.25,7.16,7.16-.45,2-14.71-14.71-3.26,3.47,16.74,16.74-.23,1.04-9.59-9.55-1.29,6.79,16.33,16.33-1.75,3.63-10.18-9.3,3.61,9.94,12.97,12.97-2.59,3.95-11.8-10.79,3.05,15.32,12.75,12.75-4.94,4.91-18.23-18.23,4.9,23.8,3.85,3.85-.2.2,10.75,10.75-2.81,4.42-22.33-22.33-1.98,23.6,3.76,3.76-.22,2.59-12.88-12.88-7.59,24.61,30.83,30.83c27.56-24.97,44.86-61.05,44.86-101.17Z"/>
        <path class="cls-2" d="M51.11,88.86l5.15,5.15-6.54,6.95-13.53-13.53.47,17.52,11.07,11.07-4.55,4.82-16.04-16.04,2.69,15.3,15.52,15.52-3.83,8.05-10.88-10.88-1.43,11.18,18.69,18.69-.62,4.86,10.6,10.6-.51,3.99-23.79-23.79-5,9.87,25.37,25.37-13.4,1.4,20.97,20.97-2.6,2.19,52.55,52.55c8.11,1.5,16.48,2.3,25.02,2.3,32.46,0,62.26-11.34,85.69-30.25L61.52,82.07l-10.41,6.79Z"/>
      </g>
      <g>
        <path class="cls-3" d="M91.86,165.01c-2.01,0-3.78-.5-5.33-1.5-1.55-1-2.76-2.43-3.63-4.27-.88-1.85-1.31-4.03-1.31-6.55s.44-4.71,1.31-6.52c.88-1.8,2.09-3.19,3.63-4.16,1.55-.97,3.32-1.46,5.33-1.46s3.81.49,5.35,1.46c1.54.97,2.74,2.36,3.62,4.16.88,1.8,1.31,3.98,1.31,6.52s-.44,4.7-1.31,6.55c-.88,1.85-2.08,3.27-3.62,4.27-1.54,1-3.32,1.5-5.35,1.5ZM91.86,161.91c1.3,0,2.44-.37,3.41-1.1.97-.74,1.72-1.8,2.26-3.19.53-1.39.8-3.03.8-4.93s-.27-3.42-.8-4.75c-.53-1.33-1.29-2.36-2.26-3.07-.97-.71-2.11-1.07-3.41-1.07s-2.44.36-3.41,1.07c-.97.72-1.72,1.74-2.24,3.07-.52,1.33-.78,2.92-.78,4.75s.26,3.54.78,4.93c.52,1.39,1.27,2.45,2.24,3.19.97.74,2.11,1.1,3.41,1.1ZM99.26,170.71c-1.56,0-2.96-.27-4.19-.82-1.24-.54-2.28-1.29-3.14-2.24-.85-.95-1.52-2.01-1.98-3.19l3.84-.35c.3.79.74,1.45,1.33,1.98.59.53,1.28.92,2.06,1.17.79.25,1.62.37,2.5.37.51,0,.98-.03,1.39-.1s.79-.16,1.14-.29l.7,2.82c-.38.17-.9.32-1.54.45-.64.13-1.34.19-2.11.19Z"/>
        <path class="cls-3" d="M111.9,165.01c-1.88,0-3.26-.61-4.13-1.82-.88-1.22-1.31-2.93-1.31-5.15v-11.11h3.71v10.66c0,1.49.23,2.57.7,3.23.47.66,1.22.99,2.24.99.81,0,1.54-.21,2.18-.62.64-.42,1.32-1.08,2.05-2v-12.26h3.71v17.64h-3.04l-.29-2.66h-.1c-.81.92-1.67,1.66-2.56,2.24-.9.58-1.95.86-3.17.86Z"/>
        <path class="cls-3" d="M130.73,165.01c-1,0-1.89-.21-2.67-.64-.78-.43-1.39-1.02-1.84-1.79-.45-.77-.67-1.67-.67-2.69,0-1.9.84-3.37,2.51-4.4,1.68-1.04,4.35-1.76,8.02-2.16-.02-.68-.13-1.31-.32-1.89-.19-.58-.53-1.04-1.01-1.39-.48-.35-1.16-.53-2.03-.53-.92,0-1.8.18-2.66.54-.85.36-1.67.78-2.43,1.25l-1.38-2.5c.62-.38,1.3-.75,2.05-1.1.75-.35,1.55-.64,2.4-.86.85-.22,1.74-.34,2.66-.34,1.47,0,2.68.29,3.62.88.94.59,1.64,1.44,2.1,2.55s.69,2.45.69,4.03v10.6h-3.01l-.29-2.02h-.13c-.79.68-1.65,1.26-2.59,1.75-.94.48-1.94.72-3.01.72ZM131.85,162.07c.77,0,1.48-.18,2.15-.53.66-.35,1.35-.87,2.08-1.55v-4.29c-1.73.19-3.11.48-4.13.85-1.02.37-1.76.81-2.19,1.31-.44.5-.66,1.08-.66,1.75,0,.88.27,1.5.8,1.89.53.38,1.18.58,1.95.58Z"/>
        <path class="cls-3" d="M148.63,165.01c-.9,0-1.61-.19-2.15-.56-.53-.37-.92-.91-1.15-1.6-.24-.69-.35-1.51-.35-2.45v-21.35h3.68v21.55c0,.49.09.84.27,1.04.18.2.38.3.59.3.09,0,.17,0,.26-.02.08-.01.21-.03.38-.05l.45,2.79c-.21.08-.48.17-.8.24-.32.07-.72.11-1.19.11Z"/>
        <path class="cls-3" d="M156.37,143.66c-.7,0-1.26-.2-1.68-.61-.42-.41-.62-.95-.62-1.63,0-.64.21-1.16.62-1.57.42-.41.98-.61,1.68-.61.66,0,1.21.2,1.63.61.43.41.64.93.64,1.57,0,.68-.21,1.23-.64,1.63-.43.41-.97.61-1.63.61ZM154.52,164.57v-17.64h3.68v17.64h-3.68Z"/>
        <path class="cls-3" d="M169.66,165.01c-1.32,0-2.38-.26-3.15-.78-.78-.52-1.34-1.25-1.68-2.18-.34-.93-.51-2.01-.51-3.25v-8.9h-2.56v-2.75l2.75-.22.42-4.87h3.07v4.87h4.58v2.98h-4.58v8.93c0,1.05.2,1.84.61,2.39.41.54,1.07.82,1.98.82.3,0,.62-.04.96-.13.34-.08.64-.18.9-.29l.67,2.72c-.47.15-1,.3-1.58.45-.59.15-1.21.22-1.87.22Z"/>
        <path class="cls-3" d="M177.25,171.93c-.47,0-.88-.03-1.23-.1s-.69-.15-1.01-.26l.7-2.88c.17.04.37.1.61.16.23.06.47.1.7.1.96,0,1.73-.31,2.31-.94.58-.63,1.02-1.41,1.34-2.35l.38-1.22-6.98-17.51h3.75l3.23,9.09c.28.79.55,1.61.82,2.45.27.84.54,1.68.82,2.51h.16c.21-.81.44-1.64.67-2.5.23-.85.47-1.68.7-2.47l2.85-9.09h3.55l-6.47,18.7c-.45,1.26-.98,2.36-1.58,3.31-.61.95-1.34,1.69-2.19,2.21-.85.52-1.9.78-3.14.78Z"/>
      </g>
      <g>
        <path class="cls-3" d="M89.07,124.57c-3.38,0-6.24-.69-8.6-2.06-2.36-1.37-4.32-3.43-5.88-6.17l6.39-4.75c.93,1.69,1.98,2.92,3.16,3.7,1.18.78,2.45,1.17,3.8,1.17,2.07,0,3.63-.63,4.68-1.9,1.05-1.27,1.58-3.52,1.58-6.77v-31h9.36v31.76c0,2.95-.51,5.64-1.52,8.07-1.01,2.43-2.58,4.36-4.71,5.79-2.13,1.43-4.88,2.15-8.26,2.15Z"/>
        <path class="cls-3" d="M133.42,124.57c-4.13,0-7.77-.98-10.91-2.94-3.14-1.96-5.6-4.78-7.37-8.45-1.77-3.67-2.66-8.06-2.66-13.16s.89-9.39,2.66-12.97c1.77-3.58,4.23-6.33,7.37-8.23,3.14-1.9,6.78-2.85,10.91-2.85s7.82.96,10.95,2.88c3.12,1.92,5.57,4.66,7.34,8.23,1.77,3.56,2.66,7.88,2.66,12.94s-.89,9.49-2.66,13.16c-1.77,3.67-4.22,6.49-7.34,8.45-3.12,1.96-6.77,2.94-10.95,2.94ZM133.42,116.47c2.32,0,4.33-.67,6.04-2.02,1.71-1.35,3.03-3.26,3.95-5.73.93-2.47,1.39-5.37,1.39-8.7s-.46-6.19-1.39-8.57c-.93-2.38-2.25-4.22-3.95-5.5-1.71-1.29-3.72-1.93-6.04-1.93s-4.33.64-6.04,1.93c-1.71,1.29-3.02,3.12-3.92,5.5-.91,2.38-1.36,5.24-1.36,8.57s.45,6.23,1.36,8.7c.91,2.47,2.21,4.38,3.92,5.73,1.71,1.35,3.72,2.02,6.04,2.02Z"/>
        <path class="cls-3" d="M163.54,123.68v-46.89h15.5c3.21,0,6.08.36,8.64,1.08,2.55.72,4.58,1.92,6.07,3.61,1.5,1.69,2.25,3.99,2.25,6.9,0,1.43-.26,2.84-.79,4.21-.53,1.37-1.26,2.58-2.18,3.64-.93,1.05-2.07,1.83-3.42,2.34v.25c2.53.59,4.62,1.8,6.26,3.64,1.65,1.83,2.47,4.31,2.47,7.43s-.79,5.71-2.37,7.75c-1.58,2.05-3.73,3.56-6.45,4.56-2.72.99-5.81,1.49-9.27,1.49h-16.7ZM172.91,95.9h5.5c2.95,0,5.1-.56,6.45-1.68,1.35-1.12,2.02-2.6,2.02-4.46,0-2.07-.7-3.54-2.09-4.43-1.39-.89-3.5-1.33-6.33-1.33h-5.57v11.9ZM172.91,116.47h6.52c3.21,0,5.64-.58,7.31-1.74,1.67-1.16,2.5-2.96,2.5-5.41,0-2.28-.83-3.93-2.5-4.97-1.67-1.03-4.1-1.55-7.31-1.55h-6.52v13.67Z"/>
      </g>
      <g id="VUIRtf">
        <g>
          <path class="cls-3" d="M99.76,59.52c-4.07-8.65-10.04-14.49-18.7-18.42,8.39-4.04,14.96-9.44,17.81-19.49,3.51,5.06,5.54,8.99,8.52,11.98,2.89,2.89,6.75,4.8,11.6,8.11-9.41,3.14-15.46,9.04-19.24,17.82Z"/>
          <path class="cls-3" d="M186.17,66.52c-2.53-5.37-6.23-8.99-11.6-11.43,5.21-2.51,9.28-5.86,11.05-12.09,2.18,3.14,3.44,5.58,5.29,7.43,1.79,1.79,4.19,2.98,7.2,5.03-5.84,1.95-9.59,5.61-11.93,11.05Z"/>
          <path class="cls-3" d="M82.49,61c-1.29-2.74-3.18-4.59-5.92-5.83,2.66-1.28,4.74-2.99,5.64-6.17,1.11,1.6,1.75,2.85,2.7,3.79.91.92,2.14,1.52,3.67,2.57-2.98.99-4.89,2.86-6.09,5.64Z"/>
        </g>
      </g>
      <g id="QZ8fLZ">
        <g>
          <path class="cls-3" d="M116.22,232.82c-10.2-1.96-18.43-4.72-25.55-12.8,31.07,13.17,61.05,13.11,91.98.12-6.94,8.01-15.34,10.65-25.23,12.78,9.6,4.24,19.37,6.18,24.33,15.74-13.95-7.9-28.53-14.3-44.67-14.37-16.32-.07-31.06,6.19-44.88,14.71-.37-.56-.74-1.12-1.12-1.69,3.62-2.82,7-6.06,10.93-8.36,4.02-2.35,8.58-3.76,14.2-6.13Z"/>
          <path class="cls-3" d="M226.79,207.96c-7.6,11.38-17.13,14.16-28.36,8.26,6.48-8.14,19.08-11.81,28.36-8.26Z"/>
          <path class="cls-3" d="M46.09,207.4c11.63-2.07,21.08.32,29.11,8.37-10.22,6.69-19.7,4.09-29.11-8.37Z"/>
          <path class="cls-3" d="M31.23,182.73c9.98-1.1,19.95,3.6,25.54,12.04-10.64,6.39-20.05.58-25.54-12.04Z"/>
          <path class="cls-3" d="M216.16,194.85c6.8-8.86,15.49-12.5,26.02-12.62-3.85,12.98-13.95,18-26.02,12.62Z"/>
          <path class="cls-3" d="M251.15,151.9c-1.23,14.71-7.82,21.31-20.55,20.42,3.58-10.08,10.4-16.49,20.55-20.42Z"/>
          <path class="cls-3" d="M42.38,172.29c-12.03,1.14-18.58-5.28-20.05-19.63,9.03,1.63,17.77,10.2,20.05,19.63Z"/>
          <path class="cls-3" d="M237.08,147.01c1.33-9.6,6.15-16.09,13.86-21.31.81,13.48-3.06,19.44-13.86,21.31Z"/>
          <path class="cls-3" d="M36.01,147.1c-10.63-2.38-13.83-7.34-13.6-20.43,6.98,2.3,12.93,11.07,13.6,20.43Z"/>
          <path class="cls-3" d="M74.94,207.54c-7.65-4.29-10.56-16.75-6.09-25.11,5.06,7.69,8.57,15.43,6.09,25.11Z"/>
          <path class="cls-3" d="M204.67,182.02c4.19,10.49,1.87,19.83-6.12,25.38-2.82-9.63,1.31-17.33,6.12-25.38Z"/>
          <path class="cls-3" d="M214.24,188.76c-2.94-8.52-2.66-16.15,1.96-23.58,5.22,6.81,4.62,14.76-1.96,23.58Z"/>
          <path class="cls-3" d="M59.38,188.67c-6.61-8.01-7.35-16.09-2.31-23.68,4.9,7.39,4.88,15.1,2.31,23.68Z"/>
          <path class="cls-3" d="M221.9,144.62c7.77,7,7.25,14.74,5.05,23.65-5.63-7.25-7.42-14.56-5.05-23.65Z"/>
          <path class="cls-3" d="M51.66,145.3c2.28,8.23.39,15.45-4.38,22.24-4.35-7.72-2.5-17.27,4.38-22.24Z"/>
          <path class="cls-3" d="M237.1,123.61c-.39-7.81,3.41-13.39,8.95-18.42,2.49,10.14-.37,15.99-8.95,18.42Z"/>
          <path class="cls-3" d="M27.14,104.81c5.78,5.56,9.74,11.1,9.22,18.99-8.65-3.01-10.8-7.31-9.22-18.99Z"/>
          <path class="cls-3" d="M36.19,87.44c4.3,5.99,5.89,12.29,4.29,19.46-7.11-2.09-9.05-10.67-4.29-19.46Z"/>
          <path class="cls-3" d="M232.47,145.04c-6.41-5.2-9.4-11.32-9.51-18.95,7.23,2.17,10.48,8.46,9.51,18.95Z"/>
          <path class="cls-3" d="M237.8,87.72c3.73,10.31,2.66,15.07-4.33,19.14-2.22-7.31-.69-14.07,4.33-19.14Z"/>
          <path class="cls-3" d="M41.02,144.81c-1.05-9.86,1.78-15.6,8.97-18.91.73,7.34-1.68,12.59-8.97,18.91Z"/>
          <path class="cls-3" d="M217.09,93.77c6.4.37,9.36,3.27,11.89,11.67-6.21-1.08-9.66-4.47-11.89-11.67Z"/>
          <path class="cls-3" d="M228.48,90.07c-3.99-5.03-3.27-10.5-2.12-16.07,5.93,3.99,6.76,9.76,2.12,16.07Z"/>
          <path class="cls-3" d="M56.56,93.69c-1.72,6.36-5.82,10.16-11.71,12.46.82-7.67,4.64-11.81,11.71-12.46Z"/>
          <path class="cls-3" d="M46.54,89.96c-6.12-5.68-5.61-10.51,1.44-15.86-.48,5.29-.96,10.57-1.44,15.86Z"/>
          <path class="cls-3" d="M40.75,123.42c2.26-6.91,4.87-11.77,12.23-12.95-1.56,6.72-5.79,10.05-12.23,12.95Z"/>
          <path class="cls-3" d="M221.14,110.91c6.34,1.07,9.17,4.13,9.7,12.68-3.73-3.77-7.46-7.54-11.18-11.31l1.48-1.37Z"/>
          <path class="cls-3" d="M113.9,208.06c-.65-1.86-1.27-3.65-1.92-5.54,1.31-1.01,2.92-2.26,4.64-3.59,1.41,1.04,3.16,2.34,4.71,3.48-.57,2.05-1.12,4.05-1.56,5.65h-5.86Z"/>
          <path class="cls-3" d="M155.11,208.09c-.6-1.96-1.16-3.78-1.73-5.67,1.45-1.06,3.11-2.27,4.82-3.53,1.3,1.06,2.86,2.32,4.55,3.69-.52,1.5-1.19,3.42-1.92,5.51h-5.71Z"/>
          <path class="cls-3" d="M140.35,208.01h-6.14c-.38-1.54-.86-3.52-1.39-5.67,1.31-.97,2.96-2.19,4.67-3.46,1.24,1.02,2.8,2.3,4.5,3.7-.46,1.52-1.04,3.45-1.64,5.43Z"/>
          <path class="cls-3" d="M62.51,84.04c-3.89,1.93-7.77,3.86-11.66,5.78l-.75-1.49c2.46-4.56,6.06-7.01,11.42-6.27.33.66.67,1.32,1,1.97Z"/>
          <path class="cls-3" d="M211.43,82.42c5.57-1.55,8.89,1.45,11.88,5.35-4.55,1.88-8.13.3-11.88-5.35Z"/>
        </g>
      </g>
      <g id="QZ8fLZ-2" data-name="QZ8fLZ">
        <g>
          <path class="cls-3" d="M116.22,232.82c-5.62,2.37-10.18,3.79-14.2,6.13-3.93,2.29-7.31,5.53-10.93,8.36.37.56.74,1.12,1.12,1.69,13.82-8.52,28.56-14.78,44.88-14.71,16.14.07,30.72,6.47,44.67,14.37-4.97-9.57-14.73-11.5-24.33-15.74,9.88-2.13,18.29-4.77,25.23-12.78-30.94,12.99-60.91,13.04-91.98-.12,7.12,8.08,15.35,10.85,25.55,12.8ZM226.79,207.96c-9.28-3.55-21.88.13-28.36,8.26,11.23,5.9,20.76,3.12,28.36-8.26ZM46.09,207.4c9.4,12.45,18.89,15.05,29.11,8.37-8.03-8.04-17.48-10.43-29.11-8.37ZM31.23,182.73c5.49,12.62,14.9,18.44,25.54,12.04-5.6-8.44-15.56-13.14-25.54-12.04ZM216.16,194.85c12.07,5.38,22.17.35,26.02-12.62-10.53.13-19.22,3.76-26.02,12.62ZM251.15,151.9c-10.16,3.94-16.98,10.34-20.55,20.42,12.74.89,19.33-5.71,20.55-20.42ZM42.38,172.29c-2.27-9.43-11.02-18-20.05-19.63,1.46,14.35,8.02,20.77,20.05,19.63ZM237.08,147.01c10.8-1.87,14.66-7.83,13.86-21.31-7.71,5.22-12.53,11.71-13.86,21.31ZM36.01,147.1c-.68-9.36-6.62-18.13-13.6-20.43-.23,13.09,2.98,18.04,13.6,20.43ZM74.94,207.54c2.49-9.67-1.03-17.42-6.09-25.11-4.48,8.36-1.56,20.82,6.09,25.11ZM204.67,182.02c-4.81,8.05-8.93,15.75-6.12,25.38,7.98-5.56,10.3-14.89,6.12-25.38ZM214.24,188.76c6.58-8.82,7.18-16.77,1.96-23.58-4.62,7.43-4.9,15.06-1.96,23.58ZM59.38,188.67c2.56-8.57,2.59-16.29-2.31-23.68-5.03,7.58-4.3,15.67,2.31,23.68ZM221.9,144.62c-2.37,9.09-.58,16.4,5.05,23.65,2.2-8.91,2.71-16.65-5.05-23.65ZM51.66,145.3c-6.89,4.98-8.73,14.52-4.38,22.24,4.77-6.79,6.67-14.01,4.38-22.24ZM237.1,123.61c8.59-2.43,11.44-8.28,8.95-18.42-5.54,5.03-9.35,10.61-8.95,18.42ZM27.14,104.81c-1.58,11.68.57,15.98,9.22,18.99.52-7.89-3.44-13.43-9.22-18.99ZM36.19,87.44c-4.75,8.79-2.82,17.37,4.29,19.46,1.6-7.16.01-13.47-4.29-19.46ZM232.47,145.04c.97-10.48-2.28-16.78-9.51-18.95.11,7.63,3.1,13.74,9.51,18.95ZM237.8,87.72c-5.02,5.07-6.55,11.83-4.33,19.14,6.99-4.07,8.06-8.83,4.33-19.14ZM41.02,144.81c7.29-6.32,9.7-11.57,8.97-18.91-7.2,3.31-10.02,9.05-8.97,18.91ZM217.09,93.77c2.22,7.2,5.68,10.59,11.89,11.67-2.53-8.4-5.48-11.3-11.89-11.67ZM228.48,90.07c4.64-6.31,3.81-12.08-2.12-16.07-1.15,5.57-1.87,11.04,2.12,16.07ZM56.56,93.69c-7.07.65-10.9,4.79-11.71,12.46,5.89-2.29,10-6.1,11.71-12.46ZM46.54,89.96c.48-5.29.96-10.57,1.44-15.86-7.05,5.35-7.56,10.17-1.44,15.86ZM40.75,123.42c6.43-2.9,10.67-6.23,12.23-12.95-7.36,1.18-9.97,6.04-12.23,12.95ZM221.14,110.91l-1.48,1.37c3.73,3.77,7.46,7.54,11.18,11.31-.53-8.55-3.37-11.61-9.7-12.68ZM113.9,208.06h5.86c.44-1.6.99-3.6,1.56-5.65-1.54-1.14-3.3-2.43-4.71-3.48-1.72,1.33-3.33,2.58-4.64,3.59.66,1.89,1.28,3.68,1.92,5.54ZM155.11,208.09h5.71c.73-2.09,1.4-4.01,1.92-5.51-1.69-1.37-3.24-2.64-4.55-3.69-1.71,1.26-3.37,2.47-4.82,3.53.58,1.89,1.14,3.71,1.73,5.67ZM140.35,208.01c.6-1.98,1.18-3.91,1.64-5.43-1.7-1.4-3.26-2.68-4.5-3.7-1.71,1.27-3.36,2.49-4.67,3.46.53,2.15,1.01,4.14,1.39,5.67h6.14ZM62.51,84.04c-.33-.66-.67-1.32-1-1.97-5.35-.74-8.96,1.71-11.42,6.27l.75,1.49c3.89-1.93,7.77-3.86,11.66-5.78ZM211.43,82.42c3.75,5.65,7.32,7.23,11.88,5.35-2.99-3.89-6.31-6.9-11.88-5.35ZM204.44,60.89c2.56,2.3,5.12,4.6,7.68,6.91.43-.48.86-.95,1.29-1.43-.65-4.41-3.22-6.7-8.96-5.48ZM69.02,60.9c-.48-.51-.95-1.02-1.43-1.52-4.22.65-7.24,2.53-6.3,8.48,2.58-2.32,5.15-4.63,7.73-6.95ZM56.34,65.11c-4.53,2.23-6.45,5.17-2.63,9.65l2.63-9.65ZM219.54,64.22c-.87.3-1.75.59-2.62.89,1.03,3.23,2.05,6.46,3.08,9.69.85-.26,1.69-.53,2.54-.79-1-3.26-2-6.52-2.99-9.78Z"/>
          <path class="cls-3" d="M116.22,232.82c-10.2-1.96-18.43-4.72-25.55-12.8,31.07,13.17,61.05,13.11,91.98.12-6.94,8.01-15.34,10.65-25.23,12.78,9.6,4.24,19.37,6.18,24.33,15.74-13.95-7.9-28.53-14.3-44.67-14.37-16.32-.07-31.06,6.19-44.88,14.71-.37-.56-.74-1.12-1.12-1.69,3.62-2.82,7-6.06,10.93-8.36,4.02-2.35,8.58-3.76,14.2-6.13Z"/>
          <path class="cls-3" d="M226.79,207.96c-7.6,11.38-17.13,14.16-28.36,8.26,6.48-8.14,19.08-11.81,28.36-8.26Z"/>
          <path class="cls-3" d="M46.09,207.4c11.63-2.07,21.08.32,29.11,8.37-10.22,6.69-19.7,4.09-29.11-8.37Z"/>
          <path class="cls-3" d="M31.23,182.73c9.98-1.1,19.95,3.6,25.54,12.04-10.64,6.39-20.05.58-25.54-12.04Z"/>
          <path class="cls-3" d="M216.16,194.85c6.8-8.86,15.49-12.5,26.02-12.62-3.85,12.98-13.95,18-26.02,12.62Z"/>
          <path class="cls-3" d="M251.15,151.9c-1.23,14.71-7.82,21.31-20.55,20.42,3.58-10.08,10.4-16.49,20.55-20.42Z"/>
          <path class="cls-3" d="M42.38,172.29c-12.03,1.14-18.58-5.28-20.05-19.63,9.03,1.63,17.77,10.2,20.05,19.63Z"/>
          <path class="cls-3" d="M237.08,147.01c1.33-9.6,6.15-16.09,13.86-21.31.81,13.48-3.06,19.44-13.86,21.31Z"/>
          <path class="cls-3" d="M36.01,147.1c-10.63-2.38-13.83-7.34-13.6-20.43,6.98,2.3,12.93,11.07,13.6,20.43Z"/>
          <path class="cls-3" d="M74.94,207.54c-7.65-4.29-10.56-16.75-6.09-25.11,5.06,7.69,8.57,15.43,6.09,25.11Z"/>
          <path class="cls-3" d="M204.67,182.02c4.19,10.49,1.87,19.83-6.12,25.38-2.82-9.63,1.31-17.33,6.12-25.38Z"/>
          <path class="cls-3" d="M214.24,188.76c-2.94-8.52-2.66-16.15,1.96-23.58,5.22,6.81,4.62,14.76-1.96,23.58Z"/>
          <path class="cls-3" d="M59.38,188.67c-6.61-8.01-7.35-16.09-2.31-23.68,4.9,7.39,4.88,15.1,2.31,23.68Z"/>
          <path class="cls-3" d="M221.9,144.62c7.77,7,7.25,14.74,5.05,23.65-5.63-7.25-7.42-14.56-5.05-23.65Z"/>
          <path class="cls-3" d="M51.66,145.3c2.28,8.23.39,15.45-4.38,22.24-4.35-7.72-2.5-17.27,4.38-22.24Z"/>
          <path class="cls-3" d="M237.1,123.61c-.39-7.81,3.41-13.39,8.95-18.42,2.49,10.14-.37,15.99-8.95,18.42Z"/>
          <path class="cls-3" d="M27.14,104.81c5.78,5.56,9.74,11.1,9.22,18.99-8.65-3.01-10.8-7.31-9.22-18.99Z"/>
          <path class="cls-3" d="M36.19,87.44c4.3,5.99,5.89,12.29,4.29,19.46-7.11-2.09-9.05-10.67-4.29-19.46Z"/>
          <path class="cls-3" d="M232.47,145.04c-6.41-5.2-9.4-11.32-9.51-18.95,7.23,2.17,10.48,8.46,9.51,18.95Z"/>
          <path class="cls-3" d="M237.8,87.72c3.73,10.31,2.66,15.07-4.33,19.14-2.22-7.31-.69-14.07,4.33-19.14Z"/>
          <path class="cls-3" d="M41.02,144.81c-1.05-9.86,1.78-15.6,8.97-18.91.73,7.34-1.68,12.59-8.97,18.91Z"/>
          <path class="cls-3" d="M217.09,93.77c6.4.37,9.36,3.27,11.89,11.67-6.21-1.08-9.66-4.47-11.89-11.67Z"/>
          <path class="cls-3" d="M228.48,90.07c-3.99-5.03-3.27-10.5-2.12-16.07,5.93,3.99,6.76,9.76,2.12,16.07Z"/>
          <path class="cls-3" d="M56.56,93.69c-1.72,6.36-5.82,10.16-11.71,12.46.82-7.67,4.64-11.81,11.71-12.46Z"/>
          <path class="cls-3" d="M46.54,89.96c-6.12-5.68-5.61-10.51,1.44-15.86-.48,5.29-.96,10.57-1.44,15.86Z"/>
          <path class="cls-3" d="M40.75,123.42c2.26-6.91,4.87-11.77,12.23-12.95-1.56,6.72-5.79,10.05-12.23,12.95Z"/>
          <path class="cls-3" d="M221.14,110.91c6.34,1.07,9.17,4.13,9.7,12.68-3.73-3.77-7.46-7.54-11.18-11.31l1.48-1.37Z"/>
          <path class="cls-3" d="M113.9,208.06c-.65-1.86-1.27-3.65-1.92-5.54,1.31-1.01,2.92-2.26,4.64-3.59,1.41,1.04,3.16,2.34,4.71,3.48-.57,2.05-1.12,4.05-1.56,5.65h-5.86Z"/>
          <path class="cls-3" d="M155.11,208.09c-.6-1.96-1.16-3.78-1.73-5.67,1.45-1.06,3.11-2.27,4.82-3.53,1.3,1.06,2.86,2.32,4.55,3.69-.52,1.5-1.19,3.42-1.92,5.51h-5.71Z"/>
          <path class="cls-3" d="M140.35,208.01h-6.14c-.38-1.54-.86-3.52-1.39-5.67,1.31-.97,2.96-2.19,4.67-3.46,1.24,1.02,2.8,2.3,4.5,3.7-.46,1.52-1.04,3.45-1.64,5.43Z"/>
          <path class="cls-3" d="M62.51,84.04c-3.89,1.93-7.77,3.86-11.66,5.78l-.75-1.49c2.46-4.56,6.06-7.01,11.42-6.27.33.66.67,1.32,1,1.97Z"/>
          <path class="cls-3" d="M211.43,82.42c5.57-1.55,8.89,1.45,11.88,5.35-4.55,1.88-8.13.3-11.88-5.35Z"/>
          <path class="cls-3" d="M204.44,60.89c5.74-1.22,8.31,1.06,8.96,5.48-.43.48-.86.95-1.29,1.43-2.56-2.3-5.12-4.6-7.68-6.91Z"/>
          <path class="cls-3" d="M69.02,60.9c-2.58,2.32-5.15,4.63-7.73,6.95-.94-5.95,2.08-7.82,6.3-8.48.48.51.95,1.02,1.43,1.52Z"/>
          <path class="cls-3" d="M56.34,65.11l-2.63,9.65c-3.83-4.48-1.9-7.41,2.63-9.65Z"/>
          <path class="cls-3" d="M219.54,64.22c1,3.26,2,6.52,2.99,9.78-.85.26-1.69.53-2.54.79-1.03-3.23-2.05-6.46-3.08-9.69.87-.3,1.75-.59,2.62-.89Z"/>
        </g>
      </g>
    </g>
  </g>
</svg>