<?xml version="1.0" encoding="UTF-8"?>
<svg id="_レイヤー_2" data-name="レイヤー 2" xmlns="http://www.w3.org/2000/svg" viewBox="0 0 273 273">
  <defs>
    <style>
      .cls-1 {
        fill: rgba(76, 181, 244, .55);
      }

      .cls-1, .cls-2, .cls-3 {
        stroke-width: 0px;
      }

      .cls-2 {
        fill: #76b4e3;
      }

      .cls-3 {
        fill: #fff;
      }
    </style>
  </defs>
  <g id="_レイヤー_1-2" data-name="レイヤー 1">
    <g>
      <g>
        <path class="cls-1" d="M22.96,147l17.04-63,28,9,7,4,4,2,8-2,40-17,13,6,63,12,9-6,26-2,34.47,34.47C266.37,54.72,207.83,0,136.5,0,61.11,0,0,61.11,0,136.5s61.11,136.5,136.5,136.5c4.14,0,8.24-.2,12.29-.56L23.34,147h-.38Z"/>
        <path class="cls-2" d="M273,136.5c0-4.06-.19-8.07-.53-12.03l-34.47-34.47-26,2-9,6-63-12-13-6-40,17-8,2-4-2-7-4-28-9-17.04,63h.38l125.44,125.44c69.63-6.21,124.21-64.7,124.21-135.94Z"/>
      </g>
      <g>
        <path class="cls-3" d="M63.59,160.57c2.59-3.37,5.01-6.57,7.48-9.73,3.72-4.76,8.61-6.85,14.58-5.9,6.08.97,10.03,4.6,12.11,10.4.29.81,1.25,1.71,2.08,1.94,5.91,1.68,9.69,5.35,11.41,11.27.23.8,1.2,1.76,2.01,1.97,6.21,1.59,9.94,5.52,11.7,11.58.22.76,1.05,1.76,1.75,1.9,10.3,2.17,14.59,13.5,10.6,21.35-.27.52-.26,1.65.09,1.94,2.79,2.35,5.8,4.37,9.68,4.15,3.98-.23,5.87-2.96,7.43-6.24,1.41-2.98-1.06-3.96-2.46-5.53-.56-.62-1.2-1.17-1.79-1.76-4.84-4.76-9.67-9.53-14.51-14.28-1.04-1.02-1.55-2.31-.28-3.19.62-.43,2,.17,3,.43.35.09.6.56.9.85,5.91,5.82,11.9,11.56,17.71,17.48,2.9,2.96,6.34,3.62,10.13,3.08,2.77-.39,4.64-2.09,5.54-4.84.87-2.65.43-4.66-1.73-6.69-5.86-5.5-11.49-11.25-17.23-16.88-1.04-1.02-1.6-2.29-.3-3.17.64-.43,2.05.11,3.04.43.5.16.84.78,1.26,1.2,5.97,5.88,11.97,11.73,17.88,17.67,1.49,1.5,3.09,2.08,5.15,1.93,4.34-.32,7.28-3.24,8.37-8.33.49-2.31.09-4.06-1.76-5.79-5.73-5.4-11.27-11-16.89-16.52-.42-.41-1.07-.78-1.18-1.27-.18-.79-.32-1.98.11-2.42.46-.46,1.67-.46,2.43-.24.64.18,1.13.95,1.67,1.48,5.62,5.52,11.32,10.95,16.8,16.6,1.99,2.05,4,2.12,6.34,1.28,5.54-2,9.02-10.16,3.35-15.23-12.49-11.16-24.56-22.79-36.82-34.21-4.59-4.28-9.22-8.51-13.83-12.76-4.12,2.04-8.05,4.08-12.07,5.96-4.02,1.88-8.08,3.67-12.18,5.37-5.66,2.34-11.54,3.37-17.68,2.75-8.78-.89-15.13-6.54-16.02-15-.35-3.34.46-6.8.7-10.21.12-1.72,1.07-2.58,2.61-3.27,11.76-5.28,23.49-10.65,35.22-16.01,1.17-.53,2.31-1.13,3.68-1.8-6.39-3.22-9.62-3.52-15.65-.81-9.01,4.04-17.95,8.25-26.84,12.55-5.28,2.55-10.68,3.91-16.52,2.88-1.48-.26-2.05.31-2.47,1.67-1.16,3.76-2.47,7.47-3.71,11.2-4.8,14.37-9.56,28.75-14.42,43.09-.6,1.78-.4,2.7,1.37,3.5,2.74,1.24,5.37,2.71,8.22,4.17ZM216.99,151.88c-.06-.75-.02-1.34-.15-1.89-4.06-16.93-8.14-33.86-12.18-50.79-.33-1.38-.91-1.86-2.37-1.86-6.94-.01-13.13-2.28-18.61-6.52-2.98-2.31-5.85-4.77-8.94-6.92-7.41-5.17-15.6-6.46-23.86-2.86-17.35,7.56-34.5,15.57-51.71,23.43-.64.29-1.38.8-1.64,1.4-2.85,6.54,1.05,14.68,7.97,16.47,5.53,1.43,11.07.88,16.24-1.4,8.8-3.89,17.5-8.03,26.15-12.25,1.92-.94,3-.74,4.52.67,16.07,14.96,32.21,29.84,48.37,44.7.69.63,1.93,1.23,2.75,1.06,4.49-.94,8.93-2.13,13.47-3.25ZM45.97,154.63c.19.14.39.28.58.42.93-1.1,2.3-2.05,2.73-3.32,6.3-18.61,12.49-37.26,18.68-55.91.87-2.62.21-3.99-2.36-4.86-7.05-2.4-14.11-4.75-21.18-7.06-2.52-.82-3.99-.03-4.84,2.51-6.19,18.55-12.38,37.11-18.54,55.67-.99,2.97-.41,4.12,2.57,5.13,6.96,2.37,13.95,4.68,20.93,7.01.47.16.96.27,1.44.41ZM225.63,154.19c.26-.02.43-.01.6-.05,7.56-1.83,15.13-3.62,22.67-5.52,2.32-.59,2.82-2.31,2.28-4.52-4.32-17.88-8.61-35.78-12.95-53.66-.68-2.8-2.03-3.69-4.75-3.06-7.17,1.65-14.33,3.36-21.48,5.12-2.6.64-3.45,2.25-2.84,4.94.41,1.79.87,3.58,1.3,5.36,3.84,15.94,7.69,31.88,11.49,47.83.5,2.09,1.34,3.61,3.67,3.56ZM104.44,177.6c2.04-4.64,1.95-8.51-1.1-11.86-3.04-3.33-6.93-3.53-11.06-2.22,0-.55-.04-.8,0-1.03,1-5.04-.89-9.25-5.03-11.15-4.19-1.92-8.7-.69-11.83,3.27-1.97,2.5-3.92,5.02-5.82,7.58-2.46,3.32-2.51,7.77-.2,11.06,2.28,3.25,6.21,4.63,10.21,3.61.52-.13,1.06-.2,1.9-.36-1.22,4.42-.5,8.11,2.91,10.93,3.5,2.9,7.35,2.39,11.53.59-2.07,4.7-2.06,8.82,1.58,12.16,4.03,3.69,8.42,3.22,13,.14-.12.74-.14,1.07-.22,1.38-1.22,4.9.57,9.2,4.71,11.28,4.21,2.12,8.82.91,12.02-3.16,1.29-1.65,2.56-3.31,3.84-4.98,2.72-3.55,2.81-8.37.23-11.65-2.8-3.55-7.3-4.64-11.53-2.79-.53.23-1.07.46-1.96.84,2.45-4.46,2.64-8.5-.54-12.06-3.4-3.8-7.62-4.06-12.65-1.58Z"/>
        <path class="cls-3" d="M63.59,160.57c-2.85-1.46-5.48-2.94-8.22-4.17-1.76-.8-1.97-1.72-1.37-3.5,4.87-14.34,9.63-28.72,14.42-43.09,1.25-3.73,2.56-7.44,3.71-11.2.42-1.36.99-1.93,2.47-1.67,5.84,1.03,11.25-.33,16.52-2.88,8.89-4.3,17.83-8.51,26.84-12.55,6.02-2.7,9.25-2.41,15.65.81-1.37.67-2.51,1.27-3.68,1.8-11.73,5.35-23.45,10.72-35.22,16.01-1.54.69-2.48,1.55-2.61,3.27-.24,3.41-1.06,6.87-.7,10.21.9,8.45,7.24,14.11,16.02,15,6.14.62,12.03-.41,17.68-2.75,4.1-1.7,8.16-3.49,12.18-5.37,4.01-1.88,7.95-3.92,12.07-5.96,4.61,4.25,9.24,8.49,13.83,12.76,12.26,11.42,24.33,23.04,36.82,34.21,5.67,5.07,2.2,13.23-3.35,15.23-2.34.84-4.35.77-6.34-1.28-5.48-5.65-11.18-11.09-16.8-16.6-.54-.53-1.02-1.29-1.67-1.48-.76-.22-1.97-.22-2.43.24-.43.44-.29,1.62-.11,2.42.11.49.76.86,1.18,1.27,5.61,5.52,11.16,11.12,16.89,16.52,1.84,1.73,2.25,3.49,1.76,5.79-1.09,5.09-4.03,8.02-8.37,8.33-2.06.15-3.66-.42-5.15-1.93-5.9-5.94-11.91-11.79-17.88-17.67-.42-.41-.77-1.04-1.26-1.2-.99-.31-2.4-.86-3.04-.43-1.3.88-.74,2.15.3,3.17,5.74,5.63,11.36,11.38,17.23,16.88,2.16,2.03,2.6,4.04,1.73,6.69-.9,2.75-2.77,4.45-5.54,4.84-3.79.54-7.23-.13-10.13-3.08-5.81-5.92-11.79-11.66-17.71-17.48-.3-.29-.55-.76-.9-.85-1-.26-2.38-.85-3-.43-1.27.88-.76,2.17.28,3.19,4.84,4.75,9.68,9.52,14.51,14.28.6.59,1.24,1.14,1.79,1.76,1.4,1.57,3.87,2.55,2.46,5.53-1.55,3.28-3.44,6.01-7.43,6.24-3.88.22-6.89-1.8-9.68-4.15-.35-.29-.35-1.42-.09-1.94,4-7.85-.3-19.19-10.6-21.35-.7-.15-1.53-1.14-1.75-1.9-1.76-6.06-5.5-10-11.7-11.58-.8-.21-1.77-1.17-2.01-1.97-1.72-5.92-5.5-9.59-11.41-11.27-.83-.24-1.79-1.13-2.08-1.94-2.08-5.8-6.03-9.43-12.11-10.4-5.96-.95-10.86,1.14-14.58,5.9-2.47,3.16-4.9,6.36-7.48,9.73Z"/>
        <path class="cls-3" d="M216.99,151.88c-4.54,1.12-8.98,2.31-13.47,3.25-.82.17-2.07-.43-2.75-1.06-16.16-14.86-32.3-29.74-48.37-44.7-1.52-1.41-2.6-1.61-4.52-.67-8.65,4.22-17.34,8.36-26.15,12.25-5.17,2.28-10.7,2.83-16.24,1.4-6.92-1.79-10.82-9.94-7.97-16.47.26-.6,1-1.11,1.64-1.4,17.22-7.86,34.36-15.88,51.71-23.43,8.26-3.6,16.45-2.3,23.86,2.86,3.09,2.15,5.96,4.61,8.94,6.92,5.48,4.24,11.67,6.51,18.61,6.52,1.46,0,2.04.48,2.37,1.86,4.04,16.94,8.12,33.86,12.18,50.79.13.55.1,1.13.15,1.89Z"/>
        <path class="cls-3" d="M45.97,154.63c-.48-.13-.97-.25-1.44-.41-6.98-2.33-13.97-4.64-20.93-7.01-2.97-1.01-3.55-2.15-2.57-5.13,6.16-18.57,12.34-37.12,18.54-55.67.85-2.54,2.32-3.34,4.84-2.51,7.08,2.31,14.14,4.66,21.18,7.06,2.57.88,3.23,2.24,2.36,4.86-6.19,18.65-12.38,37.3-18.68,55.91-.43,1.27-1.8,2.22-2.73,3.32-.19-.14-.39-.28-.58-.42Z"/>
        <path class="cls-3" d="M225.63,154.19c-2.33.05-3.18-1.47-3.67-3.56-3.8-15.95-7.66-31.89-11.49-47.83-.43-1.79-.9-3.57-1.3-5.36-.61-2.7.24-4.3,2.84-4.94,7.15-1.76,14.31-3.47,21.48-5.12,2.72-.62,4.07.27,4.75,3.06,4.33,17.88,8.62,35.77,12.95,53.66.53,2.21.04,3.94-2.28,4.52-7.54,1.9-15.11,3.69-22.67,5.52-.16.04-.33.03-.6.05Z"/>
        <path class="cls-3" d="M104.44,177.6c5.03-2.47,9.26-2.22,12.65,1.58,3.19,3.56,2.99,7.61.54,12.06.9-.38,1.43-.61,1.96-.84,4.22-1.85,8.73-.76,11.53,2.79,2.59,3.28,2.49,8.09-.23,11.65-1.27,1.66-2.55,3.33-3.84,4.98-3.2,4.07-7.81,5.28-12.02,3.16-4.14-2.08-5.93-6.38-4.71-11.28.08-.31.1-.63.22-1.38-4.57,3.09-8.97,3.56-13-.14-3.64-3.34-3.65-7.46-1.58-12.16-4.18,1.8-8.04,2.31-11.53-.59-3.4-2.83-4.13-6.51-2.91-10.93-.84.16-1.38.23-1.9.36-4,1.03-7.93-.36-10.21-3.61-2.31-3.29-2.26-7.74.2-11.06,1.9-2.56,3.84-5.08,5.82-7.58,3.12-3.96,7.64-5.19,11.83-3.27,4.13,1.9,6.03,6.1,5.03,11.15-.05.23,0,.48,0,1.03,4.13-1.32,8.03-1.12,11.06,2.22,3.05,3.35,3.14,7.22,1.1,11.86Z"/>
      </g>
    </g>
  </g>
</svg>