<?xml version="1.0" encoding="UTF-8"?>
<svg id="_レイヤー_2" data-name=" レイヤー 2" xmlns="http://www.w3.org/2000/svg" version="1.1" viewBox="0 0 273 273">
  <defs>
    <style>
      .cls-1 {
        fill: #2db6e4;
      }

      .cls-1, .cls-2, .cls-3, .cls-4 {
        stroke-width: 0px;
      }

      .cls-2 {
        fill: #76b4e3;
      }

      .cls-3 {
        fill: #4cb5f4;
        fill-opacity: .6;
      }

      .cls-4 {
        fill: #fff;
      }
    </style>
  </defs>
  <g>
    <path class="cls-3" d="M153.3,272c-19.3-19.3-38.7-38.7-58-58h-.4,0l72.3-35.1-53.5-53.5h-.2l42.3-20.5-6.3-16.9,55.4,55.4,19-30.1,46.9,46.9c1.3-7.7,2-15.6,2-23.7C273,61.1,211.9,0,136.5,0S0,61.6,0,136.5c0,86.7,82.8,134.9,136.5,136.5,6.4.2,12.1-.3,16.8-1Z"/>
    <path class="cls-2" d="M271,160.2l-46.9-46.9-19,30.1-55.4-55.4,6.3,16.9-42.3,20.5h.2l53.5,53.5-72.3,35.1h.4l58,58c59.6-7.3,107.4-53.1,117.6-111.8h-.1Z"/>
  </g>
  <g id="VUIRtf">
    <path class="cls-4" d="M95,214h74.9c.4-9.9.9-19.5,1.3-29.6,6.6,2.4,12.4,4.6,18.3,6.7,8.1,2.8,15.3-.4,18.5-8.3,7.2-18.1,14.3-36.2,21.3-54.3,2.5-6.6.4-12.5-5.2-15.2-5.9-2.8-12-.7-15.4,5.6-6,11-11.9,22-17.8,33-1,1.8-1.9,3.5-3,5.4-7.4-3.6-14.4-7-21.4-10.6-7.1-3.6-14.6-5.5-22.6-5.3-9.3.2-18.6.2-27.9,0-2,0-4.6-1.1-5.8-2.6-12.5-15.5-24.9-31-37.1-46.7-5.5-7.1-10.6-14.6-16-21.8-3.8-5-9.8-6.3-14.6-3.3-4.8,3.1-6.3,9-3.4,14.6,14.3,27.1,27.7,54.7,46.6,79,6.1,7.8,8.4,16,8.2,25.7-.2,9.2.6,18.5,1,27.9v-.2ZM132.6,133c14.3,0,25.8-11.7,25.7-25.8,0-14.2-11.8-25.8-26-25.7-14.2,0-25.7,11.7-25.6,26,0,14.4,11.4,25.6,25.9,25.6h0ZM93.1,75.5c3.2-7.5,8.4-12.6,16.5-15.3-4.2-2.8-7.5-4.5-10-7s-4.3-5.9-7.3-10.3c-2.4,8.6-8.1,13.3-15.3,16.7,7.4,3.4,12.5,8.4,16,15.8h.1ZM175.2,87.5c2.2-5.2,5.8-8.7,11.4-10.6-2.9-2-5.2-3.1-6.9-4.8-1.8-1.8-3-4.1-5.1-7.1-1.7,6-5.6,9.2-10.6,11.6,5.1,2.3,8.7,5.8,11.1,10.9h.1Z"/>
  </g>
  <path class="cls-1" d="M95,214"/>
</svg>