<?xml version="1.0" encoding="UTF-8"?>
<svg id="_レイヤー_2" data-name="レイヤー 2" xmlns="http://www.w3.org/2000/svg" viewBox="0 0 273 273">
  <defs>
    <style>
      .cls-1 {
        fill: rgba(76, 181, 244, .55);
      }

      .cls-1, .cls-2, .cls-3 {
        stroke-width: 0px;
      }

      .cls-2 {
        fill: #76b4e3;
      }

      .cls-3 {
        fill: #fff;
      }
    </style>
  </defs>
  <g id="_タイトル" data-name="タイトル">
    <g>
      <g>
        <path class="cls-1" d="M56.58,212.68l16.42-16.2,7.21-6.48-18.39-18.39,1.59-6.16,4.99-9.57,5.32-5.43-12.51-12.51-.85-24.43,4.99-9.57,19.32-6.29-16.18-16.18,1.59-6.16,4.99-9.57,11.41-1.34,107.84,107.83,2.36-2.33,8.27-17.44-5.04-5.04-5.24-5.04-1.3-49.2,3.6-54.94,27.24,27.24,14.13-2.83,26.02,26.02C245,36.88,195.06,0,136.5,0,61.11,0,0,61.11,0,136.5c0,68.21,50.04,124.74,115.41,134.88l-58.7-58.7h-.14Z"/>
        <path class="cls-2" d="M273,136.5c0-16.83-3.05-32.94-8.62-47.82l-26.02-26.02-14.13,2.83-27.24-27.24-3.6,54.94,1.3,49.2,5.24,5.04,5.04,5.04-8.27,17.44-2.36,2.33-107.84-107.83-11.41,1.34-4.99,9.57-1.59,6.16,16.18,16.18-19.32,6.29-4.99,9.57.85,24.43,12.51,12.51-5.32,5.43-4.99,9.57-1.59,6.16,18.39,18.39-7.21,6.48-16.42,16.2h.14l58.7,58.7c6.88,1.07,13.92,1.62,21.09,1.62,75.39,0,136.5-61.11,136.5-136.5Z"/>
      </g>
      <g>
        <path class="cls-3" d="M65.84,173.18c-1.44,0-2.87-.52-4.01-1.57-2.41-2.22-2.57-5.97-.35-8.38l14.01-15.22s0-.01,0-.02l-1.26-22.6c-.18-3.27,2.32-6.07,5.59-6.25,3.27-.18,6.07,2.32,6.25,5.59l1.53,27.6s0,.01,0,.02l-17.4,18.91c-1.17,1.27-2.76,1.91-4.36,1.91Z"/>
        <path class="cls-3" d="M120.62,165.18c-2.11,0-4.15-1.13-5.22-3.11l-13.07-24.19s0,0,0,0l-14.43-7.43c-2.82-1.45-4.19-4.85-2.92-7.75,1.39-3.16,5.12-4.45,8.15-2.9l17.89,9.21s0,0,0,0l14.71,27.21c1.43,2.65.83,6.06-1.62,7.82-1.07.77-2.29,1.13-3.48,1.13Z"/>
        <path class="cls-3" d="M63.06,138.46c-2.56,0-4.71-1.99-4.87-4.58l-1.89-30.4s0-.01,0-.02l17.76-15.72c2.01-1.78,5.14-1.79,6.97.17s1.72,5.17-.33,6.99l-14.36,12.71s0,.01,0,.02l1.59,25.65c.17,2.69-1.88,5.01-4.57,5.18-.1,0-.21,0-.31,0Z"/>
        <path class="cls-3" d="M118.87,113.56c-.19,0-.39-.01-.59-.04l-30.69-3.69c-2.68-.32-4.59-2.75-4.27-5.43.32-2.68,2.75-4.59,5.43-4.26l30.69,3.69c2.68.32,4.59,2.75,4.27,5.43-.3,2.48-2.41,4.3-4.84,4.3Z"/>
        <path class="cls-3" d="M86.07,137.34c-5.58,0-10.48-4.07-11.36-9.75l-4.48-29.01c-.9-5.85,2.59-11.65,8.3-13.18,6.74-1.8,13.36,2.65,14.4,9.35l4.48,29c.92,5.94-2.7,11.81-8.54,13.25-.94.23-1.88.34-2.8.34Z"/>
        <rect class="cls-3" x="56.79" y="184.7" width="29.3" height="29.3" rx=".02" ry=".02"/>
        <rect class="cls-3" x="97.94" y="170.75" width="29.3" height="43.25" rx=".02" ry=".02"/>
        <rect class="cls-3" x="139.09" y="156.8" width="29.3" height="57.2" rx=".02" ry=".02"/>
        <rect class="cls-3" x="180.25" y="142.85" width="29.3" height="71.15" rx=".02" ry=".02"/>
        <rect class="cls-3" x="192.8" y="38.23" width="4.19" height="106.02" rx=".02" ry=".02"/>
        <path class="cls-3" d="M199.78,38.02v49.24s.02.03.04.02l38.54-24.62s.01-.03,0-.04l-38.54-24.62s-.04,0-.04.02Z"/>
        <circle class="cls-3" cx="76.32" cy="71.71" r="12.56"/>
      </g>
    </g>
  </g>
</svg>