<?xml version="1.0" encoding="UTF-8"?>
<svg id="_レイヤー_2" data-name="レイヤー 2" xmlns="http://www.w3.org/2000/svg" xmlns:xlink="http://www.w3.org/1999/xlink" viewBox="0 0 118.57 118.57">
  <defs>
    <style>
      .cls-1, .cls-2, .cls-3 {
        fill: #fff;
      }

      .cls-4 {
        clip-path: url(#clippath);
      }

      .cls-2 {
        stroke: #4d4d4d;
        stroke-miterlimit: 10;
        stroke-width: 10px;
      }

      .cls-3, .cls-5 {
        stroke-width: 0px;
      }

      .cls-5 {
        fill: #4d4d4d;
      }
    </style>
    <clipPath id="clippath">
      <circle class="cls-3" cx="59.29" cy="59.29" r="54.29"/>
    </clipPath>
  </defs>
  <g id="_レイヤー_1-2" data-name="レイヤー 1">
    <g>
      <circle class="cls-2" cx="59.29" cy="59.29" r="54.29"/>
      <g>
        <circle class="cls-1" cx="59.29" cy="59.29" r="54.29"/>
        <g class="cls-4">
          <g>
            <path class="cls-5" d="M88.31,54.95c-.73-.28-.9-.63-.9-1.37.03-5.88.02-11.76.01-17.63,0-3.19-2.18-5.34-5.37-5.36-2.07,0-4.15,0-6.22,0h-1.15c0-1.14,0-2.17,0-3.21,0-1.3-.41-1.91-1.28-1.9-.86.01-1.27.63-1.27,1.92,0,1.05,0,2.1,0,3.13h-37.03c0-.34,0-.62,0-.91,0-.96.02-1.92-.01-2.87-.02-.73-.51-1.23-1.18-1.27-.68-.04-1.27.45-1.34,1.19-.05.55-.02,1.12-.02,1.67,0,.73,0,1.46,0,2.23-2.62,0-5.12-.01-7.62,0-2.36.01-4.25,1.42-4.97,3.65-.05.17-.14.33-.21.5v49.16c1,3.18,3.24,4.21,6.45,4.19,13.08-.09,26.17-.03,39.25-.05.55,0,.92.17,1.32.54,5.44,5.11,11.85,6.98,19.11,5.23,8.79-2.11,14.99-9.66,15.55-18.62.55-8.82-4.75-17.01-13.14-20.25ZM22.33,35.6c.05-1.3,1.03-2.4,2.3-2.43,2.6-.06,5.2-.02,7.93-.02,0,.95,0,1.87,0,2.79,0,.37-.02.75.02,1.12.08.71.62,1.19,1.28,1.19.69,0,1.22-.52,1.24-1.29.03-1.01,0-2.02.01-3.03,0-.23.02-.47.03-.74h36.99c0,1.19,0,2.33,0,3.47,0,.99.51,1.59,1.29,1.59.79,0,1.25-.58,1.26-1.6,0-1.14,0-2.27,0-3.5,1.42,0,2.77,0,4.12,0,1.17,0,2.34-.02,3.51,0,1.38.03,2.5,1.03,2.54,2.37.05,2.15.01,4.3.01,6.51H22.32c0-1.21,0-2.42,0-3.63,0-.93-.02-1.86.01-2.79ZM55.13,85.5c-9.92,0-19.84,0-29.76,0-2.12,0-3.05-.94-3.05-3.07,0-12.24,0-24.47,0-36.71v-1.02h62.51v9.13c-1.65-.11-3.3-.21-5.05-.33,0-.72,0-1.48,0-2.24-.02-1.04-.48-1.51-1.52-1.51-2.39,0-4.79,0-7.18,0-1.01,0-1.52.47-1.5,1.44.03,1.85.11,3.71.14,5.56,0,.16-.16.36-.3.48-1.36,1.26-2.72,2.52-4.1,3.77-.15.14-.38.26-.58.26-2.58,0-5.16-.02-7.74-.02-.99,0-1.46.48-1.47,1.47-.01,1.57-.01,3.14,0,4.71,0,.99.48,1.46,1.47,1.47,1.4.01,2.81,0,4.21,0-.21,1.3-.4,2.53-.61,3.83-1.16,0-2.33,0-3.49,0-1.14,0-1.59.45-1.59,1.6,0,1.52,0,3.03,0,4.55,0,1.04.47,1.5,1.52,1.51,1.36.01,2.71-.01,4.07.02.22,0,.55.13.63.29.76,1.57,1.47,3.16,2.23,4.81h-8.83ZM81.03,91.89c-9.81.01-17.84-8.03-17.85-17.88-.01-9.79,8.01-17.85,17.78-17.88,9.87-.02,17.95,7.97,17.97,17.76.02,9.96-7.96,17.98-17.89,17.99Z"/>
            <path class="cls-5" d="M42.99,57.4c2.39,0,4.79,0,7.18,0,1.04,0,1.5-.48,1.51-1.52.01-1.54.01-3.09,0-4.63,0-1.04-.48-1.5-1.52-1.51-1.2-.01-2.39,0-3.59,0-1.2,0-2.39,0-3.59,0-1.04.01-1.5.47-1.51,1.52-.01,1.54-.01,3.09,0,4.63,0,1.04.47,1.5,1.52,1.51Z"/>
            <path class="cls-5" d="M57.02,57.4c2.39.01,4.79,0,7.18,0,1.04,0,1.51-.47,1.52-1.51.01-1.54.01-3.09,0-4.63,0-1.04-.47-1.51-1.51-1.52-1.2-.01-2.39,0-3.59,0-1.2,0-2.39,0-3.59,0-1.05,0-1.51.47-1.52,1.51-.01,1.54-.01,3.09,0,4.63,0,1.05.47,1.51,1.51,1.52Z"/>
            <path class="cls-5" d="M28.89,68.9c1.2.01,2.39,0,3.59,0,1.22,0,2.45,0,3.67,0,1,0,1.47-.48,1.48-1.46.01-1.57.01-3.14,0-4.71,0-1-.48-1.48-1.46-1.48-2.42-.01-4.84-.01-7.26,0-.99,0-1.47.48-1.48,1.47-.01,1.57-.01,3.14,0,4.71,0,1,.48,1.47,1.46,1.48Z"/>
            <path class="cls-5" d="M50.2,61.24c-2.42-.01-4.84-.01-7.26,0-.99,0-1.47.48-1.47,1.47-.01,1.57-.01,3.14,0,4.71,0,.99.48,1.46,1.47,1.47,1.22.01,2.45,0,3.67,0,1.2,0,2.39.01,3.59,0,.99-.01,1.47-.48,1.47-1.47.01-1.57.01-3.14,0-4.71,0-.99-.48-1.47-1.47-1.47Z"/>
            <path class="cls-5" d="M36.19,72.74c-2.45-.01-4.89-.01-7.34,0-.94,0-1.41.5-1.42,1.44-.02,1.57-.01,3.14,0,4.71,0,1.04.48,1.5,1.52,1.51,1.2,0,2.39,0,3.59,0,1.2,0,2.39,0,3.59,0,1,0,1.49-.47,1.5-1.44.02-1.6.02-3.19,0-4.79-.01-.94-.5-1.42-1.44-1.42Z"/>
            <path class="cls-5" d="M50.17,72.73c-1.2-.01-2.39,0-3.59,0-1.2,0-2.39,0-3.59,0-1.05,0-1.52.47-1.53,1.51-.01,1.54,0,3.09,0,4.63,0,1.05.47,1.52,1.5,1.52,2.39,0,4.79,0,7.18,0,1.05,0,1.52-.47,1.53-1.5.01-1.54.01-3.09,0-4.63,0-1.05-.47-1.51-1.5-1.53Z"/>
            <path class="cls-5" d="M93.36,78.81c-.23-.21-.54-.34-.82-.48-3.16-1.58-6.31-3.18-9.48-4.73-.55-.27-.76-.56-.76-1.19.04-3.62.02-7.23.02-10.85,0-1-.48-1.59-1.27-1.59-.79,0-1.28.59-1.28,1.59,0,2.02,0,4.04,0,6.06,0,1.99.03,3.99-.01,5.98-.02.86.32,1.36,1.09,1.74,3.55,1.74,7.08,3.53,10.62,5.3.24.12.47.25.73.32.61.17,1.12-.04,1.43-.58.34-.58.24-1.14-.26-1.58Z"/>
          </g>
        </g>
      </g>
    </g>
  </g>
</svg>