<?xml version="1.0" encoding="UTF-8"?>
<svg id="_レイヤー_2" data-name="レイヤー 2" xmlns="http://www.w3.org/2000/svg" viewBox="0 0 273 273">
  <defs>
    <style>
      .cls-1 {
        fill: rgba(76, 181, 244, .55);
      }

      .cls-1, .cls-2, .cls-3 {
        stroke-width: 0px;
      }

      .cls-2 {
        fill: #76b4e3;
      }

      .cls-3 {
        fill: #fff;
      }
    </style>
  </defs>
  <g id="_レイヤー_1-2" data-name="レイヤー 1">
    <g>
      <g>
        <path class="cls-1" d="M94.96,214l72.33-35.06-53.54-53.54h-.17l42.32-20.52-6.25-16.88,55.37,55.37,19.02-30.13,46.92,46.92c1.34-7.68,2.05-15.59,2.05-23.65C273,61.11,211.89,0,136.5,0S0,61.11,0,136.5s61.11,136.5,136.5,136.5c5.69,0,11.3-.35,16.81-1.03l-57.97-57.97h-.38Z"/>
        <path class="cls-2" d="M270.95,160.15l-46.92-46.92-19.02,30.13-55.37-55.37,6.25,16.88-42.32,20.52h.17l53.54,53.54-72.33,35.06h.38l57.97,57.97c59.65-7.33,107.39-53.13,117.64-111.82Z"/>
      </g>
      <g id="VUIRtf">
        <path class="cls-3" d="M94.96,214h74.85c.45-9.93.88-19.55,1.34-29.63,6.59,2.42,12.41,4.63,18.29,6.68,8.08,2.81,15.32-.37,18.48-8.31,7.2-18.06,14.28-36.17,21.32-54.29,2.55-6.56.4-12.5-5.22-15.21-5.87-2.83-11.97-.71-15.41,5.57-5.99,10.95-11.86,21.97-17.78,32.96-.95,1.76-1.93,3.51-2.96,5.38-7.36-3.63-14.41-7.03-21.39-10.58-7.13-3.62-14.59-5.48-22.63-5.33-9.3.17-18.6.19-27.89-.08-1.99-.06-4.59-1.13-5.81-2.63-12.51-15.46-24.88-31.03-37.1-46.72-5.53-7.1-10.57-14.58-15.95-21.8-3.76-5.04-9.79-6.3-14.59-3.27-4.84,3.05-6.32,8.97-3.35,14.59,14.28,27.08,27.66,54.74,46.59,79.04,6.07,7.79,8.45,16.02,8.23,25.7-.21,9.24.62,18.5,1,27.94ZM132.55,132.95c14.28-.07,25.81-11.66,25.72-25.83-.1-14.15-11.84-25.76-25.98-25.69-14.22.08-25.66,11.68-25.6,25.96.07,14.38,11.45,25.62,25.86,25.55ZM93.11,75.52c3.24-7.53,8.43-12.59,16.5-15.29-4.16-2.84-7.48-4.48-9.95-6.96-2.56-2.56-4.3-5.94-7.31-10.28-2.44,8.62-8.08,13.25-15.28,16.72,7.43,3.37,12.54,8.38,16.04,15.8ZM175.17,87.52c2.24-5.21,5.84-8.72,11.43-10.58-2.88-1.96-5.18-3.1-6.89-4.82-1.77-1.77-2.97-4.11-5.06-7.12-1.69,5.97-5.59,9.18-10.58,11.58,5.14,2.34,8.69,5.8,11.11,10.94Z"/>
      </g>
    </g>
  </g>
</svg>