<?xml version="1.0" encoding="UTF-8"?>
<svg id="_レイヤー_2" data-name="レイヤー 2" xmlns="http://www.w3.org/2000/svg" viewBox="0 0 581.95 570.44">
  <defs>
    <style>
      .cls-1 {
        fill: #de2220;
      }

      .cls-1, .cls-2, .cls-3, .cls-4, .cls-5, .cls-6 {
        stroke-width: 0px;
      }

      .cls-2 {
        fill: rgba(255, 123, 169, .55);
      }

      .cls-3 {
        fill: #000;
      }

      .cls-4 {
        fill: #dfdfdf;
      }

      .cls-7 {
        stroke: #fff;
        stroke-linecap: round;
        stroke-linejoin: round;
        stroke-width: 10.83px;
      }

      .cls-7, .cls-8 {
        fill: none;
      }

      .cls-8 {
        stroke: #000;
        stroke-miterlimit: 10;
        stroke-width: .81px;
      }

      .cls-5 {
        fill: gray;
      }

      .cls-6 {
        fill: #4d4d4d;
      }
    </style>
  </defs>
  <g id="_レイヤー_1-2" data-name="レイヤー 1">
    <g>
      <g>
        <rect class="cls-5" x="426.97" y="64.36" width="77.62" height="468.71"/>
        <rect class="cls-4" x="283.23" y="79.76" width="77.62" height="453.31"/>
        <rect class="cls-3" x="139.49" y="114.65" width="77.62" height="418.42"/>
      </g>
      <rect class="cls-2" x="426.97" y="64.36" width="77.62" height="468.71"/>
      <rect class="cls-2" x="283.23" y="79.76" width="77.62" height="453.31"/>
      <rect class="cls-2" x="139.49" y="114.65" width="77.62" height="418.42"/>
      <g>
        <path class="cls-6" d="M133.58,95.86c-1.6,0-3.02-.19-4.25-.58-1.23-.39-2.32-.91-3.26-1.56-.94-.65-1.76-1.35-2.45-2.1l2.32-3.07c.91.89,1.95,1.66,3.11,2.32,1.16.66,2.53,1,4.11,1,1.16,0,2.17-.19,3.03-.58.86-.39,1.53-.94,2.01-1.66.48-.72.73-1.58.73-2.57,0-1.11-.27-2.05-.81-2.84-.54-.79-1.47-1.4-2.78-1.85-1.31-.44-3.12-.66-5.42-.66v-3.57c2.02,0,3.6-.23,4.75-.68,1.15-.46,1.98-1.07,2.49-1.83.51-.76.77-1.61.77-2.55,0-1.33-.42-2.37-1.24-3.13-.83-.76-1.98-1.14-3.44-1.14-1.16,0-2.25.27-3.26.81-1.01.54-1.96,1.24-2.84,2.1l-2.49-2.99c1.22-1.08,2.54-1.97,3.98-2.68,1.44-.71,3.03-1.06,4.77-1.06s3.44.3,4.85.91c1.41.61,2.52,1.49,3.32,2.63.8,1.15,1.2,2.54,1.2,4.17,0,1.72-.48,3.15-1.43,4.29-.95,1.15-2.23,2.03-3.84,2.64v.21c1.16.28,2.22.75,3.17,1.41.95.66,1.71,1.5,2.26,2.51.55,1.01.83,2.19.83,3.55,0,1.8-.46,3.33-1.39,4.61-.93,1.27-2.17,2.25-3.71,2.93-1.55.68-3.25,1.02-5.1,1.02Z"/>
        <path class="cls-6" d="M149.39,103.58l-1.08-2.7c1.44-.61,2.56-1.42,3.36-2.43.8-1.01,1.19-2.14,1.16-3.38l-.33-3.82,1.99,3.15c-.28.3-.6.52-.95.64-.36.12-.75.19-1.16.19-.83,0-1.57-.27-2.22-.81-.65-.54-.98-1.29-.98-2.26s.32-1.69.98-2.24c.65-.55,1.43-.83,2.34-.83,1.19,0,2.1.46,2.74,1.37s.95,2.17.95,3.78c0,2.18-.6,4.09-1.81,5.71-1.2,1.62-2.87,2.83-5,3.63Z"/>
        <path class="cls-6" d="M162,95.28v-3.94h6.72v-20.42h-5.48v-3.03c1.44-.28,2.69-.6,3.76-.97,1.06-.37,2.04-.82,2.93-1.35h3.61v25.77h5.93v3.94h-17.47Z"/>
        <path class="cls-6" d="M190.14,95.28c.14-2.68.38-5.16.73-7.43.35-2.27.84-4.41,1.49-6.43.65-2.02,1.48-3.99,2.49-5.91,1.01-1.92,2.23-3.88,3.67-5.87h-14.32v-4.07h19.63v2.95c-1.74,2.19-3.16,4.27-4.25,6.25-1.09,1.98-1.95,4-2.57,6.06s-1.08,4.26-1.37,6.6-.49,4.96-.6,7.86h-4.9Z"/>
        <path class="cls-6" d="M217.65,95.86c-1.91,0-3.61-.35-5.1-1.06-1.49-.71-2.68-1.67-3.55-2.9-.87-1.23-1.31-2.63-1.31-4.21,0-1.27.26-2.4.79-3.38.53-.98,1.2-1.85,2.03-2.59s1.7-1.36,2.61-1.83v-.17c-1.11-.8-2.06-1.77-2.86-2.9-.8-1.13-1.2-2.48-1.2-4.03s.38-2.95,1.14-4.13c.76-1.17,1.8-2.08,3.11-2.72,1.31-.64,2.81-.95,4.5-.95,1.77,0,3.29.34,4.56,1.02,1.27.68,2.26,1.61,2.97,2.8s1.06,2.57,1.06,4.15c0,1.02-.21,1.98-.62,2.86-.42.89-.93,1.67-1.54,2.37-.61.69-1.23,1.27-1.87,1.74v.17c.91.53,1.76,1.13,2.55,1.83s1.42,1.51,1.89,2.47c.47.95.71,2.1.71,3.42,0,1.49-.41,2.85-1.22,4.07-.82,1.22-1.96,2.19-3.44,2.9-1.48.72-3.22,1.08-5.21,1.08ZM217.77,92.37c1.02,0,1.93-.19,2.72-.58s1.4-.93,1.85-1.64c.44-.71.66-1.54.66-2.51,0-.86-.19-1.6-.58-2.22-.39-.62-.93-1.17-1.62-1.64-.69-.47-1.49-.91-2.39-1.31-.9-.4-1.87-.79-2.93-1.18-1.05.69-1.91,1.54-2.57,2.53-.66,1-1,2.12-1,3.36,0,1.02.26,1.92.77,2.7.51.77,1.21,1.38,2.1,1.83.88.44,1.88.66,2.99.66ZM219.68,78.72c.88-.83,1.56-1.7,2.01-2.61.46-.91.69-1.87.69-2.86,0-.91-.18-1.73-.54-2.45-.36-.72-.89-1.29-1.6-1.7-.71-.42-1.56-.62-2.55-.62-1.24,0-2.28.38-3.11,1.14-.83.76-1.25,1.82-1.25,3.17,0,1.08.3,1.97.89,2.68.59.71,1.37,1.31,2.32,1.83.95.51,2,.99,3.13,1.43Z"/>
      </g>
      <g>
        <path class="cls-6" d="M278.61,64.94c-1.6,0-3.02-.19-4.25-.58-1.23-.39-2.32-.91-3.26-1.56-.94-.65-1.76-1.35-2.45-2.1l2.32-3.07c.91.89,1.95,1.66,3.11,2.32,1.16.66,2.53,1,4.11,1,1.16,0,2.17-.19,3.03-.58.86-.39,1.53-.94,2.01-1.66.48-.72.73-1.58.73-2.57,0-1.11-.27-2.05-.81-2.84-.54-.79-1.47-1.4-2.78-1.85-1.31-.44-3.12-.66-5.42-.66v-3.57c2.02,0,3.6-.23,4.75-.68,1.15-.46,1.98-1.07,2.49-1.83.51-.76.77-1.61.77-2.55,0-1.33-.42-2.37-1.24-3.13-.83-.76-1.98-1.14-3.44-1.14-1.16,0-2.25.27-3.26.81-1.01.54-1.96,1.24-2.84,2.1l-2.49-2.99c1.22-1.08,2.54-1.97,3.98-2.68,1.44-.71,3.03-1.06,4.77-1.06s3.44.3,4.85.91c1.41.61,2.52,1.49,3.32,2.63.8,1.15,1.2,2.54,1.2,4.17,0,1.72-.48,3.15-1.43,4.29-.95,1.15-2.23,2.03-3.84,2.64v.21c1.16.28,2.22.75,3.17,1.41.95.66,1.71,1.5,2.26,2.51.55,1.01.83,2.19.83,3.55,0,1.8-.46,3.33-1.39,4.61-.93,1.27-2.17,2.25-3.71,2.93-1.55.68-3.25,1.02-5.1,1.02Z"/>
        <path class="cls-6" d="M294.42,72.66l-1.08-2.7c1.44-.61,2.56-1.42,3.36-2.43.8-1.01,1.19-2.14,1.16-3.38l-.33-3.82,1.99,3.15c-.28.3-.6.52-.95.64-.36.12-.75.19-1.16.19-.83,0-1.57-.27-2.22-.81-.65-.54-.98-1.29-.98-2.26s.32-1.69.98-2.24c.65-.55,1.43-.83,2.34-.83,1.19,0,2.1.46,2.74,1.37s.95,2.17.95,3.78c0,2.18-.6,4.09-1.81,5.71-1.2,1.62-2.87,2.83-5,3.63Z"/>
        <path class="cls-6" d="M317.57,64.36v-19.09c0-.83.03-1.83.08-3.01.05-1.18.1-2.16.12-2.97h-.17c-.39.72-.78,1.45-1.18,2.18-.4.73-.82,1.49-1.27,2.26l-5.98,9.05h16.72v3.73h-21.58v-3.24l12.16-18.63h5.56v29.71h-4.48Z"/>
        <path class="cls-6" d="M341.22,64.36v-19.09c0-.83.03-1.83.08-3.01.05-1.18.1-2.16.12-2.97h-.17c-.39.72-.78,1.45-1.18,2.18-.4.73-.82,1.49-1.27,2.26l-5.98,9.05h16.72v3.73h-21.58v-3.24l12.16-18.63h5.56v29.71h-4.48Z"/>
        <path class="cls-6" d="M361.93,64.94c-1.6,0-3.02-.19-4.25-.58-1.23-.39-2.32-.91-3.26-1.56-.94-.65-1.76-1.35-2.45-2.1l2.32-3.07c.91.89,1.95,1.66,3.11,2.32,1.16.66,2.53,1,4.11,1,1.16,0,2.17-.19,3.03-.58.86-.39,1.53-.94,2.01-1.66.48-.72.73-1.58.73-2.57,0-1.11-.27-2.05-.81-2.84-.54-.79-1.47-1.4-2.78-1.85-1.31-.44-3.12-.66-5.42-.66v-3.57c2.02,0,3.6-.23,4.75-.68,1.15-.46,1.98-1.07,2.49-1.83.51-.76.77-1.61.77-2.55,0-1.33-.42-2.37-1.24-3.13-.83-.76-1.98-1.14-3.44-1.14-1.16,0-2.25.27-3.26.81-1.01.54-1.96,1.24-2.84,2.1l-2.49-2.99c1.22-1.08,2.54-1.97,3.98-2.68,1.44-.71,3.03-1.06,4.77-1.06s3.44.3,4.85.91c1.41.61,2.52,1.49,3.32,2.63.8,1.15,1.2,2.54,1.2,4.17,0,1.72-.48,3.15-1.43,4.29-.95,1.15-2.23,2.03-3.84,2.64v.21c1.16.28,2.22.75,3.17,1.41.95.66,1.71,1.5,2.26,2.51.55,1.01.83,2.19.83,3.55,0,1.8-.46,3.33-1.39,4.61-.93,1.27-2.17,2.25-3.71,2.93-1.55.68-3.25,1.02-5.1,1.02Z"/>
      </g>
      <g>
        <path class="cls-6" d="M423.64,48.54c-1.6,0-3.02-.19-4.25-.58-1.23-.39-2.32-.91-3.26-1.56-.94-.65-1.76-1.35-2.45-2.1l2.32-3.07c.91.89,1.95,1.66,3.11,2.32,1.16.66,2.53,1,4.11,1,1.16,0,2.17-.19,3.03-.58.86-.39,1.53-.94,2.01-1.66.48-.72.73-1.58.73-2.57,0-1.11-.27-2.05-.81-2.84-.54-.79-1.47-1.4-2.78-1.85-1.31-.44-3.12-.66-5.42-.66v-3.57c2.02,0,3.6-.23,4.75-.68,1.15-.46,1.98-1.07,2.49-1.83.51-.76.77-1.61.77-2.55,0-1.33-.42-2.37-1.24-3.13-.83-.76-1.98-1.14-3.44-1.14-1.16,0-2.25.27-3.26.81-1.01.54-1.96,1.24-2.84,2.1l-2.49-2.99c1.22-1.08,2.54-1.97,3.98-2.68,1.44-.71,3.03-1.06,4.77-1.06s3.44.3,4.85.91c1.41.61,2.52,1.49,3.32,2.63.8,1.15,1.2,2.54,1.2,4.17,0,1.72-.48,3.15-1.43,4.29-.95,1.15-2.23,2.03-3.84,2.64v.21c1.16.28,2.22.75,3.17,1.41.95.66,1.71,1.5,2.26,2.51.55,1.01.83,2.19.83,3.55,0,1.8-.46,3.33-1.39,4.61-.93,1.27-2.17,2.25-3.71,2.93-1.55.68-3.25,1.02-5.1,1.02Z"/>
        <path class="cls-6" d="M439.45,56.26l-1.08-2.7c1.44-.61,2.56-1.42,3.36-2.43.8-1.01,1.19-2.14,1.16-3.38l-.33-3.82,1.99,3.15c-.28.3-.6.52-.95.64-.36.12-.75.19-1.16.19-.83,0-1.57-.27-2.22-.81-.65-.54-.98-1.29-.98-2.26s.32-1.69.98-2.24c.65-.55,1.43-.83,2.34-.83,1.19,0,2.1.46,2.74,1.37s.95,2.17.95,3.78c0,2.18-.6,4.09-1.81,5.71-1.2,1.62-2.87,2.83-5,3.63Z"/>
        <path class="cls-6" d="M459.66,48.54c-1.58,0-2.99-.19-4.23-.58-1.24-.39-2.34-.9-3.28-1.54-.94-.64-1.77-1.3-2.49-1.99l2.28-3.11c.58.58,1.22,1.11,1.91,1.6.69.48,1.47.88,2.34,1.18.87.3,1.85.46,2.93.46,1.13,0,2.16-.24,3.07-.73.91-.48,1.63-1.18,2.16-2.1.52-.91.79-1.99.79-3.24,0-1.88-.53-3.35-1.6-4.4-1.07-1.05-2.47-1.58-4.21-1.58-.97,0-1.8.15-2.49.44-.69.29-1.48.73-2.37,1.31l-2.37-1.49.91-14.52h15.48v4.07h-11.33l-.71,7.8c.66-.33,1.33-.59,1.99-.77.66-.18,1.4-.27,2.2-.27,1.72,0,3.28.33,4.69.98,1.41.65,2.53,1.66,3.36,3.03.83,1.37,1.25,3.12,1.25,5.25s-.48,4-1.45,5.52c-.97,1.52-2.23,2.68-3.8,3.49-1.56.8-3.24,1.2-5.04,1.2Z"/>
        <path class="cls-6" d="M484.93,48.54c-1.47,0-2.84-.3-4.13-.89-1.29-.59-2.41-1.49-3.36-2.68-.95-1.19-1.71-2.69-2.26-4.5-.55-1.81-.83-3.95-.83-6.41,0-2.93.31-5.43.93-7.49.62-2.06,1.47-3.75,2.55-5.08,1.08-1.33,2.31-2.3,3.69-2.9s2.84-.91,4.36-.91c1.71,0,3.2.32,4.46.95,1.26.64,2.32,1.41,3.17,2.32l-2.61,2.9c-.55-.66-1.26-1.2-2.12-1.62-.86-.42-1.76-.62-2.7-.62-1.33,0-2.55.39-3.65,1.16-1.11.78-1.99,2.07-2.66,3.88-.66,1.81-1,4.28-1,7.41,0,2.46.25,4.49.75,6.08.5,1.59,1.2,2.77,2.12,3.55.91.78,1.98,1.16,3.2,1.16.89,0,1.69-.24,2.41-.73.72-.48,1.29-1.17,1.72-2.07.43-.9.64-1.97.64-3.22s-.2-2.25-.6-3.09c-.4-.84-.98-1.49-1.72-1.93-.75-.44-1.66-.66-2.74-.66-.89,0-1.85.29-2.88.87-1.04.58-2.01,1.59-2.93,3.03l-.21-3.49c.61-.8,1.3-1.49,2.07-2.07.77-.58,1.58-1.03,2.43-1.35.84-.32,1.64-.48,2.39-.48,1.71,0,3.22.34,4.52,1.02,1.3.68,2.31,1.7,3.03,3.05.72,1.36,1.08,3.06,1.08,5.1s-.42,3.67-1.27,5.1c-.84,1.44-1.95,2.57-3.32,3.38-1.37.82-2.88,1.22-4.54,1.22Z"/>
        <path class="cls-6" d="M507.71,48.54c-2.05,0-3.81-.6-5.29-1.81-1.48-1.2-2.62-2.96-3.42-5.27-.8-2.31-1.2-5.14-1.2-8.49s.4-6.15,1.2-8.42c.8-2.27,1.94-3.98,3.42-5.15,1.48-1.16,3.24-1.74,5.29-1.74s3.76.58,5.23,1.74c1.47,1.16,2.6,2.88,3.4,5.15.8,2.27,1.2,5.08,1.2,8.42s-.4,6.18-1.2,8.49c-.8,2.31-1.94,4.07-3.4,5.27-1.47,1.2-3.21,1.81-5.23,1.81ZM507.71,44.72c1.02,0,1.94-.39,2.74-1.16.8-.77,1.42-2.02,1.87-3.73.44-1.72.66-4,.66-6.85s-.22-5.11-.66-6.78c-.44-1.67-1.07-2.88-1.87-3.63-.8-.75-1.72-1.12-2.74-1.12s-1.94.37-2.74,1.12-1.43,1.96-1.89,3.63-.69,3.94-.69,6.78.23,5.13.69,6.85c.46,1.71,1.09,2.96,1.89,3.73s1.72,1.16,2.74,1.16Z"/>
      </g>
      <g>
        <line class="cls-8" x1="62.53" y1="533.07" x2="581.55" y2="533.07"/>
        <g>
          <line class="cls-8" x1="62.53" y1="533.07" x2="62.53" y2="519.9"/>
          <line class="cls-8" x1="581.55" y1="533.07" x2="581.55" y2="519.9"/>
        </g>
      </g>
      <g>
        <g>
          <path class="cls-6" d="M48.02,543.39c-1.04,0-1.92-.33-2.65-.98-.73-.65-1.29-1.61-1.68-2.86-.39-1.26-.58-2.78-.58-4.58s.19-3.31.58-4.55c.39-1.24.95-2.18,1.68-2.82.73-.64,1.61-.96,2.65-.96s1.92.32,2.65.96c.73.64,1.29,1.58,1.67,2.82.38,1.24.57,2.76.57,4.55s-.19,3.32-.57,4.58c-.38,1.25-.94,2.21-1.67,2.86-.73.65-1.61.98-2.65.98ZM48.02,542.25c.71,0,1.34-.27,1.88-.81.54-.54.95-1.35,1.24-2.43s.43-2.43.43-4.04-.14-2.97-.43-4.04c-.29-1.06-.7-1.86-1.24-2.38-.54-.52-1.17-.79-1.88-.79s-1.34.26-1.88.79c-.54.53-.96,1.32-1.25,2.38-.3,1.07-.45,2.41-.45,4.04s.15,2.96.45,4.04c.3,1.08.71,1.89,1.25,2.43s1.17.81,1.88.81Z"/>
          <g>
            <path class="cls-6" d="M23.26,477.56c-.85,0-1.6-.11-2.24-.33s-1.19-.49-1.65-.82c-.46-.33-.88-.67-1.24-1.02l.75-.94c.32.33.68.65,1.07.95.4.3.86.54,1.39.72.53.18,1.16.27,1.87.27s1.35-.17,1.94-.51c.59-.34,1.06-.83,1.42-1.46.35-.63.52-1.37.52-2.2,0-1.26-.35-2.25-1.04-2.97s-1.62-1.07-2.77-1.07c-.59,0-1.11.1-1.56.3-.45.2-.91.46-1.38.78l-.87-.55.57-7.6h7.6v1.19h-6.41l-.48,5.57c.4-.23.82-.41,1.27-.56s.95-.22,1.52-.22c.91,0,1.75.18,2.5.54.75.36,1.35.91,1.79,1.67.44.75.66,1.72.66,2.89s-.25,2.12-.76,2.92-1.16,1.42-1.95,1.84c-.79.42-1.63.63-2.51.63Z"/>
            <path class="cls-6" d="M35.81,477.56c-1.04,0-1.92-.33-2.65-.98-.73-.65-1.29-1.61-1.68-2.86-.39-1.26-.58-2.78-.58-4.58s.19-3.31.58-4.55c.39-1.24.95-2.18,1.68-2.82.73-.64,1.61-.96,2.65-.96s1.92.32,2.65.96c.73.64,1.29,1.58,1.67,2.82.38,1.24.57,2.76.57,4.55s-.19,3.32-.57,4.58c-.38,1.25-.94,2.21-1.67,2.86-.73.65-1.61.98-2.65.98ZM35.81,476.42c.71,0,1.34-.27,1.88-.81.54-.54.95-1.35,1.24-2.43s.43-2.43.43-4.04-.14-2.97-.43-4.04c-.29-1.06-.7-1.86-1.24-2.38-.54-.52-1.17-.79-1.88-.79s-1.34.26-1.88.79c-.54.53-.96,1.32-1.25,2.38-.3,1.07-.45,2.41-.45,4.04s.15,2.96.45,4.04c.3,1.08.71,1.89,1.25,2.43s1.17.81,1.88.81Z"/>
            <path class="cls-6" d="M48.02,477.56c-1.04,0-1.92-.33-2.65-.98-.73-.65-1.29-1.61-1.68-2.86-.39-1.26-.58-2.78-.58-4.58s.19-3.31.58-4.55c.39-1.24.95-2.18,1.68-2.82.73-.64,1.61-.96,2.65-.96s1.92.32,2.65.96c.73.64,1.29,1.58,1.67,2.82.38,1.24.57,2.76.57,4.55s-.19,3.32-.57,4.58c-.38,1.25-.94,2.21-1.67,2.86-.73.65-1.61.98-2.65.98ZM48.02,476.42c.71,0,1.34-.27,1.88-.81.54-.54.95-1.35,1.24-2.43s.43-2.43.43-4.04-.14-2.97-.43-4.04c-.29-1.06-.7-1.86-1.24-2.38-.54-.52-1.17-.79-1.88-.79s-1.34.26-1.88.79c-.54.53-.96,1.32-1.25,2.38-.3,1.07-.45,2.41-.45,4.04s.15,2.96.45,4.04c.3,1.08.71,1.89,1.25,2.43s1.17.81,1.88.81Z"/>
          </g>
          <g>
            <path class="cls-6" d="M1.67,411.44v-1.16h3.79v-13.03h-2.94v-.89c.68-.12,1.29-.27,1.81-.46.52-.18.98-.39,1.38-.62h1.07v14.99h3.47v1.16H1.67Z"/>
            <path class="cls-6" d="M13.37,415.45l-.39-.87c.61-.32,1.1-.75,1.46-1.28.37-.53.55-1.16.55-1.87l-.3-1.58.91,1.26c-.12.17-.26.28-.41.34-.15.06-.31.09-.48.09-.32,0-.59-.1-.82-.31-.23-.21-.34-.49-.34-.86s.12-.65.35-.84c.24-.2.51-.3.83-.3.43,0,.76.18,1,.53.24.35.37.82.37,1.42,0,.96-.25,1.81-.76,2.54-.51.74-1.17,1.31-1.97,1.72Z"/>
            <path class="cls-6" d="M23.6,411.73c-1.04,0-1.92-.33-2.65-.98-.73-.65-1.29-1.61-1.68-2.86-.39-1.26-.58-2.78-.58-4.58s.19-3.31.58-4.55c.39-1.24.95-2.18,1.68-2.82.73-.64,1.61-.96,2.65-.96s1.92.32,2.65.96c.73.64,1.29,1.58,1.67,2.82.38,1.24.57,2.76.57,4.55s-.19,3.32-.57,4.58c-.38,1.25-.94,2.21-1.67,2.86-.73.65-1.61.98-2.65.98ZM23.6,410.59c.71,0,1.34-.27,1.88-.81.54-.54.95-1.35,1.24-2.43s.43-2.43.43-4.04-.14-2.97-.43-4.04c-.29-1.06-.7-1.86-1.24-2.38-.54-.52-1.17-.79-1.88-.79s-1.34.26-1.88.79c-.54.53-.96,1.32-1.25,2.38-.3,1.07-.45,2.41-.45,4.04s.15,2.96.45,4.04c.3,1.08.71,1.89,1.25,2.43s1.17.81,1.88.81Z"/>
            <path class="cls-6" d="M35.81,411.73c-1.04,0-1.92-.33-2.65-.98-.73-.65-1.29-1.61-1.68-2.86-.39-1.26-.58-2.78-.58-4.58s.19-3.31.58-4.55c.39-1.24.95-2.18,1.68-2.82.73-.64,1.61-.96,2.65-.96s1.92.32,2.65.96c.73.64,1.29,1.58,1.67,2.82.38,1.24.57,2.76.57,4.55s-.19,3.32-.57,4.58c-.38,1.25-.94,2.21-1.67,2.86-.73.65-1.61.98-2.65.98ZM35.81,410.59c.71,0,1.34-.27,1.88-.81.54-.54.95-1.35,1.24-2.43s.43-2.43.43-4.04-.14-2.97-.43-4.04c-.29-1.06-.7-1.86-1.24-2.38-.54-.52-1.17-.79-1.88-.79s-1.34.26-1.88.79c-.54.53-.96,1.32-1.25,2.38-.3,1.07-.45,2.41-.45,4.04s.15,2.96.45,4.04c.3,1.08.71,1.89,1.25,2.43s1.17.81,1.88.81Z"/>
            <path class="cls-6" d="M48.02,411.73c-1.04,0-1.92-.33-2.65-.98-.73-.65-1.29-1.61-1.68-2.86-.39-1.26-.58-2.78-.58-4.58s.19-3.31.58-4.55c.39-1.24.95-2.18,1.68-2.82.73-.64,1.61-.96,2.65-.96s1.92.32,2.65.96c.73.64,1.29,1.58,1.67,2.82.38,1.24.57,2.76.57,4.55s-.19,3.32-.57,4.58c-.38,1.25-.94,2.21-1.67,2.86-.73.65-1.61.98-2.65.98ZM48.02,410.59c.71,0,1.34-.27,1.88-.81.54-.54.95-1.35,1.24-2.43s.43-2.43.43-4.04-.14-2.97-.43-4.04c-.29-1.06-.7-1.86-1.24-2.38-.54-.52-1.17-.79-1.88-.79s-1.34.26-1.88.79c-.54.53-.96,1.32-1.25,2.38-.3,1.07-.45,2.41-.45,4.04s.15,2.96.45,4.04c.3,1.08.71,1.89,1.25,2.43s1.17.81,1.88.81Z"/>
          </g>
          <g>
            <path class="cls-6" d="M1.67,345.61v-1.16h3.79v-13.03h-2.94v-.89c.68-.12,1.29-.27,1.81-.46.52-.18.98-.39,1.38-.62h1.07v14.99h3.47v1.16H1.67Z"/>
            <path class="cls-6" d="M13.37,349.62l-.39-.87c.61-.32,1.1-.75,1.46-1.28.37-.53.55-1.16.55-1.87l-.3-1.58.91,1.26c-.12.17-.26.28-.41.34-.15.06-.31.09-.48.09-.32,0-.59-.1-.82-.31-.23-.21-.34-.49-.34-.86s.12-.65.35-.84c.24-.2.51-.3.83-.3.43,0,.76.18,1,.53.24.35.37.82.37,1.42,0,.96-.25,1.81-.76,2.54-.51.74-1.17,1.31-1.97,1.72Z"/>
            <path class="cls-6" d="M23.26,345.9c-.85,0-1.6-.11-2.24-.33s-1.19-.49-1.65-.82c-.46-.33-.88-.67-1.24-1.02l.75-.94c.32.33.68.65,1.07.95.4.3.86.54,1.39.72.53.18,1.16.27,1.87.27s1.35-.17,1.94-.51c.59-.34,1.06-.83,1.42-1.46.35-.63.52-1.37.52-2.2,0-1.26-.35-2.25-1.04-2.97s-1.62-1.07-2.77-1.07c-.59,0-1.11.1-1.56.3-.45.2-.91.46-1.38.78l-.87-.55.57-7.6h7.6v1.19h-6.41l-.48,5.57c.4-.23.82-.41,1.27-.56s.95-.22,1.52-.22c.91,0,1.75.18,2.5.54.75.36,1.35.91,1.79,1.67.44.75.66,1.72.66,2.89s-.25,2.12-.76,2.92-1.16,1.42-1.95,1.84c-.79.42-1.63.63-2.51.63Z"/>
            <path class="cls-6" d="M35.81,345.9c-1.04,0-1.92-.33-2.65-.98-.73-.65-1.29-1.61-1.68-2.86-.39-1.26-.58-2.78-.58-4.58s.19-3.31.58-4.55c.39-1.24.95-2.18,1.68-2.82.73-.64,1.61-.96,2.65-.96s1.92.32,2.65.96c.73.64,1.29,1.58,1.67,2.82.38,1.24.57,2.76.57,4.55s-.19,3.32-.57,4.58c-.38,1.25-.94,2.21-1.67,2.86-.73.65-1.61.98-2.65.98ZM35.81,344.76c.71,0,1.34-.27,1.88-.81.54-.54.95-1.35,1.24-2.43s.43-2.43.43-4.04-.14-2.97-.43-4.04c-.29-1.06-.7-1.86-1.24-2.38-.54-.52-1.17-.79-1.88-.79s-1.34.26-1.88.79c-.54.53-.96,1.32-1.25,2.38-.3,1.07-.45,2.41-.45,4.04s.15,2.96.45,4.04c.3,1.08.71,1.89,1.25,2.43s1.17.81,1.88.81Z"/>
            <path class="cls-6" d="M48.02,345.9c-1.04,0-1.92-.33-2.65-.98-.73-.65-1.29-1.61-1.68-2.86-.39-1.26-.58-2.78-.58-4.58s.19-3.31.58-4.55c.39-1.24.95-2.18,1.68-2.82.73-.64,1.61-.96,2.65-.96s1.92.32,2.65.96c.73.64,1.29,1.58,1.67,2.82.38,1.24.57,2.76.57,4.55s-.19,3.32-.57,4.58c-.38,1.25-.94,2.21-1.67,2.86-.73.65-1.61.98-2.65.98ZM48.02,344.76c.71,0,1.34-.27,1.88-.81.54-.54.95-1.35,1.24-2.43s.43-2.43.43-4.04-.14-2.97-.43-4.04c-.29-1.06-.7-1.86-1.24-2.38-.54-.52-1.17-.79-1.88-.79s-1.34.26-1.88.79c-.54.53-.96,1.32-1.25,2.38-.3,1.07-.45,2.41-.45,4.04s.15,2.96.45,4.04c.3,1.08.71,1.89,1.25,2.43s1.17.81,1.88.81Z"/>
          </g>
          <g>
            <path class="cls-6" d="M.59,279.78v-.82c1.75-1.77,3.2-3.3,4.36-4.6,1.16-1.3,2.03-2.46,2.62-3.49.59-1.03.89-2.01.89-2.96,0-.65-.12-1.24-.35-1.77-.24-.52-.6-.94-1.11-1.24-.5-.3-1.15-.46-1.94-.46-.72,0-1.39.2-2.02.59s-1.19.89-1.68,1.48l-.84-.8c.62-.7,1.31-1.27,2.05-1.72.75-.45,1.62-.67,2.62-.67s1.8.19,2.49.57c.68.38,1.21.91,1.57,1.6s.55,1.48.55,2.4c0,1.05-.3,2.12-.9,3.21-.6,1.09-1.45,2.25-2.53,3.48-1.09,1.23-2.35,2.62-3.8,4.15.44-.03.9-.06,1.37-.09.47-.03.92-.04,1.35-.04h5.34v1.19H.59Z"/>
            <path class="cls-6" d="M13.37,283.79l-.39-.87c.61-.32,1.1-.75,1.46-1.28.37-.53.55-1.16.55-1.87l-.3-1.58.91,1.26c-.12.17-.26.28-.41.34-.15.06-.31.09-.48.09-.32,0-.59-.1-.82-.31-.23-.21-.34-.49-.34-.86s.12-.65.35-.84c.24-.2.51-.3.83-.3.43,0,.76.18,1,.53.24.35.37.82.37,1.42,0,.96-.25,1.81-.76,2.54-.51.74-1.17,1.31-1.97,1.72Z"/>
            <path class="cls-6" d="M23.6,280.07c-1.04,0-1.92-.33-2.65-.98-.73-.65-1.29-1.61-1.68-2.86-.39-1.26-.58-2.78-.58-4.58s.19-3.31.58-4.55c.39-1.24.95-2.18,1.68-2.82.73-.64,1.61-.96,2.65-.96s1.92.32,2.65.96c.73.64,1.29,1.58,1.67,2.82.38,1.24.57,2.76.57,4.55s-.19,3.32-.57,4.58c-.38,1.25-.94,2.21-1.67,2.86-.73.65-1.61.98-2.65.98ZM23.6,278.93c.71,0,1.34-.27,1.88-.81.54-.54.95-1.35,1.24-2.43s.43-2.43.43-4.04-.14-2.97-.43-4.04c-.29-1.06-.7-1.86-1.24-2.38-.54-.52-1.17-.79-1.88-.79s-1.34.26-1.88.79c-.54.53-.96,1.32-1.25,2.38-.3,1.07-.45,2.41-.45,4.04s.15,2.96.45,4.04c.3,1.08.71,1.89,1.25,2.43s1.17.81,1.88.81Z"/>
            <path class="cls-6" d="M35.81,280.07c-1.04,0-1.92-.33-2.65-.98-.73-.65-1.29-1.61-1.68-2.86-.39-1.26-.58-2.78-.58-4.58s.19-3.31.58-4.55c.39-1.24.95-2.18,1.68-2.82.73-.64,1.61-.96,2.65-.96s1.92.32,2.65.96c.73.64,1.29,1.58,1.67,2.82.38,1.24.57,2.76.57,4.55s-.19,3.32-.57,4.58c-.38,1.25-.94,2.21-1.67,2.86-.73.65-1.61.98-2.65.98ZM35.81,278.93c.71,0,1.34-.27,1.88-.81.54-.54.95-1.35,1.24-2.43s.43-2.43.43-4.04-.14-2.97-.43-4.04c-.29-1.06-.7-1.86-1.24-2.38-.54-.52-1.17-.79-1.88-.79s-1.34.26-1.88.79c-.54.53-.96,1.32-1.25,2.38-.3,1.07-.45,2.41-.45,4.04s.15,2.96.45,4.04c.3,1.08.71,1.89,1.25,2.43s1.17.81,1.88.81Z"/>
            <path class="cls-6" d="M48.02,280.07c-1.04,0-1.92-.33-2.65-.98-.73-.65-1.29-1.61-1.68-2.86-.39-1.26-.58-2.78-.58-4.58s.19-3.31.58-4.55c.39-1.24.95-2.18,1.68-2.82.73-.64,1.61-.96,2.65-.96s1.92.32,2.65.96c.73.64,1.29,1.58,1.67,2.82.38,1.24.57,2.76.57,4.55s-.19,3.32-.57,4.58c-.38,1.25-.94,2.21-1.67,2.86-.73.65-1.61.98-2.65.98ZM48.02,278.93c.71,0,1.34-.27,1.88-.81.54-.54.95-1.35,1.24-2.43s.43-2.43.43-4.04-.14-2.97-.43-4.04c-.29-1.06-.7-1.86-1.24-2.38-.54-.52-1.17-.79-1.88-.79s-1.34.26-1.88.79c-.54.53-.96,1.32-1.25,2.38-.3,1.07-.45,2.41-.45,4.04s.15,2.96.45,4.04c.3,1.08.71,1.89,1.25,2.43s1.17.81,1.88.81Z"/>
          </g>
          <g>
            <path class="cls-6" d="M.59,213.95v-.82c1.75-1.77,3.2-3.3,4.36-4.6,1.16-1.3,2.03-2.46,2.62-3.49.59-1.03.89-2.01.89-2.96,0-.65-.12-1.24-.35-1.77-.24-.52-.6-.94-1.11-1.24-.5-.3-1.15-.46-1.94-.46-.72,0-1.39.2-2.02.59s-1.19.89-1.68,1.48l-.84-.8c.62-.7,1.31-1.27,2.05-1.72.75-.45,1.62-.67,2.62-.67s1.8.19,2.49.57c.68.38,1.21.91,1.57,1.6s.55,1.48.55,2.4c0,1.05-.3,2.12-.9,3.21-.6,1.09-1.45,2.25-2.53,3.48-1.09,1.23-2.35,2.62-3.8,4.15.44-.03.9-.06,1.37-.09.47-.03.92-.04,1.35-.04h5.34v1.19H.59Z"/>
            <path class="cls-6" d="M13.37,217.96l-.39-.87c.61-.32,1.1-.75,1.46-1.28.37-.53.55-1.16.55-1.87l-.3-1.58.91,1.26c-.12.17-.26.28-.41.34-.15.06-.31.09-.48.09-.32,0-.59-.1-.82-.31-.23-.21-.34-.49-.34-.86s.12-.65.35-.84c.24-.2.51-.3.83-.3.43,0,.76.18,1,.53.24.35.37.82.37,1.42,0,.96-.25,1.81-.76,2.54-.51.74-1.17,1.31-1.97,1.72Z"/>
            <path class="cls-6" d="M23.26,214.24c-.85,0-1.6-.11-2.24-.33s-1.19-.49-1.65-.82c-.46-.33-.88-.67-1.24-1.02l.75-.94c.32.33.68.65,1.07.95.4.3.86.54,1.39.72.53.18,1.16.27,1.87.27s1.35-.17,1.94-.51c.59-.34,1.06-.83,1.42-1.46.35-.63.52-1.37.52-2.2,0-1.26-.35-2.25-1.04-2.97s-1.62-1.07-2.77-1.07c-.59,0-1.11.1-1.56.3-.45.2-.91.46-1.38.78l-.87-.55.57-7.6h7.6v1.19h-6.41l-.48,5.57c.4-.23.82-.41,1.27-.56s.95-.22,1.52-.22c.91,0,1.75.18,2.5.54.75.36,1.35.91,1.79,1.67.44.75.66,1.72.66,2.89s-.25,2.12-.76,2.92-1.16,1.42-1.95,1.84c-.79.42-1.63.63-2.51.63Z"/>
            <path class="cls-6" d="M35.81,214.24c-1.04,0-1.92-.33-2.65-.98-.73-.65-1.29-1.61-1.68-2.86-.39-1.26-.58-2.78-.58-4.58s.19-3.31.58-4.55c.39-1.24.95-2.18,1.68-2.82.73-.64,1.61-.96,2.65-.96s1.92.32,2.65.96c.73.64,1.29,1.58,1.67,2.82.38,1.24.57,2.76.57,4.55s-.19,3.32-.57,4.58c-.38,1.25-.94,2.21-1.67,2.86-.73.65-1.61.98-2.65.98ZM35.81,213.1c.71,0,1.34-.27,1.88-.81.54-.54.95-1.35,1.24-2.43s.43-2.43.43-4.04-.14-2.97-.43-4.04c-.29-1.06-.7-1.86-1.24-2.38-.54-.52-1.17-.79-1.88-.79s-1.34.26-1.88.79c-.54.53-.96,1.32-1.25,2.38-.3,1.07-.45,2.41-.45,4.04s.15,2.96.45,4.04c.3,1.08.71,1.89,1.25,2.43s1.17.81,1.88.81Z"/>
            <path class="cls-6" d="M48.02,214.24c-1.04,0-1.92-.33-2.65-.98-.73-.65-1.29-1.61-1.68-2.86-.39-1.26-.58-2.78-.58-4.58s.19-3.31.58-4.55c.39-1.24.95-2.18,1.68-2.82.73-.64,1.61-.96,2.65-.96s1.92.32,2.65.96c.73.64,1.29,1.58,1.67,2.82.38,1.24.57,2.76.57,4.55s-.19,3.32-.57,4.58c-.38,1.25-.94,2.21-1.67,2.86-.73.65-1.61.98-2.65.98ZM48.02,213.1c.71,0,1.34-.27,1.88-.81.54-.54.95-1.35,1.24-2.43s.43-2.43.43-4.04-.14-2.97-.43-4.04c-.29-1.06-.7-1.86-1.24-2.38-.54-.52-1.17-.79-1.88-.79s-1.34.26-1.88.79c-.54.53-.96,1.32-1.25,2.38-.3,1.07-.45,2.41-.45,4.04s.15,2.96.45,4.04c.3,1.08.71,1.89,1.25,2.43s1.17.81,1.88.81Z"/>
          </g>
          <g>
            <path class="cls-6" d="M5.43,148.41c-.85,0-1.6-.11-2.24-.33s-1.2-.51-1.68-.86c-.48-.35-.89-.72-1.22-1.1l.73-.89c.49.5,1.07.96,1.76,1.38.68.42,1.56.63,2.62.63.73,0,1.37-.14,1.92-.42.55-.28.98-.68,1.3-1.19.32-.51.48-1.11.48-1.79,0-.73-.19-1.37-.56-1.91-.37-.54-.96-.96-1.77-1.27-.81-.3-1.87-.46-3.2-.46v-1.12c1.23,0,2.2-.15,2.91-.46.71-.3,1.22-.71,1.53-1.23.31-.52.47-1.09.47-1.71,0-.88-.28-1.59-.84-2.12s-1.32-.8-2.28-.8c-.73,0-1.41.17-2.03.5-.62.33-1.16.75-1.6,1.25l-.78-.89c.58-.55,1.22-1.02,1.94-1.4.72-.39,1.54-.58,2.49-.58.85,0,1.62.16,2.31.47s1.22.76,1.62,1.35.59,1.3.59,2.13c0,1.04-.29,1.88-.87,2.52-.58.65-1.31,1.12-2.19,1.43v.09c.65.15,1.26.41,1.81.79.56.37,1,.84,1.32,1.42s.49,1.24.49,2c0,.94-.22,1.75-.67,2.43s-1.05,1.2-1.81,1.57c-.76.37-1.61.56-2.56.56Z"/>
            <path class="cls-6" d="M13.37,152.13l-.39-.87c.61-.32,1.1-.75,1.46-1.28.37-.53.55-1.16.55-1.87l-.3-1.58.91,1.26c-.12.17-.26.28-.41.34-.15.06-.31.09-.48.09-.32,0-.59-.1-.82-.31-.23-.21-.34-.49-.34-.86s.12-.65.35-.84c.24-.2.51-.3.83-.3.43,0,.76.18,1,.53.24.35.37.82.37,1.42,0,.96-.25,1.81-.76,2.54-.51.74-1.17,1.31-1.97,1.72Z"/>
            <path class="cls-6" d="M23.6,148.41c-1.04,0-1.92-.33-2.65-.98-.73-.65-1.29-1.61-1.68-2.86-.39-1.26-.58-2.78-.58-4.58s.19-3.31.58-4.55c.39-1.24.95-2.18,1.68-2.82.73-.64,1.61-.96,2.65-.96s1.92.32,2.65.96c.73.64,1.29,1.58,1.67,2.82.38,1.24.57,2.76.57,4.55s-.19,3.32-.57,4.58c-.38,1.25-.94,2.21-1.67,2.86-.73.65-1.61.98-2.65.98ZM23.6,147.27c.71,0,1.34-.27,1.88-.81.54-.54.95-1.35,1.24-2.43s.43-2.43.43-4.04-.14-2.97-.43-4.04c-.29-1.06-.7-1.86-1.24-2.38-.54-.52-1.17-.79-1.88-.79s-1.34.26-1.88.79c-.54.53-.96,1.32-1.25,2.38-.3,1.07-.45,2.41-.45,4.04s.15,2.96.45,4.04c.3,1.08.71,1.89,1.25,2.43s1.17.81,1.88.81Z"/>
            <path class="cls-6" d="M35.81,148.41c-1.04,0-1.92-.33-2.65-.98-.73-.65-1.29-1.61-1.68-2.86-.39-1.26-.58-2.78-.58-4.58s.19-3.31.58-4.55c.39-1.24.95-2.18,1.68-2.82.73-.64,1.61-.96,2.65-.96s1.92.32,2.65.96c.73.64,1.29,1.58,1.67,2.82.38,1.24.57,2.76.57,4.55s-.19,3.32-.57,4.58c-.38,1.25-.94,2.21-1.67,2.86-.73.65-1.61.98-2.65.98ZM35.81,147.27c.71,0,1.34-.27,1.88-.81.54-.54.95-1.35,1.24-2.43s.43-2.43.43-4.04-.14-2.97-.43-4.04c-.29-1.06-.7-1.86-1.24-2.38-.54-.52-1.17-.79-1.88-.79s-1.34.26-1.88.79c-.54.53-.96,1.32-1.25,2.38-.3,1.07-.45,2.41-.45,4.04s.15,2.96.45,4.04c.3,1.08.71,1.89,1.25,2.43s1.17.81,1.88.81Z"/>
            <path class="cls-6" d="M48.02,148.41c-1.04,0-1.92-.33-2.65-.98-.73-.65-1.29-1.61-1.68-2.86-.39-1.26-.58-2.78-.58-4.58s.19-3.31.58-4.55c.39-1.24.95-2.18,1.68-2.82.73-.64,1.61-.96,2.65-.96s1.92.32,2.65.96c.73.64,1.29,1.58,1.67,2.82.38,1.24.57,2.76.57,4.55s-.19,3.32-.57,4.58c-.38,1.25-.94,2.21-1.67,2.86-.73.65-1.61.98-2.65.98ZM48.02,147.27c.71,0,1.34-.27,1.88-.81.54-.54.95-1.35,1.24-2.43s.43-2.43.43-4.04-.14-2.97-.43-4.04c-.29-1.06-.7-1.86-1.24-2.38-.54-.52-1.17-.79-1.88-.79s-1.34.26-1.88.79c-.54.53-.96,1.32-1.25,2.38-.3,1.07-.45,2.41-.45,4.04s.15,2.96.45,4.04c.3,1.08.71,1.89,1.25,2.43s1.17.81,1.88.81Z"/>
          </g>
          <g>
            <path class="cls-6" d="M5.43,82.58c-.85,0-1.6-.11-2.24-.33s-1.2-.51-1.68-.86c-.48-.35-.89-.72-1.22-1.1l.73-.89c.49.5,1.07.96,1.76,1.38.68.42,1.56.63,2.62.63.73,0,1.37-.14,1.92-.42.55-.28.98-.68,1.3-1.19.32-.51.48-1.11.48-1.79,0-.73-.19-1.37-.56-1.91-.37-.54-.96-.96-1.77-1.27-.81-.3-1.87-.46-3.2-.46v-1.12c1.23,0,2.2-.15,2.91-.46.71-.3,1.22-.71,1.53-1.23.31-.52.47-1.09.47-1.71,0-.88-.28-1.59-.84-2.12s-1.32-.8-2.28-.8c-.73,0-1.41.17-2.03.5-.62.33-1.16.75-1.6,1.25l-.78-.89c.58-.55,1.22-1.02,1.94-1.4.72-.39,1.54-.58,2.49-.58.85,0,1.62.16,2.31.47s1.22.76,1.62,1.35.59,1.3.59,2.13c0,1.04-.29,1.88-.87,2.52-.58.65-1.31,1.12-2.19,1.43v.09c.65.15,1.26.41,1.81.79.56.37,1,.84,1.32,1.42s.49,1.24.49,2c0,.94-.22,1.75-.67,2.43s-1.05,1.2-1.81,1.57c-.76.37-1.61.56-2.56.56Z"/>
            <path class="cls-6" d="M13.37,86.3l-.39-.87c.61-.32,1.1-.75,1.46-1.28.37-.53.55-1.16.55-1.87l-.3-1.58.91,1.26c-.12.17-.26.28-.41.34-.15.06-.31.09-.48.09-.32,0-.59-.1-.82-.31-.23-.21-.34-.49-.34-.86s.12-.65.35-.84c.24-.2.51-.3.83-.3.43,0,.76.18,1,.53.24.35.37.82.37,1.42,0,.96-.25,1.81-.76,2.54-.51.74-1.17,1.31-1.97,1.72Z"/>
            <path class="cls-6" d="M23.26,82.58c-.85,0-1.6-.11-2.24-.33s-1.19-.49-1.65-.82c-.46-.33-.88-.67-1.24-1.02l.75-.94c.32.33.68.65,1.07.95.4.3.86.54,1.39.72.53.18,1.16.27,1.87.27s1.35-.17,1.94-.51c.59-.34,1.06-.83,1.42-1.46.35-.63.52-1.37.52-2.2,0-1.26-.35-2.25-1.04-2.97s-1.62-1.07-2.77-1.07c-.59,0-1.11.1-1.56.3-.45.2-.91.46-1.38.78l-.87-.55.57-7.6h7.6v1.19h-6.41l-.48,5.57c.4-.23.82-.41,1.27-.56s.95-.22,1.52-.22c.91,0,1.75.18,2.5.54.75.36,1.35.91,1.79,1.67.44.75.66,1.72.66,2.89s-.25,2.12-.76,2.92-1.16,1.42-1.95,1.84c-.79.42-1.63.63-2.51.63Z"/>
            <path class="cls-6" d="M35.81,82.58c-1.04,0-1.92-.33-2.65-.98-.73-.65-1.29-1.61-1.68-2.86-.39-1.26-.58-2.78-.58-4.58s.19-3.31.58-4.55c.39-1.24.95-2.18,1.68-2.82.73-.64,1.61-.96,2.65-.96s1.92.32,2.65.96c.73.64,1.29,1.58,1.67,2.82.38,1.24.57,2.76.57,4.55s-.19,3.32-.57,4.58c-.38,1.25-.94,2.21-1.67,2.86-.73.65-1.61.98-2.65.98ZM35.81,81.44c.71,0,1.34-.27,1.88-.81.54-.54.95-1.35,1.24-2.43s.43-2.43.43-4.04-.14-2.97-.43-4.04c-.29-1.06-.7-1.86-1.24-2.38-.54-.52-1.17-.79-1.88-.79s-1.34.26-1.88.79c-.54.53-.96,1.32-1.25,2.38-.3,1.07-.45,2.41-.45,4.04s.15,2.96.45,4.04c.3,1.08.71,1.89,1.25,2.43s1.17.81,1.88.81Z"/>
            <path class="cls-6" d="M48.02,82.58c-1.04,0-1.92-.33-2.65-.98-.73-.65-1.29-1.61-1.68-2.86-.39-1.26-.58-2.78-.58-4.58s.19-3.31.58-4.55c.39-1.24.95-2.18,1.68-2.82.73-.64,1.61-.96,2.65-.96s1.92.32,2.65.96c.73.64,1.29,1.58,1.67,2.82.38,1.24.57,2.76.57,4.55s-.19,3.32-.57,4.58c-.38,1.25-.94,2.21-1.67,2.86-.73.65-1.61.98-2.65.98ZM48.02,81.44c.71,0,1.34-.27,1.88-.81.54-.54.95-1.35,1.24-2.43s.43-2.43.43-4.04-.14-2.97-.43-4.04c-.29-1.06-.7-1.86-1.24-2.38-.54-.52-1.17-.79-1.88-.79s-1.34.26-1.88.79c-.54.53-.96,1.32-1.25,2.38-.3,1.07-.45,2.41-.45,4.04s.15,2.96.45,4.04c.3,1.08.71,1.89,1.25,2.43s1.17.81,1.88.81Z"/>
          </g>
          <g>
            <path class="cls-6" d="M7.37,16.46V4.95c0-.38.01-.86.03-1.43.02-.57.05-1.05.08-1.43h-.11c-.2.35-.41.69-.63,1.02-.22.33-.44.68-.67,1.06L1.53,10.61h9.49v1.1H0v-.8L7.35.3h1.3v16.16h-1.28Z"/>
            <path class="cls-6" d="M13.37,20.47l-.39-.87c.61-.32,1.1-.75,1.46-1.28.37-.53.55-1.16.55-1.87l-.3-1.58.91,1.26c-.12.17-.26.28-.41.34-.15.06-.31.09-.48.09-.32,0-.59-.1-.82-.31-.23-.21-.34-.49-.34-.86s.12-.65.35-.84c.24-.2.51-.3.83-.3.43,0,.76.18,1,.53.24.35.37.82.37,1.42,0,.96-.25,1.81-.76,2.54-.51.74-1.17,1.31-1.97,1.72Z"/>
            <path class="cls-6" d="M23.6,16.75c-1.04,0-1.92-.33-2.65-.98-.73-.65-1.29-1.61-1.68-2.86-.39-1.26-.58-2.78-.58-4.58s.19-3.31.58-4.55c.39-1.24.95-2.18,1.68-2.82.73-.64,1.61-.96,2.65-.96s1.92.32,2.65.96c.73.64,1.29,1.58,1.67,2.82.38,1.24.57,2.76.57,4.55s-.19,3.32-.57,4.58c-.38,1.25-.94,2.21-1.67,2.86-.73.65-1.61.98-2.65.98ZM23.6,15.61c.71,0,1.34-.27,1.88-.81.54-.54.95-1.35,1.24-2.43s.43-2.43.43-4.04-.14-2.97-.43-4.04c-.29-1.06-.7-1.86-1.24-2.38-.54-.52-1.17-.79-1.88-.79s-1.34.26-1.88.79c-.54.53-.96,1.32-1.25,2.38-.3,1.07-.45,2.41-.45,4.04s.15,2.96.45,4.04c.3,1.08.71,1.89,1.25,2.43s1.17.81,1.88.81Z"/>
            <path class="cls-6" d="M35.81,16.75c-1.04,0-1.92-.33-2.65-.98-.73-.65-1.29-1.61-1.68-2.86-.39-1.26-.58-2.78-.58-4.58s.19-3.31.58-4.55c.39-1.24.95-2.18,1.68-2.82.73-.64,1.61-.96,2.65-.96s1.92.32,2.65.96c.73.64,1.29,1.58,1.67,2.82.38,1.24.57,2.76.57,4.55s-.19,3.32-.57,4.58c-.38,1.25-.94,2.21-1.67,2.86-.73.65-1.61.98-2.65.98ZM35.81,15.61c.71,0,1.34-.27,1.88-.81.54-.54.95-1.35,1.24-2.43s.43-2.43.43-4.04-.14-2.97-.43-4.04c-.29-1.06-.7-1.86-1.24-2.38-.54-.52-1.17-.79-1.88-.79s-1.34.26-1.88.79c-.54.53-.96,1.32-1.25,2.38-.3,1.07-.45,2.41-.45,4.04s.15,2.96.45,4.04c.3,1.08.71,1.89,1.25,2.43s1.17.81,1.88.81Z"/>
            <path class="cls-6" d="M48.02,16.75c-1.04,0-1.92-.33-2.65-.98-.73-.65-1.29-1.61-1.68-2.86-.39-1.26-.58-2.78-.58-4.58s.19-3.31.58-4.55c.39-1.24.95-2.18,1.68-2.82.73-.64,1.61-.96,2.65-.96s1.92.32,2.65.96c.73.64,1.29,1.58,1.67,2.82.38,1.24.57,2.76.57,4.55s-.19,3.32-.57,4.58c-.38,1.25-.94,2.21-1.67,2.86-.73.65-1.61.98-2.65.98ZM48.02,15.61c.71,0,1.34-.27,1.88-.81.54-.54.95-1.35,1.24-2.43s.43-2.43.43-4.04-.14-2.97-.43-4.04c-.29-1.06-.7-1.86-1.24-2.38-.54-.52-1.17-.79-1.88-.79s-1.34.26-1.88.79c-.54.53-.96,1.32-1.25,2.38-.3,1.07-.45,2.41-.45,4.04s.15,2.96.45,4.04c.3,1.08.71,1.89,1.25,2.43s1.17.81,1.88.81Z"/>
          </g>
          <g>
            <path class="cls-6" d="M132.09,568.66v-.82c1.75-1.77,3.2-3.3,4.36-4.6,1.16-1.3,2.03-2.46,2.62-3.49.59-1.03.89-2.01.89-2.96,0-.65-.12-1.24-.35-1.77-.24-.52-.6-.94-1.11-1.24-.5-.3-1.15-.46-1.94-.46-.72,0-1.39.2-2.02.59s-1.19.89-1.68,1.48l-.84-.8c.62-.7,1.31-1.27,2.05-1.72.75-.45,1.62-.67,2.62-.67s1.8.19,2.49.57c.68.38,1.21.91,1.57,1.6s.55,1.48.55,2.4c0,1.05-.3,2.12-.9,3.21-.6,1.09-1.45,2.25-2.53,3.48-1.09,1.23-2.35,2.62-3.8,4.15.44-.03.9-.06,1.37-.09.47-.03.92-.04,1.35-.04h5.34v1.19h-10.04Z"/>
            <path class="cls-6" d="M149.39,568.95c-1.04,0-1.92-.33-2.65-.98-.73-.65-1.29-1.61-1.68-2.86-.39-1.26-.58-2.78-.58-4.58s.19-3.31.58-4.55c.39-1.24.95-2.18,1.68-2.82.73-.64,1.61-.96,2.65-.96s1.92.32,2.65.96c.73.64,1.29,1.58,1.67,2.82.38,1.24.57,2.76.57,4.55s-.19,3.32-.57,4.58c-.38,1.25-.94,2.21-1.67,2.86-.73.65-1.61.98-2.65.98ZM149.39,567.81c.71,0,1.34-.27,1.88-.81.54-.54.95-1.35,1.24-2.43s.43-2.43.43-4.04-.14-2.97-.43-4.04c-.29-1.06-.7-1.86-1.24-2.38-.54-.52-1.17-.79-1.88-.79s-1.34.26-1.88.79c-.54.53-.96,1.32-1.25,2.38-.3,1.07-.45,2.41-.45,4.04s.15,2.96.45,4.04c.3,1.08.71,1.89,1.25,2.43s1.17.81,1.88.81Z"/>
            <path class="cls-6" d="M156.51,568.66v-.82c1.75-1.77,3.2-3.3,4.36-4.6,1.16-1.3,2.03-2.46,2.62-3.49.59-1.03.89-2.01.89-2.96,0-.65-.12-1.24-.35-1.77-.24-.52-.6-.94-1.11-1.24-.5-.3-1.15-.46-1.94-.46-.72,0-1.39.2-2.02.59s-1.19.89-1.68,1.48l-.84-.8c.62-.7,1.31-1.27,2.05-1.72.75-.45,1.62-.67,2.62-.67s1.8.19,2.49.57c.68.38,1.21.91,1.57,1.6s.55,1.48.55,2.4c0,1.05-.3,2.12-.9,3.21-.6,1.09-1.45,2.25-2.53,3.48-1.09,1.23-2.35,2.62-3.8,4.15.44-.03.9-.06,1.37-.09.47-.03.92-.04,1.35-.04h5.34v1.19h-10.04Z"/>
            <path class="cls-6" d="M173.81,568.95c-1.04,0-1.92-.33-2.65-.98-.73-.65-1.29-1.61-1.68-2.86-.39-1.26-.58-2.78-.58-4.58s.19-3.31.58-4.55c.39-1.24.95-2.18,1.68-2.82.73-.64,1.61-.96,2.65-.96s1.92.32,2.65.96c.73.64,1.29,1.58,1.67,2.82.38,1.24.57,2.76.57,4.55s-.19,3.32-.57,4.58c-.38,1.25-.94,2.21-1.67,2.86-.73.65-1.61.98-2.65.98ZM173.81,567.81c.71,0,1.34-.27,1.88-.81.54-.54.95-1.35,1.24-2.43s.43-2.43.43-4.04-.14-2.97-.43-4.04c-.29-1.06-.7-1.86-1.24-2.38-.54-.52-1.17-.79-1.88-.79s-1.34.26-1.88.79c-.54.53-.96,1.32-1.25,2.38-.3,1.07-.45,2.41-.45,4.04s.15,2.96.45,4.04c.3,1.08.71,1.89,1.25,2.43s1.17.81,1.88.81Z"/>
            <path class="cls-6" d="M181.09,563.79h20.49v1.07h-20.49v-1.07ZM186.61,549.53l1.1.3c-.43,1.11-.93,2.19-1.51,3.23-.58,1.04-1.21,2.01-1.88,2.9-.68.89-1.39,1.68-2.13,2.36-.06-.05-.15-.11-.26-.21-.11-.09-.23-.18-.35-.27-.12-.09-.24-.16-.34-.21.76-.65,1.48-1.41,2.15-2.26.67-.85,1.28-1.78,1.83-2.77s1.02-2.02,1.42-3.07ZM184.94,557.56h15.15v1.05h-14.06v5.75h-1.1v-6.8ZM185.77,552.52h14.86v1.05h-15.41l.55-1.05ZM191.86,553.09h1.12v17.28h-1.12v-17.28Z"/>
            <path class="cls-6" d="M205.62,552h1.05v6.69c0,.85-.02,1.78-.07,2.8s-.15,2.04-.3,3.09-.37,2.08-.66,3.08c-.29,1-.67,1.93-1.14,2.78-.06-.06-.15-.13-.26-.22-.11-.08-.23-.16-.34-.24s-.22-.13-.31-.16c.46-.82.82-1.7,1.1-2.65s.48-1.91.62-2.91c.14-1,.22-1.97.26-2.92s.06-1.84.06-2.66v-6.69ZM206.17,552h17.98v1.03h-17.98v-1.03ZM221,562.65h.23l.21-.05.71.41c-.64,1.16-1.47,2.16-2.49,3-1.02.84-2.18,1.55-3.48,2.12s-2.68,1.03-4.14,1.38c-1.46.35-2.94.62-4.45.82-.03-.14-.1-.3-.19-.49-.1-.19-.19-.35-.29-.47,1.43-.15,2.85-.39,4.27-.71,1.42-.32,2.75-.74,4.01-1.25s2.37-1.15,3.33-1.91c.97-.75,1.73-1.64,2.29-2.66v-.21ZM207.52,555.99h16.48v.98h-16.48v-.98ZM207.93,562.65h13.37v.98h-13.37v-.98ZM211.62,563.57c.76,1.11,1.79,2.07,3.08,2.86,1.29.8,2.78,1.45,4.46,1.94s3.47.85,5.38,1.06c-.08.08-.16.17-.24.29-.08.11-.16.23-.24.34s-.14.22-.18.31c-1.9-.24-3.7-.64-5.4-1.18-1.7-.54-3.22-1.24-4.56-2.11-1.35-.87-2.43-1.91-3.25-3.13l.96-.39ZM211.53,553.73h1.07v6.21h6.37v-6.21h1.1v7.14h-8.54v-7.14ZM214.2,549.62h1.12v2.94h-1.12v-2.94Z"/>
          </g>
          <g>
            <path class="cls-6" d="M275.82,568.66v-.82c1.75-1.77,3.2-3.3,4.36-4.6,1.16-1.3,2.03-2.46,2.62-3.49.59-1.03.89-2.01.89-2.96,0-.65-.12-1.24-.35-1.77-.24-.52-.6-.94-1.11-1.24-.5-.3-1.15-.46-1.94-.46-.72,0-1.39.2-2.02.59s-1.19.89-1.68,1.48l-.84-.8c.62-.7,1.31-1.27,2.05-1.72.75-.45,1.62-.67,2.62-.67s1.8.19,2.49.57c.68.38,1.21.91,1.57,1.6s.55,1.48.55,2.4c0,1.05-.3,2.12-.9,3.21-.6,1.09-1.45,2.25-2.53,3.48-1.09,1.23-2.35,2.62-3.8,4.15.44-.03.9-.06,1.37-.09.47-.03.92-.04,1.35-.04h5.34v1.19h-10.04Z"/>
            <path class="cls-6" d="M293.12,568.95c-1.04,0-1.92-.33-2.65-.98-.73-.65-1.29-1.61-1.68-2.86-.39-1.26-.58-2.78-.58-4.58s.19-3.31.58-4.55c.39-1.24.95-2.18,1.68-2.82.73-.64,1.61-.96,2.65-.96s1.92.32,2.65.96c.73.64,1.29,1.58,1.67,2.82.38,1.24.57,2.76.57,4.55s-.19,3.32-.57,4.58c-.38,1.25-.94,2.21-1.67,2.86-.73.65-1.61.98-2.65.98ZM293.12,567.81c.71,0,1.34-.27,1.88-.81.54-.54.95-1.35,1.24-2.43s.43-2.43.43-4.04-.14-2.97-.43-4.04c-.29-1.06-.7-1.86-1.24-2.38-.54-.52-1.17-.79-1.88-.79s-1.34.26-1.88.79c-.54.53-.96,1.32-1.25,2.38-.3,1.07-.45,2.41-.45,4.04s.15,2.96.45,4.04c.3,1.08.71,1.89,1.25,2.43s1.17.81,1.88.81Z"/>
            <path class="cls-6" d="M300.24,568.66v-.82c1.75-1.77,3.2-3.3,4.36-4.6,1.16-1.3,2.03-2.46,2.62-3.49.59-1.03.89-2.01.89-2.96,0-.65-.12-1.24-.35-1.77-.24-.52-.6-.94-1.11-1.24-.5-.3-1.15-.46-1.94-.46-.72,0-1.39.2-2.02.59s-1.19.89-1.68,1.48l-.84-.8c.62-.7,1.31-1.27,2.05-1.72.75-.45,1.62-.67,2.62-.67s1.8.19,2.49.57c.68.38,1.21.91,1.57,1.6s.55,1.48.55,2.4c0,1.05-.3,2.12-.9,3.21-.6,1.09-1.45,2.25-2.53,3.48-1.09,1.23-2.35,2.62-3.8,4.15.44-.03.9-.06,1.37-.09.47-.03.92-.04,1.35-.04h5.34v1.19h-10.04Z"/>
            <path class="cls-6" d="M313.53,568.66v-1.16h3.79v-13.03h-2.94v-.89c.68-.12,1.29-.27,1.81-.46.52-.18.98-.39,1.38-.62h1.07v14.99h3.47v1.16h-8.58Z"/>
            <path class="cls-6" d="M324.82,563.79h20.49v1.07h-20.49v-1.07ZM330.35,549.53l1.1.3c-.43,1.11-.93,2.19-1.51,3.23-.58,1.04-1.21,2.01-1.88,2.9-.68.89-1.39,1.68-2.13,2.36-.06-.05-.15-.11-.26-.21-.11-.09-.23-.18-.35-.27-.12-.09-.24-.16-.34-.21.76-.65,1.48-1.41,2.15-2.26.67-.85,1.28-1.78,1.83-2.77s1.02-2.02,1.42-3.07ZM328.68,557.56h15.15v1.05h-14.06v5.75h-1.1v-6.8ZM329.5,552.52h14.86v1.05h-15.41l.55-1.05ZM335.6,553.09h1.12v17.28h-1.12v-17.28Z"/>
            <path class="cls-6" d="M349.36,552h1.05v6.69c0,.85-.02,1.78-.07,2.8s-.15,2.04-.3,3.09-.37,2.08-.66,3.08c-.29,1-.67,1.93-1.14,2.78-.06-.06-.15-.13-.26-.22-.11-.08-.23-.16-.34-.24s-.22-.13-.31-.16c.46-.82.82-1.7,1.1-2.65s.48-1.91.62-2.91c.14-1,.22-1.97.26-2.92s.06-1.84.06-2.66v-6.69ZM349.91,552h17.98v1.03h-17.98v-1.03ZM364.74,562.65h.23l.21-.05.71.41c-.64,1.16-1.47,2.16-2.49,3-1.02.84-2.18,1.55-3.48,2.12s-2.68,1.03-4.14,1.38c-1.46.35-2.94.62-4.45.82-.03-.14-.1-.3-.19-.49-.1-.19-.19-.35-.29-.47,1.43-.15,2.85-.39,4.27-.71,1.42-.32,2.75-.74,4.01-1.25s2.37-1.15,3.33-1.91c.97-.75,1.73-1.64,2.29-2.66v-.21ZM351.25,555.99h16.48v.98h-16.48v-.98ZM351.66,562.65h13.37v.98h-13.37v-.98ZM355.36,563.57c.76,1.11,1.79,2.07,3.08,2.86,1.29.8,2.78,1.45,4.46,1.94s3.47.85,5.38,1.06c-.08.08-.16.17-.24.29-.08.11-.16.23-.24.34s-.14.22-.18.31c-1.9-.24-3.7-.64-5.4-1.18-1.7-.54-3.22-1.24-4.56-2.11-1.35-.87-2.43-1.91-3.25-3.13l.96-.39ZM355.27,553.73h1.07v6.21h6.37v-6.21h1.1v7.14h-8.54v-7.14ZM357.94,549.62h1.12v2.94h-1.12v-2.94Z"/>
          </g>
          <g>
            <path class="cls-6" d="M422.82,568.66v-.82c1.75-1.77,3.2-3.3,4.36-4.6,1.16-1.3,2.03-2.46,2.62-3.49.59-1.03.89-2.01.89-2.96,0-.65-.12-1.24-.35-1.77-.24-.52-.6-.94-1.11-1.24-.5-.3-1.15-.46-1.94-.46-.72,0-1.39.2-2.02.59s-1.19.89-1.68,1.48l-.84-.8c.62-.7,1.31-1.27,2.05-1.72.75-.45,1.62-.67,2.62-.67s1.8.19,2.49.57c.68.38,1.21.91,1.57,1.6s.55,1.48.55,2.4c0,1.05-.3,2.12-.9,3.21-.6,1.09-1.45,2.25-2.53,3.48-1.09,1.23-2.35,2.62-3.8,4.15.44-.03.9-.06,1.37-.09.47-.03.92-.04,1.35-.04h5.34v1.19h-10.04Z"/>
            <path class="cls-6" d="M440.12,568.95c-1.04,0-1.92-.33-2.65-.98-.73-.65-1.29-1.61-1.68-2.86-.39-1.26-.58-2.78-.58-4.58s.19-3.31.58-4.55c.39-1.24.95-2.18,1.68-2.82.73-.64,1.61-.96,2.65-.96s1.92.32,2.65.96c.73.64,1.29,1.58,1.67,2.82.38,1.24.57,2.76.57,4.55s-.19,3.32-.57,4.58c-.38,1.25-.94,2.21-1.67,2.86-.73.65-1.61.98-2.65.98ZM440.12,567.81c.71,0,1.34-.27,1.88-.81.54-.54.95-1.35,1.24-2.43s.43-2.43.43-4.04-.14-2.97-.43-4.04c-.29-1.06-.7-1.86-1.24-2.38-.54-.52-1.17-.79-1.88-.79s-1.34.26-1.88.79c-.54.53-.96,1.32-1.25,2.38-.3,1.07-.45,2.41-.45,4.04s.15,2.96.45,4.04c.3,1.08.71,1.89,1.25,2.43s1.17.81,1.88.81Z"/>
            <path class="cls-6" d="M447.24,568.66v-.82c1.75-1.77,3.2-3.3,4.36-4.6,1.16-1.3,2.03-2.46,2.62-3.49.59-1.03.89-2.01.89-2.96,0-.65-.12-1.24-.35-1.77-.24-.52-.6-.94-1.11-1.24-.5-.3-1.15-.46-1.94-.46-.72,0-1.39.2-2.02.59s-1.19.89-1.68,1.48l-.84-.8c.62-.7,1.31-1.27,2.05-1.72.75-.45,1.62-.67,2.62-.67s1.8.19,2.49.57c.68.38,1.21.91,1.57,1.6s.55,1.48.55,2.4c0,1.05-.3,2.12-.9,3.21-.6,1.09-1.45,2.25-2.53,3.48-1.09,1.23-2.35,2.62-3.8,4.15.44-.03.9-.06,1.37-.09.47-.03.92-.04,1.35-.04h5.34v1.19h-10.04Z"/>
            <path class="cls-6" d="M459.45,568.66v-.82c1.75-1.77,3.2-3.3,4.36-4.6,1.16-1.3,2.03-2.46,2.62-3.49.59-1.03.89-2.01.89-2.96,0-.65-.12-1.24-.35-1.77-.24-.52-.6-.94-1.11-1.24-.5-.3-1.15-.46-1.94-.46-.72,0-1.39.2-2.02.59s-1.19.89-1.68,1.48l-.84-.8c.62-.7,1.31-1.27,2.05-1.72.75-.45,1.62-.67,2.62-.67s1.8.19,2.49.57c.68.38,1.21.91,1.57,1.6s.55,1.48.55,2.4c0,1.05-.3,2.12-.9,3.21-.6,1.09-1.45,2.25-2.53,3.48-1.09,1.23-2.35,2.62-3.8,4.15.44-.03.9-.06,1.37-.09.47-.03.92-.04,1.35-.04h5.34v1.19h-10.04Z"/>
            <path class="cls-6" d="M471.82,563.79h20.49v1.07h-20.49v-1.07ZM477.35,549.53l1.1.3c-.43,1.11-.93,2.19-1.51,3.23-.58,1.04-1.21,2.01-1.88,2.9-.68.89-1.39,1.68-2.13,2.36-.06-.05-.15-.11-.26-.21-.11-.09-.23-.18-.35-.27-.12-.09-.24-.16-.34-.21.76-.65,1.48-1.41,2.15-2.26.67-.85,1.28-1.78,1.83-2.77s1.02-2.02,1.42-3.07ZM475.68,557.56h15.15v1.05h-14.06v5.75h-1.1v-6.8ZM476.5,552.52h14.86v1.05h-15.41l.55-1.05ZM482.59,553.09h1.12v17.28h-1.12v-17.28Z"/>
            <path class="cls-6" d="M496.36,552h1.05v6.69c0,.85-.02,1.78-.07,2.8s-.15,2.04-.3,3.09-.37,2.08-.66,3.08c-.29,1-.67,1.93-1.14,2.78-.06-.06-.15-.13-.26-.22-.11-.08-.23-.16-.34-.24s-.22-.13-.31-.16c.46-.82.82-1.7,1.1-2.65s.48-1.91.62-2.91c.14-1,.22-1.97.26-2.92s.06-1.84.06-2.66v-6.69ZM496.9,552h17.98v1.03h-17.98v-1.03ZM511.74,562.65h.23l.21-.05.71.41c-.64,1.16-1.47,2.16-2.49,3-1.02.84-2.18,1.55-3.48,2.12s-2.68,1.03-4.14,1.38c-1.46.35-2.94.62-4.45.82-.03-.14-.1-.3-.19-.49-.1-.19-.19-.35-.29-.47,1.43-.15,2.85-.39,4.27-.71,1.42-.32,2.75-.74,4.01-1.25s2.37-1.15,3.33-1.91c.97-.75,1.73-1.64,2.29-2.66v-.21ZM498.25,555.99h16.48v.98h-16.48v-.98ZM498.66,562.65h13.37v.98h-13.37v-.98ZM502.36,563.57c.76,1.11,1.79,2.07,3.08,2.86,1.29.8,2.78,1.45,4.46,1.94s3.47.85,5.38,1.06c-.08.08-.16.17-.24.29-.08.11-.16.23-.24.34s-.14.22-.18.31c-1.9-.24-3.7-.64-5.4-1.18-1.7-.54-3.22-1.24-4.56-2.11-1.35-.87-2.43-1.91-3.25-3.13l.96-.39ZM502.27,553.73h1.07v6.21h6.37v-6.21h1.1v7.14h-8.54v-7.14ZM504.94,549.62h1.12v2.94h-1.12v-2.94Z"/>
          </g>
        </g>
        <line class="cls-8" x1="62.53" y1="533.07" x2="62.53" y2="6.43"/>
        <g>
          <line class="cls-8" x1="62.53" y1="533.07" x2="76.01" y2="533.07"/>
          <line class="cls-8" x1="62.53" y1="467.24" x2="76.01" y2="467.24"/>
          <line class="cls-8" x1="62.53" y1="401.41" x2="76.01" y2="401.41"/>
          <line class="cls-8" x1="62.53" y1="335.58" x2="76.01" y2="335.58"/>
          <line class="cls-8" x1="62.53" y1="269.75" x2="76.01" y2="269.75"/>
          <line class="cls-8" x1="62.53" y1="203.92" x2="76.01" y2="203.92"/>
          <line class="cls-8" x1="62.53" y1="138.09" x2="76.01" y2="138.09"/>
          <line class="cls-8" x1="62.53" y1="72.26" x2="76.01" y2="72.26"/>
          <line class="cls-8" x1="62.53" y1="6.43" x2="76.01" y2="6.43"/>
        </g>
      </g>
      <g>
        <path class="cls-7" d="M461.42,371.52l-3.22-63.58c-.07-1.29-1.22-2.24-2.5-2.05l-63,9.2c-1.88.27-2.54,2.65-1.07,3.86l19.85,16.3c-5.49,7.64-12.24,14.62-19.49,20.89-40.76,34.28-97.16,55.28-148.94,66.31-22.02,4.45-44.57,7.29-67.1,6.32,5.58,1.01,11.22,1.75,16.89,2.3,74.6,6.83,193.19-16.99,246.31-73.09l18.7,15.36c1.47,1.21,3.67.1,3.57-1.8Z"/>
        <path class="cls-1" d="M461.42,371.52l-3.22-63.58c-.07-1.29-1.22-2.24-2.5-2.05l-63,9.2c-1.88.27-2.54,2.65-1.07,3.86l19.85,16.3c-5.49,7.64-12.24,14.62-19.49,20.89-40.76,34.28-97.16,55.28-148.94,66.31-22.02,4.45-44.57,7.29-67.1,6.32,5.58,1.01,11.22,1.75,16.89,2.3,74.6,6.83,193.19-16.99,246.31-73.09l18.7,15.36c1.47,1.21,3.67.1,3.57-1.8Z"/>
      </g>
    </g>
  </g>
</svg>