<?xml version="1.0" encoding="UTF-8"?>
<svg id="_レイヤー_2" data-name="レイヤー 2" xmlns="http://www.w3.org/2000/svg" viewBox="0 0 390.43 202.49">
  <defs>
    <style>
      .cls-1 {
        fill: #4d4d4d;
        stroke-width: 0px;
      }
    </style>
  </defs>
  <g id="_レイヤー_1-2" data-name="レイヤー 1">
    <g>
      <g>
        <path class="cls-1" d="M10.65,31.87l2.91.69c-.68,2.2-1.54,4.39-2.58,6.57-1.04,2.18-2.3,4.21-3.77,6.07-1.47,1.87-3.17,3.48-5.08,4.82-.14-.2-.32-.43-.54-.7-.22-.27-.45-.54-.68-.81s-.45-.48-.64-.64c1.34-.92,2.56-1.99,3.66-3.2,1.1-1.21,2.08-2.52,2.96-3.93.87-1.41,1.62-2.87,2.25-4.37s1.13-3,1.52-4.5ZM1.08,35.68h26.49v2.67H1.08v-2.67ZM6.69,41.32h15.24v2.52h-12.45v15.87h-2.79v-18.39ZM8.73,46.42h13.62v2.4h-13.62v-2.4ZM8.73,51.46h13.62v2.4h-13.62v-2.4ZM21.33,41.32h2.76v15.15c0,.76-.1,1.35-.29,1.79-.19.43-.55.76-1.09,1-.54.2-1.25.33-2.12.38s-1.94.08-3.19.08c-.04-.4-.15-.87-.33-1.39-.18-.53-.36-.99-.54-1.37.6.02,1.18.04,1.74.06.56.02,1.05.03,1.47.01.42,0,.72-.01.9-.01.26,0,.44-.04.54-.14.1-.09.15-.24.15-.46v-15.09Z"/>
        <path class="cls-1" d="M30.97,49.27l2.4.42c-.18,1.42-.45,2.82-.79,4.2-.35,1.38-.76,2.55-1.22,3.51-.16-.1-.37-.22-.63-.36-.26-.14-.54-.28-.82-.41-.29-.13-.54-.23-.74-.29.48-.92.86-2.01,1.16-3.27.29-1.26.5-2.53.65-3.81ZM29.44,45.25c1.34-.04,2.94-.1,4.79-.18,1.85-.08,3.73-.17,5.65-.27l-.03,2.31c-1.82.12-3.62.23-5.39.34-1.77.11-3.36.22-4.78.32l-.24-2.52ZM29.53,38.56l1.38-1.89c.56.46,1.12.96,1.68,1.51.56.55,1.08,1.1,1.55,1.65.47.55.83,1.05,1.09,1.51l-1.5,2.16c-.26-.46-.62-.99-1.08-1.58s-.96-1.18-1.5-1.77-1.08-1.12-1.62-1.61ZM37.6,35.38l2.34,1.08c-.68,1.14-1.44,2.34-2.28,3.6-.84,1.26-1.69,2.47-2.54,3.64s-1.66,2.2-2.42,3.08l-1.71-.93c.56-.68,1.14-1.46,1.75-2.33.61-.87,1.21-1.77,1.8-2.71.59-.94,1.14-1.88,1.67-2.82.52-.94.98-1.81,1.38-2.61ZM34.21,31.9l2.46.96c-.38.74-.79,1.51-1.21,2.32-.43.81-.86,1.58-1.29,2.31-.43.73-.84,1.38-1.21,1.93l-1.92-.84c.38-.6.76-1.29,1.15-2.07s.77-1.58,1.12-2.38.66-1.55.9-2.24ZM34.27,46.42h2.49v13.38h-2.49v-13.38ZM36.61,42.43l1.95-.78c.4.66.78,1.37,1.15,2.13s.69,1.49.98,2.21c.28.71.49,1.35.63,1.93l-2.07.93c-.12-.58-.31-1.24-.58-1.98s-.58-1.5-.93-2.28-.73-1.5-1.12-2.16ZM37.33,49.69l2.04-.66c.4.86.77,1.8,1.12,2.82.35,1.02.61,1.9.79,2.64l-2.16.78c-.14-.76-.38-1.67-.72-2.71-.34-1.05-.7-2-1.08-2.86ZM48.55,35.14c-.54.94-1.21,1.95-2.01,3.03-.8,1.08-1.69,2.13-2.65,3.17-.97,1.03-1.99,1.96-3.05,2.78-.16-.36-.4-.78-.72-1.26-.32-.48-.62-.87-.9-1.17,1.06-.8,2.09-1.74,3.1-2.82,1.01-1.08,1.93-2.2,2.76-3.36.83-1.16,1.5-2.25,2-3.27h2.73c.7,1.1,1.5,2.22,2.4,3.36s1.86,2.21,2.88,3.21,2.02,1.84,3,2.52c-.3.36-.61.78-.93,1.26-.32.48-.6.94-.84,1.38-.92-.76-1.88-1.65-2.86-2.67-.99-1.02-1.91-2.07-2.75-3.15s-1.56-2.08-2.16-3ZM42.37,47.44h13.11v12.15h-2.7v-9.6h-7.77v9.72h-2.64v-12.27ZM43.78,41.68h9.96v2.58h-9.96v-2.58ZM43.84,55.54h10.47v2.52h-10.47v-2.52Z"/>
        <path class="cls-1" d="M0,87.82c.98-.12,2.11-.26,3.39-.42s2.64-.34,4.08-.55,2.88-.42,4.32-.62l.15,2.61c-2.02.32-4.04.65-6.04.98-2.01.33-3.8.61-5.36.85l-.54-2.85ZM.66,68.2h14.85v2.64H.66v-2.64ZM2.85,69.22h2.73v19.56h-2.73v-19.56ZM4.35,74.32h7.53v2.58h-7.53v-2.58ZM4.35,80.56h7.53v2.55h-7.53v-2.55ZM10.77,69.22h2.73v24.99h-2.73v-24.99ZM24.63,70.42h.48l.51-.12,1.83.48c-.44,4.02-1.2,7.52-2.28,10.5s-2.45,5.5-4.11,7.57-3.59,3.75-5.79,5.05c-.22-.36-.51-.77-.87-1.23-.36-.46-.69-.82-.99-1.08,1.98-1.04,3.74-2.51,5.28-4.42,1.54-1.91,2.82-4.22,3.84-6.93,1.02-2.71,1.72-5.78,2.1-9.2v-.63ZM14.73,70.42h10.71v2.76h-10.71v-2.76ZM17.79,73.27c.52,2.76,1.25,5.33,2.19,7.73.94,2.39,2.13,4.5,3.57,6.31,1.44,1.82,3.16,3.26,5.16,4.32-.22.18-.46.41-.71.69-.25.28-.49.57-.72.86-.23.29-.42.55-.55.79-2.14-1.24-3.96-2.84-5.46-4.81-1.5-1.97-2.75-4.25-3.75-6.84-1-2.59-1.81-5.43-2.43-8.51l2.7-.54Z"/>
        <path class="cls-1" d="M36.12,73.06l2.49,1.02c-.7,1.2-1.52,2.4-2.45,3.6-.93,1.2-1.91,2.33-2.94,3.41-1.03,1.07-2.05,2-3.07,2.8-.08-.22-.2-.51-.36-.87s-.34-.72-.54-1.09c-.2-.37-.37-.66-.51-.88.9-.64,1.8-1.39,2.71-2.25s1.77-1.78,2.58-2.76c.81-.98,1.5-1.97,2.08-2.97ZM35.49,66.46l2.7,1.08c-.62.88-1.35,1.77-2.19,2.67-.84.9-1.72,1.75-2.64,2.55-.92.8-1.84,1.51-2.76,2.13-.1-.24-.24-.5-.42-.79-.18-.29-.36-.58-.54-.87s-.35-.53-.51-.74c.8-.5,1.6-1.08,2.42-1.75.81-.67,1.56-1.38,2.25-2.13.69-.75,1.25-1.46,1.69-2.14ZM33.3,78.97l2.67-2.64.12.06v17.85h-2.79v-15.27ZM37.98,83.74h18.84v2.43h-18.84v-2.43ZM38.7,79.18h17.55v2.37h-17.55v-2.37ZM40.32,87.7l2.01-1.35c.66.62,1.35,1.32,2.07,2.08.72.77,1.27,1.45,1.65,2.03l-2.13,1.53c-.22-.4-.54-.85-.95-1.35-.41-.5-.85-1.01-1.3-1.53-.46-.52-.91-.99-1.35-1.41ZM40.41,67.3h14.61v10.14h-14.61v-10.14ZM43.14,69.37v2.01h9.03v-2.01h-9.03ZM43.14,73.33v2.04h9.03v-2.04h-9.03ZM49.65,81.25h2.85v10.05c0,.7-.09,1.25-.27,1.63-.18.39-.52.69-1.02.88-.5.2-1.12.32-1.88.36s-1.66.06-2.74.06c-.06-.38-.18-.8-.36-1.27-.18-.47-.37-.9-.57-1.27.76.02,1.46.03,2.12.04.65,0,1.07,0,1.27-.02.24-.02.4-.06.48-.12.08-.06.12-.18.12-.36v-9.99Z"/>
        <path class="cls-1" d="M58.72,82.03c.96-.32,2.11-.76,3.45-1.31s2.71-1.09,4.11-1.63l.51,2.1c-1.14.56-2.29,1.11-3.46,1.66-1.17.55-2.25,1.04-3.23,1.49l-1.38-2.31ZM58.93,85.87h26.94v2.64h-26.94v-2.64ZM59.71,74.71l1.89-1.56c.54.28,1.11.61,1.71.99.6.38,1.17.76,1.71,1.14.54.38.98.74,1.32,1.08l-1.98,1.71c-.32-.32-.75-.68-1.28-1.09-.53-.41-1.08-.81-1.67-1.21-.58-.4-1.15-.75-1.71-1.05ZM59.86,69.58h25.11v2.58h-25.11v-2.58ZM65.74,81.46c.98-.04,2.1-.08,3.38-.13,1.27-.05,2.61-.12,4.03-.2s2.85-.15,4.29-.21v2.04c-2.02.18-4.02.34-6,.48-1.98.14-3.74.27-5.28.39l-.42-2.37ZM66.07,76.09l1.38-1.65c.58.34,1.19.73,1.84,1.17.65.44,1.26.88,1.85,1.3.58.43,1.05.82,1.41,1.18l-1.41,1.89c-.36-.38-.83-.8-1.4-1.26-.57-.46-1.18-.92-1.81-1.39-.64-.47-1.26-.88-1.86-1.25ZM74.86,73.75l2.22,1.05c-.8.96-1.68,1.96-2.62,2.98-.95,1.03-1.91,2.02-2.88,2.97-.97.95-1.89,1.79-2.75,2.5l-1.68-.93c.86-.76,1.76-1.63,2.7-2.62.94-.99,1.85-2,2.75-3.04.89-1.04,1.64-2.01,2.27-2.91ZM70.42,71.5l2.43.9c-.58.78-1.19,1.56-1.81,2.34-.63.78-1.21,1.45-1.75,2.01l-1.83-.81c.34-.4.69-.87,1.06-1.4.37-.53.72-1.07,1.06-1.6.34-.54.62-1.02.84-1.44ZM70.81,66.4h2.94v4.23h-2.94v-4.23ZM70.81,83.71h2.94v10.59h-2.94v-10.59ZM73.87,79.06l2.04-.9c.46.54.93,1.14,1.41,1.8s.92,1.3,1.3,1.93c.39.63.69,1.21.89,1.73l-2.16,1.05c-.2-.52-.48-1.1-.84-1.75-.36-.65-.77-1.31-1.23-2-.46-.68-.93-1.3-1.41-1.86ZM77.32,80.35l1.95-1.56c.74.36,1.53.78,2.37,1.24.84.47,1.64.95,2.4,1.43.76.48,1.39.93,1.89,1.35l-2.07,1.74c-.46-.4-1.06-.85-1.8-1.35-.74-.5-1.53-1-2.35-1.5-.83-.5-1.62-.95-2.38-1.35ZM82.33,72.79l2.52,1.26c-.76.7-1.58,1.38-2.44,2.03-.87.65-1.67,1.21-2.39,1.69l-2.07-1.14c.48-.34.99-.73,1.53-1.17s1.06-.89,1.56-1.37c.5-.47.93-.9,1.29-1.3Z"/>
      </g>
      <g>
        <path class="cls-1" d="M.75,153.15h27.12v2.85H.75v-2.85ZM2.34,140.43h23.79v2.82H2.34v-2.82ZM4.32,145.23l2.58-.75c.38.68.74,1.42,1.09,2.21.35.79.67,1.56.96,2.31s.5,1.42.62,1.99l-2.73.9c-.14-.58-.34-1.25-.58-2.01-.25-.76-.55-1.55-.89-2.37-.34-.82-.69-1.58-1.05-2.28ZM12.78,141.57h2.94v24.72h-2.94v-24.72ZM21.6,144.36l3.03.81c-.36.78-.75,1.58-1.17,2.4-.42.82-.83,1.61-1.23,2.36-.4.75-.78,1.42-1.14,2l-2.49-.78c.36-.6.73-1.29,1.11-2.08.38-.79.73-1.6,1.06-2.43s.6-1.58.82-2.26Z"/>
        <path class="cls-1" d="M27.45,158.61c.86-.32,1.85-.7,2.98-1.12,1.13-.43,2.33-.9,3.58-1.4,1.26-.5,2.51-1,3.75-1.5l.6,2.64c-1.68.74-3.4,1.48-5.15,2.22-1.75.74-3.33,1.41-4.75,2.01l-1.02-2.85ZM28.05,145.35h9.51v2.7h-9.51v-2.7ZM31.56,138.75h2.76v19.77h-2.76v-19.77ZM41.55,138.45l2.88.63c-.42,1.54-.94,3.04-1.56,4.5-.62,1.46-1.3,2.82-2.04,4.08-.74,1.26-1.52,2.37-2.34,3.33-.16-.18-.39-.38-.69-.61-.3-.23-.61-.46-.93-.67-.32-.22-.6-.4-.84-.54,1.24-1.28,2.33-2.86,3.27-4.75.94-1.89,1.69-3.88,2.25-5.96ZM38.28,158.97c.9-.3,1.94-.65,3.12-1.05,1.18-.4,2.44-.84,3.78-1.33,1.34-.49,2.67-.97,3.99-1.46l.51,2.43c-1.76.7-3.55,1.41-5.37,2.13-1.82.72-3.46,1.37-4.92,1.95l-1.11-2.67ZM39.75,149.49h9.09v2.55h-9.09v-2.55ZM41.07,143.37h11.94v2.7h-11.94v-2.7ZM52.14,143.37h2.88c-.02.38-.03.68-.03.9s-.01.4-.03.54c-.1,3.4-.21,6.29-.33,8.69-.12,2.39-.25,4.35-.4,5.87s-.33,2.71-.54,3.58c-.21.87-.46,1.5-.77,1.88-.36.5-.75.85-1.15,1.04-.41.19-.91.33-1.48.41-.52.08-1.2.11-2.04.1-.84,0-1.71-.04-2.61-.07-.02-.42-.12-.91-.28-1.46-.17-.55-.39-1.03-.65-1.43.96.08,1.84.13,2.64.14.8.01,1.38.01,1.74.01.3.02.54,0,.73-.07s.36-.21.52-.41c.24-.26.46-.79.65-1.6s.35-1.96.5-3.45c.14-1.49.27-3.38.38-5.68s.21-5.08.29-8.34v-.63Z"/>
        <path class="cls-1" d="M0,194.4c.98-.12,2.11-.26,3.39-.42s2.64-.34,4.08-.55,2.88-.42,4.32-.62l.15,2.61c-2.02.32-4.04.65-6.04.98-2.01.33-3.8.61-5.36.85l-.54-2.85ZM.66,174.78h14.85v2.64H.66v-2.64ZM2.85,175.8h2.73v19.56h-2.73v-19.56ZM4.35,180.9h7.53v2.58h-7.53v-2.58ZM4.35,187.14h7.53v2.55h-7.53v-2.55ZM10.77,175.8h2.73v24.99h-2.73v-24.99ZM24.63,177h.48l.51-.12,1.83.48c-.44,4.02-1.2,7.52-2.28,10.5s-2.45,5.5-4.11,7.57-3.59,3.75-5.79,5.05c-.22-.36-.51-.77-.87-1.23-.36-.46-.69-.82-.99-1.08,1.98-1.04,3.74-2.51,5.28-4.42,1.54-1.91,2.82-4.22,3.84-6.93,1.02-2.71,1.72-5.78,2.1-9.2v-.63ZM14.73,177h10.71v2.76h-10.71v-2.76ZM17.79,179.85c.52,2.76,1.25,5.33,2.19,7.73.94,2.39,2.13,4.5,3.57,6.31,1.44,1.82,3.16,3.26,5.16,4.32-.22.18-.46.41-.71.69-.25.28-.49.57-.72.86-.23.29-.42.55-.55.79-2.14-1.24-3.96-2.84-5.46-4.81-1.5-1.97-2.75-4.25-3.75-6.84-1-2.59-1.81-5.43-2.43-8.51l2.7-.54Z"/>
        <path class="cls-1" d="M36.12,179.64l2.49,1.02c-.7,1.2-1.52,2.4-2.45,3.6-.93,1.2-1.91,2.33-2.94,3.41-1.03,1.07-2.05,2-3.07,2.8-.08-.22-.2-.51-.36-.87s-.34-.72-.54-1.09c-.2-.37-.37-.66-.51-.88.9-.64,1.8-1.39,2.71-2.25s1.77-1.78,2.58-2.76c.81-.98,1.5-1.97,2.08-2.97ZM35.49,173.04l2.7,1.08c-.62.88-1.35,1.77-2.19,2.67-.84.9-1.72,1.75-2.64,2.55-.92.8-1.84,1.51-2.76,2.13-.1-.24-.24-.5-.42-.79-.18-.29-.36-.58-.54-.87s-.35-.53-.51-.74c.8-.5,1.6-1.08,2.42-1.75.81-.67,1.56-1.38,2.25-2.13.69-.75,1.25-1.46,1.69-2.14ZM33.3,185.55l2.67-2.64.12.06v17.85h-2.79v-15.27ZM37.98,190.32h18.84v2.43h-18.84v-2.43ZM38.7,185.76h17.55v2.37h-17.55v-2.37ZM40.32,194.28l2.01-1.35c.66.62,1.35,1.32,2.07,2.08.72.77,1.27,1.45,1.65,2.03l-2.13,1.53c-.22-.4-.54-.85-.95-1.35-.41-.5-.85-1.01-1.3-1.53-.46-.52-.91-.99-1.35-1.41ZM40.41,173.88h14.61v10.14h-14.61v-10.14ZM43.14,175.95v2.01h9.03v-2.01h-9.03ZM43.14,179.91v2.04h9.03v-2.04h-9.03ZM49.65,187.83h2.85v10.05c0,.7-.09,1.25-.27,1.63-.18.39-.52.69-1.02.88-.5.2-1.12.32-1.88.36s-1.66.06-2.74.06c-.06-.38-.18-.8-.36-1.27-.18-.47-.37-.9-.57-1.27.76.02,1.46.03,2.12.04.65,0,1.07,0,1.27-.02.24-.02.4-.06.48-.12.08-.06.12-.18.12-.36v-9.99Z"/>
        <path class="cls-1" d="M60.5,174.9h20.22v25.47h-3.06v-22.59h-14.25v22.71h-2.91v-25.59ZM62.42,195.66h16.56v2.85h-16.56v-2.85ZM62.45,185.16h16.5v2.82h-16.5v-2.82Z"/>
        <path class="cls-1" d="M90.47,179.37l1.86,1.11c-.5.82-1.12,1.65-1.88,2.47-.75.83-1.56,1.6-2.43,2.3s-1.74,1.29-2.6,1.77c-.16-.32-.38-.69-.66-1.11-.28-.42-.56-.76-.84-1.02.84-.34,1.67-.8,2.51-1.38.83-.58,1.6-1.23,2.31-1.95.71-.72,1.29-1.45,1.73-2.19ZM84.14,188.82h14.94v2.34h-14.94v-2.34ZM94.04,190.32l2.64.3c-.28,1.5-.69,2.81-1.23,3.93-.54,1.12-1.26,2.08-2.16,2.88-.9.8-2,1.47-3.29,2.02-1.29.55-2.82,1.02-4.58,1.4-.08-.4-.24-.82-.46-1.26-.23-.44-.48-.81-.73-1.11,2.06-.32,3.75-.79,5.08-1.42,1.33-.63,2.37-1.5,3.12-2.59s1.28-2.48,1.6-4.14ZM84.38,178.29h14.58v2.28h-14.58v-2.28ZM89.66,186.42l2.64.57c-.48,1-1,2.05-1.56,3.15-.56,1.1-1.11,2.16-1.65,3.18-.54,1.02-1.05,1.93-1.53,2.73l-2.49-.81c.46-.76.96-1.64,1.52-2.65.55-1.01,1.09-2.05,1.62-3.13.53-1.08,1.01-2.09,1.45-3.03ZM85.34,174.45l2.1-.87c.42.6.8,1.26,1.15,1.97.35.71.59,1.33.74,1.84l-2.19.99c-.12-.54-.35-1.17-.69-1.91-.34-.73-.71-1.41-1.11-2.02ZM87.23,195.03l1.53-1.95c1.18.46,2.36.98,3.54,1.55,1.18.57,2.27,1.16,3.29,1.77,1.01.61,1.86,1.18,2.56,1.72l-1.95,2.04c-.66-.56-1.47-1.15-2.43-1.77s-2-1.22-3.12-1.8c-1.12-.58-2.26-1.1-3.42-1.56ZM90.38,172.95h2.64v13.86h-2.64v-13.86ZM92.75,180.33c.26.14.65.37,1.15.68.51.31,1.06.64,1.65.99s1.13.68,1.62.99c.49.31.83.54,1.04.71l-1.53,1.98c-.26-.24-.62-.55-1.08-.93-.46-.38-.96-.77-1.48-1.18-.53-.41-1.04-.8-1.53-1.17-.49-.37-.9-.67-1.22-.88l1.38-1.17ZM96.02,173.46l2.43.99c-.46.68-.93,1.36-1.4,2.04-.47.68-.9,1.27-1.3,1.77l-1.89-.87c.38-.54.77-1.19,1.19-1.94.41-.75.73-1.41.98-1.99ZM107.45,180.03l2.88.27c-.46,3.44-1.16,6.47-2.09,9.09-.93,2.62-2.2,4.88-3.81,6.77-1.61,1.89-3.68,3.47-6.2,4.75-.08-.22-.22-.49-.42-.82-.2-.33-.41-.66-.63-.97-.22-.32-.42-.57-.6-.75,2.32-1.08,4.21-2.46,5.69-4.12,1.47-1.67,2.61-3.69,3.42-6.04.81-2.36,1.4-5.08,1.75-8.16ZM101.72,172.95l2.88.42c-.32,2-.73,3.93-1.23,5.79-.5,1.86-1.1,3.58-1.8,5.16-.7,1.58-1.5,2.97-2.4,4.17-.14-.18-.35-.39-.63-.63-.28-.24-.57-.49-.87-.74-.3-.25-.56-.44-.78-.58.86-1.06,1.6-2.3,2.22-3.74.62-1.43,1.15-2.99,1.59-4.67s.78-3.41,1.02-5.19ZM102.74,180.66c.42,2.66,1.02,5.16,1.81,7.49s1.82,4.37,3.09,6.12c1.27,1.75,2.83,3.12,4.69,4.1-.22.18-.46.41-.72.71-.26.29-.5.58-.72.88-.22.3-.41.58-.57.84-1.98-1.16-3.63-2.71-4.95-4.63s-2.4-4.17-3.23-6.72c-.83-2.55-1.5-5.33-2-8.36l2.58-.42ZM101.18,178.47h10.83v2.61h-10.83v-2.61Z"/>
      </g>
      <g>
        <path class="cls-1" d="M174.72,2.59v35.91c0,.49-.73,1.56-2.19,3.18-1.46,1.63-2.61,2.46-3.43,2.5.87,0,2.02.71,3.46,2.13,1.44,1.42,2.16,2.52,2.16,3.31v40.6c0,.54-.23,1.1-.68,1.7-.45.6-1.07.9-1.85.9h-61.92c-.82,0-1.45-.3-1.89-.9-.43-.6-.65-1.16-.65-1.7v-40.36c0-.49.73-1.57,2.19-3.21,1.46-1.65,2.61-2.47,3.43-2.47-.82,0-1.97-.82-3.43-2.47-1.46-1.65-2.19-2.72-2.19-3.21V2.59c0-.53.22-1.1.65-1.7.43-.6,1.06-.9,1.89-.9h61.92c.78,0,1.4.3,1.85.9.45.6.68,1.17.68,1.7ZM154.63,34.79v-14.71h-26.82v14.71h26.82ZM154.63,72.74v-17.86h-26.82v17.86h26.82Z"/>
        <path class="cls-1" d="M252.22,2.59v87.63c0,.54-.23,1.1-.68,1.7-.45.6-1.07.9-1.85.9h-61.92c-.82,0-1.45-.3-1.89-.9-.43-.6-.65-1.16-.65-1.7V2.59c0-.53.22-1.1.65-1.7.43-.6,1.06-.9,1.89-.9h61.92c.78,0,1.4.3,1.85.9.45.6.68,1.17.68,1.7ZM232.14,72.74V20.08h-26.82v52.65h26.82Z"/>
        <path class="cls-1" d="M269.02,81.24c.41,0,.74.16.98.47.24.31.36.61.36.89v8.55c0,.28-.12.58-.36.89-.24.31-.56.47-.98.47h-7.9c-.41,0-.74-.16-.98-.47-.24-.31-.36-.61-.36-.89v-8.55c0-.28.12-.58.36-.89.24-.31.56-.47.98-.47h7.9Z"/>
        <path class="cls-1" d="M328.84,21.83v27.4c0,.38-.56,1.19-1.67,2.43-1.12,1.24-1.99,1.88-2.62,1.91.66,0,1.54.54,2.64,1.63,1.1,1.08,1.65,1.93,1.65,2.52v30.98c0,.41-.17.84-.52,1.3-.35.46-.82.68-1.41.68h-47.25c-.63,0-1.11-.23-1.44-.68-.33-.46-.5-.89-.5-1.3v-30.79c0-.38.56-1.19,1.67-2.45,1.12-1.26,1.99-1.89,2.62-1.89-.63,0-1.5-.63-2.62-1.89-1.12-1.26-1.67-2.08-1.67-2.45v-27.4c0-.41.17-.84.5-1.3s.81-.68,1.44-.68h47.25c.6,0,1.07.23,1.41.68.35.46.52.89.52,1.3ZM313.51,46.4v-11.22h-20.46v11.22h20.46ZM313.51,75.35v-13.63h-20.46v13.63h20.46Z"/>
        <path class="cls-1" d="M344.08,48.23c1.97-1.01,4.8-1.17,7.03-1.17,9.06,0,10.18,4.42,10.18,12.42,0,3.68-.27,8.47-3.89,10.5-1.97,1.07-4.85,1.17-7.03,1.17-8.79,0-10.23-4.1-10.23-12.04,0-3.78.21-8.79,3.94-10.87ZM350.68,53.45c-4.1,0-4.1,2.4-4.1,5.86,0,3.89.43,5.43,4.26,5.43s4-2.29,4-5.86c0-3.78-.43-5.43-4.16-5.43ZM380.47,47.49l-23.82,41.99h-6.55l23.82-41.99h6.55ZM373.17,66.99c1.97-1.07,4.85-1.17,7.03-1.17,9.06,0,10.23,4.42,10.23,12.42,0,3.68-.32,8.47-3.94,10.5-1.97,1.07-4.85,1.17-7.03,1.17-8.79,0-10.18-4.1-10.18-12.04,0-3.78.16-8.79,3.89-10.87ZM379.78,72.21c-4.05,0-4.05,2.34-4.05,5.86,0,3.84.37,5.43,4.21,5.43s4-2.29,4-5.86c0-3.78-.43-5.43-4.16-5.43Z"/>
      </g>
      <g>
        <path class="cls-1" d="M158.21,110.98v87.63c0,.54-.23,1.1-.68,1.7-.45.6-1.07.9-1.85.9h-15.02c-.78,0-1.4-.3-1.85-.9-.45-.6-.68-1.16-.68-1.7v-70.14h-7.23c-.54,0-1.1-.23-1.7-.68-.6-.45-.9-1.07-.9-1.85v-15.02c0-.78.3-1.4.9-1.85.6-.45,1.16-.68,1.7-.68h24.78c.78,0,1.4.3,1.85.9.45.6.68,1.17.68,1.7Z"/>
        <path class="cls-1" d="M188.81,128.47v11.56h44.37c.78,0,1.4.3,1.85.9.45.6.68,1.17.68,1.7v55.99c0,.54-.23,1.1-.68,1.7-.45.6-1.07.9-1.85.9h-61.61c-.54,0-1.1-.23-1.7-.68-.6-.45-.9-1.07-.9-1.85v-28.3c0-.54.23-1.1.68-1.7.45-.6,1.07-.9,1.85-.9h15.02c.78,0,1.4.3,1.85.9.45.6.68,1.17.68,1.7v10.75h26.57v-21.01h-44.37c-.78,0-1.4-.3-1.85-.9-.45-.6-.68-1.16-.68-1.7v-46.54c0-.53.23-1.1.68-1.7.45-.6,1.07-.9,1.85-.9h61.92c.54,0,1.1.23,1.7.68.6.45.9,1.07.9,1.85v15.02c0,.78-.3,1.4-.9,1.85-.6.45-1.16.68-1.7.68h-44.37Z"/>
        <path class="cls-1" d="M252.51,189.63c.41,0,.74.16.98.47.24.31.36.61.36.89v8.55c0,.28-.12.58-.36.89-.24.31-.56.47-.98.47h-7.9c-.41,0-.74-.16-.98-.47-.24-.31-.36-.61-.36-.89v-8.55c0-.28.12-.58.36-.89.24-.31.56-.47.98-.47h7.9Z"/>
        <path class="cls-1" d="M289.23,154.97h7.78v-11.41h-20.46v8.39c0,.41-.17.84-.52,1.3-.35.46-.82.68-1.41.68h-11.46c-.63,0-1.11-.23-1.44-.68-.33-.46-.5-.89-.5-1.3v-21.74c0-.41.17-.84.5-1.3s.81-.68,1.44-.68h47.25c.6,0,1.07.23,1.41.68.35.46.52.89.52,1.3v27.58c0,.38-.56,1.19-1.67,2.43-1.12,1.24-1.99,1.88-2.62,1.91.66,0,1.54.54,2.64,1.63,1.1,1.08,1.65,1.93,1.65,2.52v30.79c0,.41-.17.84-.52,1.3-.35.46-.82.68-1.41.68h-47.25c-.63,0-1.11-.23-1.44-.68-.33-.46-.5-.89-.5-1.3v-21.22c0-.41.17-.84.5-1.3.33-.46.81-.68,1.44-.68h11.46c.6,0,1.07.23,1.41.68.35.46.52.89.52,1.3v7.87h20.46v-13.44h-17.73c-.41,0-.84-.17-1.3-.52-.46-.35-.68-.82-.68-1.41v-11.46c0-.63.23-1.11.68-1.44.46-.33.89-.5,1.3-.5h9.95Z"/>
        <path class="cls-1" d="M365.28,154.38v48.12h-8.53v-2.13h-24.08v2.13h-8.53v-48.12h41.14ZM356.76,162.37h-24.08v10.6h24.08v-10.6ZM332.67,180.7v11.72h24.08v-11.72h-24.08Z"/>
      </g>
    </g>
  </g>
</svg>