<?xml version="1.0" encoding="UTF-8"?>
<svg id="_レイヤー_2" data-name="レイヤー 2" xmlns="http://www.w3.org/2000/svg" viewBox="0 0 443.23 134.01">
  <defs>
    <style>
      .cls-1 {
        fill: #4d4d4d;
        stroke-width: 0px;
      }
    </style>
  </defs>
  <g id="_レイヤー_1-2" data-name="レイヤー 1">
    <g>
      <g>
        <path class="cls-1" d="M.93,77.66h27.21v2.85H.93v-2.85ZM20.61,79.01l3.06.69c-.56,3-1.35,5.58-2.37,7.74s-2.35,3.98-3.98,5.45c-1.63,1.47-3.65,2.66-6.04,3.57s-5.27,1.61-8.61,2.08c-.12-.44-.33-.92-.62-1.44-.29-.52-.58-.96-.88-1.32,3.16-.4,5.86-.99,8.1-1.77,2.24-.78,4.1-1.82,5.6-3.13,1.49-1.31,2.69-2.94,3.62-4.89.92-1.95,1.63-4.27,2.13-6.97ZM11.94,70.64l3.09.54c-.58,1.58-1.21,3.24-1.91,4.98-.69,1.74-1.39,3.48-2.11,5.22-.72,1.74-1.43,3.4-2.13,4.98-.7,1.58-1.35,3.01-1.95,4.29l-2.85-1.05c.6-1.2,1.25-2.58,1.94-4.14s1.38-3.19,2.08-4.91c.7-1.71,1.38-3.41,2.06-5.12.67-1.7,1.26-3.3,1.79-4.8ZM5.82,88.7l1.89-2.22c1.66.56,3.41,1.21,5.26,1.95,1.85.74,3.68,1.54,5.48,2.38,1.8.85,3.48,1.72,5.06,2.61,1.57.89,2.9,1.75,4,2.57l-2.13,2.64c-1.02-.82-2.29-1.68-3.81-2.59-1.52-.91-3.17-1.81-4.95-2.7-1.78-.89-3.6-1.74-5.44-2.54-1.85-.8-3.64-1.5-5.35-2.1Z"/>
        <path class="cls-1" d="M30.77,76.37l2.1.3c-.06.82-.16,1.73-.29,2.73-.13,1-.29,1.98-.48,2.94-.19.96-.42,1.82-.67,2.58l-2.16-.75c.26-.68.49-1.47.69-2.37.2-.9.37-1.83.51-2.77.14-.95.24-1.83.3-2.66ZM33.44,70.64h2.85v27.81h-2.85v-27.81ZM36.11,76.37l1.95-.84c.44.78.86,1.64,1.26,2.58.4.94.68,1.73.84,2.37l-2.1.99c-.1-.44-.25-.95-.45-1.53-.2-.58-.43-1.19-.7-1.83-.27-.64-.54-1.22-.8-1.74ZM42.02,72.02l2.79.42c-.24,1.48-.54,2.93-.9,4.35-.36,1.42-.77,2.75-1.21,3.98-.45,1.23-.96,2.31-1.52,3.25-.18-.12-.43-.26-.73-.43-.31-.17-.63-.33-.95-.48-.32-.15-.6-.28-.84-.38.56-.86,1.05-1.87,1.48-3.02.43-1.15.8-2.38,1.12-3.71.32-1.32.57-2.65.75-3.99ZM38.66,94.76h18.57v2.7h-18.57v-2.7ZM40.91,85.25h14.85v2.64h-14.85v-2.64ZM42.5,76.88h13.92v2.67h-14.76l.84-2.67ZM47.03,70.76h2.85v25.53h-2.85v-25.53Z"/>
        <path class="cls-1" d="M9.96,110.75h.54l.54-.12,1.59,1.05c-.76,1.88-1.74,3.68-2.94,5.4-1.2,1.72-2.52,3.28-3.95,4.67-1.43,1.39-2.88,2.54-4.33,3.46-.08-.26-.21-.56-.38-.9s-.34-.67-.52-.99-.35-.56-.51-.72c1.38-.78,2.72-1.76,4.02-2.96,1.3-1.19,2.47-2.51,3.51-3.96,1.04-1.45,1.85-2.92,2.43-4.4v-.54ZM1.08,110.75h9.9v2.58H1.08v-2.58ZM5.64,105.14h2.82v6.84h-2.82v-6.84ZM5.64,120.26l2.82-3.36v16.11h-2.82v-12.75ZM8.16,117.68c.28.18.66.48,1.16.9.49.42,1.02.88,1.59,1.37s1.09.94,1.56,1.35c.47.41.81.71,1.03.92l-1.74,2.31c-.28-.36-.64-.78-1.08-1.27s-.92-1-1.42-1.51c-.51-.52-1-1.02-1.47-1.49-.47-.47-.87-.84-1.19-1.12l1.56-1.44ZM11.7,129.35h17.01v2.79H11.7v-2.79ZM12.9,114.71h15.15v2.76h-15.15v-2.76ZM19.02,105.38h2.91v25.32h-2.91v-25.32Z"/>
        <path class="cls-1" d="M39.29,127.58l2.58,1.74c-.8.48-1.74.96-2.8,1.42-1.07.47-2.18.9-3.31,1.29-1.14.39-2.23.71-3.27.97-.24-.3-.57-.65-.99-1.05-.42-.4-.8-.74-1.14-1.02,1.06-.24,2.16-.54,3.3-.91s2.21-.77,3.21-1.2c1-.43,1.81-.84,2.43-1.25ZM33.53,114.77h21.66v13.11h-21.66v-13.11ZM34.85,106.19h19.2v7.11h-19.2v-7.11ZM36.35,116.81v1.71h15.9v-1.71h-15.9ZM36.35,120.44v1.74h15.9v-1.74h-15.9ZM36.35,124.07v1.8h15.9v-1.8h-15.9ZM37.7,108.44v2.61h13.35v-2.61h-13.35ZM46.28,129.53l2.49-1.83c1.06.28,2.17.62,3.34,1.02,1.17.4,2.3.8,3.39,1.2,1.09.4,2.03.77,2.83,1.11l-2.49,2.01c-.76-.36-1.69-.75-2.77-1.17-1.09-.42-2.23-.84-3.42-1.26s-2.31-.78-3.38-1.08Z"/>
      </g>
      <g>
        <path class="cls-1" d="M116.99,3.75v126.52c0,.77-.33,1.59-.98,2.45-.66.86-1.55,1.29-2.68,1.29h-21.68c-1.13,0-2.02-.43-2.68-1.29-.66-.86-.98-1.68-.98-2.45V29h-10.44c-.77,0-1.59-.33-2.45-.98-.86-.65-1.29-1.55-1.29-2.68V3.66c0-1.13.43-2.02,1.29-2.68.86-.65,1.68-.98,2.45-.98h35.78c1.13,0,2.02.43,2.68,1.29.65.86.98,1.68.98,2.45Z"/>
        <path class="cls-1" d="M228.88,3.75v126.52c0,.77-.33,1.59-.98,2.45-.66.86-1.55,1.29-2.68,1.29h-89.4c-1.19,0-2.1-.43-2.72-1.29-.62-.86-.94-1.68-.94-2.45V3.75c0-.77.31-1.59.94-2.45.62-.86,1.53-1.29,2.72-1.29h89.4c1.13,0,2.02.43,2.68,1.29.65.86.98,1.68.98,2.45ZM199.88,105.01V29h-38.72v76.02h38.72Z"/>
        <path class="cls-1" d="M340.77,3.75v126.52c0,.77-.33,1.59-.98,2.45-.66.86-1.55,1.29-2.68,1.29h-89.4c-1.19,0-2.1-.43-2.72-1.29-.62-.86-.94-1.68-.94-2.45V3.75c0-.77.31-1.59.94-2.45.62-.86,1.53-1.29,2.72-1.29h89.4c1.13,0,2.02.43,2.68,1.29.65.86.98,1.68.98,2.45ZM311.77,105.01V29h-38.72v76.02h38.72Z"/>
        <path class="cls-1" d="M355.04,54.11c3.75-1.93,9.12-2.23,13.38-2.23,17.23,0,19.36,8.41,19.36,23.62,0,6.99-.51,16.12-7.4,19.97-3.75,2.03-9.22,2.23-13.38,2.23-16.73,0-19.46-7.8-19.46-22.91,0-7.2.41-16.73,7.5-20.68ZM367.61,64.04c-7.81,0-7.81,4.56-7.81,11.15,0,7.4.81,10.34,8.11,10.34s7.6-4.36,7.6-11.15c0-7.2-.81-10.34-7.91-10.34ZM424.27,52.69l-45.31,79.88h-12.47l45.31-79.88h12.47ZM410.39,89.79c3.75-2.03,9.22-2.23,13.38-2.23,17.23,0,19.46,8.41,19.46,23.62,0,6.99-.61,16.12-7.5,19.97-3.75,2.03-9.22,2.23-13.38,2.23-16.73,0-19.36-7.8-19.36-22.91,0-7.2.3-16.72,7.4-20.68ZM422.95,99.72c-7.7,0-7.7,4.46-7.7,11.15,0,7.3.71,10.34,8.01,10.34s7.6-4.36,7.6-11.15c0-7.2-.81-10.34-7.91-10.34Z"/>
      </g>
    </g>
  </g>
</svg>