<?xml version="1.0" encoding="UTF-8"?>
<svg id="_レイヤー_2" data-name="レイヤー 2" xmlns="http://www.w3.org/2000/svg" viewBox="0 0 259.13 124.56">
  <defs>
    <style>
      .cls-1 {
        fill: #4d4d4d;
        stroke-width: 0px;
      }
    </style>
  </defs>
  <g id="_レイヤー_1-2" data-name="レイヤー 1">
    <g>
      <path class="cls-1" d="M89.9,121.08c0,.72-.3,1.48-.91,2.28-.61.8-1.44,1.2-2.49,1.2H3.81c-.72,0-1.48-.3-2.28-.91-.8-.61-1.2-1.44-1.2-2.49v-33.01c0-.72.29-1.48.87-2.28.58-.8,1.42-1.2,2.53-1.2h20.15c1.11,0,1.95.4,2.53,1.2.58.8.87,1.56.87,2.28v9.45h35.66v-23.14H3.4c-1.11,0-1.95-.4-2.53-1.2-.58-.8-.87-1.56-.87-2.28V3.48c0-.72.29-1.48.87-2.28C1.45.4,2.29,0,3.4,0h83.1c1.05,0,1.88.4,2.49,1.2.61.8.91,1.56.91,2.28v117.6ZM26.95,26.95v20.57h35.99v-20.57H26.95Z"/>
      <path class="cls-1" d="M112.44,109.02c.55,0,.99.21,1.31.63.32.42.48.82.48,1.2v11.47c0,.38-.16.78-.48,1.2-.32.42-.76.63-1.31.63h-10.6c-.55,0-.99-.21-1.31-.63-.32-.42-.48-.82-.48-1.2v-11.47c0-.38.16-.78.48-1.2.32-.42.76-.63,1.31-.63h10.6Z"/>
      <path class="cls-1" d="M142.57,53.57v10.96h42.07c.74,0,1.33.28,1.76.85.43.57.64,1.1.64,1.61v53.09c0,.51-.22,1.04-.64,1.61-.43.57-1.02.85-1.76.85h-58.42c-.51,0-1.05-.21-1.61-.64-.57-.43-.85-1.02-.85-1.76v-26.84c0-.51.21-1.04.64-1.61.43-.57,1.02-.85,1.76-.85h14.24c.74,0,1.33.28,1.76.85.43.57.64,1.1.64,1.61v10.2h25.2v-19.92h-42.07c-.74,0-1.33-.28-1.76-.85-.43-.57-.64-1.1-.64-1.61v-44.12c0-.51.21-1.04.64-1.61.43-.57,1.02-.85,1.76-.85h58.71c.51,0,1.04.21,1.61.64.57.43.85,1.02.85,1.76v14.24c0,.74-.28,1.33-.85,1.76-.57.43-1.1.64-1.61.64h-42.07Z"/>
      <path class="cls-1" d="M196.92,64.72c2.65-1.36,6.44-1.57,9.44-1.57,12.16,0,13.66,5.93,13.66,16.66,0,4.93-.36,11.37-5.22,14.09-2.65,1.43-6.51,1.57-9.44,1.57-11.8,0-13.73-5.51-13.73-16.16,0-5.08.29-11.8,5.29-14.59ZM205.79,71.73c-5.51,0-5.51,3.22-5.51,7.87,0,5.22.57,7.29,5.72,7.29s5.36-3.07,5.36-7.87c0-5.08-.57-7.29-5.58-7.29ZM245.76,63.72l-31.96,56.34h-8.79l31.96-56.34h8.79ZM235.96,89.89c2.65-1.43,6.51-1.57,9.44-1.57,12.16,0,13.73,5.93,13.73,16.66,0,4.93-.43,11.37-5.29,14.09-2.65,1.43-6.51,1.57-9.44,1.57-11.8,0-13.66-5.51-13.66-16.16,0-5.08.21-11.8,5.22-14.59ZM244.83,96.9c-5.43,0-5.43,3.15-5.43,7.87,0,5.15.5,7.29,5.65,7.29s5.36-3.08,5.36-7.87c0-5.08-.57-7.29-5.58-7.29Z"/>
    </g>
  </g>
</svg>