<?xml version="1.0" encoding="UTF-8"?>
<svg id="_レイヤー_2" data-name="レイヤー 2" xmlns="http://www.w3.org/2000/svg" viewBox="0 0 887.84 94.93">
  <defs>
    <style>
      .cls-1 {
        fill: #003654;
        stroke-width: 0px;
      }
    </style>
  </defs>
  <g id="_レイヤー_1-2" data-name="レイヤー 1">
    <g>
      <path class="cls-1" d="M11.46,10.69h6.65v3.1h-6.65v.49c1.75,2.9,3.88,5.51,6.32,7.83l-1.92,3.1c-2.2-2.77-3.22-4.28-4.41-6.49v19.29h-3.39v-18.27c-2.49,5.67-5.22,8.69-6.53,10.11l-1.55-3.75c1.92-1.88,4.73-4.69,7.87-12.32H.61v-3.1h7.46v-5.79c-3.59.2-5.34.29-7.01.33L.45,2.2c5.71.08,10.52-.45,16.15-2.12l1.35,3.1c-2.33.57-4.16,1.02-6.49,1.35v6.16ZM26.88.33c-1.47,10.85-3.22,21.7-6.16,31.73,7.67-.82,8.48-.9,12.89-1.59-.16-.69-1.35-5.38-4.12-12.24l3.26-1.02c2,4.65,5.14,13.38,6,19.7l-3.59,1.06c-.2-1.22-.29-1.96-.82-4.53-4.04.82-14.23,2.16-19.58,2.73l-.61-3.43c.41-.04,2.61-.24,3.22-.33,2.61-9.01,4.85-24.15,5.79-32.43l3.71.33Z"/>
      <path class="cls-1" d="M42.29,35.36c4.28-8.24,6.53-21.62,7.01-24.88h-5.95v-3.47h6.4c.29-2.85.29-3.02.49-5.38l3.96.12c-.24,2.08-.33,2.69-.65,5.26h11.22v3.47h-11.71c-1.67,10.16-4.57,20.68-6.97,26.14l-3.79-1.26ZM61.34,24.84c-1.39,2.04-1.39,3.26-1.39,3.71,0,3.59,4.73,3.75,9.46,3.75,1.39,0,4.45-.08,7.83-.33l.04,3.71c-1.02.04-6.36.12-7.67.12-4.81,0-13.13,0-13.13-6.93,0-2.04.86-3.71,1.92-5.38l2.94,1.35ZM76.35,16.19c-1.1-.04-2.33-.12-4.16-.12-4.12,0-7.59.41-11.18,1.71l-1.18-3.14c3.1-1.18,6.97-2.41,16.52-2.12v3.67Z"/>
      <path class="cls-1" d="M114.44,6.44v3.43h-21.09c-.41,2.85-.86,5.22-1.79,7.91,1.3-.77,4.98-2.98,10.6-2.98,9.14,0,11.05,6.12,11.05,9.87,0,11.09-12.48,11.26-19.86,11.26-2.61,0-3.96-.08-5.3-.16l-.78-3.59c1.43.12,3.75.33,7.06.33,7.75,0,14.93-.82,14.93-7.71,0-5.02-3.43-6.69-7.67-6.69-1.18,0-6.77,0-11.13,4.45-.16.33-.69,1.43-.82,1.67l-3.75-1.1c2.24-4.85,3.1-9.42,3.71-13.26h-9.01v-3.43h9.46c.16-2.28.2-3.1.2-4.69l4.04.08c-.16,1.55-.2,2.24-.49,4.61h20.64Z"/>
      <path class="cls-1" d="M123.44,5.68c-.62,3.26-1.4,7.67-1.4,14.97,0,3.82.16,7.67,1.01,11.39l-2.94.39c-.78-3.95-.91-7.99-.91-12.01,0-5.15.33-9.89,1.21-14.97l3.03.23ZM145.46,11.03v2.81h-6.1l.1,8.61c2.64,1.3,5.06,3.16,6.56,4.76l-1.92,2.64c-1.3-1.73-2.94-3.1-4.73-4.24v1.21c0,1.86-.03,5.55-6.26,5.55-5.09,0-6.98-2.97-6.98-5.61,0-3.39,3-5.71,7.14-5.71,1.63,0,2.45.23,3.36.49l-.13-7.7h-9.85v-2.81h9.79l-.1-5.51h2.97l.07,5.51h6.1ZM136.62,24.21c-.75-.33-1.66-.72-3.33-.72-2.19,0-4.57.85-4.57,3.29s2.48,3.13,4.21,3.13c3.56,0,3.69-1.92,3.69-3.69v-2.02Z"/>
      <path class="cls-1" d="M161.12,13.7v22.47h-10.16v-14.32c-.73,1.35-1.02,1.75-1.55,2.53l-1.39-4.16c3.71-5.59,4.32-12.77,4.49-15.13h-3.83V1.88h12.56v3.22h-5.63c-.37,3.34-.82,5.51-1.63,8.61h7.14ZM158.15,16.68h-4.2v16.44h4.2v-16.44ZM174.34,12.93c.57-1.02.9-1.71,2.24-5.22l3.1.61c-.53,1.47-.98,2.49-2.08,4.61h8.2v2.73h-8.04v4.24h6.93v2.61h-6.93v4.32h6.93v2.65h-6.93v4.89h8.77v2.86h-21.37v-17.62c-.86.86-1.22,1.14-2,1.79l-2-2.61c4.28-3.47,6.77-7.22,8.69-12.52h-4.32v4.81h-3.14V3.43h8.4c.45-1.63.57-2.24.82-3.43l3.3.49c-.29,1.14-.41,1.63-.82,2.94h11.71v7.67h-3.18v-4.81h-9.46c-1.43,3.71-2.49,5.75-2.98,6.65h4.16ZM168.51,15.66c-.12.16-.12.2-.25.33v3.92h6.53v-4.24h-6.28ZM174.79,22.51h-6.53v4.32h6.53v-4.32ZM174.79,29.49h-6.53v4.89h6.53v-4.89Z"/>
      <path class="cls-1" d="M190.48,34.34c4.53-9.05,6.57-19.33,7.06-21.94l-6.49.04v-3.51h7.1c.41-2.57.61-4.16.94-7.34l3.96.16c-.49,3.22-.65,4.16-1.18,7.18h4.4c4.85,0,8.89,1.06,8.89,10.52,0,3.26-.49,8.85-1.96,12.32-1.75,4.08-5.22,4.08-7.1,4.08-2.37,0-4.16-.2-4.81-.29l-.16-3.75c.94.16,2.37.49,4.45.49,2.73,0,3.83-.9,4.69-3.63.57-1.75,1.22-5.3,1.22-9.38,0-6.81-2.24-7.06-7.18-6.97l-3.1.04c-1.67,8.08-3.63,16.11-7.18,23.58l-3.55-1.59ZM222.01,23.33c-.33-5.14-1.63-11.3-5.79-16.23l3.02-1.67c4.69,4.77,6.2,11.91,6.69,17.21l-3.92.69Z"/>
      <path class="cls-1" d="M248.64,6.85v3.43h-9.26c-2.33,11.38-5.67,18.19-7.14,21.21l-3.75-1.63c4.36-7.02,6.16-15.01,7.22-19.58h-6.89v-3.43h7.54c.45-2.81.57-3.71.73-5.34l3.88.16c-.33,1.96-.37,2.2-.9,5.18h8.57ZM255.74,23.04c3.43,1.51,6.69,4.04,8.69,6.24l-2.24,3.22c-2.65-3.18-5.14-4.69-6.61-5.55v1.67c0,6.04-4.12,7.5-8.16,7.5-6.12,0-9.14-3.39-9.14-7.18,0-3.06,2.37-7.59,9.58-7.59,2.04,0,3.34.29,4.24.49l-.25-8.73h3.67l.2,9.91ZM252.19,25.25c-.94-.33-2.16-.77-4.32-.77-4.16,0-6.12,2.08-6.12,4.36,0,4.12,5.02,4.12,5.79,4.12,4.04,0,4.65-2.2,4.65-4.98v-2.73ZM262.02,13.3c-4.12-2.49-7.18-3.96-10.85-5.3l1.43-3.02c4.08,1.43,6.81,2.65,11.13,5.06l-1.71,3.26Z"/>
      <path class="cls-1" d="M281.14,20.23c-.9.49-2.04,1.06-5.02,2.37v12.24c0,2.45-1.14,3.14-3.18,3.14h-4.36l-.49-3.34h3.43c.53,0,1.35,0,1.35-1.14v-9.67c-1.55.57-3.34,1.1-4.98,1.59l-.53-3.55c1.14-.24,2.41-.53,5.51-1.59v-9.5h-5.18v-3.1h5.18V.2h3.26v7.46h4.85v3.1h-4.85v8.4c3.43-1.31,3.96-1.59,4.77-2l.25,3.06ZM278.98,34.75c5.55-1.47,8.93-3.18,11.87-5.22-2.45-2.65-4.12-5.63-5.63-9.14l3.1-1.22c2.33,5.14,4.08,7.1,5.14,8.28,3.83-3.55,5.42-7.55,6.12-9.42h-16.31v-3.06h8.73v-6.32h-10.03v-3.14h10.03V.16h3.34v5.34h10.03v3.14h-10.03v6.32h7.91v2.86c-.86,2.41-2.61,7.26-7.42,11.83,3.06,2.37,6.44,3.75,10.07,4.89l-1.96,3.47c-4.57-1.84-7.75-3.63-10.73-6.16-5.22,3.92-10.2,5.38-12.4,6l-1.84-3.1Z"/>
      <path class="cls-1" d="M308.26,20.07c4-3.71,6-8.04,7.22-11.13l2.81,1.18c-.41,1.31-.86,2.73-2.41,5.59v22.27h-3.26v-17.29c-1.35,1.71-2.08,2.32-2.98,3.1l-1.39-3.71ZM317.44,1.18c-1.35,3.26-4.08,6.89-7.42,9.26l-1.63-3.14c3.75-2.57,5.46-6.16,6.04-7.3l3.02,1.18ZM322.7,15.91c-.12,5.95-.69,12.73-2.61,16.93l-2.73-2.12c1.67-3.92,2.16-9.67,2.28-14.81h3.06ZM328.21.2v8.12h6.48v3.1h-6.48v26.55h-3.18V11.42h-5.96v-3.1h5.96V.2h3.18ZM332.41,7.26c-1.06-2.41-1.67-3.47-3.06-5.55l2.49-1.35c1.18,1.47,2.08,2.9,3.22,5.38l-2.65,1.51ZM333.67,15.91c1.1,4.81,1.59,11.5,1.63,15.25l-3.26.29c-.04-3.18-.25-8.85-1.31-15.17l2.94-.37ZM346.64,15.78h-3.18v18.48c0,1.71,0,3.71-3.51,3.71h-5.02l-.61-3.39,4.45.04c.9,0,1.43-.08,1.43-1.18V15.78h-5.22v-3.22h11.67v3.22ZM346.03,4.98h-10.4V1.79h10.4v3.18Z"/>
      <path class="cls-1" d="M364.42.12h3.59v4.61c0,.94-.04,2.12-.16,4.12h18.44c0,4.2-.69,20.39-1.75,24.27-1.14,4.28-4.53,4.94-6.2,4.94h-6.16l-.57-3.63h5.87c2.24,0,2.98-1.35,3.3-2.37,1.22-3.67,1.71-15.46,1.79-19.86h-15.05c-1.22,10.16-3.88,18.97-16.27,25.74l-2.08-3.14c12.07-6.65,13.83-14.56,14.81-22.6h-13.83v-3.34h14.11c.08-.94.16-2.28.16-4.28V.12Z"/>
      <path class="cls-1" d="M417.63,9.96c-1.4-.1-2.41-.13-3.33-.13-1.6,0-2.32.06-3.29.39-4.7,1.57-11.09,6.62-11.09,12.23,0,4.24,3.13,5.58,6.59,6.3,2.09.42,5.32.69,8.22.59l-.59,3.16c-6.43-.26-17.26-.72-17.26-9.85,0-6.2,5.71-10.47,9.56-12.72-.95.03-12.23.72-15.79,1.14l-.26-3.2c1.6-.03,7.24-.29,8.91-.39,7.73-.42,10.8-.49,18.27-.52l.07,3ZM410.88,13.87c1.5,1.92,2.45,3.69,3.59,6.17l-2.28,1.44c-1.08-2.61-1.89-4.14-3.42-6.3l2.12-1.31ZM415.71,11.78c1.57,2.02,2.41,3.62,3.59,6.17l-2.28,1.44c-1.11-2.64-1.86-4.05-3.42-6.3l2.12-1.31Z"/>
      <path class="cls-1" d="M428.2,33.22c-2.32-3.49-4.34-5.61-5.42-6.75l2.48-1.83c2.12,1.96,4.44,4.7,5.81,6.56l-2.87,2.02Z"/>
      <path class="cls-1" d="M450.84,29.28c-2.77,1.31-9.26,3.22-12.28,3.83l-.37-3.51c1.14-.2,2.2-.37,5.26-1.14v-15.17h-5.06v-3.1h5.06V.16h3.34v10.03h4.04v3.1h-4.04v14.23c2.24-.69,2.94-.94,3.88-1.26l.16,3.02ZM462.46,11.09V.16h3.3v10.03l9.38-2.45c.2,6.69-.49,14.89-.65,15.74-.41,2.08-1.51,3.51-3.83,3.51h-3.14l-.49-3.3,2.85.04c1.18,0,1.43-.61,1.67-1.55.29-.98.33-3.47.45-10.44l-6.24,1.67v15.34h-3.3v-14.48l-5.67,1.51v17.25c0,.77.49,1.1,1.47,1.1h12.77c.82,0,1.26,0,1.71-1.18.37-1.02.53-3.67.61-4.85l3.18.98c-.41,7.38-2.12,8.32-4.61,8.32h-14.64c-2.33,0-3.79-.86-3.79-3.18v-17.58l-3.59.98-.57-3.06,4.16-1.1V3.87h3.3v8.69l5.67-1.47Z"/>
      <path class="cls-1" d="M491.37,28.22c-2.73,1.59-7.79,3.83-11.42,5.02l-.49-3.63c1.18-.33,2.65-.73,5.02-1.59v-14.15h-4.81v-3.18h4.81V.24h3.18v10.44h3.51v3.18h-3.51v12.93c2.08-.82,2.77-1.18,3.71-1.71v3.14ZM489.25,30.51c5.38-.69,10.65-2,14.4-3.02l.12,3.02c-4.2,1.67-12.73,3.26-13.87,3.47l-.65-3.47ZM517.44,6.48v3.1h-9.14c.16,6.97.2,8.65.82,13.83,2.37-4.49,3.26-8.56,3.75-10.93l3.02.9c-1.43,6.93-3.71,11.26-5.96,14.76.65,3.3,2.16,6.2,2.86,6.2.94,0,2.08-4.61,2.41-5.96l2.81,1.59c-1.02,3.92-2.28,8.2-5.1,8.2-2.12,0-3.79-2.12-5.34-6.81-3.06,3.83-6.04,5.91-7.63,7.02l-2.69-2.49c2-1.26,5.71-3.67,9.34-8.48-1.1-5.34-1.47-12.36-1.59-17.82h-13.99v-3.1h13.91c-.04-2.61-.04-4.4-.04-6.24h3.22c0,1.02.12,5.67.12,6.24h9.22ZM503.12,24.72h-10.97v-12.24h10.97v12.24ZM500.18,15.21h-5.14v6.73h5.14v-6.73ZM514.13,6.44c-1.71-2.04-2.86-3.02-4.36-4.12l2.16-2.2c1.63,1.1,3.14,2.41,4.45,4l-2.24,2.32Z"/>
      <path class="cls-1" d="M534.77,29.66c3.36-.36,11.29-1.31,11.29-10.64,0-2.58-.78-9.75-9.75-10.05-.29,3.78-.95,11.81-4.31,17.19-1.92,3.03-4.01,3.78-5.48,3.78-3.2,0-5.87-3.78-5.87-9.17,0-8.87,6.46-14.55,15.07-14.55,10.57,0,13.41,7.31,13.41,12.82,0,3.88-1.4,7.73-4.37,10.21-2.12,1.76-5.38,2.87-9,3.23l-.98-2.84ZM528.01,11.2c-3.03,2.22-4.53,5.87-4.53,9.66,0,2.22.82,5.97,3.13,5.97,1.37,0,2.35-1.21,3.2-2.64,2.74-4.7,3.26-11.32,3.59-15.07-1.92.36-3.72.85-5.38,2.09Z"/>
      <path class="cls-1" d="M585.63,38.01c-1.84-1.22-5.47-3.63-12.15-6.53-2.24,1.63-8.52,5.34-19.13,6.44l-1.18-3.59c5.47-.49,11.58-1.51,16.68-4.32-3.3-1.3-6.93-2.53-13.3-4.28,1.22-1.43,3.22-3.79,5.46-7.67h-9.83v-3.22h11.58c1.43-2.77,2.12-4.69,2.61-6.12l3.75.69c-.45,1.1-.98,2.45-2.45,5.42h22.11v3.22h-7.22c-1.96,6.24-4.65,9.3-6.24,10.93,5.18,2.16,9.18,4.45,11.54,5.83l-2.24,3.18ZM569.16,3.83V.16h3.51v3.67h16.19v8.89h-3.47v-5.75h-28.75v5.75h-3.47V3.83h15.99ZM565.93,18.07c-1.96,3.43-3.14,4.98-3.96,6.04,2.94.86,7.01,2.04,11.09,3.59,3.92-3.59,5.46-8.28,5.91-9.63h-13.05Z"/>
      <path class="cls-1" d="M624.09,16.72h-10.28v6.2h13.05v3.06h-13.05v7.71h16.93v3.26h-37.36v-3.26h16.97v-7.71h-12.97v-3.06h12.97v-6.2h-10.16v-3.1c-2.77,1.67-4.49,2.45-5.96,3.14l-1.71-3.34c6.49-2.49,13.17-6.89,17.7-13.21h3.71c4.12,5.55,10.16,10.44,17.66,13.17l-1.71,3.34c-1.43-.65-3.26-1.47-5.79-3.06v3.06ZM623.97,13.58c-2.53-1.63-7.54-5.06-11.91-10.48-3.3,4.16-7.3,7.75-11.83,10.48h23.74Z"/>
      <path class="cls-1" d="M657.6,15.89c-2.64.29-20.26,2.28-20.26,9.53,0,3.78,3.98,4.14,10.99,4.14,5.38,0,8.42-.29,10.28-.49l.07,3.07c-2.12.13-4.99.33-9.69.33-5.64,0-14.68,0-14.68-6.95,0-5.58,6.72-8.38,9-9.36-1.08-2.12-1.14-4.01-1.24-10.96h3.2c-.03.88-.07,1.79-.07,3.39,0,3.46.16,5.19.85,6.59,3.52-1.08,6.2-1.6,11.25-2.41l.29,3.13Z"/>
      <path class="cls-1" d="M680.26,5.55V.2h3.39v5.34h14.81v3.22h-14.81v6.73h17.17v3.22h-15.54c4.36,6.16,10.56,10.4,16.15,13.01l-2,3.18c-3.79-2.04-10.77-6.24-15.78-13.62v16.72h-3.39v-16.72c-4.89,7.59-12.97,12.11-15.7,13.62l-1.92-3.22c6.57-2.94,11.62-6.57,15.95-12.97h-15.54v-3.22h17.21v-6.73h-14.72v-3.22h14.72Z"/>
      <path class="cls-1" d="M721.49,4.32V.24h3.34v4.08h15.95v3.18h-15.95v10.48h17.33v3.18h-15.13c5.34,6.77,11.34,9.99,15.74,11.87l-1.92,3.22c-7.02-3.59-11.26-7.34-16.03-13.42v15.13h-3.34v-14.93c-3.59,5.06-9.71,10.28-15.62,13.21l-2.12-3.06c7.5-3.34,12.6-7.95,15.78-12.03h-15.13v-3.18h17.09V7.5h-15.58v-3.18h15.58ZM712.76,17.21c-.57-1.92-1.71-4.89-3.1-7.38l3.18-1.31c1.06,1.92,2.24,4.36,3.18,7.5l-3.26,1.18ZM730.3,15.83c1.59-2.57,2.08-4,3.18-7.14l3.39,1.1c-1.55,4.57-2.81,6.36-3.47,7.34l-3.1-1.31Z"/>
      <path class="cls-1" d="M769.13,8.29v2.61h-14.39c-.75,1.99-1.21,3.07-2.15,4.7,2.28-1.37,3.59-1.92,5.22-1.92,2.22,0,4.31.72,4.96,3.82.75-.29,5.22-2.09,8.16-3.1l.78,2.84c-2.64.75-4.96,1.47-8.55,2.84.1,1.14.13,2.54.13,3.72,0,.46,0,1.44-.1,2.48h-2.84c.07-.75.16-1.96.16-3.13,0-.55,0-1.11-.07-1.96-2.51,1.17-6.46,3.26-6.46,5.94,0,2.87,3.62,2.87,7.21,2.87,2.61,0,5.68-.13,8.61-.46l.1,2.81c-1.86.13-4.7.33-7.8.33-3.69,0-11.06,0-11.06-5.25,0-4.44,5.84-7.37,9.07-8.81-.36-1.92-1.27-2.58-2.77-2.58-1.79,0-4.18,1.01-6.46,3.33-1.5,2.06-3.65,4.93-4.7,6l-2.02-2.19c2.87-2.71,5.48-6.17,7.57-12.27h-6.72v-2.61h7.5c.23-.85.46-1.79.68-3.65l3.13.13c-.2,1.14-.36,1.89-.82,3.52h13.6Z"/>
      <path class="cls-1" d="M795.75,12.68v11.99h-15.66c-.12,2.49-.49,8.56-3.79,13.3l-2.45-2.37c.9-1.35,3.26-4.77,3.26-11.58v-11.34h18.64ZM793.59,10.6h-12.77v-1.79c-2.53,2-3.63,2.61-5.26,3.34l-1.55-3.14c4.65-1.84,8.93-5.38,11.18-8.85h3.34c3.55,4.24,7.95,6.28,10.2,7.18l-1.59,2.94c-1.47-.73-2.2-1.14-3.55-2v2.33ZM780.09,15.17v2.37h12.77v-2.37h-12.77ZM780.09,19.66v2.61h12.77v-2.61h-12.77ZM796.86,26.92v10.4h-15.91v-10.4h15.91ZM793.06,7.91c-2.37-1.71-4-3.06-5.95-5.3-1.22,1.55-2.33,2.81-5.14,5.3h11.09ZM783.93,29.53v5.14h9.95v-5.14h-9.95ZM802.73,2.45v26.31h-3.26V2.45h3.26ZM810.76.16v34.67c0,2.04-.69,3.14-3.39,3.14h-5.34l-.65-3.39,5.06.04c.57,0,.98.04.98-.82V.16h3.34Z"/>
      <path class="cls-1" d="M823.16,16.11v11.42c.53,1.63,1.1,3.67,3.55,4.94,1.51.77,4.2,1.47,6.57,1.47h19.9l-.53,3.22h-19.74c-4.53,0-8.48-1.51-10.56-5.26-1.79,2.45-3.51,4.16-6,6.2l-1.88-3.47c2.41-1.63,4.16-3.02,5.34-4.57v-10.69h-4.77v-3.26h8.12ZM822.02,9.63c-1.79-2.53-3.55-4.45-6.28-6.77l2.33-2.16c3.67,2.65,5.96,5.67,6.65,6.57l-2.69,2.37ZM837.15,4.69V.16h3.34v4.53h10.6v3.06h-10.6v4.81h12.15v3.1h-27.65v-3.1h12.15v-4.81h-6.65c-1.51,2.37-2.28,3.14-3.14,4.04l-2.57-2.37c3.22-2.94,4.89-6.73,5.59-8.69l3.14.86c-.25.77-.41,1.35-1.26,3.1h4.89ZM850.24,30.79h-22.76v-12.07h22.76v12.07ZM846.94,21.62h-16.11v6.24h16.11v-6.24Z"/>
      <path class="cls-1" d="M863.98,2.04c-.37,11.01-.53,15.87-.53,19.74,0,5.22.25,10.69,7.91,10.69,10.56,0,11.91-7.34,13.05-13.54l3.43,1.26c-1.31,7.38-3.96,15.78-16.36,15.78-11.18,0-11.91-7.46-11.91-14.56,0-3.06.25-16.6.29-19.37h4.12Z"/>
      <path class="cls-1" d="M236.72,94.72h-3.3v-16.52c-2.57,2.37-4.45,3.59-5.59,4.32l-1.39-3.34c6.77-4.08,10.56-9.34,11.95-12.64h-11.42v-3.06h6.44v-6.65h3.3v6.65h5.26v3.1c-.41.98-1.47,3.51-4.45,7.22,2.16,2.49,3.59,3.71,5.87,5.34l-1.83,2.98c-2.16-1.75-2.61-2.24-4.85-4.89v17.5ZM254.79,56.83v11.79h8.97v3.34h-8.97v17.95h9.91v3.34h-23.78v-3.34h10.44v-17.95h-8.52v-3.34h8.52v-11.79h3.43Z"/>
      <path class="cls-1" d="M297.61,71.19h-21.58v-2.28c-3.63,2.24-5.87,3.22-7.26,3.79l-1.67-3.3c12.15-4.77,16.72-11.38,17.82-13.01h3.63c4.24,5.67,10.73,10.6,17.82,13.13l-1.79,3.26c-1.79-.82-4.08-1.88-6.97-3.83v2.24ZM294.02,80.86c4.36,4.28,6.85,7.14,9.99,12.11l-2.94,1.96c-.65-1.1-1.14-1.88-2-3.14-6.81.98-23.45,1.71-29.73,1.71l-.37-3.34h5.63c2.57-4.41,4.12-8.2,5.02-10.56h-11.18v-3.14h36.42v3.14h-21.29c-.98,2.24-2.61,5.79-5.26,10.48,1.02-.04,5.59-.16,6.44-.2,4.98-.2,9.18-.57,12.19-.86-.41-.53-2.45-3.1-5.63-6.32l2.69-1.83ZM296.31,68.09c-5.75-4.08-8.12-7.02-9.54-8.81-2.57,3.59-6.04,6.44-9.46,8.81h19.01Z"/>
      <path class="cls-1" d="M322.88,86.33c3.36-.36,11.29-1.31,11.29-10.64,0-2.58-.78-9.75-9.75-10.05-.29,3.78-.95,11.81-4.31,17.19-1.92,3.03-4.01,3.78-5.48,3.78-3.2,0-5.87-3.78-5.87-9.17,0-8.87,6.46-14.55,15.07-14.55,10.57,0,13.41,7.31,13.41,12.82,0,3.88-1.4,7.73-4.37,10.21-2.12,1.76-5.38,2.87-9,3.23l-.98-2.84ZM316.13,67.87c-3.03,2.22-4.53,5.87-4.53,9.66,0,2.22.82,5.97,3.13,5.97,1.37,0,2.35-1.21,3.2-2.64,2.74-4.7,3.26-11.32,3.59-15.07-1.92.36-3.72.85-5.38,2.09Z"/>
      <path class="cls-1" d="M377.27,61.77c-2,2.45-3.43,3.75-5.83,6,1.75.98,3.51,1.96,6.73,3.3l-1.43,3.14c-2.33-1.1-3.67-1.75-6.24-3.22v2.57h-5.06v5.87h11.3v3.06h-11.3v7.26c0,.86.16,1.06,1.18,1.06h5.51c1.84,0,2.08-.41,2.37-5.18l3.34.65c-.57,5.75-.86,7.71-4.45,7.71h-8.08c-1.06,0-3.18,0-3.18-2.77v-8.73h-7.26c-1.14,7.1-7.1,10.56-13.26,12.11l-1.59-3.26c7.06-1.06,10.93-4.98,11.54-8.85h-10.61v-3.06h10.81v-5.87h-4.61v-2.41c-1.39.82-2.73,1.59-5.96,3.06l-1.63-3.06c4.08-1.47,5.96-2.61,7.71-3.71-1.75-1.55-2.98-2.53-5.26-4.16l2.24-2c2.65,1.63,5.18,3.87,5.67,4.32,2.08-1.63,3.38-2.81,5.26-4.85h-11.26v-2.86h16.68c1.14,1.75,1.92,2.69,3.18,4,2.33-2.08,3.55-3.18,5.02-4.98l2.73,1.55c-2.28,2.65-5.1,5.1-5.55,5.47.82.69,1.43,1.18,2.81,2.16,2.98-2.65,4.41-4.16,5.75-5.87l2.69,1.55ZM369.76,70.54c-5.02-3.06-8.24-6.36-10.93-9.58-1.22,1.59-4.32,5.55-10.73,9.58h21.66ZM362.14,73.56h-7.1v5.87h7.1v-5.87Z"/>
      <path class="cls-1" d="M415.6,83.63c-2,1.96-4.24,3.75-5.42,4.57,3.26,2,6.49,2.81,8.57,3.3l-1.71,3.26c-8.12-2.61-12.56-5.63-16.48-13.05h-4.77v8.77c2.61-.33,5.67-.69,8.16-1.14l.12,3.06c-4.98,1.14-12.85,1.75-15.87,2l-.65-3.26c1.06-.04,2.08-.08,4.94-.33v-9.1h-5.55c-.73,7.42-2.2,10.77-3.38,12.89l-3.02-2.2c3.18-5.3,3.51-13.46,3.51-18.31v-16.11h32.51v9.67h-6.61v3.83h6.69v2.73h-6.69v4.69h8.32v2.81h-4.93l2.28,1.92ZM395.09,67.64h-7.75v6.49c0,2.08-.12,3.75-.16,4.77h7.91v-4.69h-6.12v-2.73h6.12v-3.83ZM413.2,60.79h-25.86v4.16h25.86v-4.16ZM406.79,67.64h-8.56v3.83h8.56v-3.83ZM406.79,74.21h-8.56v4.69h8.56v-4.69ZM404.02,81.71c.69,1.18,1.79,3.02,3.75,4.69,1.18-.86,3.3-2.61,5.06-4.69h-8.81Z"/>
      <path class="cls-1" d="M427.47,62.68c-.49,2.28-1.47,6.56-1.47,14.78,0,7.28.75,10.41,1.01,11.58l-3.16.26c-.29-1.89-.85-5.15-.85-11.39,0-5.38.33-10.6,1.37-15.5l3.1.26ZM435.79,76.68c-1.6,2.25-1.63,4.11-1.63,4.4,0,2.97,3.33,3.36,6.82,3.36,1.79,0,4.47-.06,7.47-.39v3.07c-1.11.1-3.39.29-6.17.29-4.83,0-10.86-.46-10.86-6.07,0-1.7.59-3.56,1.73-5.48l2.64.82ZM447.76,65.06v2.87h-15.33v-2.87h15.33Z"/>
      <path class="cls-1" d="M486.56,60.79h-14.52v3.02h17.25v2.73h-37.85v-2.73h17.38v-3.02h-14.48v-2.73h32.22v2.73ZM451.56,91.79c7.22-1.1,10.24-2.73,12.2-3.92l2.28,2.32c-3.71,2.45-9.22,4-12.89,4.65l-1.59-3.06ZM485.37,68.83v18.6h-29.94v-18.6h29.94ZM482.11,71.52h-23.49v2.77h23.49v-2.77ZM482.11,76.57h-23.49v2.85h23.49v-2.85ZM482.11,81.75h-23.49v3.02h23.49v-3.02ZM477.01,87.87c3.88,2.24,7.46,3.22,12.07,3.75l-1.47,3.22c-2.73-.45-7.95-1.47-12.85-4.65l2.24-2.32Z"/>
      <path class="cls-1" d="M501.93,60.75v-3.88h3.06v3.88h9.34v3.02h-9.34v4.08h7.99v24.19c0,.82-.08,2.65-2.65,2.65h-3.71l-.57-3.34,3.1.04c.73,0,.9-.37.9-1.02v-19.54h-13.05v23.86h-2.94v-26.84h7.87v-4.08h-9.34v-3.02h9.34ZM499.89,76.94c-.2-1.14-.61-2.73-1.1-4.32l2.53-.49c.37,1.59.73,3.18.98,4.81h2.49c.61-2,.94-3.92,1.1-4.81l2.53.45c-.2,1.18-.9,3.34-1.26,4.36h1.79v2.73h-3.96v3.83h3.96v2.81h-3.96v7.67h-2.85v-7.67h-4v-2.81h4v-3.83h-4v-2.73h1.75ZM530.4,68.17v3.22h-7.01c.33,3.1,1.96,13.54,7.67,20.43l-2.24,2.86c-3.47-4.12-6-10.97-6.89-17.5-.86,7.99-3.47,14.32-6.32,17.66l-2.28-3.02c4.81-5.42,6.28-15.17,6.65-20.43h-5.83v-3.22h5.91v-11.3h3.18v11.3h7.18ZM527.5,66.17c-.73-2.04-1.59-4.04-3.26-6.97l2.65-1.18c1.22,1.88,2.57,4.57,3.39,6.89l-2.77,1.26Z"/>
      <path class="cls-1" d="M541.49,58.71c-.37,11.01-.53,15.87-.53,19.74,0,5.22.25,10.69,7.91,10.69,10.56,0,11.91-7.34,13.05-13.54l3.43,1.26c-1.31,7.38-3.96,15.78-16.36,15.78-11.18,0-11.91-7.46-11.91-14.56,0-3.06.25-16.6.29-19.37h4.12Z"/>
      <path class="cls-1" d="M601.84,62.83v3.14h-13.01v5.06h12.24v3.1h-12.24v5.71c4.32,1.59,7.91,3.83,12.2,7.42l-2.41,3.51c-3.96-4.36-7.54-6.24-9.79-7.26v2.32c0,5.83-4.85,6.93-8.28,6.93-7.95,0-9.67-4.24-9.67-6.85,0-4.28,4.2-7.38,10.28-7.38,1.84,0,3.22.24,4.08.41v-4.81h-14.89v-3.1h14.89v-5.06h-15.5v-3.14h15.5v-4.28h3.59v4.28h13.01ZM585.24,82.12c-.82-.24-2-.57-4.08-.57-3.79,0-6.85,1.55-6.85,4.24,0,.77.41,3.79,5.79,3.79,3.55,0,5.14-1.26,5.14-4.49v-2.98Z"/>
      <path class="cls-1" d="M641.77,62.71v3.39h-10.69v8.2c.2.77.41,1.71.53,2.69.16,1.02.25,2.08.25,3.14,0,10.77-9.54,12.73-16.64,13.01l-1.14-3.43c10.89.12,13.91-3.63,14.44-8.48-.41.86-1.75,3.92-6.44,3.92-5.06,0-7.59-4.04-7.59-7.99,0-4.77,3.39-8.28,8.44-8.28,2.73,0,3.71.9,4.57,1.63l-.04-4.41h-20.11v-3.39h20.07l-.08-4.57h3.75v4.57h10.69ZM627.58,75.64c-.33-1.31-.98-3.71-4.57-3.71-2.24,0-5.1,1.31-5.1,5.06,0,1.71.86,5.18,4.65,5.18,2.9,0,5.02-2.04,5.02-4.73v-1.79Z"/>
      <path class="cls-1" d="M660.16,87.26c0,3.34-2.73,6.08-6.08,6.08s-6.08-2.73-6.08-6.08,2.73-6.08,6.08-6.08,6.08,2.65,6.08,6.08ZM650.04,87.26c0,2.2,1.79,4,4.04,4s4-1.79,4-4-1.83-4.04-4-4.04-4.04,1.79-4.04,4.04Z"/>
    </g>
  </g>
</svg>