<?xml version="1.0" encoding="UTF-8"?>
<svg id="_レイヤー_2" data-name="レイヤー 2" xmlns="http://www.w3.org/2000/svg" viewBox="0 0 116.84 89.89">
  <defs>
    <style>
      .cls-1 {
        fill: #fff;
      }

      .cls-1, .cls-2 {
        stroke-width: 0px;
      }

      .cls-2 {
        fill: #4d4d4d;
      }
    </style>
  </defs>
  <g id="_レイヤー_2-2" data-name=" レイヤー 2">
    <g>
      <path class="cls-2" d="M113.08,4.75c-.69,0-1.35,0-2.02.01v-1.22c0-1.95-1.57-3.54-3.5-3.54-32.02,0-46.09,6.05-49.12,7.57C55.52,6.01,42.15,0,9.28,0c-1.93,0-3.5,1.59-3.5,3.54v1.22c-.67,0-1.33-.01-2.02-.01-2.07,0-3.76,1.6-3.76,3.57v70.69c0,1.86,1.53,3.36,3.64,3.56,28.04,2.85,42.48,4.32,45.7,4.65.6,1.28,1.56,2.19,2.74,2.6.13.04.26.07.39.07h11.88c.11,0,.21-.01.32-.04,1.21-.34,2.2-1.25,2.82-2.62,0,0,0,0,.01,0l5.09-.51c5.81-.59,17.41-1.77,40.58-4.13,2.11-.21,3.64-1.71,3.64-3.57V8.54c.01-.07.02-.14.02-.22,0-1.97-1.69-3.57-3.76-3.57ZM9.28,74.42c-.62,0-1.12-.52-1.12-1.16V3.54c0-.64.5-1.16,1.12-1.16,31.95,0,45.24,5.86,47.95,7.25v71.78c-4.63-2.1-18.6-7-47.95-7ZM108.68,73.26c0,.64-.5,1.16-1.12,1.16-29.09,0-43.27,4.94-47.95,7.02V9.66c2.91-1.4,16.93-7.28,47.95-7.28.62,0,1.12.52,1.12,1.16v69.72Z"/>
      <path class="cls-1" d="M107.56,74.42c.62,0,1.12-.52,1.12-1.16V3.54c0-.64-.5-1.16-1.12-1.16-31.02,0-45.04,5.87-47.95,7.28v71.78c4.68-2.08,18.86-7.02,47.95-7.02ZM67.72,21.02c.38-.22,9.67-5.3,33.79-5.3.66,0,1.19.53,1.19,1.19s-.53,1.19-1.19,1.19c-23.37,0-32.53,4.95-32.62,5-.18.1-.38.15-.58.15-.42,0-.82-.22-1.04-.61-.32-.57-.12-1.29.45-1.62ZM67.72,35.14c.38-.22,9.67-5.3,33.79-5.3.66,0,1.19.53,1.19,1.19s-.53,1.19-1.19,1.19c-23.37,0-32.53,4.95-32.62,5-.18.1-.38.15-.58.15-.42,0-.82-.22-1.04-.61-.32-.57-.12-1.29.45-1.62ZM67.72,49.26c.38-.22,9.67-5.3,33.79-5.3.66,0,1.19.53,1.19,1.19s-.53,1.19-1.19,1.19c-23.37,0-32.53,4.95-32.62,5-.18.1-.38.15-.58.15-.42,0-.82-.22-1.04-.61-.32-.57-.12-1.29.45-1.62ZM67.72,63.37c.38-.22,9.67-5.3,33.79-5.3.66,0,1.19.53,1.19,1.19s-.53,1.19-1.19,1.19c-23.37,0-32.53,4.95-32.62,5-.18.1-.38.15-.58.15-.42,0-.82-.22-1.04-.61-.32-.57-.12-1.29.45-1.62Z"/>
      <path class="cls-1" d="M9.28,74.42c29.35,0,43.32,4.9,47.95,7V9.63c-2.72-1.4-16-7.25-47.95-7.25-.62,0-1.12.52-1.12,1.16v69.72c0,.64.5,1.16,1.12,1.16ZM15.34,15.72c24.12,0,33.4,5.09,33.78,5.3.57.32.77,1.05.45,1.62-.22.39-.62.61-1.04.61-.2,0-.4-.05-.58-.15-.11-.06-9.28-5-32.62-5-.66,0-1.19-.53-1.19-1.19s.53-1.19,1.19-1.19ZM15.34,29.84c24.12,0,33.4,5.09,33.78,5.3.57.32.77,1.05.45,1.62-.22.39-.62.61-1.04.61-.2,0-.4-.05-.58-.15-.11-.06-9.28-5-32.62-5-.66,0-1.19-.53-1.19-1.19s.53-1.19,1.19-1.19ZM15.34,43.96c24.12,0,33.4,5.09,33.78,5.3.57.32.77,1.05.45,1.62-.22.39-.62.61-1.04.61-.2,0-.4-.05-.58-.15-.11-.06-9.28-5-32.62-5-.66,0-1.19-.53-1.19-1.19s.53-1.19,1.19-1.19ZM15.34,58.07c24.12,0,33.4,5.09,33.78,5.3.57.32.77,1.05.45,1.62-.22.39-.62.61-1.04.61-.2,0-.4-.05-.58-.15-.11-.06-9.28-5-32.62-5-.66,0-1.19-.53-1.19-1.19s.53-1.19,1.19-1.19Z"/>
      <path class="cls-2" d="M68.31,51.49c.2,0,.4-.05.58-.15.09-.05,9.25-5,32.62-5,.66,0,1.19-.53,1.19-1.19s-.53-1.19-1.19-1.19c-24.12,0-33.4,5.09-33.79,5.3-.57.32-.77,1.04-.45,1.62.22.39.62.61,1.04.61Z"/>
      <path class="cls-2" d="M68.31,23.25c.2,0,.4-.05.58-.15.09-.05,9.25-5,32.62-5,.66,0,1.19-.53,1.19-1.19s-.53-1.19-1.19-1.19c-24.12,0-33.4,5.09-33.79,5.3-.57.32-.77,1.05-.45,1.62.22.39.62.61,1.04.61Z"/>
      <path class="cls-2" d="M68.31,37.37c.2,0,.4-.05.58-.15.09-.05,9.25-5,32.62-5,.66,0,1.19-.53,1.19-1.19s-.53-1.19-1.19-1.19c-24.12,0-33.4,5.09-33.79,5.3-.57.32-.77,1.05-.45,1.62.22.39.62.61,1.04.61Z"/>
      <path class="cls-2" d="M68.31,65.6c.2,0,.4-.05.58-.15.09-.05,9.25-5,32.62-5,.66,0,1.19-.53,1.19-1.19s-.53-1.19-1.19-1.19c-24.12,0-33.4,5.09-33.79,5.3-.57.32-.77,1.04-.45,1.62.22.39.62.61,1.04.61Z"/>
      <path class="cls-2" d="M15.34,18.1c23.34,0,32.5,4.94,32.62,5,.18.1.38.15.58.15.42,0,.82-.22,1.04-.61.32-.57.12-1.3-.45-1.62-.38-.22-9.67-5.3-33.78-5.3-.66,0-1.19.53-1.19,1.19s.53,1.19,1.19,1.19Z"/>
      <path class="cls-2" d="M15.34,46.34c23.34,0,32.5,4.94,32.62,5,.18.1.38.15.58.15.42,0,.82-.22,1.04-.61.32-.57.12-1.3-.45-1.62-.38-.22-9.67-5.3-33.78-5.3-.66,0-1.19.53-1.19,1.19s.53,1.19,1.19,1.19Z"/>
      <path class="cls-2" d="M15.34,60.45c23.34,0,32.5,4.93,32.62,5,.18.1.38.15.58.15.42,0,.82-.22,1.04-.61.32-.57.12-1.3-.45-1.62-.38-.22-9.67-5.3-33.78-5.3-.66,0-1.19.53-1.19,1.19s.53,1.19,1.19,1.19Z"/>
      <path class="cls-2" d="M15.34,32.22c23.34,0,32.5,4.94,32.62,5,.18.1.38.15.58.15.42,0,.82-.22,1.04-.61.32-.57.12-1.3-.45-1.62-.38-.22-9.67-5.3-33.78-5.3-.66,0-1.19.53-1.19,1.19s.53,1.19,1.19,1.19Z"/>
    </g>
  </g>
</svg>